G04 #@! TF.GenerationSoftware,KiCad,Pcbnew,(5.1.5)-3*
G04 #@! TF.CreationDate,2020-02-10T18:15:39+01:00*
G04 #@! TF.ProjectId,WeatherStation,57656174-6865-4725-9374-6174696f6e2e,rev?*
G04 #@! TF.SameCoordinates,Original*
G04 #@! TF.FileFunction,Soldermask,Top*
G04 #@! TF.FilePolarity,Negative*
%FSLAX46Y46*%
G04 Gerber Fmt 4.6, Leading zero omitted, Abs format (unit mm)*
G04 Created by KiCad (PCBNEW (5.1.5)-3) date 2020-02-10 18:15:39*
%MOMM*%
%LPD*%
G04 APERTURE LIST*
%ADD10C,0.100000*%
G04 APERTURE END LIST*
D10*
G36*
X179307142Y-109708242D02*
G01*
X179455101Y-109769529D01*
X179588255Y-109858499D01*
X179701501Y-109971745D01*
X179790471Y-110104899D01*
X179851758Y-110252858D01*
X179883000Y-110409925D01*
X179883000Y-110570075D01*
X179851758Y-110727142D01*
X179790471Y-110875101D01*
X179701501Y-111008255D01*
X179588255Y-111121501D01*
X179455101Y-111210471D01*
X179307142Y-111271758D01*
X179150075Y-111303000D01*
X178989925Y-111303000D01*
X178832858Y-111271758D01*
X178684899Y-111210471D01*
X178551745Y-111121501D01*
X178438499Y-111008255D01*
X178349529Y-110875101D01*
X178288242Y-110727142D01*
X178257000Y-110570075D01*
X178257000Y-110409925D01*
X178288242Y-110252858D01*
X178349529Y-110104899D01*
X178438499Y-109971745D01*
X178551745Y-109858499D01*
X178684899Y-109769529D01*
X178832858Y-109708242D01*
X178989925Y-109677000D01*
X179150075Y-109677000D01*
X179307142Y-109708242D01*
G37*
G36*
X176767142Y-109708242D02*
G01*
X176915101Y-109769529D01*
X177048255Y-109858499D01*
X177161501Y-109971745D01*
X177250471Y-110104899D01*
X177311758Y-110252858D01*
X177343000Y-110409925D01*
X177343000Y-110570075D01*
X177311758Y-110727142D01*
X177250471Y-110875101D01*
X177161501Y-111008255D01*
X177048255Y-111121501D01*
X176915101Y-111210471D01*
X176767142Y-111271758D01*
X176610075Y-111303000D01*
X176449925Y-111303000D01*
X176292858Y-111271758D01*
X176144899Y-111210471D01*
X176011745Y-111121501D01*
X175898499Y-111008255D01*
X175809529Y-110875101D01*
X175748242Y-110727142D01*
X175717000Y-110570075D01*
X175717000Y-110409925D01*
X175748242Y-110252858D01*
X175809529Y-110104899D01*
X175898499Y-109971745D01*
X176011745Y-109858499D01*
X176144899Y-109769529D01*
X176292858Y-109708242D01*
X176449925Y-109677000D01*
X176610075Y-109677000D01*
X176767142Y-109708242D01*
G37*
G36*
X176767142Y-107168242D02*
G01*
X176915101Y-107229529D01*
X177048255Y-107318499D01*
X177161501Y-107431745D01*
X177250471Y-107564899D01*
X177311758Y-107712858D01*
X177343000Y-107869925D01*
X177343000Y-108030075D01*
X177311758Y-108187142D01*
X177250471Y-108335101D01*
X177161501Y-108468255D01*
X177048255Y-108581501D01*
X176915101Y-108670471D01*
X176767142Y-108731758D01*
X176610075Y-108763000D01*
X176449925Y-108763000D01*
X176292858Y-108731758D01*
X176144899Y-108670471D01*
X176011745Y-108581501D01*
X175898499Y-108468255D01*
X175809529Y-108335101D01*
X175748242Y-108187142D01*
X175717000Y-108030075D01*
X175717000Y-107869925D01*
X175748242Y-107712858D01*
X175809529Y-107564899D01*
X175898499Y-107431745D01*
X176011745Y-107318499D01*
X176144899Y-107229529D01*
X176292858Y-107168242D01*
X176449925Y-107137000D01*
X176610075Y-107137000D01*
X176767142Y-107168242D01*
G37*
G36*
X179307142Y-107168242D02*
G01*
X179455101Y-107229529D01*
X179588255Y-107318499D01*
X179701501Y-107431745D01*
X179790471Y-107564899D01*
X179851758Y-107712858D01*
X179883000Y-107869925D01*
X179883000Y-108030075D01*
X179851758Y-108187142D01*
X179790471Y-108335101D01*
X179701501Y-108468255D01*
X179588255Y-108581501D01*
X179455101Y-108670471D01*
X179307142Y-108731758D01*
X179150075Y-108763000D01*
X178989925Y-108763000D01*
X178832858Y-108731758D01*
X178684899Y-108670471D01*
X178551745Y-108581501D01*
X178438499Y-108468255D01*
X178349529Y-108335101D01*
X178288242Y-108187142D01*
X178257000Y-108030075D01*
X178257000Y-107869925D01*
X178288242Y-107712858D01*
X178349529Y-107564899D01*
X178438499Y-107431745D01*
X178551745Y-107318499D01*
X178684899Y-107229529D01*
X178832858Y-107168242D01*
X178989925Y-107137000D01*
X179150075Y-107137000D01*
X179307142Y-107168242D01*
G37*
G36*
X179307142Y-104628242D02*
G01*
X179455101Y-104689529D01*
X179588255Y-104778499D01*
X179701501Y-104891745D01*
X179790471Y-105024899D01*
X179851758Y-105172858D01*
X179883000Y-105329925D01*
X179883000Y-105490075D01*
X179851758Y-105647142D01*
X179790471Y-105795101D01*
X179701501Y-105928255D01*
X179588255Y-106041501D01*
X179455101Y-106130471D01*
X179307142Y-106191758D01*
X179150075Y-106223000D01*
X178989925Y-106223000D01*
X178832858Y-106191758D01*
X178684899Y-106130471D01*
X178551745Y-106041501D01*
X178438499Y-105928255D01*
X178349529Y-105795101D01*
X178288242Y-105647142D01*
X178257000Y-105490075D01*
X178257000Y-105329925D01*
X178288242Y-105172858D01*
X178349529Y-105024899D01*
X178438499Y-104891745D01*
X178551745Y-104778499D01*
X178684899Y-104689529D01*
X178832858Y-104628242D01*
X178989925Y-104597000D01*
X179150075Y-104597000D01*
X179307142Y-104628242D01*
G37*
G36*
X176767142Y-104628242D02*
G01*
X176915101Y-104689529D01*
X177048255Y-104778499D01*
X177161501Y-104891745D01*
X177250471Y-105024899D01*
X177311758Y-105172858D01*
X177343000Y-105329925D01*
X177343000Y-105490075D01*
X177311758Y-105647142D01*
X177250471Y-105795101D01*
X177161501Y-105928255D01*
X177048255Y-106041501D01*
X176915101Y-106130471D01*
X176767142Y-106191758D01*
X176610075Y-106223000D01*
X176449925Y-106223000D01*
X176292858Y-106191758D01*
X176144899Y-106130471D01*
X176011745Y-106041501D01*
X175898499Y-105928255D01*
X175809529Y-105795101D01*
X175748242Y-105647142D01*
X175717000Y-105490075D01*
X175717000Y-105329925D01*
X175748242Y-105172858D01*
X175809529Y-105024899D01*
X175898499Y-104891745D01*
X176011745Y-104778499D01*
X176144899Y-104689529D01*
X176292858Y-104628242D01*
X176449925Y-104597000D01*
X176610075Y-104597000D01*
X176767142Y-104628242D01*
G37*
G36*
X165348228Y-102051703D02*
G01*
X165503100Y-102115853D01*
X165642481Y-102208985D01*
X165761015Y-102327519D01*
X165854147Y-102466900D01*
X165918297Y-102621772D01*
X165951000Y-102786184D01*
X165951000Y-102953816D01*
X165918297Y-103118228D01*
X165854147Y-103273100D01*
X165761015Y-103412481D01*
X165642481Y-103531015D01*
X165503100Y-103624147D01*
X165348228Y-103688297D01*
X165183816Y-103721000D01*
X165016184Y-103721000D01*
X164851772Y-103688297D01*
X164696900Y-103624147D01*
X164557519Y-103531015D01*
X164438985Y-103412481D01*
X164345853Y-103273100D01*
X164281703Y-103118228D01*
X164249000Y-102953816D01*
X164249000Y-102786184D01*
X164281703Y-102621772D01*
X164345853Y-102466900D01*
X164438985Y-102327519D01*
X164557519Y-102208985D01*
X164696900Y-102115853D01*
X164851772Y-102051703D01*
X165016184Y-102019000D01*
X165183816Y-102019000D01*
X165348228Y-102051703D01*
G37*
G36*
X150108228Y-102051703D02*
G01*
X150263100Y-102115853D01*
X150402481Y-102208985D01*
X150521015Y-102327519D01*
X150614147Y-102466900D01*
X150678297Y-102621772D01*
X150711000Y-102786184D01*
X150711000Y-102953816D01*
X150678297Y-103118228D01*
X150614147Y-103273100D01*
X150521015Y-103412481D01*
X150402481Y-103531015D01*
X150263100Y-103624147D01*
X150108228Y-103688297D01*
X149943816Y-103721000D01*
X149776184Y-103721000D01*
X149611772Y-103688297D01*
X149456900Y-103624147D01*
X149317519Y-103531015D01*
X149198985Y-103412481D01*
X149105853Y-103273100D01*
X149041703Y-103118228D01*
X149009000Y-102953816D01*
X149009000Y-102786184D01*
X149041703Y-102621772D01*
X149105853Y-102466900D01*
X149198985Y-102327519D01*
X149317519Y-102208985D01*
X149456900Y-102115853D01*
X149611772Y-102051703D01*
X149776184Y-102019000D01*
X149943816Y-102019000D01*
X150108228Y-102051703D01*
G37*
G36*
X177343000Y-103683000D02*
G01*
X175717000Y-103683000D01*
X175717000Y-102057000D01*
X177343000Y-102057000D01*
X177343000Y-103683000D01*
G37*
G36*
X179307142Y-102088242D02*
G01*
X179455101Y-102149529D01*
X179588255Y-102238499D01*
X179701501Y-102351745D01*
X179790471Y-102484899D01*
X179851758Y-102632858D01*
X179883000Y-102789925D01*
X179883000Y-102950075D01*
X179851758Y-103107142D01*
X179790471Y-103255101D01*
X179701501Y-103388255D01*
X179588255Y-103501501D01*
X179455101Y-103590471D01*
X179307142Y-103651758D01*
X179150075Y-103683000D01*
X178989925Y-103683000D01*
X178832858Y-103651758D01*
X178684899Y-103590471D01*
X178551745Y-103501501D01*
X178438499Y-103388255D01*
X178349529Y-103255101D01*
X178288242Y-103107142D01*
X178257000Y-102950075D01*
X178257000Y-102789925D01*
X178288242Y-102632858D01*
X178349529Y-102484899D01*
X178438499Y-102351745D01*
X178551745Y-102238499D01*
X178684899Y-102149529D01*
X178832858Y-102088242D01*
X178989925Y-102057000D01*
X179150075Y-102057000D01*
X179307142Y-102088242D01*
G37*
G36*
X150108228Y-99511703D02*
G01*
X150263100Y-99575853D01*
X150402481Y-99668985D01*
X150521015Y-99787519D01*
X150614147Y-99926900D01*
X150678297Y-100081772D01*
X150711000Y-100246184D01*
X150711000Y-100413816D01*
X150678297Y-100578228D01*
X150614147Y-100733100D01*
X150521015Y-100872481D01*
X150402481Y-100991015D01*
X150263100Y-101084147D01*
X150108228Y-101148297D01*
X149943816Y-101181000D01*
X149776184Y-101181000D01*
X149611772Y-101148297D01*
X149456900Y-101084147D01*
X149317519Y-100991015D01*
X149198985Y-100872481D01*
X149105853Y-100733100D01*
X149041703Y-100578228D01*
X149009000Y-100413816D01*
X149009000Y-100246184D01*
X149041703Y-100081772D01*
X149105853Y-99926900D01*
X149198985Y-99787519D01*
X149317519Y-99668985D01*
X149456900Y-99575853D01*
X149611772Y-99511703D01*
X149776184Y-99479000D01*
X149943816Y-99479000D01*
X150108228Y-99511703D01*
G37*
G36*
X165348228Y-99511703D02*
G01*
X165503100Y-99575853D01*
X165642481Y-99668985D01*
X165761015Y-99787519D01*
X165854147Y-99926900D01*
X165918297Y-100081772D01*
X165951000Y-100246184D01*
X165951000Y-100413816D01*
X165918297Y-100578228D01*
X165854147Y-100733100D01*
X165761015Y-100872481D01*
X165642481Y-100991015D01*
X165503100Y-101084147D01*
X165348228Y-101148297D01*
X165183816Y-101181000D01*
X165016184Y-101181000D01*
X164851772Y-101148297D01*
X164696900Y-101084147D01*
X164557519Y-100991015D01*
X164438985Y-100872481D01*
X164345853Y-100733100D01*
X164281703Y-100578228D01*
X164249000Y-100413816D01*
X164249000Y-100246184D01*
X164281703Y-100081772D01*
X164345853Y-99926900D01*
X164438985Y-99787519D01*
X164557519Y-99668985D01*
X164696900Y-99575853D01*
X164851772Y-99511703D01*
X165016184Y-99479000D01*
X165183816Y-99479000D01*
X165348228Y-99511703D01*
G37*
G36*
X150108228Y-96971703D02*
G01*
X150263100Y-97035853D01*
X150402481Y-97128985D01*
X150521015Y-97247519D01*
X150614147Y-97386900D01*
X150678297Y-97541772D01*
X150711000Y-97706184D01*
X150711000Y-97873816D01*
X150678297Y-98038228D01*
X150614147Y-98193100D01*
X150521015Y-98332481D01*
X150402481Y-98451015D01*
X150263100Y-98544147D01*
X150108228Y-98608297D01*
X149943816Y-98641000D01*
X149776184Y-98641000D01*
X149611772Y-98608297D01*
X149456900Y-98544147D01*
X149317519Y-98451015D01*
X149198985Y-98332481D01*
X149105853Y-98193100D01*
X149041703Y-98038228D01*
X149009000Y-97873816D01*
X149009000Y-97706184D01*
X149041703Y-97541772D01*
X149105853Y-97386900D01*
X149198985Y-97247519D01*
X149317519Y-97128985D01*
X149456900Y-97035853D01*
X149611772Y-96971703D01*
X149776184Y-96939000D01*
X149943816Y-96939000D01*
X150108228Y-96971703D01*
G37*
G36*
X165348228Y-96971703D02*
G01*
X165503100Y-97035853D01*
X165642481Y-97128985D01*
X165761015Y-97247519D01*
X165854147Y-97386900D01*
X165918297Y-97541772D01*
X165951000Y-97706184D01*
X165951000Y-97873816D01*
X165918297Y-98038228D01*
X165854147Y-98193100D01*
X165761015Y-98332481D01*
X165642481Y-98451015D01*
X165503100Y-98544147D01*
X165348228Y-98608297D01*
X165183816Y-98641000D01*
X165016184Y-98641000D01*
X164851772Y-98608297D01*
X164696900Y-98544147D01*
X164557519Y-98451015D01*
X164438985Y-98332481D01*
X164345853Y-98193100D01*
X164281703Y-98038228D01*
X164249000Y-97873816D01*
X164249000Y-97706184D01*
X164281703Y-97541772D01*
X164345853Y-97386900D01*
X164438985Y-97247519D01*
X164557519Y-97128985D01*
X164696900Y-97035853D01*
X164851772Y-96971703D01*
X165016184Y-96939000D01*
X165183816Y-96939000D01*
X165348228Y-96971703D01*
G37*
G36*
X150108228Y-94431703D02*
G01*
X150263100Y-94495853D01*
X150402481Y-94588985D01*
X150521015Y-94707519D01*
X150614147Y-94846900D01*
X150678297Y-95001772D01*
X150711000Y-95166184D01*
X150711000Y-95333816D01*
X150678297Y-95498228D01*
X150614147Y-95653100D01*
X150521015Y-95792481D01*
X150402481Y-95911015D01*
X150263100Y-96004147D01*
X150108228Y-96068297D01*
X149943816Y-96101000D01*
X149776184Y-96101000D01*
X149611772Y-96068297D01*
X149456900Y-96004147D01*
X149317519Y-95911015D01*
X149198985Y-95792481D01*
X149105853Y-95653100D01*
X149041703Y-95498228D01*
X149009000Y-95333816D01*
X149009000Y-95166184D01*
X149041703Y-95001772D01*
X149105853Y-94846900D01*
X149198985Y-94707519D01*
X149317519Y-94588985D01*
X149456900Y-94495853D01*
X149611772Y-94431703D01*
X149776184Y-94399000D01*
X149943816Y-94399000D01*
X150108228Y-94431703D01*
G37*
G36*
X165348228Y-94431703D02*
G01*
X165503100Y-94495853D01*
X165642481Y-94588985D01*
X165761015Y-94707519D01*
X165854147Y-94846900D01*
X165918297Y-95001772D01*
X165951000Y-95166184D01*
X165951000Y-95333816D01*
X165918297Y-95498228D01*
X165854147Y-95653100D01*
X165761015Y-95792481D01*
X165642481Y-95911015D01*
X165503100Y-96004147D01*
X165348228Y-96068297D01*
X165183816Y-96101000D01*
X165016184Y-96101000D01*
X164851772Y-96068297D01*
X164696900Y-96004147D01*
X164557519Y-95911015D01*
X164438985Y-95792481D01*
X164345853Y-95653100D01*
X164281703Y-95498228D01*
X164249000Y-95333816D01*
X164249000Y-95166184D01*
X164281703Y-95001772D01*
X164345853Y-94846900D01*
X164438985Y-94707519D01*
X164557519Y-94588985D01*
X164696900Y-94495853D01*
X164851772Y-94431703D01*
X165016184Y-94399000D01*
X165183816Y-94399000D01*
X165348228Y-94431703D01*
G37*
G36*
X165348228Y-91891703D02*
G01*
X165503100Y-91955853D01*
X165642481Y-92048985D01*
X165761015Y-92167519D01*
X165854147Y-92306900D01*
X165918297Y-92461772D01*
X165951000Y-92626184D01*
X165951000Y-92793816D01*
X165918297Y-92958228D01*
X165854147Y-93113100D01*
X165761015Y-93252481D01*
X165642481Y-93371015D01*
X165503100Y-93464147D01*
X165348228Y-93528297D01*
X165183816Y-93561000D01*
X165016184Y-93561000D01*
X164851772Y-93528297D01*
X164696900Y-93464147D01*
X164557519Y-93371015D01*
X164438985Y-93252481D01*
X164345853Y-93113100D01*
X164281703Y-92958228D01*
X164249000Y-92793816D01*
X164249000Y-92626184D01*
X164281703Y-92461772D01*
X164345853Y-92306900D01*
X164438985Y-92167519D01*
X164557519Y-92048985D01*
X164696900Y-91955853D01*
X164851772Y-91891703D01*
X165016184Y-91859000D01*
X165183816Y-91859000D01*
X165348228Y-91891703D01*
G37*
G36*
X150108228Y-91891703D02*
G01*
X150263100Y-91955853D01*
X150402481Y-92048985D01*
X150521015Y-92167519D01*
X150614147Y-92306900D01*
X150678297Y-92461772D01*
X150711000Y-92626184D01*
X150711000Y-92793816D01*
X150678297Y-92958228D01*
X150614147Y-93113100D01*
X150521015Y-93252481D01*
X150402481Y-93371015D01*
X150263100Y-93464147D01*
X150108228Y-93528297D01*
X149943816Y-93561000D01*
X149776184Y-93561000D01*
X149611772Y-93528297D01*
X149456900Y-93464147D01*
X149317519Y-93371015D01*
X149198985Y-93252481D01*
X149105853Y-93113100D01*
X149041703Y-92958228D01*
X149009000Y-92793816D01*
X149009000Y-92626184D01*
X149041703Y-92461772D01*
X149105853Y-92306900D01*
X149198985Y-92167519D01*
X149317519Y-92048985D01*
X149456900Y-91955853D01*
X149611772Y-91891703D01*
X149776184Y-91859000D01*
X149943816Y-91859000D01*
X150108228Y-91891703D01*
G37*
G36*
X165348228Y-89351703D02*
G01*
X165503100Y-89415853D01*
X165642481Y-89508985D01*
X165761015Y-89627519D01*
X165854147Y-89766900D01*
X165918297Y-89921772D01*
X165951000Y-90086184D01*
X165951000Y-90253816D01*
X165918297Y-90418228D01*
X165854147Y-90573100D01*
X165761015Y-90712481D01*
X165642481Y-90831015D01*
X165503100Y-90924147D01*
X165348228Y-90988297D01*
X165183816Y-91021000D01*
X165016184Y-91021000D01*
X164851772Y-90988297D01*
X164696900Y-90924147D01*
X164557519Y-90831015D01*
X164438985Y-90712481D01*
X164345853Y-90573100D01*
X164281703Y-90418228D01*
X164249000Y-90253816D01*
X164249000Y-90086184D01*
X164281703Y-89921772D01*
X164345853Y-89766900D01*
X164438985Y-89627519D01*
X164557519Y-89508985D01*
X164696900Y-89415853D01*
X164851772Y-89351703D01*
X165016184Y-89319000D01*
X165183816Y-89319000D01*
X165348228Y-89351703D01*
G37*
G36*
X150108228Y-89351703D02*
G01*
X150263100Y-89415853D01*
X150402481Y-89508985D01*
X150521015Y-89627519D01*
X150614147Y-89766900D01*
X150678297Y-89921772D01*
X150711000Y-90086184D01*
X150711000Y-90253816D01*
X150678297Y-90418228D01*
X150614147Y-90573100D01*
X150521015Y-90712481D01*
X150402481Y-90831015D01*
X150263100Y-90924147D01*
X150108228Y-90988297D01*
X149943816Y-91021000D01*
X149776184Y-91021000D01*
X149611772Y-90988297D01*
X149456900Y-90924147D01*
X149317519Y-90831015D01*
X149198985Y-90712481D01*
X149105853Y-90573100D01*
X149041703Y-90418228D01*
X149009000Y-90253816D01*
X149009000Y-90086184D01*
X149041703Y-89921772D01*
X149105853Y-89766900D01*
X149198985Y-89627519D01*
X149317519Y-89508985D01*
X149456900Y-89415853D01*
X149611772Y-89351703D01*
X149776184Y-89319000D01*
X149943816Y-89319000D01*
X150108228Y-89351703D01*
G37*
G36*
X150108228Y-86811703D02*
G01*
X150263100Y-86875853D01*
X150402481Y-86968985D01*
X150521015Y-87087519D01*
X150614147Y-87226900D01*
X150678297Y-87381772D01*
X150711000Y-87546184D01*
X150711000Y-87713816D01*
X150678297Y-87878228D01*
X150614147Y-88033100D01*
X150521015Y-88172481D01*
X150402481Y-88291015D01*
X150263100Y-88384147D01*
X150108228Y-88448297D01*
X149943816Y-88481000D01*
X149776184Y-88481000D01*
X149611772Y-88448297D01*
X149456900Y-88384147D01*
X149317519Y-88291015D01*
X149198985Y-88172481D01*
X149105853Y-88033100D01*
X149041703Y-87878228D01*
X149009000Y-87713816D01*
X149009000Y-87546184D01*
X149041703Y-87381772D01*
X149105853Y-87226900D01*
X149198985Y-87087519D01*
X149317519Y-86968985D01*
X149456900Y-86875853D01*
X149611772Y-86811703D01*
X149776184Y-86779000D01*
X149943816Y-86779000D01*
X150108228Y-86811703D01*
G37*
G36*
X165348228Y-86811703D02*
G01*
X165503100Y-86875853D01*
X165642481Y-86968985D01*
X165761015Y-87087519D01*
X165854147Y-87226900D01*
X165918297Y-87381772D01*
X165951000Y-87546184D01*
X165951000Y-87713816D01*
X165918297Y-87878228D01*
X165854147Y-88033100D01*
X165761015Y-88172481D01*
X165642481Y-88291015D01*
X165503100Y-88384147D01*
X165348228Y-88448297D01*
X165183816Y-88481000D01*
X165016184Y-88481000D01*
X164851772Y-88448297D01*
X164696900Y-88384147D01*
X164557519Y-88291015D01*
X164438985Y-88172481D01*
X164345853Y-88033100D01*
X164281703Y-87878228D01*
X164249000Y-87713816D01*
X164249000Y-87546184D01*
X164281703Y-87381772D01*
X164345853Y-87226900D01*
X164438985Y-87087519D01*
X164557519Y-86968985D01*
X164696900Y-86875853D01*
X164851772Y-86811703D01*
X165016184Y-86779000D01*
X165183816Y-86779000D01*
X165348228Y-86811703D01*
G37*
G36*
X196631000Y-87363500D02*
G01*
X194529000Y-87363500D01*
X194529000Y-85356500D01*
X196631000Y-85356500D01*
X196631000Y-87363500D01*
G37*
G36*
X165348228Y-84271703D02*
G01*
X165503100Y-84335853D01*
X165642481Y-84428985D01*
X165761015Y-84547519D01*
X165854147Y-84686900D01*
X165918297Y-84841772D01*
X165951000Y-85006184D01*
X165951000Y-85173816D01*
X165918297Y-85338228D01*
X165854147Y-85493100D01*
X165761015Y-85632481D01*
X165642481Y-85751015D01*
X165503100Y-85844147D01*
X165348228Y-85908297D01*
X165183816Y-85941000D01*
X165016184Y-85941000D01*
X164851772Y-85908297D01*
X164696900Y-85844147D01*
X164557519Y-85751015D01*
X164438985Y-85632481D01*
X164345853Y-85493100D01*
X164281703Y-85338228D01*
X164249000Y-85173816D01*
X164249000Y-85006184D01*
X164281703Y-84841772D01*
X164345853Y-84686900D01*
X164438985Y-84547519D01*
X164557519Y-84428985D01*
X164696900Y-84335853D01*
X164851772Y-84271703D01*
X165016184Y-84239000D01*
X165183816Y-84239000D01*
X165348228Y-84271703D01*
G37*
G36*
X150108228Y-84271703D02*
G01*
X150263100Y-84335853D01*
X150402481Y-84428985D01*
X150521015Y-84547519D01*
X150614147Y-84686900D01*
X150678297Y-84841772D01*
X150711000Y-85006184D01*
X150711000Y-85173816D01*
X150678297Y-85338228D01*
X150614147Y-85493100D01*
X150521015Y-85632481D01*
X150402481Y-85751015D01*
X150263100Y-85844147D01*
X150108228Y-85908297D01*
X149943816Y-85941000D01*
X149776184Y-85941000D01*
X149611772Y-85908297D01*
X149456900Y-85844147D01*
X149317519Y-85751015D01*
X149198985Y-85632481D01*
X149105853Y-85493100D01*
X149041703Y-85338228D01*
X149009000Y-85173816D01*
X149009000Y-85006184D01*
X149041703Y-84841772D01*
X149105853Y-84686900D01*
X149198985Y-84547519D01*
X149317519Y-84428985D01*
X149456900Y-84335853D01*
X149611772Y-84271703D01*
X149776184Y-84239000D01*
X149943816Y-84239000D01*
X150108228Y-84271703D01*
G37*
G36*
X179445331Y-82088211D02*
G01*
X179773092Y-82223974D01*
X180068070Y-82421072D01*
X180318928Y-82671930D01*
X180516026Y-82966908D01*
X180651789Y-83294669D01*
X180721000Y-83642616D01*
X180721000Y-83997384D01*
X180651789Y-84345331D01*
X180516026Y-84673092D01*
X180318928Y-84968070D01*
X180068070Y-85218928D01*
X179773092Y-85416026D01*
X179445331Y-85551789D01*
X179097384Y-85621000D01*
X178742616Y-85621000D01*
X178394669Y-85551789D01*
X178066908Y-85416026D01*
X177771930Y-85218928D01*
X177521072Y-84968070D01*
X177323974Y-84673092D01*
X177188211Y-84345331D01*
X177119000Y-83997384D01*
X177119000Y-83642616D01*
X177188211Y-83294669D01*
X177323974Y-82966908D01*
X177521072Y-82671930D01*
X177771930Y-82421072D01*
X178066908Y-82223974D01*
X178394669Y-82088211D01*
X178742616Y-82019000D01*
X179097384Y-82019000D01*
X179445331Y-82088211D01*
G37*
G36*
X195725936Y-82821340D02*
G01*
X195824220Y-82831020D01*
X196013381Y-82888401D01*
X196187712Y-82981583D01*
X196340515Y-83106985D01*
X196465917Y-83259788D01*
X196559099Y-83434119D01*
X196616480Y-83623280D01*
X196635855Y-83820000D01*
X196616480Y-84016720D01*
X196559099Y-84205881D01*
X196465917Y-84380212D01*
X196340515Y-84533015D01*
X196187712Y-84658417D01*
X196013381Y-84751599D01*
X195824220Y-84808980D01*
X195725936Y-84818660D01*
X195676795Y-84823500D01*
X195483205Y-84823500D01*
X195434064Y-84818660D01*
X195335780Y-84808980D01*
X195146619Y-84751599D01*
X194972288Y-84658417D01*
X194819485Y-84533015D01*
X194694083Y-84380212D01*
X194600901Y-84205881D01*
X194543520Y-84016720D01*
X194524145Y-83820000D01*
X194543520Y-83623280D01*
X194600901Y-83434119D01*
X194694083Y-83259788D01*
X194819485Y-83106985D01*
X194972288Y-82981583D01*
X195146619Y-82888401D01*
X195335780Y-82831020D01*
X195434064Y-82821340D01*
X195483205Y-82816500D01*
X195676795Y-82816500D01*
X195725936Y-82821340D01*
G37*
G36*
X165348228Y-81731703D02*
G01*
X165503100Y-81795853D01*
X165642481Y-81888985D01*
X165761015Y-82007519D01*
X165854147Y-82146900D01*
X165918297Y-82301772D01*
X165951000Y-82466184D01*
X165951000Y-82633816D01*
X165918297Y-82798228D01*
X165854147Y-82953100D01*
X165761015Y-83092481D01*
X165642481Y-83211015D01*
X165503100Y-83304147D01*
X165348228Y-83368297D01*
X165183816Y-83401000D01*
X165016184Y-83401000D01*
X164851772Y-83368297D01*
X164696900Y-83304147D01*
X164557519Y-83211015D01*
X164438985Y-83092481D01*
X164345853Y-82953100D01*
X164281703Y-82798228D01*
X164249000Y-82633816D01*
X164249000Y-82466184D01*
X164281703Y-82301772D01*
X164345853Y-82146900D01*
X164438985Y-82007519D01*
X164557519Y-81888985D01*
X164696900Y-81795853D01*
X164851772Y-81731703D01*
X165016184Y-81699000D01*
X165183816Y-81699000D01*
X165348228Y-81731703D01*
G37*
G36*
X150108228Y-81731703D02*
G01*
X150263100Y-81795853D01*
X150402481Y-81888985D01*
X150521015Y-82007519D01*
X150614147Y-82146900D01*
X150678297Y-82301772D01*
X150711000Y-82466184D01*
X150711000Y-82633816D01*
X150678297Y-82798228D01*
X150614147Y-82953100D01*
X150521015Y-83092481D01*
X150402481Y-83211015D01*
X150263100Y-83304147D01*
X150108228Y-83368297D01*
X149943816Y-83401000D01*
X149776184Y-83401000D01*
X149611772Y-83368297D01*
X149456900Y-83304147D01*
X149317519Y-83211015D01*
X149198985Y-83092481D01*
X149105853Y-82953100D01*
X149041703Y-82798228D01*
X149009000Y-82633816D01*
X149009000Y-82466184D01*
X149041703Y-82301772D01*
X149105853Y-82146900D01*
X149198985Y-82007519D01*
X149317519Y-81888985D01*
X149456900Y-81795853D01*
X149611772Y-81731703D01*
X149776184Y-81699000D01*
X149943816Y-81699000D01*
X150108228Y-81731703D01*
G37*
G36*
X195725936Y-80281340D02*
G01*
X195824220Y-80291020D01*
X196013381Y-80348401D01*
X196187712Y-80441583D01*
X196340515Y-80566985D01*
X196465917Y-80719788D01*
X196559099Y-80894119D01*
X196616480Y-81083280D01*
X196635855Y-81280000D01*
X196616480Y-81476720D01*
X196559099Y-81665881D01*
X196465917Y-81840212D01*
X196340515Y-81993015D01*
X196187712Y-82118417D01*
X196013381Y-82211599D01*
X195824220Y-82268980D01*
X195725936Y-82278660D01*
X195676795Y-82283500D01*
X195483205Y-82283500D01*
X195434064Y-82278660D01*
X195335780Y-82268980D01*
X195146619Y-82211599D01*
X194972288Y-82118417D01*
X194819485Y-81993015D01*
X194694083Y-81840212D01*
X194600901Y-81665881D01*
X194543520Y-81476720D01*
X194524145Y-81280000D01*
X194543520Y-81083280D01*
X194600901Y-80894119D01*
X194694083Y-80719788D01*
X194819485Y-80566985D01*
X194972288Y-80441583D01*
X195146619Y-80348401D01*
X195335780Y-80291020D01*
X195434064Y-80281340D01*
X195483205Y-80276500D01*
X195676795Y-80276500D01*
X195725936Y-80281340D01*
G37*
G36*
X165348228Y-79191703D02*
G01*
X165503100Y-79255853D01*
X165642481Y-79348985D01*
X165761015Y-79467519D01*
X165854147Y-79606900D01*
X165918297Y-79761772D01*
X165951000Y-79926184D01*
X165951000Y-80093816D01*
X165918297Y-80258228D01*
X165854147Y-80413100D01*
X165761015Y-80552481D01*
X165642481Y-80671015D01*
X165503100Y-80764147D01*
X165348228Y-80828297D01*
X165183816Y-80861000D01*
X165016184Y-80861000D01*
X164851772Y-80828297D01*
X164696900Y-80764147D01*
X164557519Y-80671015D01*
X164438985Y-80552481D01*
X164345853Y-80413100D01*
X164281703Y-80258228D01*
X164249000Y-80093816D01*
X164249000Y-79926184D01*
X164281703Y-79761772D01*
X164345853Y-79606900D01*
X164438985Y-79467519D01*
X164557519Y-79348985D01*
X164696900Y-79255853D01*
X164851772Y-79191703D01*
X165016184Y-79159000D01*
X165183816Y-79159000D01*
X165348228Y-79191703D01*
G37*
G36*
X150108228Y-79191703D02*
G01*
X150263100Y-79255853D01*
X150402481Y-79348985D01*
X150521015Y-79467519D01*
X150614147Y-79606900D01*
X150678297Y-79761772D01*
X150711000Y-79926184D01*
X150711000Y-80093816D01*
X150678297Y-80258228D01*
X150614147Y-80413100D01*
X150521015Y-80552481D01*
X150402481Y-80671015D01*
X150263100Y-80764147D01*
X150108228Y-80828297D01*
X149943816Y-80861000D01*
X149776184Y-80861000D01*
X149611772Y-80828297D01*
X149456900Y-80764147D01*
X149317519Y-80671015D01*
X149198985Y-80552481D01*
X149105853Y-80413100D01*
X149041703Y-80258228D01*
X149009000Y-80093816D01*
X149009000Y-79926184D01*
X149041703Y-79761772D01*
X149105853Y-79606900D01*
X149198985Y-79467519D01*
X149317519Y-79348985D01*
X149456900Y-79255853D01*
X149611772Y-79191703D01*
X149776184Y-79159000D01*
X149943816Y-79159000D01*
X150108228Y-79191703D01*
G37*
G36*
X165348228Y-76651703D02*
G01*
X165503100Y-76715853D01*
X165642481Y-76808985D01*
X165761015Y-76927519D01*
X165854147Y-77066900D01*
X165918297Y-77221772D01*
X165951000Y-77386184D01*
X165951000Y-77553816D01*
X165918297Y-77718228D01*
X165854147Y-77873100D01*
X165761015Y-78012481D01*
X165642481Y-78131015D01*
X165503100Y-78224147D01*
X165348228Y-78288297D01*
X165183816Y-78321000D01*
X165016184Y-78321000D01*
X164851772Y-78288297D01*
X164696900Y-78224147D01*
X164557519Y-78131015D01*
X164438985Y-78012481D01*
X164345853Y-77873100D01*
X164281703Y-77718228D01*
X164249000Y-77553816D01*
X164249000Y-77386184D01*
X164281703Y-77221772D01*
X164345853Y-77066900D01*
X164438985Y-76927519D01*
X164557519Y-76808985D01*
X164696900Y-76715853D01*
X164851772Y-76651703D01*
X165016184Y-76619000D01*
X165183816Y-76619000D01*
X165348228Y-76651703D01*
G37*
G36*
X150108228Y-76651703D02*
G01*
X150263100Y-76715853D01*
X150402481Y-76808985D01*
X150521015Y-76927519D01*
X150614147Y-77066900D01*
X150678297Y-77221772D01*
X150711000Y-77386184D01*
X150711000Y-77553816D01*
X150678297Y-77718228D01*
X150614147Y-77873100D01*
X150521015Y-78012481D01*
X150402481Y-78131015D01*
X150263100Y-78224147D01*
X150108228Y-78288297D01*
X149943816Y-78321000D01*
X149776184Y-78321000D01*
X149611772Y-78288297D01*
X149456900Y-78224147D01*
X149317519Y-78131015D01*
X149198985Y-78012481D01*
X149105853Y-77873100D01*
X149041703Y-77718228D01*
X149009000Y-77553816D01*
X149009000Y-77386184D01*
X149041703Y-77221772D01*
X149105853Y-77066900D01*
X149198985Y-76927519D01*
X149317519Y-76808985D01*
X149456900Y-76715853D01*
X149611772Y-76651703D01*
X149776184Y-76619000D01*
X149943816Y-76619000D01*
X150108228Y-76651703D01*
G37*
G36*
X150108228Y-74111703D02*
G01*
X150263100Y-74175853D01*
X150402481Y-74268985D01*
X150521015Y-74387519D01*
X150614147Y-74526900D01*
X150678297Y-74681772D01*
X150711000Y-74846184D01*
X150711000Y-75013816D01*
X150678297Y-75178228D01*
X150614147Y-75333100D01*
X150521015Y-75472481D01*
X150402481Y-75591015D01*
X150263100Y-75684147D01*
X150108228Y-75748297D01*
X149943816Y-75781000D01*
X149776184Y-75781000D01*
X149611772Y-75748297D01*
X149456900Y-75684147D01*
X149317519Y-75591015D01*
X149198985Y-75472481D01*
X149105853Y-75333100D01*
X149041703Y-75178228D01*
X149009000Y-75013816D01*
X149009000Y-74846184D01*
X149041703Y-74681772D01*
X149105853Y-74526900D01*
X149198985Y-74387519D01*
X149317519Y-74268985D01*
X149456900Y-74175853D01*
X149611772Y-74111703D01*
X149776184Y-74079000D01*
X149943816Y-74079000D01*
X150108228Y-74111703D01*
G37*
G36*
X165348228Y-74111703D02*
G01*
X165503100Y-74175853D01*
X165642481Y-74268985D01*
X165761015Y-74387519D01*
X165854147Y-74526900D01*
X165918297Y-74681772D01*
X165951000Y-74846184D01*
X165951000Y-75013816D01*
X165918297Y-75178228D01*
X165854147Y-75333100D01*
X165761015Y-75472481D01*
X165642481Y-75591015D01*
X165503100Y-75684147D01*
X165348228Y-75748297D01*
X165183816Y-75781000D01*
X165016184Y-75781000D01*
X164851772Y-75748297D01*
X164696900Y-75684147D01*
X164557519Y-75591015D01*
X164438985Y-75472481D01*
X164345853Y-75333100D01*
X164281703Y-75178228D01*
X164249000Y-75013816D01*
X164249000Y-74846184D01*
X164281703Y-74681772D01*
X164345853Y-74526900D01*
X164438985Y-74387519D01*
X164557519Y-74268985D01*
X164696900Y-74175853D01*
X164851772Y-74111703D01*
X165016184Y-74079000D01*
X165183816Y-74079000D01*
X165348228Y-74111703D01*
G37*
G36*
X165348228Y-71571703D02*
G01*
X165503100Y-71635853D01*
X165642481Y-71728985D01*
X165761015Y-71847519D01*
X165854147Y-71986900D01*
X165918297Y-72141772D01*
X165951000Y-72306184D01*
X165951000Y-72473816D01*
X165918297Y-72638228D01*
X165854147Y-72793100D01*
X165761015Y-72932481D01*
X165642481Y-73051015D01*
X165503100Y-73144147D01*
X165348228Y-73208297D01*
X165183816Y-73241000D01*
X165016184Y-73241000D01*
X164851772Y-73208297D01*
X164696900Y-73144147D01*
X164557519Y-73051015D01*
X164438985Y-72932481D01*
X164345853Y-72793100D01*
X164281703Y-72638228D01*
X164249000Y-72473816D01*
X164249000Y-72306184D01*
X164281703Y-72141772D01*
X164345853Y-71986900D01*
X164438985Y-71847519D01*
X164557519Y-71728985D01*
X164696900Y-71635853D01*
X164851772Y-71571703D01*
X165016184Y-71539000D01*
X165183816Y-71539000D01*
X165348228Y-71571703D01*
G37*
G36*
X150108228Y-71571703D02*
G01*
X150263100Y-71635853D01*
X150402481Y-71728985D01*
X150521015Y-71847519D01*
X150614147Y-71986900D01*
X150678297Y-72141772D01*
X150711000Y-72306184D01*
X150711000Y-72473816D01*
X150678297Y-72638228D01*
X150614147Y-72793100D01*
X150521015Y-72932481D01*
X150402481Y-73051015D01*
X150263100Y-73144147D01*
X150108228Y-73208297D01*
X149943816Y-73241000D01*
X149776184Y-73241000D01*
X149611772Y-73208297D01*
X149456900Y-73144147D01*
X149317519Y-73051015D01*
X149198985Y-72932481D01*
X149105853Y-72793100D01*
X149041703Y-72638228D01*
X149009000Y-72473816D01*
X149009000Y-72306184D01*
X149041703Y-72141772D01*
X149105853Y-71986900D01*
X149198985Y-71847519D01*
X149317519Y-71728985D01*
X149456900Y-71635853D01*
X149611772Y-71571703D01*
X149776184Y-71539000D01*
X149943816Y-71539000D01*
X150108228Y-71571703D01*
G37*
G36*
X150108228Y-69031703D02*
G01*
X150263100Y-69095853D01*
X150402481Y-69188985D01*
X150521015Y-69307519D01*
X150614147Y-69446900D01*
X150678297Y-69601772D01*
X150711000Y-69766184D01*
X150711000Y-69933816D01*
X150678297Y-70098228D01*
X150614147Y-70253100D01*
X150521015Y-70392481D01*
X150402481Y-70511015D01*
X150263100Y-70604147D01*
X150108228Y-70668297D01*
X149943816Y-70701000D01*
X149776184Y-70701000D01*
X149611772Y-70668297D01*
X149456900Y-70604147D01*
X149317519Y-70511015D01*
X149198985Y-70392481D01*
X149105853Y-70253100D01*
X149041703Y-70098228D01*
X149009000Y-69933816D01*
X149009000Y-69766184D01*
X149041703Y-69601772D01*
X149105853Y-69446900D01*
X149198985Y-69307519D01*
X149317519Y-69188985D01*
X149456900Y-69095853D01*
X149611772Y-69031703D01*
X149776184Y-68999000D01*
X149943816Y-68999000D01*
X150108228Y-69031703D01*
G37*
G36*
X165348228Y-69031703D02*
G01*
X165503100Y-69095853D01*
X165642481Y-69188985D01*
X165761015Y-69307519D01*
X165854147Y-69446900D01*
X165918297Y-69601772D01*
X165951000Y-69766184D01*
X165951000Y-69933816D01*
X165918297Y-70098228D01*
X165854147Y-70253100D01*
X165761015Y-70392481D01*
X165642481Y-70511015D01*
X165503100Y-70604147D01*
X165348228Y-70668297D01*
X165183816Y-70701000D01*
X165016184Y-70701000D01*
X164851772Y-70668297D01*
X164696900Y-70604147D01*
X164557519Y-70511015D01*
X164438985Y-70392481D01*
X164345853Y-70253100D01*
X164281703Y-70098228D01*
X164249000Y-69933816D01*
X164249000Y-69766184D01*
X164281703Y-69601772D01*
X164345853Y-69446900D01*
X164438985Y-69307519D01*
X164557519Y-69188985D01*
X164696900Y-69095853D01*
X164851772Y-69031703D01*
X165016184Y-68999000D01*
X165183816Y-68999000D01*
X165348228Y-69031703D01*
G37*
G36*
X165348228Y-66491703D02*
G01*
X165503100Y-66555853D01*
X165642481Y-66648985D01*
X165761015Y-66767519D01*
X165854147Y-66906900D01*
X165918297Y-67061772D01*
X165951000Y-67226184D01*
X165951000Y-67393816D01*
X165918297Y-67558228D01*
X165854147Y-67713100D01*
X165761015Y-67852481D01*
X165642481Y-67971015D01*
X165503100Y-68064147D01*
X165348228Y-68128297D01*
X165183816Y-68161000D01*
X165016184Y-68161000D01*
X164851772Y-68128297D01*
X164696900Y-68064147D01*
X164557519Y-67971015D01*
X164438985Y-67852481D01*
X164345853Y-67713100D01*
X164281703Y-67558228D01*
X164249000Y-67393816D01*
X164249000Y-67226184D01*
X164281703Y-67061772D01*
X164345853Y-66906900D01*
X164438985Y-66767519D01*
X164557519Y-66648985D01*
X164696900Y-66555853D01*
X164851772Y-66491703D01*
X165016184Y-66459000D01*
X165183816Y-66459000D01*
X165348228Y-66491703D01*
G37*
G36*
X150711000Y-68161000D02*
G01*
X149009000Y-68161000D01*
X149009000Y-66459000D01*
X150711000Y-66459000D01*
X150711000Y-68161000D01*
G37*
G36*
X194423512Y-65143927D02*
G01*
X194572812Y-65173624D01*
X194736784Y-65241544D01*
X194884354Y-65340147D01*
X195009853Y-65465646D01*
X195108456Y-65613216D01*
X195176376Y-65777188D01*
X195211000Y-65951259D01*
X195211000Y-66128741D01*
X195176376Y-66302812D01*
X195108456Y-66466784D01*
X195009853Y-66614354D01*
X194884354Y-66739853D01*
X194736784Y-66838456D01*
X194572812Y-66906376D01*
X194423512Y-66936073D01*
X194398742Y-66941000D01*
X194221258Y-66941000D01*
X194196488Y-66936073D01*
X194047188Y-66906376D01*
X193883216Y-66838456D01*
X193735646Y-66739853D01*
X193610147Y-66614354D01*
X193511544Y-66466784D01*
X193443624Y-66302812D01*
X193409000Y-66128741D01*
X193409000Y-65951259D01*
X193443624Y-65777188D01*
X193511544Y-65613216D01*
X193610147Y-65465646D01*
X193735646Y-65340147D01*
X193883216Y-65241544D01*
X194047188Y-65173624D01*
X194196488Y-65143927D01*
X194221258Y-65139000D01*
X194398742Y-65139000D01*
X194423512Y-65143927D01*
G37*
G36*
X191883512Y-65143927D02*
G01*
X192032812Y-65173624D01*
X192196784Y-65241544D01*
X192344354Y-65340147D01*
X192469853Y-65465646D01*
X192568456Y-65613216D01*
X192636376Y-65777188D01*
X192671000Y-65951259D01*
X192671000Y-66128741D01*
X192636376Y-66302812D01*
X192568456Y-66466784D01*
X192469853Y-66614354D01*
X192344354Y-66739853D01*
X192196784Y-66838456D01*
X192032812Y-66906376D01*
X191883512Y-66936073D01*
X191858742Y-66941000D01*
X191681258Y-66941000D01*
X191656488Y-66936073D01*
X191507188Y-66906376D01*
X191343216Y-66838456D01*
X191195646Y-66739853D01*
X191070147Y-66614354D01*
X190971544Y-66466784D01*
X190903624Y-66302812D01*
X190869000Y-66128741D01*
X190869000Y-65951259D01*
X190903624Y-65777188D01*
X190971544Y-65613216D01*
X191070147Y-65465646D01*
X191195646Y-65340147D01*
X191343216Y-65241544D01*
X191507188Y-65173624D01*
X191656488Y-65143927D01*
X191681258Y-65139000D01*
X191858742Y-65139000D01*
X191883512Y-65143927D01*
G37*
G36*
X187591000Y-66941000D02*
G01*
X185789000Y-66941000D01*
X185789000Y-65139000D01*
X187591000Y-65139000D01*
X187591000Y-66941000D01*
G37*
G36*
X189343512Y-65143927D02*
G01*
X189492812Y-65173624D01*
X189656784Y-65241544D01*
X189804354Y-65340147D01*
X189929853Y-65465646D01*
X190028456Y-65613216D01*
X190096376Y-65777188D01*
X190131000Y-65951259D01*
X190131000Y-66128741D01*
X190096376Y-66302812D01*
X190028456Y-66466784D01*
X189929853Y-66614354D01*
X189804354Y-66739853D01*
X189656784Y-66838456D01*
X189492812Y-66906376D01*
X189343512Y-66936073D01*
X189318742Y-66941000D01*
X189141258Y-66941000D01*
X189116488Y-66936073D01*
X188967188Y-66906376D01*
X188803216Y-66838456D01*
X188655646Y-66739853D01*
X188530147Y-66614354D01*
X188431544Y-66466784D01*
X188363624Y-66302812D01*
X188329000Y-66128741D01*
X188329000Y-65951259D01*
X188363624Y-65777188D01*
X188431544Y-65613216D01*
X188530147Y-65465646D01*
X188655646Y-65340147D01*
X188803216Y-65241544D01*
X188967188Y-65173624D01*
X189116488Y-65143927D01*
X189141258Y-65139000D01*
X189318742Y-65139000D01*
X189343512Y-65143927D01*
G37*
M02*
