G04 #@! TF.GenerationSoftware,KiCad,Pcbnew,(5.1.5)-3*
G04 #@! TF.CreationDate,2020-02-10T18:15:39+01:00*
G04 #@! TF.ProjectId,WeatherStation,57656174-6865-4725-9374-6174696f6e2e,rev?*
G04 #@! TF.SameCoordinates,Original*
G04 #@! TF.FileFunction,Profile,NP*
%FSLAX46Y46*%
G04 Gerber Fmt 4.6, Leading zero omitted, Abs format (unit mm)*
G04 Created by KiCad (PCBNEW (5.1.5)-3) date 2020-02-10 18:15:39*
%MOMM*%
%LPD*%
G04 APERTURE LIST*
%ADD10C,0.200000*%
G04 APERTURE END LIST*
D10*
X208798044Y-121018800D02*
X208798044Y-121018800D01*
X144122383Y-120493889D02*
X144122383Y-120493889D01*
X147658295Y-58919050D02*
X147647727Y-59112433D01*
X147647727Y-59112433D02*
X147619813Y-59285730D01*
X147619813Y-59285730D02*
X147576998Y-59447779D01*
X147576998Y-59447779D02*
X147522322Y-59596543D01*
X147522322Y-59596543D02*
X147455521Y-59737459D01*
X147455521Y-59737459D02*
X147381702Y-59863663D01*
X147381702Y-59863663D02*
X147298732Y-59981821D01*
X147298732Y-59981821D02*
X147196144Y-60103937D01*
X147196144Y-60103937D02*
X147094147Y-60206010D01*
X147094147Y-60206010D02*
X146985098Y-60298631D01*
X146985098Y-60298631D02*
X146861484Y-60386914D01*
X146861484Y-60386914D02*
X146734295Y-60462229D01*
X146734295Y-60462229D02*
X146598658Y-60527607D01*
X146598658Y-60527607D02*
X146453011Y-60582607D01*
X146453011Y-60582607D02*
X146296224Y-60625899D01*
X146296224Y-60625899D02*
X146122272Y-60656094D01*
X146122272Y-60656094D02*
X145933380Y-60668871D01*
X145933380Y-60668871D02*
X145908295Y-60669050D01*
X208798044Y-121018800D02*
X208808304Y-120828160D01*
X208808304Y-120828160D02*
X208836094Y-120654111D01*
X208836094Y-120654111D02*
X208878726Y-120491984D01*
X208878726Y-120491984D02*
X208932981Y-120343759D01*
X208932981Y-120343759D02*
X208997106Y-120207408D01*
X208997106Y-120207408D02*
X209070544Y-120080561D01*
X209070544Y-120080561D02*
X209158799Y-119954456D01*
X209158799Y-119954456D02*
X209258855Y-119835355D01*
X209258855Y-119835355D02*
X209364599Y-119729611D01*
X209364599Y-119729611D02*
X209473302Y-119637593D01*
X209473302Y-119637593D02*
X209594293Y-119551286D01*
X209594293Y-119551286D02*
X209720287Y-119476552D01*
X209720287Y-119476552D02*
X209855229Y-119411290D01*
X209855229Y-119411290D02*
X210001085Y-119355967D01*
X210001085Y-119355967D02*
X210159446Y-119312092D01*
X210159446Y-119312092D02*
X210329944Y-119282253D01*
X210329944Y-119282253D02*
X210520484Y-119269009D01*
X210520484Y-119269009D02*
X210548044Y-119268800D01*
X210583956Y-57693961D02*
X210775276Y-57704296D01*
X210775276Y-57704296D02*
X210950303Y-57732363D01*
X210950303Y-57732363D02*
X211108840Y-57774038D01*
X211108840Y-57774038D02*
X211255610Y-57827487D01*
X211255610Y-57827487D02*
X211392991Y-57891795D01*
X211392991Y-57891795D02*
X211520793Y-57965576D01*
X211520793Y-57965576D02*
X211638883Y-58047547D01*
X211638883Y-58047547D02*
X211749400Y-58138471D01*
X211749400Y-58138471D02*
X211851175Y-58237038D01*
X211851175Y-58237038D02*
X211945345Y-58344269D01*
X211945345Y-58344269D02*
X212031012Y-58459524D01*
X212031012Y-58459524D02*
X212108315Y-58583785D01*
X212108315Y-58583785D02*
X212176614Y-58717719D01*
X212176614Y-58717719D02*
X212234334Y-58860513D01*
X212234334Y-58860513D02*
X212281194Y-59015789D01*
X212281194Y-59015789D02*
X212314813Y-59184243D01*
X212314813Y-59184243D02*
X212332300Y-59367197D01*
X212332300Y-59367197D02*
X212333956Y-59443961D01*
X145908295Y-57169050D02*
X146099615Y-57179385D01*
X146099615Y-57179385D02*
X146274642Y-57207452D01*
X146274642Y-57207452D02*
X146433179Y-57249127D01*
X146433179Y-57249127D02*
X146579949Y-57302576D01*
X146579949Y-57302576D02*
X146717330Y-57366884D01*
X146717330Y-57366884D02*
X146845132Y-57440665D01*
X146845132Y-57440665D02*
X146963222Y-57522636D01*
X146963222Y-57522636D02*
X147073739Y-57613560D01*
X147073739Y-57613560D02*
X147175514Y-57712127D01*
X147175514Y-57712127D02*
X147269684Y-57819358D01*
X147269684Y-57819358D02*
X147355351Y-57934613D01*
X147355351Y-57934613D02*
X147432654Y-58058874D01*
X147432654Y-58058874D02*
X147500953Y-58192808D01*
X147500953Y-58192808D02*
X147558673Y-58335602D01*
X147558673Y-58335602D02*
X147605533Y-58490878D01*
X147605533Y-58490878D02*
X147639152Y-58659332D01*
X147639152Y-58659332D02*
X147656639Y-58842286D01*
X147656639Y-58842286D02*
X147658295Y-58919050D01*
X210583956Y-61193961D02*
X210391939Y-61183544D01*
X210391939Y-61183544D02*
X210219267Y-61155905D01*
X210219267Y-61155905D02*
X210060347Y-61114280D01*
X210060347Y-61114280D02*
X209911989Y-61060301D01*
X209911989Y-61060301D02*
X209774324Y-60995812D01*
X209774324Y-60995812D02*
X209645995Y-60921628D01*
X209645995Y-60921628D02*
X209527972Y-60839573D01*
X209527972Y-60839573D02*
X209417526Y-60748566D01*
X209417526Y-60748566D02*
X209312437Y-60646357D01*
X209312437Y-60646357D02*
X209219054Y-60539297D01*
X209219054Y-60539297D02*
X209133932Y-60424035D01*
X209133932Y-60424035D02*
X209057318Y-60300097D01*
X209057318Y-60300097D02*
X208989364Y-60165962D01*
X208989364Y-60165962D02*
X208931790Y-60022345D01*
X208931790Y-60022345D02*
X208885559Y-59867525D01*
X208885559Y-59867525D02*
X208852391Y-59698912D01*
X208852391Y-59698912D02*
X208835402Y-59515812D01*
X208835402Y-59515812D02*
X208833956Y-59443961D01*
X145872383Y-118743889D02*
X146063703Y-118754224D01*
X146063703Y-118754224D02*
X146238730Y-118782291D01*
X146238730Y-118782291D02*
X146397267Y-118823966D01*
X146397267Y-118823966D02*
X146544037Y-118877415D01*
X146544037Y-118877415D02*
X146681418Y-118941723D01*
X146681418Y-118941723D02*
X146809220Y-119015504D01*
X146809220Y-119015504D02*
X146927310Y-119097475D01*
X146927310Y-119097475D02*
X147037827Y-119188399D01*
X147037827Y-119188399D02*
X147139602Y-119286966D01*
X147139602Y-119286966D02*
X147233772Y-119394197D01*
X147233772Y-119394197D02*
X147319439Y-119509452D01*
X147319439Y-119509452D02*
X147396742Y-119633713D01*
X147396742Y-119633713D02*
X147465041Y-119767647D01*
X147465041Y-119767647D02*
X147522761Y-119910441D01*
X147522761Y-119910441D02*
X147569621Y-120065717D01*
X147569621Y-120065717D02*
X147603240Y-120234171D01*
X147603240Y-120234171D02*
X147620727Y-120417125D01*
X147620727Y-120417125D02*
X147622383Y-120493889D01*
X145908295Y-60669050D02*
X145716278Y-60658633D01*
X145716278Y-60658633D02*
X145543605Y-60630994D01*
X145543605Y-60630994D02*
X145384685Y-60589369D01*
X145384685Y-60589369D02*
X145236327Y-60535390D01*
X145236327Y-60535390D02*
X145098662Y-60470901D01*
X145098662Y-60470901D02*
X144970333Y-60396717D01*
X144970333Y-60396717D02*
X144852310Y-60314662D01*
X144852310Y-60314662D02*
X144741864Y-60223655D01*
X144741864Y-60223655D02*
X144636775Y-60121446D01*
X144636775Y-60121446D02*
X144543392Y-60014386D01*
X144543392Y-60014386D02*
X144458270Y-59899124D01*
X144458270Y-59899124D02*
X144381656Y-59775186D01*
X144381656Y-59775186D02*
X144313702Y-59641051D01*
X144313702Y-59641051D02*
X144256128Y-59497434D01*
X144256128Y-59497434D02*
X144209898Y-59342614D01*
X144209898Y-59342614D02*
X144176730Y-59174001D01*
X144176730Y-59174001D02*
X144159741Y-58990901D01*
X144159741Y-58990901D02*
X144158295Y-58919050D01*
X208833956Y-59443961D02*
X208833956Y-59443961D01*
X147622383Y-120493889D02*
X147611815Y-120687272D01*
X147611815Y-120687272D02*
X147583901Y-120860569D01*
X147583901Y-120860569D02*
X147541086Y-121022618D01*
X147541086Y-121022618D02*
X147486410Y-121171382D01*
X147486410Y-121171382D02*
X147419609Y-121312298D01*
X147419609Y-121312298D02*
X147345790Y-121438502D01*
X147345790Y-121438502D02*
X147262820Y-121556660D01*
X147262820Y-121556660D02*
X147160232Y-121678776D01*
X147160232Y-121678776D02*
X147058235Y-121780849D01*
X147058235Y-121780849D02*
X146949186Y-121873470D01*
X146949186Y-121873470D02*
X146825572Y-121961753D01*
X146825572Y-121961753D02*
X146698383Y-122037068D01*
X146698383Y-122037068D02*
X146562746Y-122102446D01*
X146562746Y-122102446D02*
X146417099Y-122157446D01*
X146417099Y-122157446D02*
X146260312Y-122200738D01*
X146260312Y-122200738D02*
X146086360Y-122230933D01*
X146086360Y-122230933D02*
X145897468Y-122243710D01*
X145897468Y-122243710D02*
X145872383Y-122243889D01*
X210548044Y-119268800D02*
X210739364Y-119279135D01*
X210739364Y-119279135D02*
X210914391Y-119307202D01*
X210914391Y-119307202D02*
X211072928Y-119348877D01*
X211072928Y-119348877D02*
X211219698Y-119402326D01*
X211219698Y-119402326D02*
X211357079Y-119466634D01*
X211357079Y-119466634D02*
X211484881Y-119540415D01*
X211484881Y-119540415D02*
X211602971Y-119622386D01*
X211602971Y-119622386D02*
X211713488Y-119713310D01*
X211713488Y-119713310D02*
X211815263Y-119811877D01*
X211815263Y-119811877D02*
X211909433Y-119919108D01*
X211909433Y-119919108D02*
X211995100Y-120034363D01*
X211995100Y-120034363D02*
X212072403Y-120158624D01*
X212072403Y-120158624D02*
X212140702Y-120292558D01*
X212140702Y-120292558D02*
X212198422Y-120435352D01*
X212198422Y-120435352D02*
X212245282Y-120590628D01*
X212245282Y-120590628D02*
X212278901Y-120759082D01*
X212278901Y-120759082D02*
X212296388Y-120942036D01*
X212296388Y-120942036D02*
X212298044Y-121018800D01*
X144158295Y-58919050D02*
X144168555Y-58728410D01*
X144168555Y-58728410D02*
X144196345Y-58554361D01*
X144196345Y-58554361D02*
X144238976Y-58392234D01*
X144238976Y-58392234D02*
X144293231Y-58244009D01*
X144293231Y-58244009D02*
X144357356Y-58107658D01*
X144357356Y-58107658D02*
X144430794Y-57980811D01*
X144430794Y-57980811D02*
X144519049Y-57854706D01*
X144519049Y-57854706D02*
X144619105Y-57735605D01*
X144619105Y-57735605D02*
X144724849Y-57629861D01*
X144724849Y-57629861D02*
X144833552Y-57537843D01*
X144833552Y-57537843D02*
X144954543Y-57451536D01*
X144954543Y-57451536D02*
X145080537Y-57376802D01*
X145080537Y-57376802D02*
X145215479Y-57311540D01*
X145215479Y-57311540D02*
X145361335Y-57256217D01*
X145361335Y-57256217D02*
X145519696Y-57212342D01*
X145519696Y-57212342D02*
X145690195Y-57182503D01*
X145690195Y-57182503D02*
X145880735Y-57169259D01*
X145880735Y-57169259D02*
X145908295Y-57169050D01*
X144158295Y-58919050D02*
X144158295Y-58919050D01*
X212333956Y-59443961D02*
X212323388Y-59637344D01*
X212323388Y-59637344D02*
X212295474Y-59810641D01*
X212295474Y-59810641D02*
X212252659Y-59972690D01*
X212252659Y-59972690D02*
X212197983Y-60121454D01*
X212197983Y-60121454D02*
X212131182Y-60262370D01*
X212131182Y-60262370D02*
X212057363Y-60388574D01*
X212057363Y-60388574D02*
X211974393Y-60506732D01*
X211974393Y-60506732D02*
X211871805Y-60628848D01*
X211871805Y-60628848D02*
X211769808Y-60730921D01*
X211769808Y-60730921D02*
X211660759Y-60823542D01*
X211660759Y-60823542D02*
X211537145Y-60911825D01*
X211537145Y-60911825D02*
X211409956Y-60987140D01*
X211409956Y-60987140D02*
X211274319Y-61052518D01*
X211274319Y-61052518D02*
X211128672Y-61107518D01*
X211128672Y-61107518D02*
X210971885Y-61150810D01*
X210971885Y-61150810D02*
X210797933Y-61181005D01*
X210797933Y-61181005D02*
X210609041Y-61193782D01*
X210609041Y-61193782D02*
X210583956Y-61193961D01*
X145872383Y-122243889D02*
X145680366Y-122233472D01*
X145680366Y-122233472D02*
X145507693Y-122205833D01*
X145507693Y-122205833D02*
X145348773Y-122164208D01*
X145348773Y-122164208D02*
X145200415Y-122110229D01*
X145200415Y-122110229D02*
X145062750Y-122045740D01*
X145062750Y-122045740D02*
X144934421Y-121971556D01*
X144934421Y-121971556D02*
X144816398Y-121889501D01*
X144816398Y-121889501D02*
X144705952Y-121798494D01*
X144705952Y-121798494D02*
X144600863Y-121696285D01*
X144600863Y-121696285D02*
X144507480Y-121589225D01*
X144507480Y-121589225D02*
X144422358Y-121473963D01*
X144422358Y-121473963D02*
X144345744Y-121350025D01*
X144345744Y-121350025D02*
X144277790Y-121215890D01*
X144277790Y-121215890D02*
X144220216Y-121072273D01*
X144220216Y-121072273D02*
X144173986Y-120917453D01*
X144173986Y-120917453D02*
X144140818Y-120748840D01*
X144140818Y-120748840D02*
X144123829Y-120565740D01*
X144123829Y-120565740D02*
X144122383Y-120493889D01*
X208833956Y-59443961D02*
X208844216Y-59253321D01*
X208844216Y-59253321D02*
X208872006Y-59079272D01*
X208872006Y-59079272D02*
X208914638Y-58917145D01*
X208914638Y-58917145D02*
X208968893Y-58768920D01*
X208968893Y-58768920D02*
X209033018Y-58632569D01*
X209033018Y-58632569D02*
X209106456Y-58505722D01*
X209106456Y-58505722D02*
X209194711Y-58379617D01*
X209194711Y-58379617D02*
X209294767Y-58260516D01*
X209294767Y-58260516D02*
X209400511Y-58154772D01*
X209400511Y-58154772D02*
X209509214Y-58062754D01*
X209509214Y-58062754D02*
X209630205Y-57976447D01*
X209630205Y-57976447D02*
X209756199Y-57901713D01*
X209756199Y-57901713D02*
X209891141Y-57836451D01*
X209891141Y-57836451D02*
X210036997Y-57781128D01*
X210036997Y-57781128D02*
X210195358Y-57737253D01*
X210195358Y-57737253D02*
X210365856Y-57707414D01*
X210365856Y-57707414D02*
X210556396Y-57694170D01*
X210556396Y-57694170D02*
X210583956Y-57693961D01*
X210548044Y-122768800D02*
X210356027Y-122758383D01*
X210356027Y-122758383D02*
X210183355Y-122730744D01*
X210183355Y-122730744D02*
X210024435Y-122689119D01*
X210024435Y-122689119D02*
X209876077Y-122635140D01*
X209876077Y-122635140D02*
X209738412Y-122570651D01*
X209738412Y-122570651D02*
X209610083Y-122496467D01*
X209610083Y-122496467D02*
X209492060Y-122414412D01*
X209492060Y-122414412D02*
X209381614Y-122323405D01*
X209381614Y-122323405D02*
X209276525Y-122221196D01*
X209276525Y-122221196D02*
X209183142Y-122114136D01*
X209183142Y-122114136D02*
X209098020Y-121998874D01*
X209098020Y-121998874D02*
X209021406Y-121874936D01*
X209021406Y-121874936D02*
X208953452Y-121740801D01*
X208953452Y-121740801D02*
X208895878Y-121597184D01*
X208895878Y-121597184D02*
X208849647Y-121442364D01*
X208849647Y-121442364D02*
X208816479Y-121273751D01*
X208816479Y-121273751D02*
X208799490Y-121090651D01*
X208799490Y-121090651D02*
X208798044Y-121018800D01*
X212298044Y-121018800D02*
X212287476Y-121212183D01*
X212287476Y-121212183D02*
X212259562Y-121385480D01*
X212259562Y-121385480D02*
X212216747Y-121547529D01*
X212216747Y-121547529D02*
X212162071Y-121696293D01*
X212162071Y-121696293D02*
X212095270Y-121837209D01*
X212095270Y-121837209D02*
X212021451Y-121963413D01*
X212021451Y-121963413D02*
X211938481Y-122081571D01*
X211938481Y-122081571D02*
X211835893Y-122203687D01*
X211835893Y-122203687D02*
X211733896Y-122305760D01*
X211733896Y-122305760D02*
X211624847Y-122398381D01*
X211624847Y-122398381D02*
X211501233Y-122486664D01*
X211501233Y-122486664D02*
X211374044Y-122561979D01*
X211374044Y-122561979D02*
X211238407Y-122627357D01*
X211238407Y-122627357D02*
X211092760Y-122682357D01*
X211092760Y-122682357D02*
X210935973Y-122725649D01*
X210935973Y-122725649D02*
X210762021Y-122755844D01*
X210762021Y-122755844D02*
X210573129Y-122768621D01*
X210573129Y-122768621D02*
X210548044Y-122768800D01*
X144122383Y-120493889D02*
X144132643Y-120303249D01*
X144132643Y-120303249D02*
X144160433Y-120129200D01*
X144160433Y-120129200D02*
X144203064Y-119967073D01*
X144203064Y-119967073D02*
X144257319Y-119818848D01*
X144257319Y-119818848D02*
X144321444Y-119682497D01*
X144321444Y-119682497D02*
X144394882Y-119555650D01*
X144394882Y-119555650D02*
X144483137Y-119429545D01*
X144483137Y-119429545D02*
X144583193Y-119310444D01*
X144583193Y-119310444D02*
X144688937Y-119204700D01*
X144688937Y-119204700D02*
X144797640Y-119112682D01*
X144797640Y-119112682D02*
X144918631Y-119026375D01*
X144918631Y-119026375D02*
X145044625Y-118951641D01*
X145044625Y-118951641D02*
X145179567Y-118886379D01*
X145179567Y-118886379D02*
X145325423Y-118831056D01*
X145325423Y-118831056D02*
X145483784Y-118787181D01*
X145483784Y-118787181D02*
X145654283Y-118757342D01*
X145654283Y-118757342D02*
X145844823Y-118744098D01*
X145844823Y-118744098D02*
X145872383Y-118743889D01*
X142932988Y-120870342D02*
X142814496Y-119741195D01*
X144269347Y-108571556D02*
X144650599Y-106065119D01*
X143888200Y-110917286D02*
X144269347Y-108571556D01*
X168126576Y-121137852D02*
X162441909Y-121702664D01*
X142980735Y-116834260D02*
X143219644Y-115061457D01*
X142837832Y-118395669D02*
X142980735Y-116834260D01*
X212940953Y-122807404D02*
X212360167Y-123393399D01*
X145196414Y-123355978D02*
X144331727Y-123016461D01*
X143213741Y-121786792D02*
X142932988Y-120870342D01*
X146277408Y-123534219D02*
X145196414Y-123355978D01*
X213331343Y-122019182D02*
X212940953Y-122807404D01*
X145589721Y-97784193D02*
X145885641Y-91861177D01*
X144650599Y-106065119D02*
X145010344Y-103417266D01*
X204376944Y-123587020D02*
X202296400Y-123259035D01*
X143530280Y-113085353D02*
X143888200Y-110917286D01*
X143219644Y-115061457D02*
X143530280Y-113085353D01*
X142814496Y-119741195D02*
X142837832Y-118395669D01*
X186403182Y-121146616D02*
X180311089Y-120819004D01*
X212360167Y-123393399D02*
X211575290Y-123790560D01*
X209356663Y-124085988D02*
X207914857Y-124023477D01*
X213548044Y-121018800D02*
X213331343Y-122019182D01*
X159784645Y-122040490D02*
X157278725Y-122390703D01*
X206252936Y-123849562D02*
X204376944Y-123587020D01*
X180311089Y-120819004D02*
X174149726Y-120818994D01*
X174149726Y-120818994D02*
X168126576Y-121137852D01*
X143674874Y-122498315D02*
X143213741Y-121786792D01*
X154942678Y-122732625D02*
X152792693Y-123044351D01*
X192221511Y-121743991D02*
X186403182Y-121146616D01*
X202296400Y-123259035D02*
X200023937Y-122888722D01*
X210576164Y-124015195D02*
X209356663Y-124085988D01*
X147579185Y-123570624D02*
X146277408Y-123534219D01*
X149102037Y-123486234D02*
X147579185Y-123570624D01*
X200023937Y-122888722D02*
X197574991Y-122498657D01*
X150842297Y-123303210D02*
X149102037Y-123486234D01*
X157278725Y-122390703D02*
X154942678Y-122732625D01*
X162441909Y-121702664D02*
X159784645Y-122040490D01*
X197574991Y-122498657D02*
X192221511Y-121743991D01*
X207914857Y-124023477D02*
X206252936Y-123849562D01*
X145010344Y-103417266D02*
X145589721Y-97784193D01*
X152792693Y-123044351D02*
X150842297Y-123303210D01*
X211575290Y-123790560D02*
X210576164Y-124015195D01*
X144331727Y-123016461D02*
X143674874Y-122498315D01*
X144445889Y-71850761D02*
X144065496Y-69420685D01*
X203673078Y-56763173D02*
X205623392Y-56546688D01*
X142918762Y-61577365D02*
X142846436Y-60143433D01*
X201522920Y-57027706D02*
X203673078Y-56763173D01*
X164224284Y-57829016D02*
X170046266Y-58353779D01*
X170046266Y-58353779D02*
X176142404Y-58645919D01*
X143121673Y-57934851D02*
X143510000Y-57150000D01*
X144871626Y-56161378D02*
X145868982Y-55924631D01*
X145836128Y-85854190D02*
X145452732Y-79975978D01*
X144088718Y-56563900D02*
X144871626Y-56161378D01*
X182307711Y-58655233D02*
X188334297Y-58388523D01*
X144065496Y-69420685D02*
X143698661Y-67163417D01*
X211802465Y-73868696D02*
X211442850Y-76524300D01*
X212183804Y-71355342D02*
X211802465Y-73868696D01*
X213610316Y-119800325D02*
X213548044Y-121018800D01*
X199186439Y-57319581D02*
X201522920Y-57027706D01*
X213539514Y-118362160D02*
X213610316Y-119800325D01*
X143698661Y-67163417D02*
X143369047Y-65095409D01*
X213358555Y-116706908D02*
X213539514Y-118362160D01*
X213091364Y-114841033D02*
X213358555Y-116706908D01*
X211006776Y-99986168D02*
X211643491Y-105516842D01*
X213618647Y-61527851D02*
X213474762Y-63084925D01*
X176142404Y-58645919D02*
X182307711Y-58655233D01*
X144817353Y-74434547D02*
X144445889Y-71850761D01*
X156418202Y-56830309D02*
X158868049Y-57169671D01*
X150188871Y-56007518D02*
X152064556Y-56228372D01*
X142846436Y-60143433D02*
X142906933Y-58930170D01*
X145868982Y-55924631D02*
X147087000Y-55834046D01*
X205623392Y-56546688D02*
X207363328Y-56399600D01*
X212762325Y-112774524D02*
X213091364Y-114841033D01*
X212395740Y-110520557D02*
X212762325Y-112774524D01*
X212015289Y-108095152D02*
X212395740Y-110520557D01*
X212786174Y-57451406D02*
X213246145Y-58157769D01*
X211643491Y-105516842D02*
X212015289Y-108095152D01*
X210186678Y-56400040D02*
X211266773Y-56590247D01*
X212565252Y-69004213D02*
X212183804Y-71355342D01*
X212923676Y-66832839D02*
X212565252Y-69004213D01*
X213474762Y-63084925D02*
X213235002Y-64855910D01*
X213643068Y-60188693D02*
X213618647Y-61527851D01*
X188334297Y-58388523D02*
X194021599Y-57907840D01*
X213525724Y-59067022D02*
X213643068Y-60188693D01*
X143369047Y-65095409D02*
X143100949Y-63230068D01*
X211266773Y-56590247D02*
X212130435Y-56934433D01*
X194021599Y-57907840D02*
X196679821Y-57619083D01*
X145885641Y-91861177D02*
X145836128Y-85854190D01*
X207363328Y-56399600D02*
X208885638Y-56343533D01*
X148527677Y-55868831D02*
X150188871Y-56007518D01*
X145452732Y-79975978D02*
X144817353Y-74434547D01*
X154145215Y-56509720D02*
X156418202Y-56830309D01*
X142906933Y-58930170D02*
X143121673Y-57934851D01*
X210621499Y-94114249D02*
X211006776Y-99986168D01*
X210570025Y-88105525D02*
X210621499Y-94114249D01*
X210864361Y-82172447D02*
X210570025Y-88105525D01*
X211442850Y-76524300D02*
X210864361Y-82172447D01*
X213235002Y-64855910D02*
X212923676Y-66832839D01*
X143100949Y-63230068D02*
X142918762Y-61577365D01*
X158868049Y-57169671D02*
X164224284Y-57829016D01*
X196679821Y-57619083D02*
X199186439Y-57319581D01*
X208885638Y-56343533D02*
X210186678Y-56400040D01*
X213246145Y-58157769D02*
X213525724Y-59067022D01*
X212130435Y-56934433D02*
X212786174Y-57451406D01*
X152064556Y-56228372D02*
X154145215Y-56509720D01*
X147087000Y-55834046D02*
X148527677Y-55868831D01*
X143510000Y-57150000D02*
X144088718Y-56563900D01*
M02*
