M48
; DRILL file {KiCad (5.1.5)-3} date 02/10/20 18:16:38
; FORMAT={-:-/ absolute / inch / decimal}
; #@! TF.CreationDate,2020-02-10T18:16:38+01:00
; #@! TF.GenerationSoftware,Kicad,Pcbnew,(5.1.5)-3
; #@! TF.FileFunction,Plated,1,2,PTH
FMAT,2
INCH
T1C0.0300
T2C0.0315
T3C0.0394
T4C0.0433
%
G90
G05
T1
X6.95Y-4.05
X6.95Y-4.15
X6.95Y-4.25
X6.95Y-4.35
X7.05Y-4.05
X7.05Y-4.15
X7.05Y-4.25
X7.05Y-4.35
T2
X5.9Y-2.65
X5.9Y-2.75
X5.9Y-2.85
X5.9Y-2.95
X5.9Y-3.05
X5.9Y-3.15
X5.9Y-3.25
X5.9Y-3.35
X5.9Y-3.45
X5.9Y-3.55
X5.9Y-3.65
X5.9Y-3.75
X5.9Y-3.85
X5.9Y-3.95
X5.9Y-4.05
X6.5Y-2.65
X6.5Y-2.75
X6.5Y-2.85
X6.5Y-2.95
X6.5Y-3.05
X6.5Y-3.15
X6.5Y-3.25
X6.5Y-3.35
X6.5Y-3.45
X6.5Y-3.55
X6.5Y-3.65
X6.5Y-3.75
X6.5Y-3.85
X6.5Y-3.95
X6.5Y-4.05
T3
X6.8Y-3.9
X6.8Y-4.25
X7.35Y-2.6
X7.45Y-2.6
X7.55Y-2.6
X7.65Y-2.6
T4
X7.7Y-3.2
X7.7Y-3.3
X7.7Y-3.4
T0
M30
