G04 #@! TF.GenerationSoftware,KiCad,Pcbnew,(5.1.5)-3*
G04 #@! TF.CreationDate,2020-02-10T18:15:39+01:00*
G04 #@! TF.ProjectId,WeatherStation,57656174-6865-4725-9374-6174696f6e2e,rev?*
G04 #@! TF.SameCoordinates,Original*
G04 #@! TF.FileFunction,Copper,L2,Bot*
G04 #@! TF.FilePolarity,Positive*
%FSLAX46Y46*%
G04 Gerber Fmt 4.6, Leading zero omitted, Abs format (unit mm)*
G04 Created by KiCad (PCBNEW (5.1.5)-3) date 2020-02-10 18:15:39*
%MOMM*%
%LPD*%
G04 APERTURE LIST*
%ADD10O,1.600000X1.600000*%
%ADD11R,1.600000X1.600000*%
%ADD12C,1.524000*%
%ADD13R,1.524000X1.524000*%
%ADD14R,1.700000X1.700000*%
%ADD15O,1.700000X1.700000*%
%ADD16R,2.000000X1.905000*%
%ADD17O,2.000000X1.905000*%
%ADD18C,2.000000*%
%ADD19C,1.250000*%
G04 APERTURE END LIST*
D10*
X165100000Y-102870000D03*
X149860000Y-102870000D03*
X165100000Y-67310000D03*
X149860000Y-100330000D03*
X165100000Y-69850000D03*
X149860000Y-97790000D03*
X165100000Y-72390000D03*
X149860000Y-95250000D03*
X165100000Y-74930000D03*
X149860000Y-92710000D03*
X165100000Y-77470000D03*
X149860000Y-90170000D03*
X165100000Y-80010000D03*
X149860000Y-87630000D03*
X165100000Y-82550000D03*
X149860000Y-85090000D03*
X165100000Y-85090000D03*
X149860000Y-82550000D03*
X165100000Y-87630000D03*
X149860000Y-80010000D03*
X165100000Y-90170000D03*
X149860000Y-77470000D03*
X165100000Y-92710000D03*
X149860000Y-74930000D03*
X165100000Y-95250000D03*
X149860000Y-72390000D03*
X165100000Y-97790000D03*
X149860000Y-69850000D03*
X165100000Y-100330000D03*
D11*
X149860000Y-67310000D03*
D12*
X179070000Y-110490000D03*
X176530000Y-110490000D03*
X179070000Y-107950000D03*
X176530000Y-107950000D03*
X179070000Y-105410000D03*
X176530000Y-105410000D03*
X179070000Y-102870000D03*
D13*
X176530000Y-102870000D03*
D14*
X186690000Y-66040000D03*
D15*
X189230000Y-66040000D03*
X191770000Y-66040000D03*
X194310000Y-66040000D03*
D16*
X195580000Y-86360000D03*
D17*
X195580000Y-83820000D03*
X195580000Y-81280000D03*
D18*
X172720000Y-99060000D03*
X172720000Y-107950000D03*
D19*
X172720000Y-107950000D02*
X172720000Y-99060000D01*
M02*
