  0
SECTION
  2
HEADER
  9
$ANGBASE
  50
0.0
  9
$ANGDIR
  70
1
  9
$MEASUREMENT
  70
1
  0
ENDSEC
  0
SECTION
  2
TABLES
  0
TABLE
  2
LTYPE
  70
4
  0
LTYPE
  5
40F
  2
CONTINUOUS
  70
0
  3
Solid line
  72
65
  73
0
  40
0.0
  0
LTYPE
  5
410
  2
DASHDOT
 70
0
  3
Dash Dot ____ _ ____ _
 72
65
 73
4
 40
2.0
 49
1.25
 49
-0.25
 49
0.25
 49
-0.25
  0
LTYPE
  5
411
  2
DASHED
 70
0
  3
Dashed __ __ __ __ __
 72
65
 73
2
 40
0.75
 49
0.5
 49
-0.25
  0
LTYPE
  5
43B
  2
DOTTED
 70
0
  3
Dotted .  .  .  .
 72
65
 73
2
 40
0.2
 49
0.0
 49
-0.2
  0
ENDTAB
  0
TABLE
  2
STYLE
  70
4
  0
STYLE
  2
KICAD
  70
0
  40
0
  41
1
  42
1
  50
0
  71
0
  3
isocp.shx
  0
STYLE
  2
KICADB
  70
0
  40
0
  41
1
  42
1
  50
0
  71
0
  3
isocp.shx
  0
STYLE
  2
KICADI
  70
0
  40
0
  41
1
  42
1
  50
15
  71
0
  3
isocp.shx
  0
STYLE
  2
KICADBI
  70
0
  40
0
  41
1
  42
1
  50
15
  71
0
  3
isocp.shx
  0
ENDTAB
  0
TABLE
  2
LAYER
  70
1
  0
LAYER
  2
BLACK
  70
0
  62
7
  6
CONTINUOUS
  0
ENDTAB
  0
ENDSEC
  0
SECTION
  2
ENTITIES
0
LINE
8
BLACK
6
CONTINUOUS
10
150.093
20
-97.0207
11
150.239
21
-97.081
0
LINE
8
BLACK
6
CONTINUOUS
10
150.239
20
-97.081
11
150.37
21
-97.1686
0
LINE
8
BLACK
6
CONTINUOUS
10
150.37
20
-97.1686
11
150.481
21
-97.28
0
LINE
8
BLACK
6
CONTINUOUS
10
150.481
20
-97.28
11
150.569
21
-97.4111
0
LINE
8
BLACK
6
CONTINUOUS
10
150.569
20
-97.4111
11
150.629
21
-97.5566
0
LINE
8
BLACK
6
CONTINUOUS
10
150.629
20
-97.5566
11
150.66
21
-97.7112
0
LINE
8
BLACK
6
CONTINUOUS
10
150.66
20
-97.7112
11
150.66
21
-97.8688
0
LINE
8
BLACK
6
CONTINUOUS
10
150.66
20
-97.8688
11
150.629
21
-98.0234
0
LINE
8
BLACK
6
CONTINUOUS
10
150.629
20
-98.0234
11
150.569
21
-98.1689
0
LINE
8
BLACK
6
CONTINUOUS
10
150.569
20
-98.1689
11
150.481
21
-98.3
0
LINE
8
BLACK
6
CONTINUOUS
10
150.481
20
-98.3
11
150.37
21
-98.4114
0
LINE
8
BLACK
6
CONTINUOUS
10
150.37
20
-98.4114
11
150.239
21
-98.499
0
LINE
8
BLACK
6
CONTINUOUS
10
150.239
20
-98.499
11
150.093
21
-98.5593
0
LINE
8
BLACK
6
CONTINUOUS
10
150.093
20
-98.5593
11
149.945
21
-98.5887
0
LINE
8
BLACK
6
CONTINUOUS
10
149.945
20
-98.5887
11
147.31
21
-101.224
0
LINE
8
BLACK
6
CONTINUOUS
10
147.31
20
-101.224
11
147.31
21
-104.036
0
LINE
8
BLACK
6
CONTINUOUS
10
147.31
20
-104.036
11
156.276
21
-113.002
0
LINE
8
BLACK
6
CONTINUOUS
10
156.276
20
-113.002
11
180.218
21
-113.002
0
LINE
8
BLACK
6
CONTINUOUS
10
180.218
20
-113.002
11
181.582
21
-111.638
0
LINE
8
BLACK
6
CONTINUOUS
10
181.582
20
-111.638
11
181.582
21
-108.806
0
LINE
8
BLACK
6
CONTINUOUS
10
181.582
20
-108.806
11
179.412
21
-106.636
0
LINE
8
BLACK
6
CONTINUOUS
10
179.412
20
-106.636
11
179.412
21
-106.636
0
LINE
8
BLACK
6
CONTINUOUS
10
179.412
20
-106.636
11
178.936
21
-106.16
0
LINE
8
BLACK
6
CONTINUOUS
10
178.936
20
-106.16
11
178.848
21
-106.143
0
LINE
8
BLACK
6
CONTINUOUS
10
178.848
20
-106.143
11
178.709
21
-106.085
0
LINE
8
BLACK
6
CONTINUOUS
10
178.709
20
-106.085
11
178.584
21
-106.002
0
LINE
8
BLACK
6
CONTINUOUS
10
178.584
20
-106.002
11
178.478
21
-105.896
0
LINE
8
BLACK
6
CONTINUOUS
10
178.478
20
-105.896
11
178.395
21
-105.771
0
LINE
8
BLACK
6
CONTINUOUS
10
178.395
20
-105.771
11
178.337
21
-105.632
0
LINE
8
BLACK
6
CONTINUOUS
10
178.337
20
-105.632
11
178.308
21
-105.485
0
LINE
8
BLACK
6
CONTINUOUS
10
178.308
20
-105.485
11
178.308
21
-105.335
0
LINE
8
BLACK
6
CONTINUOUS
10
178.308
20
-105.335
11
178.337
21
-105.188
0
LINE
8
BLACK
6
CONTINUOUS
10
178.337
20
-105.188
11
178.395
21
-105.049
0
LINE
8
BLACK
6
CONTINUOUS
10
178.395
20
-105.049
11
178.478
21
-104.924
0
LINE
8
BLACK
6
CONTINUOUS
10
178.478
20
-104.924
11
178.584
21
-104.818
0
LINE
8
BLACK
6
CONTINUOUS
10
178.584
20
-104.818
11
178.709
21
-104.735
0
LINE
8
BLACK
6
CONTINUOUS
10
178.709
20
-104.735
11
178.848
21
-104.677
0
LINE
8
BLACK
6
CONTINUOUS
10
178.848
20
-104.677
11
178.995
21
-104.648
0
LINE
8
BLACK
6
CONTINUOUS
10
178.995
20
-104.648
11
179.145
21
-104.648
0
LINE
8
BLACK
6
CONTINUOUS
10
179.145
20
-104.648
11
179.292
21
-104.677
0
LINE
8
BLACK
6
CONTINUOUS
10
179.292
20
-104.677
11
179.431
21
-104.735
0
LINE
8
BLACK
6
CONTINUOUS
10
179.431
20
-104.735
11
179.556
21
-104.818
0
LINE
8
BLACK
6
CONTINUOUS
10
179.556
20
-104.818
11
179.662
21
-104.924
0
LINE
8
BLACK
6
CONTINUOUS
10
179.662
20
-104.924
11
179.745
21
-105.049
0
LINE
8
BLACK
6
CONTINUOUS
10
179.745
20
-105.049
11
179.803
21
-105.188
0
LINE
8
BLACK
6
CONTINUOUS
10
179.803
20
-105.188
11
179.82
21
-105.276
0
LINE
8
BLACK
6
CONTINUOUS
10
179.82
20
-105.276
11
180.296
21
-105.752
0
LINE
8
BLACK
6
CONTINUOUS
10
180.296
20
-105.752
11
180.296
21
-105.752
0
LINE
8
BLACK
6
CONTINUOUS
10
180.296
20
-105.752
11
182.627
21
-108.083
0
LINE
8
BLACK
6
CONTINUOUS
10
182.627
20
-108.083
11
182.651
21
-108.103
0
LINE
8
BLACK
6
CONTINUOUS
10
182.651
20
-108.103
11
182.671
21
-108.127
0
LINE
8
BLACK
6
CONTINUOUS
10
182.671
20
-108.127
11
182.729
21
-108.198
0
LINE
8
BLACK
6
CONTINUOUS
10
182.729
20
-108.198
11
182.729
21
-108.198
0
LINE
8
BLACK
6
CONTINUOUS
10
182.729
20
-108.198
11
182.787
21
-108.307
0
LINE
8
BLACK
6
CONTINUOUS
10
182.787
20
-108.307
11
182.823
21
-108.424
0
LINE
8
BLACK
6
CONTINUOUS
10
182.823
20
-108.424
11
182.832
21
-108.516
0
LINE
8
BLACK
6
CONTINUOUS
10
182.832
20
-108.516
11
182.832
21
-108.516
0
LINE
8
BLACK
6
CONTINUOUS
10
182.832
20
-108.516
11
182.835
21
-108.547
0
LINE
8
BLACK
6
CONTINUOUS
10
182.835
20
-108.547
11
182.832
21
-108.578
0
LINE
8
BLACK
6
CONTINUOUS
10
182.832
20
-108.578
11
182.832
21
-111.866
0
LINE
8
BLACK
6
CONTINUOUS
10
182.832
20
-111.866
11
182.835
21
-111.897
0
LINE
8
BLACK
6
CONTINUOUS
10
182.835
20
-111.897
11
182.832
21
-111.928
0
LINE
8
BLACK
6
CONTINUOUS
10
182.832
20
-111.928
11
182.832
21
-111.928
0
LINE
8
BLACK
6
CONTINUOUS
10
182.832
20
-111.928
11
182.823
21
-112.02
0
LINE
8
BLACK
6
CONTINUOUS
10
182.823
20
-112.02
11
182.79
21
-112.127
0
LINE
8
BLACK
6
CONTINUOUS
10
182.79
20
-112.127
11
182.787
21
-112.137
0
LINE
8
BLACK
6
CONTINUOUS
10
182.787
20
-112.137
11
182.729
21
-112.246
0
LINE
8
BLACK
6
CONTINUOUS
10
182.729
20
-112.246
11
182.671
21
-112.317
0
LINE
8
BLACK
6
CONTINUOUS
10
182.671
20
-112.317
11
182.651
21
-112.341
0
LINE
8
BLACK
6
CONTINUOUS
10
182.651
20
-112.341
11
182.627
21
-112.361
0
LINE
8
BLACK
6
CONTINUOUS
10
182.627
20
-112.361
11
180.941
21
-114.047
0
LINE
8
BLACK
6
CONTINUOUS
10
180.941
20
-114.047
11
180.921
21
-114.071
0
LINE
8
BLACK
6
CONTINUOUS
10
180.921
20
-114.071
11
180.897
21
-114.091
0
LINE
8
BLACK
6
CONTINUOUS
10
180.897
20
-114.091
11
180.826
21
-114.149
0
LINE
8
BLACK
6
CONTINUOUS
10
180.826
20
-114.149
11
180.717
21
-114.207
0
LINE
8
BLACK
6
CONTINUOUS
10
180.717
20
-114.207
11
180.6
21
-114.243
0
LINE
8
BLACK
6
CONTINUOUS
10
180.6
20
-114.243
11
180.477
21
-114.255
0
LINE
8
BLACK
6
CONTINUOUS
10
180.477
20
-114.255
11
180.446
21
-114.252
0
LINE
8
BLACK
6
CONTINUOUS
10
180.446
20
-114.252
11
156.047
21
-114.252
0
LINE
8
BLACK
6
CONTINUOUS
10
156.047
20
-114.252
11
156.017
21
-114.255
0
LINE
8
BLACK
6
CONTINUOUS
10
156.017
20
-114.255
11
155.986
21
-114.252
0
LINE
8
BLACK
6
CONTINUOUS
10
155.986
20
-114.252
11
155.986
21
-114.252
0
LINE
8
BLACK
6
CONTINUOUS
10
155.986
20
-114.252
11
155.894
21
-114.243
0
LINE
8
BLACK
6
CONTINUOUS
10
155.894
20
-114.243
11
155.776
21
-114.207
0
LINE
8
BLACK
6
CONTINUOUS
10
155.776
20
-114.207
11
155.776
21
-114.207
0
LINE
8
BLACK
6
CONTINUOUS
10
155.776
20
-114.207
11
155.668
21
-114.149
0
LINE
8
BLACK
6
CONTINUOUS
10
155.668
20
-114.149
11
155.596
21
-114.091
0
LINE
8
BLACK
6
CONTINUOUS
10
155.596
20
-114.091
11
155.596
21
-114.091
0
LINE
8
BLACK
6
CONTINUOUS
10
155.596
20
-114.091
11
155.573
21
-114.071
0
LINE
8
BLACK
6
CONTINUOUS
10
155.573
20
-114.071
11
155.553
21
-114.047
0
LINE
8
BLACK
6
CONTINUOUS
10
155.553
20
-114.047
11
146.265
21
-104.759
0
LINE
8
BLACK
6
CONTINUOUS
10
146.265
20
-104.759
11
146.241
21
-104.739
0
LINE
8
BLACK
6
CONTINUOUS
10
146.241
20
-104.739
11
146.163
21
-104.644
0
LINE
8
BLACK
6
CONTINUOUS
10
146.163
20
-104.644
11
146.105
21
-104.536
0
LINE
8
BLACK
6
CONTINUOUS
10
146.105
20
-104.536
11
146.069
21
-104.418
0
LINE
8
BLACK
6
CONTINUOUS
10
146.069
20
-104.418
11
146.06
21
-104.326
0
LINE
8
BLACK
6
CONTINUOUS
10
146.06
20
-104.326
11
146.057
21
-104.295
0
LINE
8
BLACK
6
CONTINUOUS
10
146.057
20
-104.295
11
146.06
21
-104.265
0
LINE
8
BLACK
6
CONTINUOUS
10
146.06
20
-104.265
11
146.06
21
-100.996
0
LINE
8
BLACK
6
CONTINUOUS
10
146.06
20
-100.996
11
146.057
21
-100.965
0
LINE
8
BLACK
6
CONTINUOUS
10
146.057
20
-100.965
11
146.06
21
-100.934
0
LINE
8
BLACK
6
CONTINUOUS
10
146.06
20
-100.934
11
146.06
21
-100.934
0
LINE
8
BLACK
6
CONTINUOUS
10
146.06
20
-100.934
11
146.069
21
-100.842
0
LINE
8
BLACK
6
CONTINUOUS
10
146.069
20
-100.842
11
146.105
21
-100.725
0
LINE
8
BLACK
6
CONTINUOUS
10
146.105
20
-100.725
11
146.163
21
-100.616
0
LINE
8
BLACK
6
CONTINUOUS
10
146.163
20
-100.616
11
146.241
21
-100.521
0
LINE
8
BLACK
6
CONTINUOUS
10
146.241
20
-100.521
11
146.265
21
-100.501
0
LINE
8
BLACK
6
CONTINUOUS
10
146.265
20
-100.501
11
149.061
21
-97.7049
0
LINE
8
BLACK
6
CONTINUOUS
10
149.061
20
-97.7049
11
149.091
21
-97.5566
0
LINE
8
BLACK
6
CONTINUOUS
10
149.091
20
-97.5566
11
149.151
21
-97.4111
0
LINE
8
BLACK
6
CONTINUOUS
10
149.151
20
-97.4111
11
149.239
21
-97.28
0
LINE
8
BLACK
6
CONTINUOUS
10
149.239
20
-97.28
11
149.35
21
-97.1686
0
LINE
8
BLACK
6
CONTINUOUS
10
149.35
20
-97.1686
11
149.481
21
-97.081
0
LINE
8
BLACK
6
CONTINUOUS
10
149.481
20
-97.081
11
149.627
21
-97.0207
0
LINE
8
BLACK
6
CONTINUOUS
10
149.627
20
-97.0207
11
149.781
21
-96.99
0
LINE
8
BLACK
6
CONTINUOUS
10
149.781
20
-96.99
11
149.939
21
-96.99
0
LINE
8
BLACK
6
CONTINUOUS
10
149.939
20
-96.99
11
150.093
21
-97.0207
0
LINE
8
BLACK
6
CONTINUOUS
10
150.093
20
-99.5607
11
150.239
21
-99.621
0
LINE
8
BLACK
6
CONTINUOUS
10
150.239
20
-99.621
11
150.37
21
-99.7086
0
LINE
8
BLACK
6
CONTINUOUS
10
150.37
20
-99.7086
11
150.481
21
-99.82
0
LINE
8
BLACK
6
CONTINUOUS
10
150.481
20
-99.82
11
150.569
21
-99.9511
0
LINE
8
BLACK
6
CONTINUOUS
10
150.569
20
-99.9511
11
150.629
21
-100.097
0
LINE
8
BLACK
6
CONTINUOUS
10
150.629
20
-100.097
11
150.66
21
-100.251
0
LINE
8
BLACK
6
CONTINUOUS
10
150.66
20
-100.251
11
150.66
21
-100.409
0
LINE
8
BLACK
6
CONTINUOUS
10
150.66
20
-100.409
11
150.629
21
-100.563
0
LINE
8
BLACK
6
CONTINUOUS
10
150.629
20
-100.563
11
150.569
21
-100.709
0
LINE
8
BLACK
6
CONTINUOUS
10
150.569
20
-100.709
11
150.481
21
-100.84
0
LINE
8
BLACK
6
CONTINUOUS
10
150.481
20
-100.84
11
150.37
21
-100.951
0
LINE
8
BLACK
6
CONTINUOUS
10
150.37
20
-100.951
11
150.239
21
-101.039
0
LINE
8
BLACK
6
CONTINUOUS
10
150.239
20
-101.039
11
150.093
21
-101.099
0
LINE
8
BLACK
6
CONTINUOUS
10
150.093
20
-101.099
11
149.945
21
-101.129
0
LINE
8
BLACK
6
CONTINUOUS
10
149.945
20
-101.129
11
149.524
21
-101.55
0
LINE
8
BLACK
6
CONTINUOUS
10
149.524
20
-101.55
11
149.524
21
-101.55
0
LINE
8
BLACK
6
CONTINUOUS
10
149.524
20
-101.55
11
148.81
21
-102.264
0
LINE
8
BLACK
6
CONTINUOUS
10
148.81
20
-102.264
11
148.81
21
-103.415
0
LINE
8
BLACK
6
CONTINUOUS
10
148.81
20
-103.415
11
156.897
21
-111.502
0
LINE
8
BLACK
6
CONTINUOUS
10
156.897
20
-111.502
11
179.597
21
-111.502
0
LINE
8
BLACK
6
CONTINUOUS
10
179.597
20
-111.502
11
180.082
21
-111.017
0
LINE
8
BLACK
6
CONTINUOUS
10
180.082
20
-111.017
11
180.082
21
-109.846
0
LINE
8
BLACK
6
CONTINUOUS
10
180.082
20
-109.846
11
178.936
21
-108.7
0
LINE
8
BLACK
6
CONTINUOUS
10
178.936
20
-108.7
11
178.848
21
-108.683
0
LINE
8
BLACK
6
CONTINUOUS
10
178.848
20
-108.683
11
178.709
21
-108.625
0
LINE
8
BLACK
6
CONTINUOUS
10
178.709
20
-108.625
11
178.584
21
-108.542
0
LINE
8
BLACK
6
CONTINUOUS
10
178.584
20
-108.542
11
178.478
21
-108.436
0
LINE
8
BLACK
6
CONTINUOUS
10
178.478
20
-108.436
11
178.395
21
-108.311
0
LINE
8
BLACK
6
CONTINUOUS
10
178.395
20
-108.311
11
178.337
21
-108.172
0
LINE
8
BLACK
6
CONTINUOUS
10
178.337
20
-108.172
11
178.308
21
-108.025
0
LINE
8
BLACK
6
CONTINUOUS
10
178.308
20
-108.025
11
178.308
21
-107.875
0
LINE
8
BLACK
6
CONTINUOUS
10
178.308
20
-107.875
11
178.337
21
-107.728
0
LINE
8
BLACK
6
CONTINUOUS
10
178.337
20
-107.728
11
178.395
21
-107.589
0
LINE
8
BLACK
6
CONTINUOUS
10
178.395
20
-107.589
11
178.478
21
-107.464
0
LINE
8
BLACK
6
CONTINUOUS
10
178.478
20
-107.464
11
178.584
21
-107.358
0
LINE
8
BLACK
6
CONTINUOUS
10
178.584
20
-107.358
11
178.709
21
-107.275
0
LINE
8
BLACK
6
CONTINUOUS
10
178.709
20
-107.275
11
178.848
21
-107.217
0
LINE
8
BLACK
6
CONTINUOUS
10
178.848
20
-107.217
11
178.995
21
-107.188
0
LINE
8
BLACK
6
CONTINUOUS
10
178.995
20
-107.188
11
179.145
21
-107.188
0
LINE
8
BLACK
6
CONTINUOUS
10
179.145
20
-107.188
11
179.292
21
-107.217
0
LINE
8
BLACK
6
CONTINUOUS
10
179.292
20
-107.217
11
179.431
21
-107.275
0
LINE
8
BLACK
6
CONTINUOUS
10
179.431
20
-107.275
11
179.556
21
-107.358
0
LINE
8
BLACK
6
CONTINUOUS
10
179.556
20
-107.358
11
179.662
21
-107.464
0
LINE
8
BLACK
6
CONTINUOUS
10
179.662
20
-107.464
11
179.745
21
-107.589
0
LINE
8
BLACK
6
CONTINUOUS
10
179.745
20
-107.589
11
179.803
21
-107.728
0
LINE
8
BLACK
6
CONTINUOUS
10
179.803
20
-107.728
11
179.82
21
-107.816
0
LINE
8
BLACK
6
CONTINUOUS
10
179.82
20
-107.816
11
181.127
21
-109.123
0
LINE
8
BLACK
6
CONTINUOUS
10
181.127
20
-109.123
11
181.151
21
-109.143
0
LINE
8
BLACK
6
CONTINUOUS
10
181.151
20
-109.143
11
181.229
21
-109.238
0
LINE
8
BLACK
6
CONTINUOUS
10
181.229
20
-109.238
11
181.287
21
-109.347
0
LINE
8
BLACK
6
CONTINUOUS
10
181.287
20
-109.347
11
181.323
21
-109.464
0
LINE
8
BLACK
6
CONTINUOUS
10
181.323
20
-109.464
11
181.332
21
-109.556
0
LINE
8
BLACK
6
CONTINUOUS
10
181.332
20
-109.556
11
181.332
21
-109.556
0
LINE
8
BLACK
6
CONTINUOUS
10
181.332
20
-109.556
11
181.335
21
-109.587
0
LINE
8
BLACK
6
CONTINUOUS
10
181.335
20
-109.587
11
181.332
21
-109.618
0
LINE
8
BLACK
6
CONTINUOUS
10
181.332
20
-109.618
11
181.332
21
-111.245
0
LINE
8
BLACK
6
CONTINUOUS
10
181.332
20
-111.245
11
181.335
21
-111.276
0
LINE
8
BLACK
6
CONTINUOUS
10
181.335
20
-111.276
11
181.332
21
-111.306
0
LINE
8
BLACK
6
CONTINUOUS
10
181.332
20
-111.306
11
181.332
21
-111.306
0
LINE
8
BLACK
6
CONTINUOUS
10
181.332
20
-111.306
11
181.323
21
-111.398
0
LINE
8
BLACK
6
CONTINUOUS
10
181.323
20
-111.398
11
181.291
21
-111.502
0
LINE
8
BLACK
6
CONTINUOUS
10
181.291
20
-111.502
11
181.287
21
-111.516
0
LINE
8
BLACK
6
CONTINUOUS
10
181.287
20
-111.516
11
181.229
21
-111.625
0
LINE
8
BLACK
6
CONTINUOUS
10
181.229
20
-111.625
11
181.203
21
-111.657
0
LINE
8
BLACK
6
CONTINUOUS
10
181.203
20
-111.657
11
181.151
21
-111.72
0
LINE
8
BLACK
6
CONTINUOUS
10
181.151
20
-111.72
11
181.127
21
-111.739
0
LINE
8
BLACK
6
CONTINUOUS
10
181.127
20
-111.739
11
180.319
21
-112.547
0
LINE
8
BLACK
6
CONTINUOUS
10
180.319
20
-112.547
11
180.3
21
-112.571
0
LINE
8
BLACK
6
CONTINUOUS
10
180.3
20
-112.571
11
180.205
21
-112.649
0
LINE
8
BLACK
6
CONTINUOUS
10
180.205
20
-112.649
11
180.096
21
-112.707
0
LINE
8
BLACK
6
CONTINUOUS
10
180.096
20
-112.707
11
179.978
21
-112.743
0
LINE
8
BLACK
6
CONTINUOUS
10
179.978
20
-112.743
11
179.886
21
-112.752
0
LINE
8
BLACK
6
CONTINUOUS
10
179.886
20
-112.752
11
179.886
21
-112.752
0
LINE
8
BLACK
6
CONTINUOUS
10
179.886
20
-112.752
11
179.856
21
-112.755
0
LINE
8
BLACK
6
CONTINUOUS
10
179.856
20
-112.755
11
179.825
21
-112.752
0
LINE
8
BLACK
6
CONTINUOUS
10
179.825
20
-112.752
11
156.669
21
-112.752
0
LINE
8
BLACK
6
CONTINUOUS
10
156.669
20
-112.752
11
156.638
21
-112.755
0
LINE
8
BLACK
6
CONTINUOUS
10
156.638
20
-112.755
11
156.607
21
-112.752
0
LINE
8
BLACK
6
CONTINUOUS
10
156.607
20
-112.752
11
156.607
21
-112.752
0
LINE
8
BLACK
6
CONTINUOUS
10
156.607
20
-112.752
11
156.515
21
-112.743
0
LINE
8
BLACK
6
CONTINUOUS
10
156.515
20
-112.743
11
156.398
21
-112.707
0
LINE
8
BLACK
6
CONTINUOUS
10
156.398
20
-112.707
11
156.289
21
-112.649
0
LINE
8
BLACK
6
CONTINUOUS
10
156.289
20
-112.649
11
156.289
21
-112.649
0
LINE
8
BLACK
6
CONTINUOUS
10
156.289
20
-112.649
11
156.218
21
-112.591
0
LINE
8
BLACK
6
CONTINUOUS
10
156.218
20
-112.591
11
156.194
21
-112.571
0
LINE
8
BLACK
6
CONTINUOUS
10
156.194
20
-112.571
11
156.174
21
-112.547
0
LINE
8
BLACK
6
CONTINUOUS
10
156.174
20
-112.547
11
147.765
21
-104.138
0
LINE
8
BLACK
6
CONTINUOUS
10
147.765
20
-104.138
11
147.741
21
-104.118
0
LINE
8
BLACK
6
CONTINUOUS
10
147.741
20
-104.118
11
147.663
21
-104.023
0
LINE
8
BLACK
6
CONTINUOUS
10
147.663
20
-104.023
11
147.605
21
-103.914
0
LINE
8
BLACK
6
CONTINUOUS
10
147.605
20
-103.914
11
147.569
21
-103.797
0
LINE
8
BLACK
6
CONTINUOUS
10
147.569
20
-103.797
11
147.56
21
-103.705
0
LINE
8
BLACK
6
CONTINUOUS
10
147.56
20
-103.705
11
147.56
21
-103.705
0
LINE
8
BLACK
6
CONTINUOUS
10
147.56
20
-103.705
11
147.557
21
-103.674
0
LINE
8
BLACK
6
CONTINUOUS
10
147.557
20
-103.674
11
147.56
21
-103.643
0
LINE
8
BLACK
6
CONTINUOUS
10
147.56
20
-103.643
11
147.56
21
-102.036
0
LINE
8
BLACK
6
CONTINUOUS
10
147.56
20
-102.036
11
147.557
21
-102.005
0
LINE
8
BLACK
6
CONTINUOUS
10
147.557
20
-102.005
11
147.569
21
-101.882
0
LINE
8
BLACK
6
CONTINUOUS
10
147.569
20
-101.882
11
147.605
21
-101.765
0
LINE
8
BLACK
6
CONTINUOUS
10
147.605
20
-101.765
11
147.663
21
-101.656
0
LINE
8
BLACK
6
CONTINUOUS
10
147.663
20
-101.656
11
147.714
21
-101.594
0
LINE
8
BLACK
6
CONTINUOUS
10
147.714
20
-101.594
11
147.741
21
-101.561
0
LINE
8
BLACK
6
CONTINUOUS
10
147.741
20
-101.561
11
147.765
21
-101.541
0
LINE
8
BLACK
6
CONTINUOUS
10
147.765
20
-101.541
11
148.64
21
-100.666
0
LINE
8
BLACK
6
CONTINUOUS
10
148.64
20
-100.666
11
148.64
21
-100.666
0
LINE
8
BLACK
6
CONTINUOUS
10
148.64
20
-100.666
11
149.061
21
-100.245
0
LINE
8
BLACK
6
CONTINUOUS
10
149.061
20
-100.245
11
149.091
21
-100.097
0
LINE
8
BLACK
6
CONTINUOUS
10
149.091
20
-100.097
11
149.151
21
-99.9511
0
LINE
8
BLACK
6
CONTINUOUS
10
149.151
20
-99.9511
11
149.239
21
-99.82
0
LINE
8
BLACK
6
CONTINUOUS
10
149.239
20
-99.82
11
149.35
21
-99.7086
0
LINE
8
BLACK
6
CONTINUOUS
10
149.35
20
-99.7086
11
149.481
21
-99.621
0
LINE
8
BLACK
6
CONTINUOUS
10
149.481
20
-99.621
11
149.627
21
-99.5607
0
LINE
8
BLACK
6
CONTINUOUS
10
149.627
20
-99.5607
11
149.781
21
-99.53
0
LINE
8
BLACK
6
CONTINUOUS
10
149.781
20
-99.53
11
149.939
21
-99.53
0
LINE
8
BLACK
6
CONTINUOUS
10
149.939
20
-99.53
11
150.093
21
-99.5607
0
LINE
8
BLACK
6
CONTINUOUS
10
150.093
20
-102.101
11
150.239
21
-102.161
0
LINE
8
BLACK
6
CONTINUOUS
10
150.239
20
-102.161
11
150.37
21
-102.249
0
LINE
8
BLACK
6
CONTINUOUS
10
150.37
20
-102.249
11
150.481
21
-102.36
0
LINE
8
BLACK
6
CONTINUOUS
10
150.481
20
-102.36
11
150.569
21
-102.491
0
LINE
8
BLACK
6
CONTINUOUS
10
150.569
20
-102.491
11
150.629
21
-102.637
0
LINE
8
BLACK
6
CONTINUOUS
10
150.629
20
-102.637
11
150.659
21
-102.785
0
LINE
8
BLACK
6
CONTINUOUS
10
150.659
20
-102.785
11
157.739
21
-109.865
0
LINE
8
BLACK
6
CONTINUOUS
10
157.739
20
-109.865
11
176.094
21
-109.865
0
LINE
8
BLACK
6
CONTINUOUS
10
176.094
20
-109.865
11
176.169
21
-109.815
0
LINE
8
BLACK
6
CONTINUOUS
10
176.169
20
-109.815
11
176.308
21
-109.757
0
LINE
8
BLACK
6
CONTINUOUS
10
176.308
20
-109.757
11
176.455
21
-109.728
0
LINE
8
BLACK
6
CONTINUOUS
10
176.455
20
-109.728
11
176.605
21
-109.728
0
LINE
8
BLACK
6
CONTINUOUS
10
176.605
20
-109.728
11
176.752
21
-109.757
0
LINE
8
BLACK
6
CONTINUOUS
10
176.752
20
-109.757
11
176.891
21
-109.815
0
LINE
8
BLACK
6
CONTINUOUS
10
176.891
20
-109.815
11
177.016
21
-109.898
0
LINE
8
BLACK
6
CONTINUOUS
10
177.016
20
-109.898
11
177.122
21
-110.004
0
LINE
8
BLACK
6
CONTINUOUS
10
177.122
20
-110.004
11
177.205
21
-110.129
0
LINE
8
BLACK
6
CONTINUOUS
10
177.205
20
-110.129
11
177.263
21
-110.268
0
LINE
8
BLACK
6
CONTINUOUS
10
177.263
20
-110.268
11
177.292
21
-110.415
0
LINE
8
BLACK
6
CONTINUOUS
10
177.292
20
-110.415
11
177.292
21
-110.565
0
LINE
8
BLACK
6
CONTINUOUS
10
177.292
20
-110.565
11
177.263
21
-110.712
0
LINE
8
BLACK
6
CONTINUOUS
10
177.263
20
-110.712
11
177.205
21
-110.851
0
LINE
8
BLACK
6
CONTINUOUS
10
177.205
20
-110.851
11
177.122
21
-110.976
0
LINE
8
BLACK
6
CONTINUOUS
10
177.122
20
-110.976
11
177.016
21
-111.082
0
LINE
8
BLACK
6
CONTINUOUS
10
177.016
20
-111.082
11
176.891
21
-111.165
0
LINE
8
BLACK
6
CONTINUOUS
10
176.891
20
-111.165
11
176.752
21
-111.223
0
LINE
8
BLACK
6
CONTINUOUS
10
176.752
20
-111.223
11
176.605
21
-111.252
0
LINE
8
BLACK
6
CONTINUOUS
10
176.605
20
-111.252
11
176.455
21
-111.252
0
LINE
8
BLACK
6
CONTINUOUS
10
176.455
20
-111.252
11
176.308
21
-111.223
0
LINE
8
BLACK
6
CONTINUOUS
10
176.308
20
-111.223
11
176.169
21
-111.165
0
LINE
8
BLACK
6
CONTINUOUS
10
176.169
20
-111.165
11
176.094
21
-111.115
0
LINE
8
BLACK
6
CONTINUOUS
10
176.094
20
-111.115
11
157.511
21
-111.115
0
LINE
8
BLACK
6
CONTINUOUS
10
157.511
20
-111.115
11
157.48
21
-111.118
0
LINE
8
BLACK
6
CONTINUOUS
10
157.48
20
-111.118
11
157.449
21
-111.115
0
LINE
8
BLACK
6
CONTINUOUS
10
157.449
20
-111.115
11
157.449
21
-111.115
0
LINE
8
BLACK
6
CONTINUOUS
10
157.449
20
-111.115
11
157.357
21
-111.106
0
LINE
8
BLACK
6
CONTINUOUS
10
157.357
20
-111.106
11
157.24
21
-111.07
0
LINE
8
BLACK
6
CONTINUOUS
10
157.24
20
-111.07
11
157.131
21
-111.012
0
LINE
8
BLACK
6
CONTINUOUS
10
157.131
20
-111.012
11
157.131
21
-111.012
0
LINE
8
BLACK
6
CONTINUOUS
10
157.131
20
-111.012
11
157.06
21
-110.954
0
LINE
8
BLACK
6
CONTINUOUS
10
157.06
20
-110.954
11
157.036
21
-110.934
0
LINE
8
BLACK
6
CONTINUOUS
10
157.036
20
-110.934
11
157.016
21
-110.91
0
LINE
8
BLACK
6
CONTINUOUS
10
157.016
20
-110.91
11
149.775
21
-103.669
0
LINE
8
BLACK
6
CONTINUOUS
10
149.775
20
-103.669
11
149.627
21
-103.639
0
LINE
8
BLACK
6
CONTINUOUS
10
149.627
20
-103.639
11
149.481
21
-103.579
0
LINE
8
BLACK
6
CONTINUOUS
10
149.481
20
-103.579
11
149.35
21
-103.491
0
LINE
8
BLACK
6
CONTINUOUS
10
149.35
20
-103.491
11
149.239
21
-103.38
0
LINE
8
BLACK
6
CONTINUOUS
10
149.239
20
-103.38
11
149.151
21
-103.249
0
LINE
8
BLACK
6
CONTINUOUS
10
149.151
20
-103.249
11
149.091
21
-103.103
0
LINE
8
BLACK
6
CONTINUOUS
10
149.091
20
-103.103
11
149.06
21
-102.949
0
LINE
8
BLACK
6
CONTINUOUS
10
149.06
20
-102.949
11
149.06
21
-102.791
0
LINE
8
BLACK
6
CONTINUOUS
10
149.06
20
-102.791
11
149.091
21
-102.637
0
LINE
8
BLACK
6
CONTINUOUS
10
149.091
20
-102.637
11
149.151
21
-102.491
0
LINE
8
BLACK
6
CONTINUOUS
10
149.151
20
-102.491
11
149.239
21
-102.36
0
LINE
8
BLACK
6
CONTINUOUS
10
149.239
20
-102.36
11
149.35
21
-102.249
0
LINE
8
BLACK
6
CONTINUOUS
10
149.35
20
-102.249
11
149.481
21
-102.161
0
LINE
8
BLACK
6
CONTINUOUS
10
149.481
20
-102.161
11
149.627
21
-102.101
0
LINE
8
BLACK
6
CONTINUOUS
10
149.627
20
-102.101
11
149.781
21
-102.07
0
LINE
8
BLACK
6
CONTINUOUS
10
149.781
20
-102.07
11
149.939
21
-102.07
0
LINE
8
BLACK
6
CONTINUOUS
10
149.939
20
-102.07
11
150.093
21
-102.101
0
LINE
8
BLACK
6
CONTINUOUS
10
179.292
20
-109.757
11
179.431
21
-109.815
0
LINE
8
BLACK
6
CONTINUOUS
10
179.431
20
-109.815
11
179.556
21
-109.898
0
LINE
8
BLACK
6
CONTINUOUS
10
179.556
20
-109.898
11
179.662
21
-110.004
0
LINE
8
BLACK
6
CONTINUOUS
10
179.662
20
-110.004
11
179.745
21
-110.129
0
LINE
8
BLACK
6
CONTINUOUS
10
179.745
20
-110.129
11
179.803
21
-110.268
0
LINE
8
BLACK
6
CONTINUOUS
10
179.803
20
-110.268
11
179.832
21
-110.415
0
LINE
8
BLACK
6
CONTINUOUS
10
179.832
20
-110.415
11
179.832
21
-110.565
0
LINE
8
BLACK
6
CONTINUOUS
10
179.832
20
-110.565
11
179.803
21
-110.712
0
LINE
8
BLACK
6
CONTINUOUS
10
179.803
20
-110.712
11
179.745
21
-110.851
0
LINE
8
BLACK
6
CONTINUOUS
10
179.745
20
-110.851
11
179.662
21
-110.976
0
LINE
8
BLACK
6
CONTINUOUS
10
179.662
20
-110.976
11
179.556
21
-111.082
0
LINE
8
BLACK
6
CONTINUOUS
10
179.556
20
-111.082
11
179.431
21
-111.165
0
LINE
8
BLACK
6
CONTINUOUS
10
179.431
20
-111.165
11
179.292
21
-111.223
0
LINE
8
BLACK
6
CONTINUOUS
10
179.292
20
-111.223
11
179.145
21
-111.252
0
LINE
8
BLACK
6
CONTINUOUS
10
179.145
20
-111.252
11
178.995
21
-111.252
0
LINE
8
BLACK
6
CONTINUOUS
10
178.995
20
-111.252
11
178.848
21
-111.223
0
LINE
8
BLACK
6
CONTINUOUS
10
178.848
20
-111.223
11
178.709
21
-111.165
0
LINE
8
BLACK
6
CONTINUOUS
10
178.709
20
-111.165
11
178.584
21
-111.082
0
LINE
8
BLACK
6
CONTINUOUS
10
178.584
20
-111.082
11
178.478
21
-110.976
0
LINE
8
BLACK
6
CONTINUOUS
10
178.478
20
-110.976
11
178.395
21
-110.851
0
LINE
8
BLACK
6
CONTINUOUS
10
178.395
20
-110.851
11
178.337
21
-110.712
0
LINE
8
BLACK
6
CONTINUOUS
10
178.337
20
-110.712
11
178.308
21
-110.565
0
LINE
8
BLACK
6
CONTINUOUS
10
178.308
20
-110.565
11
178.308
21
-110.415
0
LINE
8
BLACK
6
CONTINUOUS
10
178.308
20
-110.415
11
178.337
21
-110.268
0
LINE
8
BLACK
6
CONTINUOUS
10
178.337
20
-110.268
11
178.395
21
-110.129
0
LINE
8
BLACK
6
CONTINUOUS
10
178.395
20
-110.129
11
178.478
21
-110.004
0
LINE
8
BLACK
6
CONTINUOUS
10
178.478
20
-110.004
11
178.584
21
-109.898
0
LINE
8
BLACK
6
CONTINUOUS
10
178.584
20
-109.898
11
178.709
21
-109.815
0
LINE
8
BLACK
6
CONTINUOUS
10
178.709
20
-109.815
11
178.848
21
-109.757
0
LINE
8
BLACK
6
CONTINUOUS
10
178.848
20
-109.757
11
178.995
21
-109.728
0
LINE
8
BLACK
6
CONTINUOUS
10
178.995
20
-109.728
11
179.145
21
-109.728
0
LINE
8
BLACK
6
CONTINUOUS
10
179.145
20
-109.728
11
179.292
21
-109.757
0
LINE
8
BLACK
6
CONTINUOUS
10
173.012
20
-106.988
11
173.194
21
-107.064
0
LINE
8
BLACK
6
CONTINUOUS
10
173.194
20
-107.064
11
173.357
21
-107.173
0
LINE
8
BLACK
6
CONTINUOUS
10
173.357
20
-107.173
11
173.497
21
-107.313
0
LINE
8
BLACK
6
CONTINUOUS
10
173.497
20
-107.313
11
173.505
21
-107.325
0
LINE
8
BLACK
6
CONTINUOUS
10
173.505
20
-107.325
11
176.094
21
-107.325
0
LINE
8
BLACK
6
CONTINUOUS
10
176.094
20
-107.325
11
176.169
21
-107.275
0
LINE
8
BLACK
6
CONTINUOUS
10
176.169
20
-107.275
11
176.308
21
-107.217
0
LINE
8
BLACK
6
CONTINUOUS
10
176.308
20
-107.217
11
176.455
21
-107.188
0
LINE
8
BLACK
6
CONTINUOUS
10
176.455
20
-107.188
11
176.605
21
-107.188
0
LINE
8
BLACK
6
CONTINUOUS
10
176.605
20
-107.188
11
176.752
21
-107.217
0
LINE
8
BLACK
6
CONTINUOUS
10
176.752
20
-107.217
11
176.891
21
-107.275
0
LINE
8
BLACK
6
CONTINUOUS
10
176.891
20
-107.275
11
177.016
21
-107.358
0
LINE
8
BLACK
6
CONTINUOUS
10
177.016
20
-107.358
11
177.122
21
-107.464
0
LINE
8
BLACK
6
CONTINUOUS
10
177.122
20
-107.464
11
177.205
21
-107.589
0
LINE
8
BLACK
6
CONTINUOUS
10
177.205
20
-107.589
11
177.263
21
-107.728
0
LINE
8
BLACK
6
CONTINUOUS
10
177.263
20
-107.728
11
177.292
21
-107.875
0
LINE
8
BLACK
6
CONTINUOUS
10
177.292
20
-107.875
11
177.292
21
-108.025
0
LINE
8
BLACK
6
CONTINUOUS
10
177.292
20
-108.025
11
177.263
21
-108.172
0
LINE
8
BLACK
6
CONTINUOUS
10
177.263
20
-108.172
11
177.205
21
-108.311
0
LINE
8
BLACK
6
CONTINUOUS
10
177.205
20
-108.311
11
177.122
21
-108.436
0
LINE
8
BLACK
6
CONTINUOUS
10
177.122
20
-108.436
11
177.016
21
-108.542
0
LINE
8
BLACK
6
CONTINUOUS
10
177.016
20
-108.542
11
176.891
21
-108.625
0
LINE
8
BLACK
6
CONTINUOUS
10
176.891
20
-108.625
11
176.752
21
-108.683
0
LINE
8
BLACK
6
CONTINUOUS
10
176.752
20
-108.683
11
176.605
21
-108.712
0
LINE
8
BLACK
6
CONTINUOUS
10
176.605
20
-108.712
11
176.455
21
-108.712
0
LINE
8
BLACK
6
CONTINUOUS
10
176.455
20
-108.712
11
176.308
21
-108.683
0
LINE
8
BLACK
6
CONTINUOUS
10
176.308
20
-108.683
11
176.169
21
-108.625
0
LINE
8
BLACK
6
CONTINUOUS
10
176.169
20
-108.625
11
176.094
21
-108.575
0
LINE
8
BLACK
6
CONTINUOUS
10
176.094
20
-108.575
11
173.505
21
-108.575
0
LINE
8
BLACK
6
CONTINUOUS
10
173.505
20
-108.575
11
173.497
21
-108.587
0
LINE
8
BLACK
6
CONTINUOUS
10
173.497
20
-108.587
11
173.357
21
-108.727
0
LINE
8
BLACK
6
CONTINUOUS
10
173.357
20
-108.727
11
173.194
21
-108.836
0
LINE
8
BLACK
6
CONTINUOUS
10
173.194
20
-108.836
11
173.012
21
-108.912
0
LINE
8
BLACK
6
CONTINUOUS
10
173.012
20
-108.912
11
172.818
21
-108.95
0
LINE
8
BLACK
6
CONTINUOUS
10
172.818
20
-108.95
11
172.622
21
-108.95
0
LINE
8
BLACK
6
CONTINUOUS
10
172.622
20
-108.95
11
172.428
21
-108.912
0
LINE
8
BLACK
6
CONTINUOUS
10
172.428
20
-108.912
11
172.246
21
-108.836
0
LINE
8
BLACK
6
CONTINUOUS
10
172.246
20
-108.836
11
172.083
21
-108.727
0
LINE
8
BLACK
6
CONTINUOUS
10
172.083
20
-108.727
11
171.943
21
-108.587
0
LINE
8
BLACK
6
CONTINUOUS
10
171.943
20
-108.587
11
171.834
21
-108.424
0
LINE
8
BLACK
6
CONTINUOUS
10
171.834
20
-108.424
11
171.758
21
-108.242
0
LINE
8
BLACK
6
CONTINUOUS
10
171.758
20
-108.242
11
171.72
21
-108.048
0
LINE
8
BLACK
6
CONTINUOUS
10
171.72
20
-108.048
11
171.72
21
-107.852
0
LINE
8
BLACK
6
CONTINUOUS
10
171.72
20
-107.852
11
171.758
21
-107.658
0
LINE
8
BLACK
6
CONTINUOUS
10
171.758
20
-107.658
11
171.834
21
-107.476
0
LINE
8
BLACK
6
CONTINUOUS
10
171.834
20
-107.476
11
171.943
21
-107.313
0
LINE
8
BLACK
6
CONTINUOUS
10
171.943
20
-107.313
11
172.083
21
-107.173
0
LINE
8
BLACK
6
CONTINUOUS
10
172.083
20
-107.173
11
172.246
21
-107.064
0
LINE
8
BLACK
6
CONTINUOUS
10
172.246
20
-107.064
11
172.428
21
-106.988
0
LINE
8
BLACK
6
CONTINUOUS
10
172.428
20
-106.988
11
172.622
21
-106.95
0
LINE
8
BLACK
6
CONTINUOUS
10
172.622
20
-106.95
11
172.818
21
-106.95
0
LINE
8
BLACK
6
CONTINUOUS
10
172.818
20
-106.95
11
173.012
21
-106.988
0
LINE
8
BLACK
6
CONTINUOUS
10
150.093
20
-94.4807
11
150.239
21
-94.541
0
LINE
8
BLACK
6
CONTINUOUS
10
150.239
20
-94.541
11
150.37
21
-94.6286
0
LINE
8
BLACK
6
CONTINUOUS
10
150.37
20
-94.6286
11
150.481
21
-94.74
0
LINE
8
BLACK
6
CONTINUOUS
10
150.481
20
-94.74
11
150.569
21
-94.8711
0
LINE
8
BLACK
6
CONTINUOUS
10
150.569
20
-94.8711
11
150.629
21
-95.0166
0
LINE
8
BLACK
6
CONTINUOUS
10
150.629
20
-95.0166
11
150.659
21
-95.1649
0
LINE
8
BLACK
6
CONTINUOUS
10
150.659
20
-95.1649
11
151.124
21
-95.6298
0
LINE
8
BLACK
6
CONTINUOUS
10
151.124
20
-95.6298
11
151.124
21
-95.6298
0
LINE
8
BLACK
6
CONTINUOUS
10
151.124
20
-95.6298
11
160.944
21
-105.45
0
LINE
8
BLACK
6
CONTINUOUS
10
160.944
20
-105.45
11
173.175
21
-105.45
0
LINE
8
BLACK
6
CONTINUOUS
10
173.175
20
-105.45
11
173.636
21
-104.99
0
LINE
8
BLACK
6
CONTINUOUS
10
173.636
20
-104.99
11
173.655
21
-104.966
0
LINE
8
BLACK
6
CONTINUOUS
10
173.655
20
-104.966
11
173.679
21
-104.946
0
LINE
8
BLACK
6
CONTINUOUS
10
173.679
20
-104.946
11
173.679
21
-104.946
0
LINE
8
BLACK
6
CONTINUOUS
10
173.679
20
-104.946
11
173.75
21
-104.888
0
LINE
8
BLACK
6
CONTINUOUS
10
173.75
20
-104.888
11
173.808
21
-104.857
0
LINE
8
BLACK
6
CONTINUOUS
10
173.808
20
-104.857
11
173.859
21
-104.83
0
LINE
8
BLACK
6
CONTINUOUS
10
173.859
20
-104.83
11
173.977
21
-104.794
0
LINE
8
BLACK
6
CONTINUOUS
10
173.977
20
-104.794
11
174.069
21
-104.785
0
LINE
8
BLACK
6
CONTINUOUS
10
174.069
20
-104.785
11
174.069
21
-104.785
0
LINE
8
BLACK
6
CONTINUOUS
10
174.069
20
-104.785
11
174.099
21
-104.782
0
LINE
8
BLACK
6
CONTINUOUS
10
174.099
20
-104.782
11
174.13
21
-104.785
0
LINE
8
BLACK
6
CONTINUOUS
10
174.13
20
-104.785
11
176.094
21
-104.785
0
LINE
8
BLACK
6
CONTINUOUS
10
176.094
20
-104.785
11
176.169
21
-104.735
0
LINE
8
BLACK
6
CONTINUOUS
10
176.169
20
-104.735
11
176.308
21
-104.677
0
LINE
8
BLACK
6
CONTINUOUS
10
176.308
20
-104.677
11
176.455
21
-104.648
0
LINE
8
BLACK
6
CONTINUOUS
10
176.455
20
-104.648
11
176.605
21
-104.648
0
LINE
8
BLACK
6
CONTINUOUS
10
176.605
20
-104.648
11
176.752
21
-104.677
0
LINE
8
BLACK
6
CONTINUOUS
10
176.752
20
-104.677
11
176.891
21
-104.735
0
LINE
8
BLACK
6
CONTINUOUS
10
176.891
20
-104.735
11
177.016
21
-104.818
0
LINE
8
BLACK
6
CONTINUOUS
10
177.016
20
-104.818
11
177.122
21
-104.924
0
LINE
8
BLACK
6
CONTINUOUS
10
177.122
20
-104.924
11
177.205
21
-105.049
0
LINE
8
BLACK
6
CONTINUOUS
10
177.205
20
-105.049
11
177.263
21
-105.188
0
LINE
8
BLACK
6
CONTINUOUS
10
177.263
20
-105.188
11
177.292
21
-105.335
0
LINE
8
BLACK
6
CONTINUOUS
10
177.292
20
-105.335
11
177.292
21
-105.485
0
LINE
8
BLACK
6
CONTINUOUS
10
177.292
20
-105.485
11
177.263
21
-105.632
0
LINE
8
BLACK
6
CONTINUOUS
10
177.263
20
-105.632
11
177.205
21
-105.771
0
LINE
8
BLACK
6
CONTINUOUS
10
177.205
20
-105.771
11
177.122
21
-105.896
0
LINE
8
BLACK
6
CONTINUOUS
10
177.122
20
-105.896
11
177.016
21
-106.002
0
LINE
8
BLACK
6
CONTINUOUS
10
177.016
20
-106.002
11
176.891
21
-106.085
0
LINE
8
BLACK
6
CONTINUOUS
10
176.891
20
-106.085
11
176.752
21
-106.143
0
LINE
8
BLACK
6
CONTINUOUS
10
176.752
20
-106.143
11
176.605
21
-106.172
0
LINE
8
BLACK
6
CONTINUOUS
10
176.605
20
-106.172
11
176.455
21
-106.172
0
LINE
8
BLACK
6
CONTINUOUS
10
176.455
20
-106.172
11
176.308
21
-106.143
0
LINE
8
BLACK
6
CONTINUOUS
10
176.308
20
-106.143
11
176.169
21
-106.085
0
LINE
8
BLACK
6
CONTINUOUS
10
176.169
20
-106.085
11
176.094
21
-106.035
0
LINE
8
BLACK
6
CONTINUOUS
10
176.094
20
-106.035
11
174.358
21
-106.035
0
LINE
8
BLACK
6
CONTINUOUS
10
174.358
20
-106.035
11
173.898
21
-106.495
0
LINE
8
BLACK
6
CONTINUOUS
10
173.898
20
-106.495
11
173.878
21
-106.519
0
LINE
8
BLACK
6
CONTINUOUS
10
173.878
20
-106.519
11
173.783
21
-106.597
0
LINE
8
BLACK
6
CONTINUOUS
10
173.783
20
-106.597
11
173.675
21
-106.655
0
LINE
8
BLACK
6
CONTINUOUS
10
173.675
20
-106.655
11
173.557
21
-106.691
0
LINE
8
BLACK
6
CONTINUOUS
10
173.557
20
-106.691
11
173.465
21
-106.7
0
LINE
8
BLACK
6
CONTINUOUS
10
173.465
20
-106.7
11
173.465
21
-106.7
0
LINE
8
BLACK
6
CONTINUOUS
10
173.465
20
-106.7
11
173.434
21
-106.703
0
LINE
8
BLACK
6
CONTINUOUS
10
173.434
20
-106.703
11
173.404
21
-106.7
0
LINE
8
BLACK
6
CONTINUOUS
10
173.404
20
-106.7
11
160.716
21
-106.7
0
LINE
8
BLACK
6
CONTINUOUS
10
160.716
20
-106.7
11
160.685
21
-106.703
0
LINE
8
BLACK
6
CONTINUOUS
10
160.685
20
-106.703
11
160.654
21
-106.7
0
LINE
8
BLACK
6
CONTINUOUS
10
160.654
20
-106.7
11
160.654
21
-106.7
0
LINE
8
BLACK
6
CONTINUOUS
10
160.654
20
-106.7
11
160.562
21
-106.691
0
LINE
8
BLACK
6
CONTINUOUS
10
160.562
20
-106.691
11
160.445
21
-106.655
0
LINE
8
BLACK
6
CONTINUOUS
10
160.445
20
-106.655
11
160.336
21
-106.597
0
LINE
8
BLACK
6
CONTINUOUS
10
160.336
20
-106.597
11
160.241
21
-106.519
0
LINE
8
BLACK
6
CONTINUOUS
10
160.241
20
-106.519
11
160.221
21
-106.495
0
LINE
8
BLACK
6
CONTINUOUS
10
160.221
20
-106.495
11
150.24
21
-96.5137
0
LINE
8
BLACK
6
CONTINUOUS
10
150.24
20
-96.5137
11
150.24
21
-96.5137
0
LINE
8
BLACK
6
CONTINUOUS
10
150.24
20
-96.5137
11
149.775
21
-96.0487
0
LINE
8
BLACK
6
CONTINUOUS
10
149.775
20
-96.0487
11
149.627
21
-96.0193
0
LINE
8
BLACK
6
CONTINUOUS
10
149.627
20
-96.0193
11
149.481
21
-95.959
0
LINE
8
BLACK
6
CONTINUOUS
10
149.481
20
-95.959
11
149.35
21
-95.8714
0
LINE
8
BLACK
6
CONTINUOUS
10
149.35
20
-95.8714
11
149.239
21
-95.76
0
LINE
8
BLACK
6
CONTINUOUS
10
149.239
20
-95.76
11
149.151
21
-95.6289
0
LINE
8
BLACK
6
CONTINUOUS
10
149.151
20
-95.6289
11
149.091
21
-95.4834
0
LINE
8
BLACK
6
CONTINUOUS
10
149.091
20
-95.4834
11
149.06
21
-95.3288
0
LINE
8
BLACK
6
CONTINUOUS
10
149.06
20
-95.3288
11
149.06
21
-95.1712
0
LINE
8
BLACK
6
CONTINUOUS
10
149.06
20
-95.1712
11
149.091
21
-95.0166
0
LINE
8
BLACK
6
CONTINUOUS
10
149.091
20
-95.0166
11
149.151
21
-94.8711
0
LINE
8
BLACK
6
CONTINUOUS
10
149.151
20
-94.8711
11
149.239
21
-94.74
0
LINE
8
BLACK
6
CONTINUOUS
10
149.239
20
-94.74
11
149.35
21
-94.6286
0
LINE
8
BLACK
6
CONTINUOUS
10
149.35
20
-94.6286
11
149.481
21
-94.541
0
LINE
8
BLACK
6
CONTINUOUS
10
149.481
20
-94.541
11
149.627
21
-94.4807
0
LINE
8
BLACK
6
CONTINUOUS
10
149.627
20
-94.4807
11
149.781
21
-94.45
0
LINE
8
BLACK
6
CONTINUOUS
10
149.781
20
-94.45
11
149.939
21
-94.45
0
LINE
8
BLACK
6
CONTINUOUS
10
149.939
20
-94.45
11
150.093
21
-94.4807
0
LINE
8
BLACK
6
CONTINUOUS
10
192.169
20
-60.69
11
192.169
21
-60.69
0
LINE
8
BLACK
6
CONTINUOUS
10
192.169
20
-60.69
11
192.261
21
-60.699
0
LINE
8
BLACK
6
CONTINUOUS
10
192.261
20
-60.699
11
192.378
21
-60.7348
0
LINE
8
BLACK
6
CONTINUOUS
10
192.378
20
-60.7348
11
192.487
21
-60.7928
0
LINE
8
BLACK
6
CONTINUOUS
10
192.487
20
-60.7928
11
192.582
21
-60.8709
0
LINE
8
BLACK
6
CONTINUOUS
10
192.582
20
-60.8709
11
192.602
21
-60.8948
0
LINE
8
BLACK
6
CONTINUOUS
10
192.602
20
-60.8948
11
197.875
21
-66.1684
0
LINE
8
BLACK
6
CONTINUOUS
10
197.875
20
-66.1684
11
197.899
21
-66.1879
0
LINE
8
BLACK
6
CONTINUOUS
10
197.899
20
-66.1879
11
197.919
21
-66.2118
0
LINE
8
BLACK
6
CONTINUOUS
10
197.919
20
-66.2118
11
197.919
21
-66.2118
0
LINE
8
BLACK
6
CONTINUOUS
10
197.919
20
-66.2118
11
197.977
21
-66.2831
0
LINE
8
BLACK
6
CONTINUOUS
10
197.977
20
-66.2831
11
197.977
21
-66.2831
0
LINE
8
BLACK
6
CONTINUOUS
10
197.977
20
-66.2831
11
198.035
21
-66.3917
0
LINE
8
BLACK
6
CONTINUOUS
10
198.035
20
-66.3917
11
198.071
21
-66.5095
0
LINE
8
BLACK
6
CONTINUOUS
10
198.071
20
-66.5095
11
198.078
21
-66.5818
0
LINE
8
BLACK
6
CONTINUOUS
10
198.078
20
-66.5818
11
198.083
21
-66.632
0
LINE
8
BLACK
6
CONTINUOUS
10
198.083
20
-66.632
11
198.08
21
-66.6627
0
LINE
8
BLACK
6
CONTINUOUS
10
198.08
20
-66.6627
11
198.08
21
-84.5463
0
LINE
8
BLACK
6
CONTINUOUS
10
198.08
20
-84.5463
11
198.083
21
-84.577
0
LINE
8
BLACK
6
CONTINUOUS
10
198.083
20
-84.577
11
198.08
21
-84.6077
0
LINE
8
BLACK
6
CONTINUOUS
10
198.08
20
-84.6077
11
198.08
21
-84.6077
0
LINE
8
BLACK
6
CONTINUOUS
10
198.08
20
-84.6077
11
198.071
21
-84.6995
0
LINE
8
BLACK
6
CONTINUOUS
10
198.071
20
-84.6995
11
198.035
21
-84.8173
0
LINE
8
BLACK
6
CONTINUOUS
10
198.035
20
-84.8173
11
198.035
21
-84.8173
0
LINE
8
BLACK
6
CONTINUOUS
10
198.035
20
-84.8173
11
197.977
21
-84.9259
0
LINE
8
BLACK
6
CONTINUOUS
10
197.977
20
-84.9259
11
197.943
21
-84.9675
0
LINE
8
BLACK
6
CONTINUOUS
10
197.943
20
-84.9675
11
197.899
21
-85.0211
0
LINE
8
BLACK
6
CONTINUOUS
10
197.899
20
-85.0211
11
197.875
21
-85.0406
0
LINE
8
BLACK
6
CONTINUOUS
10
197.875
20
-85.0406
11
196.58
21
-86.3359
0
LINE
8
BLACK
6
CONTINUOUS
10
196.58
20
-86.3359
11
196.58
21
-87.3125
0
LINE
8
BLACK
6
CONTINUOUS
10
196.58
20
-87.3125
11
194.58
21
-87.3125
0
LINE
8
BLACK
6
CONTINUOUS
10
194.58
20
-87.3125
11
194.58
21
-85.4075
0
LINE
8
BLACK
6
CONTINUOUS
10
194.58
20
-85.4075
11
195.741
21
-85.4075
0
LINE
8
BLACK
6
CONTINUOUS
10
195.741
20
-85.4075
11
196.83
21
-84.3181
0
LINE
8
BLACK
6
CONTINUOUS
10
196.83
20
-84.3181
11
196.83
21
-66.8909
0
LINE
8
BLACK
6
CONTINUOUS
10
196.83
20
-66.8909
11
191.879
21
-61.94
0
LINE
8
BLACK
6
CONTINUOUS
10
191.879
20
-61.94
11
152.939
21
-61.94
0
LINE
8
BLACK
6
CONTINUOUS
10
152.939
20
-61.94
11
148.81
21
-66.0689
0
LINE
8
BLACK
6
CONTINUOUS
10
148.81
20
-66.0689
11
148.81
21
-72.9961
0
LINE
8
BLACK
6
CONTINUOUS
10
148.81
20
-72.9961
11
149.945
21
-74.1313
0
LINE
8
BLACK
6
CONTINUOUS
10
149.945
20
-74.1313
11
150.093
21
-74.1607
0
LINE
8
BLACK
6
CONTINUOUS
10
150.093
20
-74.1607
11
150.239
21
-74.221
0
LINE
8
BLACK
6
CONTINUOUS
10
150.239
20
-74.221
11
150.37
21
-74.3086
0
LINE
8
BLACK
6
CONTINUOUS
10
150.37
20
-74.3086
11
150.481
21
-74.42
0
LINE
8
BLACK
6
CONTINUOUS
10
150.481
20
-74.42
11
150.569
21
-74.5511
0
LINE
8
BLACK
6
CONTINUOUS
10
150.569
20
-74.5511
11
150.629
21
-74.6966
0
LINE
8
BLACK
6
CONTINUOUS
10
150.629
20
-74.6966
11
150.659
21
-74.8449
0
LINE
8
BLACK
6
CONTINUOUS
10
150.659
20
-74.8449
11
157.9
21
-82.0863
0
LINE
8
BLACK
6
CONTINUOUS
10
157.9
20
-82.0863
11
157.924
21
-82.1059
0
LINE
8
BLACK
6
CONTINUOUS
10
157.924
20
-82.1059
11
157.963
21
-82.1537
0
LINE
8
BLACK
6
CONTINUOUS
10
157.963
20
-82.1537
11
158.002
21
-82.2011
0
LINE
8
BLACK
6
CONTINUOUS
10
158.002
20
-82.2011
11
158.002
21
-82.2011
0
LINE
8
BLACK
6
CONTINUOUS
10
158.002
20
-82.2011
11
158.06
21
-82.3097
0
LINE
8
BLACK
6
CONTINUOUS
10
158.06
20
-82.3097
11
158.096
21
-82.4275
0
LINE
8
BLACK
6
CONTINUOUS
10
158.096
20
-82.4275
11
158.105
21
-82.5193
0
LINE
8
BLACK
6
CONTINUOUS
10
158.105
20
-82.5193
11
158.105
21
-82.5193
0
LINE
8
BLACK
6
CONTINUOUS
10
158.105
20
-82.5193
11
158.108
21
-82.55
0
LINE
8
BLACK
6
CONTINUOUS
10
158.108
20
-82.55
11
158.105
21
-82.5807
0
LINE
8
BLACK
6
CONTINUOUS
10
158.105
20
-82.5807
11
158.105
21
-97.4701
0
LINE
8
BLACK
6
CONTINUOUS
10
158.105
20
-97.4701
11
164.585
21
-103.95
0
LINE
8
BLACK
6
CONTINUOUS
10
164.585
20
-103.95
11
172.554
21
-103.95
0
LINE
8
BLACK
6
CONTINUOUS
10
172.554
20
-103.95
11
174.054
21
-102.45
0
LINE
8
BLACK
6
CONTINUOUS
10
174.054
20
-102.45
11
174.074
21
-102.426
0
LINE
8
BLACK
6
CONTINUOUS
10
174.074
20
-102.426
11
174.098
21
-102.406
0
LINE
8
BLACK
6
CONTINUOUS
10
174.098
20
-102.406
11
174.098
21
-102.406
0
LINE
8
BLACK
6
CONTINUOUS
10
174.098
20
-102.406
11
174.169
21
-102.348
0
LINE
8
BLACK
6
CONTINUOUS
10
174.169
20
-102.348
11
174.231
21
-102.315
0
LINE
8
BLACK
6
CONTINUOUS
10
174.231
20
-102.315
11
174.278
21
-102.29
0
LINE
8
BLACK
6
CONTINUOUS
10
174.278
20
-102.29
11
174.395
21
-102.254
0
LINE
8
BLACK
6
CONTINUOUS
10
174.395
20
-102.254
11
174.487
21
-102.245
0
LINE
8
BLACK
6
CONTINUOUS
10
174.487
20
-102.245
11
174.487
21
-102.245
0
LINE
8
BLACK
6
CONTINUOUS
10
174.487
20
-102.245
11
174.518
21
-102.242
0
LINE
8
BLACK
6
CONTINUOUS
10
174.518
20
-102.242
11
174.549
21
-102.245
0
LINE
8
BLACK
6
CONTINUOUS
10
174.549
20
-102.245
11
175.768
21
-102.245
0
LINE
8
BLACK
6
CONTINUOUS
10
175.768
20
-102.245
11
175.768
21
-102.108
0
LINE
8
BLACK
6
CONTINUOUS
10
175.768
20
-102.108
11
177.292
21
-102.108
0
LINE
8
BLACK
6
CONTINUOUS
10
177.292
20
-102.108
11
177.292
21
-103.632
0
LINE
8
BLACK
6
CONTINUOUS
10
177.292
20
-103.632
11
175.768
21
-103.632
0
LINE
8
BLACK
6
CONTINUOUS
10
175.768
20
-103.632
11
175.768
21
-103.495
0
LINE
8
BLACK
6
CONTINUOUS
10
175.768
20
-103.495
11
174.777
21
-103.495
0
LINE
8
BLACK
6
CONTINUOUS
10
174.777
20
-103.495
11
173.277
21
-104.995
0
LINE
8
BLACK
6
CONTINUOUS
10
173.277
20
-104.995
11
173.257
21
-105.019
0
LINE
8
BLACK
6
CONTINUOUS
10
173.257
20
-105.019
11
173.162
21
-105.097
0
LINE
8
BLACK
6
CONTINUOUS
10
173.162
20
-105.097
11
173.053
21
-105.155
0
LINE
8
BLACK
6
CONTINUOUS
10
173.053
20
-105.155
11
172.936
21
-105.191
0
LINE
8
BLACK
6
CONTINUOUS
10
172.936
20
-105.191
11
172.844
21
-105.2
0
LINE
8
BLACK
6
CONTINUOUS
10
172.844
20
-105.2
11
172.844
21
-105.2
0
LINE
8
BLACK
6
CONTINUOUS
10
172.844
20
-105.2
11
172.813
21
-105.203
0
LINE
8
BLACK
6
CONTINUOUS
10
172.813
20
-105.203
11
172.782
21
-105.2
0
LINE
8
BLACK
6
CONTINUOUS
10
172.782
20
-105.2
11
164.357
21
-105.2
0
LINE
8
BLACK
6
CONTINUOUS
10
164.357
20
-105.2
11
164.326
21
-105.203
0
LINE
8
BLACK
6
CONTINUOUS
10
164.326
20
-105.203
11
164.295
21
-105.2
0
LINE
8
BLACK
6
CONTINUOUS
10
164.295
20
-105.2
11
164.295
21
-105.2
0
LINE
8
BLACK
6
CONTINUOUS
10
164.295
20
-105.2
11
164.203
21
-105.191
0
LINE
8
BLACK
6
CONTINUOUS
10
164.203
20
-105.191
11
164.086
21
-105.155
0
LINE
8
BLACK
6
CONTINUOUS
10
164.086
20
-105.155
11
164.035
21
-105.128
0
LINE
8
BLACK
6
CONTINUOUS
10
164.035
20
-105.128
11
163.977
21
-105.097
0
LINE
8
BLACK
6
CONTINUOUS
10
163.977
20
-105.097
11
163.906
21
-105.039
0
LINE
8
BLACK
6
CONTINUOUS
10
163.906
20
-105.039
11
163.882
21
-105.019
0
LINE
8
BLACK
6
CONTINUOUS
10
163.882
20
-105.019
11
163.862
21
-104.995
0
LINE
8
BLACK
6
CONTINUOUS
10
163.862
20
-104.995
11
157.06
21
-98.1927
0
LINE
8
BLACK
6
CONTINUOUS
10
157.06
20
-98.1927
11
157.036
21
-98.1731
0
LINE
8
BLACK
6
CONTINUOUS
10
157.036
20
-98.1731
11
156.958
21
-98.0779
0
LINE
8
BLACK
6
CONTINUOUS
10
156.958
20
-98.0779
11
156.9
21
-97.9693
0
LINE
8
BLACK
6
CONTINUOUS
10
156.9
20
-97.9693
11
156.864
21
-97.8515
0
LINE
8
BLACK
6
CONTINUOUS
10
156.864
20
-97.8515
11
156.855
21
-97.7597
0
LINE
8
BLACK
6
CONTINUOUS
10
156.855
20
-97.7597
11
156.852
21
-97.729
0
LINE
8
BLACK
6
CONTINUOUS
10
156.852
20
-97.729
11
156.855
21
-97.6983
0
LINE
8
BLACK
6
CONTINUOUS
10
156.855
20
-97.6983
11
156.855
21
-82.8089
0
LINE
8
BLACK
6
CONTINUOUS
10
156.855
20
-82.8089
11
149.775
21
-75.7287
0
LINE
8
BLACK
6
CONTINUOUS
10
149.775
20
-75.7287
11
149.627
21
-75.6993
0
LINE
8
BLACK
6
CONTINUOUS
10
149.627
20
-75.6993
11
149.481
21
-75.639
0
LINE
8
BLACK
6
CONTINUOUS
10
149.481
20
-75.639
11
149.35
21
-75.5514
0
LINE
8
BLACK
6
CONTINUOUS
10
149.35
20
-75.5514
11
149.239
21
-75.44
0
LINE
8
BLACK
6
CONTINUOUS
10
149.239
20
-75.44
11
149.151
21
-75.3089
0
LINE
8
BLACK
6
CONTINUOUS
10
149.151
20
-75.3089
11
149.091
21
-75.1634
0
LINE
8
BLACK
6
CONTINUOUS
10
149.091
20
-75.1634
11
149.061
21
-75.0151
0
LINE
8
BLACK
6
CONTINUOUS
10
149.061
20
-75.0151
11
147.765
21
-73.7187
0
LINE
8
BLACK
6
CONTINUOUS
10
147.765
20
-73.7187
11
147.741
21
-73.6991
0
LINE
8
BLACK
6
CONTINUOUS
10
147.741
20
-73.6991
11
147.663
21
-73.6039
0
LINE
8
BLACK
6
CONTINUOUS
10
147.663
20
-73.6039
11
147.605
21
-73.4953
0
LINE
8
BLACK
6
CONTINUOUS
10
147.605
20
-73.4953
11
147.569
21
-73.3775
0
LINE
8
BLACK
6
CONTINUOUS
10
147.569
20
-73.3775
11
147.56
21
-73.2857
0
LINE
8
BLACK
6
CONTINUOUS
10
147.56
20
-73.2857
11
147.56
21
-73.2857
0
LINE
8
BLACK
6
CONTINUOUS
10
147.56
20
-73.2857
11
147.557
21
-73.255
0
LINE
8
BLACK
6
CONTINUOUS
10
147.557
20
-73.255
11
147.56
21
-73.2243
0
LINE
8
BLACK
6
CONTINUOUS
10
147.56
20
-73.2243
11
147.56
21
-65.8407
0
LINE
8
BLACK
6
CONTINUOUS
10
147.56
20
-65.8407
11
147.557
21
-65.81
0
LINE
8
BLACK
6
CONTINUOUS
10
147.557
20
-65.81
11
147.569
21
-65.6875
0
LINE
8
BLACK
6
CONTINUOUS
10
147.569
20
-65.6875
11
147.605
21
-65.5697
0
LINE
8
BLACK
6
CONTINUOUS
10
147.605
20
-65.5697
11
147.663
21
-65.4611
0
LINE
8
BLACK
6
CONTINUOUS
10
147.663
20
-65.4611
11
147.68
21
-65.4406
0
LINE
8
BLACK
6
CONTINUOUS
10
147.68
20
-65.4406
11
147.741
21
-65.3659
0
LINE
8
BLACK
6
CONTINUOUS
10
147.741
20
-65.3659
11
147.765
21
-65.3463
0
LINE
8
BLACK
6
CONTINUOUS
10
147.765
20
-65.3463
11
152.216
21
-60.8947
0
LINE
8
BLACK
6
CONTINUOUS
10
152.216
20
-60.8947
11
152.236
21
-60.8709
0
LINE
8
BLACK
6
CONTINUOUS
10
152.236
20
-60.8709
11
152.284
21
-60.8317
0
LINE
8
BLACK
6
CONTINUOUS
10
152.284
20
-60.8317
11
152.331
21
-60.7928
0
LINE
8
BLACK
6
CONTINUOUS
10
152.331
20
-60.7928
11
152.44
21
-60.7348
0
LINE
8
BLACK
6
CONTINUOUS
10
152.44
20
-60.7348
11
152.44
21
-60.7348
0
LINE
8
BLACK
6
CONTINUOUS
10
152.44
20
-60.7348
11
152.557
21
-60.699
0
LINE
8
BLACK
6
CONTINUOUS
10
152.557
20
-60.699
11
152.649
21
-60.69
0
LINE
8
BLACK
6
CONTINUOUS
10
152.649
20
-60.69
11
152.649
21
-60.69
0
LINE
8
BLACK
6
CONTINUOUS
10
152.649
20
-60.69
11
152.68
21
-60.687
0
LINE
8
BLACK
6
CONTINUOUS
10
152.68
20
-60.687
11
152.711
21
-60.69
0
LINE
8
BLACK
6
CONTINUOUS
10
152.711
20
-60.69
11
192.107
21
-60.69
0
LINE
8
BLACK
6
CONTINUOUS
10
192.107
20
-60.69
11
192.138
21
-60.687
0
LINE
8
BLACK
6
CONTINUOUS
10
192.138
20
-60.687
11
192.169
21
-60.69
0
LINE
8
BLACK
6
CONTINUOUS
10
173.012
20
-98.0984
11
173.194
21
-98.1738
0
LINE
8
BLACK
6
CONTINUOUS
10
173.194
20
-98.1738
11
173.357
21
-98.2832
0
LINE
8
BLACK
6
CONTINUOUS
10
173.357
20
-98.2832
11
173.497
21
-98.4225
0
LINE
8
BLACK
6
CONTINUOUS
10
173.497
20
-98.4225
11
173.606
21
-98.5863
0
LINE
8
BLACK
6
CONTINUOUS
10
173.606
20
-98.5863
11
173.682
21
-98.7683
0
LINE
8
BLACK
6
CONTINUOUS
10
173.682
20
-98.7683
11
173.72
21
-98.9615
0
LINE
8
BLACK
6
CONTINUOUS
10
173.72
20
-98.9615
11
173.72
21
-99.1585
0
LINE
8
BLACK
6
CONTINUOUS
10
173.72
20
-99.1585
11
173.682
21
-99.3517
0
LINE
8
BLACK
6
CONTINUOUS
10
173.682
20
-99.3517
11
173.606
21
-99.5337
0
LINE
8
BLACK
6
CONTINUOUS
10
173.606
20
-99.5337
11
173.497
21
-99.6975
0
LINE
8
BLACK
6
CONTINUOUS
10
173.497
20
-99.6975
11
173.357
21
-99.8368
0
LINE
8
BLACK
6
CONTINUOUS
10
173.357
20
-99.8368
11
173.194
21
-99.9462
0
LINE
8
BLACK
6
CONTINUOUS
10
173.194
20
-99.9462
11
173.012
21
-100.022
0
LINE
8
BLACK
6
CONTINUOUS
10
173.012
20
-100.022
11
172.818
21
-100.06
0
LINE
8
BLACK
6
CONTINUOUS
10
172.818
20
-100.06
11
172.622
21
-100.06
0
LINE
8
BLACK
6
CONTINUOUS
10
172.622
20
-100.06
11
172.607
21
-100.057
0
LINE
8
BLACK
6
CONTINUOUS
10
172.607
20
-100.057
11
169.374
21
-103.29
0
LINE
8
BLACK
6
CONTINUOUS
10
169.374
20
-103.29
11
169.354
21
-103.314
0
LINE
8
BLACK
6
CONTINUOUS
10
169.354
20
-103.314
11
169.259
21
-103.392
0
LINE
8
BLACK
6
CONTINUOUS
10
169.259
20
-103.392
11
169.15
21
-103.45
0
LINE
8
BLACK
6
CONTINUOUS
10
169.15
20
-103.45
11
169.033
21
-103.486
0
LINE
8
BLACK
6
CONTINUOUS
10
169.033
20
-103.486
11
168.941
21
-103.495
0
LINE
8
BLACK
6
CONTINUOUS
10
168.941
20
-103.495
11
168.941
21
-103.495
0
LINE
8
BLACK
6
CONTINUOUS
10
168.941
20
-103.495
11
168.91
21
-103.498
0
LINE
8
BLACK
6
CONTINUOUS
10
168.91
20
-103.498
11
168.879
21
-103.495
0
LINE
8
BLACK
6
CONTINUOUS
10
168.879
20
-103.495
11
165.605
21
-103.495
0
LINE
8
BLACK
6
CONTINUOUS
10
165.605
20
-103.495
11
165.479
21
-103.579
0
LINE
8
BLACK
6
CONTINUOUS
10
165.479
20
-103.579
11
165.333
21
-103.639
0
LINE
8
BLACK
6
CONTINUOUS
10
165.333
20
-103.639
11
165.179
21
-103.67
0
LINE
8
BLACK
6
CONTINUOUS
10
165.179
20
-103.67
11
165.021
21
-103.67
0
LINE
8
BLACK
6
CONTINUOUS
10
165.021
20
-103.67
11
164.867
21
-103.639
0
LINE
8
BLACK
6
CONTINUOUS
10
164.867
20
-103.639
11
164.721
21
-103.579
0
LINE
8
BLACK
6
CONTINUOUS
10
164.721
20
-103.579
11
164.59
21
-103.491
0
LINE
8
BLACK
6
CONTINUOUS
10
164.59
20
-103.491
11
164.479
21
-103.38
0
LINE
8
BLACK
6
CONTINUOUS
10
164.479
20
-103.38
11
164.391
21
-103.249
0
LINE
8
BLACK
6
CONTINUOUS
10
164.391
20
-103.249
11
164.331
21
-103.103
0
LINE
8
BLACK
6
CONTINUOUS
10
164.331
20
-103.103
11
164.3
21
-102.949
0
LINE
8
BLACK
6
CONTINUOUS
10
164.3
20
-102.949
11
164.3
21
-102.791
0
LINE
8
BLACK
6
CONTINUOUS
10
164.3
20
-102.791
11
164.331
21
-102.637
0
LINE
8
BLACK
6
CONTINUOUS
10
164.331
20
-102.637
11
164.391
21
-102.491
0
LINE
8
BLACK
6
CONTINUOUS
10
164.391
20
-102.491
11
164.479
21
-102.36
0
LINE
8
BLACK
6
CONTINUOUS
10
164.479
20
-102.36
11
164.59
21
-102.249
0
LINE
8
BLACK
6
CONTINUOUS
10
164.59
20
-102.249
11
164.721
21
-102.161
0
LINE
8
BLACK
6
CONTINUOUS
10
164.721
20
-102.161
11
164.867
21
-102.101
0
LINE
8
BLACK
6
CONTINUOUS
10
164.867
20
-102.101
11
165.021
21
-102.07
0
LINE
8
BLACK
6
CONTINUOUS
10
165.021
20
-102.07
11
165.179
21
-102.07
0
LINE
8
BLACK
6
CONTINUOUS
10
165.179
20
-102.07
11
165.333
21
-102.101
0
LINE
8
BLACK
6
CONTINUOUS
10
165.333
20
-102.101
11
165.479
21
-102.161
0
LINE
8
BLACK
6
CONTINUOUS
10
165.479
20
-102.161
11
165.605
21
-102.245
0
LINE
8
BLACK
6
CONTINUOUS
10
165.605
20
-102.245
11
168.651
21
-102.245
0
LINE
8
BLACK
6
CONTINUOUS
10
168.651
20
-102.245
11
171.723
21
-99.1732
0
LINE
8
BLACK
6
CONTINUOUS
10
171.723
20
-99.1732
11
171.72
21
-99.1585
0
LINE
8
BLACK
6
CONTINUOUS
10
171.72
20
-99.1585
11
171.72
21
-98.9615
0
LINE
8
BLACK
6
CONTINUOUS
10
171.72
20
-98.9615
11
171.758
21
-98.7683
0
LINE
8
BLACK
6
CONTINUOUS
10
171.758
20
-98.7683
11
171.834
21
-98.5863
0
LINE
8
BLACK
6
CONTINUOUS
10
171.834
20
-98.5863
11
171.943
21
-98.4225
0
LINE
8
BLACK
6
CONTINUOUS
10
171.943
20
-98.4225
11
172.083
21
-98.2832
0
LINE
8
BLACK
6
CONTINUOUS
10
172.083
20
-98.2832
11
172.246
21
-98.1738
0
LINE
8
BLACK
6
CONTINUOUS
10
172.246
20
-98.1738
11
172.428
21
-98.0984
0
LINE
8
BLACK
6
CONTINUOUS
10
172.428
20
-98.0984
11
172.622
21
-98.06
0
LINE
8
BLACK
6
CONTINUOUS
10
172.622
20
-98.06
11
172.818
21
-98.06
0
LINE
8
BLACK
6
CONTINUOUS
10
172.818
20
-98.06
11
173.012
21
-98.0984
0
LINE
8
BLACK
6
CONTINUOUS
10
179.745
20
-102.509
11
179.803
21
-102.648
0
LINE
8
BLACK
6
CONTINUOUS
10
179.803
20
-102.648
11
179.832
21
-102.795
0
LINE
8
BLACK
6
CONTINUOUS
10
179.832
20
-102.795
11
179.832
21
-102.945
0
LINE
8
BLACK
6
CONTINUOUS
10
179.832
20
-102.945
11
179.803
21
-103.092
0
LINE
8
BLACK
6
CONTINUOUS
10
179.803
20
-103.092
11
179.745
21
-103.231
0
LINE
8
BLACK
6
CONTINUOUS
10
179.745
20
-103.231
11
179.662
21
-103.356
0
LINE
8
BLACK
6
CONTINUOUS
10
179.662
20
-103.356
11
179.556
21
-103.462
0
LINE
8
BLACK
6
CONTINUOUS
10
179.556
20
-103.462
11
179.431
21
-103.545
0
LINE
8
BLACK
6
CONTINUOUS
10
179.431
20
-103.545
11
179.292
21
-103.603
0
LINE
8
BLACK
6
CONTINUOUS
10
179.292
20
-103.603
11
179.145
21
-103.632
0
LINE
8
BLACK
6
CONTINUOUS
10
179.145
20
-103.632
11
178.995
21
-103.632
0
LINE
8
BLACK
6
CONTINUOUS
10
178.995
20
-103.632
11
178.848
21
-103.603
0
LINE
8
BLACK
6
CONTINUOUS
10
178.848
20
-103.603
11
178.709
21
-103.545
0
LINE
8
BLACK
6
CONTINUOUS
10
178.709
20
-103.545
11
178.584
21
-103.462
0
LINE
8
BLACK
6
CONTINUOUS
10
178.584
20
-103.462
11
178.478
21
-103.356
0
LINE
8
BLACK
6
CONTINUOUS
10
178.478
20
-103.356
11
178.395
21
-103.231
0
LINE
8
BLACK
6
CONTINUOUS
10
178.395
20
-103.231
11
178.337
21
-103.092
0
LINE
8
BLACK
6
CONTINUOUS
10
178.337
20
-103.092
11
178.308
21
-102.945
0
LINE
8
BLACK
6
CONTINUOUS
10
178.308
20
-102.945
11
178.308
21
-102.795
0
LINE
8
BLACK
6
CONTINUOUS
10
178.308
20
-102.795
11
178.337
21
-102.648
0
LINE
8
BLACK
6
CONTINUOUS
10
178.337
20
-102.648
11
178.395
21
-102.509
0
LINE
8
BLACK
6
CONTINUOUS
10
178.395
20
-102.509
11
178.445
21
-102.434
0
LINE
8
BLACK
6
CONTINUOUS
10
178.445
20
-102.434
11
178.445
21
-101.762
0
LINE
8
BLACK
6
CONTINUOUS
10
178.445
20
-101.762
11
178.445
21
-101.762
0
LINE
8
BLACK
6
CONTINUOUS
10
178.445
20
-101.762
11
178.445
21
-98.1107
0
LINE
8
BLACK
6
CONTINUOUS
10
178.445
20
-98.1107
11
178.442
21
-98.08
0
LINE
8
BLACK
6
CONTINUOUS
10
178.442
20
-98.08
11
178.445
21
-98.0493
0
LINE
8
BLACK
6
CONTINUOUS
10
178.445
20
-98.0493
11
178.445
21
-98.0493
0
LINE
8
BLACK
6
CONTINUOUS
10
178.445
20
-98.0493
11
178.454
21
-97.9575
0
LINE
8
BLACK
6
CONTINUOUS
10
178.454
20
-97.9575
11
178.49
21
-97.8397
0
LINE
8
BLACK
6
CONTINUOUS
10
178.49
20
-97.8397
11
178.548
21
-97.7311
0
LINE
8
BLACK
6
CONTINUOUS
10
178.548
20
-97.7311
11
178.626
21
-97.6359
0
LINE
8
BLACK
6
CONTINUOUS
10
178.626
20
-97.6359
11
178.65
21
-97.6163
0
LINE
8
BLACK
6
CONTINUOUS
10
178.65
20
-97.6163
11
192.866
21
-83.3998
0
LINE
8
BLACK
6
CONTINUOUS
10
192.866
20
-83.3998
11
192.886
21
-83.3759
0
LINE
8
BLACK
6
CONTINUOUS
10
192.886
20
-83.3759
11
192.91
21
-83.3564
0
LINE
8
BLACK
6
CONTINUOUS
10
192.91
20
-83.3564
11
192.91
21
-83.3563
0
LINE
8
BLACK
6
CONTINUOUS
10
192.91
20
-83.3563
11
192.981
21
-83.2978
0
LINE
8
BLACK
6
CONTINUOUS
10
192.981
20
-83.2978
11
193.09
21
-83.2398
0
LINE
8
BLACK
6
CONTINUOUS
10
193.09
20
-83.2398
11
193.09
21
-83.2398
0
LINE
8
BLACK
6
CONTINUOUS
10
193.09
20
-83.2398
11
193.207
21
-83.204
0
LINE
8
BLACK
6
CONTINUOUS
10
193.207
20
-83.204
11
193.299
21
-83.195
0
LINE
8
BLACK
6
CONTINUOUS
10
193.299
20
-83.195
11
193.299
21
-83.195
0
LINE
8
BLACK
6
CONTINUOUS
10
193.299
20
-83.195
11
193.33
21
-83.192
0
LINE
8
BLACK
6
CONTINUOUS
10
193.33
20
-83.192
11
193.361
21
-83.195
0
LINE
8
BLACK
6
CONTINUOUS
10
193.361
20
-83.195
11
194.813
21
-83.195
0
LINE
8
BLACK
6
CONTINUOUS
10
194.813
20
-83.195
11
194.856
21
-83.1432
0
LINE
8
BLACK
6
CONTINUOUS
10
194.856
20
-83.1432
11
195.001
21
-83.0242
0
LINE
8
BLACK
6
CONTINUOUS
10
195.001
20
-83.0242
11
195.166
21
-82.9357
0
LINE
8
BLACK
6
CONTINUOUS
10
195.166
20
-82.9357
11
195.346
21
-82.8813
0
LINE
8
BLACK
6
CONTINUOUS
10
195.346
20
-82.8813
11
195.486
21
-82.8675
0
LINE
8
BLACK
6
CONTINUOUS
10
195.486
20
-82.8675
11
195.674
21
-82.8675
0
LINE
8
BLACK
6
CONTINUOUS
10
195.674
20
-82.8675
11
195.814
21
-82.8813
0
LINE
8
BLACK
6
CONTINUOUS
10
195.814
20
-82.8813
11
195.994
21
-82.9357
0
LINE
8
BLACK
6
CONTINUOUS
10
195.994
20
-82.9357
11
196.159
21
-83.0242
0
LINE
8
BLACK
6
CONTINUOUS
10
196.159
20
-83.0242
11
196.304
21
-83.1432
0
LINE
8
BLACK
6
CONTINUOUS
10
196.304
20
-83.1432
11
196.423
21
-83.2883
0
LINE
8
BLACK
6
CONTINUOUS
10
196.423
20
-83.2883
11
196.512
21
-83.4537
0
LINE
8
BLACK
6
CONTINUOUS
10
196.512
20
-83.4537
11
196.566
21
-83.6333
0
LINE
8
BLACK
6
CONTINUOUS
10
196.566
20
-83.6333
11
196.585
21
-83.82
0
LINE
8
BLACK
6
CONTINUOUS
10
196.585
20
-83.82
11
196.566
21
-84.0067
0
LINE
8
BLACK
6
CONTINUOUS
10
196.566
20
-84.0067
11
196.512
21
-84.1863
0
LINE
8
BLACK
6
CONTINUOUS
10
196.512
20
-84.1863
11
196.423
21
-84.3517
0
LINE
8
BLACK
6
CONTINUOUS
10
196.423
20
-84.3517
11
196.304
21
-84.4968
0
LINE
8
BLACK
6
CONTINUOUS
10
196.304
20
-84.4968
11
196.159
21
-84.6158
0
LINE
8
BLACK
6
CONTINUOUS
10
196.159
20
-84.6158
11
195.994
21
-84.7043
0
LINE
8
BLACK
6
CONTINUOUS
10
195.994
20
-84.7043
11
195.814
21
-84.7587
0
LINE
8
BLACK
6
CONTINUOUS
10
195.814
20
-84.7587
11
195.674
21
-84.7725
0
LINE
8
BLACK
6
CONTINUOUS
10
195.674
20
-84.7725
11
195.486
21
-84.7725
0
LINE
8
BLACK
6
CONTINUOUS
10
195.486
20
-84.7725
11
195.346
21
-84.7587
0
LINE
8
BLACK
6
CONTINUOUS
10
195.346
20
-84.7587
11
195.166
21
-84.7043
0
LINE
8
BLACK
6
CONTINUOUS
10
195.166
20
-84.7043
11
195.001
21
-84.6158
0
LINE
8
BLACK
6
CONTINUOUS
10
195.001
20
-84.6158
11
194.856
21
-84.4968
0
LINE
8
BLACK
6
CONTINUOUS
10
194.856
20
-84.4968
11
194.813
21
-84.445
0
LINE
8
BLACK
6
CONTINUOUS
10
194.813
20
-84.445
11
193.589
21
-84.445
0
LINE
8
BLACK
6
CONTINUOUS
10
193.589
20
-84.445
11
179.695
21
-98.3389
0
LINE
8
BLACK
6
CONTINUOUS
10
179.695
20
-98.3389
11
179.695
21
-102.434
0
LINE
8
BLACK
6
CONTINUOUS
10
179.695
20
-102.434
11
179.745
21
-102.509
0
LINE
8
BLACK
6
CONTINUOUS
10
165.333
20
-99.5607
11
165.479
21
-99.621
0
LINE
8
BLACK
6
CONTINUOUS
10
165.479
20
-99.621
11
165.61
21
-99.7086
0
LINE
8
BLACK
6
CONTINUOUS
10
165.61
20
-99.7086
11
165.721
21
-99.82
0
LINE
8
BLACK
6
CONTINUOUS
10
165.721
20
-99.82
11
165.809
21
-99.9511
0
LINE
8
BLACK
6
CONTINUOUS
10
165.809
20
-99.9511
11
165.869
21
-100.097
0
LINE
8
BLACK
6
CONTINUOUS
10
165.869
20
-100.097
11
165.9
21
-100.251
0
LINE
8
BLACK
6
CONTINUOUS
10
165.9
20
-100.251
11
165.9
21
-100.409
0
LINE
8
BLACK
6
CONTINUOUS
10
165.9
20
-100.409
11
165.869
21
-100.563
0
LINE
8
BLACK
6
CONTINUOUS
10
165.869
20
-100.563
11
165.809
21
-100.709
0
LINE
8
BLACK
6
CONTINUOUS
10
165.809
20
-100.709
11
165.721
21
-100.84
0
LINE
8
BLACK
6
CONTINUOUS
10
165.721
20
-100.84
11
165.61
21
-100.951
0
LINE
8
BLACK
6
CONTINUOUS
10
165.61
20
-100.951
11
165.479
21
-101.039
0
LINE
8
BLACK
6
CONTINUOUS
10
165.479
20
-101.039
11
165.333
21
-101.099
0
LINE
8
BLACK
6
CONTINUOUS
10
165.333
20
-101.099
11
165.179
21
-101.13
0
LINE
8
BLACK
6
CONTINUOUS
10
165.179
20
-101.13
11
165.021
21
-101.13
0
LINE
8
BLACK
6
CONTINUOUS
10
165.021
20
-101.13
11
164.867
21
-101.099
0
LINE
8
BLACK
6
CONTINUOUS
10
164.867
20
-101.099
11
164.721
21
-101.039
0
LINE
8
BLACK
6
CONTINUOUS
10
164.721
20
-101.039
11
164.59
21
-100.951
0
LINE
8
BLACK
6
CONTINUOUS
10
164.59
20
-100.951
11
164.479
21
-100.84
0
LINE
8
BLACK
6
CONTINUOUS
10
164.479
20
-100.84
11
164.391
21
-100.709
0
LINE
8
BLACK
6
CONTINUOUS
10
164.391
20
-100.709
11
164.331
21
-100.563
0
LINE
8
BLACK
6
CONTINUOUS
10
164.331
20
-100.563
11
164.3
21
-100.409
0
LINE
8
BLACK
6
CONTINUOUS
10
164.3
20
-100.409
11
164.3
21
-100.251
0
LINE
8
BLACK
6
CONTINUOUS
10
164.3
20
-100.251
11
164.331
21
-100.097
0
LINE
8
BLACK
6
CONTINUOUS
10
164.331
20
-100.097
11
164.391
21
-99.9511
0
LINE
8
BLACK
6
CONTINUOUS
10
164.391
20
-99.9511
11
164.479
21
-99.82
0
LINE
8
BLACK
6
CONTINUOUS
10
164.479
20
-99.82
11
164.59
21
-99.7086
0
LINE
8
BLACK
6
CONTINUOUS
10
164.59
20
-99.7086
11
164.721
21
-99.621
0
LINE
8
BLACK
6
CONTINUOUS
10
164.721
20
-99.621
11
164.867
21
-99.5607
0
LINE
8
BLACK
6
CONTINUOUS
10
164.867
20
-99.5607
11
165.021
21
-99.53
0
LINE
8
BLACK
6
CONTINUOUS
10
165.021
20
-99.53
11
165.179
21
-99.53
0
LINE
8
BLACK
6
CONTINUOUS
10
165.179
20
-99.53
11
165.333
21
-99.5607
0
LINE
8
BLACK
6
CONTINUOUS
10
165.333
20
-97.0207
11
165.479
21
-97.081
0
LINE
8
BLACK
6
CONTINUOUS
10
165.479
20
-97.081
11
165.61
21
-97.1686
0
LINE
8
BLACK
6
CONTINUOUS
10
165.61
20
-97.1686
11
165.721
21
-97.28
0
LINE
8
BLACK
6
CONTINUOUS
10
165.721
20
-97.28
11
165.809
21
-97.4111
0
LINE
8
BLACK
6
CONTINUOUS
10
165.809
20
-97.4111
11
165.869
21
-97.5566
0
LINE
8
BLACK
6
CONTINUOUS
10
165.869
20
-97.5566
11
165.9
21
-97.7112
0
LINE
8
BLACK
6
CONTINUOUS
10
165.9
20
-97.7112
11
165.9
21
-97.8688
0
LINE
8
BLACK
6
CONTINUOUS
10
165.9
20
-97.8688
11
165.869
21
-98.0234
0
LINE
8
BLACK
6
CONTINUOUS
10
165.869
20
-98.0234
11
165.809
21
-98.1689
0
LINE
8
BLACK
6
CONTINUOUS
10
165.809
20
-98.1689
11
165.721
21
-98.3
0
LINE
8
BLACK
6
CONTINUOUS
10
165.721
20
-98.3
11
165.61
21
-98.4114
0
LINE
8
BLACK
6
CONTINUOUS
10
165.61
20
-98.4114
11
165.479
21
-98.499
0
LINE
8
BLACK
6
CONTINUOUS
10
165.479
20
-98.499
11
165.333
21
-98.5593
0
LINE
8
BLACK
6
CONTINUOUS
10
165.333
20
-98.5593
11
165.179
21
-98.59
0
LINE
8
BLACK
6
CONTINUOUS
10
165.179
20
-98.59
11
165.021
21
-98.59
0
LINE
8
BLACK
6
CONTINUOUS
10
165.021
20
-98.59
11
164.867
21
-98.5593
0
LINE
8
BLACK
6
CONTINUOUS
10
164.867
20
-98.5593
11
164.721
21
-98.499
0
LINE
8
BLACK
6
CONTINUOUS
10
164.721
20
-98.499
11
164.59
21
-98.4114
0
LINE
8
BLACK
6
CONTINUOUS
10
164.59
20
-98.4114
11
164.479
21
-98.3
0
LINE
8
BLACK
6
CONTINUOUS
10
164.479
20
-98.3
11
164.391
21
-98.1689
0
LINE
8
BLACK
6
CONTINUOUS
10
164.391
20
-98.1689
11
164.331
21
-98.0234
0
LINE
8
BLACK
6
CONTINUOUS
10
164.331
20
-98.0234
11
164.3
21
-97.8688
0
LINE
8
BLACK
6
CONTINUOUS
10
164.3
20
-97.8688
11
164.3
21
-97.7112
0
LINE
8
BLACK
6
CONTINUOUS
10
164.3
20
-97.7112
11
164.331
21
-97.5566
0
LINE
8
BLACK
6
CONTINUOUS
10
164.331
20
-97.5566
11
164.391
21
-97.4111
0
LINE
8
BLACK
6
CONTINUOUS
10
164.391
20
-97.4111
11
164.479
21
-97.28
0
LINE
8
BLACK
6
CONTINUOUS
10
164.479
20
-97.28
11
164.59
21
-97.1686
0
LINE
8
BLACK
6
CONTINUOUS
10
164.59
20
-97.1686
11
164.721
21
-97.081
0
LINE
8
BLACK
6
CONTINUOUS
10
164.721
20
-97.081
11
164.867
21
-97.0207
0
LINE
8
BLACK
6
CONTINUOUS
10
164.867
20
-97.0207
11
165.021
21
-96.99
0
LINE
8
BLACK
6
CONTINUOUS
10
165.021
20
-96.99
11
165.179
21
-96.99
0
LINE
8
BLACK
6
CONTINUOUS
10
165.179
20
-96.99
11
165.333
21
-97.0207
0
LINE
8
BLACK
6
CONTINUOUS
10
165.333
20
-94.4807
11
165.479
21
-94.541
0
LINE
8
BLACK
6
CONTINUOUS
10
165.479
20
-94.541
11
165.61
21
-94.6286
0
LINE
8
BLACK
6
CONTINUOUS
10
165.61
20
-94.6286
11
165.721
21
-94.74
0
LINE
8
BLACK
6
CONTINUOUS
10
165.721
20
-94.74
11
165.809
21
-94.8711
0
LINE
8
BLACK
6
CONTINUOUS
10
165.809
20
-94.8711
11
165.869
21
-95.0166
0
LINE
8
BLACK
6
CONTINUOUS
10
165.869
20
-95.0166
11
165.9
21
-95.1712
0
LINE
8
BLACK
6
CONTINUOUS
10
165.9
20
-95.1712
11
165.9
21
-95.3288
0
LINE
8
BLACK
6
CONTINUOUS
10
165.9
20
-95.3288
11
165.869
21
-95.4834
0
LINE
8
BLACK
6
CONTINUOUS
10
165.869
20
-95.4834
11
165.809
21
-95.6289
0
LINE
8
BLACK
6
CONTINUOUS
10
165.809
20
-95.6289
11
165.721
21
-95.76
0
LINE
8
BLACK
6
CONTINUOUS
10
165.721
20
-95.76
11
165.61
21
-95.8714
0
LINE
8
BLACK
6
CONTINUOUS
10
165.61
20
-95.8714
11
165.479
21
-95.959
0
LINE
8
BLACK
6
CONTINUOUS
10
165.479
20
-95.959
11
165.333
21
-96.0193
0
LINE
8
BLACK
6
CONTINUOUS
10
165.333
20
-96.0193
11
165.179
21
-96.05
0
LINE
8
BLACK
6
CONTINUOUS
10
165.179
20
-96.05
11
165.021
21
-96.05
0
LINE
8
BLACK
6
CONTINUOUS
10
165.021
20
-96.05
11
164.867
21
-96.0193
0
LINE
8
BLACK
6
CONTINUOUS
10
164.867
20
-96.0193
11
164.721
21
-95.959
0
LINE
8
BLACK
6
CONTINUOUS
10
164.721
20
-95.959
11
164.59
21
-95.8714
0
LINE
8
BLACK
6
CONTINUOUS
10
164.59
20
-95.8714
11
164.479
21
-95.76
0
LINE
8
BLACK
6
CONTINUOUS
10
164.479
20
-95.76
11
164.391
21
-95.6289
0
LINE
8
BLACK
6
CONTINUOUS
10
164.391
20
-95.6289
11
164.331
21
-95.4834
0
LINE
8
BLACK
6
CONTINUOUS
10
164.331
20
-95.4834
11
164.3
21
-95.3288
0
LINE
8
BLACK
6
CONTINUOUS
10
164.3
20
-95.3288
11
164.3
21
-95.1712
0
LINE
8
BLACK
6
CONTINUOUS
10
164.3
20
-95.1712
11
164.331
21
-95.0166
0
LINE
8
BLACK
6
CONTINUOUS
10
164.331
20
-95.0166
11
164.391
21
-94.8711
0
LINE
8
BLACK
6
CONTINUOUS
10
164.391
20
-94.8711
11
164.479
21
-94.74
0
LINE
8
BLACK
6
CONTINUOUS
10
164.479
20
-94.74
11
164.59
21
-94.6286
0
LINE
8
BLACK
6
CONTINUOUS
10
164.59
20
-94.6286
11
164.721
21
-94.541
0
LINE
8
BLACK
6
CONTINUOUS
10
164.721
20
-94.541
11
164.867
21
-94.4807
0
LINE
8
BLACK
6
CONTINUOUS
10
164.867
20
-94.4807
11
165.021
21
-94.45
0
LINE
8
BLACK
6
CONTINUOUS
10
165.021
20
-94.45
11
165.179
21
-94.45
0
LINE
8
BLACK
6
CONTINUOUS
10
165.179
20
-94.45
11
165.333
21
-94.4807
0
LINE
8
BLACK
6
CONTINUOUS
10
165.333
20
-91.9407
11
165.479
21
-92.001
0
LINE
8
BLACK
6
CONTINUOUS
10
165.479
20
-92.001
11
165.61
21
-92.0886
0
LINE
8
BLACK
6
CONTINUOUS
10
165.61
20
-92.0886
11
165.721
21
-92.2
0
LINE
8
BLACK
6
CONTINUOUS
10
165.721
20
-92.2
11
165.809
21
-92.3311
0
LINE
8
BLACK
6
CONTINUOUS
10
165.809
20
-92.3311
11
165.869
21
-92.4766
0
LINE
8
BLACK
6
CONTINUOUS
10
165.869
20
-92.4766
11
165.9
21
-92.6312
0
LINE
8
BLACK
6
CONTINUOUS
10
165.9
20
-92.6312
11
165.9
21
-92.7888
0
LINE
8
BLACK
6
CONTINUOUS
10
165.9
20
-92.7888
11
165.869
21
-92.9434
0
LINE
8
BLACK
6
CONTINUOUS
10
165.869
20
-92.9434
11
165.809
21
-93.0889
0
LINE
8
BLACK
6
CONTINUOUS
10
165.809
20
-93.0889
11
165.721
21
-93.22
0
LINE
8
BLACK
6
CONTINUOUS
10
165.721
20
-93.22
11
165.61
21
-93.3314
0
LINE
8
BLACK
6
CONTINUOUS
10
165.61
20
-93.3314
11
165.479
21
-93.419
0
LINE
8
BLACK
6
CONTINUOUS
10
165.479
20
-93.419
11
165.333
21
-93.4793
0
LINE
8
BLACK
6
CONTINUOUS
10
165.333
20
-93.4793
11
165.179
21
-93.51
0
LINE
8
BLACK
6
CONTINUOUS
10
165.179
20
-93.51
11
165.021
21
-93.51
0
LINE
8
BLACK
6
CONTINUOUS
10
165.021
20
-93.51
11
164.867
21
-93.4793
0
LINE
8
BLACK
6
CONTINUOUS
10
164.867
20
-93.4793
11
164.721
21
-93.419
0
LINE
8
BLACK
6
CONTINUOUS
10
164.721
20
-93.419
11
164.59
21
-93.3314
0
LINE
8
BLACK
6
CONTINUOUS
10
164.59
20
-93.3314
11
164.479
21
-93.22
0
LINE
8
BLACK
6
CONTINUOUS
10
164.479
20
-93.22
11
164.391
21
-93.0889
0
LINE
8
BLACK
6
CONTINUOUS
10
164.391
20
-93.0889
11
164.331
21
-92.9434
0
LINE
8
BLACK
6
CONTINUOUS
10
164.331
20
-92.9434
11
164.3
21
-92.7888
0
LINE
8
BLACK
6
CONTINUOUS
10
164.3
20
-92.7888
11
164.3
21
-92.6312
0
LINE
8
BLACK
6
CONTINUOUS
10
164.3
20
-92.6312
11
164.331
21
-92.4766
0
LINE
8
BLACK
6
CONTINUOUS
10
164.331
20
-92.4766
11
164.391
21
-92.3311
0
LINE
8
BLACK
6
CONTINUOUS
10
164.391
20
-92.3311
11
164.479
21
-92.2
0
LINE
8
BLACK
6
CONTINUOUS
10
164.479
20
-92.2
11
164.59
21
-92.0886
0
LINE
8
BLACK
6
CONTINUOUS
10
164.59
20
-92.0886
11
164.721
21
-92.001
0
LINE
8
BLACK
6
CONTINUOUS
10
164.721
20
-92.001
11
164.867
21
-91.9407
0
LINE
8
BLACK
6
CONTINUOUS
10
164.867
20
-91.9407
11
165.021
21
-91.91
0
LINE
8
BLACK
6
CONTINUOUS
10
165.021
20
-91.91
11
165.179
21
-91.91
0
LINE
8
BLACK
6
CONTINUOUS
10
165.179
20
-91.91
11
165.333
21
-91.9407
0
LINE
8
BLACK
6
CONTINUOUS
10
150.093
20
-91.9407
11
150.239
21
-92.001
0
LINE
8
BLACK
6
CONTINUOUS
10
150.239
20
-92.001
11
150.37
21
-92.0886
0
LINE
8
BLACK
6
CONTINUOUS
10
150.37
20
-92.0886
11
150.481
21
-92.2
0
LINE
8
BLACK
6
CONTINUOUS
10
150.481
20
-92.2
11
150.569
21
-92.3311
0
LINE
8
BLACK
6
CONTINUOUS
10
150.569
20
-92.3311
11
150.629
21
-92.4766
0
LINE
8
BLACK
6
CONTINUOUS
10
150.629
20
-92.4766
11
150.66
21
-92.6312
0
LINE
8
BLACK
6
CONTINUOUS
10
150.66
20
-92.6312
11
150.66
21
-92.7888
0
LINE
8
BLACK
6
CONTINUOUS
10
150.66
20
-92.7888
11
150.629
21
-92.9434
0
LINE
8
BLACK
6
CONTINUOUS
10
150.629
20
-92.9434
11
150.569
21
-93.0889
0
LINE
8
BLACK
6
CONTINUOUS
10
150.569
20
-93.0889
11
150.481
21
-93.22
0
LINE
8
BLACK
6
CONTINUOUS
10
150.481
20
-93.22
11
150.37
21
-93.3314
0
LINE
8
BLACK
6
CONTINUOUS
10
150.37
20
-93.3314
11
150.239
21
-93.419
0
LINE
8
BLACK
6
CONTINUOUS
10
150.239
20
-93.419
11
150.093
21
-93.4793
0
LINE
8
BLACK
6
CONTINUOUS
10
150.093
20
-93.4793
11
149.939
21
-93.51
0
LINE
8
BLACK
6
CONTINUOUS
10
149.939
20
-93.51
11
149.781
21
-93.51
0
LINE
8
BLACK
6
CONTINUOUS
10
149.781
20
-93.51
11
149.627
21
-93.4793
0
LINE
8
BLACK
6
CONTINUOUS
10
149.627
20
-93.4793
11
149.481
21
-93.419
0
LINE
8
BLACK
6
CONTINUOUS
10
149.481
20
-93.419
11
149.35
21
-93.3314
0
LINE
8
BLACK
6
CONTINUOUS
10
149.35
20
-93.3314
11
149.239
21
-93.22
0
LINE
8
BLACK
6
CONTINUOUS
10
149.239
20
-93.22
11
149.151
21
-93.0889
0
LINE
8
BLACK
6
CONTINUOUS
10
149.151
20
-93.0889
11
149.091
21
-92.9434
0
LINE
8
BLACK
6
CONTINUOUS
10
149.091
20
-92.9434
11
149.06
21
-92.7888
0
LINE
8
BLACK
6
CONTINUOUS
10
149.06
20
-92.7888
11
149.06
21
-92.6312
0
LINE
8
BLACK
6
CONTINUOUS
10
149.06
20
-92.6312
11
149.091
21
-92.4766
0
LINE
8
BLACK
6
CONTINUOUS
10
149.091
20
-92.4766
11
149.151
21
-92.3311
0
LINE
8
BLACK
6
CONTINUOUS
10
149.151
20
-92.3311
11
149.239
21
-92.2
0
LINE
8
BLACK
6
CONTINUOUS
10
149.239
20
-92.2
11
149.35
21
-92.0886
0
LINE
8
BLACK
6
CONTINUOUS
10
149.35
20
-92.0886
11
149.481
21
-92.001
0
LINE
8
BLACK
6
CONTINUOUS
10
149.481
20
-92.001
11
149.627
21
-91.9407
0
LINE
8
BLACK
6
CONTINUOUS
10
149.627
20
-91.9407
11
149.781
21
-91.91
0
LINE
8
BLACK
6
CONTINUOUS
10
149.781
20
-91.91
11
149.939
21
-91.91
0
LINE
8
BLACK
6
CONTINUOUS
10
149.939
20
-91.91
11
150.093
21
-91.9407
0
LINE
8
BLACK
6
CONTINUOUS
10
150.093
20
-89.4007
11
150.239
21
-89.461
0
LINE
8
BLACK
6
CONTINUOUS
10
150.239
20
-89.461
11
150.37
21
-89.5486
0
LINE
8
BLACK
6
CONTINUOUS
10
150.37
20
-89.5486
11
150.481
21
-89.66
0
LINE
8
BLACK
6
CONTINUOUS
10
150.481
20
-89.66
11
150.569
21
-89.7911
0
LINE
8
BLACK
6
CONTINUOUS
10
150.569
20
-89.7911
11
150.629
21
-89.9366
0
LINE
8
BLACK
6
CONTINUOUS
10
150.629
20
-89.9366
11
150.66
21
-90.0912
0
LINE
8
BLACK
6
CONTINUOUS
10
150.66
20
-90.0912
11
150.66
21
-90.2488
0
LINE
8
BLACK
6
CONTINUOUS
10
150.66
20
-90.2488
11
150.629
21
-90.4034
0
LINE
8
BLACK
6
CONTINUOUS
10
150.629
20
-90.4034
11
150.569
21
-90.5489
0
LINE
8
BLACK
6
CONTINUOUS
10
150.569
20
-90.5489
11
150.481
21
-90.68
0
LINE
8
BLACK
6
CONTINUOUS
10
150.481
20
-90.68
11
150.37
21
-90.7914
0
LINE
8
BLACK
6
CONTINUOUS
10
150.37
20
-90.7914
11
150.239
21
-90.879
0
LINE
8
BLACK
6
CONTINUOUS
10
150.239
20
-90.879
11
150.093
21
-90.9393
0
LINE
8
BLACK
6
CONTINUOUS
10
150.093
20
-90.9393
11
149.939
21
-90.97
0
LINE
8
BLACK
6
CONTINUOUS
10
149.939
20
-90.97
11
149.781
21
-90.97
0
LINE
8
BLACK
6
CONTINUOUS
10
149.781
20
-90.97
11
149.627
21
-90.9393
0
LINE
8
BLACK
6
CONTINUOUS
10
149.627
20
-90.9393
11
149.481
21
-90.879
0
LINE
8
BLACK
6
CONTINUOUS
10
149.481
20
-90.879
11
149.35
21
-90.7914
0
LINE
8
BLACK
6
CONTINUOUS
10
149.35
20
-90.7914
11
149.239
21
-90.68
0
LINE
8
BLACK
6
CONTINUOUS
10
149.239
20
-90.68
11
149.151
21
-90.5489
0
LINE
8
BLACK
6
CONTINUOUS
10
149.151
20
-90.5489
11
149.091
21
-90.4034
0
LINE
8
BLACK
6
CONTINUOUS
10
149.091
20
-90.4034
11
149.06
21
-90.2488
0
LINE
8
BLACK
6
CONTINUOUS
10
149.06
20
-90.2488
11
149.06
21
-90.0912
0
LINE
8
BLACK
6
CONTINUOUS
10
149.06
20
-90.0912
11
149.091
21
-89.9366
0
LINE
8
BLACK
6
CONTINUOUS
10
149.091
20
-89.9366
11
149.151
21
-89.7911
0
LINE
8
BLACK
6
CONTINUOUS
10
149.151
20
-89.7911
11
149.239
21
-89.66
0
LINE
8
BLACK
6
CONTINUOUS
10
149.239
20
-89.66
11
149.35
21
-89.5486
0
LINE
8
BLACK
6
CONTINUOUS
10
149.35
20
-89.5486
11
149.481
21
-89.461
0
LINE
8
BLACK
6
CONTINUOUS
10
149.481
20
-89.461
11
149.627
21
-89.4007
0
LINE
8
BLACK
6
CONTINUOUS
10
149.627
20
-89.4007
11
149.781
21
-89.37
0
LINE
8
BLACK
6
CONTINUOUS
10
149.781
20
-89.37
11
149.939
21
-89.37
0
LINE
8
BLACK
6
CONTINUOUS
10
149.939
20
-89.37
11
150.093
21
-89.4007
0
LINE
8
BLACK
6
CONTINUOUS
10
165.333
20
-89.4007
11
165.479
21
-89.461
0
LINE
8
BLACK
6
CONTINUOUS
10
165.479
20
-89.461
11
165.61
21
-89.5486
0
LINE
8
BLACK
6
CONTINUOUS
10
165.61
20
-89.5486
11
165.721
21
-89.66
0
LINE
8
BLACK
6
CONTINUOUS
10
165.721
20
-89.66
11
165.809
21
-89.7911
0
LINE
8
BLACK
6
CONTINUOUS
10
165.809
20
-89.7911
11
165.869
21
-89.9366
0
LINE
8
BLACK
6
CONTINUOUS
10
165.869
20
-89.9366
11
165.9
21
-90.0912
0
LINE
8
BLACK
6
CONTINUOUS
10
165.9
20
-90.0912
11
165.9
21
-90.2488
0
LINE
8
BLACK
6
CONTINUOUS
10
165.9
20
-90.2488
11
165.869
21
-90.4034
0
LINE
8
BLACK
6
CONTINUOUS
10
165.869
20
-90.4034
11
165.809
21
-90.5489
0
LINE
8
BLACK
6
CONTINUOUS
10
165.809
20
-90.5489
11
165.721
21
-90.68
0
LINE
8
BLACK
6
CONTINUOUS
10
165.721
20
-90.68
11
165.61
21
-90.7914
0
LINE
8
BLACK
6
CONTINUOUS
10
165.61
20
-90.7914
11
165.479
21
-90.879
0
LINE
8
BLACK
6
CONTINUOUS
10
165.479
20
-90.879
11
165.333
21
-90.9393
0
LINE
8
BLACK
6
CONTINUOUS
10
165.333
20
-90.9393
11
165.179
21
-90.97
0
LINE
8
BLACK
6
CONTINUOUS
10
165.179
20
-90.97
11
165.021
21
-90.97
0
LINE
8
BLACK
6
CONTINUOUS
10
165.021
20
-90.97
11
164.867
21
-90.9393
0
LINE
8
BLACK
6
CONTINUOUS
10
164.867
20
-90.9393
11
164.721
21
-90.879
0
LINE
8
BLACK
6
CONTINUOUS
10
164.721
20
-90.879
11
164.59
21
-90.7914
0
LINE
8
BLACK
6
CONTINUOUS
10
164.59
20
-90.7914
11
164.479
21
-90.68
0
LINE
8
BLACK
6
CONTINUOUS
10
164.479
20
-90.68
11
164.391
21
-90.5489
0
LINE
8
BLACK
6
CONTINUOUS
10
164.391
20
-90.5489
11
164.331
21
-90.4034
0
LINE
8
BLACK
6
CONTINUOUS
10
164.331
20
-90.4034
11
164.3
21
-90.2488
0
LINE
8
BLACK
6
CONTINUOUS
10
164.3
20
-90.2488
11
164.3
21
-90.0912
0
LINE
8
BLACK
6
CONTINUOUS
10
164.3
20
-90.0912
11
164.331
21
-89.9366
0
LINE
8
BLACK
6
CONTINUOUS
10
164.331
20
-89.9366
11
164.391
21
-89.7911
0
LINE
8
BLACK
6
CONTINUOUS
10
164.391
20
-89.7911
11
164.479
21
-89.66
0
LINE
8
BLACK
6
CONTINUOUS
10
164.479
20
-89.66
11
164.59
21
-89.5486
0
LINE
8
BLACK
6
CONTINUOUS
10
164.59
20
-89.5486
11
164.721
21
-89.461
0
LINE
8
BLACK
6
CONTINUOUS
10
164.721
20
-89.461
11
164.867
21
-89.4007
0
LINE
8
BLACK
6
CONTINUOUS
10
164.867
20
-89.4007
11
165.021
21
-89.37
0
LINE
8
BLACK
6
CONTINUOUS
10
165.021
20
-89.37
11
165.179
21
-89.37
0
LINE
8
BLACK
6
CONTINUOUS
10
165.179
20
-89.37
11
165.333
21
-89.4007
0
LINE
8
BLACK
6
CONTINUOUS
10
150.093
20
-86.8607
11
150.239
21
-86.921
0
LINE
8
BLACK
6
CONTINUOUS
10
150.239
20
-86.921
11
150.37
21
-87.0086
0
LINE
8
BLACK
6
CONTINUOUS
10
150.37
20
-87.0086
11
150.481
21
-87.12
0
LINE
8
BLACK
6
CONTINUOUS
10
150.481
20
-87.12
11
150.569
21
-87.2511
0
LINE
8
BLACK
6
CONTINUOUS
10
150.569
20
-87.2511
11
150.629
21
-87.3966
0
LINE
8
BLACK
6
CONTINUOUS
10
150.629
20
-87.3966
11
150.66
21
-87.5512
0
LINE
8
BLACK
6
CONTINUOUS
10
150.66
20
-87.5512
11
150.66
21
-87.7088
0
LINE
8
BLACK
6
CONTINUOUS
10
150.66
20
-87.7088
11
150.629
21
-87.8634
0
LINE
8
BLACK
6
CONTINUOUS
10
150.629
20
-87.8634
11
150.569
21
-88.0089
0
LINE
8
BLACK
6
CONTINUOUS
10
150.569
20
-88.0089
11
150.481
21
-88.14
0
LINE
8
BLACK
6
CONTINUOUS
10
150.481
20
-88.14
11
150.37
21
-88.2514
0
LINE
8
BLACK
6
CONTINUOUS
10
150.37
20
-88.2514
11
150.239
21
-88.339
0
LINE
8
BLACK
6
CONTINUOUS
10
150.239
20
-88.339
11
150.093
21
-88.3993
0
LINE
8
BLACK
6
CONTINUOUS
10
150.093
20
-88.3993
11
149.939
21
-88.43
0
LINE
8
BLACK
6
CONTINUOUS
10
149.939
20
-88.43
11
149.781
21
-88.43
0
LINE
8
BLACK
6
CONTINUOUS
10
149.781
20
-88.43
11
149.627
21
-88.3993
0
LINE
8
BLACK
6
CONTINUOUS
10
149.627
20
-88.3993
11
149.481
21
-88.339
0
LINE
8
BLACK
6
CONTINUOUS
10
149.481
20
-88.339
11
149.35
21
-88.2514
0
LINE
8
BLACK
6
CONTINUOUS
10
149.35
20
-88.2514
11
149.239
21
-88.14
0
LINE
8
BLACK
6
CONTINUOUS
10
149.239
20
-88.14
11
149.151
21
-88.0089
0
LINE
8
BLACK
6
CONTINUOUS
10
149.151
20
-88.0089
11
149.091
21
-87.8634
0
LINE
8
BLACK
6
CONTINUOUS
10
149.091
20
-87.8634
11
149.06
21
-87.7088
0
LINE
8
BLACK
6
CONTINUOUS
10
149.06
20
-87.7088
11
149.06
21
-87.5512
0
LINE
8
BLACK
6
CONTINUOUS
10
149.06
20
-87.5512
11
149.091
21
-87.3966
0
LINE
8
BLACK
6
CONTINUOUS
10
149.091
20
-87.3966
11
149.151
21
-87.2511
0
LINE
8
BLACK
6
CONTINUOUS
10
149.151
20
-87.2511
11
149.239
21
-87.12
0
LINE
8
BLACK
6
CONTINUOUS
10
149.239
20
-87.12
11
149.35
21
-87.0086
0
LINE
8
BLACK
6
CONTINUOUS
10
149.35
20
-87.0086
11
149.481
21
-86.921
0
LINE
8
BLACK
6
CONTINUOUS
10
149.481
20
-86.921
11
149.627
21
-86.8607
0
LINE
8
BLACK
6
CONTINUOUS
10
149.627
20
-86.8607
11
149.781
21
-86.83
0
LINE
8
BLACK
6
CONTINUOUS
10
149.781
20
-86.83
11
149.939
21
-86.83
0
LINE
8
BLACK
6
CONTINUOUS
10
149.939
20
-86.83
11
150.093
21
-86.8607
0
LINE
8
BLACK
6
CONTINUOUS
10
165.333
20
-86.8607
11
165.479
21
-86.921
0
LINE
8
BLACK
6
CONTINUOUS
10
165.479
20
-86.921
11
165.61
21
-87.0086
0
LINE
8
BLACK
6
CONTINUOUS
10
165.61
20
-87.0086
11
165.721
21
-87.12
0
LINE
8
BLACK
6
CONTINUOUS
10
165.721
20
-87.12
11
165.809
21
-87.2511
0
LINE
8
BLACK
6
CONTINUOUS
10
165.809
20
-87.2511
11
165.869
21
-87.3966
0
LINE
8
BLACK
6
CONTINUOUS
10
165.869
20
-87.3966
11
165.9
21
-87.5512
0
LINE
8
BLACK
6
CONTINUOUS
10
165.9
20
-87.5512
11
165.9
21
-87.7088
0
LINE
8
BLACK
6
CONTINUOUS
10
165.9
20
-87.7088
11
165.869
21
-87.8634
0
LINE
8
BLACK
6
CONTINUOUS
10
165.869
20
-87.8634
11
165.809
21
-88.0089
0
LINE
8
BLACK
6
CONTINUOUS
10
165.809
20
-88.0089
11
165.721
21
-88.14
0
LINE
8
BLACK
6
CONTINUOUS
10
165.721
20
-88.14
11
165.61
21
-88.2514
0
LINE
8
BLACK
6
CONTINUOUS
10
165.61
20
-88.2514
11
165.479
21
-88.339
0
LINE
8
BLACK
6
CONTINUOUS
10
165.479
20
-88.339
11
165.333
21
-88.3993
0
LINE
8
BLACK
6
CONTINUOUS
10
165.333
20
-88.3993
11
165.179
21
-88.43
0
LINE
8
BLACK
6
CONTINUOUS
10
165.179
20
-88.43
11
165.021
21
-88.43
0
LINE
8
BLACK
6
CONTINUOUS
10
165.021
20
-88.43
11
164.867
21
-88.3993
0
LINE
8
BLACK
6
CONTINUOUS
10
164.867
20
-88.3993
11
164.721
21
-88.339
0
LINE
8
BLACK
6
CONTINUOUS
10
164.721
20
-88.339
11
164.59
21
-88.2514
0
LINE
8
BLACK
6
CONTINUOUS
10
164.59
20
-88.2514
11
164.479
21
-88.14
0
LINE
8
BLACK
6
CONTINUOUS
10
164.479
20
-88.14
11
164.391
21
-88.0089
0
LINE
8
BLACK
6
CONTINUOUS
10
164.391
20
-88.0089
11
164.331
21
-87.8634
0
LINE
8
BLACK
6
CONTINUOUS
10
164.331
20
-87.8634
11
164.3
21
-87.7088
0
LINE
8
BLACK
6
CONTINUOUS
10
164.3
20
-87.7088
11
164.3
21
-87.5512
0
LINE
8
BLACK
6
CONTINUOUS
10
164.3
20
-87.5512
11
164.331
21
-87.3966
0
LINE
8
BLACK
6
CONTINUOUS
10
164.331
20
-87.3966
11
164.391
21
-87.2511
0
LINE
8
BLACK
6
CONTINUOUS
10
164.391
20
-87.2511
11
164.479
21
-87.12
0
LINE
8
BLACK
6
CONTINUOUS
10
164.479
20
-87.12
11
164.59
21
-87.0086
0
LINE
8
BLACK
6
CONTINUOUS
10
164.59
20
-87.0086
11
164.721
21
-86.921
0
LINE
8
BLACK
6
CONTINUOUS
10
164.721
20
-86.921
11
164.867
21
-86.8607
0
LINE
8
BLACK
6
CONTINUOUS
10
164.867
20
-86.8607
11
165.021
21
-86.83
0
LINE
8
BLACK
6
CONTINUOUS
10
165.021
20
-86.83
11
165.179
21
-86.83
0
LINE
8
BLACK
6
CONTINUOUS
10
165.179
20
-86.83
11
165.333
21
-86.8607
0
LINE
8
BLACK
6
CONTINUOUS
10
150.093
20
-84.3207
11
150.239
21
-84.381
0
LINE
8
BLACK
6
CONTINUOUS
10
150.239
20
-84.381
11
150.37
21
-84.4686
0
LINE
8
BLACK
6
CONTINUOUS
10
150.37
20
-84.4686
11
150.481
21
-84.58
0
LINE
8
BLACK
6
CONTINUOUS
10
150.481
20
-84.58
11
150.569
21
-84.7111
0
LINE
8
BLACK
6
CONTINUOUS
10
150.569
20
-84.7111
11
150.629
21
-84.8566
0
LINE
8
BLACK
6
CONTINUOUS
10
150.629
20
-84.8566
11
150.66
21
-85.0112
0
LINE
8
BLACK
6
CONTINUOUS
10
150.66
20
-85.0112
11
150.66
21
-85.1688
0
LINE
8
BLACK
6
CONTINUOUS
10
150.66
20
-85.1688
11
150.629
21
-85.3234
0
LINE
8
BLACK
6
CONTINUOUS
10
150.629
20
-85.3234
11
150.569
21
-85.4689
0
LINE
8
BLACK
6
CONTINUOUS
10
150.569
20
-85.4689
11
150.481
21
-85.6
0
LINE
8
BLACK
6
CONTINUOUS
10
150.481
20
-85.6
11
150.37
21
-85.7114
0
LINE
8
BLACK
6
CONTINUOUS
10
150.37
20
-85.7114
11
150.239
21
-85.799
0
LINE
8
BLACK
6
CONTINUOUS
10
150.239
20
-85.799
11
150.093
21
-85.8593
0
LINE
8
BLACK
6
CONTINUOUS
10
150.093
20
-85.8593
11
149.939
21
-85.89
0
LINE
8
BLACK
6
CONTINUOUS
10
149.939
20
-85.89
11
149.781
21
-85.89
0
LINE
8
BLACK
6
CONTINUOUS
10
149.781
20
-85.89
11
149.627
21
-85.8593
0
LINE
8
BLACK
6
CONTINUOUS
10
149.627
20
-85.8593
11
149.481
21
-85.799
0
LINE
8
BLACK
6
CONTINUOUS
10
149.481
20
-85.799
11
149.35
21
-85.7114
0
LINE
8
BLACK
6
CONTINUOUS
10
149.35
20
-85.7114
11
149.239
21
-85.6
0
LINE
8
BLACK
6
CONTINUOUS
10
149.239
20
-85.6
11
149.151
21
-85.4689
0
LINE
8
BLACK
6
CONTINUOUS
10
149.151
20
-85.4689
11
149.091
21
-85.3234
0
LINE
8
BLACK
6
CONTINUOUS
10
149.091
20
-85.3234
11
149.06
21
-85.1688
0
LINE
8
BLACK
6
CONTINUOUS
10
149.06
20
-85.1688
11
149.06
21
-85.0112
0
LINE
8
BLACK
6
CONTINUOUS
10
149.06
20
-85.0112
11
149.091
21
-84.8566
0
LINE
8
BLACK
6
CONTINUOUS
10
149.091
20
-84.8566
11
149.151
21
-84.7111
0
LINE
8
BLACK
6
CONTINUOUS
10
149.151
20
-84.7111
11
149.239
21
-84.58
0
LINE
8
BLACK
6
CONTINUOUS
10
149.239
20
-84.58
11
149.35
21
-84.4686
0
LINE
8
BLACK
6
CONTINUOUS
10
149.35
20
-84.4686
11
149.481
21
-84.381
0
LINE
8
BLACK
6
CONTINUOUS
10
149.481
20
-84.381
11
149.627
21
-84.3207
0
LINE
8
BLACK
6
CONTINUOUS
10
149.627
20
-84.3207
11
149.781
21
-84.29
0
LINE
8
BLACK
6
CONTINUOUS
10
149.781
20
-84.29
11
149.939
21
-84.29
0
LINE
8
BLACK
6
CONTINUOUS
10
149.939
20
-84.29
11
150.093
21
-84.3207
0
LINE
8
BLACK
6
CONTINUOUS
10
191.116
20
-62.19
11
191.116
21
-62.19
0
LINE
8
BLACK
6
CONTINUOUS
10
191.116
20
-62.19
11
191.208
21
-62.199
0
LINE
8
BLACK
6
CONTINUOUS
10
191.208
20
-62.199
11
191.325
21
-62.2348
0
LINE
8
BLACK
6
CONTINUOUS
10
191.325
20
-62.2348
11
191.434
21
-62.2928
0
LINE
8
BLACK
6
CONTINUOUS
10
191.434
20
-62.2928
11
191.529
21
-62.3709
0
LINE
8
BLACK
6
CONTINUOUS
10
191.529
20
-62.3709
11
191.549
21
-62.3948
0
LINE
8
BLACK
6
CONTINUOUS
10
191.549
20
-62.3948
11
193.924
21
-64.7698
0
LINE
8
BLACK
6
CONTINUOUS
10
193.924
20
-64.7698
11
193.924
21
-64.7698
0
LINE
8
BLACK
6
CONTINUOUS
10
193.924
20
-64.7698
11
194.344
21
-65.19
0
LINE
8
BLACK
6
CONTINUOUS
10
194.344
20
-65.19
11
194.394
21
-65.19
0
LINE
8
BLACK
6
CONTINUOUS
10
194.394
20
-65.19
11
194.558
21
-65.2227
0
LINE
8
BLACK
6
CONTINUOUS
10
194.558
20
-65.2227
11
194.713
21
-65.2867
0
LINE
8
BLACK
6
CONTINUOUS
10
194.713
20
-65.2867
11
194.852
21
-65.3798
0
LINE
8
BLACK
6
CONTINUOUS
10
194.852
20
-65.3798
11
194.97
21
-65.4982
0
LINE
8
BLACK
6
CONTINUOUS
10
194.97
20
-65.4982
11
195.063
21
-65.6374
0
LINE
8
BLACK
6
CONTINUOUS
10
195.063
20
-65.6374
11
195.127
21
-65.7921
0
LINE
8
BLACK
6
CONTINUOUS
10
195.127
20
-65.7921
11
195.16
21
-65.9563
0
LINE
8
BLACK
6
CONTINUOUS
10
195.16
20
-65.9563
11
195.16
21
-66.1237
0
LINE
8
BLACK
6
CONTINUOUS
10
195.16
20
-66.1237
11
195.127
21
-66.2879
0
LINE
8
BLACK
6
CONTINUOUS
10
195.127
20
-66.2879
11
195.063
21
-66.4426
0
LINE
8
BLACK
6
CONTINUOUS
10
195.063
20
-66.4426
11
194.97
21
-66.5818
0
LINE
8
BLACK
6
CONTINUOUS
10
194.97
20
-66.5818
11
194.852
21
-66.7002
0
LINE
8
BLACK
6
CONTINUOUS
10
194.852
20
-66.7002
11
194.713
21
-66.7933
0
LINE
8
BLACK
6
CONTINUOUS
10
194.713
20
-66.7933
11
194.558
21
-66.8573
0
LINE
8
BLACK
6
CONTINUOUS
10
194.558
20
-66.8573
11
194.394
21
-66.89
0
LINE
8
BLACK
6
CONTINUOUS
10
194.394
20
-66.89
11
194.226
21
-66.89
0
LINE
8
BLACK
6
CONTINUOUS
10
194.226
20
-66.89
11
194.062
21
-66.8573
0
LINE
8
BLACK
6
CONTINUOUS
10
194.062
20
-66.8573
11
193.907
21
-66.7933
0
LINE
8
BLACK
6
CONTINUOUS
10
193.907
20
-66.7933
11
193.768
21
-66.7002
0
LINE
8
BLACK
6
CONTINUOUS
10
193.768
20
-66.7002
11
193.65
21
-66.5818
0
LINE
8
BLACK
6
CONTINUOUS
10
193.65
20
-66.5818
11
193.557
21
-66.4426
0
LINE
8
BLACK
6
CONTINUOUS
10
193.557
20
-66.4426
11
193.493
21
-66.2879
0
LINE
8
BLACK
6
CONTINUOUS
10
193.493
20
-66.2879
11
193.46
21
-66.1237
0
LINE
8
BLACK
6
CONTINUOUS
10
193.46
20
-66.1237
11
193.46
21
-66.0739
0
LINE
8
BLACK
6
CONTINUOUS
10
193.46
20
-66.0739
11
193.04
21
-65.6537
0
LINE
8
BLACK
6
CONTINUOUS
10
193.04
20
-65.6537
11
193.04
21
-65.6537
0
LINE
8
BLACK
6
CONTINUOUS
10
193.04
20
-65.6537
11
190.826
21
-63.44
0
LINE
8
BLACK
6
CONTINUOUS
10
190.826
20
-63.44
11
165.254
21
-63.44
0
LINE
8
BLACK
6
CONTINUOUS
10
165.254
20
-63.44
11
162.55
21
-66.1436
0
LINE
8
BLACK
6
CONTINUOUS
10
162.55
20
-66.1436
11
162.55
21
-82.7875
0
LINE
8
BLACK
6
CONTINUOUS
10
162.55
20
-82.7875
11
164.228
21
-84.465
0
LINE
8
BLACK
6
CONTINUOUS
10
164.228
20
-84.465
11
164.595
21
-84.465
0
LINE
8
BLACK
6
CONTINUOUS
10
164.595
20
-84.465
11
164.721
21
-84.381
0
LINE
8
BLACK
6
CONTINUOUS
10
164.721
20
-84.381
11
164.867
21
-84.3207
0
LINE
8
BLACK
6
CONTINUOUS
10
164.867
20
-84.3207
11
165.021
21
-84.29
0
LINE
8
BLACK
6
CONTINUOUS
10
165.021
20
-84.29
11
165.179
21
-84.29
0
LINE
8
BLACK
6
CONTINUOUS
10
165.179
20
-84.29
11
165.333
21
-84.3207
0
LINE
8
BLACK
6
CONTINUOUS
10
165.333
20
-84.3207
11
165.479
21
-84.381
0
LINE
8
BLACK
6
CONTINUOUS
10
165.479
20
-84.381
11
165.61
21
-84.4686
0
LINE
8
BLACK
6
CONTINUOUS
10
165.61
20
-84.4686
11
165.721
21
-84.58
0
LINE
8
BLACK
6
CONTINUOUS
10
165.721
20
-84.58
11
165.809
21
-84.7111
0
LINE
8
BLACK
6
CONTINUOUS
10
165.809
20
-84.7111
11
165.869
21
-84.8566
0
LINE
8
BLACK
6
CONTINUOUS
10
165.869
20
-84.8566
11
165.9
21
-85.0112
0
LINE
8
BLACK
6
CONTINUOUS
10
165.9
20
-85.0112
11
165.9
21
-85.1688
0
LINE
8
BLACK
6
CONTINUOUS
10
165.9
20
-85.1688
11
165.869
21
-85.3234
0
LINE
8
BLACK
6
CONTINUOUS
10
165.869
20
-85.3234
11
165.809
21
-85.4689
0
LINE
8
BLACK
6
CONTINUOUS
10
165.809
20
-85.4689
11
165.721
21
-85.6
0
LINE
8
BLACK
6
CONTINUOUS
10
165.721
20
-85.6
11
165.61
21
-85.7114
0
LINE
8
BLACK
6
CONTINUOUS
10
165.61
20
-85.7114
11
165.479
21
-85.799
0
LINE
8
BLACK
6
CONTINUOUS
10
165.479
20
-85.799
11
165.333
21
-85.8593
0
LINE
8
BLACK
6
CONTINUOUS
10
165.333
20
-85.8593
11
165.179
21
-85.89
0
LINE
8
BLACK
6
CONTINUOUS
10
165.179
20
-85.89
11
165.021
21
-85.89
0
LINE
8
BLACK
6
CONTINUOUS
10
165.021
20
-85.89
11
164.867
21
-85.8593
0
LINE
8
BLACK
6
CONTINUOUS
10
164.867
20
-85.8593
11
164.721
21
-85.799
0
LINE
8
BLACK
6
CONTINUOUS
10
164.721
20
-85.799
11
164.595
21
-85.715
0
LINE
8
BLACK
6
CONTINUOUS
10
164.595
20
-85.715
11
163.999
21
-85.715
0
LINE
8
BLACK
6
CONTINUOUS
10
163.999
20
-85.715
11
163.969
21
-85.718
0
LINE
8
BLACK
6
CONTINUOUS
10
163.969
20
-85.718
11
163.938
21
-85.715
0
LINE
8
BLACK
6
CONTINUOUS
10
163.938
20
-85.715
11
163.938
21
-85.715
0
LINE
8
BLACK
6
CONTINUOUS
10
163.938
20
-85.715
11
163.846
21
-85.706
0
LINE
8
BLACK
6
CONTINUOUS
10
163.846
20
-85.706
11
163.728
21
-85.6702
0
LINE
8
BLACK
6
CONTINUOUS
10
163.728
20
-85.6702
11
163.62
21
-85.6122
0
LINE
8
BLACK
6
CONTINUOUS
10
163.62
20
-85.6122
11
163.525
21
-85.5341
0
LINE
8
BLACK
6
CONTINUOUS
10
163.525
20
-85.5341
11
163.505
21
-85.5102
0
LINE
8
BLACK
6
CONTINUOUS
10
163.505
20
-85.5102
11
161.505
21
-83.51
0
LINE
8
BLACK
6
CONTINUOUS
10
161.505
20
-83.51
11
161.481
21
-83.4904
0
LINE
8
BLACK
6
CONTINUOUS
10
161.481
20
-83.4904
11
161.403
21
-83.3953
0
LINE
8
BLACK
6
CONTINUOUS
10
161.403
20
-83.3953
11
161.345
21
-83.2867
0
LINE
8
BLACK
6
CONTINUOUS
10
161.345
20
-83.2867
11
161.309
21
-83.1689
0
LINE
8
BLACK
6
CONTINUOUS
10
161.309
20
-83.1689
11
161.3
21
-83.0771
0
LINE
8
BLACK
6
CONTINUOUS
10
161.3
20
-83.0771
11
161.3
21
-83.0771
0
LINE
8
BLACK
6
CONTINUOUS
10
161.3
20
-83.0771
11
161.297
21
-83.0464
0
LINE
8
BLACK
6
CONTINUOUS
10
161.297
20
-83.0464
11
161.3
21
-83.0157
0
LINE
8
BLACK
6
CONTINUOUS
10
161.3
20
-83.0157
11
161.3
21
-65.9154
0
LINE
8
BLACK
6
CONTINUOUS
10
161.3
20
-65.9154
11
161.297
21
-65.8847
0
LINE
8
BLACK
6
CONTINUOUS
10
161.297
20
-65.8847
11
161.309
21
-65.7622
0
LINE
8
BLACK
6
CONTINUOUS
10
161.309
20
-65.7622
11
161.345
21
-65.6443
0
LINE
8
BLACK
6
CONTINUOUS
10
161.345
20
-65.6443
11
161.403
21
-65.5358
0
LINE
8
BLACK
6
CONTINUOUS
10
161.403
20
-65.5358
11
161.461
21
-65.4644
0
LINE
8
BLACK
6
CONTINUOUS
10
161.461
20
-65.4644
11
161.481
21
-65.4406
0
LINE
8
BLACK
6
CONTINUOUS
10
161.481
20
-65.4406
11
161.505
21
-65.421
0
LINE
8
BLACK
6
CONTINUOUS
10
161.505
20
-65.421
11
164.531
21
-62.3948
0
LINE
8
BLACK
6
CONTINUOUS
10
164.531
20
-62.3948
11
164.551
21
-62.3709
0
LINE
8
BLACK
6
CONTINUOUS
10
164.551
20
-62.3709
11
164.598
21
-62.3317
0
LINE
8
BLACK
6
CONTINUOUS
10
164.598
20
-62.3317
11
164.646
21
-62.2928
0
LINE
8
BLACK
6
CONTINUOUS
10
164.646
20
-62.2928
11
164.754
21
-62.2348
0
LINE
8
BLACK
6
CONTINUOUS
10
164.754
20
-62.2348
11
164.754
21
-62.2348
0
LINE
8
BLACK
6
CONTINUOUS
10
164.754
20
-62.2348
11
164.872
21
-62.199
0
LINE
8
BLACK
6
CONTINUOUS
10
164.872
20
-62.199
11
164.964
21
-62.19
0
LINE
8
BLACK
6
CONTINUOUS
10
164.964
20
-62.19
11
164.964
21
-62.19
0
LINE
8
BLACK
6
CONTINUOUS
10
164.964
20
-62.19
11
164.995
21
-62.187
0
LINE
8
BLACK
6
CONTINUOUS
10
164.995
20
-62.187
11
165.025
21
-62.19
0
LINE
8
BLACK
6
CONTINUOUS
10
165.025
20
-62.19
11
191.054
21
-62.19
0
LINE
8
BLACK
6
CONTINUOUS
10
191.054
20
-62.19
11
191.085
21
-62.187
0
LINE
8
BLACK
6
CONTINUOUS
10
191.085
20
-62.187
11
191.116
21
-62.19
0
LINE
8
BLACK
6
CONTINUOUS
10
179.43
20
-82.1373
11
179.749
21
-82.2692
0
LINE
8
BLACK
6
CONTINUOUS
10
179.749
20
-82.2692
11
180.036
21
-82.4607
0
LINE
8
BLACK
6
CONTINUOUS
10
180.036
20
-82.4607
11
180.279
21
-82.7044
0
LINE
8
BLACK
6
CONTINUOUS
10
180.279
20
-82.7044
11
180.471
21
-82.9911
0
LINE
8
BLACK
6
CONTINUOUS
10
180.471
20
-82.9911
11
180.603
21
-83.3095
0
LINE
8
BLACK
6
CONTINUOUS
10
180.603
20
-83.3095
11
180.67
21
-83.6476
0
LINE
8
BLACK
6
CONTINUOUS
10
180.67
20
-83.6476
11
180.67
21
-83.9924
0
LINE
8
BLACK
6
CONTINUOUS
10
180.67
20
-83.9924
11
180.603
21
-84.3305
0
LINE
8
BLACK
6
CONTINUOUS
10
180.603
20
-84.3305
11
180.471
21
-84.6489
0
LINE
8
BLACK
6
CONTINUOUS
10
180.471
20
-84.6489
11
180.279
21
-84.9356
0
LINE
8
BLACK
6
CONTINUOUS
10
180.279
20
-84.9356
11
180.036
21
-85.1793
0
LINE
8
BLACK
6
CONTINUOUS
10
180.036
20
-85.1793
11
179.749
21
-85.3708
0
LINE
8
BLACK
6
CONTINUOUS
10
179.749
20
-85.3708
11
179.43
21
-85.5027
0
LINE
8
BLACK
6
CONTINUOUS
10
179.43
20
-85.5027
11
179.092
21
-85.57
0
LINE
8
BLACK
6
CONTINUOUS
10
179.092
20
-85.57
11
178.748
21
-85.57
0
LINE
8
BLACK
6
CONTINUOUS
10
178.748
20
-85.57
11
178.41
21
-85.5027
0
LINE
8
BLACK
6
CONTINUOUS
10
178.41
20
-85.5027
11
178.091
21
-85.3708
0
LINE
8
BLACK
6
CONTINUOUS
10
178.091
20
-85.3708
11
177.804
21
-85.1793
0
LINE
8
BLACK
6
CONTINUOUS
10
177.804
20
-85.1793
11
177.561
21
-84.9356
0
LINE
8
BLACK
6
CONTINUOUS
10
177.561
20
-84.9356
11
177.369
21
-84.6489
0
LINE
8
BLACK
6
CONTINUOUS
10
177.369
20
-84.6489
11
177.237
21
-84.3305
0
LINE
8
BLACK
6
CONTINUOUS
10
177.237
20
-84.3305
11
177.17
21
-83.9924
0
LINE
8
BLACK
6
CONTINUOUS
10
177.17
20
-83.9924
11
177.17
21
-83.6476
0
LINE
8
BLACK
6
CONTINUOUS
10
177.17
20
-83.6476
11
177.237
21
-83.3095
0
LINE
8
BLACK
6
CONTINUOUS
10
177.237
20
-83.3095
11
177.369
21
-82.9911
0
LINE
8
BLACK
6
CONTINUOUS
10
177.369
20
-82.9911
11
177.561
21
-82.7044
0
LINE
8
BLACK
6
CONTINUOUS
10
177.561
20
-82.7044
11
177.804
21
-82.4607
0
LINE
8
BLACK
6
CONTINUOUS
10
177.804
20
-82.4607
11
178.091
21
-82.2692
0
LINE
8
BLACK
6
CONTINUOUS
10
178.091
20
-82.2692
11
178.41
21
-82.1373
0
LINE
8
BLACK
6
CONTINUOUS
10
178.41
20
-82.1373
11
178.748
21
-82.07
0
LINE
8
BLACK
6
CONTINUOUS
10
178.748
20
-82.07
11
179.092
21
-82.07
0
LINE
8
BLACK
6
CONTINUOUS
10
179.092
20
-82.07
11
179.43
21
-82.1373
0
LINE
8
BLACK
6
CONTINUOUS
10
165.647
20
-63.69
11
190.014
21
-63.69
0
LINE
8
BLACK
6
CONTINUOUS
10
190.014
20
-63.69
11
190.045
21
-63.687
0
LINE
8
BLACK
6
CONTINUOUS
10
190.045
20
-63.687
11
190.076
21
-63.69
0
LINE
8
BLACK
6
CONTINUOUS
10
190.076
20
-63.69
11
190.076
21
-63.69
0
LINE
8
BLACK
6
CONTINUOUS
10
190.076
20
-63.69
11
190.168
21
-63.699
0
LINE
8
BLACK
6
CONTINUOUS
10
190.168
20
-63.699
11
190.285
21
-63.7348
0
LINE
8
BLACK
6
CONTINUOUS
10
190.285
20
-63.7348
11
190.394
21
-63.7928
0
LINE
8
BLACK
6
CONTINUOUS
10
190.394
20
-63.7928
11
190.489
21
-63.8709
0
LINE
8
BLACK
6
CONTINUOUS
10
190.489
20
-63.8709
11
190.509
21
-63.8948
0
LINE
8
BLACK
6
CONTINUOUS
10
190.509
20
-63.8948
11
191.384
21
-64.7698
0
LINE
8
BLACK
6
CONTINUOUS
10
191.384
20
-64.7698
11
191.384
21
-64.7698
0
LINE
8
BLACK
6
CONTINUOUS
10
191.384
20
-64.7698
11
191.804
21
-65.19
0
LINE
8
BLACK
6
CONTINUOUS
10
191.804
20
-65.19
11
191.854
21
-65.19
0
LINE
8
BLACK
6
CONTINUOUS
10
191.854
20
-65.19
11
192.018
21
-65.2227
0
LINE
8
BLACK
6
CONTINUOUS
10
192.018
20
-65.2227
11
192.173
21
-65.2867
0
LINE
8
BLACK
6
CONTINUOUS
10
192.173
20
-65.2867
11
192.312
21
-65.3798
0
LINE
8
BLACK
6
CONTINUOUS
10
192.312
20
-65.3798
11
192.43
21
-65.4982
0
LINE
8
BLACK
6
CONTINUOUS
10
192.43
20
-65.4982
11
192.523
21
-65.6374
0
LINE
8
BLACK
6
CONTINUOUS
10
192.523
20
-65.6374
11
192.587
21
-65.7921
0
LINE
8
BLACK
6
CONTINUOUS
10
192.587
20
-65.7921
11
192.62
21
-65.9563
0
LINE
8
BLACK
6
CONTINUOUS
10
192.62
20
-65.9563
11
192.62
21
-66.1237
0
LINE
8
BLACK
6
CONTINUOUS
10
192.62
20
-66.1237
11
192.587
21
-66.2879
0
LINE
8
BLACK
6
CONTINUOUS
10
192.587
20
-66.2879
11
192.523
21
-66.4426
0
LINE
8
BLACK
6
CONTINUOUS
10
192.523
20
-66.4426
11
192.43
21
-66.5818
0
LINE
8
BLACK
6
CONTINUOUS
10
192.43
20
-66.5818
11
192.312
21
-66.7002
0
LINE
8
BLACK
6
CONTINUOUS
10
192.312
20
-66.7002
11
192.173
21
-66.7933
0
LINE
8
BLACK
6
CONTINUOUS
10
192.173
20
-66.7933
11
192.018
21
-66.8573
0
LINE
8
BLACK
6
CONTINUOUS
10
192.018
20
-66.8573
11
191.854
21
-66.89
0
LINE
8
BLACK
6
CONTINUOUS
10
191.854
20
-66.89
11
191.686
21
-66.89
0
LINE
8
BLACK
6
CONTINUOUS
10
191.686
20
-66.89
11
191.522
21
-66.8573
0
LINE
8
BLACK
6
CONTINUOUS
10
191.522
20
-66.8573
11
191.367
21
-66.7933
0
LINE
8
BLACK
6
CONTINUOUS
10
191.367
20
-66.7933
11
191.228
21
-66.7002
0
LINE
8
BLACK
6
CONTINUOUS
10
191.228
20
-66.7002
11
191.11
21
-66.5818
0
LINE
8
BLACK
6
CONTINUOUS
10
191.11
20
-66.5818
11
191.017
21
-66.4426
0
LINE
8
BLACK
6
CONTINUOUS
10
191.017
20
-66.4426
11
190.953
21
-66.2879
0
LINE
8
BLACK
6
CONTINUOUS
10
190.953
20
-66.2879
11
190.92
21
-66.1237
0
LINE
8
BLACK
6
CONTINUOUS
10
190.92
20
-66.1237
11
190.92
21
-66.0739
0
LINE
8
BLACK
6
CONTINUOUS
10
190.92
20
-66.0739
11
190.5
21
-65.6537
0
LINE
8
BLACK
6
CONTINUOUS
10
190.5
20
-65.6537
11
190.5
21
-65.6537
0
LINE
8
BLACK
6
CONTINUOUS
10
190.5
20
-65.6537
11
189.786
21
-64.94
0
LINE
8
BLACK
6
CONTINUOUS
10
189.786
20
-64.94
11
165.875
21
-64.94
0
LINE
8
BLACK
6
CONTINUOUS
10
165.875
20
-64.94
11
164.05
21
-66.7649
0
LINE
8
BLACK
6
CONTINUOUS
10
164.05
20
-66.7649
11
164.05
21
-81.7475
0
LINE
8
BLACK
6
CONTINUOUS
10
164.05
20
-81.7475
11
164.228
21
-81.925
0
LINE
8
BLACK
6
CONTINUOUS
10
164.228
20
-81.925
11
164.595
21
-81.925
0
LINE
8
BLACK
6
CONTINUOUS
10
164.595
20
-81.925
11
164.721
21
-81.841
0
LINE
8
BLACK
6
CONTINUOUS
10
164.721
20
-81.841
11
164.867
21
-81.7807
0
LINE
8
BLACK
6
CONTINUOUS
10
164.867
20
-81.7807
11
165.021
21
-81.75
0
LINE
8
BLACK
6
CONTINUOUS
10
165.021
20
-81.75
11
165.179
21
-81.75
0
LINE
8
BLACK
6
CONTINUOUS
10
165.179
20
-81.75
11
165.333
21
-81.7807
0
LINE
8
BLACK
6
CONTINUOUS
10
165.333
20
-81.7807
11
165.479
21
-81.841
0
LINE
8
BLACK
6
CONTINUOUS
10
165.479
20
-81.841
11
165.61
21
-81.9286
0
LINE
8
BLACK
6
CONTINUOUS
10
165.61
20
-81.9286
11
165.721
21
-82.04
0
LINE
8
BLACK
6
CONTINUOUS
10
165.721
20
-82.04
11
165.809
21
-82.1711
0
LINE
8
BLACK
6
CONTINUOUS
10
165.809
20
-82.1711
11
165.869
21
-82.3166
0
LINE
8
BLACK
6
CONTINUOUS
10
165.869
20
-82.3166
11
165.9
21
-82.4712
0
LINE
8
BLACK
6
CONTINUOUS
10
165.9
20
-82.4712
11
165.9
21
-82.6288
0
LINE
8
BLACK
6
CONTINUOUS
10
165.9
20
-82.6288
11
165.869
21
-82.7834
0
LINE
8
BLACK
6
CONTINUOUS
10
165.869
20
-82.7834
11
165.809
21
-82.9289
0
LINE
8
BLACK
6
CONTINUOUS
10
165.809
20
-82.9289
11
165.721
21
-83.06
0
LINE
8
BLACK
6
CONTINUOUS
10
165.721
20
-83.06
11
165.61
21
-83.1714
0
LINE
8
BLACK
6
CONTINUOUS
10
165.61
20
-83.1714
11
165.479
21
-83.259
0
LINE
8
BLACK
6
CONTINUOUS
10
165.479
20
-83.259
11
165.333
21
-83.3193
0
LINE
8
BLACK
6
CONTINUOUS
10
165.333
20
-83.3193
11
165.179
21
-83.35
0
LINE
8
BLACK
6
CONTINUOUS
10
165.179
20
-83.35
11
165.021
21
-83.35
0
LINE
8
BLACK
6
CONTINUOUS
10
165.021
20
-83.35
11
164.867
21
-83.3193
0
LINE
8
BLACK
6
CONTINUOUS
10
164.867
20
-83.3193
11
164.721
21
-83.259
0
LINE
8
BLACK
6
CONTINUOUS
10
164.721
20
-83.259
11
164.595
21
-83.175
0
LINE
8
BLACK
6
CONTINUOUS
10
164.595
20
-83.175
11
163.999
21
-83.175
0
LINE
8
BLACK
6
CONTINUOUS
10
163.999
20
-83.175
11
163.969
21
-83.178
0
LINE
8
BLACK
6
CONTINUOUS
10
163.969
20
-83.178
11
163.938
21
-83.175
0
LINE
8
BLACK
6
CONTINUOUS
10
163.938
20
-83.175
11
163.938
21
-83.175
0
LINE
8
BLACK
6
CONTINUOUS
10
163.938
20
-83.175
11
163.846
21
-83.166
0
LINE
8
BLACK
6
CONTINUOUS
10
163.846
20
-83.166
11
163.728
21
-83.1302
0
LINE
8
BLACK
6
CONTINUOUS
10
163.728
20
-83.1302
11
163.62
21
-83.0722
0
LINE
8
BLACK
6
CONTINUOUS
10
163.62
20
-83.0722
11
163.62
21
-83.0722
0
LINE
8
BLACK
6
CONTINUOUS
10
163.62
20
-83.0722
11
163.548
21
-83.0137
0
LINE
8
BLACK
6
CONTINUOUS
10
163.548
20
-83.0137
11
163.525
21
-82.9941
0
LINE
8
BLACK
6
CONTINUOUS
10
163.525
20
-82.9941
11
163.505
21
-82.9702
0
LINE
8
BLACK
6
CONTINUOUS
10
163.505
20
-82.9702
11
163.005
21
-82.47
0
LINE
8
BLACK
6
CONTINUOUS
10
163.005
20
-82.47
11
162.981
21
-82.4504
0
LINE
8
BLACK
6
CONTINUOUS
10
162.981
20
-82.4504
11
162.903
21
-82.3553
0
LINE
8
BLACK
6
CONTINUOUS
10
162.903
20
-82.3553
11
162.845
21
-82.2467
0
LINE
8
BLACK
6
CONTINUOUS
10
162.845
20
-82.2467
11
162.809
21
-82.1289
0
LINE
8
BLACK
6
CONTINUOUS
10
162.809
20
-82.1289
11
162.8
21
-82.0371
0
LINE
8
BLACK
6
CONTINUOUS
10
162.8
20
-82.0371
11
162.8
21
-82.0371
0
LINE
8
BLACK
6
CONTINUOUS
10
162.8
20
-82.0371
11
162.797
21
-82.0064
0
LINE
8
BLACK
6
CONTINUOUS
10
162.797
20
-82.0064
11
162.8
21
-81.9757
0
LINE
8
BLACK
6
CONTINUOUS
10
162.8
20
-81.9757
11
162.8
21
-66.5367
0
LINE
8
BLACK
6
CONTINUOUS
10
162.8
20
-66.5367
11
162.797
21
-66.506
0
LINE
8
BLACK
6
CONTINUOUS
10
162.797
20
-66.506
11
162.809
21
-66.3835
0
LINE
8
BLACK
6
CONTINUOUS
10
162.809
20
-66.3835
11
162.845
21
-66.2657
0
LINE
8
BLACK
6
CONTINUOUS
10
162.845
20
-66.2657
11
162.903
21
-66.1571
0
LINE
8
BLACK
6
CONTINUOUS
10
162.903
20
-66.1571
11
162.961
21
-66.0858
0
LINE
8
BLACK
6
CONTINUOUS
10
162.961
20
-66.0858
11
162.981
21
-66.0619
0
LINE
8
BLACK
6
CONTINUOUS
10
162.981
20
-66.0619
11
163.005
21
-66.0423
0
LINE
8
BLACK
6
CONTINUOUS
10
163.005
20
-66.0423
11
165.152
21
-63.8948
0
LINE
8
BLACK
6
CONTINUOUS
10
165.152
20
-63.8948
11
165.172
21
-63.8709
0
LINE
8
BLACK
6
CONTINUOUS
10
165.172
20
-63.8709
11
165.267
21
-63.7928
0
LINE
8
BLACK
6
CONTINUOUS
10
165.267
20
-63.7928
11
165.376
21
-63.7348
0
LINE
8
BLACK
6
CONTINUOUS
10
165.376
20
-63.7348
11
165.493
21
-63.699
0
LINE
8
BLACK
6
CONTINUOUS
10
165.493
20
-63.699
11
165.585
21
-63.69
0
LINE
8
BLACK
6
CONTINUOUS
10
165.585
20
-63.69
11
165.585
21
-63.69
0
LINE
8
BLACK
6
CONTINUOUS
10
165.585
20
-63.69
11
165.616
21
-63.687
0
LINE
8
BLACK
6
CONTINUOUS
10
165.616
20
-63.687
11
165.647
21
-63.69
0
LINE
8
BLACK
6
CONTINUOUS
10
150.093
20
-81.7807
11
150.239
21
-81.841
0
LINE
8
BLACK
6
CONTINUOUS
10
150.239
20
-81.841
11
150.37
21
-81.9286
0
LINE
8
BLACK
6
CONTINUOUS
10
150.37
20
-81.9286
11
150.481
21
-82.04
0
LINE
8
BLACK
6
CONTINUOUS
10
150.481
20
-82.04
11
150.569
21
-82.1711
0
LINE
8
BLACK
6
CONTINUOUS
10
150.569
20
-82.1711
11
150.629
21
-82.3166
0
LINE
8
BLACK
6
CONTINUOUS
10
150.629
20
-82.3166
11
150.66
21
-82.4712
0
LINE
8
BLACK
6
CONTINUOUS
10
150.66
20
-82.4712
11
150.66
21
-82.6288
0
LINE
8
BLACK
6
CONTINUOUS
10
150.66
20
-82.6288
11
150.629
21
-82.7834
0
LINE
8
BLACK
6
CONTINUOUS
10
150.629
20
-82.7834
11
150.569
21
-82.9289
0
LINE
8
BLACK
6
CONTINUOUS
10
150.569
20
-82.9289
11
150.481
21
-83.06
0
LINE
8
BLACK
6
CONTINUOUS
10
150.481
20
-83.06
11
150.37
21
-83.1714
0
LINE
8
BLACK
6
CONTINUOUS
10
150.37
20
-83.1714
11
150.239
21
-83.259
0
LINE
8
BLACK
6
CONTINUOUS
10
150.239
20
-83.259
11
150.093
21
-83.3193
0
LINE
8
BLACK
6
CONTINUOUS
10
150.093
20
-83.3193
11
149.939
21
-83.35
0
LINE
8
BLACK
6
CONTINUOUS
10
149.939
20
-83.35
11
149.781
21
-83.35
0
LINE
8
BLACK
6
CONTINUOUS
10
149.781
20
-83.35
11
149.627
21
-83.3193
0
LINE
8
BLACK
6
CONTINUOUS
10
149.627
20
-83.3193
11
149.481
21
-83.259
0
LINE
8
BLACK
6
CONTINUOUS
10
149.481
20
-83.259
11
149.35
21
-83.1714
0
LINE
8
BLACK
6
CONTINUOUS
10
149.35
20
-83.1714
11
149.239
21
-83.06
0
LINE
8
BLACK
6
CONTINUOUS
10
149.239
20
-83.06
11
149.151
21
-82.9289
0
LINE
8
BLACK
6
CONTINUOUS
10
149.151
20
-82.9289
11
149.091
21
-82.7834
0
LINE
8
BLACK
6
CONTINUOUS
10
149.091
20
-82.7834
11
149.06
21
-82.6288
0
LINE
8
BLACK
6
CONTINUOUS
10
149.06
20
-82.6288
11
149.06
21
-82.4712
0
LINE
8
BLACK
6
CONTINUOUS
10
149.06
20
-82.4712
11
149.091
21
-82.3166
0
LINE
8
BLACK
6
CONTINUOUS
10
149.091
20
-82.3166
11
149.151
21
-82.1711
0
LINE
8
BLACK
6
CONTINUOUS
10
149.151
20
-82.1711
11
149.239
21
-82.04
0
LINE
8
BLACK
6
CONTINUOUS
10
149.239
20
-82.04
11
149.35
21
-81.9286
0
LINE
8
BLACK
6
CONTINUOUS
10
149.35
20
-81.9286
11
149.481
21
-81.841
0
LINE
8
BLACK
6
CONTINUOUS
10
149.481
20
-81.841
11
149.627
21
-81.7807
0
LINE
8
BLACK
6
CONTINUOUS
10
149.627
20
-81.7807
11
149.781
21
-81.75
0
LINE
8
BLACK
6
CONTINUOUS
10
149.781
20
-81.75
11
149.939
21
-81.75
0
LINE
8
BLACK
6
CONTINUOUS
10
149.939
20
-81.75
11
150.093
21
-81.7807
0
LINE
8
BLACK
6
CONTINUOUS
10
189.478
20
-65.2227
11
189.633
21
-65.2867
0
LINE
8
BLACK
6
CONTINUOUS
10
189.633
20
-65.2867
11
189.772
21
-65.3798
0
LINE
8
BLACK
6
CONTINUOUS
10
189.772
20
-65.3798
11
189.89
21
-65.4982
0
LINE
8
BLACK
6
CONTINUOUS
10
189.89
20
-65.4982
11
189.983
21
-65.6374
0
LINE
8
BLACK
6
CONTINUOUS
10
189.983
20
-65.6374
11
190.047
21
-65.7921
0
LINE
8
BLACK
6
CONTINUOUS
10
190.047
20
-65.7921
11
190.08
21
-65.9563
0
LINE
8
BLACK
6
CONTINUOUS
10
190.08
20
-65.9563
11
190.08
21
-66.1237
0
LINE
8
BLACK
6
CONTINUOUS
10
190.08
20
-66.1237
11
190.047
21
-66.2879
0
LINE
8
BLACK
6
CONTINUOUS
10
190.047
20
-66.2879
11
189.983
21
-66.4426
0
LINE
8
BLACK
6
CONTINUOUS
10
189.983
20
-66.4426
11
189.89
21
-66.5818
0
LINE
8
BLACK
6
CONTINUOUS
10
189.89
20
-66.5818
11
189.855
21
-66.6171
0
LINE
8
BLACK
6
CONTINUOUS
10
189.855
20
-66.6171
11
189.855
21
-74.8993
0
LINE
8
BLACK
6
CONTINUOUS
10
189.855
20
-74.8993
11
189.858
21
-74.93
0
LINE
8
BLACK
6
CONTINUOUS
10
189.858
20
-74.93
11
189.855
21
-74.9607
0
LINE
8
BLACK
6
CONTINUOUS
10
189.855
20
-74.9607
11
189.855
21
-76.9211
0
LINE
8
BLACK
6
CONTINUOUS
10
189.855
20
-76.9211
11
193.589
21
-80.655
0
LINE
8
BLACK
6
CONTINUOUS
10
193.589
20
-80.655
11
194.813
21
-80.655
0
LINE
8
BLACK
6
CONTINUOUS
10
194.813
20
-80.655
11
194.856
21
-80.6032
0
LINE
8
BLACK
6
CONTINUOUS
10
194.856
20
-80.6032
11
195.001
21
-80.4842
0
LINE
8
BLACK
6
CONTINUOUS
10
195.001
20
-80.4842
11
195.166
21
-80.3957
0
LINE
8
BLACK
6
CONTINUOUS
10
195.166
20
-80.3957
11
195.346
21
-80.3413
0
LINE
8
BLACK
6
CONTINUOUS
10
195.346
20
-80.3413
11
195.486
21
-80.3275
0
LINE
8
BLACK
6
CONTINUOUS
10
195.486
20
-80.3275
11
195.674
21
-80.3275
0
LINE
8
BLACK
6
CONTINUOUS
10
195.674
20
-80.3275
11
195.814
21
-80.3413
0
LINE
8
BLACK
6
CONTINUOUS
10
195.814
20
-80.3413
11
195.994
21
-80.3957
0
LINE
8
BLACK
6
CONTINUOUS
10
195.994
20
-80.3957
11
196.159
21
-80.4842
0
LINE
8
BLACK
6
CONTINUOUS
10
196.159
20
-80.4842
11
196.304
21
-80.6032
0
LINE
8
BLACK
6
CONTINUOUS
10
196.304
20
-80.6032
11
196.423
21
-80.7483
0
LINE
8
BLACK
6
CONTINUOUS
10
196.423
20
-80.7483
11
196.512
21
-80.9137
0
LINE
8
BLACK
6
CONTINUOUS
10
196.512
20
-80.9137
11
196.566
21
-81.0933
0
LINE
8
BLACK
6
CONTINUOUS
10
196.566
20
-81.0933
11
196.585
21
-81.28
0
LINE
8
BLACK
6
CONTINUOUS
10
196.585
20
-81.28
11
196.566
21
-81.4667
0
LINE
8
BLACK
6
CONTINUOUS
10
196.566
20
-81.4667
11
196.512
21
-81.6463
0
LINE
8
BLACK
6
CONTINUOUS
10
196.512
20
-81.6463
11
196.423
21
-81.8117
0
LINE
8
BLACK
6
CONTINUOUS
10
196.423
20
-81.8117
11
196.304
21
-81.9568
0
LINE
8
BLACK
6
CONTINUOUS
10
196.304
20
-81.9568
11
196.159
21
-82.0758
0
LINE
8
BLACK
6
CONTINUOUS
10
196.159
20
-82.0758
11
195.994
21
-82.1643
0
LINE
8
BLACK
6
CONTINUOUS
10
195.994
20
-82.1643
11
195.814
21
-82.2187
0
LINE
8
BLACK
6
CONTINUOUS
10
195.814
20
-82.2187
11
195.674
21
-82.2325
0
LINE
8
BLACK
6
CONTINUOUS
10
195.674
20
-82.2325
11
195.486
21
-82.2325
0
LINE
8
BLACK
6
CONTINUOUS
10
195.486
20
-82.2325
11
195.346
21
-82.2187
0
LINE
8
BLACK
6
CONTINUOUS
10
195.346
20
-82.2187
11
195.166
21
-82.1643
0
LINE
8
BLACK
6
CONTINUOUS
10
195.166
20
-82.1643
11
195.001
21
-82.0758
0
LINE
8
BLACK
6
CONTINUOUS
10
195.001
20
-82.0758
11
194.856
21
-81.9568
0
LINE
8
BLACK
6
CONTINUOUS
10
194.856
20
-81.9568
11
194.813
21
-81.905
0
LINE
8
BLACK
6
CONTINUOUS
10
194.813
20
-81.905
11
193.361
21
-81.905
0
LINE
8
BLACK
6
CONTINUOUS
10
193.361
20
-81.905
11
193.33
21
-81.908
0
LINE
8
BLACK
6
CONTINUOUS
10
193.33
20
-81.908
11
193.299
21
-81.905
0
LINE
8
BLACK
6
CONTINUOUS
10
193.299
20
-81.905
11
193.299
21
-81.905
0
LINE
8
BLACK
6
CONTINUOUS
10
193.299
20
-81.905
11
193.207
21
-81.896
0
LINE
8
BLACK
6
CONTINUOUS
10
193.207
20
-81.896
11
193.09
21
-81.8602
0
LINE
8
BLACK
6
CONTINUOUS
10
193.09
20
-81.8602
11
193.039
21
-81.8332
0
LINE
8
BLACK
6
CONTINUOUS
10
193.039
20
-81.8332
11
192.981
21
-81.8022
0
LINE
8
BLACK
6
CONTINUOUS
10
192.981
20
-81.8022
11
192.91
21
-81.7437
0
LINE
8
BLACK
6
CONTINUOUS
10
192.91
20
-81.7437
11
192.91
21
-81.7436
0
LINE
8
BLACK
6
CONTINUOUS
10
192.91
20
-81.7436
11
192.886
21
-81.7241
0
LINE
8
BLACK
6
CONTINUOUS
10
192.886
20
-81.7241
11
192.866
21
-81.7002
0
LINE
8
BLACK
6
CONTINUOUS
10
192.866
20
-81.7002
11
188.81
21
-77.6437
0
LINE
8
BLACK
6
CONTINUOUS
10
188.81
20
-77.6437
11
188.786
21
-77.6241
0
LINE
8
BLACK
6
CONTINUOUS
10
188.786
20
-77.6241
11
188.708
21
-77.5289
0
LINE
8
BLACK
6
CONTINUOUS
10
188.708
20
-77.5289
11
188.65
21
-77.4203
0
LINE
8
BLACK
6
CONTINUOUS
10
188.65
20
-77.4203
11
188.614
21
-77.3025
0
LINE
8
BLACK
6
CONTINUOUS
10
188.614
20
-77.3025
11
188.605
21
-77.2107
0
LINE
8
BLACK
6
CONTINUOUS
10
188.605
20
-77.2107
11
188.602
21
-77.18
0
LINE
8
BLACK
6
CONTINUOUS
10
188.602
20
-77.18
11
188.605
21
-77.1493
0
LINE
8
BLACK
6
CONTINUOUS
10
188.605
20
-77.1493
11
188.605
21
-75.555
0
LINE
8
BLACK
6
CONTINUOUS
10
188.605
20
-75.555
11
165.605
21
-75.555
0
LINE
8
BLACK
6
CONTINUOUS
10
165.605
20
-75.555
11
165.479
21
-75.639
0
LINE
8
BLACK
6
CONTINUOUS
10
165.479
20
-75.639
11
165.333
21
-75.6993
0
LINE
8
BLACK
6
CONTINUOUS
10
165.333
20
-75.6993
11
165.179
21
-75.73
0
LINE
8
BLACK
6
CONTINUOUS
10
165.179
20
-75.73
11
165.021
21
-75.73
0
LINE
8
BLACK
6
CONTINUOUS
10
165.021
20
-75.73
11
164.867
21
-75.6993
0
LINE
8
BLACK
6
CONTINUOUS
10
164.867
20
-75.6993
11
164.721
21
-75.639
0
LINE
8
BLACK
6
CONTINUOUS
10
164.721
20
-75.639
11
164.59
21
-75.5514
0
LINE
8
BLACK
6
CONTINUOUS
10
164.59
20
-75.5514
11
164.479
21
-75.44
0
LINE
8
BLACK
6
CONTINUOUS
10
164.479
20
-75.44
11
164.391
21
-75.3089
0
LINE
8
BLACK
6
CONTINUOUS
10
164.391
20
-75.3089
11
164.331
21
-75.1634
0
LINE
8
BLACK
6
CONTINUOUS
10
164.331
20
-75.1634
11
164.3
21
-75.0088
0
LINE
8
BLACK
6
CONTINUOUS
10
164.3
20
-75.0088
11
164.3
21
-74.8512
0
LINE
8
BLACK
6
CONTINUOUS
10
164.3
20
-74.8512
11
164.331
21
-74.6966
0
LINE
8
BLACK
6
CONTINUOUS
10
164.331
20
-74.6966
11
164.391
21
-74.5511
0
LINE
8
BLACK
6
CONTINUOUS
10
164.391
20
-74.5511
11
164.479
21
-74.42
0
LINE
8
BLACK
6
CONTINUOUS
10
164.479
20
-74.42
11
164.59
21
-74.3086
0
LINE
8
BLACK
6
CONTINUOUS
10
164.59
20
-74.3086
11
164.721
21
-74.221
0
LINE
8
BLACK
6
CONTINUOUS
10
164.721
20
-74.221
11
164.867
21
-74.1607
0
LINE
8
BLACK
6
CONTINUOUS
10
164.867
20
-74.1607
11
165.021
21
-74.13
0
LINE
8
BLACK
6
CONTINUOUS
10
165.021
20
-74.13
11
165.179
21
-74.13
0
LINE
8
BLACK
6
CONTINUOUS
10
165.179
20
-74.13
11
165.333
21
-74.1607
0
LINE
8
BLACK
6
CONTINUOUS
10
165.333
20
-74.1607
11
165.479
21
-74.221
0
LINE
8
BLACK
6
CONTINUOUS
10
165.479
20
-74.221
11
165.605
21
-74.305
0
LINE
8
BLACK
6
CONTINUOUS
10
165.605
20
-74.305
11
188.605
21
-74.305
0
LINE
8
BLACK
6
CONTINUOUS
10
188.605
20
-74.305
11
188.605
21
-66.6171
0
LINE
8
BLACK
6
CONTINUOUS
10
188.605
20
-66.6171
11
188.57
21
-66.5818
0
LINE
8
BLACK
6
CONTINUOUS
10
188.57
20
-66.5818
11
188.477
21
-66.4426
0
LINE
8
BLACK
6
CONTINUOUS
10
188.477
20
-66.4426
11
188.413
21
-66.2879
0
LINE
8
BLACK
6
CONTINUOUS
10
188.413
20
-66.2879
11
188.38
21
-66.1237
0
LINE
8
BLACK
6
CONTINUOUS
10
188.38
20
-66.1237
11
188.38
21
-65.9563
0
LINE
8
BLACK
6
CONTINUOUS
10
188.38
20
-65.9563
11
188.413
21
-65.7921
0
LINE
8
BLACK
6
CONTINUOUS
10
188.413
20
-65.7921
11
188.477
21
-65.6374
0
LINE
8
BLACK
6
CONTINUOUS
10
188.477
20
-65.6374
11
188.57
21
-65.4982
0
LINE
8
BLACK
6
CONTINUOUS
10
188.57
20
-65.4982
11
188.688
21
-65.3798
0
LINE
8
BLACK
6
CONTINUOUS
10
188.688
20
-65.3798
11
188.827
21
-65.2867
0
LINE
8
BLACK
6
CONTINUOUS
10
188.827
20
-65.2867
11
188.982
21
-65.2227
0
LINE
8
BLACK
6
CONTINUOUS
10
188.982
20
-65.2227
11
189.146
21
-65.19
0
LINE
8
BLACK
6
CONTINUOUS
10
189.146
20
-65.19
11
189.314
21
-65.19
0
LINE
8
BLACK
6
CONTINUOUS
10
189.314
20
-65.19
11
189.478
21
-65.2227
0
LINE
8
BLACK
6
CONTINUOUS
10
165.333
20
-79.2407
11
165.479
21
-79.301
0
LINE
8
BLACK
6
CONTINUOUS
10
165.479
20
-79.301
11
165.61
21
-79.3886
0
LINE
8
BLACK
6
CONTINUOUS
10
165.61
20
-79.3886
11
165.721
21
-79.5
0
LINE
8
BLACK
6
CONTINUOUS
10
165.721
20
-79.5
11
165.809
21
-79.6311
0
LINE
8
BLACK
6
CONTINUOUS
10
165.809
20
-79.6311
11
165.869
21
-79.7766
0
LINE
8
BLACK
6
CONTINUOUS
10
165.869
20
-79.7766
11
165.9
21
-79.9312
0
LINE
8
BLACK
6
CONTINUOUS
10
165.9
20
-79.9312
11
165.9
21
-80.0888
0
LINE
8
BLACK
6
CONTINUOUS
10
165.9
20
-80.0888
11
165.869
21
-80.2434
0
LINE
8
BLACK
6
CONTINUOUS
10
165.869
20
-80.2434
11
165.809
21
-80.3889
0
LINE
8
BLACK
6
CONTINUOUS
10
165.809
20
-80.3889
11
165.721
21
-80.52
0
LINE
8
BLACK
6
CONTINUOUS
10
165.721
20
-80.52
11
165.61
21
-80.6314
0
LINE
8
BLACK
6
CONTINUOUS
10
165.61
20
-80.6314
11
165.479
21
-80.719
0
LINE
8
BLACK
6
CONTINUOUS
10
165.479
20
-80.719
11
165.333
21
-80.7793
0
LINE
8
BLACK
6
CONTINUOUS
10
165.333
20
-80.7793
11
165.179
21
-80.81
0
LINE
8
BLACK
6
CONTINUOUS
10
165.179
20
-80.81
11
165.021
21
-80.81
0
LINE
8
BLACK
6
CONTINUOUS
10
165.021
20
-80.81
11
164.867
21
-80.7793
0
LINE
8
BLACK
6
CONTINUOUS
10
164.867
20
-80.7793
11
164.721
21
-80.719
0
LINE
8
BLACK
6
CONTINUOUS
10
164.721
20
-80.719
11
164.59
21
-80.6314
0
LINE
8
BLACK
6
CONTINUOUS
10
164.59
20
-80.6314
11
164.479
21
-80.52
0
LINE
8
BLACK
6
CONTINUOUS
10
164.479
20
-80.52
11
164.391
21
-80.3889
0
LINE
8
BLACK
6
CONTINUOUS
10
164.391
20
-80.3889
11
164.331
21
-80.2434
0
LINE
8
BLACK
6
CONTINUOUS
10
164.331
20
-80.2434
11
164.3
21
-80.0888
0
LINE
8
BLACK
6
CONTINUOUS
10
164.3
20
-80.0888
11
164.3
21
-79.9312
0
LINE
8
BLACK
6
CONTINUOUS
10
164.3
20
-79.9312
11
164.331
21
-79.7766
0
LINE
8
BLACK
6
CONTINUOUS
10
164.331
20
-79.7766
11
164.391
21
-79.6311
0
LINE
8
BLACK
6
CONTINUOUS
10
164.391
20
-79.6311
11
164.479
21
-79.5
0
LINE
8
BLACK
6
CONTINUOUS
10
164.479
20
-79.5
11
164.59
21
-79.3886
0
LINE
8
BLACK
6
CONTINUOUS
10
164.59
20
-79.3886
11
164.721
21
-79.301
0
LINE
8
BLACK
6
CONTINUOUS
10
164.721
20
-79.301
11
164.867
21
-79.2407
0
LINE
8
BLACK
6
CONTINUOUS
10
164.867
20
-79.2407
11
165.021
21
-79.21
0
LINE
8
BLACK
6
CONTINUOUS
10
165.021
20
-79.21
11
165.179
21
-79.21
0
LINE
8
BLACK
6
CONTINUOUS
10
165.179
20
-79.21
11
165.333
21
-79.2407
0
LINE
8
BLACK
6
CONTINUOUS
10
150.093
20
-79.2407
11
150.239
21
-79.301
0
LINE
8
BLACK
6
CONTINUOUS
10
150.239
20
-79.301
11
150.37
21
-79.3886
0
LINE
8
BLACK
6
CONTINUOUS
10
150.37
20
-79.3886
11
150.481
21
-79.5
0
LINE
8
BLACK
6
CONTINUOUS
10
150.481
20
-79.5
11
150.569
21
-79.6311
0
LINE
8
BLACK
6
CONTINUOUS
10
150.569
20
-79.6311
11
150.629
21
-79.7766
0
LINE
8
BLACK
6
CONTINUOUS
10
150.629
20
-79.7766
11
150.66
21
-79.9312
0
LINE
8
BLACK
6
CONTINUOUS
10
150.66
20
-79.9312
11
150.66
21
-80.0888
0
LINE
8
BLACK
6
CONTINUOUS
10
150.66
20
-80.0888
11
150.629
21
-80.2434
0
LINE
8
BLACK
6
CONTINUOUS
10
150.629
20
-80.2434
11
150.569
21
-80.3889
0
LINE
8
BLACK
6
CONTINUOUS
10
150.569
20
-80.3889
11
150.481
21
-80.52
0
LINE
8
BLACK
6
CONTINUOUS
10
150.481
20
-80.52
11
150.37
21
-80.6314
0
LINE
8
BLACK
6
CONTINUOUS
10
150.37
20
-80.6314
11
150.239
21
-80.719
0
LINE
8
BLACK
6
CONTINUOUS
10
150.239
20
-80.719
11
150.093
21
-80.7793
0
LINE
8
BLACK
6
CONTINUOUS
10
150.093
20
-80.7793
11
149.939
21
-80.81
0
LINE
8
BLACK
6
CONTINUOUS
10
149.939
20
-80.81
11
149.781
21
-80.81
0
LINE
8
BLACK
6
CONTINUOUS
10
149.781
20
-80.81
11
149.627
21
-80.7793
0
LINE
8
BLACK
6
CONTINUOUS
10
149.627
20
-80.7793
11
149.481
21
-80.719
0
LINE
8
BLACK
6
CONTINUOUS
10
149.481
20
-80.719
11
149.35
21
-80.6314
0
LINE
8
BLACK
6
CONTINUOUS
10
149.35
20
-80.6314
11
149.239
21
-80.52
0
LINE
8
BLACK
6
CONTINUOUS
10
149.239
20
-80.52
11
149.151
21
-80.3889
0
LINE
8
BLACK
6
CONTINUOUS
10
149.151
20
-80.3889
11
149.091
21
-80.2434
0
LINE
8
BLACK
6
CONTINUOUS
10
149.091
20
-80.2434
11
149.06
21
-80.0888
0
LINE
8
BLACK
6
CONTINUOUS
10
149.06
20
-80.0888
11
149.06
21
-79.9312
0
LINE
8
BLACK
6
CONTINUOUS
10
149.06
20
-79.9312
11
149.091
21
-79.7766
0
LINE
8
BLACK
6
CONTINUOUS
10
149.091
20
-79.7766
11
149.151
21
-79.6311
0
LINE
8
BLACK
6
CONTINUOUS
10
149.151
20
-79.6311
11
149.239
21
-79.5
0
LINE
8
BLACK
6
CONTINUOUS
10
149.239
20
-79.5
11
149.35
21
-79.3886
0
LINE
8
BLACK
6
CONTINUOUS
10
149.35
20
-79.3886
11
149.481
21
-79.301
0
LINE
8
BLACK
6
CONTINUOUS
10
149.481
20
-79.301
11
149.627
21
-79.2407
0
LINE
8
BLACK
6
CONTINUOUS
10
149.627
20
-79.2407
11
149.781
21
-79.21
0
LINE
8
BLACK
6
CONTINUOUS
10
149.781
20
-79.21
11
149.939
21
-79.21
0
LINE
8
BLACK
6
CONTINUOUS
10
149.939
20
-79.21
11
150.093
21
-79.2407
0
LINE
8
BLACK
6
CONTINUOUS
10
150.093
20
-76.7007
11
150.239
21
-76.761
0
LINE
8
BLACK
6
CONTINUOUS
10
150.239
20
-76.761
11
150.37
21
-76.8486
0
LINE
8
BLACK
6
CONTINUOUS
10
150.37
20
-76.8486
11
150.481
21
-76.96
0
LINE
8
BLACK
6
CONTINUOUS
10
150.481
20
-76.96
11
150.569
21
-77.0911
0
LINE
8
BLACK
6
CONTINUOUS
10
150.569
20
-77.0911
11
150.629
21
-77.2366
0
LINE
8
BLACK
6
CONTINUOUS
10
150.629
20
-77.2366
11
150.66
21
-77.3912
0
LINE
8
BLACK
6
CONTINUOUS
10
150.66
20
-77.3912
11
150.66
21
-77.5488
0
LINE
8
BLACK
6
CONTINUOUS
10
150.66
20
-77.5488
11
150.629
21
-77.7034
0
LINE
8
BLACK
6
CONTINUOUS
10
150.629
20
-77.7034
11
150.569
21
-77.8489
0
LINE
8
BLACK
6
CONTINUOUS
10
150.569
20
-77.8489
11
150.481
21
-77.98
0
LINE
8
BLACK
6
CONTINUOUS
10
150.481
20
-77.98
11
150.37
21
-78.0914
0
LINE
8
BLACK
6
CONTINUOUS
10
150.37
20
-78.0914
11
150.239
21
-78.179
0
LINE
8
BLACK
6
CONTINUOUS
10
150.239
20
-78.179
11
150.093
21
-78.2393
0
LINE
8
BLACK
6
CONTINUOUS
10
150.093
20
-78.2393
11
149.939
21
-78.27
0
LINE
8
BLACK
6
CONTINUOUS
10
149.939
20
-78.27
11
149.781
21
-78.27
0
LINE
8
BLACK
6
CONTINUOUS
10
149.781
20
-78.27
11
149.627
21
-78.2393
0
LINE
8
BLACK
6
CONTINUOUS
10
149.627
20
-78.2393
11
149.481
21
-78.179
0
LINE
8
BLACK
6
CONTINUOUS
10
149.481
20
-78.179
11
149.35
21
-78.0914
0
LINE
8
BLACK
6
CONTINUOUS
10
149.35
20
-78.0914
11
149.239
21
-77.98
0
LINE
8
BLACK
6
CONTINUOUS
10
149.239
20
-77.98
11
149.151
21
-77.8489
0
LINE
8
BLACK
6
CONTINUOUS
10
149.151
20
-77.8489
11
149.091
21
-77.7034
0
LINE
8
BLACK
6
CONTINUOUS
10
149.091
20
-77.7034
11
149.06
21
-77.5488
0
LINE
8
BLACK
6
CONTINUOUS
10
149.06
20
-77.5488
11
149.06
21
-77.3912
0
LINE
8
BLACK
6
CONTINUOUS
10
149.06
20
-77.3912
11
149.091
21
-77.2366
0
LINE
8
BLACK
6
CONTINUOUS
10
149.091
20
-77.2366
11
149.151
21
-77.0911
0
LINE
8
BLACK
6
CONTINUOUS
10
149.151
20
-77.0911
11
149.239
21
-76.96
0
LINE
8
BLACK
6
CONTINUOUS
10
149.239
20
-76.96
11
149.35
21
-76.8486
0
LINE
8
BLACK
6
CONTINUOUS
10
149.35
20
-76.8486
11
149.481
21
-76.761
0
LINE
8
BLACK
6
CONTINUOUS
10
149.481
20
-76.761
11
149.627
21
-76.7007
0
LINE
8
BLACK
6
CONTINUOUS
10
149.627
20
-76.7007
11
149.781
21
-76.67
0
LINE
8
BLACK
6
CONTINUOUS
10
149.781
20
-76.67
11
149.939
21
-76.67
0
LINE
8
BLACK
6
CONTINUOUS
10
149.939
20
-76.67
11
150.093
21
-76.7007
0
LINE
8
BLACK
6
CONTINUOUS
10
165.333
20
-76.7007
11
165.479
21
-76.761
0
LINE
8
BLACK
6
CONTINUOUS
10
165.479
20
-76.761
11
165.61
21
-76.8486
0
LINE
8
BLACK
6
CONTINUOUS
10
165.61
20
-76.8486
11
165.721
21
-76.96
0
LINE
8
BLACK
6
CONTINUOUS
10
165.721
20
-76.96
11
165.809
21
-77.0911
0
LINE
8
BLACK
6
CONTINUOUS
10
165.809
20
-77.0911
11
165.869
21
-77.2366
0
LINE
8
BLACK
6
CONTINUOUS
10
165.869
20
-77.2366
11
165.9
21
-77.3912
0
LINE
8
BLACK
6
CONTINUOUS
10
165.9
20
-77.3912
11
165.9
21
-77.5488
0
LINE
8
BLACK
6
CONTINUOUS
10
165.9
20
-77.5488
11
165.869
21
-77.7034
0
LINE
8
BLACK
6
CONTINUOUS
10
165.869
20
-77.7034
11
165.809
21
-77.8489
0
LINE
8
BLACK
6
CONTINUOUS
10
165.809
20
-77.8489
11
165.721
21
-77.98
0
LINE
8
BLACK
6
CONTINUOUS
10
165.721
20
-77.98
11
165.61
21
-78.0914
0
LINE
8
BLACK
6
CONTINUOUS
10
165.61
20
-78.0914
11
165.479
21
-78.179
0
LINE
8
BLACK
6
CONTINUOUS
10
165.479
20
-78.179
11
165.333
21
-78.2393
0
LINE
8
BLACK
6
CONTINUOUS
10
165.333
20
-78.2393
11
165.179
21
-78.27
0
LINE
8
BLACK
6
CONTINUOUS
10
165.179
20
-78.27
11
165.021
21
-78.27
0
LINE
8
BLACK
6
CONTINUOUS
10
165.021
20
-78.27
11
164.867
21
-78.2393
0
LINE
8
BLACK
6
CONTINUOUS
10
164.867
20
-78.2393
11
164.721
21
-78.179
0
LINE
8
BLACK
6
CONTINUOUS
10
164.721
20
-78.179
11
164.59
21
-78.0914
0
LINE
8
BLACK
6
CONTINUOUS
10
164.59
20
-78.0914
11
164.479
21
-77.98
0
LINE
8
BLACK
6
CONTINUOUS
10
164.479
20
-77.98
11
164.391
21
-77.8489
0
LINE
8
BLACK
6
CONTINUOUS
10
164.391
20
-77.8489
11
164.331
21
-77.7034
0
LINE
8
BLACK
6
CONTINUOUS
10
164.331
20
-77.7034
11
164.3
21
-77.5488
0
LINE
8
BLACK
6
CONTINUOUS
10
164.3
20
-77.5488
11
164.3
21
-77.3912
0
LINE
8
BLACK
6
CONTINUOUS
10
164.3
20
-77.3912
11
164.331
21
-77.2366
0
LINE
8
BLACK
6
CONTINUOUS
10
164.331
20
-77.2366
11
164.391
21
-77.0911
0
LINE
8
BLACK
6
CONTINUOUS
10
164.391
20
-77.0911
11
164.479
21
-76.96
0
LINE
8
BLACK
6
CONTINUOUS
10
164.479
20
-76.96
11
164.59
21
-76.8486
0
LINE
8
BLACK
6
CONTINUOUS
10
164.59
20
-76.8486
11
164.721
21
-76.761
0
LINE
8
BLACK
6
CONTINUOUS
10
164.721
20
-76.761
11
164.867
21
-76.7007
0
LINE
8
BLACK
6
CONTINUOUS
10
164.867
20
-76.7007
11
165.021
21
-76.67
0
LINE
8
BLACK
6
CONTINUOUS
10
165.021
20
-76.67
11
165.179
21
-76.67
0
LINE
8
BLACK
6
CONTINUOUS
10
165.179
20
-76.67
11
165.333
21
-76.7007
0
LINE
8
BLACK
6
CONTINUOUS
10
150.093
20
-71.6207
11
150.239
21
-71.681
0
LINE
8
BLACK
6
CONTINUOUS
10
150.239
20
-71.681
11
150.37
21
-71.7686
0
LINE
8
BLACK
6
CONTINUOUS
10
150.37
20
-71.7686
11
150.481
21
-71.88
0
LINE
8
BLACK
6
CONTINUOUS
10
150.481
20
-71.88
11
150.569
21
-72.0111
0
LINE
8
BLACK
6
CONTINUOUS
10
150.569
20
-72.0111
11
150.629
21
-72.1566
0
LINE
8
BLACK
6
CONTINUOUS
10
150.629
20
-72.1566
11
150.66
21
-72.3112
0
LINE
8
BLACK
6
CONTINUOUS
10
150.66
20
-72.3112
11
150.66
21
-72.4688
0
LINE
8
BLACK
6
CONTINUOUS
10
150.66
20
-72.4688
11
150.629
21
-72.6234
0
LINE
8
BLACK
6
CONTINUOUS
10
150.629
20
-72.6234
11
150.569
21
-72.7689
0
LINE
8
BLACK
6
CONTINUOUS
10
150.569
20
-72.7689
11
150.481
21
-72.9
0
LINE
8
BLACK
6
CONTINUOUS
10
150.481
20
-72.9
11
150.37
21
-73.0114
0
LINE
8
BLACK
6
CONTINUOUS
10
150.37
20
-73.0114
11
150.239
21
-73.099
0
LINE
8
BLACK
6
CONTINUOUS
10
150.239
20
-73.099
11
150.093
21
-73.1593
0
LINE
8
BLACK
6
CONTINUOUS
10
150.093
20
-73.1593
11
149.939
21
-73.19
0
LINE
8
BLACK
6
CONTINUOUS
10
149.939
20
-73.19
11
149.781
21
-73.19
0
LINE
8
BLACK
6
CONTINUOUS
10
149.781
20
-73.19
11
149.627
21
-73.1593
0
LINE
8
BLACK
6
CONTINUOUS
10
149.627
20
-73.1593
11
149.481
21
-73.099
0
LINE
8
BLACK
6
CONTINUOUS
10
149.481
20
-73.099
11
149.35
21
-73.0114
0
LINE
8
BLACK
6
CONTINUOUS
10
149.35
20
-73.0114
11
149.239
21
-72.9
0
LINE
8
BLACK
6
CONTINUOUS
10
149.239
20
-72.9
11
149.151
21
-72.7689
0
LINE
8
BLACK
6
CONTINUOUS
10
149.151
20
-72.7689
11
149.091
21
-72.6234
0
LINE
8
BLACK
6
CONTINUOUS
10
149.091
20
-72.6234
11
149.06
21
-72.4688
0
LINE
8
BLACK
6
CONTINUOUS
10
149.06
20
-72.4688
11
149.06
21
-72.3112
0
LINE
8
BLACK
6
CONTINUOUS
10
149.06
20
-72.3112
11
149.091
21
-72.1566
0
LINE
8
BLACK
6
CONTINUOUS
10
149.091
20
-72.1566
11
149.151
21
-72.0111
0
LINE
8
BLACK
6
CONTINUOUS
10
149.151
20
-72.0111
11
149.239
21
-71.88
0
LINE
8
BLACK
6
CONTINUOUS
10
149.239
20
-71.88
11
149.35
21
-71.7686
0
LINE
8
BLACK
6
CONTINUOUS
10
149.35
20
-71.7686
11
149.481
21
-71.681
0
LINE
8
BLACK
6
CONTINUOUS
10
149.481
20
-71.681
11
149.627
21
-71.6207
0
LINE
8
BLACK
6
CONTINUOUS
10
149.627
20
-71.6207
11
149.781
21
-71.59
0
LINE
8
BLACK
6
CONTINUOUS
10
149.781
20
-71.59
11
149.939
21
-71.59
0
LINE
8
BLACK
6
CONTINUOUS
10
149.939
20
-71.59
11
150.093
21
-71.6207
0
LINE
8
BLACK
6
CONTINUOUS
10
165.333
20
-71.6207
11
165.479
21
-71.681
0
LINE
8
BLACK
6
CONTINUOUS
10
165.479
20
-71.681
11
165.61
21
-71.7686
0
LINE
8
BLACK
6
CONTINUOUS
10
165.61
20
-71.7686
11
165.721
21
-71.88
0
LINE
8
BLACK
6
CONTINUOUS
10
165.721
20
-71.88
11
165.809
21
-72.0111
0
LINE
8
BLACK
6
CONTINUOUS
10
165.809
20
-72.0111
11
165.869
21
-72.1566
0
LINE
8
BLACK
6
CONTINUOUS
10
165.869
20
-72.1566
11
165.9
21
-72.3112
0
LINE
8
BLACK
6
CONTINUOUS
10
165.9
20
-72.3112
11
165.9
21
-72.4688
0
LINE
8
BLACK
6
CONTINUOUS
10
165.9
20
-72.4688
11
165.869
21
-72.6234
0
LINE
8
BLACK
6
CONTINUOUS
10
165.869
20
-72.6234
11
165.809
21
-72.7689
0
LINE
8
BLACK
6
CONTINUOUS
10
165.809
20
-72.7689
11
165.721
21
-72.9
0
LINE
8
BLACK
6
CONTINUOUS
10
165.721
20
-72.9
11
165.61
21
-73.0114
0
LINE
8
BLACK
6
CONTINUOUS
10
165.61
20
-73.0114
11
165.479
21
-73.099
0
LINE
8
BLACK
6
CONTINUOUS
10
165.479
20
-73.099
11
165.333
21
-73.1593
0
LINE
8
BLACK
6
CONTINUOUS
10
165.333
20
-73.1593
11
165.179
21
-73.19
0
LINE
8
BLACK
6
CONTINUOUS
10
165.179
20
-73.19
11
165.021
21
-73.19
0
LINE
8
BLACK
6
CONTINUOUS
10
165.021
20
-73.19
11
164.867
21
-73.1593
0
LINE
8
BLACK
6
CONTINUOUS
10
164.867
20
-73.1593
11
164.721
21
-73.099
0
LINE
8
BLACK
6
CONTINUOUS
10
164.721
20
-73.099
11
164.59
21
-73.0114
0
LINE
8
BLACK
6
CONTINUOUS
10
164.59
20
-73.0114
11
164.479
21
-72.9
0
LINE
8
BLACK
6
CONTINUOUS
10
164.479
20
-72.9
11
164.391
21
-72.7689
0
LINE
8
BLACK
6
CONTINUOUS
10
164.391
20
-72.7689
11
164.331
21
-72.6234
0
LINE
8
BLACK
6
CONTINUOUS
10
164.331
20
-72.6234
11
164.3
21
-72.4688
0
LINE
8
BLACK
6
CONTINUOUS
10
164.3
20
-72.4688
11
164.3
21
-72.3112
0
LINE
8
BLACK
6
CONTINUOUS
10
164.3
20
-72.3112
11
164.331
21
-72.1566
0
LINE
8
BLACK
6
CONTINUOUS
10
164.331
20
-72.1566
11
164.391
21
-72.0111
0
LINE
8
BLACK
6
CONTINUOUS
10
164.391
20
-72.0111
11
164.479
21
-71.88
0
LINE
8
BLACK
6
CONTINUOUS
10
164.479
20
-71.88
11
164.59
21
-71.7686
0
LINE
8
BLACK
6
CONTINUOUS
10
164.59
20
-71.7686
11
164.721
21
-71.681
0
LINE
8
BLACK
6
CONTINUOUS
10
164.721
20
-71.681
11
164.867
21
-71.6207
0
LINE
8
BLACK
6
CONTINUOUS
10
164.867
20
-71.6207
11
165.021
21
-71.59
0
LINE
8
BLACK
6
CONTINUOUS
10
165.021
20
-71.59
11
165.179
21
-71.59
0
LINE
8
BLACK
6
CONTINUOUS
10
165.179
20
-71.59
11
165.333
21
-71.6207
0
LINE
8
BLACK
6
CONTINUOUS
10
150.093
20
-69.0807
11
150.239
21
-69.141
0
LINE
8
BLACK
6
CONTINUOUS
10
150.239
20
-69.141
11
150.37
21
-69.2286
0
LINE
8
BLACK
6
CONTINUOUS
10
150.37
20
-69.2286
11
150.481
21
-69.34
0
LINE
8
BLACK
6
CONTINUOUS
10
150.481
20
-69.34
11
150.569
21
-69.4711
0
LINE
8
BLACK
6
CONTINUOUS
10
150.569
20
-69.4711
11
150.629
21
-69.6166
0
LINE
8
BLACK
6
CONTINUOUS
10
150.629
20
-69.6166
11
150.66
21
-69.7712
0
LINE
8
BLACK
6
CONTINUOUS
10
150.66
20
-69.7712
11
150.66
21
-69.9288
0
LINE
8
BLACK
6
CONTINUOUS
10
150.66
20
-69.9288
11
150.629
21
-70.0834
0
LINE
8
BLACK
6
CONTINUOUS
10
150.629
20
-70.0834
11
150.569
21
-70.2289
0
LINE
8
BLACK
6
CONTINUOUS
10
150.569
20
-70.2289
11
150.481
21
-70.36
0
LINE
8
BLACK
6
CONTINUOUS
10
150.481
20
-70.36
11
150.37
21
-70.4714
0
LINE
8
BLACK
6
CONTINUOUS
10
150.37
20
-70.4714
11
150.239
21
-70.559
0
LINE
8
BLACK
6
CONTINUOUS
10
150.239
20
-70.559
11
150.093
21
-70.6193
0
LINE
8
BLACK
6
CONTINUOUS
10
150.093
20
-70.6193
11
149.939
21
-70.65
0
LINE
8
BLACK
6
CONTINUOUS
10
149.939
20
-70.65
11
149.781
21
-70.65
0
LINE
8
BLACK
6
CONTINUOUS
10
149.781
20
-70.65
11
149.627
21
-70.6193
0
LINE
8
BLACK
6
CONTINUOUS
10
149.627
20
-70.6193
11
149.481
21
-70.559
0
LINE
8
BLACK
6
CONTINUOUS
10
149.481
20
-70.559
11
149.35
21
-70.4714
0
LINE
8
BLACK
6
CONTINUOUS
10
149.35
20
-70.4714
11
149.239
21
-70.36
0
LINE
8
BLACK
6
CONTINUOUS
10
149.239
20
-70.36
11
149.151
21
-70.2289
0
LINE
8
BLACK
6
CONTINUOUS
10
149.151
20
-70.2289
11
149.091
21
-70.0834
0
LINE
8
BLACK
6
CONTINUOUS
10
149.091
20
-70.0834
11
149.06
21
-69.9288
0
LINE
8
BLACK
6
CONTINUOUS
10
149.06
20
-69.9288
11
149.06
21
-69.7712
0
LINE
8
BLACK
6
CONTINUOUS
10
149.06
20
-69.7712
11
149.091
21
-69.6166
0
LINE
8
BLACK
6
CONTINUOUS
10
149.091
20
-69.6166
11
149.151
21
-69.4711
0
LINE
8
BLACK
6
CONTINUOUS
10
149.151
20
-69.4711
11
149.239
21
-69.34
0
LINE
8
BLACK
6
CONTINUOUS
10
149.239
20
-69.34
11
149.35
21
-69.2286
0
LINE
8
BLACK
6
CONTINUOUS
10
149.35
20
-69.2286
11
149.481
21
-69.141
0
LINE
8
BLACK
6
CONTINUOUS
10
149.481
20
-69.141
11
149.627
21
-69.0807
0
LINE
8
BLACK
6
CONTINUOUS
10
149.627
20
-69.0807
11
149.781
21
-69.05
0
LINE
8
BLACK
6
CONTINUOUS
10
149.781
20
-69.05
11
149.939
21
-69.05
0
LINE
8
BLACK
6
CONTINUOUS
10
149.939
20
-69.05
11
150.093
21
-69.0807
0
LINE
8
BLACK
6
CONTINUOUS
10
165.479
20
-70.559
11
165.333
21
-70.6193
0
LINE
8
BLACK
6
CONTINUOUS
10
165.333
20
-70.6193
11
165.179
21
-70.65
0
LINE
8
BLACK
6
CONTINUOUS
10
165.179
20
-70.65
11
165.021
21
-70.65
0
LINE
8
BLACK
6
CONTINUOUS
10
165.021
20
-70.65
11
164.867
21
-70.6193
0
LINE
8
BLACK
6
CONTINUOUS
10
164.867
20
-70.6193
11
164.721
21
-70.559
0
LINE
8
BLACK
6
CONTINUOUS
10
164.721
20
-70.559
11
164.59
21
-70.4714
0
LINE
8
BLACK
6
CONTINUOUS
10
164.59
20
-70.4714
11
164.479
21
-70.36
0
LINE
8
BLACK
6
CONTINUOUS
10
164.479
20
-70.36
11
164.391
21
-70.2289
0
LINE
8
BLACK
6
CONTINUOUS
10
164.391
20
-70.2289
11
164.331
21
-70.0834
0
LINE
8
BLACK
6
CONTINUOUS
10
164.331
20
-70.0834
11
164.3
21
-69.9288
0
LINE
8
BLACK
6
CONTINUOUS
10
164.3
20
-69.9288
11
164.3
21
-69.7712
0
LINE
8
BLACK
6
CONTINUOUS
10
164.3
20
-69.7712
11
164.331
21
-69.6166
0
LINE
8
BLACK
6
CONTINUOUS
10
164.331
20
-69.6166
11
164.391
21
-69.4711
0
LINE
8
BLACK
6
CONTINUOUS
10
164.391
20
-69.4711
11
164.479
21
-69.34
0
LINE
8
BLACK
6
CONTINUOUS
10
164.479
20
-69.34
11
164.59
21
-69.2286
0
LINE
8
BLACK
6
CONTINUOUS
10
164.59
20
-69.2286
11
164.721
21
-69.141
0
LINE
8
BLACK
6
CONTINUOUS
10
164.721
20
-69.141
11
164.867
21
-69.0807
0
LINE
8
BLACK
6
CONTINUOUS
10
164.867
20
-69.0807
11
165.021
21
-69.05
0
LINE
8
BLACK
6
CONTINUOUS
10
165.021
20
-69.05
11
165.179
21
-69.05
0
LINE
8
BLACK
6
CONTINUOUS
10
165.179
20
-69.05
11
165.333
21
-69.0807
0
LINE
8
BLACK
6
CONTINUOUS
10
165.333
20
-69.0807
11
165.479
21
-69.141
0
LINE
8
BLACK
6
CONTINUOUS
10
165.479
20
-69.141
11
165.605
21
-69.225
0
LINE
8
BLACK
6
CONTINUOUS
10
165.605
20
-69.225
11
184.721
21
-69.225
0
LINE
8
BLACK
6
CONTINUOUS
10
184.721
20
-69.225
11
186.065
21
-67.8811
0
LINE
8
BLACK
6
CONTINUOUS
10
186.065
20
-67.8811
11
186.065
21
-66.89
0
LINE
8
BLACK
6
CONTINUOUS
10
186.065
20
-66.89
11
185.84
21
-66.89
0
LINE
8
BLACK
6
CONTINUOUS
10
185.84
20
-66.89
11
185.84
21
-65.19
0
LINE
8
BLACK
6
CONTINUOUS
10
185.84
20
-65.19
11
187.54
21
-65.19
0
LINE
8
BLACK
6
CONTINUOUS
10
187.54
20
-65.19
11
187.54
21
-66.89
0
LINE
8
BLACK
6
CONTINUOUS
10
187.54
20
-66.89
11
187.315
21
-66.89
0
LINE
8
BLACK
6
CONTINUOUS
10
187.315
20
-66.89
11
187.315
21
-68.1093
0
LINE
8
BLACK
6
CONTINUOUS
10
187.315
20
-68.1093
11
187.318
21
-68.14
0
LINE
8
BLACK
6
CONTINUOUS
10
187.318
20
-68.14
11
187.315
21
-68.1707
0
LINE
8
BLACK
6
CONTINUOUS
10
187.315
20
-68.1707
11
187.315
21
-68.1707
0
LINE
8
BLACK
6
CONTINUOUS
10
187.315
20
-68.1707
11
187.306
21
-68.2625
0
LINE
8
BLACK
6
CONTINUOUS
10
187.306
20
-68.2625
11
187.27
21
-68.3803
0
LINE
8
BLACK
6
CONTINUOUS
10
187.27
20
-68.3803
11
187.27
21
-68.3803
0
LINE
8
BLACK
6
CONTINUOUS
10
187.27
20
-68.3803
11
187.212
21
-68.4889
0
LINE
8
BLACK
6
CONTINUOUS
10
187.212
20
-68.4889
11
187.173
21
-68.5363
0
LINE
8
BLACK
6
CONTINUOUS
10
187.173
20
-68.5363
11
187.134
21
-68.5841
0
LINE
8
BLACK
6
CONTINUOUS
10
187.134
20
-68.5841
11
187.11
21
-68.6037
0
LINE
8
BLACK
6
CONTINUOUS
10
187.11
20
-68.6037
11
185.444
21
-70.2702
0
LINE
8
BLACK
6
CONTINUOUS
10
185.444
20
-70.2702
11
185.424
21
-70.2941
0
LINE
8
BLACK
6
CONTINUOUS
10
185.424
20
-70.2941
11
185.329
21
-70.3722
0
LINE
8
BLACK
6
CONTINUOUS
10
185.329
20
-70.3722
11
185.22
21
-70.4302
0
LINE
8
BLACK
6
CONTINUOUS
10
185.22
20
-70.4302
11
185.103
21
-70.466
0
LINE
8
BLACK
6
CONTINUOUS
10
185.103
20
-70.466
11
185.011
21
-70.475
0
LINE
8
BLACK
6
CONTINUOUS
10
185.011
20
-70.475
11
185.011
21
-70.475
0
LINE
8
BLACK
6
CONTINUOUS
10
185.011
20
-70.475
11
184.98
21
-70.478
0
LINE
8
BLACK
6
CONTINUOUS
10
184.98
20
-70.478
11
184.949
21
-70.475
0
LINE
8
BLACK
6
CONTINUOUS
10
184.949
20
-70.475
11
165.605
21
-70.475
0
LINE
8
BLACK
6
CONTINUOUS
10
165.605
20
-70.475
11
165.479
21
-70.559
0
LINE
8
BLACK
6
CONTINUOUS
10
165.333
20
-66.5407
11
165.479
21
-66.601
0
LINE
8
BLACK
6
CONTINUOUS
10
165.479
20
-66.601
11
165.61
21
-66.6886
0
LINE
8
BLACK
6
CONTINUOUS
10
165.61
20
-66.6886
11
165.721
21
-66.8
0
LINE
8
BLACK
6
CONTINUOUS
10
165.721
20
-66.8
11
165.809
21
-66.9311
0
LINE
8
BLACK
6
CONTINUOUS
10
165.809
20
-66.9311
11
165.869
21
-67.0766
0
LINE
8
BLACK
6
CONTINUOUS
10
165.869
20
-67.0766
11
165.9
21
-67.2312
0
LINE
8
BLACK
6
CONTINUOUS
10
165.9
20
-67.2312
11
165.9
21
-67.3888
0
LINE
8
BLACK
6
CONTINUOUS
10
165.9
20
-67.3888
11
165.869
21
-67.5434
0
LINE
8
BLACK
6
CONTINUOUS
10
165.869
20
-67.5434
11
165.809
21
-67.6889
0
LINE
8
BLACK
6
CONTINUOUS
10
165.809
20
-67.6889
11
165.721
21
-67.82
0
LINE
8
BLACK
6
CONTINUOUS
10
165.721
20
-67.82
11
165.61
21
-67.9314
0
LINE
8
BLACK
6
CONTINUOUS
10
165.61
20
-67.9314
11
165.479
21
-68.019
0
LINE
8
BLACK
6
CONTINUOUS
10
165.479
20
-68.019
11
165.333
21
-68.0793
0
LINE
8
BLACK
6
CONTINUOUS
10
165.333
20
-68.0793
11
165.179
21
-68.11
0
LINE
8
BLACK
6
CONTINUOUS
10
165.179
20
-68.11
11
165.021
21
-68.11
0
LINE
8
BLACK
6
CONTINUOUS
10
165.021
20
-68.11
11
164.867
21
-68.0793
0
LINE
8
BLACK
6
CONTINUOUS
10
164.867
20
-68.0793
11
164.721
21
-68.019
0
LINE
8
BLACK
6
CONTINUOUS
10
164.721
20
-68.019
11
164.59
21
-67.9314
0
LINE
8
BLACK
6
CONTINUOUS
10
164.59
20
-67.9314
11
164.479
21
-67.82
0
LINE
8
BLACK
6
CONTINUOUS
10
164.479
20
-67.82
11
164.391
21
-67.6889
0
LINE
8
BLACK
6
CONTINUOUS
10
164.391
20
-67.6889
11
164.331
21
-67.5434
0
LINE
8
BLACK
6
CONTINUOUS
10
164.331
20
-67.5434
11
164.3
21
-67.3888
0
LINE
8
BLACK
6
CONTINUOUS
10
164.3
20
-67.3888
11
164.3
21
-67.2312
0
LINE
8
BLACK
6
CONTINUOUS
10
164.3
20
-67.2312
11
164.331
21
-67.0766
0
LINE
8
BLACK
6
CONTINUOUS
10
164.331
20
-67.0766
11
164.391
21
-66.9311
0
LINE
8
BLACK
6
CONTINUOUS
10
164.391
20
-66.9311
11
164.479
21
-66.8
0
LINE
8
BLACK
6
CONTINUOUS
10
164.479
20
-66.8
11
164.59
21
-66.6886
0
LINE
8
BLACK
6
CONTINUOUS
10
164.59
20
-66.6886
11
164.721
21
-66.601
0
LINE
8
BLACK
6
CONTINUOUS
10
164.721
20
-66.601
11
164.867
21
-66.5407
0
LINE
8
BLACK
6
CONTINUOUS
10
164.867
20
-66.5407
11
165.021
21
-66.51
0
LINE
8
BLACK
6
CONTINUOUS
10
165.021
20
-66.51
11
165.179
21
-66.51
0
LINE
8
BLACK
6
CONTINUOUS
10
165.179
20
-66.51
11
165.333
21
-66.5407
0
LINE
8
BLACK
6
CONTINUOUS
10
150.66
20
-68.11
11
149.06
21
-68.11
0
LINE
8
BLACK
6
CONTINUOUS
10
149.06
20
-68.11
11
149.06
21
-66.51
0
LINE
8
BLACK
6
CONTINUOUS
10
149.06
20
-66.51
11
150.66
21
-66.51
0
LINE
8
BLACK
6
CONTINUOUS
10
150.66
20
-66.51
11
150.66
21
-68.11
0
CIRCLE
8
BLACK
10
165.1
20
-102.87
40
0.4
0
CIRCLE
8
BLACK
10
149.86
20
-102.87
40
0.4
0
CIRCLE
8
BLACK
10
165.1
20
-67.31
40
0.4
0
CIRCLE
8
BLACK
10
149.86
20
-100.33
40
0.4
0
CIRCLE
8
BLACK
10
165.1
20
-69.85
40
0.4
0
CIRCLE
8
BLACK
10
149.86
20
-97.79
40
0.4
0
CIRCLE
8
BLACK
10
165.1
20
-72.39
40
0.4
0
CIRCLE
8
BLACK
10
149.86
20
-95.25
40
0.4
0
CIRCLE
8
BLACK
10
165.1
20
-74.93
40
0.4
0
CIRCLE
8
BLACK
10
149.86
20
-92.71
40
0.4
0
CIRCLE
8
BLACK
10
165.1
20
-77.47
40
0.4
0
CIRCLE
8
BLACK
10
149.86
20
-90.17
40
0.4
0
CIRCLE
8
BLACK
10
165.1
20
-80.01
40
0.4
0
CIRCLE
8
BLACK
10
149.86
20
-87.63
40
0.4
0
CIRCLE
8
BLACK
10
165.1
20
-82.55
40
0.4
0
CIRCLE
8
BLACK
10
149.86
20
-85.09
40
0.4
0
CIRCLE
8
BLACK
10
165.1
20
-85.09
40
0.4
0
CIRCLE
8
BLACK
10
149.86
20
-82.55
40
0.4
0
CIRCLE
8
BLACK
10
165.1
20
-87.63
40
0.4
0
CIRCLE
8
BLACK
10
149.86
20
-80.01
40
0.4
0
CIRCLE
8
BLACK
10
165.1
20
-90.17
40
0.4
0
CIRCLE
8
BLACK
10
149.86
20
-77.47
40
0.4
0
CIRCLE
8
BLACK
10
165.1
20
-92.71
40
0.4
0
CIRCLE
8
BLACK
10
149.86
20
-74.93
40
0.4
0
CIRCLE
8
BLACK
10
165.1
20
-95.25
40
0.4
0
CIRCLE
8
BLACK
10
149.86
20
-72.39
40
0.4
0
CIRCLE
8
BLACK
10
165.1
20
-97.79
40
0.4
0
CIRCLE
8
BLACK
10
149.86
20
-69.85
40
0.4
0
CIRCLE
8
BLACK
10
165.1
20
-100.33
40
0.4
0
CIRCLE
8
BLACK
10
149.86
20
-67.31
40
0.4
0
CIRCLE
8
BLACK
10
179.07
20
-110.49
40
0.381
0
CIRCLE
8
BLACK
10
176.53
20
-110.49
40
0.381
0
CIRCLE
8
BLACK
10
179.07
20
-107.95
40
0.381
0
CIRCLE
8
BLACK
10
176.53
20
-107.95
40
0.381
0
CIRCLE
8
BLACK
10
179.07
20
-105.41
40
0.381
0
CIRCLE
8
BLACK
10
176.53
20
-105.41
40
0.381
0
CIRCLE
8
BLACK
10
179.07
20
-102.87
40
0.381
0
CIRCLE
8
BLACK
10
176.53
20
-102.87
40
0.381
0
CIRCLE
8
BLACK
10
186.69
20
-66.04
40
0.5
0
CIRCLE
8
BLACK
10
189.23
20
-66.04
40
0.5
0
CIRCLE
8
BLACK
10
191.77
20
-66.04
40
0.5
0
CIRCLE
8
BLACK
10
194.31
20
-66.04
40
0.5
0
CIRCLE
8
BLACK
10
178.92
20
-83.82
40
1.75
0
CIRCLE
8
BLACK
10
195.58
20
-86.36
40
0.55
0
CIRCLE
8
BLACK
10
195.58
20
-83.82
40
0.55
0
CIRCLE
8
BLACK
10
195.58
20
-81.28
40
0.55
0
CIRCLE
8
BLACK
10
172.72
20
-99.06
40
0.5
0
CIRCLE
8
BLACK
10
172.72
20
-107.95
40
0.5
  0
ENDSEC
  0
EOF
