  0
SECTION
  2
HEADER
  9
$ACADVER
  1
AC1024
  9
$ACADMAINTVER
 70
     6
  9
$DWGCODEPAGE
  3
ANSI_1252
  9
$INSBASE
 10
0.0
 20
0.0
 30
0.0
  9
$EXTMIN
 10
1.000000000000000E+20
 20
1.000000000000000E+20
 30
1.000000000000000E+20
  9
$EXTMAX
 10
-1.000000000000000E+20
 20
-1.000000000000000E+20
 30
-1.000000000000000E+20
  9
$LIMMIN
 10
0.0
 20
0.0
  9
$LIMMAX
 10
12.0
 20
9.0
  9
$ORTHOMODE
 70
     0
  9
$REGENMODE
 70
     1
  9
$FILLMODE
 70
     1
  9
$QTEXTMODE
 70
     0
  9
$MIRRTEXT
 70
     1
  9
$LTSCALE
 40
1.0
  9
$ATTMODE
 70
     1
  9
$TEXTSIZE
 40
0.2
  9
$TRACEWID
 40
0.05
  9
$TEXTSTYLE
  7
Standard
  9
$CLAYER
  8
0
  9
$CELTYPE
  6
ByLayer
  9
$CECOLOR
 62
   256
  9
$CELTSCALE
 40
1.0
  9
$DISPSILH
 70
     0
  9
$DIMSCALE
 40
1.0
  9
$DIMASZ
 40
0.18
  9
$DIMEXO
 40
0.0625
  9
$DIMDLI
 40
0.38
  9
$DIMRND
 40
0.0
  9
$DIMDLE
 40
0.0
  9
$DIMEXE
 40
0.18
  9
$DIMTP
 40
0.0
  9
$DIMTM
 40
0.0
  9
$DIMTXT
 40
0.18
  9
$DIMCEN
 40
0.09
  9
$DIMTSZ
 40
0.0
  9
$DIMTOL
 70
     0
  9
$DIMLIM
 70
     0
  9
$DIMTIH
 70
     1
  9
$DIMTOH
 70
     1
  9
$DIMSE1
 70
     0
  9
$DIMSE2
 70
     0
  9
$DIMTAD
 70
     0
  9
$DIMZIN
 70
     0
  9
$DIMBLK
  1

  9
$DIMASO
 70
     1
  9
$DIMSHO
 70
     1
  9
$DIMPOST
  1

  9
$DIMAPOST
  1

  9
$DIMALT
 70
     0
  9
$DIMALTD
 70
     2
  9
$DIMALTF
 40
25.4
  9
$DIMLFAC
 40
1.0
  9
$DIMTOFL
 70
     0
  9
$DIMTVP
 40
0.0
  9
$DIMTIX
 70
     0
  9
$DIMSOXD
 70
     0
  9
$DIMSAH
 70
     0
  9
$DIMBLK1
  1

  9
$DIMBLK2
  1

  9
$DIMSTYLE
  2
Standard
  9
$DIMCLRD
 70
     0
  9
$DIMCLRE
 70
     0
  9
$DIMCLRT
 70
     0
  9
$DIMTFAC
 40
1.0
  9
$DIMGAP
 40
0.09
  9
$DIMJUST
 70
     0
  9
$DIMSD1
 70
     0
  9
$DIMSD2
 70
     0
  9
$DIMTOLJ
 70
     1
  9
$DIMTZIN
 70
     0
  9
$DIMALTZ
 70
     0
  9
$DIMALTTZ
 70
     0
  9
$DIMUPT
 70
     0
  9
$DIMDEC
 70
     4
  9
$DIMTDEC
 70
     4
  9
$DIMALTU
 70
     2
  9
$DIMALTTD
 70
     2
  9
$DIMTXSTY
  7
Standard
  9
$DIMAUNIT
 70
     0
  9
$DIMADEC
 70
     0
  9
$DIMALTRND
 40
0.0
  9
$DIMAZIN
 70
     0
  9
$DIMDSEP
 70
    46
  9
$DIMATFIT
 70
     3
  9
$DIMFRAC
 70
     0
  9
$DIMLDRBLK
  1

  9
$DIMLUNIT
 70
     2
  9
$DIMLWD
 70
    -2
  9
$DIMLWE
 70
    -2
  9
$DIMTMOVE
 70
     0
  9
$DIMFXL
 40
1.0
  9
$DIMFXLON
 70
     0
  9
$DIMJOGANG
 40
0.7853981633974483
  9
$DIMTFILL
 70
     0
  9
$DIMTFILLCLR
 70
     0
  9
$DIMARCSYM
 70
     0
  9
$DIMLTYPE
  6

  9
$DIMLTEX1
  6

  9
$DIMLTEX2
  6

  9
$DIMTXTDIRECTION
 70
     0
  9
$LUNITS
 70
     2
  9
$LUPREC
 70
     4
  9
$SKETCHINC
 40
0.1
  9
$FILLETRAD
 40
0.5
  9
$AUNITS
 70
     0
  9
$AUPREC
 70
     0
  9
$MENU
  1
.
  9
$ELEVATION
 40
0.0
  9
$PELEVATION
 40
0.0
  9
$THICKNESS
 40
0.0
  9
$LIMCHECK
 70
     0
  9
$CHAMFERA
 40
0.5
  9
$CHAMFERB
 40
0.5
  9
$CHAMFERC
 40
1.0
  9
$CHAMFERD
 40
0.0
  9
$SKPOLY
 70
     0
  9
$TDCREATE
 40
2458889.694929433
  9
$TDUCREATE
 40
2458889.653262766
  9
$TDUPDATE
 40
2458889.694929468
  9
$TDUUPDATE
 40
2458889.653262801
  9
$TDINDWG
 40
0.0000000116
  9
$TDUSRTIMER
 40
0.0000000116
  9
$USRTIMER
 70
     1
  9
$ANGBASE
 50
0.0
  9
$ANGDIR
 70
     0
  9
$PDMODE
 70
     0
  9
$PDSIZE
 40
0.0
  9
$PLINEWID
 40
0.0
  9
$SPLFRAME
 70
     0
  9
$SPLINETYPE
 70
     6
  9
$SPLINESEGS
 70
     8
  9
$HANDSEED
  5
B3
  9
$SURFTAB1
 70
     6
  9
$SURFTAB2
 70
     6
  9
$SURFTYPE
 70
     6
  9
$SURFU
 70
     6
  9
$SURFV
 70
     6
  9
$UCSBASE
  2

  9
$UCSNAME
  2

  9
$UCSORG
 10
0.0
 20
0.0
 30
0.0
  9
$UCSXDIR
 10
1.0
 20
0.0
 30
0.0
  9
$UCSYDIR
 10
0.0
 20
1.0
 30
0.0
  9
$UCSORTHOREF
  2

  9
$UCSORTHOVIEW
 70
     0
  9
$UCSORGTOP
 10
0.0
 20
0.0
 30
0.0
  9
$UCSORGBOTTOM
 10
0.0
 20
0.0
 30
0.0
  9
$UCSORGLEFT
 10
0.0
 20
0.0
 30
0.0
  9
$UCSORGRIGHT
 10
0.0
 20
0.0
 30
0.0
  9
$UCSORGFRONT
 10
0.0
 20
0.0
 30
0.0
  9
$UCSORGBACK
 10
0.0
 20
0.0
 30
0.0
  9
$PUCSBASE
  2

  9
$PUCSNAME
  2

  9
$PUCSORG
 10
0.0
 20
0.0
 30
0.0
  9
$PUCSXDIR
 10
1.0
 20
0.0
 30
0.0
  9
$PUCSYDIR
 10
0.0
 20
1.0
 30
0.0
  9
$PUCSORTHOREF
  2

  9
$PUCSORTHOVIEW
 70
     0
  9
$PUCSORGTOP
 10
0.0
 20
0.0
 30
0.0
  9
$PUCSORGBOTTOM
 10
0.0
 20
0.0
 30
0.0
  9
$PUCSORGLEFT
 10
0.0
 20
0.0
 30
0.0
  9
$PUCSORGRIGHT
 10
0.0
 20
0.0
 30
0.0
  9
$PUCSORGFRONT
 10
0.0
 20
0.0
 30
0.0
  9
$PUCSORGBACK
 10
0.0
 20
0.0
 30
0.0
  9
$USERI1
 70
     0
  9
$USERI2
 70
     0
  9
$USERI3
 70
     0
  9
$USERI4
 70
     0
  9
$USERI5
 70
     0
  9
$USERR1
 40
0.0
  9
$USERR2
 40
0.0
  9
$USERR3
 40
0.0
  9
$USERR4
 40
0.0
  9
$USERR5
 40
0.0
  9
$WORLDVIEW
 70
     1
  9
$SHADEDGE
 70
     3
  9
$SHADEDIF
 70
    70
  9
$TILEMODE
 70
     1
  9
$MAXACTVP
 70
    64
  9
$PINSBASE
 10
0.0
 20
0.0
 30
0.0
  9
$PLIMCHECK
 70
     0
  9
$PEXTMIN
 10
1.000000000000000E+20
 20
1.000000000000000E+20
 30
1.000000000000000E+20
  9
$PEXTMAX
 10
-1.000000000000000E+20
 20
-1.000000000000000E+20
 30
-1.000000000000000E+20
  9
$PLIMMIN
 10
0.0
 20
0.0
  9
$PLIMMAX
 10
12.0
 20
9.0
  9
$UNITMODE
 70
     0
  9
$VISRETAIN
 70
     1
  9
$PLINEGEN
 70
     0
  9
$PSLTSCALE
 70
     1
  9
$TREEDEPTH
 70
  3020
  9
$CMLSTYLE
  2
Standard
  9
$CMLJUST
 70
     0
  9
$CMLSCALE
 40
1.0
  9
$PROXYGRAPHICS
 70
     1
  9
$MEASUREMENT
 70
     0
  9
$CELWEIGHT
370
    -1
  9
$ENDCAPS
280
     0
  9
$JOINSTYLE
280
     0
  9
$LWDISPLAY
290
     1
  9
$INSUNITS
 70
     4
  9
$HYPERLINKBASE
  1

  9
$STYLESHEET
  1

  9
$XEDIT
290
     1
  9
$CEPSNTYPE
380
     0
  9
$PSTYLEMODE
290
     1
  9
$FINGERPRINTGUID
  2
{3F9FF0C5-AE73-4E1D-BC8A-8C9613FA2763}
  9
$VERSIONGUID
  2
{FAEB1C32-E019-11D5-929B-00C0DF256EC4}
  9
$EXTNAMES
290
     1
  9
$PSVPSCALE
 40
0.0
  9
$OLESTARTUP
290
     0
  9
$SORTENTS
280
   127
  9
$INDEXCTL
280
     0
  9
$HIDETEXT
280
     1
  9
$XCLIPFRAME
280
     2
  9
$HALOGAP
280
     0
  9
$OBSCOLOR
 70
   257
  9
$OBSLTYPE
280
     0
  9
$INTERSECTIONDISPLAY
280
     0
  9
$INTERSECTIONCOLOR
 70
   257
  9
$DIMASSOC
280
     2
  9
$PROJECTNAME
  1

  9
$CAMERADISPLAY
290
     0
  9
$LENSLENGTH
 40
50.0
  9
$CAMERAHEIGHT
 40
0.0
  9
$STEPSPERSEC
 40
2.0
  9
$STEPSIZE
 40
6.0
  9
$3DDWFPREC
 40
2.0
  9
$PSOLWIDTH
 40
0.25
  9
$PSOLHEIGHT
 40
4.0
  9
$LOFTANG1
 40
1.570796326794897
  9
$LOFTANG2
 40
1.570796326794897
  9
$LOFTMAG1
 40
0.0
  9
$LOFTMAG2
 40
0.0
  9
$LOFTPARAM
 70
     7
  9
$LOFTNORMALS
280
     1
  9
$LATITUDE
 40
37.795
  9
$LONGITUDE
 40
-122.394
  9
$NORTHDIRECTION
 40
0.0
  9
$TIMEZONE
 70
 -8000
  9
$LIGHTGLYPHDISPLAY
280
     1
  9
$TILEMODELIGHTSYNCH
280
     1
  9
$CMATERIAL
347
3C
  9
$SOLIDHIST
280
     1
  9
$SHOWHIST
280
     1
  9
$DWFFRAME
280
     2
  9
$DGNFRAME
280
     2
  9
$REALWORLDSCALE
290
     1
  9
$INTERFERECOLOR
 62
   256
  9
$CSHADOW
280
     0
  9
$SHADOWPLANELOCATION
 40
0.0
  0
ENDSEC
  0
SECTION
  2
CLASSES
  0
CLASS
  1
ACDBDICTIONARYWDFLT
  2
AcDbDictionaryWithDefault
  3
ObjectDBX Classes
 90
        0
 91
        4
280
     0
281
     0
  0
CLASS
  1
VISUALSTYLE
  2
AcDbVisualStyle
  3
ObjectDBX Classes
 90
     4095
 91
        4
280
     0
281
     0
  0
CLASS
  1
MATERIAL
  2
AcDbMaterial
  3
ObjectDBX Classes
 90
     1153
 91
        4
280
     0
281
     0
  0
CLASS
  1
SUN
  2
AcDbSun
  3
SCENEOE
 90
     1024
 91
        4
280
     0
281
     0
  0
ENDSEC
  0
SECTION
  2
TABLES
  0
TABLE
  2
VPORT
  5
8
330
0
100
AcDbSymbolTable
 70
     1
  0
VPORT
  5
29
330
8
100
AcDbSymbolTableRecord
100
AcDbViewportTableRecord
  2
*Active
 70
     0
 10
0.0
 20
0.0
 11
1.0
 21
1.0
 12
0.0
 22
0.0
 13
0.0
 23
0.0
 14
0.5
 24
0.5
 15
0.5
 25
0.5
 16
0.0
 26
0.0
 36
1.0
 17
17.38194444009649
 27
247.1713802143524
 37
0.0
 40
73.40833331497137
 41
1.050251636583871
 42
50.0
 43
0.0
 44
0.0
 50
0.0
 51
0.0
 71
     0
 72
   100
 73
     1
 74
     3
 75
     0
 76
     0
 77
     0
 78
     0
281
     0
 65
     1
110
0.0
120
0.0
130
0.0
111
1.0
121
0.0
131
0.0
112
0.0
122
1.0
132
0.0
 79
     0
146
0.0
 60
     3
 61
     5
292
     1
282
     1
141
0.0
142
0.0
 63
   250
361
3F
  0
ENDTAB
  0
TABLE
  2
LTYPE
  5
5
330
0
100
AcDbSymbolTable
 70
     1
  0
LTYPE
  5
14
330
5
100
AcDbSymbolTableRecord
100
AcDbLinetypeTableRecord
  2
ByBlock
 70
     0
  3

 72
    65
 73
     0
 40
0.0
  0
LTYPE
  5
15
330
5
100
AcDbSymbolTableRecord
100
AcDbLinetypeTableRecord
  2
ByLayer
 70
     0
  3

 72
    65
 73
     0
 40
0.0
  0
LTYPE
  5
16
330
5
100
AcDbSymbolTableRecord
100
AcDbLinetypeTableRecord
  2
Continuous
 70
     0
  3
Solid line
 72
    65
 73
     0
 40
0.0
  0
ENDTAB
  0
TABLE
  2
LAYER
  5
2
330
0
100
AcDbSymbolTable
 70
     1
  0
LAYER
  5
10
330
2
100
AcDbSymbolTableRecord
100
AcDbLayerTableRecord
  2
0
 70
     0
 62
     7
  6
Continuous
370
    -3
390
F
347
3E
  0
ENDTAB
  0
TABLE
  2
STYLE
  5
3
330
0
100
AcDbSymbolTable
 70
     1
  0
STYLE
  5
11
330
3
100
AcDbSymbolTableRecord
100
AcDbTextStyleTableRecord
  2
Standard
 70
     0
 40
0.0
 41
1.0
 50
0.0
 71
     0
 42
0.2
  3
txt
  4

  0
ENDTAB
  0
TABLE
  2
VIEW
  5
6
330
0
100
AcDbSymbolTable
 70
     0
  0
ENDTAB
  0
TABLE
  2
UCS
  5
7
330
0
100
AcDbSymbolTable
 70
     0
  0
ENDTAB
  0
TABLE
  2
APPID
  5
9
330
0
100
AcDbSymbolTable
 70
     1
  0
APPID
  5
12
330
9
100
AcDbSymbolTableRecord
100
AcDbRegAppTableRecord
  2
ACAD
 70
     0
  0
ENDTAB
  0
TABLE
  2
DIMSTYLE
  5
A
330
0
100
AcDbSymbolTable
 70
     1
100
AcDbDimStyleTable
  0
DIMSTYLE
105
27
330
A
100
AcDbSymbolTableRecord
100
AcDbDimStyleTableRecord
  2
Standard
 70
     0
178
     0
340
11
  0
ENDTAB
  0
TABLE
  2
BLOCK_RECORD
  5
1
330
0
100
AcDbSymbolTable
 70
     1
  0
BLOCK_RECORD
  5
1F
330
1
100
AcDbSymbolTableRecord
100
AcDbBlockTableRecord
  2
*Model_Space
340
22
 70
     0
280
     1
281
     0
  0
BLOCK_RECORD
  5
1B
330
1
100
AcDbSymbolTableRecord
100
AcDbBlockTableRecord
  2
*Paper_Space
340
1E
 70
     0
280
     1
281
     0
  0
BLOCK_RECORD
  5
23
330
1
100
AcDbSymbolTableRecord
100
AcDbBlockTableRecord
  2
*Paper_Space0
340
26
 70
     0
280
     1
281
     0
  0
ENDTAB
  0
ENDSEC
  0
SECTION
  2
BLOCKS
  0
BLOCK
  5
20
330
1F
100
AcDbEntity
  8
0
100
AcDbBlockBegin
  2
*Model_Space
 70
     0
 10
0.0
 20
0.0
 30
0.0
  3
*Model_Space
  1

  0
ENDBLK
  5
21
330
1F
100
AcDbEntity
  8
0
100
AcDbBlockEnd
  0
BLOCK
  5
1C
330
1B
100
AcDbEntity
 67
     1
  8
0
100
AcDbBlockBegin
  2
*Paper_Space
 70
     0
 10
0.0
 20
0.0
 30
0.0
  3
*Paper_Space
  1

  0
ENDBLK
  5
1D
330
1B
100
AcDbEntity
 67
     1
  8
0
100
AcDbBlockEnd
  0
BLOCK
  5
24
330
23
100
AcDbEntity
  8
0
100
AcDbBlockBegin
  2
*Paper_Space0
 70
     0
 10
0.0
 20
0.0
 30
0.0
  3
*Paper_Space0
  1

  0
ENDBLK
  5
25
330
23
100
AcDbEntity
  8
0
100
AcDbBlockEnd
  0
ENDSEC
  0
SECTION
  2
ENTITIES
  0
POLYLINE
  5
40
330
1F
100
AcDbEntity
  8
0
 62
     7
420
 16777215
370
    25
100
AcDb2dPolyline
 66
     1
 10
0.0
 20
0.0
 30
0.0
  0
VERTEX
  5
41
330
40
100
AcDbEntity
  8
0
 62
     7
420
 16777215
370
    25
100
AcDbVertex
100
AcDb2dVertex
 10
51.89981856133519
 20
215.8856611917176
 30
0.0
  0
VERTEX
  5
42
330
40
100
AcDbEntity
  8
0
 62
     7
420
 16777215
370
    25
100
AcDbVertex
100
AcDb2dVertex
 10
51.68311754991194
 20
214.8852795968845
 30
0.0
  0
VERTEX
  5
43
330
40
100
AcDbEntity
  8
0
 62
     7
420
 16777215
370
    25
100
AcDbVertex
100
AcDb2dVertex
 10
51.29272722720702
 20
214.0970571911525
 30
0.0
  0
VERTEX
  5
44
330
40
100
AcDbEntity
  8
0
 62
     7
420
 16777215
370
    25
100
AcDbVertex
100
AcDb2dVertex
 10
50.71194162240498
 20
213.5110625375999
 30
0.0
  0
VERTEX
  5
45
330
40
100
AcDbEntity
  8
0
 62
     7
420
 16777215
370
    25
100
AcDbVertex
100
AcDb2dVertex
 10
49.92706428069108
 20
213.1139019108716
 30
0.0
  0
VERTEX
  5
46
330
40
100
AcDbEntity
  8
0
 62
     7
420
 16777215
370
    25
100
AcDbVertex
100
AcDb2dVertex
 10
48.92793802435457
 20
212.8892660399395
 30
0.0
  0
VERTEX
  5
47
330
40
100
AcDbEntity
  8
0
 62
     7
420
 16777215
370
    25
100
AcDbVertex
100
AcDb2dVertex
 10
47.70843714980293
 20
212.8184730203465
 30
0.0
  0
VERTEX
  5
48
330
40
100
AcDbEntity
  8
0
 62
     7
420
 16777215
370
    25
100
AcDbVertex
100
AcDb2dVertex
 10
46.26663198910269
 20
212.8809840812338
 30
0.0
  0
VERTEX
  5
49
330
40
100
AcDbEntity
  8
0
 62
     7
420
 16777215
370
    25
100
AcDbVertex
100
AcDb2dVertex
 10
44.60471028556526
 20
213.0548995250495
 30
0.0
  0
VERTEX
  5
4A
330
40
100
AcDbEntity
  8
0
 62
     7
420
 16777215
370
    25
100
AcDbVertex
100
AcDb2dVertex
 10
42.72871868123395
 20
213.3174414482827
 30
0.0
  0
VERTEX
  5
4B
330
40
100
AcDbEntity
  8
0
 62
     7
420
 16777215
370
    25
100
AcDbVertex
100
AcDb2dVertex
 10
40.64817489972184
 20
213.6454267246846
 30
0.0
  0
VERTEX
  5
4C
330
40
100
AcDbEntity
  8
0
 62
     7
420
 16777215
370
    25
100
AcDbVertex
100
AcDb2dVertex
 10
38.37571115944777
 20
214.0157394668316
 30
0.0
  0
VERTEX
  5
4D
330
40
100
AcDbEntity
  8
0
 62
     7
420
 16777215
370
    25
100
AcDbVertex
100
AcDb2dVertex
 10
35.92676536650005
 20
214.4058045465717
 30
0.0
  0
VERTEX
  5
4E
330
40
100
AcDbEntity
  8
0
 62
     7
420
 16777215
370
    25
100
AcDbVertex
100
AcDb2dVertex
 10
30.57328521971082
 20
215.1604706129189
 30
0.0
  0
VERTEX
  5
4F
330
40
100
AcDbEntity
  8
0
 62
     7
420
 16777215
370
    25
100
AcDbVertex
100
AcDb2dVertex
 10
24.75495689396145
 20
215.7578459566685
 30
0.0
  0
VERTEX
  5
50
330
40
100
AcDbEntity
  8
0
 62
     7
420
 16777215
370
    25
100
AcDbVertex
100
AcDb2dVertex
 10
18.66286392460398
 20
216.0854577843185
 30
0.0
  0
VERTEX
  5
51
330
40
100
AcDbEntity
  8
0
 62
     7
420
 16777215
370
    25
100
AcDbVertex
100
AcDb2dVertex
 10
12.50150083304413
 20
216.0854677543157
 30
0.0
  0
VERTEX
  5
52
330
40
100
AcDbEntity
  8
0
 62
     7
420
 16777215
370
    25
100
AcDbVertex
100
AcDb2dVertex
 10
6.478350142855013
 20
215.7666090685626
 30
0.0
  0
VERTEX
  5
53
330
40
100
AcDbEntity
  8
0
 62
     7
420
 16777215
370
    25
100
AcDbVertex
100
AcDb2dVertex
 10
0.7936831125399377
 20
215.2017978446809
 30
0.0
  0
VERTEX
  5
54
330
40
100
AcDbEntity
  8
0
 62
     7
420
 16777215
370
    25
100
AcDbVertex
100
AcDb2dVertex
 10
-1.863581930292011
 20
214.8639712653642
 30
0.0
  0
VERTEX
  5
55
330
40
100
AcDbEntity
  8
0
 62
     7
420
 16777215
370
    25
100
AcDbVertex
100
AcDb2dVertex
 10
-4.369501641117885
 20
214.5137588266872
 30
0.0
  0
VERTEX
  5
56
330
40
100
AcDbEntity
  8
0
 62
     7
420
 16777215
370
    25
100
AcDbVertex
100
AcDb2dVertex
 10
-6.705548592330373
 20
214.1718364776664
 30
0.0
  0
VERTEX
  5
57
330
40
100
AcDbEntity
  8
0
 62
     7
420
 16777215
370
    25
100
AcDbVertex
100
AcDb2dVertex
 10
-8.855533483433039
 20
213.8601106360444
 30
0.0
  0
VERTEX
  5
58
330
40
100
AcDbEntity
  8
0
 62
     7
420
 16777215
370
    25
100
AcDbVertex
100
AcDb2dVertex
 10
-10.80592977814304
 20
213.6012514902061
 30
0.0
  0
VERTEX
  5
59
330
40
100
AcDbEntity
  8
0
 62
     7
420
 16777215
370
    25
100
AcDbVertex
100
AcDb2dVertex
 10
-12.54618912402717
 20
213.4182273870342
 30
0.0
  0
VERTEX
  5
5A
330
40
100
AcDbEntity
  8
0
 62
     7
420
 16777215
370
    25
100
AcDbVertex
100
AcDb2dVertex
 10
-14.06904195735053
 20
213.3338379105572
 30
0.0
  0
VERTEX
  5
5B
330
40
100
AcDbEntity
  8
0
 62
     7
420
 16777215
370
    25
100
AcDbVertex
100
AcDb2dVertex
 10
-15.37081868551644
 20
213.3702428759338
 30
0.0
  0
VERTEX
  5
5C
330
40
100
AcDbEntity
  8
0
 62
     7
420
 16777215
370
    25
100
AcDbVertex
100
AcDb2dVertex
 10
-16.45181266557127
 20
213.5484837161455
 30
0.0
  0
VERTEX
  5
5D
330
40
100
AcDbEntity
  8
0
 62
     7
420
 16777215
370
    25
100
AcDbVertex
100
AcDb2dVertex
 10
-17.31649919720783
 20
213.8880009208125
 30
0.0
  0
VERTEX
  5
5E
330
40
100
AcDbEntity
  8
0
 62
     7
420
 16777215
370
    25
100
AcDbVertex
100
AcDb2dVertex
 10
-17.97335200636353
 20
214.4061465808984
 30
0.0
  0
VERTEX
  5
5F
330
40
100
AcDbEntity
  8
0
 62
     7
420
 16777215
370
    25
100
AcDbVertex
100
AcDb2dVertex
 10
-18.43448546516888
 20
215.1176698304372
 30
0.0
  0
VERTEX
  5
60
330
40
100
AcDbEntity
  8
0
 62
     7
420
 16777215
370
    25
100
AcDbVertex
100
AcDb2dVertex
 10
-18.71523894326679
 20
216.0341193910282
 30
0.0
  0
VERTEX
  5
61
330
40
100
AcDbEntity
  8
0
 62
     7
420
 16777215
370
    25
100
AcDbVertex
100
AcDb2dVertex
 10
-18.83373091056946
 20
217.1632660775366
 30
0.0
  0
VERTEX
  5
62
330
40
100
AcDbEntity
  8
0
 62
     7
420
 16777215
370
    25
100
AcDbVertex
100
AcDb2dVertex
 10
-18.81039428162198
 20
218.5087921943687
 30
0.0
  0
VERTEX
  5
63
330
40
100
AcDbEntity
  8
0
 62
     7
420
 16777215
370
    25
100
AcDbVertex
100
AcDb2dVertex
 10
-18.66749194595057
 20
220.070201706227
 30
0.0
  0
VERTEX
  5
64
330
40
100
AcDbEntity
  8
0
 62
     7
420
 16777215
370
    25
100
AcDbVertex
100
AcDb2dVertex
 10
-18.42858235030889
 20
221.8430044978497
 30
0.0
  0
VERTEX
  5
65
330
40
100
AcDbEntity
  8
0
 62
     7
420
 16777215
370
    25
100
AcDbVertex
100
AcDb2dVertex
 10
-18.11794638871016
 20
223.8191088682532
 30
0.0
  0
VERTEX
  5
66
330
40
100
AcDbEntity
  8
0
 62
     7
420
 16777215
370
    25
100
AcDbVertex
100
AcDb2dVertex
 10
-17.76002614565952
 20
225.9871753503667
 30
0.0
  0
VERTEX
  5
67
330
40
100
AcDbEntity
  8
0
 62
     7
420
 16777215
370
    25
100
AcDbVertex
100
AcDb2dVertex
 10
-17.378879941688
 20
228.3329056881074
 30
0.0
  0
VERTEX
  5
68
330
40
100
AcDbEntity
  8
0
 62
     7
420
 16777215
370
    25
100
AcDbVertex
100
AcDb2dVertex
 10
-16.9976279964966
 20
230.8393423145125
 30
0.0
  0
VERTEX
  5
69
330
40
100
AcDbEntity
  8
0
 62
     7
420
 16777215
370
    25
100
AcDbVertex
100
AcDb2dVertex
 10
-16.63788282376319
 20
233.4871953206786
 30
0.0
  0
VERTEX
  5
6A
330
40
100
AcDbEntity
  8
0
 62
     7
420
 16777215
370
    25
100
AcDbVertex
100
AcDb2dVertex
 10
-16.05850566328008
 20
239.1202689644811
 30
0.0
  0
VERTEX
  5
6B
330
40
100
AcDbEntity
  8
0
 62
     7
420
 16777215
370
    25
100
AcDbVertex
100
AcDb2dVertex
 10
-15.76258504061859
 20
245.0432844350535
 30
0.0
  0
VERTEX
  5
6C
330
40
100
AcDbEntity
  8
0
 62
     7
420
 16777215
370
    25
100
AcDbVertex
100
AcDb2dVertex
 10
-15.81209825732405
 20
251.0502710720256
 30
0.0
  0
VERTEX
  5
6D
330
40
100
AcDbEntity
  8
0
 62
     7
420
 16777215
370
    25
100
AcDbVertex
100
AcDb2dVertex
 10
-16.19549452640869
 20
256.9284838446118
 30
0.0
  0
VERTEX
  5
6E
330
40
100
AcDbEntity
  8
0
 62
     7
420
 16777215
370
    25
100
AcDbVertex
100
AcDb2dVertex
 10
-16.83087358570068
 20
262.4699143548017
 30
0.0
  0
VERTEX
  5
6F
330
40
100
AcDbEntity
  8
0
 62
     7
420
 16777215
370
    25
100
AcDbVertex
100
AcDb2dVertex
 10
-17.20233724686948
 20
265.0537004669952
 30
0.0
  0
VERTEX
  5
70
330
40
100
AcDbEntity
  8
0
 62
     7
420
 16777215
370
    25
100
AcDbVertex
100
AcDb2dVertex
 10
-17.58273024751409
 20
267.4837767614484
 30
0.0
  0
VERTEX
  5
71
330
40
100
AcDbEntity
  8
0
 62
     7
420
 16777215
370
    25
100
AcDbVertex
100
AcDb2dVertex
 10
-17.94956501005735
 20
269.7410443344775
 30
0.0
  0
VERTEX
  5
72
330
40
100
AcDbEntity
  8
0
 62
     7
420
 16777215
370
    25
100
AcDbVertex
100
AcDb2dVertex
 10
-18.27917953886838
 20
271.8090527737489
 30
0.0
  0
VERTEX
  5
73
330
40
100
AcDbEntity
  8
0
 62
     7
420
 16777215
370
    25
100
AcDbVertex
100
AcDb2dVertex
 10
-18.54727707200235
 20
273.6743937560661
 30
0.0
  0
VERTEX
  5
74
330
40
100
AcDbEntity
  8
0
 62
     7
420
 16777215
370
    25
100
AcDbVertex
100
AcDb2dVertex
 10
-18.7294642328964
 20
275.3270968205637
 30
0.0
  0
VERTEX
  5
75
330
40
100
AcDbEntity
  8
0
 62
     7
420
 16777215
370
    25
100
AcDbVertex
100
AcDb2dVertex
 10
-18.80179049252012
 20
276.7610286665305
 30
0.0
  0
VERTEX
  5
76
330
40
100
AcDbEntity
  8
0
 62
     7
420
 16777215
370
    25
100
AcDbVertex
100
AcDb2dVertex
 10
-18.74129337034067
 20
277.9742917827443
 30
0.0
  0
VERTEX
  5
77
330
40
100
AcDbEntity
  8
0
 62
     7
420
 16777215
370
    25
100
AcDbVertex
100
AcDb2dVertex
 10
-18.52655346473376
 20
278.9696103550468
 30
0.0
  0
VERTEX
  5
78
330
40
100
AcDbEntity
  8
0
 62
     7
420
 16777215
370
    25
100
AcDbVertex
100
AcDb2dVertex
 10
-18.13822641746895
 20
279.7544613901023
 30
0.0
  0
VERTEX
  5
79
330
40
100
AcDbEntity
  8
0
 62
     7
420
 16777215
370
    25
100
AcDbVertex
100
AcDb2dVertex
 10
-17.5595086344321
 20
280.3405610256268
 30
0.0
  0
VERTEX
  5
7A
330
40
100
AcDbEntity
  8
0
 62
     7
420
 16777215
370
    25
100
AcDbVertex
100
AcDb2dVertex
 10
-16.77660030850481
 20
280.7430839518445
 30
0.0
  0
VERTEX
  5
7B
330
40
100
AcDbEntity
  8
0
 62
     7
420
 16777215
370
    25
100
AcDbVertex
100
AcDb2dVertex
 10
-15.77924417320191
 20
280.9798308679629
 30
0.0
  0
VERTEX
  5
7C
330
40
100
AcDbEntity
  8
0
 62
     7
420
 16777215
370
    25
100
AcDbVertex
100
AcDb2dVertex
 10
-14.56122671703923
 20
281.0704157450702
 30
0.0
  0
VERTEX
  5
7D
330
40
100
AcDbEntity
  8
0
 62
     7
420
 16777215
370
    25
100
AcDbVertex
100
AcDb2dVertex
 10
-13.12054963516955
 20
281.0356307896113
 30
0.0
  0
VERTEX
  5
7E
330
40
100
AcDbEntity
  8
0
 62
     7
420
 16777215
370
    25
100
AcDbVertex
100
AcDb2dVertex
 10
-11.45935586959079
 20
280.8969432979486
 30
0.0
  0
VERTEX
  5
7F
330
40
100
AcDbEntity
  8
0
 62
     7
420
 16777215
370
    25
100
AcDbVertex
100
AcDb2dVertex
 10
-9.583670949339306
 20
280.6760899222867
 30
0.0
  0
VERTEX
  5
80
330
40
100
AcDbEntity
  8
0
 62
     7
420
 16777215
370
    25
100
AcDbVertex
100
AcDb2dVertex
 10
-7.503011263581998
 20
280.3947413075068
 30
0.0
  0
VERTEX
  5
81
330
40
100
AcDbEntity
  8
0
 62
     7
420
 16777215
370
    25
100
AcDbVertex
100
AcDb2dVertex
 10
-5.230024275970655
 20
280.0741526150122
 30
0.0
  0
VERTEX
  5
82
330
40
100
AcDbEntity
  8
0
 62
     7
420
 16777215
370
    25
100
AcDbVertex
100
AcDb2dVertex
 10
-2.780177699503375
 20
279.7347907364747
 30
0.0
  0
VERTEX
  5
83
330
40
100
AcDbEntity
  8
0
 62
     7
420
 16777215
370
    25
100
AcDbVertex
100
AcDb2dVertex
 10
2.576058605425559
 20
279.0754459712693
 30
0.0
  0
VERTEX
  5
84
330
40
100
AcDbEntity
  8
0
 62
     7
420
 16777215
370
    25
100
AcDbVertex
100
AcDb2dVertex
 10
8.398040024503443
 20
278.5506823664687
 30
0.0
  0
VERTEX
  5
85
330
40
100
AcDbEntity
  8
0
 62
     7
420
 16777215
370
    25
100
AcDbVertex
100
AcDb2dVertex
 10
14.49417814199697
 20
278.2585424620296
 30
0.0
  0
VERTEX
  5
86
330
40
100
AcDbEntity
  8
0
 62
     7
420
 16777215
370
    25
100
AcDbVertex
100
AcDb2dVertex
 10
20.65948563977214
 20
278.249228242314
 30
0.0
  0
VERTEX
  5
87
330
40
100
AcDbEntity
  8
0
 62
     7
420
 16777215
370
    25
100
AcDbVertex
100
AcDb2dVertex
 10
26.68607178701239
 20
278.5159382533339
 30
0.0
  0
VERTEX
  5
88
330
40
100
AcDbEntity
  8
0
 62
     7
420
 16777215
370
    25
100
AcDbVertex
100
AcDb2dVertex
 10
32.3733732889101
 20
278.9966212000951
 30
0.0
  0
VERTEX
  5
89
330
40
100
AcDbEntity
  8
0
 62
     7
420
 16777215
370
    25
100
AcDbVertex
100
AcDb2dVertex
 10
35.03159512752416
 20
279.2853782896456
 30
0.0
  0
VERTEX
  5
8A
330
40
100
AcDbEntity
  8
0
 62
     7
420
 16777215
370
    25
100
AcDbVertex
100
AcDb2dVertex
 10
37.53821315791244
 20
279.5848802015379
 30
0.0
  0
VERTEX
  5
8B
330
40
100
AcDbEntity
  8
0
 62
     7
420
 16777215
370
    25
100
AcDbVertex
100
AcDb2dVertex
 10
39.87469478030822
 20
279.8767554060682
 30
0.0
  0
VERTEX
  5
8C
330
40
100
AcDbEntity
  8
0
 62
     7
420
 16777215
370
    25
100
AcDbVertex
100
AcDb2dVertex
 10
42.02485208287747
 20
280.1412888019237
 30
0.0
  0
VERTEX
  5
8D
330
40
100
AcDbEntity
  8
0
 62
     7
420
 16777215
370
    25
100
AcDbVertex
100
AcDb2dVertex
 10
43.97516623471277
 20
280.3577730066816
 30
0.0
  0
VERTEX
  5
8E
330
40
100
AcDbEntity
  8
0
 62
     7
420
 16777215
370
    25
100
AcDbVertex
100
AcDb2dVertex
 10
45.71510281251835
 20
280.5048616522612
 30
0.0
  0
VERTEX
  5
8F
330
40
100
AcDbEntity
  8
0
 62
     7
420
 16777215
370
    25
100
AcDbVertex
100
AcDb2dVertex
 10
47.23741254411893
 20
280.5609281661493
 30
0.0
  0
VERTEX
  5
90
330
40
100
AcDbEntity
  8
0
 62
     7
420
 16777215
370
    25
100
AcDbVertex
100
AcDb2dVertex
 10
48.53845234312575
 20
280.5044212673778
 30
0.0
  0
VERTEX
  5
91
330
40
100
AcDbEntity
  8
0
 62
     7
420
 16777215
370
    25
100
AcDbVertex
100
AcDb2dVertex
 10
49.61854745034238
 20
280.3142143353752
 30
0.0
  0
VERTEX
  5
92
330
40
100
AcDbEntity
  8
0
 62
     7
420
 16777215
370
    25
100
AcDbVertex
100
AcDb2dVertex
 10
50.48220909852806
 20
279.9700289975067
 30
0.0
  0
VERTEX
  5
93
330
40
100
AcDbEntity
  8
0
 62
     7
420
 16777215
370
    25
100
AcDbVertex
100
AcDb2dVertex
 10
51.13794895212034
 20
279.4530551744882
 30
0.0
  0
VERTEX
  5
94
330
40
100
AcDbEntity
  8
0
 62
     7
420
 16777215
370
    25
100
AcDbVertex
100
AcDb2dVertex
 10
51.59791950007065
 20
278.746692541534
 30
0.0
  0
VERTEX
  5
95
330
40
100
AcDbEntity
  8
0
 62
     7
420
 16777215
370
    25
100
AcDbVertex
100
AcDb2dVertex
 10
51.87749821564592
 20
277.8374398624272
 30
0.0
  0
VERTEX
  5
96
330
40
100
AcDbEntity
  8
0
 62
     7
420
 16777215
370
    25
100
AcDbVertex
100
AcDb2dVertex
 10
51.9948420133903
 20
276.7157683980651
 30
0.0
  0
VERTEX
  5
97
330
40
100
AcDbEntity
  8
0
 62
     7
420
 16777215
370
    25
100
AcDbVertex
100
AcDb2dVertex
 10
51.97042173736935
 20
275.3766109212573
 30
0.0
  0
VERTEX
  5
98
330
40
100
AcDbEntity
  8
0
 62
     7
420
 16777215
370
    25
100
AcDbVertex
100
AcDb2dVertex
 10
51.82653609814025
 20
273.8195362309306
 30
0.0
  0
VERTEX
  5
99
330
40
100
AcDbEntity
  8
0
 62
     7
420
 16777215
370
    25
100
AcDbVertex
100
AcDb2dVertex
 10
51.58677606375533
 20
272.048551495708
 30
0.0
  0
VERTEX
  5
9A
330
40
100
AcDbEntity
  8
0
 62
     7
420
 16777215
370
    25
100
AcDbVertex
100
AcDb2dVertex
 10
51.2754509480265
 20
270.0716228353287
 30
0.0
  0
VERTEX
  5
9B
330
40
100
AcDbEntity
  8
0
 62
     7
420
 16777215
370
    25
100
AcDbVertex
100
AcDb2dVertex
 10
50.91702639268658
 20
267.9002484126701
 30
0.0
  0
VERTEX
  5
9C
330
40
100
AcDbEntity
  8
0
 62
     7
420
 16777215
370
    25
100
AcDbVertex
100
AcDb2dVertex
 10
50.53557863728713
 20
265.5491193477907
 30
0.0
  0
VERTEX
  5
9D
330
40
100
AcDbEntity
  8
0
 62
     7
420
 16777215
370
    25
100
AcDbVertex
100
AcDb2dVertex
 10
50.15423928516456
 20
263.0357652918431
 30
0.0
  0
VERTEX
  5
9E
330
40
100
AcDbEntity
  8
0
 62
     7
420
 16777215
370
    25
100
AcDbVertex
100
AcDb2dVertex
 10
49.79462465504136
 20
260.3801613457098
 30
0.0
  0
VERTEX
  5
9F
330
40
100
AcDbEntity
  8
0
 62
     7
420
 16777215
370
    25
100
AcDbVertex
100
AcDb2dVertex
 10
49.21613536060203
 20
254.7320140632932
 30
0.0
  0
VERTEX
  5
A0
330
40
100
AcDbEntity
  8
0
 62
     7
420
 16777215
370
    25
100
AcDbVertex
100
AcDb2dVertex
 10
48.9217998268298
 20
248.7989369954774
 30
0.0
  0
VERTEX
  5
A1
330
40
100
AcDbEntity
  8
0
 62
     7
420
 16777215
370
    25
100
AcDbVertex
100
AcDb2dVertex
 10
48.97327331547879
 20
242.7902121920673
 30
0.0
  0
VERTEX
  5
A2
330
40
100
AcDbEntity
  8
0
 62
     7
420
 16777215
370
    25
100
AcDbVertex
100
AcDb2dVertex
 10
49.35855072619844
 20
236.9182934125584
 30
0.0
  0
VERTEX
  5
A3
330
40
100
AcDbEntity
  8
0
 62
     7
420
 16777215
370
    25
100
AcDbVertex
100
AcDb2dVertex
 10
49.99526523654074
 20
231.3876194361741
 30
0.0
  0
VERTEX
  5
A4
330
40
100
AcDbEntity
  8
0
 62
     7
420
 16777215
370
    25
100
AcDbVertex
100
AcDb2dVertex
 10
50.36706364495357
 20
228.809309063617
 30
0.0
  0
VERTEX
  5
A5
330
40
100
AcDbEntity
  8
0
 62
     7
420
 16777215
370
    25
100
AcDbVertex
100
AcDb2dVertex
 10
50.74751418950137
 20
226.3839044935524
 30
0.0
  0
VERTEX
  5
A6
330
40
100
AcDbEntity
  8
0
 62
     7
420
 16777215
370
    25
100
AcDbVertex
100
AcDb2dVertex
 10
51.11409933293462
 20
224.1299373347834
 30
0.0
  0
VERTEX
  5
A7
330
40
100
AcDbEntity
  8
0
 62
     7
420
 16777215
370
    25
100
AcDbVertex
100
AcDb2dVertex
 10
51.44313853582157
 20
222.0634289779879
 30
0.0
  0
VERTEX
  5
A8
330
40
100
AcDbEntity
  8
0
 62
     7
420
 16777215
370
    25
100
AcDbVertex
100
AcDb2dVertex
 10
51.71032956013588
 20
220.1975537849917
 30
0.0
  0
VERTEX
  5
A9
330
40
100
AcDbEntity
  8
0
 62
     7
420
 16777215
370
    25
100
AcDbVertex
100
AcDb2dVertex
 10
51.89128838051851
 20
218.542301211928
 30
0.0
  0
VERTEX
  5
AA
330
40
100
AcDbEntity
  8
0
 62
     7
420
 16777215
370
    25
100
AcDbVertex
100
AcDb2dVertex
 10
51.96209061777618
 20
217.1041365619707
 30
0.0
  0
VERTEX
  5
AB
330
40
100
AcDbEntity
  8
0
 62
     7
420
 16777215
370
    25
100
AcDbVertex
100
AcDb2dVertex
 10
51.89981856133519
 20
215.8856611917176
 30
0.0
  0
SEQEND
  5
AC
330
40
100
AcDbEntity
  8
0
 62
     7
420
 16777215
370
    25
  0
SPLINE
  5
AD
330
1F
100
AcDbEntity
  8
0
 62
     7
420
 16777215
370
    25
100
AcDbSpline
210
0.0
220
0.0
230
1.0
 70
    11
 71
     3
 72
    20
 73
    16
 74
     0
 42
0.0000000001
 43
0.0000000001
 12
1.0
 22
0.0
 32
0.0
 13
1.0
 23
0.0
 33
0.0
 40
0.0
 40
0.0
 40
0.0
 40
0.0
 40
1.0
 40
1.0
 40
1.0
 40
2.0
 40
2.0
 40
2.0
 40
3.0
 40
3.0
 40
3.0
 40
4.0
 40
4.0
 40
4.0
 40
5.0
 40
5.0
 40
5.0
 40
5.0
 10
-17.48993174209356
 20
277.9854113745029
 30
0.0
 10
-17.48993174209356
 20
278.9519096867069
 30
0.0
 10
-16.70643005429734
 20
279.7354113745031
 30
0.0
 10
-15.73993174209365
 20
279.7354113745031
 30
0.0
 10
-14.77343342988964
 20
279.7354113745031
 30
0.0
 10
-13.98993174209343
 20
278.9519096867069
 30
0.0
 10
-13.98993174209343
 20
277.9854113745029
 30
0.0
 10
-13.98993174209343
 20
277.0189130622992
 30
0.0
 10
-14.77343342988964
 20
276.235411374503
 30
0.0
 10
-15.73993174209365
 20
276.235411374503
 30
0.0
 10
-16.70643005429734
 20
276.235411374503
 30
0.0
 10
-17.48993174209356
 20
277.0189130622992
 30
0.0
 10
-17.48993174209356
 20
277.9854113745029
 30
0.0
 10
-17.48993174209356
 20
277.9854113745029
 30
0.0
 10
-17.48993174209356
 20
277.9854113745029
 30
0.0
 10
-17.48993174209356
 20
277.9854113745029
 30
0.0
  0
SPLINE
  5
AE
330
1F
100
AcDbEntity
  8
0
 62
     7
420
 16777215
370
    25
100
AcDbSpline
210
0.0
220
0.0
230
1.0
 70
    11
 71
     3
 72
    20
 73
    16
 74
     0
 42
0.0000000001
 43
0.0000000001
 12
1.0
 22
0.0
 32
0.0
 13
1.0
 23
0.0
 33
0.0
 40
0.0
 40
0.0
 40
0.0
 40
0.0
 40
1.0
 40
1.0
 40
1.0
 40
2.0
 40
2.0
 40
2.0
 40
3.0
 40
3.0
 40
3.0
 40
4.0
 40
4.0
 40
4.0
 40
5.0
 40
5.0
 40
5.0
 40
5.0
 10
47.14981856133519
 20
215.8856611917176
 30
0.0
 10
47.14981856133519
 20
216.852159503922
 30
0.0
 10
47.9333202491314
 20
217.6356611917182
 30
0.0
 10
48.89981856133509
 20
217.6356611917182
 30
0.0
 10
49.86631687353878
 20
217.6356611917182
 30
0.0
 10
50.64981856133499
 20
216.852159503922
 30
0.0
 10
50.64981856133499
 20
215.8856611917176
 30
0.0
 10
50.64981856133499
 20
214.9191628795139
 30
0.0
 10
49.86631687353878
 20
214.1356611917178
 30
0.0
 10
48.89981856133509
 20
214.1356611917178
 30
0.0
 10
47.9333202491314
 20
214.1356611917178
 30
0.0
 10
47.14981856133519
 20
214.9191628795139
 30
0.0
 10
47.14981856133519
 20
215.8856611917176
 30
0.0
 10
47.14981856133519
 20
215.8856611917176
 30
0.0
 10
47.14981856133519
 20
215.8856611917176
 30
0.0
 10
47.14981856133519
 20
215.8856611917176
 30
0.0
  0
SPLINE
  5
AF
330
1F
100
AcDbEntity
  8
0
 62
     7
420
 16777215
370
    25
100
AcDbSpline
210
0.0
220
0.0
230
1.0
 70
    11
 71
     3
 72
    20
 73
    16
 74
     0
 42
0.0000000001
 43
0.0000000001
 12
1.0
 22
0.0
 32
0.0
 13
1.0
 23
0.0
 33
0.0
 40
0.0
 40
0.0
 40
0.0
 40
0.0
 40
1.0
 40
1.0
 40
1.0
 40
2.0
 40
2.0
 40
2.0
 40
3.0
 40
3.0
 40
3.0
 40
4.0
 40
4.0
 40
4.0
 40
5.0
 40
5.0
 40
5.0
 40
5.0
 10
-17.52584396092112
 20
216.4105725019535
 30
0.0
 10
-17.52584396092112
 20
217.3770708141579
 30
0.0
 10
-16.74234227312491
 20
218.1605725019541
 30
0.0
 10
-15.7758439609209
 20
218.1605725019541
 30
0.0
 10
-14.80934564871721
 20
218.1605725019541
 30
0.0
 10
-14.025843960921
 20
217.3770708141579
 30
0.0
 10
-14.025843960921
 20
216.4105725019535
 30
0.0
 10
-14.025843960921
 20
215.4440741897498
 30
0.0
 10
-14.80934564871721
 20
214.6605725019536
 30
0.0
 10
-15.7758439609209
 20
214.6605725019536
 30
0.0
 10
-16.74234227312491
 20
214.6605725019536
 30
0.0
 10
-17.52584396092112
 20
215.4440741897498
 30
0.0
 10
-17.52584396092112
 20
216.4105725019535
 30
0.0
 10
-17.52584396092112
 20
216.4105725019535
 30
0.0
 10
-17.52584396092112
 20
216.4105725019535
 30
0.0
 10
-17.52584396092112
 20
216.4105725019535
 30
0.0
  0
SPLINE
  5
B0
330
1F
100
AcDbEntity
  8
0
 62
     7
420
 16777215
370
    25
100
AcDbSpline
210
0.0
220
0.0
230
1.0
 70
    11
 71
     3
 72
    20
 73
    16
 74
     0
 42
0.0000000001
 43
0.0000000001
 12
1.0
 22
0.0
 32
0.0
 13
1.0
 23
0.0
 33
0.0
 40
0.0
 40
0.0
 40
0.0
 40
0.0
 40
1.0
 40
1.0
 40
1.0
 40
2.0
 40
2.0
 40
2.0
 40
3.0
 40
3.0
 40
3.0
 40
4.0
 40
4.0
 40
4.0
 40
5.0
 40
5.0
 40
5.0
 40
5.0
 10
47.18573078016244
 20
277.460500064267
 30
0.0
 10
47.18573078016244
 20
278.426998376471
 30
0.0
 10
47.96923246795865
 20
279.2105000642673
 30
0.0
 10
48.93573078016234
 20
279.2105000642673
 30
0.0
 10
49.90222909236667
 20
279.2105000642673
 30
0.0
 10
50.68573078016288
 20
278.426998376471
 30
0.0
 10
50.68573078016288
 20
277.460500064267
 30
0.0
 10
50.68573078016288
 20
276.4940017520634
 30
0.0
 10
49.90222909236667
 20
275.7105000642671
 30
0.0
 10
48.93573078016234
 20
275.7105000642671
 30
0.0
 10
47.96923246795865
 20
275.7105000642671
 30
0.0
 10
47.18573078016244
 20
276.4940017520634
 30
0.0
 10
47.18573078016244
 20
277.460500064267
 30
0.0
 10
47.18573078016244
 20
277.460500064267
 30
0.0
 10
47.18573078016244
 20
277.460500064267
 30
0.0
 10
47.18573078016244
 20
277.460500064267
 30
0.0
  0
ENDSEC
  0
SECTION
  2
OBJECTS
  0
DICTIONARY
  5
C
330
0
100
AcDbDictionary
281
     1
  3
ACAD_GROUP
350
D
  3
ACAD_LAYOUT
350
1A
  3
ACAD_MATERIAL
350
3B
  3
ACAD_MLEADERSTYLE
350
B2
  3
ACAD_MLINESTYLE
350
17
  3
ACAD_PLOTSETTINGS
350
19
  3
ACAD_PLOTSTYLENAME
350
E
  3
ACAD_TABLESTYLE
350
B1
  3
ACAD_VISUALSTYLE
350
2A
  0
SUN
  5
3F
330
29
100
AcDbSun
 90
        1
290
     0
 63
     7
421
 16777215
 40
1.0
291
     1
 91
  2455826
 92
 54000000
292
     0
 70
     2
 71
   256
280
     1
  0
DICTIONARY
  5
D
102
{ACAD_REACTORS
330
C
102
}
330
C
100
AcDbDictionary
281
     1
  0
DICTIONARY
  5
1A
102
{ACAD_REACTORS
330
C
102
}
330
C
100
AcDbDictionary
281
     1
  3
Layout1
350
1E
  3
Layout2
350
26
  3
Model
350
22
  0
DICTIONARY
  5
3B
102
{ACAD_REACTORS
330
C
102
}
330
C
100
AcDbDictionary
281
     1
  3
ByBlock
350
3D
  3
ByLayer
350
3C
  3
Global
350
3E
  0
DICTIONARY
  5
B2
102
{ACAD_REACTORS
330
C
102
}
330
C
100
AcDbDictionary
281
     1
  0
DICTIONARY
  5
17
102
{ACAD_REACTORS
330
C
102
}
330
C
100
AcDbDictionary
281
     1
  3
Standard
350
18
  0
DICTIONARY
  5
19
102
{ACAD_REACTORS
330
C
102
}
330
C
100
AcDbDictionary
281
     1
  0
ACDBDICTIONARYWDFLT
  5
E
102
{ACAD_REACTORS
330
C
102
}
330
C
100
AcDbDictionary
281
     1
  3
Normal
350
F
100
AcDbDictionaryWithDefault
340
F
  0
DICTIONARY
  5
B1
102
{ACAD_REACTORS
330
C
102
}
330
C
100
AcDbDictionary
281
     1
  0
DICTIONARY
  5
2A
102
{ACAD_REACTORS
330
C
102
}
330
C
100
AcDbDictionary
281
     1
  3
2dWireframe
350
2F
  3
3D Hidden
350
31
  3
3dWireframe
350
30
  3
Basic
350
32
  3
Brighten
350
36
  3
ColorChange
350
3A
  3
Conceptual
350
34
  3
Dim
350
35
  3
Facepattern
350
39
  3
Flat
350
2B
  3
FlatWithEdges
350
2C
  3
Gouraud
350
2D
  3
GouraudWithEdges
350
2E
  3
Linepattern
350
38
  3
Realistic
350
33
  3
Thicken
350
37
  0
LAYOUT
  5
1E
102
{ACAD_REACTORS
330
1A
102
}
330
1A
100
AcDbPlotSettings
  1

  2
none_device
  4

  6

 40
0.0
 41
0.0
 42
0.0
 43
0.0
 44
0.0
 45
0.0
 46
0.0
 47
0.0
 48
0.0
 49
0.0
140
0.0
141
0.0
142
1.0
143
1.0
 70
   688
 72
     0
 73
     0
 74
     5
  7

 75
    16
 76
     0
 77
     2
 78
   300
147
1.0
148
0.0
149
0.0
100
AcDbLayout
  1
Layout1
 70
     1
 71
     1
 10
0.0
 20
0.0
 11
12.0
 21
9.0
 12
0.0
 22
0.0
 32
0.0
 14
1.000000000000000E+20
 24
1.000000000000000E+20
 34
1.000000000000000E+20
 15
-1.000000000000000E+20
 25
-1.000000000000000E+20
 35
-1.000000000000000E+20
146
0.0
 13
0.0
 23
0.0
 33
0.0
 16
1.0
 26
0.0
 36
0.0
 17
0.0
 27
1.0
 37
0.0
 76
     0
330
1B
  0
LAYOUT
  5
26
102
{ACAD_REACTORS
330
1A
102
}
330
1A
100
AcDbPlotSettings
  1

  2
none_device
  4

  6

 40
0.0
 41
0.0
 42
0.0
 43
0.0
 44
0.0
 45
0.0
 46
0.0
 47
0.0
 48
0.0
 49
0.0
140
0.0
141
0.0
142
1.0
143
1.0
 70
   688
 72
     0
 73
     0
 74
     5
  7

 75
    16
 76
     0
 77
     2
 78
   300
147
1.0
148
0.0
149
0.0
100
AcDbLayout
  1
Layout2
 70
     1
 71
     2
 10
0.0
 20
0.0
 11
0.0
 21
0.0
 12
0.0
 22
0.0
 32
0.0
 14
0.0
 24
0.0
 34
0.0
 15
0.0
 25
0.0
 35
0.0
146
0.0
 13
0.0
 23
0.0
 33
0.0
 16
1.0
 26
0.0
 36
0.0
 17
0.0
 27
1.0
 37
0.0
 76
     0
330
23
  0
LAYOUT
  5
22
102
{ACAD_REACTORS
330
1A
102
}
330
1A
100
AcDbPlotSettings
  1

  2
none_device
  4

  6

 40
0.0
 41
0.0
 42
0.0
 43
0.0
 44
0.0
 45
0.0
 46
0.0
 47
0.0
 48
0.0
 49
0.0
140
0.0
141
0.0
142
1.0
143
1.0
 70
  1712
 72
     0
 73
     0
 74
     0
  7

 75
     0
 76
     0
 77
     2
 78
   300
147
1.0
148
0.0
149
0.0
100
AcDbLayout
  1
Model
 70
     1
 71
     0
 10
0.0
 20
0.0
 11
12.0
 21
9.0
 12
0.0
 22
0.0
 32
0.0
 14
1.000000000000000E+20
 24
1.000000000000000E+20
 34
1.000000000000000E+20
 15
-1.000000000000000E+20
 25
-1.000000000000000E+20
 35
-1.000000000000000E+20
146
0.0
 13
0.0
 23
0.0
 33
0.0
 16
1.0
 26
0.0
 36
0.0
 17
0.0
 27
1.0
 37
0.0
 76
     0
330
1F
331
29
  0
MATERIAL
  5
3D
102
{ACAD_REACTORS
330
3B
102
}
330
3B
100
AcDbMaterial
  1
ByBlock
 72
     1
 94
      127
  0
MATERIAL
  5
3C
102
{ACAD_REACTORS
330
3B
102
}
330
3B
100
AcDbMaterial
  1
ByLayer
 72
     1
 94
      127
  0
MATERIAL
  5
3E
102
{ACAD_REACTORS
330
3B
102
}
330
3B
100
AcDbMaterial
  1
Global
 72
     1
 94
      127
  0
MLINESTYLE
  5
18
102
{ACAD_REACTORS
330
17
102
}
330
17
100
AcDbMlineStyle
  2
Standard
 70
     0
  3

 62
   256
 51
90.0
 52
90.0
 71
     2
 49
0.5
 62
   256
  6
BYLAYER
 49
-0.5
 62
   256
  6
BYLAYER
  0
ACDBPLACEHOLDER
  5
F
102
{ACAD_REACTORS
330
E
102
}
330
E
  0
VISUALSTYLE
  5
2F
102
{ACAD_REACTORS
330
2A
102
}
330
2A
100
AcDbVisualStyle
  2
2dWireframe
 70
     4
177
     2
291
     0
 71
     0
176
     1
 72
     2
176
     1
 73
     0
176
     1
 90
        0
176
     1
 40
-0.6
176
     1
 41
-30.0
176
     1
 62
     5
 63
     7
421
 16777215
176
     1
 74
     1
176
     1
 91
        4
176
     1
 64
     7
176
     1
 65
   257
176
     1
 75
     1
176
     1
175
     1
176
     1
 42
1.0
176
     1
 92
        0
176
     1
 66
   257
176
     1
 43
1.0
176
     1
 76
     1
176
     1
 77
     6
176
     1
 78
     2
176
     1
 67
     7
176
     1
 79
     5
176
     1
170
     0
176
     1
171
     0
176
     1
290
     0
176
     1
 93
        1
176
     1
 44
0.0
176
     1
173
     0
176
     1
  0
VISUALSTYLE
  5
31
102
{ACAD_REACTORS
330
2A
102
}
330
2A
100
AcDbVisualStyle
  2
3D Hidden
 70
     6
177
     2
291
     0
 71
     1
176
     1
 72
     2
176
     1
 73
     2
176
     1
 90
        0
176
     1
 40
-0.6
176
     1
 41
-30.0
176
     1
 62
     5
 63
     7
421
 16777215
176
     1
 74
     2
176
     1
 91
        2
176
     1
 64
     7
176
     1
 65
   257
176
     1
 75
     2
176
     1
175
     1
176
     1
 42
40.0
176
     1
 92
        0
176
     1
 66
   257
176
     1
 43
1.0
176
     1
 76
     1
176
     1
 77
     6
176
     1
 78
     2
176
     1
 67
     7
176
     1
 79
     3
176
     1
170
     0
176
     1
171
     0
176
     1
290
     0
176
     1
 93
        1
176
     1
 44
0.0
176
     1
173
     0
176
     1
  0
VISUALSTYLE
  5
30
102
{ACAD_REACTORS
330
2A
102
}
330
2A
100
AcDbVisualStyle
  2
3dWireframe
 70
     5
177
     2
291
     0
 71
     0
176
     1
 72
     2
176
     1
 73
     0
176
     1
 90
        0
176
     1
 40
-0.6
176
     1
 41
-30.0
176
     1
 62
     5
 63
     7
421
 16777215
176
     1
 74
     1
176
     1
 91
        4
176
     1
 64
     7
176
     1
 65
   257
176
     1
 75
     1
176
     1
175
     1
176
     1
 42
1.0
176
     1
 92
        0
176
     1
 66
   257
176
     1
 43
1.0
176
     1
 76
     1
176
     1
 77
     6
176
     1
 78
     2
176
     1
 67
     7
176
     1
 79
     5
176
     1
170
     0
176
     1
171
     0
176
     1
290
     0
176
     1
 93
        1
176
     1
 44
0.0
176
     1
173
     0
176
     1
  0
VISUALSTYLE
  5
32
102
{ACAD_REACTORS
330
2A
102
}
330
2A
100
AcDbVisualStyle
  2
Basic
 70
     7
177
     2
291
     1
 71
     1
176
     1
 72
     0
176
     1
 73
     1
176
     1
 90
        0
176
     1
 40
-0.6
176
     1
 41
-30.0
176
     1
 62
     5
 63
     7
421
 16777215
176
     1
 74
     0
176
     1
 91
        4
176
     1
 64
     7
176
     1
 65
   257
176
     1
 75
     1
176
     1
175
     1
176
     1
 42
1.0
176
     1
 92
        8
176
     1
 66
     7
176
     1
 43
1.0
176
     1
 76
     1
176
     1
 77
     6
176
     1
 78
     2
176
     1
 67
     7
176
     1
 79
     5
176
     1
170
     0
176
     1
171
     0
176
     1
290
     0
176
     1
 93
        1
176
     1
 44
0.0
176
     1
173
     0
176
     1
  0
VISUALSTYLE
  5
36
102
{ACAD_REACTORS
330
2A
102
}
330
2A
100
AcDbVisualStyle
  2
Brighten
 70
    12
177
     2
291
     1
 71
     2
176
     1
 72
     2
176
     1
 73
     0
176
     1
 90
        0
176
     1
 40
-0.6
176
     1
 41
-30.0
176
     1
 62
     5
 63
     7
421
 16777215
176
     1
 74
     1
176
     1
 91
        4
176
     1
 64
     7
176
     1
 65
   257
176
     1
 75
     1
176
     1
175
     1
176
     1
 42
1.0
176
     1
 92
        8
176
     1
 66
     7
176
     1
 43
1.0
176
     1
 76
     1
176
     1
 77
     6
176
     1
 78
     2
176
     1
 67
     7
176
     1
 79
     5
176
     1
170
     0
176
     1
171
     0
176
     1
290
     0
176
     1
 93
        1
176
     1
 44
50.0
176
     1
173
     0
176
     1
  0
VISUALSTYLE
  5
3A
102
{ACAD_REACTORS
330
2A
102
}
330
2A
100
AcDbVisualStyle
  2
ColorChange
 70
    16
177
     2
291
     1
 71
     2
176
     1
 72
     2
176
     1
 73
     3
176
     1
 90
        0
176
     1
 40
-0.6
176
     1
 41
-30.0
176
     1
 62
     5
 63
     8
421
  8421504
176
     1
 74
     1
176
     1
 91
        4
176
     1
 64
     7
176
     1
 65
   257
176
     1
 75
     1
176
     1
175
     1
176
     1
 42
1.0
176
     1
 92
        8
176
     1
 66
     8
424
  8421504
176
     1
 43
1.0
176
     1
 76
     1
176
     1
 77
     6
176
     1
 78
     2
176
     1
 67
     7
176
     1
 79
     5
176
     1
170
     0
176
     1
171
     0
176
     1
290
     0
176
     1
 93
        1
176
     1
 44
0.0
176
     1
173
     0
176
     1
  0
VISUALSTYLE
  5
34
102
{ACAD_REACTORS
330
2A
102
}
330
2A
100
AcDbVisualStyle
  2
Conceptual
 70
     9
177
     2
291
     0
 71
     3
176
     1
 72
     2
176
     1
 73
     0
176
     1
 90
        0
176
     1
 40
-0.6
176
     1
 41
-30.0
176
     1
 62
     5
 63
     7
421
 16777215
176
     1
 74
     2
176
     1
 91
        2
176
     1
 64
     7
176
     1
 65
   257
176
     1
 75
     1
176
     1
175
     1
176
     1
 42
40.0
176
     1
 92
        8
176
     1
 66
     7
176
     1
 43
1.0
176
     1
 76
     1
176
     1
 77
     6
176
     1
 78
     2
176
     1
 67
     7
176
     1
 79
     3
176
     1
170
     0
176
     1
171
     0
176
     1
290
     0
176
     1
 93
        1
176
     1
 44
0.0
176
     1
173
     0
176
     1
  0
VISUALSTYLE
  5
35
102
{ACAD_REACTORS
330
2A
102
}
330
2A
100
AcDbVisualStyle
  2
Dim
 70
    11
177
     2
291
     1
 71
     2
176
     1
 72
     2
176
     1
 73
     0
176
     1
 90
        0
176
     1
 40
-0.6
176
     1
 41
-30.0
176
     1
 62
     5
 63
     7
421
 16777215
176
     1
 74
     1
176
     1
 91
        4
176
     1
 64
     7
176
     1
 65
   257
176
     1
 75
     1
176
     1
175
     1
176
     1
 42
1.0
176
     1
 92
        8
176
     1
 66
     7
176
     1
 43
1.0
176
     1
 76
     1
176
     1
 77
     6
176
     1
 78
     2
176
     1
 67
     7
176
     1
 79
     5
176
     1
170
     0
176
     1
171
     0
176
     1
290
     0
176
     1
 93
        1
176
     1
 44
-50.0
176
     1
173
     0
176
     1
  0
VISUALSTYLE
  5
39
102
{ACAD_REACTORS
330
2A
102
}
330
2A
100
AcDbVisualStyle
  2
Facepattern
 70
    15
177
     2
291
     1
 71
     2
176
     1
 72
     2
176
     1
 73
     0
176
     1
 90
        0
176
     1
 40
-0.6
176
     1
 41
-30.0
176
     1
 62
     5
 63
     7
421
 16777215
176
     1
 74
     1
176
     1
 91
        4
176
     1
 64
     7
176
     1
 65
   257
176
     1
 75
     1
176
     1
175
     1
176
     1
 42
1.0
176
     1
 92
        8
176
     1
 66
     7
176
     1
 43
1.0
176
     1
 76
     1
176
     1
 77
     6
176
     1
 78
     2
176
     1
 67
     7
176
     1
 79
     5
176
     1
170
     0
176
     1
171
     0
176
     1
290
     0
176
     1
 93
        1
176
     1
 44
0.0
176
     1
173
     0
176
     1
  0
VISUALSTYLE
  5
2B
102
{ACAD_REACTORS
330
2A
102
}
330
2A
100
AcDbVisualStyle
  2
Flat
 70
     0
177
     2
291
     1
 71
     2
176
     1
 72
     1
176
     1
 73
     1
176
     1
 90
        2
176
     1
 40
-0.6
176
     1
 41
30.0
176
     1
 62
     5
 63
     7
421
 16777215
176
     1
 74
     0
176
     1
 91
        4
176
     1
 64
     7
176
     1
 65
   257
176
     1
 75
     1
176
     1
175
     1
176
     1
 42
1.0
176
     1
 92
        8
176
     1
 66
     7
176
     1
 43
1.0
176
     1
 76
     1
176
     1
 77
     6
176
     1
 78
     2
176
     1
 67
     7
176
     1
 79
     5
176
     1
170
     0
176
     1
171
     0
176
     1
290
     0
176
     1
 93
       13
176
     1
 44
0.0
176
     1
173
     0
176
     1
  0
VISUALSTYLE
  5
2C
102
{ACAD_REACTORS
330
2A
102
}
330
2A
100
AcDbVisualStyle
  2
FlatWithEdges
 70
     1
177
     2
291
     1
 71
     2
176
     1
 72
     1
176
     1
 73
     1
176
     1
 90
        2
176
     1
 40
-0.6
176
     1
 41
30.0
176
     1
 62
     5
 63
     7
421
 16777215
176
     1
 74
     1
176
     1
 91
        4
176
     1
 64
     7
176
     1
 65
   257
176
     1
 75
     1
176
     1
175
     1
176
     1
 42
1.0
176
     1
 92
        0
176
     1
 66
   257
176
     1
 43
1.0
176
     1
 76
     1
176
     1
 77
     6
176
     1
 78
     2
176
     1
 67
     7
176
     1
 79
     5
176
     1
170
     0
176
     1
171
     0
176
     1
290
     0
176
     1
 93
       13
176
     1
 44
0.0
176
     1
173
     0
176
     1
  0
VISUALSTYLE
  5
2D
102
{ACAD_REACTORS
330
2A
102
}
330
2A
100
AcDbVisualStyle
  2
Gouraud
 70
     2
177
     2
291
     1
 71
     2
176
     1
 72
     2
176
     1
 73
     1
176
     1
 90
        2
176
     1
 40
-0.6
176
     1
 41
30.0
176
     1
 62
     5
 63
     7
421
 16777215
176
     1
 74
     0
176
     1
 91
        4
176
     1
 64
     7
176
     1
 65
   257
176
     1
 75
     1
176
     1
175
     1
176
     1
 42
1.0
176
     1
 92
        0
176
     1
 66
     7
176
     1
 43
1.0
176
     1
 76
     1
176
     1
 77
     6
176
     1
 78
     2
176
     1
 67
     7
176
     1
 79
     5
176
     1
170
     0
176
     1
171
     0
176
     1
290
     0
176
     1
 93
       13
176
     1
 44
0.0
176
     1
173
     0
176
     1
  0
VISUALSTYLE
  5
2E
102
{ACAD_REACTORS
330
2A
102
}
330
2A
100
AcDbVisualStyle
  2
GouraudWithEdges
 70
     3
177
     2
291
     1
 71
     2
176
     1
 72
     2
176
     1
 73
     1
176
     1
 90
        2
176
     1
 40
-0.6
176
     1
 41
30.0
176
     1
 62
     5
 63
     7
421
 16777215
176
     1
 74
     1
176
     1
 91
        4
176
     1
 64
     7
176
     1
 65
   257
176
     1
 75
     1
176
     1
175
     1
176
     1
 42
1.0
176
     1
 92
        0
176
     1
 66
   257
176
     1
 43
1.0
176
     1
 76
     1
176
     1
 77
     6
176
     1
 78
     2
176
     1
 67
     7
176
     1
 79
     5
176
     1
170
     0
176
     1
171
     0
176
     1
290
     0
176
     1
 93
       13
176
     1
 44
0.0
176
     1
173
     0
176
     1
  0
VISUALSTYLE
  5
38
102
{ACAD_REACTORS
330
2A
102
}
330
2A
100
AcDbVisualStyle
  2
Linepattern
 70
    14
177
     2
291
     1
 71
     2
176
     1
 72
     2
176
     1
 73
     0
176
     1
 90
        0
176
     1
 40
-0.6
176
     1
 41
-30.0
176
     1
 62
     5
 63
     7
421
 16777215
176
     1
 74
     1
176
     1
 91
        4
176
     1
 64
     7
176
     1
 65
   257
176
     1
 75
     7
176
     1
175
     7
176
     1
 42
1.0
176
     1
 92
        8
176
     1
 66
     7
176
     1
 43
1.0
176
     1
 76
     1
176
     1
 77
     6
176
     1
 78
     2
176
     1
 67
     7
176
     1
 79
     5
176
     1
170
     0
176
     1
171
     0
176
     1
290
     0
176
     1
 93
        1
176
     1
 44
0.0
176
     1
173
     0
176
     1
  0
VISUALSTYLE
  5
33
102
{ACAD_REACTORS
330
2A
102
}
330
2A
100
AcDbVisualStyle
  2
Realistic
 70
     8
177
     2
291
     0
 71
     2
176
     1
 72
     2
176
     1
 73
     0
176
     1
 90
        0
176
     1
 40
-0.6
176
     1
 41
-30.0
176
     1
 62
     5
 63
     7
421
 16777215
176
     1
 74
     1
176
     1
 91
        0
176
     1
 64
     7
176
     1
 65
   257
176
     1
 75
     1
176
     1
175
     1
176
     1
 42
1.0
176
     1
 92
        8
176
     1
 66
     8
424
  7895160
176
     1
 43
1.0
176
     1
 76
     1
176
     1
 77
     6
176
     1
 78
     2
176
     1
 67
     7
176
     1
 79
     5
176
     1
170
     0
176
     1
171
     0
176
     1
290
     0
176
     1
 93
       13
176
     1
 44
0.0
176
     1
173
     0
176
     1
  0
VISUALSTYLE
  5
37
102
{ACAD_REACTORS
330
2A
102
}
330
2A
100
AcDbVisualStyle
  2
Thicken
 70
    13
177
     2
291
     1
 71
     2
176
     1
 72
     2
176
     1
 73
     0
176
     1
 90
        0
176
     1
 40
-0.6
176
     1
 41
-30.0
176
     1
 62
     5
 63
     7
421
 16777215
176
     1
 74
     1
176
     1
 91
        4
176
     1
 64
     7
176
     1
 65
   257
176
     1
 75
     1
176
     1
175
     1
176
     1
 42
1.0
176
     1
 92
       12
176
     1
 66
     7
176
     1
 43
1.0
176
     1
 76
     1
176
     1
 77
     6
176
     1
 78
     2
176
     1
 67
     7
176
     1
 79
     5
176
     1
170
     0
176
     1
171
     0
176
     1
290
     0
176
     1
 93
        1
176
     1
 44
0.0
176
     1
173
     0
176
     1
  0
ENDSEC
  0
EOF
