  0
SECTION
  2
HEADER
  9
$ANGBASE
  50
0.0
  9
$ANGDIR
  70
1
  9
$MEASUREMENT
  70
1
  0
ENDSEC
  0
SECTION
  2
TABLES
  0
TABLE
  2
LTYPE
  70
4
  0
LTYPE
  5
40F
  2
CONTINUOUS
  70
0
  3
Solid line
  72
65
  73
0
  40
0.0
  0
LTYPE
  5
410
  2
DASHDOT
 70
0
  3
Dash Dot ____ _ ____ _
 72
65
 73
4
 40
2.0
 49
1.25
 49
-0.25
 49
0.25
 49
-0.25
  0
LTYPE
  5
411
  2
DASHED
 70
0
  3
Dashed __ __ __ __ __
 72
65
 73
2
 40
0.75
 49
0.5
 49
-0.25
  0
LTYPE
  5
43B
  2
DOTTED
 70
0
  3
Dotted .  .  .  .
 72
65
 73
2
 40
0.2
 49
0.0
 49
-0.2
  0
ENDTAB
  0
TABLE
  2
STYLE
  70
4
  0
STYLE
  2
KICAD
  70
0
  40
0
  41
1
  42
1
  50
0
  71
0
  3
isocp.shx
  0
STYLE
  2
KICADB
  70
0
  40
0
  41
1
  42
1
  50
0
  71
0
  3
isocp.shx
  0
STYLE
  2
KICADI
  70
0
  40
0
  41
1
  42
1
  50
15
  71
0
  3
isocp.shx
  0
STYLE
  2
KICADBI
  70
0
  40
0
  41
1
  42
1
  50
15
  71
0
  3
isocp.shx
  0
ENDTAB
  0
TABLE
  2
LAYER
  70
1
  0
LAYER
  2
BLACK
  70
0
  62
7
  6
CONTINUOUS
  0
ENDTAB
  0
ENDSEC
  0
SECTION
  2
ENTITIES
0
LINE
8
BLACK
6
CONTINUOUS
10
150.093
20
-97.0207
11
150.239
21
-97.081
0
LINE
8
BLACK
6
CONTINUOUS
10
150.239
20
-97.081
11
150.37
21
-97.1686
0
LINE
8
BLACK
6
CONTINUOUS
10
150.37
20
-97.1686
11
150.481
21
-97.28
0
LINE
8
BLACK
6
CONTINUOUS
10
150.481
20
-97.28
11
150.569
21
-97.4111
0
LINE
8
BLACK
6
CONTINUOUS
10
150.569
20
-97.4111
11
150.629
21
-97.5566
0
LINE
8
BLACK
6
CONTINUOUS
10
150.629
20
-97.5566
11
150.66
21
-97.7112
0
LINE
8
BLACK
6
CONTINUOUS
10
150.66
20
-97.7112
11
150.66
21
-97.8688
0
LINE
8
BLACK
6
CONTINUOUS
10
150.66
20
-97.8688
11
150.629
21
-98.0234
0
LINE
8
BLACK
6
CONTINUOUS
10
150.629
20
-98.0234
11
150.569
21
-98.1689
0
LINE
8
BLACK
6
CONTINUOUS
10
150.569
20
-98.1689
11
150.481
21
-98.3
0
LINE
8
BLACK
6
CONTINUOUS
10
150.481
20
-98.3
11
150.37
21
-98.4114
0
LINE
8
BLACK
6
CONTINUOUS
10
150.37
20
-98.4114
11
150.239
21
-98.499
0
LINE
8
BLACK
6
CONTINUOUS
10
150.239
20
-98.499
11
150.093
21
-98.5593
0
LINE
8
BLACK
6
CONTINUOUS
10
150.093
20
-98.5593
11
149.939
21
-98.59
0
LINE
8
BLACK
6
CONTINUOUS
10
149.939
20
-98.59
11
149.781
21
-98.59
0
LINE
8
BLACK
6
CONTINUOUS
10
149.781
20
-98.59
11
149.627
21
-98.5593
0
LINE
8
BLACK
6
CONTINUOUS
10
149.627
20
-98.5593
11
149.481
21
-98.499
0
LINE
8
BLACK
6
CONTINUOUS
10
149.481
20
-98.499
11
149.35
21
-98.4114
0
LINE
8
BLACK
6
CONTINUOUS
10
149.35
20
-98.4114
11
149.239
21
-98.3
0
LINE
8
BLACK
6
CONTINUOUS
10
149.239
20
-98.3
11
149.151
21
-98.1689
0
LINE
8
BLACK
6
CONTINUOUS
10
149.151
20
-98.1689
11
149.091
21
-98.0234
0
LINE
8
BLACK
6
CONTINUOUS
10
149.091
20
-98.0234
11
149.069
21
-97.915
0
LINE
8
BLACK
6
CONTINUOUS
10
149.069
20
-97.915
11
148.78
21
-97.915
0
LINE
8
BLACK
6
CONTINUOUS
10
148.78
20
-97.915
11
146.81
21
-99.8854
0
LINE
8
BLACK
6
CONTINUOUS
10
146.81
20
-99.8854
11
146.81
21
-109.529
0
LINE
8
BLACK
6
CONTINUOUS
10
146.81
20
-109.529
11
150.783
21
-113.502
0
LINE
8
BLACK
6
CONTINUOUS
10
150.783
20
-113.502
11
180.442
21
-113.502
0
LINE
8
BLACK
6
CONTINUOUS
10
180.442
20
-113.502
11
182.082
21
-111.862
0
LINE
8
BLACK
6
CONTINUOUS
10
182.082
20
-111.862
11
182.082
21
-107.521
0
LINE
8
BLACK
6
CONTINUOUS
10
182.082
20
-107.521
11
180.096
21
-105.535
0
LINE
8
BLACK
6
CONTINUOUS
10
180.096
20
-105.535
11
179.822
21
-105.535
0
LINE
8
BLACK
6
CONTINUOUS
10
179.822
20
-105.535
11
179.803
21
-105.632
0
LINE
8
BLACK
6
CONTINUOUS
10
179.803
20
-105.632
11
179.745
21
-105.771
0
LINE
8
BLACK
6
CONTINUOUS
10
179.745
20
-105.771
11
179.662
21
-105.896
0
LINE
8
BLACK
6
CONTINUOUS
10
179.662
20
-105.896
11
179.556
21
-106.002
0
LINE
8
BLACK
6
CONTINUOUS
10
179.556
20
-106.002
11
179.431
21
-106.085
0
LINE
8
BLACK
6
CONTINUOUS
10
179.431
20
-106.085
11
179.292
21
-106.143
0
LINE
8
BLACK
6
CONTINUOUS
10
179.292
20
-106.143
11
179.145
21
-106.172
0
LINE
8
BLACK
6
CONTINUOUS
10
179.145
20
-106.172
11
178.995
21
-106.172
0
LINE
8
BLACK
6
CONTINUOUS
10
178.995
20
-106.172
11
178.848
21
-106.143
0
LINE
8
BLACK
6
CONTINUOUS
10
178.848
20
-106.143
11
178.709
21
-106.085
0
LINE
8
BLACK
6
CONTINUOUS
10
178.709
20
-106.085
11
178.584
21
-106.002
0
LINE
8
BLACK
6
CONTINUOUS
10
178.584
20
-106.002
11
178.478
21
-105.896
0
LINE
8
BLACK
6
CONTINUOUS
10
178.478
20
-105.896
11
178.395
21
-105.771
0
LINE
8
BLACK
6
CONTINUOUS
10
178.395
20
-105.771
11
178.337
21
-105.632
0
LINE
8
BLACK
6
CONTINUOUS
10
178.337
20
-105.632
11
178.308
21
-105.485
0
LINE
8
BLACK
6
CONTINUOUS
10
178.308
20
-105.485
11
178.308
21
-105.335
0
LINE
8
BLACK
6
CONTINUOUS
10
178.308
20
-105.335
11
178.337
21
-105.188
0
LINE
8
BLACK
6
CONTINUOUS
10
178.337
20
-105.188
11
178.395
21
-105.049
0
LINE
8
BLACK
6
CONTINUOUS
10
178.395
20
-105.049
11
178.478
21
-104.924
0
LINE
8
BLACK
6
CONTINUOUS
10
178.478
20
-104.924
11
178.584
21
-104.818
0
LINE
8
BLACK
6
CONTINUOUS
10
178.584
20
-104.818
11
178.709
21
-104.735
0
LINE
8
BLACK
6
CONTINUOUS
10
178.709
20
-104.735
11
178.848
21
-104.677
0
LINE
8
BLACK
6
CONTINUOUS
10
178.848
20
-104.677
11
178.995
21
-104.648
0
LINE
8
BLACK
6
CONTINUOUS
10
178.995
20
-104.648
11
179.145
21
-104.648
0
LINE
8
BLACK
6
CONTINUOUS
10
179.145
20
-104.648
11
179.292
21
-104.677
0
LINE
8
BLACK
6
CONTINUOUS
10
179.292
20
-104.677
11
179.431
21
-104.735
0
LINE
8
BLACK
6
CONTINUOUS
10
179.431
20
-104.735
11
179.556
21
-104.818
0
LINE
8
BLACK
6
CONTINUOUS
10
179.556
20
-104.818
11
179.662
21
-104.924
0
LINE
8
BLACK
6
CONTINUOUS
10
179.662
20
-104.924
11
179.745
21
-105.049
0
LINE
8
BLACK
6
CONTINUOUS
10
179.745
20
-105.049
11
179.803
21
-105.188
0
LINE
8
BLACK
6
CONTINUOUS
10
179.803
20
-105.188
11
179.822
21
-105.285
0
LINE
8
BLACK
6
CONTINUOUS
10
179.822
20
-105.285
11
180.142
21
-105.285
0
LINE
8
BLACK
6
CONTINUOUS
10
180.142
20
-105.285
11
180.148
21
-105.284
0
LINE
8
BLACK
6
CONTINUOUS
10
180.148
20
-105.284
11
180.154
21
-105.285
0
LINE
8
BLACK
6
CONTINUOUS
10
180.154
20
-105.285
11
180.154
21
-105.285
0
LINE
8
BLACK
6
CONTINUOUS
10
180.154
20
-105.285
11
180.172
21
-105.287
0
LINE
8
BLACK
6
CONTINUOUS
10
180.172
20
-105.287
11
180.196
21
-105.294
0
LINE
8
BLACK
6
CONTINUOUS
10
180.196
20
-105.294
11
180.217
21
-105.306
0
LINE
8
BLACK
6
CONTINUOUS
10
180.217
20
-105.306
11
180.236
21
-105.321
0
LINE
8
BLACK
6
CONTINUOUS
10
180.236
20
-105.321
11
180.24
21
-105.326
0
LINE
8
BLACK
6
CONTINUOUS
10
180.24
20
-105.326
11
182.291
21
-107.377
0
LINE
8
BLACK
6
CONTINUOUS
10
182.291
20
-107.377
11
182.296
21
-107.381
0
LINE
8
BLACK
6
CONTINUOUS
10
182.296
20
-107.381
11
182.3
21
-107.385
0
LINE
8
BLACK
6
CONTINUOUS
10
182.3
20
-107.385
11
182.3
21
-107.385
0
LINE
8
BLACK
6
CONTINUOUS
10
182.3
20
-107.385
11
182.311
21
-107.4
0
LINE
8
BLACK
6
CONTINUOUS
10
182.311
20
-107.4
11
182.323
21
-107.421
0
LINE
8
BLACK
6
CONTINUOUS
10
182.323
20
-107.421
11
182.33
21
-107.445
0
LINE
8
BLACK
6
CONTINUOUS
10
182.33
20
-107.445
11
182.332
21
-107.463
0
LINE
8
BLACK
6
CONTINUOUS
10
182.332
20
-107.463
11
182.332
21
-107.463
0
LINE
8
BLACK
6
CONTINUOUS
10
182.332
20
-107.463
11
182.333
21
-107.469
0
LINE
8
BLACK
6
CONTINUOUS
10
182.333
20
-107.469
11
182.332
21
-107.476
0
LINE
8
BLACK
6
CONTINUOUS
10
182.332
20
-107.476
11
182.332
21
-111.907
0
LINE
8
BLACK
6
CONTINUOUS
10
182.332
20
-111.907
11
182.333
21
-111.914
0
LINE
8
BLACK
6
CONTINUOUS
10
182.333
20
-111.914
11
182.332
21
-111.92
0
LINE
8
BLACK
6
CONTINUOUS
10
182.332
20
-111.92
11
182.332
21
-111.92
0
LINE
8
BLACK
6
CONTINUOUS
10
182.332
20
-111.92
11
182.33
21
-111.938
0
LINE
8
BLACK
6
CONTINUOUS
10
182.33
20
-111.938
11
182.323
21
-111.962
0
LINE
8
BLACK
6
CONTINUOUS
10
182.323
20
-111.962
11
182.311
21
-111.983
0
LINE
8
BLACK
6
CONTINUOUS
10
182.311
20
-111.983
11
182.3
21
-111.998
0
LINE
8
BLACK
6
CONTINUOUS
10
182.3
20
-111.998
11
182.3
21
-111.998
0
LINE
8
BLACK
6
CONTINUOUS
10
182.3
20
-111.998
11
182.296
21
-112.002
0
LINE
8
BLACK
6
CONTINUOUS
10
182.296
20
-112.002
11
182.291
21
-112.006
0
LINE
8
BLACK
6
CONTINUOUS
10
182.291
20
-112.006
11
180.586
21
-113.711
0
LINE
8
BLACK
6
CONTINUOUS
10
180.586
20
-113.711
11
180.582
21
-113.716
0
LINE
8
BLACK
6
CONTINUOUS
10
180.582
20
-113.716
11
180.563
21
-113.731
0
LINE
8
BLACK
6
CONTINUOUS
10
180.563
20
-113.731
11
180.542
21
-113.743
0
LINE
8
BLACK
6
CONTINUOUS
10
180.542
20
-113.743
11
180.518
21
-113.75
0
LINE
8
BLACK
6
CONTINUOUS
10
180.518
20
-113.75
11
180.5
21
-113.752
0
LINE
8
BLACK
6
CONTINUOUS
10
180.5
20
-113.752
11
180.5
21
-113.752
0
LINE
8
BLACK
6
CONTINUOUS
10
180.5
20
-113.752
11
180.494
21
-113.753
0
LINE
8
BLACK
6
CONTINUOUS
10
180.494
20
-113.753
11
180.487
21
-113.752
0
LINE
8
BLACK
6
CONTINUOUS
10
180.487
20
-113.752
11
150.738
21
-113.752
0
LINE
8
BLACK
6
CONTINUOUS
10
150.738
20
-113.752
11
150.731
21
-113.753
0
LINE
8
BLACK
6
CONTINUOUS
10
150.731
20
-113.753
11
150.725
21
-113.752
0
LINE
8
BLACK
6
CONTINUOUS
10
150.725
20
-113.752
11
150.725
21
-113.752
0
LINE
8
BLACK
6
CONTINUOUS
10
150.725
20
-113.752
11
150.707
21
-113.75
0
LINE
8
BLACK
6
CONTINUOUS
10
150.707
20
-113.75
11
150.683
21
-113.743
0
LINE
8
BLACK
6
CONTINUOUS
10
150.683
20
-113.743
11
150.662
21
-113.731
0
LINE
8
BLACK
6
CONTINUOUS
10
150.662
20
-113.731
11
150.647
21
-113.72
0
LINE
8
BLACK
6
CONTINUOUS
10
150.647
20
-113.72
11
150.643
21
-113.716
0
LINE
8
BLACK
6
CONTINUOUS
10
150.643
20
-113.716
11
150.639
21
-113.711
0
LINE
8
BLACK
6
CONTINUOUS
10
150.639
20
-113.711
11
146.601
21
-109.673
0
LINE
8
BLACK
6
CONTINUOUS
10
146.601
20
-109.673
11
146.596
21
-109.669
0
LINE
8
BLACK
6
CONTINUOUS
10
146.596
20
-109.669
11
146.581
21
-109.65
0
LINE
8
BLACK
6
CONTINUOUS
10
146.581
20
-109.65
11
146.569
21
-109.629
0
LINE
8
BLACK
6
CONTINUOUS
10
146.569
20
-109.629
11
146.562
21
-109.605
0
LINE
8
BLACK
6
CONTINUOUS
10
146.562
20
-109.605
11
146.56
21
-109.587
0
LINE
8
BLACK
6
CONTINUOUS
10
146.56
20
-109.587
11
146.56
21
-109.587
0
LINE
8
BLACK
6
CONTINUOUS
10
146.56
20
-109.587
11
146.559
21
-109.581
0
LINE
8
BLACK
6
CONTINUOUS
10
146.559
20
-109.581
11
146.56
21
-109.574
0
LINE
8
BLACK
6
CONTINUOUS
10
146.56
20
-109.574
11
146.56
21
-99.8398
0
LINE
8
BLACK
6
CONTINUOUS
10
146.56
20
-99.8398
11
146.559
21
-99.8336
0
LINE
8
BLACK
6
CONTINUOUS
10
146.559
20
-99.8336
11
146.562
21
-99.8091
0
LINE
8
BLACK
6
CONTINUOUS
10
146.562
20
-99.8091
11
146.569
21
-99.7856
0
LINE
8
BLACK
6
CONTINUOUS
10
146.569
20
-99.7856
11
146.581
21
-99.7639
0
LINE
8
BLACK
6
CONTINUOUS
10
146.581
20
-99.7639
11
146.592
21
-99.7496
0
LINE
8
BLACK
6
CONTINUOUS
10
146.592
20
-99.7496
11
146.592
21
-99.7496
0
LINE
8
BLACK
6
CONTINUOUS
10
146.592
20
-99.7496
11
146.596
21
-99.7448
0
LINE
8
BLACK
6
CONTINUOUS
10
146.596
20
-99.7448
11
146.601
21
-99.7409
0
LINE
8
BLACK
6
CONTINUOUS
10
146.601
20
-99.7409
11
148.636
21
-97.7059
0
LINE
8
BLACK
6
CONTINUOUS
10
148.636
20
-97.7059
11
148.64
21
-97.7012
0
LINE
8
BLACK
6
CONTINUOUS
10
148.64
20
-97.7012
11
148.645
21
-97.6973
0
LINE
8
BLACK
6
CONTINUOUS
10
148.645
20
-97.6973
11
148.659
21
-97.6856
0
LINE
8
BLACK
6
CONTINUOUS
10
148.659
20
-97.6856
11
148.681
21
-97.674
0
LINE
8
BLACK
6
CONTINUOUS
10
148.681
20
-97.674
11
148.704
21
-97.6668
0
LINE
8
BLACK
6
CONTINUOUS
10
148.704
20
-97.6668
11
148.722
21
-97.665
0
LINE
8
BLACK
6
CONTINUOUS
10
148.722
20
-97.665
11
148.723
21
-97.665
0
LINE
8
BLACK
6
CONTINUOUS
10
148.723
20
-97.665
11
148.729
21
-97.6644
0
LINE
8
BLACK
6
CONTINUOUS
10
148.729
20
-97.6644
11
148.735
21
-97.665
0
LINE
8
BLACK
6
CONTINUOUS
10
148.735
20
-97.665
11
149.069
21
-97.665
0
LINE
8
BLACK
6
CONTINUOUS
10
149.069
20
-97.665
11
149.091
21
-97.5566
0
LINE
8
BLACK
6
CONTINUOUS
10
149.091
20
-97.5566
11
149.151
21
-97.4111
0
LINE
8
BLACK
6
CONTINUOUS
10
149.151
20
-97.4111
11
149.239
21
-97.28
0
LINE
8
BLACK
6
CONTINUOUS
10
149.239
20
-97.28
11
149.35
21
-97.1686
0
LINE
8
BLACK
6
CONTINUOUS
10
149.35
20
-97.1686
11
149.481
21
-97.081
0
LINE
8
BLACK
6
CONTINUOUS
10
149.481
20
-97.081
11
149.627
21
-97.0207
0
LINE
8
BLACK
6
CONTINUOUS
10
149.627
20
-97.0207
11
149.781
21
-96.99
0
LINE
8
BLACK
6
CONTINUOUS
10
149.781
20
-96.99
11
149.939
21
-96.99
0
LINE
8
BLACK
6
CONTINUOUS
10
149.939
20
-96.99
11
150.093
21
-97.0207
0
LINE
8
BLACK
6
CONTINUOUS
10
150.093
20
-99.5607
11
150.239
21
-99.621
0
LINE
8
BLACK
6
CONTINUOUS
10
150.239
20
-99.621
11
150.37
21
-99.7086
0
LINE
8
BLACK
6
CONTINUOUS
10
150.37
20
-99.7086
11
150.481
21
-99.82
0
LINE
8
BLACK
6
CONTINUOUS
10
150.481
20
-99.82
11
150.569
21
-99.9511
0
LINE
8
BLACK
6
CONTINUOUS
10
150.569
20
-99.9511
11
150.629
21
-100.097
0
LINE
8
BLACK
6
CONTINUOUS
10
150.629
20
-100.097
11
150.66
21
-100.251
0
LINE
8
BLACK
6
CONTINUOUS
10
150.66
20
-100.251
11
150.66
21
-100.409
0
LINE
8
BLACK
6
CONTINUOUS
10
150.66
20
-100.409
11
150.629
21
-100.563
0
LINE
8
BLACK
6
CONTINUOUS
10
150.629
20
-100.563
11
150.569
21
-100.709
0
LINE
8
BLACK
6
CONTINUOUS
10
150.569
20
-100.709
11
150.481
21
-100.84
0
LINE
8
BLACK
6
CONTINUOUS
10
150.481
20
-100.84
11
150.37
21
-100.951
0
LINE
8
BLACK
6
CONTINUOUS
10
150.37
20
-100.951
11
150.239
21
-101.039
0
LINE
8
BLACK
6
CONTINUOUS
10
150.239
20
-101.039
11
150.093
21
-101.099
0
LINE
8
BLACK
6
CONTINUOUS
10
150.093
20
-101.099
11
149.939
21
-101.13
0
LINE
8
BLACK
6
CONTINUOUS
10
149.939
20
-101.13
11
149.781
21
-101.13
0
LINE
8
BLACK
6
CONTINUOUS
10
149.781
20
-101.13
11
149.627
21
-101.099
0
LINE
8
BLACK
6
CONTINUOUS
10
149.627
20
-101.099
11
149.481
21
-101.039
0
LINE
8
BLACK
6
CONTINUOUS
10
149.481
20
-101.039
11
149.35
21
-100.951
0
LINE
8
BLACK
6
CONTINUOUS
10
149.35
20
-100.951
11
149.239
21
-100.84
0
LINE
8
BLACK
6
CONTINUOUS
10
149.239
20
-100.84
11
149.151
21
-100.709
0
LINE
8
BLACK
6
CONTINUOUS
10
149.151
20
-100.709
11
149.091
21
-100.563
0
LINE
8
BLACK
6
CONTINUOUS
10
149.091
20
-100.563
11
149.069
21
-100.455
0
LINE
8
BLACK
6
CONTINUOUS
10
149.069
20
-100.455
11
148.78
21
-100.455
0
LINE
8
BLACK
6
CONTINUOUS
10
148.78
20
-100.455
11
148.06
21
-101.175
0
LINE
8
BLACK
6
CONTINUOUS
10
148.06
20
-101.175
11
148.06
21
-109.011
0
LINE
8
BLACK
6
CONTINUOUS
10
148.06
20
-109.011
11
151.301
21
-112.252
0
LINE
8
BLACK
6
CONTINUOUS
10
151.301
20
-112.252
11
179.924
21
-112.252
0
LINE
8
BLACK
6
CONTINUOUS
10
179.924
20
-112.252
11
180.832
21
-111.344
0
LINE
8
BLACK
6
CONTINUOUS
10
180.832
20
-111.344
11
180.832
21
-108.811
0
LINE
8
BLACK
6
CONTINUOUS
10
180.832
20
-108.811
11
180.096
21
-108.075
0
LINE
8
BLACK
6
CONTINUOUS
10
180.096
20
-108.075
11
179.822
21
-108.075
0
LINE
8
BLACK
6
CONTINUOUS
10
179.822
20
-108.075
11
179.803
21
-108.172
0
LINE
8
BLACK
6
CONTINUOUS
10
179.803
20
-108.172
11
179.745
21
-108.311
0
LINE
8
BLACK
6
CONTINUOUS
10
179.745
20
-108.311
11
179.662
21
-108.436
0
LINE
8
BLACK
6
CONTINUOUS
10
179.662
20
-108.436
11
179.556
21
-108.542
0
LINE
8
BLACK
6
CONTINUOUS
10
179.556
20
-108.542
11
179.431
21
-108.625
0
LINE
8
BLACK
6
CONTINUOUS
10
179.431
20
-108.625
11
179.292
21
-108.683
0
LINE
8
BLACK
6
CONTINUOUS
10
179.292
20
-108.683
11
179.145
21
-108.712
0
LINE
8
BLACK
6
CONTINUOUS
10
179.145
20
-108.712
11
178.995
21
-108.712
0
LINE
8
BLACK
6
CONTINUOUS
10
178.995
20
-108.712
11
178.848
21
-108.683
0
LINE
8
BLACK
6
CONTINUOUS
10
178.848
20
-108.683
11
178.709
21
-108.625
0
LINE
8
BLACK
6
CONTINUOUS
10
178.709
20
-108.625
11
178.584
21
-108.542
0
LINE
8
BLACK
6
CONTINUOUS
10
178.584
20
-108.542
11
178.478
21
-108.436
0
LINE
8
BLACK
6
CONTINUOUS
10
178.478
20
-108.436
11
178.395
21
-108.311
0
LINE
8
BLACK
6
CONTINUOUS
10
178.395
20
-108.311
11
178.337
21
-108.172
0
LINE
8
BLACK
6
CONTINUOUS
10
178.337
20
-108.172
11
178.308
21
-108.025
0
LINE
8
BLACK
6
CONTINUOUS
10
178.308
20
-108.025
11
178.308
21
-107.875
0
LINE
8
BLACK
6
CONTINUOUS
10
178.308
20
-107.875
11
178.337
21
-107.728
0
LINE
8
BLACK
6
CONTINUOUS
10
178.337
20
-107.728
11
178.395
21
-107.589
0
LINE
8
BLACK
6
CONTINUOUS
10
178.395
20
-107.589
11
178.478
21
-107.464
0
LINE
8
BLACK
6
CONTINUOUS
10
178.478
20
-107.464
11
178.584
21
-107.358
0
LINE
8
BLACK
6
CONTINUOUS
10
178.584
20
-107.358
11
178.709
21
-107.275
0
LINE
8
BLACK
6
CONTINUOUS
10
178.709
20
-107.275
11
178.848
21
-107.217
0
LINE
8
BLACK
6
CONTINUOUS
10
178.848
20
-107.217
11
178.995
21
-107.188
0
LINE
8
BLACK
6
CONTINUOUS
10
178.995
20
-107.188
11
179.145
21
-107.188
0
LINE
8
BLACK
6
CONTINUOUS
10
179.145
20
-107.188
11
179.292
21
-107.217
0
LINE
8
BLACK
6
CONTINUOUS
10
179.292
20
-107.217
11
179.431
21
-107.275
0
LINE
8
BLACK
6
CONTINUOUS
10
179.431
20
-107.275
11
179.556
21
-107.358
0
LINE
8
BLACK
6
CONTINUOUS
10
179.556
20
-107.358
11
179.662
21
-107.464
0
LINE
8
BLACK
6
CONTINUOUS
10
179.662
20
-107.464
11
179.745
21
-107.589
0
LINE
8
BLACK
6
CONTINUOUS
10
179.745
20
-107.589
11
179.803
21
-107.728
0
LINE
8
BLACK
6
CONTINUOUS
10
179.803
20
-107.728
11
179.822
21
-107.825
0
LINE
8
BLACK
6
CONTINUOUS
10
179.822
20
-107.825
11
180.142
21
-107.825
0
LINE
8
BLACK
6
CONTINUOUS
10
180.142
20
-107.825
11
180.148
21
-107.824
0
LINE
8
BLACK
6
CONTINUOUS
10
180.148
20
-107.824
11
180.154
21
-107.825
0
LINE
8
BLACK
6
CONTINUOUS
10
180.154
20
-107.825
11
180.154
21
-107.825
0
LINE
8
BLACK
6
CONTINUOUS
10
180.154
20
-107.825
11
180.172
21
-107.827
0
LINE
8
BLACK
6
CONTINUOUS
10
180.172
20
-107.827
11
180.196
21
-107.834
0
LINE
8
BLACK
6
CONTINUOUS
10
180.196
20
-107.834
11
180.217
21
-107.846
0
LINE
8
BLACK
6
CONTINUOUS
10
180.217
20
-107.846
11
180.236
21
-107.861
0
LINE
8
BLACK
6
CONTINUOUS
10
180.236
20
-107.861
11
180.24
21
-107.866
0
LINE
8
BLACK
6
CONTINUOUS
10
180.24
20
-107.866
11
181.041
21
-108.667
0
LINE
8
BLACK
6
CONTINUOUS
10
181.041
20
-108.667
11
181.046
21
-108.671
0
LINE
8
BLACK
6
CONTINUOUS
10
181.046
20
-108.671
11
181.05
21
-108.675
0
LINE
8
BLACK
6
CONTINUOUS
10
181.05
20
-108.675
11
181.05
21
-108.675
0
LINE
8
BLACK
6
CONTINUOUS
10
181.05
20
-108.675
11
181.056
21
-108.683
0
LINE
8
BLACK
6
CONTINUOUS
10
181.056
20
-108.683
11
181.061
21
-108.69
0
LINE
8
BLACK
6
CONTINUOUS
10
181.061
20
-108.69
11
181.073
21
-108.711
0
LINE
8
BLACK
6
CONTINUOUS
10
181.073
20
-108.711
11
181.08
21
-108.735
0
LINE
8
BLACK
6
CONTINUOUS
10
181.08
20
-108.735
11
181.082
21
-108.753
0
LINE
8
BLACK
6
CONTINUOUS
10
181.082
20
-108.753
11
181.082
21
-108.753
0
LINE
8
BLACK
6
CONTINUOUS
10
181.082
20
-108.753
11
181.083
21
-108.759
0
LINE
8
BLACK
6
CONTINUOUS
10
181.083
20
-108.759
11
181.082
21
-108.765
0
LINE
8
BLACK
6
CONTINUOUS
10
181.082
20
-108.765
11
181.082
21
-111.39
0
LINE
8
BLACK
6
CONTINUOUS
10
181.082
20
-111.39
11
181.083
21
-111.396
0
LINE
8
BLACK
6
CONTINUOUS
10
181.083
20
-111.396
11
181.082
21
-111.402
0
LINE
8
BLACK
6
CONTINUOUS
10
181.082
20
-111.402
11
181.082
21
-111.402
0
LINE
8
BLACK
6
CONTINUOUS
10
181.082
20
-111.402
11
181.08
21
-111.42
0
LINE
8
BLACK
6
CONTINUOUS
10
181.08
20
-111.42
11
181.073
21
-111.444
0
LINE
8
BLACK
6
CONTINUOUS
10
181.073
20
-111.444
11
181.061
21
-111.466
0
LINE
8
BLACK
6
CONTINUOUS
10
181.061
20
-111.466
11
181.05
21
-111.48
0
LINE
8
BLACK
6
CONTINUOUS
10
181.05
20
-111.48
11
181.046
21
-111.485
0
LINE
8
BLACK
6
CONTINUOUS
10
181.046
20
-111.485
11
181.041
21
-111.488
0
LINE
8
BLACK
6
CONTINUOUS
10
181.041
20
-111.488
11
180.068
21
-112.461
0
LINE
8
BLACK
6
CONTINUOUS
10
180.068
20
-112.461
11
180.065
21
-112.466
0
LINE
8
BLACK
6
CONTINUOUS
10
180.065
20
-112.466
11
180.046
21
-112.481
0
LINE
8
BLACK
6
CONTINUOUS
10
180.046
20
-112.481
11
180.024
21
-112.493
0
LINE
8
BLACK
6
CONTINUOUS
10
180.024
20
-112.493
11
180
21
-112.5
0
LINE
8
BLACK
6
CONTINUOUS
10
180
20
-112.5
11
179.982
21
-112.502
0
LINE
8
BLACK
6
CONTINUOUS
10
179.982
20
-112.502
11
179.982
21
-112.502
0
LINE
8
BLACK
6
CONTINUOUS
10
179.982
20
-112.502
11
179.976
21
-112.503
0
LINE
8
BLACK
6
CONTINUOUS
10
179.976
20
-112.503
11
179.97
21
-112.502
0
LINE
8
BLACK
6
CONTINUOUS
10
179.97
20
-112.502
11
151.255
21
-112.502
0
LINE
8
BLACK
6
CONTINUOUS
10
151.255
20
-112.502
11
151.249
21
-112.503
0
LINE
8
BLACK
6
CONTINUOUS
10
151.249
20
-112.503
11
151.243
21
-112.502
0
LINE
8
BLACK
6
CONTINUOUS
10
151.243
20
-112.502
11
151.243
21
-112.502
0
LINE
8
BLACK
6
CONTINUOUS
10
151.243
20
-112.502
11
151.225
21
-112.5
0
LINE
8
BLACK
6
CONTINUOUS
10
151.225
20
-112.5
11
151.201
21
-112.493
0
LINE
8
BLACK
6
CONTINUOUS
10
151.201
20
-112.493
11
151.179
21
-112.481
0
LINE
8
BLACK
6
CONTINUOUS
10
151.179
20
-112.481
11
151.165
21
-112.47
0
LINE
8
BLACK
6
CONTINUOUS
10
151.165
20
-112.47
11
151.16
21
-112.466
0
LINE
8
BLACK
6
CONTINUOUS
10
151.16
20
-112.466
11
151.156
21
-112.461
0
LINE
8
BLACK
6
CONTINUOUS
10
151.156
20
-112.461
11
147.851
21
-109.156
0
LINE
8
BLACK
6
CONTINUOUS
10
147.851
20
-109.156
11
147.846
21
-109.152
0
LINE
8
BLACK
6
CONTINUOUS
10
147.846
20
-109.152
11
147.831
21
-109.133
0
LINE
8
BLACK
6
CONTINUOUS
10
147.831
20
-109.133
11
147.819
21
-109.111
0
LINE
8
BLACK
6
CONTINUOUS
10
147.819
20
-109.111
11
147.812
21
-109.087
0
LINE
8
BLACK
6
CONTINUOUS
10
147.812
20
-109.087
11
147.81
21
-109.069
0
LINE
8
BLACK
6
CONTINUOUS
10
147.81
20
-109.069
11
147.81
21
-109.069
0
LINE
8
BLACK
6
CONTINUOUS
10
147.81
20
-109.069
11
147.809
21
-109.063
0
LINE
8
BLACK
6
CONTINUOUS
10
147.809
20
-109.063
11
147.81
21
-109.057
0
LINE
8
BLACK
6
CONTINUOUS
10
147.81
20
-109.057
11
147.81
21
-101.13
0
LINE
8
BLACK
6
CONTINUOUS
10
147.81
20
-101.13
11
147.809
21
-101.124
0
LINE
8
BLACK
6
CONTINUOUS
10
147.809
20
-101.124
11
147.812
21
-101.099
0
LINE
8
BLACK
6
CONTINUOUS
10
147.812
20
-101.099
11
147.819
21
-101.076
0
LINE
8
BLACK
6
CONTINUOUS
10
147.819
20
-101.076
11
147.831
21
-101.054
0
LINE
8
BLACK
6
CONTINUOUS
10
147.831
20
-101.054
11
147.842
21
-101.04
0
LINE
8
BLACK
6
CONTINUOUS
10
147.842
20
-101.04
11
147.842
21
-101.04
0
LINE
8
BLACK
6
CONTINUOUS
10
147.842
20
-101.04
11
147.846
21
-101.035
0
LINE
8
BLACK
6
CONTINUOUS
10
147.846
20
-101.035
11
147.851
21
-101.031
0
LINE
8
BLACK
6
CONTINUOUS
10
147.851
20
-101.031
11
148.636
21
-100.246
0
LINE
8
BLACK
6
CONTINUOUS
10
148.636
20
-100.246
11
148.64
21
-100.241
0
LINE
8
BLACK
6
CONTINUOUS
10
148.64
20
-100.241
11
148.645
21
-100.237
0
LINE
8
BLACK
6
CONTINUOUS
10
148.645
20
-100.237
11
148.659
21
-100.226
0
LINE
8
BLACK
6
CONTINUOUS
10
148.659
20
-100.226
11
148.681
21
-100.214
0
LINE
8
BLACK
6
CONTINUOUS
10
148.681
20
-100.214
11
148.704
21
-100.207
0
LINE
8
BLACK
6
CONTINUOUS
10
148.704
20
-100.207
11
148.722
21
-100.205
0
LINE
8
BLACK
6
CONTINUOUS
10
148.722
20
-100.205
11
148.723
21
-100.205
0
LINE
8
BLACK
6
CONTINUOUS
10
148.723
20
-100.205
11
148.729
21
-100.204
0
LINE
8
BLACK
6
CONTINUOUS
10
148.729
20
-100.204
11
148.735
21
-100.205
0
LINE
8
BLACK
6
CONTINUOUS
10
148.735
20
-100.205
11
149.069
21
-100.205
0
LINE
8
BLACK
6
CONTINUOUS
10
149.069
20
-100.205
11
149.091
21
-100.097
0
LINE
8
BLACK
6
CONTINUOUS
10
149.091
20
-100.097
11
149.151
21
-99.9511
0
LINE
8
BLACK
6
CONTINUOUS
10
149.151
20
-99.9511
11
149.239
21
-99.82
0
LINE
8
BLACK
6
CONTINUOUS
10
149.239
20
-99.82
11
149.35
21
-99.7086
0
LINE
8
BLACK
6
CONTINUOUS
10
149.35
20
-99.7086
11
149.481
21
-99.621
0
LINE
8
BLACK
6
CONTINUOUS
10
149.481
20
-99.621
11
149.627
21
-99.5607
0
LINE
8
BLACK
6
CONTINUOUS
10
149.627
20
-99.5607
11
149.781
21
-99.53
0
LINE
8
BLACK
6
CONTINUOUS
10
149.781
20
-99.53
11
149.939
21
-99.53
0
LINE
8
BLACK
6
CONTINUOUS
10
149.939
20
-99.53
11
150.093
21
-99.5607
0
LINE
8
BLACK
6
CONTINUOUS
10
179.292
20
-109.757
11
179.431
21
-109.815
0
LINE
8
BLACK
6
CONTINUOUS
10
179.431
20
-109.815
11
179.556
21
-109.898
0
LINE
8
BLACK
6
CONTINUOUS
10
179.556
20
-109.898
11
179.662
21
-110.004
0
LINE
8
BLACK
6
CONTINUOUS
10
179.662
20
-110.004
11
179.745
21
-110.129
0
LINE
8
BLACK
6
CONTINUOUS
10
179.745
20
-110.129
11
179.803
21
-110.268
0
LINE
8
BLACK
6
CONTINUOUS
10
179.803
20
-110.268
11
179.832
21
-110.415
0
LINE
8
BLACK
6
CONTINUOUS
10
179.832
20
-110.415
11
179.832
21
-110.565
0
LINE
8
BLACK
6
CONTINUOUS
10
179.832
20
-110.565
11
179.803
21
-110.712
0
LINE
8
BLACK
6
CONTINUOUS
10
179.803
20
-110.712
11
179.745
21
-110.851
0
LINE
8
BLACK
6
CONTINUOUS
10
179.745
20
-110.851
11
179.662
21
-110.976
0
LINE
8
BLACK
6
CONTINUOUS
10
179.662
20
-110.976
11
179.556
21
-111.082
0
LINE
8
BLACK
6
CONTINUOUS
10
179.556
20
-111.082
11
179.431
21
-111.165
0
LINE
8
BLACK
6
CONTINUOUS
10
179.431
20
-111.165
11
179.292
21
-111.223
0
LINE
8
BLACK
6
CONTINUOUS
10
179.292
20
-111.223
11
179.145
21
-111.252
0
LINE
8
BLACK
6
CONTINUOUS
10
179.145
20
-111.252
11
178.995
21
-111.252
0
LINE
8
BLACK
6
CONTINUOUS
10
178.995
20
-111.252
11
178.848
21
-111.223
0
LINE
8
BLACK
6
CONTINUOUS
10
178.848
20
-111.223
11
178.709
21
-111.165
0
LINE
8
BLACK
6
CONTINUOUS
10
178.709
20
-111.165
11
178.584
21
-111.082
0
LINE
8
BLACK
6
CONTINUOUS
10
178.584
20
-111.082
11
178.478
21
-110.976
0
LINE
8
BLACK
6
CONTINUOUS
10
178.478
20
-110.976
11
178.395
21
-110.851
0
LINE
8
BLACK
6
CONTINUOUS
10
178.395
20
-110.851
11
178.337
21
-110.712
0
LINE
8
BLACK
6
CONTINUOUS
10
178.337
20
-110.712
11
178.308
21
-110.565
0
LINE
8
BLACK
6
CONTINUOUS
10
178.308
20
-110.565
11
178.308
21
-110.415
0
LINE
8
BLACK
6
CONTINUOUS
10
178.308
20
-110.415
11
178.337
21
-110.268
0
LINE
8
BLACK
6
CONTINUOUS
10
178.337
20
-110.268
11
178.395
21
-110.129
0
LINE
8
BLACK
6
CONTINUOUS
10
178.395
20
-110.129
11
178.478
21
-110.004
0
LINE
8
BLACK
6
CONTINUOUS
10
178.478
20
-110.004
11
178.584
21
-109.898
0
LINE
8
BLACK
6
CONTINUOUS
10
178.584
20
-109.898
11
178.709
21
-109.815
0
LINE
8
BLACK
6
CONTINUOUS
10
178.709
20
-109.815
11
178.848
21
-109.757
0
LINE
8
BLACK
6
CONTINUOUS
10
178.848
20
-109.757
11
178.995
21
-109.728
0
LINE
8
BLACK
6
CONTINUOUS
10
178.995
20
-109.728
11
179.145
21
-109.728
0
LINE
8
BLACK
6
CONTINUOUS
10
179.145
20
-109.728
11
179.292
21
-109.757
0
LINE
8
BLACK
6
CONTINUOUS
10
150.093
20
-102.101
11
150.239
21
-102.161
0
LINE
8
BLACK
6
CONTINUOUS
10
150.239
20
-102.161
11
150.37
21
-102.249
0
LINE
8
BLACK
6
CONTINUOUS
10
150.37
20
-102.249
11
150.481
21
-102.36
0
LINE
8
BLACK
6
CONTINUOUS
10
150.481
20
-102.36
11
150.569
21
-102.491
0
LINE
8
BLACK
6
CONTINUOUS
10
150.569
20
-102.491
11
150.629
21
-102.637
0
LINE
8
BLACK
6
CONTINUOUS
10
150.629
20
-102.637
11
150.66
21
-102.791
0
LINE
8
BLACK
6
CONTINUOUS
10
150.66
20
-102.791
11
150.66
21
-102.949
0
LINE
8
BLACK
6
CONTINUOUS
10
150.66
20
-102.949
11
150.629
21
-103.103
0
LINE
8
BLACK
6
CONTINUOUS
10
150.629
20
-103.103
11
150.569
21
-103.249
0
LINE
8
BLACK
6
CONTINUOUS
10
150.569
20
-103.249
11
150.508
21
-103.341
0
LINE
8
BLACK
6
CONTINUOUS
10
150.508
20
-103.341
11
157.532
21
-110.365
0
LINE
8
BLACK
6
CONTINUOUS
10
157.532
20
-110.365
11
175.778
21
-110.365
0
LINE
8
BLACK
6
CONTINUOUS
10
175.778
20
-110.365
11
175.797
21
-110.268
0
LINE
8
BLACK
6
CONTINUOUS
10
175.797
20
-110.268
11
175.855
21
-110.129
0
LINE
8
BLACK
6
CONTINUOUS
10
175.855
20
-110.129
11
175.938
21
-110.004
0
LINE
8
BLACK
6
CONTINUOUS
10
175.938
20
-110.004
11
176.044
21
-109.898
0
LINE
8
BLACK
6
CONTINUOUS
10
176.044
20
-109.898
11
176.169
21
-109.815
0
LINE
8
BLACK
6
CONTINUOUS
10
176.169
20
-109.815
11
176.308
21
-109.757
0
LINE
8
BLACK
6
CONTINUOUS
10
176.308
20
-109.757
11
176.455
21
-109.728
0
LINE
8
BLACK
6
CONTINUOUS
10
176.455
20
-109.728
11
176.605
21
-109.728
0
LINE
8
BLACK
6
CONTINUOUS
10
176.605
20
-109.728
11
176.752
21
-109.757
0
LINE
8
BLACK
6
CONTINUOUS
10
176.752
20
-109.757
11
176.891
21
-109.815
0
LINE
8
BLACK
6
CONTINUOUS
10
176.891
20
-109.815
11
177.016
21
-109.898
0
LINE
8
BLACK
6
CONTINUOUS
10
177.016
20
-109.898
11
177.122
21
-110.004
0
LINE
8
BLACK
6
CONTINUOUS
10
177.122
20
-110.004
11
177.205
21
-110.129
0
LINE
8
BLACK
6
CONTINUOUS
10
177.205
20
-110.129
11
177.263
21
-110.268
0
LINE
8
BLACK
6
CONTINUOUS
10
177.263
20
-110.268
11
177.292
21
-110.415
0
LINE
8
BLACK
6
CONTINUOUS
10
177.292
20
-110.415
11
177.292
21
-110.565
0
LINE
8
BLACK
6
CONTINUOUS
10
177.292
20
-110.565
11
177.263
21
-110.712
0
LINE
8
BLACK
6
CONTINUOUS
10
177.263
20
-110.712
11
177.205
21
-110.851
0
LINE
8
BLACK
6
CONTINUOUS
10
177.205
20
-110.851
11
177.122
21
-110.976
0
LINE
8
BLACK
6
CONTINUOUS
10
177.122
20
-110.976
11
177.016
21
-111.082
0
LINE
8
BLACK
6
CONTINUOUS
10
177.016
20
-111.082
11
176.891
21
-111.165
0
LINE
8
BLACK
6
CONTINUOUS
10
176.891
20
-111.165
11
176.752
21
-111.223
0
LINE
8
BLACK
6
CONTINUOUS
10
176.752
20
-111.223
11
176.605
21
-111.252
0
LINE
8
BLACK
6
CONTINUOUS
10
176.605
20
-111.252
11
176.455
21
-111.252
0
LINE
8
BLACK
6
CONTINUOUS
10
176.455
20
-111.252
11
176.308
21
-111.223
0
LINE
8
BLACK
6
CONTINUOUS
10
176.308
20
-111.223
11
176.169
21
-111.165
0
LINE
8
BLACK
6
CONTINUOUS
10
176.169
20
-111.165
11
176.044
21
-111.082
0
LINE
8
BLACK
6
CONTINUOUS
10
176.044
20
-111.082
11
175.938
21
-110.976
0
LINE
8
BLACK
6
CONTINUOUS
10
175.938
20
-110.976
11
175.855
21
-110.851
0
LINE
8
BLACK
6
CONTINUOUS
10
175.855
20
-110.851
11
175.797
21
-110.712
0
LINE
8
BLACK
6
CONTINUOUS
10
175.797
20
-110.712
11
175.778
21
-110.615
0
LINE
8
BLACK
6
CONTINUOUS
10
175.778
20
-110.615
11
157.486
21
-110.615
0
LINE
8
BLACK
6
CONTINUOUS
10
157.486
20
-110.615
11
157.48
21
-110.616
0
LINE
8
BLACK
6
CONTINUOUS
10
157.48
20
-110.616
11
157.474
21
-110.615
0
LINE
8
BLACK
6
CONTINUOUS
10
157.474
20
-110.615
11
157.474
21
-110.615
0
LINE
8
BLACK
6
CONTINUOUS
10
157.474
20
-110.615
11
157.455
21
-110.613
0
LINE
8
BLACK
6
CONTINUOUS
10
157.455
20
-110.613
11
157.432
21
-110.606
0
LINE
8
BLACK
6
CONTINUOUS
10
157.432
20
-110.606
11
157.41
21
-110.594
0
LINE
8
BLACK
6
CONTINUOUS
10
157.41
20
-110.594
11
157.408
21
-110.592
0
LINE
8
BLACK
6
CONTINUOUS
10
157.408
20
-110.592
11
157.396
21
-110.583
0
LINE
8
BLACK
6
CONTINUOUS
10
157.396
20
-110.583
11
157.396
21
-110.583
0
LINE
8
BLACK
6
CONTINUOUS
10
157.396
20
-110.583
11
157.391
21
-110.579
0
LINE
8
BLACK
6
CONTINUOUS
10
157.391
20
-110.579
11
157.387
21
-110.574
0
LINE
8
BLACK
6
CONTINUOUS
10
157.387
20
-110.574
11
150.331
21
-103.518
0
LINE
8
BLACK
6
CONTINUOUS
10
150.331
20
-103.518
11
150.239
21
-103.579
0
LINE
8
BLACK
6
CONTINUOUS
10
150.239
20
-103.579
11
150.093
21
-103.639
0
LINE
8
BLACK
6
CONTINUOUS
10
150.093
20
-103.639
11
149.939
21
-103.67
0
LINE
8
BLACK
6
CONTINUOUS
10
149.939
20
-103.67
11
149.781
21
-103.67
0
LINE
8
BLACK
6
CONTINUOUS
10
149.781
20
-103.67
11
149.627
21
-103.639
0
LINE
8
BLACK
6
CONTINUOUS
10
149.627
20
-103.639
11
149.481
21
-103.579
0
LINE
8
BLACK
6
CONTINUOUS
10
149.481
20
-103.579
11
149.35
21
-103.491
0
LINE
8
BLACK
6
CONTINUOUS
10
149.35
20
-103.491
11
149.239
21
-103.38
0
LINE
8
BLACK
6
CONTINUOUS
10
149.239
20
-103.38
11
149.151
21
-103.249
0
LINE
8
BLACK
6
CONTINUOUS
10
149.151
20
-103.249
11
149.091
21
-103.103
0
LINE
8
BLACK
6
CONTINUOUS
10
149.091
20
-103.103
11
149.06
21
-102.949
0
LINE
8
BLACK
6
CONTINUOUS
10
149.06
20
-102.949
11
149.06
21
-102.791
0
LINE
8
BLACK
6
CONTINUOUS
10
149.06
20
-102.791
11
149.091
21
-102.637
0
LINE
8
BLACK
6
CONTINUOUS
10
149.091
20
-102.637
11
149.151
21
-102.491
0
LINE
8
BLACK
6
CONTINUOUS
10
149.151
20
-102.491
11
149.239
21
-102.36
0
LINE
8
BLACK
6
CONTINUOUS
10
149.239
20
-102.36
11
149.35
21
-102.249
0
LINE
8
BLACK
6
CONTINUOUS
10
149.35
20
-102.249
11
149.481
21
-102.161
0
LINE
8
BLACK
6
CONTINUOUS
10
149.481
20
-102.161
11
149.627
21
-102.101
0
LINE
8
BLACK
6
CONTINUOUS
10
149.627
20
-102.101
11
149.781
21
-102.07
0
LINE
8
BLACK
6
CONTINUOUS
10
149.781
20
-102.07
11
149.939
21
-102.07
0
LINE
8
BLACK
6
CONTINUOUS
10
149.939
20
-102.07
11
150.093
21
-102.101
0
LINE
8
BLACK
6
CONTINUOUS
10
173.012
20
-106.988
11
173.194
21
-107.064
0
LINE
8
BLACK
6
CONTINUOUS
10
173.194
20
-107.064
11
173.357
21
-107.173
0
LINE
8
BLACK
6
CONTINUOUS
10
173.357
20
-107.173
11
173.497
21
-107.313
0
LINE
8
BLACK
6
CONTINUOUS
10
173.497
20
-107.313
11
173.606
21
-107.476
0
LINE
8
BLACK
6
CONTINUOUS
10
173.606
20
-107.476
11
173.682
21
-107.658
0
LINE
8
BLACK
6
CONTINUOUS
10
173.682
20
-107.658
11
173.715
21
-107.825
0
LINE
8
BLACK
6
CONTINUOUS
10
173.715
20
-107.825
11
175.778
21
-107.825
0
LINE
8
BLACK
6
CONTINUOUS
10
175.778
20
-107.825
11
175.797
21
-107.728
0
LINE
8
BLACK
6
CONTINUOUS
10
175.797
20
-107.728
11
175.855
21
-107.589
0
LINE
8
BLACK
6
CONTINUOUS
10
175.855
20
-107.589
11
175.938
21
-107.464
0
LINE
8
BLACK
6
CONTINUOUS
10
175.938
20
-107.464
11
176.044
21
-107.358
0
LINE
8
BLACK
6
CONTINUOUS
10
176.044
20
-107.358
11
176.119
21
-107.308
0
LINE
8
BLACK
6
CONTINUOUS
10
176.119
20
-107.308
11
176.117
21
-107.297
0
LINE
8
BLACK
6
CONTINUOUS
10
176.117
20
-107.297
11
176.12
21
-107.272
0
LINE
8
BLACK
6
CONTINUOUS
10
176.12
20
-107.272
11
176.127
21
-107.249
0
LINE
8
BLACK
6
CONTINUOUS
10
176.127
20
-107.249
11
176.139
21
-107.227
0
LINE
8
BLACK
6
CONTINUOUS
10
176.139
20
-107.227
11
176.154
21
-107.208
0
LINE
8
BLACK
6
CONTINUOUS
10
176.154
20
-107.208
11
176.173
21
-107.193
0
LINE
8
BLACK
6
CONTINUOUS
10
176.173
20
-107.193
11
176.195
21
-107.181
0
LINE
8
BLACK
6
CONTINUOUS
10
176.195
20
-107.181
11
176.218
21
-107.174
0
LINE
8
BLACK
6
CONTINUOUS
10
176.218
20
-107.174
11
176.243
21
-107.171
0
LINE
8
BLACK
6
CONTINUOUS
10
176.243
20
-107.171
11
176.268
21
-107.174
0
LINE
8
BLACK
6
CONTINUOUS
10
176.268
20
-107.174
11
176.291
21
-107.181
0
LINE
8
BLACK
6
CONTINUOUS
10
176.291
20
-107.181
11
176.313
21
-107.193
0
LINE
8
BLACK
6
CONTINUOUS
10
176.313
20
-107.193
11
176.327
21
-107.204
0
LINE
8
BLACK
6
CONTINUOUS
10
176.327
20
-107.204
11
176.335
21
-107.212
0
LINE
8
BLACK
6
CONTINUOUS
10
176.335
20
-107.212
11
176.455
21
-107.188
0
LINE
8
BLACK
6
CONTINUOUS
10
176.455
20
-107.188
11
176.605
21
-107.188
0
LINE
8
BLACK
6
CONTINUOUS
10
176.605
20
-107.188
11
176.752
21
-107.217
0
LINE
8
BLACK
6
CONTINUOUS
10
176.752
20
-107.217
11
176.891
21
-107.275
0
LINE
8
BLACK
6
CONTINUOUS
10
176.891
20
-107.275
11
177.016
21
-107.358
0
LINE
8
BLACK
6
CONTINUOUS
10
177.016
20
-107.358
11
177.122
21
-107.464
0
LINE
8
BLACK
6
CONTINUOUS
10
177.122
20
-107.464
11
177.205
21
-107.589
0
LINE
8
BLACK
6
CONTINUOUS
10
177.205
20
-107.589
11
177.263
21
-107.728
0
LINE
8
BLACK
6
CONTINUOUS
10
177.263
20
-107.728
11
177.292
21
-107.875
0
LINE
8
BLACK
6
CONTINUOUS
10
177.292
20
-107.875
11
177.292
21
-108.025
0
LINE
8
BLACK
6
CONTINUOUS
10
177.292
20
-108.025
11
177.263
21
-108.172
0
LINE
8
BLACK
6
CONTINUOUS
10
177.263
20
-108.172
11
177.205
21
-108.311
0
LINE
8
BLACK
6
CONTINUOUS
10
177.205
20
-108.311
11
177.122
21
-108.436
0
LINE
8
BLACK
6
CONTINUOUS
10
177.122
20
-108.436
11
177.016
21
-108.542
0
LINE
8
BLACK
6
CONTINUOUS
10
177.016
20
-108.542
11
176.891
21
-108.625
0
LINE
8
BLACK
6
CONTINUOUS
10
176.891
20
-108.625
11
176.752
21
-108.683
0
LINE
8
BLACK
6
CONTINUOUS
10
176.752
20
-108.683
11
176.605
21
-108.712
0
LINE
8
BLACK
6
CONTINUOUS
10
176.605
20
-108.712
11
176.455
21
-108.712
0
LINE
8
BLACK
6
CONTINUOUS
10
176.455
20
-108.712
11
176.308
21
-108.683
0
LINE
8
BLACK
6
CONTINUOUS
10
176.308
20
-108.683
11
176.169
21
-108.625
0
LINE
8
BLACK
6
CONTINUOUS
10
176.169
20
-108.625
11
176.044
21
-108.542
0
LINE
8
BLACK
6
CONTINUOUS
10
176.044
20
-108.542
11
175.938
21
-108.436
0
LINE
8
BLACK
6
CONTINUOUS
10
175.938
20
-108.436
11
175.855
21
-108.311
0
LINE
8
BLACK
6
CONTINUOUS
10
175.855
20
-108.311
11
175.797
21
-108.172
0
LINE
8
BLACK
6
CONTINUOUS
10
175.797
20
-108.172
11
175.778
21
-108.075
0
LINE
8
BLACK
6
CONTINUOUS
10
175.778
20
-108.075
11
173.715
21
-108.075
0
LINE
8
BLACK
6
CONTINUOUS
10
173.715
20
-108.075
11
173.682
21
-108.242
0
LINE
8
BLACK
6
CONTINUOUS
10
173.682
20
-108.242
11
173.606
21
-108.424
0
LINE
8
BLACK
6
CONTINUOUS
10
173.606
20
-108.424
11
173.497
21
-108.587
0
LINE
8
BLACK
6
CONTINUOUS
10
173.497
20
-108.587
11
173.357
21
-108.727
0
LINE
8
BLACK
6
CONTINUOUS
10
173.357
20
-108.727
11
173.194
21
-108.836
0
LINE
8
BLACK
6
CONTINUOUS
10
173.194
20
-108.836
11
173.012
21
-108.912
0
LINE
8
BLACK
6
CONTINUOUS
10
173.012
20
-108.912
11
172.818
21
-108.95
0
LINE
8
BLACK
6
CONTINUOUS
10
172.818
20
-108.95
11
172.622
21
-108.95
0
LINE
8
BLACK
6
CONTINUOUS
10
172.622
20
-108.95
11
172.428
21
-108.912
0
LINE
8
BLACK
6
CONTINUOUS
10
172.428
20
-108.912
11
172.246
21
-108.836
0
LINE
8
BLACK
6
CONTINUOUS
10
172.246
20
-108.836
11
172.083
21
-108.727
0
LINE
8
BLACK
6
CONTINUOUS
10
172.083
20
-108.727
11
171.943
21
-108.587
0
LINE
8
BLACK
6
CONTINUOUS
10
171.943
20
-108.587
11
171.834
21
-108.424
0
LINE
8
BLACK
6
CONTINUOUS
10
171.834
20
-108.424
11
171.758
21
-108.242
0
LINE
8
BLACK
6
CONTINUOUS
10
171.758
20
-108.242
11
171.72
21
-108.048
0
LINE
8
BLACK
6
CONTINUOUS
10
171.72
20
-108.048
11
171.72
21
-107.852
0
LINE
8
BLACK
6
CONTINUOUS
10
171.72
20
-107.852
11
171.758
21
-107.658
0
LINE
8
BLACK
6
CONTINUOUS
10
171.758
20
-107.658
11
171.834
21
-107.476
0
LINE
8
BLACK
6
CONTINUOUS
10
171.834
20
-107.476
11
171.943
21
-107.313
0
LINE
8
BLACK
6
CONTINUOUS
10
171.943
20
-107.313
11
172.083
21
-107.173
0
LINE
8
BLACK
6
CONTINUOUS
10
172.083
20
-107.173
11
172.246
21
-107.064
0
LINE
8
BLACK
6
CONTINUOUS
10
172.246
20
-107.064
11
172.428
21
-106.988
0
LINE
8
BLACK
6
CONTINUOUS
10
172.428
20
-106.988
11
172.622
21
-106.95
0
LINE
8
BLACK
6
CONTINUOUS
10
172.622
20
-106.95
11
172.818
21
-106.95
0
LINE
8
BLACK
6
CONTINUOUS
10
172.818
20
-106.95
11
173.012
21
-106.988
0
LINE
8
BLACK
6
CONTINUOUS
10
150.093
20
-94.4807
11
150.239
21
-94.541
0
LINE
8
BLACK
6
CONTINUOUS
10
150.239
20
-94.541
11
150.37
21
-94.6286
0
LINE
8
BLACK
6
CONTINUOUS
10
150.37
20
-94.6286
11
150.481
21
-94.74
0
LINE
8
BLACK
6
CONTINUOUS
10
150.481
20
-94.74
11
150.569
21
-94.8711
0
LINE
8
BLACK
6
CONTINUOUS
10
150.569
20
-94.8711
11
150.629
21
-95.0166
0
LINE
8
BLACK
6
CONTINUOUS
10
150.629
20
-95.0166
11
150.66
21
-95.1712
0
LINE
8
BLACK
6
CONTINUOUS
10
150.66
20
-95.1712
11
150.66
21
-95.3288
0
LINE
8
BLACK
6
CONTINUOUS
10
150.66
20
-95.3288
11
150.629
21
-95.4834
0
LINE
8
BLACK
6
CONTINUOUS
10
150.629
20
-95.4834
11
150.569
21
-95.6289
0
LINE
8
BLACK
6
CONTINUOUS
10
150.569
20
-95.6289
11
150.508
21
-95.7208
0
LINE
8
BLACK
6
CONTINUOUS
10
150.508
20
-95.7208
11
160.072
21
-105.285
0
LINE
8
BLACK
6
CONTINUOUS
10
160.072
20
-105.285
11
175.778
21
-105.285
0
LINE
8
BLACK
6
CONTINUOUS
10
175.778
20
-105.285
11
175.797
21
-105.188
0
LINE
8
BLACK
6
CONTINUOUS
10
175.797
20
-105.188
11
175.855
21
-105.049
0
LINE
8
BLACK
6
CONTINUOUS
10
175.855
20
-105.049
11
175.938
21
-104.924
0
LINE
8
BLACK
6
CONTINUOUS
10
175.938
20
-104.924
11
176.044
21
-104.818
0
LINE
8
BLACK
6
CONTINUOUS
10
176.044
20
-104.818
11
176.169
21
-104.735
0
LINE
8
BLACK
6
CONTINUOUS
10
176.169
20
-104.735
11
176.308
21
-104.677
0
LINE
8
BLACK
6
CONTINUOUS
10
176.308
20
-104.677
11
176.455
21
-104.648
0
LINE
8
BLACK
6
CONTINUOUS
10
176.455
20
-104.648
11
176.605
21
-104.648
0
LINE
8
BLACK
6
CONTINUOUS
10
176.605
20
-104.648
11
176.752
21
-104.677
0
LINE
8
BLACK
6
CONTINUOUS
10
176.752
20
-104.677
11
176.891
21
-104.735
0
LINE
8
BLACK
6
CONTINUOUS
10
176.891
20
-104.735
11
177.016
21
-104.818
0
LINE
8
BLACK
6
CONTINUOUS
10
177.016
20
-104.818
11
177.122
21
-104.924
0
LINE
8
BLACK
6
CONTINUOUS
10
177.122
20
-104.924
11
177.205
21
-105.049
0
LINE
8
BLACK
6
CONTINUOUS
10
177.205
20
-105.049
11
177.263
21
-105.188
0
LINE
8
BLACK
6
CONTINUOUS
10
177.263
20
-105.188
11
177.292
21
-105.335
0
LINE
8
BLACK
6
CONTINUOUS
10
177.292
20
-105.335
11
177.292
21
-105.485
0
LINE
8
BLACK
6
CONTINUOUS
10
177.292
20
-105.485
11
177.263
21
-105.632
0
LINE
8
BLACK
6
CONTINUOUS
10
177.263
20
-105.632
11
177.205
21
-105.771
0
LINE
8
BLACK
6
CONTINUOUS
10
177.205
20
-105.771
11
177.122
21
-105.896
0
LINE
8
BLACK
6
CONTINUOUS
10
177.122
20
-105.896
11
177.016
21
-106.002
0
LINE
8
BLACK
6
CONTINUOUS
10
177.016
20
-106.002
11
176.891
21
-106.085
0
LINE
8
BLACK
6
CONTINUOUS
10
176.891
20
-106.085
11
176.752
21
-106.143
0
LINE
8
BLACK
6
CONTINUOUS
10
176.752
20
-106.143
11
176.605
21
-106.172
0
LINE
8
BLACK
6
CONTINUOUS
10
176.605
20
-106.172
11
176.455
21
-106.172
0
LINE
8
BLACK
6
CONTINUOUS
10
176.455
20
-106.172
11
176.308
21
-106.143
0
LINE
8
BLACK
6
CONTINUOUS
10
176.308
20
-106.143
11
176.169
21
-106.085
0
LINE
8
BLACK
6
CONTINUOUS
10
176.169
20
-106.085
11
176.044
21
-106.002
0
LINE
8
BLACK
6
CONTINUOUS
10
176.044
20
-106.002
11
175.938
21
-105.896
0
LINE
8
BLACK
6
CONTINUOUS
10
175.938
20
-105.896
11
175.855
21
-105.771
0
LINE
8
BLACK
6
CONTINUOUS
10
175.855
20
-105.771
11
175.797
21
-105.632
0
LINE
8
BLACK
6
CONTINUOUS
10
175.797
20
-105.632
11
175.778
21
-105.535
0
LINE
8
BLACK
6
CONTINUOUS
10
175.778
20
-105.535
11
160.026
21
-105.535
0
LINE
8
BLACK
6
CONTINUOUS
10
160.026
20
-105.535
11
160.02
21
-105.536
0
LINE
8
BLACK
6
CONTINUOUS
10
160.02
20
-105.536
11
160.014
21
-105.535
0
LINE
8
BLACK
6
CONTINUOUS
10
160.014
20
-105.535
11
160.014
21
-105.535
0
LINE
8
BLACK
6
CONTINUOUS
10
160.014
20
-105.535
11
159.995
21
-105.533
0
LINE
8
BLACK
6
CONTINUOUS
10
159.995
20
-105.533
11
159.972
21
-105.526
0
LINE
8
BLACK
6
CONTINUOUS
10
159.972
20
-105.526
11
159.95
21
-105.514
0
LINE
8
BLACK
6
CONTINUOUS
10
159.95
20
-105.514
11
159.936
21
-105.503
0
LINE
8
BLACK
6
CONTINUOUS
10
159.936
20
-105.503
11
159.931
21
-105.499
0
LINE
8
BLACK
6
CONTINUOUS
10
159.931
20
-105.499
11
159.927
21
-105.494
0
LINE
8
BLACK
6
CONTINUOUS
10
159.927
20
-105.494
11
150.331
21
-95.8976
0
LINE
8
BLACK
6
CONTINUOUS
10
150.331
20
-95.8976
11
150.239
21
-95.959
0
LINE
8
BLACK
6
CONTINUOUS
10
150.239
20
-95.959
11
150.093
21
-96.0193
0
LINE
8
BLACK
6
CONTINUOUS
10
150.093
20
-96.0193
11
149.939
21
-96.05
0
LINE
8
BLACK
6
CONTINUOUS
10
149.939
20
-96.05
11
149.781
21
-96.05
0
LINE
8
BLACK
6
CONTINUOUS
10
149.781
20
-96.05
11
149.627
21
-96.0193
0
LINE
8
BLACK
6
CONTINUOUS
10
149.627
20
-96.0193
11
149.481
21
-95.959
0
LINE
8
BLACK
6
CONTINUOUS
10
149.481
20
-95.959
11
149.35
21
-95.8714
0
LINE
8
BLACK
6
CONTINUOUS
10
149.35
20
-95.8714
11
149.239
21
-95.76
0
LINE
8
BLACK
6
CONTINUOUS
10
149.239
20
-95.76
11
149.151
21
-95.6289
0
LINE
8
BLACK
6
CONTINUOUS
10
149.151
20
-95.6289
11
149.091
21
-95.4834
0
LINE
8
BLACK
6
CONTINUOUS
10
149.091
20
-95.4834
11
149.06
21
-95.3288
0
LINE
8
BLACK
6
CONTINUOUS
10
149.06
20
-95.3288
11
149.06
21
-95.1712
0
LINE
8
BLACK
6
CONTINUOUS
10
149.06
20
-95.1712
11
149.091
21
-95.0166
0
LINE
8
BLACK
6
CONTINUOUS
10
149.091
20
-95.0166
11
149.151
21
-94.8711
0
LINE
8
BLACK
6
CONTINUOUS
10
149.151
20
-94.8711
11
149.239
21
-94.74
0
LINE
8
BLACK
6
CONTINUOUS
10
149.239
20
-94.74
11
149.35
21
-94.6286
0
LINE
8
BLACK
6
CONTINUOUS
10
149.35
20
-94.6286
11
149.481
21
-94.541
0
LINE
8
BLACK
6
CONTINUOUS
10
149.481
20
-94.541
11
149.627
21
-94.4807
0
LINE
8
BLACK
6
CONTINUOUS
10
149.627
20
-94.4807
11
149.781
21
-94.45
0
LINE
8
BLACK
6
CONTINUOUS
10
149.781
20
-94.45
11
149.939
21
-94.45
0
LINE
8
BLACK
6
CONTINUOUS
10
149.939
20
-94.45
11
150.093
21
-94.4807
0
LINE
8
BLACK
6
CONTINUOUS
10
173.012
20
-101.908
11
173.194
21
-101.984
0
LINE
8
BLACK
6
CONTINUOUS
10
173.194
20
-101.984
11
173.357
21
-102.093
0
LINE
8
BLACK
6
CONTINUOUS
10
173.357
20
-102.093
11
173.497
21
-102.233
0
LINE
8
BLACK
6
CONTINUOUS
10
173.497
20
-102.233
11
173.606
21
-102.396
0
LINE
8
BLACK
6
CONTINUOUS
10
173.606
20
-102.396
11
173.682
21
-102.578
0
LINE
8
BLACK
6
CONTINUOUS
10
173.682
20
-102.578
11
173.72
21
-102.772
0
LINE
8
BLACK
6
CONTINUOUS
10
173.72
20
-102.772
11
173.72
21
-102.968
0
LINE
8
BLACK
6
CONTINUOUS
10
173.72
20
-102.968
11
173.682
21
-103.162
0
LINE
8
BLACK
6
CONTINUOUS
10
173.682
20
-103.162
11
173.606
21
-103.344
0
LINE
8
BLACK
6
CONTINUOUS
10
173.606
20
-103.344
11
173.497
21
-103.507
0
LINE
8
BLACK
6
CONTINUOUS
10
173.497
20
-103.507
11
173.357
21
-103.647
0
LINE
8
BLACK
6
CONTINUOUS
10
173.357
20
-103.647
11
173.194
21
-103.756
0
LINE
8
BLACK
6
CONTINUOUS
10
173.194
20
-103.756
11
173.012
21
-103.832
0
LINE
8
BLACK
6
CONTINUOUS
10
173.012
20
-103.832
11
172.818
21
-103.87
0
LINE
8
BLACK
6
CONTINUOUS
10
172.818
20
-103.87
11
172.622
21
-103.87
0
LINE
8
BLACK
6
CONTINUOUS
10
172.622
20
-103.87
11
172.428
21
-103.832
0
LINE
8
BLACK
6
CONTINUOUS
10
172.428
20
-103.832
11
172.246
21
-103.756
0
LINE
8
BLACK
6
CONTINUOUS
10
172.246
20
-103.756
11
172.083
21
-103.647
0
LINE
8
BLACK
6
CONTINUOUS
10
172.083
20
-103.647
11
171.943
21
-103.507
0
LINE
8
BLACK
6
CONTINUOUS
10
171.943
20
-103.507
11
171.834
21
-103.344
0
LINE
8
BLACK
6
CONTINUOUS
10
171.834
20
-103.344
11
171.758
21
-103.162
0
LINE
8
BLACK
6
CONTINUOUS
10
171.758
20
-103.162
11
171.725
21
-102.995
0
LINE
8
BLACK
6
CONTINUOUS
10
171.725
20
-102.995
11
165.891
21
-102.995
0
LINE
8
BLACK
6
CONTINUOUS
10
165.891
20
-102.995
11
165.869
21
-103.103
0
LINE
8
BLACK
6
CONTINUOUS
10
165.869
20
-103.103
11
165.809
21
-103.249
0
LINE
8
BLACK
6
CONTINUOUS
10
165.809
20
-103.249
11
165.721
21
-103.38
0
LINE
8
BLACK
6
CONTINUOUS
10
165.721
20
-103.38
11
165.61
21
-103.491
0
LINE
8
BLACK
6
CONTINUOUS
10
165.61
20
-103.491
11
165.479
21
-103.579
0
LINE
8
BLACK
6
CONTINUOUS
10
165.479
20
-103.579
11
165.333
21
-103.639
0
LINE
8
BLACK
6
CONTINUOUS
10
165.333
20
-103.639
11
165.179
21
-103.67
0
LINE
8
BLACK
6
CONTINUOUS
10
165.179
20
-103.67
11
165.021
21
-103.67
0
LINE
8
BLACK
6
CONTINUOUS
10
165.021
20
-103.67
11
164.867
21
-103.639
0
LINE
8
BLACK
6
CONTINUOUS
10
164.867
20
-103.639
11
164.721
21
-103.579
0
LINE
8
BLACK
6
CONTINUOUS
10
164.721
20
-103.579
11
164.59
21
-103.491
0
LINE
8
BLACK
6
CONTINUOUS
10
164.59
20
-103.491
11
164.479
21
-103.38
0
LINE
8
BLACK
6
CONTINUOUS
10
164.479
20
-103.38
11
164.391
21
-103.249
0
LINE
8
BLACK
6
CONTINUOUS
10
164.391
20
-103.249
11
164.331
21
-103.103
0
LINE
8
BLACK
6
CONTINUOUS
10
164.331
20
-103.103
11
164.3
21
-102.949
0
LINE
8
BLACK
6
CONTINUOUS
10
164.3
20
-102.949
11
164.3
21
-102.791
0
LINE
8
BLACK
6
CONTINUOUS
10
164.3
20
-102.791
11
164.331
21
-102.637
0
LINE
8
BLACK
6
CONTINUOUS
10
164.331
20
-102.637
11
164.391
21
-102.491
0
LINE
8
BLACK
6
CONTINUOUS
10
164.391
20
-102.491
11
164.479
21
-102.36
0
LINE
8
BLACK
6
CONTINUOUS
10
164.479
20
-102.36
11
164.59
21
-102.249
0
LINE
8
BLACK
6
CONTINUOUS
10
164.59
20
-102.249
11
164.721
21
-102.161
0
LINE
8
BLACK
6
CONTINUOUS
10
164.721
20
-102.161
11
164.867
21
-102.101
0
LINE
8
BLACK
6
CONTINUOUS
10
164.867
20
-102.101
11
165.021
21
-102.07
0
LINE
8
BLACK
6
CONTINUOUS
10
165.021
20
-102.07
11
165.179
21
-102.07
0
LINE
8
BLACK
6
CONTINUOUS
10
165.179
20
-102.07
11
165.333
21
-102.101
0
LINE
8
BLACK
6
CONTINUOUS
10
165.333
20
-102.101
11
165.479
21
-102.161
0
LINE
8
BLACK
6
CONTINUOUS
10
165.479
20
-102.161
11
165.61
21
-102.249
0
LINE
8
BLACK
6
CONTINUOUS
10
165.61
20
-102.249
11
165.721
21
-102.36
0
LINE
8
BLACK
6
CONTINUOUS
10
165.721
20
-102.36
11
165.809
21
-102.491
0
LINE
8
BLACK
6
CONTINUOUS
10
165.809
20
-102.491
11
165.869
21
-102.637
0
LINE
8
BLACK
6
CONTINUOUS
10
165.869
20
-102.637
11
165.891
21
-102.745
0
LINE
8
BLACK
6
CONTINUOUS
10
165.891
20
-102.745
11
171.725
21
-102.745
0
LINE
8
BLACK
6
CONTINUOUS
10
171.725
20
-102.745
11
171.758
21
-102.578
0
LINE
8
BLACK
6
CONTINUOUS
10
171.758
20
-102.578
11
171.834
21
-102.396
0
LINE
8
BLACK
6
CONTINUOUS
10
171.834
20
-102.396
11
171.943
21
-102.233
0
LINE
8
BLACK
6
CONTINUOUS
10
171.943
20
-102.233
11
172.083
21
-102.093
0
LINE
8
BLACK
6
CONTINUOUS
10
172.083
20
-102.093
11
172.246
21
-101.984
0
LINE
8
BLACK
6
CONTINUOUS
10
172.246
20
-101.984
11
172.428
21
-101.908
0
LINE
8
BLACK
6
CONTINUOUS
10
172.428
20
-101.908
11
172.622
21
-101.87
0
LINE
8
BLACK
6
CONTINUOUS
10
172.622
20
-101.87
11
172.818
21
-101.87
0
LINE
8
BLACK
6
CONTINUOUS
10
172.818
20
-101.87
11
173.012
21
-101.908
0
LINE
8
BLACK
6
CONTINUOUS
10
177.292
20
-103.632
11
175.768
21
-103.632
0
LINE
8
BLACK
6
CONTINUOUS
10
175.768
20
-103.632
11
175.768
21
-102.108
0
LINE
8
BLACK
6
CONTINUOUS
10
175.768
20
-102.108
11
177.292
21
-102.108
0
LINE
8
BLACK
6
CONTINUOUS
10
177.292
20
-102.108
11
177.292
21
-103.632
0
LINE
8
BLACK
6
CONTINUOUS
10
179.292
20
-102.137
11
179.431
21
-102.195
0
LINE
8
BLACK
6
CONTINUOUS
10
179.431
20
-102.195
11
179.556
21
-102.278
0
LINE
8
BLACK
6
CONTINUOUS
10
179.556
20
-102.278
11
179.662
21
-102.384
0
LINE
8
BLACK
6
CONTINUOUS
10
179.662
20
-102.384
11
179.745
21
-102.509
0
LINE
8
BLACK
6
CONTINUOUS
10
179.745
20
-102.509
11
179.803
21
-102.648
0
LINE
8
BLACK
6
CONTINUOUS
10
179.803
20
-102.648
11
179.832
21
-102.795
0
LINE
8
BLACK
6
CONTINUOUS
10
179.832
20
-102.795
11
179.832
21
-102.945
0
LINE
8
BLACK
6
CONTINUOUS
10
179.832
20
-102.945
11
179.803
21
-103.092
0
LINE
8
BLACK
6
CONTINUOUS
10
179.803
20
-103.092
11
179.745
21
-103.231
0
LINE
8
BLACK
6
CONTINUOUS
10
179.745
20
-103.231
11
179.662
21
-103.356
0
LINE
8
BLACK
6
CONTINUOUS
10
179.662
20
-103.356
11
179.556
21
-103.462
0
LINE
8
BLACK
6
CONTINUOUS
10
179.556
20
-103.462
11
179.431
21
-103.545
0
LINE
8
BLACK
6
CONTINUOUS
10
179.431
20
-103.545
11
179.292
21
-103.603
0
LINE
8
BLACK
6
CONTINUOUS
10
179.292
20
-103.603
11
179.145
21
-103.632
0
LINE
8
BLACK
6
CONTINUOUS
10
179.145
20
-103.632
11
178.995
21
-103.632
0
LINE
8
BLACK
6
CONTINUOUS
10
178.995
20
-103.632
11
178.848
21
-103.603
0
LINE
8
BLACK
6
CONTINUOUS
10
178.848
20
-103.603
11
178.709
21
-103.545
0
LINE
8
BLACK
6
CONTINUOUS
10
178.709
20
-103.545
11
178.584
21
-103.462
0
LINE
8
BLACK
6
CONTINUOUS
10
178.584
20
-103.462
11
178.478
21
-103.356
0
LINE
8
BLACK
6
CONTINUOUS
10
178.478
20
-103.356
11
178.395
21
-103.231
0
LINE
8
BLACK
6
CONTINUOUS
10
178.395
20
-103.231
11
178.337
21
-103.092
0
LINE
8
BLACK
6
CONTINUOUS
10
178.337
20
-103.092
11
178.308
21
-102.945
0
LINE
8
BLACK
6
CONTINUOUS
10
178.308
20
-102.945
11
178.308
21
-102.795
0
LINE
8
BLACK
6
CONTINUOUS
10
178.308
20
-102.795
11
178.337
21
-102.648
0
LINE
8
BLACK
6
CONTINUOUS
10
178.337
20
-102.648
11
178.395
21
-102.509
0
LINE
8
BLACK
6
CONTINUOUS
10
178.395
20
-102.509
11
178.478
21
-102.384
0
LINE
8
BLACK
6
CONTINUOUS
10
178.478
20
-102.384
11
178.584
21
-102.278
0
LINE
8
BLACK
6
CONTINUOUS
10
178.584
20
-102.278
11
178.709
21
-102.195
0
LINE
8
BLACK
6
CONTINUOUS
10
178.709
20
-102.195
11
178.848
21
-102.137
0
LINE
8
BLACK
6
CONTINUOUS
10
178.848
20
-102.137
11
178.945
21
-102.118
0
LINE
8
BLACK
6
CONTINUOUS
10
178.945
20
-102.118
11
178.945
21
-101.786
0
LINE
8
BLACK
6
CONTINUOUS
10
178.945
20
-101.786
11
178.945
21
-101.786
0
LINE
8
BLACK
6
CONTINUOUS
10
178.945
20
-101.786
11
178.945
21
-98.8986
0
LINE
8
BLACK
6
CONTINUOUS
10
178.945
20
-98.8986
11
178.944
21
-98.8925
0
LINE
8
BLACK
6
CONTINUOUS
10
178.944
20
-98.8925
11
178.945
21
-98.8864
0
LINE
8
BLACK
6
CONTINUOUS
10
178.945
20
-98.8864
11
178.945
21
-98.8864
0
LINE
8
BLACK
6
CONTINUOUS
10
178.945
20
-98.8864
11
178.947
21
-98.868
0
LINE
8
BLACK
6
CONTINUOUS
10
178.947
20
-98.868
11
178.954
21
-98.8444
0
LINE
8
BLACK
6
CONTINUOUS
10
178.954
20
-98.8444
11
178.966
21
-98.8227
0
LINE
8
BLACK
6
CONTINUOUS
10
178.966
20
-98.8227
11
178.981
21
-98.8037
0
LINE
8
BLACK
6
CONTINUOUS
10
178.981
20
-98.8037
11
178.986
21
-98.7998
0
LINE
8
BLACK
6
CONTINUOUS
10
178.986
20
-98.7998
11
194.05
21
-83.7359
0
LINE
8
BLACK
6
CONTINUOUS
10
194.05
20
-83.7359
11
194.054
21
-83.7312
0
LINE
8
BLACK
6
CONTINUOUS
10
194.054
20
-83.7312
11
194.058
21
-83.7273
0
LINE
8
BLACK
6
CONTINUOUS
10
194.058
20
-83.7273
11
194.058
21
-83.7273
0
LINE
8
BLACK
6
CONTINUOUS
10
194.058
20
-83.7273
11
194.073
21
-83.7156
0
LINE
8
BLACK
6
CONTINUOUS
10
194.073
20
-83.7156
11
194.094
21
-83.704
0
LINE
8
BLACK
6
CONTINUOUS
10
194.094
20
-83.704
11
194.118
21
-83.6968
0
LINE
8
BLACK
6
CONTINUOUS
10
194.118
20
-83.6968
11
194.136
21
-83.695
0
LINE
8
BLACK
6
CONTINUOUS
10
194.136
20
-83.695
11
194.136
21
-83.695
0
LINE
8
BLACK
6
CONTINUOUS
10
194.136
20
-83.695
11
194.142
21
-83.6944
0
LINE
8
BLACK
6
CONTINUOUS
10
194.142
20
-83.6944
11
194.149
21
-83.695
0
LINE
8
BLACK
6
CONTINUOUS
10
194.149
20
-83.695
11
194.588
21
-83.695
0
LINE
8
BLACK
6
CONTINUOUS
10
194.588
20
-83.695
11
194.594
21
-83.6333
0
LINE
8
BLACK
6
CONTINUOUS
10
194.594
20
-83.6333
11
194.648
21
-83.4537
0
LINE
8
BLACK
6
CONTINUOUS
10
194.648
20
-83.4537
11
194.737
21
-83.2883
0
LINE
8
BLACK
6
CONTINUOUS
10
194.737
20
-83.2883
11
194.856
21
-83.1432
0
LINE
8
BLACK
6
CONTINUOUS
10
194.856
20
-83.1432
11
195.001
21
-83.0242
0
LINE
8
BLACK
6
CONTINUOUS
10
195.001
20
-83.0242
11
195.166
21
-82.9357
0
LINE
8
BLACK
6
CONTINUOUS
10
195.166
20
-82.9357
11
195.346
21
-82.8813
0
LINE
8
BLACK
6
CONTINUOUS
10
195.346
20
-82.8813
11
195.486
21
-82.8675
0
LINE
8
BLACK
6
CONTINUOUS
10
195.486
20
-82.8675
11
195.674
21
-82.8675
0
LINE
8
BLACK
6
CONTINUOUS
10
195.674
20
-82.8675
11
195.814
21
-82.8813
0
LINE
8
BLACK
6
CONTINUOUS
10
195.814
20
-82.8813
11
195.994
21
-82.9357
0
LINE
8
BLACK
6
CONTINUOUS
10
195.994
20
-82.9357
11
196.159
21
-83.0242
0
LINE
8
BLACK
6
CONTINUOUS
10
196.159
20
-83.0242
11
196.304
21
-83.1432
0
LINE
8
BLACK
6
CONTINUOUS
10
196.304
20
-83.1432
11
196.423
21
-83.2883
0
LINE
8
BLACK
6
CONTINUOUS
10
196.423
20
-83.2883
11
196.512
21
-83.4537
0
LINE
8
BLACK
6
CONTINUOUS
10
196.512
20
-83.4537
11
196.566
21
-83.6333
0
LINE
8
BLACK
6
CONTINUOUS
10
196.566
20
-83.6333
11
196.585
21
-83.82
0
LINE
8
BLACK
6
CONTINUOUS
10
196.585
20
-83.82
11
196.566
21
-84.0067
0
LINE
8
BLACK
6
CONTINUOUS
10
196.566
20
-84.0067
11
196.512
21
-84.1863
0
LINE
8
BLACK
6
CONTINUOUS
10
196.512
20
-84.1863
11
196.423
21
-84.3517
0
LINE
8
BLACK
6
CONTINUOUS
10
196.423
20
-84.3517
11
196.304
21
-84.4968
0
LINE
8
BLACK
6
CONTINUOUS
10
196.304
20
-84.4968
11
196.159
21
-84.6158
0
LINE
8
BLACK
6
CONTINUOUS
10
196.159
20
-84.6158
11
195.994
21
-84.7043
0
LINE
8
BLACK
6
CONTINUOUS
10
195.994
20
-84.7043
11
195.814
21
-84.7587
0
LINE
8
BLACK
6
CONTINUOUS
10
195.814
20
-84.7587
11
195.674
21
-84.7725
0
LINE
8
BLACK
6
CONTINUOUS
10
195.674
20
-84.7725
11
195.486
21
-84.7725
0
LINE
8
BLACK
6
CONTINUOUS
10
195.486
20
-84.7725
11
195.346
21
-84.7587
0
LINE
8
BLACK
6
CONTINUOUS
10
195.346
20
-84.7587
11
195.166
21
-84.7043
0
LINE
8
BLACK
6
CONTINUOUS
10
195.166
20
-84.7043
11
195.001
21
-84.6158
0
LINE
8
BLACK
6
CONTINUOUS
10
195.001
20
-84.6158
11
194.856
21
-84.4968
0
LINE
8
BLACK
6
CONTINUOUS
10
194.856
20
-84.4968
11
194.737
21
-84.3517
0
LINE
8
BLACK
6
CONTINUOUS
10
194.737
20
-84.3517
11
194.648
21
-84.1863
0
LINE
8
BLACK
6
CONTINUOUS
10
194.648
20
-84.1863
11
194.594
21
-84.0067
0
LINE
8
BLACK
6
CONTINUOUS
10
194.594
20
-84.0067
11
194.588
21
-83.945
0
LINE
8
BLACK
6
CONTINUOUS
10
194.588
20
-83.945
11
194.194
21
-83.945
0
LINE
8
BLACK
6
CONTINUOUS
10
194.194
20
-83.945
11
179.195
21
-98.9443
0
LINE
8
BLACK
6
CONTINUOUS
10
179.195
20
-98.9443
11
179.195
21
-102.118
0
LINE
8
BLACK
6
CONTINUOUS
10
179.195
20
-102.118
11
179.292
21
-102.137
0
LINE
8
BLACK
6
CONTINUOUS
10
165.333
20
-99.5607
11
165.479
21
-99.621
0
LINE
8
BLACK
6
CONTINUOUS
10
165.479
20
-99.621
11
165.61
21
-99.7086
0
LINE
8
BLACK
6
CONTINUOUS
10
165.61
20
-99.7086
11
165.721
21
-99.82
0
LINE
8
BLACK
6
CONTINUOUS
10
165.721
20
-99.82
11
165.809
21
-99.9511
0
LINE
8
BLACK
6
CONTINUOUS
10
165.809
20
-99.9511
11
165.869
21
-100.097
0
LINE
8
BLACK
6
CONTINUOUS
10
165.869
20
-100.097
11
165.9
21
-100.251
0
LINE
8
BLACK
6
CONTINUOUS
10
165.9
20
-100.251
11
165.9
21
-100.409
0
LINE
8
BLACK
6
CONTINUOUS
10
165.9
20
-100.409
11
165.869
21
-100.563
0
LINE
8
BLACK
6
CONTINUOUS
10
165.869
20
-100.563
11
165.809
21
-100.709
0
LINE
8
BLACK
6
CONTINUOUS
10
165.809
20
-100.709
11
165.721
21
-100.84
0
LINE
8
BLACK
6
CONTINUOUS
10
165.721
20
-100.84
11
165.61
21
-100.951
0
LINE
8
BLACK
6
CONTINUOUS
10
165.61
20
-100.951
11
165.479
21
-101.039
0
LINE
8
BLACK
6
CONTINUOUS
10
165.479
20
-101.039
11
165.333
21
-101.099
0
LINE
8
BLACK
6
CONTINUOUS
10
165.333
20
-101.099
11
165.179
21
-101.13
0
LINE
8
BLACK
6
CONTINUOUS
10
165.179
20
-101.13
11
165.021
21
-101.13
0
LINE
8
BLACK
6
CONTINUOUS
10
165.021
20
-101.13
11
164.867
21
-101.099
0
LINE
8
BLACK
6
CONTINUOUS
10
164.867
20
-101.099
11
164.721
21
-101.039
0
LINE
8
BLACK
6
CONTINUOUS
10
164.721
20
-101.039
11
164.59
21
-100.951
0
LINE
8
BLACK
6
CONTINUOUS
10
164.59
20
-100.951
11
164.479
21
-100.84
0
LINE
8
BLACK
6
CONTINUOUS
10
164.479
20
-100.84
11
164.391
21
-100.709
0
LINE
8
BLACK
6
CONTINUOUS
10
164.391
20
-100.709
11
164.331
21
-100.563
0
LINE
8
BLACK
6
CONTINUOUS
10
164.331
20
-100.563
11
164.3
21
-100.409
0
LINE
8
BLACK
6
CONTINUOUS
10
164.3
20
-100.409
11
164.3
21
-100.251
0
LINE
8
BLACK
6
CONTINUOUS
10
164.3
20
-100.251
11
164.331
21
-100.097
0
LINE
8
BLACK
6
CONTINUOUS
10
164.331
20
-100.097
11
164.391
21
-99.9511
0
LINE
8
BLACK
6
CONTINUOUS
10
164.391
20
-99.9511
11
164.479
21
-99.82
0
LINE
8
BLACK
6
CONTINUOUS
10
164.479
20
-99.82
11
164.59
21
-99.7086
0
LINE
8
BLACK
6
CONTINUOUS
10
164.59
20
-99.7086
11
164.721
21
-99.621
0
LINE
8
BLACK
6
CONTINUOUS
10
164.721
20
-99.621
11
164.867
21
-99.5607
0
LINE
8
BLACK
6
CONTINUOUS
10
164.867
20
-99.5607
11
165.021
21
-99.53
0
LINE
8
BLACK
6
CONTINUOUS
10
165.021
20
-99.53
11
165.179
21
-99.53
0
LINE
8
BLACK
6
CONTINUOUS
10
165.179
20
-99.53
11
165.333
21
-99.5607
0
LINE
8
BLACK
6
CONTINUOUS
10
165.333
20
-97.0207
11
165.479
21
-97.081
0
LINE
8
BLACK
6
CONTINUOUS
10
165.479
20
-97.081
11
165.61
21
-97.1686
0
LINE
8
BLACK
6
CONTINUOUS
10
165.61
20
-97.1686
11
165.721
21
-97.28
0
LINE
8
BLACK
6
CONTINUOUS
10
165.721
20
-97.28
11
165.809
21
-97.4111
0
LINE
8
BLACK
6
CONTINUOUS
10
165.809
20
-97.4111
11
165.869
21
-97.5566
0
LINE
8
BLACK
6
CONTINUOUS
10
165.869
20
-97.5566
11
165.9
21
-97.7112
0
LINE
8
BLACK
6
CONTINUOUS
10
165.9
20
-97.7112
11
165.9
21
-97.8688
0
LINE
8
BLACK
6
CONTINUOUS
10
165.9
20
-97.8688
11
165.869
21
-98.0234
0
LINE
8
BLACK
6
CONTINUOUS
10
165.869
20
-98.0234
11
165.809
21
-98.1689
0
LINE
8
BLACK
6
CONTINUOUS
10
165.809
20
-98.1689
11
165.721
21
-98.3
0
LINE
8
BLACK
6
CONTINUOUS
10
165.721
20
-98.3
11
165.61
21
-98.4114
0
LINE
8
BLACK
6
CONTINUOUS
10
165.61
20
-98.4114
11
165.479
21
-98.499
0
LINE
8
BLACK
6
CONTINUOUS
10
165.479
20
-98.499
11
165.333
21
-98.5593
0
LINE
8
BLACK
6
CONTINUOUS
10
165.333
20
-98.5593
11
165.179
21
-98.59
0
LINE
8
BLACK
6
CONTINUOUS
10
165.179
20
-98.59
11
165.021
21
-98.59
0
LINE
8
BLACK
6
CONTINUOUS
10
165.021
20
-98.59
11
164.867
21
-98.5593
0
LINE
8
BLACK
6
CONTINUOUS
10
164.867
20
-98.5593
11
164.721
21
-98.499
0
LINE
8
BLACK
6
CONTINUOUS
10
164.721
20
-98.499
11
164.59
21
-98.4114
0
LINE
8
BLACK
6
CONTINUOUS
10
164.59
20
-98.4114
11
164.479
21
-98.3
0
LINE
8
BLACK
6
CONTINUOUS
10
164.479
20
-98.3
11
164.391
21
-98.1689
0
LINE
8
BLACK
6
CONTINUOUS
10
164.391
20
-98.1689
11
164.331
21
-98.0234
0
LINE
8
BLACK
6
CONTINUOUS
10
164.331
20
-98.0234
11
164.3
21
-97.8688
0
LINE
8
BLACK
6
CONTINUOUS
10
164.3
20
-97.8688
11
164.3
21
-97.7112
0
LINE
8
BLACK
6
CONTINUOUS
10
164.3
20
-97.7112
11
164.331
21
-97.5566
0
LINE
8
BLACK
6
CONTINUOUS
10
164.331
20
-97.5566
11
164.391
21
-97.4111
0
LINE
8
BLACK
6
CONTINUOUS
10
164.391
20
-97.4111
11
164.479
21
-97.28
0
LINE
8
BLACK
6
CONTINUOUS
10
164.479
20
-97.28
11
164.59
21
-97.1686
0
LINE
8
BLACK
6
CONTINUOUS
10
164.59
20
-97.1686
11
164.721
21
-97.081
0
LINE
8
BLACK
6
CONTINUOUS
10
164.721
20
-97.081
11
164.867
21
-97.0207
0
LINE
8
BLACK
6
CONTINUOUS
10
164.867
20
-97.0207
11
165.021
21
-96.99
0
LINE
8
BLACK
6
CONTINUOUS
10
165.021
20
-96.99
11
165.179
21
-96.99
0
LINE
8
BLACK
6
CONTINUOUS
10
165.179
20
-96.99
11
165.333
21
-97.0207
0
LINE
8
BLACK
6
CONTINUOUS
10
165.333
20
-94.4807
11
165.479
21
-94.541
0
LINE
8
BLACK
6
CONTINUOUS
10
165.479
20
-94.541
11
165.61
21
-94.6286
0
LINE
8
BLACK
6
CONTINUOUS
10
165.61
20
-94.6286
11
165.721
21
-94.74
0
LINE
8
BLACK
6
CONTINUOUS
10
165.721
20
-94.74
11
165.809
21
-94.8711
0
LINE
8
BLACK
6
CONTINUOUS
10
165.809
20
-94.8711
11
165.869
21
-95.0166
0
LINE
8
BLACK
6
CONTINUOUS
10
165.869
20
-95.0166
11
165.9
21
-95.1712
0
LINE
8
BLACK
6
CONTINUOUS
10
165.9
20
-95.1712
11
165.9
21
-95.3288
0
LINE
8
BLACK
6
CONTINUOUS
10
165.9
20
-95.3288
11
165.869
21
-95.4834
0
LINE
8
BLACK
6
CONTINUOUS
10
165.869
20
-95.4834
11
165.809
21
-95.6289
0
LINE
8
BLACK
6
CONTINUOUS
10
165.809
20
-95.6289
11
165.721
21
-95.76
0
LINE
8
BLACK
6
CONTINUOUS
10
165.721
20
-95.76
11
165.61
21
-95.8714
0
LINE
8
BLACK
6
CONTINUOUS
10
165.61
20
-95.8714
11
165.479
21
-95.959
0
LINE
8
BLACK
6
CONTINUOUS
10
165.479
20
-95.959
11
165.333
21
-96.0193
0
LINE
8
BLACK
6
CONTINUOUS
10
165.333
20
-96.0193
11
165.179
21
-96.05
0
LINE
8
BLACK
6
CONTINUOUS
10
165.179
20
-96.05
11
165.021
21
-96.05
0
LINE
8
BLACK
6
CONTINUOUS
10
165.021
20
-96.05
11
164.867
21
-96.0193
0
LINE
8
BLACK
6
CONTINUOUS
10
164.867
20
-96.0193
11
164.721
21
-95.959
0
LINE
8
BLACK
6
CONTINUOUS
10
164.721
20
-95.959
11
164.59
21
-95.8714
0
LINE
8
BLACK
6
CONTINUOUS
10
164.59
20
-95.8714
11
164.479
21
-95.76
0
LINE
8
BLACK
6
CONTINUOUS
10
164.479
20
-95.76
11
164.391
21
-95.6289
0
LINE
8
BLACK
6
CONTINUOUS
10
164.391
20
-95.6289
11
164.331
21
-95.4834
0
LINE
8
BLACK
6
CONTINUOUS
10
164.331
20
-95.4834
11
164.3
21
-95.3288
0
LINE
8
BLACK
6
CONTINUOUS
10
164.3
20
-95.3288
11
164.3
21
-95.1712
0
LINE
8
BLACK
6
CONTINUOUS
10
164.3
20
-95.1712
11
164.331
21
-95.0166
0
LINE
8
BLACK
6
CONTINUOUS
10
164.331
20
-95.0166
11
164.391
21
-94.8711
0
LINE
8
BLACK
6
CONTINUOUS
10
164.391
20
-94.8711
11
164.479
21
-94.74
0
LINE
8
BLACK
6
CONTINUOUS
10
164.479
20
-94.74
11
164.59
21
-94.6286
0
LINE
8
BLACK
6
CONTINUOUS
10
164.59
20
-94.6286
11
164.721
21
-94.541
0
LINE
8
BLACK
6
CONTINUOUS
10
164.721
20
-94.541
11
164.867
21
-94.4807
0
LINE
8
BLACK
6
CONTINUOUS
10
164.867
20
-94.4807
11
165.021
21
-94.45
0
LINE
8
BLACK
6
CONTINUOUS
10
165.021
20
-94.45
11
165.179
21
-94.45
0
LINE
8
BLACK
6
CONTINUOUS
10
165.179
20
-94.45
11
165.333
21
-94.4807
0
LINE
8
BLACK
6
CONTINUOUS
10
150.093
20
-91.9407
11
150.239
21
-92.001
0
LINE
8
BLACK
6
CONTINUOUS
10
150.239
20
-92.001
11
150.37
21
-92.0886
0
LINE
8
BLACK
6
CONTINUOUS
10
150.37
20
-92.0886
11
150.481
21
-92.2
0
LINE
8
BLACK
6
CONTINUOUS
10
150.481
20
-92.2
11
150.569
21
-92.3311
0
LINE
8
BLACK
6
CONTINUOUS
10
150.569
20
-92.3311
11
150.629
21
-92.4766
0
LINE
8
BLACK
6
CONTINUOUS
10
150.629
20
-92.4766
11
150.66
21
-92.6312
0
LINE
8
BLACK
6
CONTINUOUS
10
150.66
20
-92.6312
11
150.66
21
-92.7888
0
LINE
8
BLACK
6
CONTINUOUS
10
150.66
20
-92.7888
11
150.629
21
-92.9434
0
LINE
8
BLACK
6
CONTINUOUS
10
150.629
20
-92.9434
11
150.569
21
-93.0889
0
LINE
8
BLACK
6
CONTINUOUS
10
150.569
20
-93.0889
11
150.481
21
-93.22
0
LINE
8
BLACK
6
CONTINUOUS
10
150.481
20
-93.22
11
150.37
21
-93.3314
0
LINE
8
BLACK
6
CONTINUOUS
10
150.37
20
-93.3314
11
150.239
21
-93.419
0
LINE
8
BLACK
6
CONTINUOUS
10
150.239
20
-93.419
11
150.093
21
-93.4793
0
LINE
8
BLACK
6
CONTINUOUS
10
150.093
20
-93.4793
11
149.939
21
-93.51
0
LINE
8
BLACK
6
CONTINUOUS
10
149.939
20
-93.51
11
149.781
21
-93.51
0
LINE
8
BLACK
6
CONTINUOUS
10
149.781
20
-93.51
11
149.627
21
-93.4793
0
LINE
8
BLACK
6
CONTINUOUS
10
149.627
20
-93.4793
11
149.481
21
-93.419
0
LINE
8
BLACK
6
CONTINUOUS
10
149.481
20
-93.419
11
149.35
21
-93.3314
0
LINE
8
BLACK
6
CONTINUOUS
10
149.35
20
-93.3314
11
149.239
21
-93.22
0
LINE
8
BLACK
6
CONTINUOUS
10
149.239
20
-93.22
11
149.151
21
-93.0889
0
LINE
8
BLACK
6
CONTINUOUS
10
149.151
20
-93.0889
11
149.091
21
-92.9434
0
LINE
8
BLACK
6
CONTINUOUS
10
149.091
20
-92.9434
11
149.06
21
-92.7888
0
LINE
8
BLACK
6
CONTINUOUS
10
149.06
20
-92.7888
11
149.06
21
-92.6312
0
LINE
8
BLACK
6
CONTINUOUS
10
149.06
20
-92.6312
11
149.091
21
-92.4766
0
LINE
8
BLACK
6
CONTINUOUS
10
149.091
20
-92.4766
11
149.151
21
-92.3311
0
LINE
8
BLACK
6
CONTINUOUS
10
149.151
20
-92.3311
11
149.239
21
-92.2
0
LINE
8
BLACK
6
CONTINUOUS
10
149.239
20
-92.2
11
149.35
21
-92.0886
0
LINE
8
BLACK
6
CONTINUOUS
10
149.35
20
-92.0886
11
149.481
21
-92.001
0
LINE
8
BLACK
6
CONTINUOUS
10
149.481
20
-92.001
11
149.627
21
-91.9407
0
LINE
8
BLACK
6
CONTINUOUS
10
149.627
20
-91.9407
11
149.781
21
-91.91
0
LINE
8
BLACK
6
CONTINUOUS
10
149.781
20
-91.91
11
149.939
21
-91.91
0
LINE
8
BLACK
6
CONTINUOUS
10
149.939
20
-91.91
11
150.093
21
-91.9407
0
LINE
8
BLACK
6
CONTINUOUS
10
165.333
20
-91.9407
11
165.479
21
-92.001
0
LINE
8
BLACK
6
CONTINUOUS
10
165.479
20
-92.001
11
165.61
21
-92.0886
0
LINE
8
BLACK
6
CONTINUOUS
10
165.61
20
-92.0886
11
165.721
21
-92.2
0
LINE
8
BLACK
6
CONTINUOUS
10
165.721
20
-92.2
11
165.809
21
-92.3311
0
LINE
8
BLACK
6
CONTINUOUS
10
165.809
20
-92.3311
11
165.869
21
-92.4766
0
LINE
8
BLACK
6
CONTINUOUS
10
165.869
20
-92.4766
11
165.9
21
-92.6312
0
LINE
8
BLACK
6
CONTINUOUS
10
165.9
20
-92.6312
11
165.9
21
-92.7888
0
LINE
8
BLACK
6
CONTINUOUS
10
165.9
20
-92.7888
11
165.869
21
-92.9434
0
LINE
8
BLACK
6
CONTINUOUS
10
165.869
20
-92.9434
11
165.809
21
-93.0889
0
LINE
8
BLACK
6
CONTINUOUS
10
165.809
20
-93.0889
11
165.721
21
-93.22
0
LINE
8
BLACK
6
CONTINUOUS
10
165.721
20
-93.22
11
165.61
21
-93.3314
0
LINE
8
BLACK
6
CONTINUOUS
10
165.61
20
-93.3314
11
165.479
21
-93.419
0
LINE
8
BLACK
6
CONTINUOUS
10
165.479
20
-93.419
11
165.333
21
-93.4793
0
LINE
8
BLACK
6
CONTINUOUS
10
165.333
20
-93.4793
11
165.179
21
-93.51
0
LINE
8
BLACK
6
CONTINUOUS
10
165.179
20
-93.51
11
165.021
21
-93.51
0
LINE
8
BLACK
6
CONTINUOUS
10
165.021
20
-93.51
11
164.867
21
-93.4793
0
LINE
8
BLACK
6
CONTINUOUS
10
164.867
20
-93.4793
11
164.721
21
-93.419
0
LINE
8
BLACK
6
CONTINUOUS
10
164.721
20
-93.419
11
164.59
21
-93.3314
0
LINE
8
BLACK
6
CONTINUOUS
10
164.59
20
-93.3314
11
164.479
21
-93.22
0
LINE
8
BLACK
6
CONTINUOUS
10
164.479
20
-93.22
11
164.391
21
-93.0889
0
LINE
8
BLACK
6
CONTINUOUS
10
164.391
20
-93.0889
11
164.331
21
-92.9434
0
LINE
8
BLACK
6
CONTINUOUS
10
164.331
20
-92.9434
11
164.3
21
-92.7888
0
LINE
8
BLACK
6
CONTINUOUS
10
164.3
20
-92.7888
11
164.3
21
-92.6312
0
LINE
8
BLACK
6
CONTINUOUS
10
164.3
20
-92.6312
11
164.331
21
-92.4766
0
LINE
8
BLACK
6
CONTINUOUS
10
164.331
20
-92.4766
11
164.391
21
-92.3311
0
LINE
8
BLACK
6
CONTINUOUS
10
164.391
20
-92.3311
11
164.479
21
-92.2
0
LINE
8
BLACK
6
CONTINUOUS
10
164.479
20
-92.2
11
164.59
21
-92.0886
0
LINE
8
BLACK
6
CONTINUOUS
10
164.59
20
-92.0886
11
164.721
21
-92.001
0
LINE
8
BLACK
6
CONTINUOUS
10
164.721
20
-92.001
11
164.867
21
-91.9407
0
LINE
8
BLACK
6
CONTINUOUS
10
164.867
20
-91.9407
11
165.021
21
-91.91
0
LINE
8
BLACK
6
CONTINUOUS
10
165.021
20
-91.91
11
165.179
21
-91.91
0
LINE
8
BLACK
6
CONTINUOUS
10
165.179
20
-91.91
11
165.333
21
-91.9407
0
LINE
8
BLACK
6
CONTINUOUS
10
150.093
20
-89.4007
11
150.239
21
-89.461
0
LINE
8
BLACK
6
CONTINUOUS
10
150.239
20
-89.461
11
150.37
21
-89.5486
0
LINE
8
BLACK
6
CONTINUOUS
10
150.37
20
-89.5486
11
150.481
21
-89.66
0
LINE
8
BLACK
6
CONTINUOUS
10
150.481
20
-89.66
11
150.569
21
-89.7911
0
LINE
8
BLACK
6
CONTINUOUS
10
150.569
20
-89.7911
11
150.629
21
-89.9366
0
LINE
8
BLACK
6
CONTINUOUS
10
150.629
20
-89.9366
11
150.66
21
-90.0912
0
LINE
8
BLACK
6
CONTINUOUS
10
150.66
20
-90.0912
11
150.66
21
-90.2488
0
LINE
8
BLACK
6
CONTINUOUS
10
150.66
20
-90.2488
11
150.629
21
-90.4034
0
LINE
8
BLACK
6
CONTINUOUS
10
150.629
20
-90.4034
11
150.569
21
-90.5489
0
LINE
8
BLACK
6
CONTINUOUS
10
150.569
20
-90.5489
11
150.481
21
-90.68
0
LINE
8
BLACK
6
CONTINUOUS
10
150.481
20
-90.68
11
150.37
21
-90.7914
0
LINE
8
BLACK
6
CONTINUOUS
10
150.37
20
-90.7914
11
150.239
21
-90.879
0
LINE
8
BLACK
6
CONTINUOUS
10
150.239
20
-90.879
11
150.093
21
-90.9393
0
LINE
8
BLACK
6
CONTINUOUS
10
150.093
20
-90.9393
11
149.939
21
-90.97
0
LINE
8
BLACK
6
CONTINUOUS
10
149.939
20
-90.97
11
149.781
21
-90.97
0
LINE
8
BLACK
6
CONTINUOUS
10
149.781
20
-90.97
11
149.627
21
-90.9393
0
LINE
8
BLACK
6
CONTINUOUS
10
149.627
20
-90.9393
11
149.481
21
-90.879
0
LINE
8
BLACK
6
CONTINUOUS
10
149.481
20
-90.879
11
149.35
21
-90.7914
0
LINE
8
BLACK
6
CONTINUOUS
10
149.35
20
-90.7914
11
149.239
21
-90.68
0
LINE
8
BLACK
6
CONTINUOUS
10
149.239
20
-90.68
11
149.151
21
-90.5489
0
LINE
8
BLACK
6
CONTINUOUS
10
149.151
20
-90.5489
11
149.091
21
-90.4034
0
LINE
8
BLACK
6
CONTINUOUS
10
149.091
20
-90.4034
11
149.06
21
-90.2488
0
LINE
8
BLACK
6
CONTINUOUS
10
149.06
20
-90.2488
11
149.06
21
-90.0912
0
LINE
8
BLACK
6
CONTINUOUS
10
149.06
20
-90.0912
11
149.091
21
-89.9366
0
LINE
8
BLACK
6
CONTINUOUS
10
149.091
20
-89.9366
11
149.151
21
-89.7911
0
LINE
8
BLACK
6
CONTINUOUS
10
149.151
20
-89.7911
11
149.239
21
-89.66
0
LINE
8
BLACK
6
CONTINUOUS
10
149.239
20
-89.66
11
149.35
21
-89.5486
0
LINE
8
BLACK
6
CONTINUOUS
10
149.35
20
-89.5486
11
149.481
21
-89.461
0
LINE
8
BLACK
6
CONTINUOUS
10
149.481
20
-89.461
11
149.627
21
-89.4007
0
LINE
8
BLACK
6
CONTINUOUS
10
149.627
20
-89.4007
11
149.781
21
-89.37
0
LINE
8
BLACK
6
CONTINUOUS
10
149.781
20
-89.37
11
149.939
21
-89.37
0
LINE
8
BLACK
6
CONTINUOUS
10
149.939
20
-89.37
11
150.093
21
-89.4007
0
LINE
8
BLACK
6
CONTINUOUS
10
165.333
20
-89.4007
11
165.479
21
-89.461
0
LINE
8
BLACK
6
CONTINUOUS
10
165.479
20
-89.461
11
165.61
21
-89.5486
0
LINE
8
BLACK
6
CONTINUOUS
10
165.61
20
-89.5486
11
165.721
21
-89.66
0
LINE
8
BLACK
6
CONTINUOUS
10
165.721
20
-89.66
11
165.809
21
-89.7911
0
LINE
8
BLACK
6
CONTINUOUS
10
165.809
20
-89.7911
11
165.869
21
-89.9366
0
LINE
8
BLACK
6
CONTINUOUS
10
165.869
20
-89.9366
11
165.9
21
-90.0912
0
LINE
8
BLACK
6
CONTINUOUS
10
165.9
20
-90.0912
11
165.9
21
-90.2488
0
LINE
8
BLACK
6
CONTINUOUS
10
165.9
20
-90.2488
11
165.869
21
-90.4034
0
LINE
8
BLACK
6
CONTINUOUS
10
165.869
20
-90.4034
11
165.809
21
-90.5489
0
LINE
8
BLACK
6
CONTINUOUS
10
165.809
20
-90.5489
11
165.721
21
-90.68
0
LINE
8
BLACK
6
CONTINUOUS
10
165.721
20
-90.68
11
165.61
21
-90.7914
0
LINE
8
BLACK
6
CONTINUOUS
10
165.61
20
-90.7914
11
165.479
21
-90.879
0
LINE
8
BLACK
6
CONTINUOUS
10
165.479
20
-90.879
11
165.333
21
-90.9393
0
LINE
8
BLACK
6
CONTINUOUS
10
165.333
20
-90.9393
11
165.179
21
-90.97
0
LINE
8
BLACK
6
CONTINUOUS
10
165.179
20
-90.97
11
165.021
21
-90.97
0
LINE
8
BLACK
6
CONTINUOUS
10
165.021
20
-90.97
11
164.867
21
-90.9393
0
LINE
8
BLACK
6
CONTINUOUS
10
164.867
20
-90.9393
11
164.721
21
-90.879
0
LINE
8
BLACK
6
CONTINUOUS
10
164.721
20
-90.879
11
164.59
21
-90.7914
0
LINE
8
BLACK
6
CONTINUOUS
10
164.59
20
-90.7914
11
164.479
21
-90.68
0
LINE
8
BLACK
6
CONTINUOUS
10
164.479
20
-90.68
11
164.391
21
-90.5489
0
LINE
8
BLACK
6
CONTINUOUS
10
164.391
20
-90.5489
11
164.331
21
-90.4034
0
LINE
8
BLACK
6
CONTINUOUS
10
164.331
20
-90.4034
11
164.3
21
-90.2488
0
LINE
8
BLACK
6
CONTINUOUS
10
164.3
20
-90.2488
11
164.3
21
-90.0912
0
LINE
8
BLACK
6
CONTINUOUS
10
164.3
20
-90.0912
11
164.331
21
-89.9366
0
LINE
8
BLACK
6
CONTINUOUS
10
164.331
20
-89.9366
11
164.391
21
-89.7911
0
LINE
8
BLACK
6
CONTINUOUS
10
164.391
20
-89.7911
11
164.479
21
-89.66
0
LINE
8
BLACK
6
CONTINUOUS
10
164.479
20
-89.66
11
164.59
21
-89.5486
0
LINE
8
BLACK
6
CONTINUOUS
10
164.59
20
-89.5486
11
164.721
21
-89.461
0
LINE
8
BLACK
6
CONTINUOUS
10
164.721
20
-89.461
11
164.867
21
-89.4007
0
LINE
8
BLACK
6
CONTINUOUS
10
164.867
20
-89.4007
11
165.021
21
-89.37
0
LINE
8
BLACK
6
CONTINUOUS
10
165.021
20
-89.37
11
165.179
21
-89.37
0
LINE
8
BLACK
6
CONTINUOUS
10
165.179
20
-89.37
11
165.333
21
-89.4007
0
LINE
8
BLACK
6
CONTINUOUS
10
165.333
20
-86.8607
11
165.479
21
-86.921
0
LINE
8
BLACK
6
CONTINUOUS
10
165.479
20
-86.921
11
165.61
21
-87.0086
0
LINE
8
BLACK
6
CONTINUOUS
10
165.61
20
-87.0086
11
165.721
21
-87.12
0
LINE
8
BLACK
6
CONTINUOUS
10
165.721
20
-87.12
11
165.809
21
-87.2511
0
LINE
8
BLACK
6
CONTINUOUS
10
165.809
20
-87.2511
11
165.869
21
-87.3966
0
LINE
8
BLACK
6
CONTINUOUS
10
165.869
20
-87.3966
11
165.9
21
-87.5512
0
LINE
8
BLACK
6
CONTINUOUS
10
165.9
20
-87.5512
11
165.9
21
-87.7088
0
LINE
8
BLACK
6
CONTINUOUS
10
165.9
20
-87.7088
11
165.869
21
-87.8634
0
LINE
8
BLACK
6
CONTINUOUS
10
165.869
20
-87.8634
11
165.809
21
-88.0089
0
LINE
8
BLACK
6
CONTINUOUS
10
165.809
20
-88.0089
11
165.721
21
-88.14
0
LINE
8
BLACK
6
CONTINUOUS
10
165.721
20
-88.14
11
165.61
21
-88.2514
0
LINE
8
BLACK
6
CONTINUOUS
10
165.61
20
-88.2514
11
165.479
21
-88.339
0
LINE
8
BLACK
6
CONTINUOUS
10
165.479
20
-88.339
11
165.333
21
-88.3993
0
LINE
8
BLACK
6
CONTINUOUS
10
165.333
20
-88.3993
11
165.179
21
-88.43
0
LINE
8
BLACK
6
CONTINUOUS
10
165.179
20
-88.43
11
165.021
21
-88.43
0
LINE
8
BLACK
6
CONTINUOUS
10
165.021
20
-88.43
11
164.867
21
-88.3993
0
LINE
8
BLACK
6
CONTINUOUS
10
164.867
20
-88.3993
11
164.721
21
-88.339
0
LINE
8
BLACK
6
CONTINUOUS
10
164.721
20
-88.339
11
164.59
21
-88.2514
0
LINE
8
BLACK
6
CONTINUOUS
10
164.59
20
-88.2514
11
164.479
21
-88.14
0
LINE
8
BLACK
6
CONTINUOUS
10
164.479
20
-88.14
11
164.391
21
-88.0089
0
LINE
8
BLACK
6
CONTINUOUS
10
164.391
20
-88.0089
11
164.331
21
-87.8634
0
LINE
8
BLACK
6
CONTINUOUS
10
164.331
20
-87.8634
11
164.3
21
-87.7088
0
LINE
8
BLACK
6
CONTINUOUS
10
164.3
20
-87.7088
11
164.3
21
-87.5512
0
LINE
8
BLACK
6
CONTINUOUS
10
164.3
20
-87.5512
11
164.331
21
-87.3966
0
LINE
8
BLACK
6
CONTINUOUS
10
164.331
20
-87.3966
11
164.391
21
-87.2511
0
LINE
8
BLACK
6
CONTINUOUS
10
164.391
20
-87.2511
11
164.479
21
-87.12
0
LINE
8
BLACK
6
CONTINUOUS
10
164.479
20
-87.12
11
164.59
21
-87.0086
0
LINE
8
BLACK
6
CONTINUOUS
10
164.59
20
-87.0086
11
164.721
21
-86.921
0
LINE
8
BLACK
6
CONTINUOUS
10
164.721
20
-86.921
11
164.867
21
-86.8607
0
LINE
8
BLACK
6
CONTINUOUS
10
164.867
20
-86.8607
11
165.021
21
-86.83
0
LINE
8
BLACK
6
CONTINUOUS
10
165.021
20
-86.83
11
165.179
21
-86.83
0
LINE
8
BLACK
6
CONTINUOUS
10
165.179
20
-86.83
11
165.333
21
-86.8607
0
LINE
8
BLACK
6
CONTINUOUS
10
150.093
20
-86.8607
11
150.239
21
-86.921
0
LINE
8
BLACK
6
CONTINUOUS
10
150.239
20
-86.921
11
150.37
21
-87.0086
0
LINE
8
BLACK
6
CONTINUOUS
10
150.37
20
-87.0086
11
150.481
21
-87.12
0
LINE
8
BLACK
6
CONTINUOUS
10
150.481
20
-87.12
11
150.569
21
-87.2511
0
LINE
8
BLACK
6
CONTINUOUS
10
150.569
20
-87.2511
11
150.629
21
-87.3966
0
LINE
8
BLACK
6
CONTINUOUS
10
150.629
20
-87.3966
11
150.66
21
-87.5512
0
LINE
8
BLACK
6
CONTINUOUS
10
150.66
20
-87.5512
11
150.66
21
-87.7088
0
LINE
8
BLACK
6
CONTINUOUS
10
150.66
20
-87.7088
11
150.629
21
-87.8634
0
LINE
8
BLACK
6
CONTINUOUS
10
150.629
20
-87.8634
11
150.569
21
-88.0089
0
LINE
8
BLACK
6
CONTINUOUS
10
150.569
20
-88.0089
11
150.481
21
-88.14
0
LINE
8
BLACK
6
CONTINUOUS
10
150.481
20
-88.14
11
150.37
21
-88.2514
0
LINE
8
BLACK
6
CONTINUOUS
10
150.37
20
-88.2514
11
150.239
21
-88.339
0
LINE
8
BLACK
6
CONTINUOUS
10
150.239
20
-88.339
11
150.093
21
-88.3993
0
LINE
8
BLACK
6
CONTINUOUS
10
150.093
20
-88.3993
11
149.939
21
-88.43
0
LINE
8
BLACK
6
CONTINUOUS
10
149.939
20
-88.43
11
149.781
21
-88.43
0
LINE
8
BLACK
6
CONTINUOUS
10
149.781
20
-88.43
11
149.627
21
-88.3993
0
LINE
8
BLACK
6
CONTINUOUS
10
149.627
20
-88.3993
11
149.481
21
-88.339
0
LINE
8
BLACK
6
CONTINUOUS
10
149.481
20
-88.339
11
149.35
21
-88.2514
0
LINE
8
BLACK
6
CONTINUOUS
10
149.35
20
-88.2514
11
149.239
21
-88.14
0
LINE
8
BLACK
6
CONTINUOUS
10
149.239
20
-88.14
11
149.151
21
-88.0089
0
LINE
8
BLACK
6
CONTINUOUS
10
149.151
20
-88.0089
11
149.091
21
-87.8634
0
LINE
8
BLACK
6
CONTINUOUS
10
149.091
20
-87.8634
11
149.06
21
-87.7088
0
LINE
8
BLACK
6
CONTINUOUS
10
149.06
20
-87.7088
11
149.06
21
-87.5512
0
LINE
8
BLACK
6
CONTINUOUS
10
149.06
20
-87.5512
11
149.091
21
-87.3966
0
LINE
8
BLACK
6
CONTINUOUS
10
149.091
20
-87.3966
11
149.151
21
-87.2511
0
LINE
8
BLACK
6
CONTINUOUS
10
149.151
20
-87.2511
11
149.239
21
-87.12
0
LINE
8
BLACK
6
CONTINUOUS
10
149.239
20
-87.12
11
149.35
21
-87.0086
0
LINE
8
BLACK
6
CONTINUOUS
10
149.35
20
-87.0086
11
149.481
21
-86.921
0
LINE
8
BLACK
6
CONTINUOUS
10
149.481
20
-86.921
11
149.627
21
-86.8607
0
LINE
8
BLACK
6
CONTINUOUS
10
149.627
20
-86.8607
11
149.781
21
-86.83
0
LINE
8
BLACK
6
CONTINUOUS
10
149.781
20
-86.83
11
149.939
21
-86.83
0
LINE
8
BLACK
6
CONTINUOUS
10
149.939
20
-86.83
11
150.093
21
-86.8607
0
LINE
8
BLACK
6
CONTINUOUS
10
150.629
20
-75.1634
11
150.569
21
-75.3089
0
LINE
8
BLACK
6
CONTINUOUS
10
150.569
20
-75.3089
11
150.481
21
-75.44
0
LINE
8
BLACK
6
CONTINUOUS
10
150.481
20
-75.44
11
150.37
21
-75.5514
0
LINE
8
BLACK
6
CONTINUOUS
10
150.37
20
-75.5514
11
150.239
21
-75.639
0
LINE
8
BLACK
6
CONTINUOUS
10
150.239
20
-75.639
11
150.093
21
-75.6993
0
LINE
8
BLACK
6
CONTINUOUS
10
150.093
20
-75.6993
11
149.939
21
-75.73
0
LINE
8
BLACK
6
CONTINUOUS
10
149.939
20
-75.73
11
149.781
21
-75.73
0
LINE
8
BLACK
6
CONTINUOUS
10
149.781
20
-75.73
11
149.627
21
-75.6993
0
LINE
8
BLACK
6
CONTINUOUS
10
149.627
20
-75.6993
11
149.481
21
-75.639
0
LINE
8
BLACK
6
CONTINUOUS
10
149.481
20
-75.639
11
149.35
21
-75.5514
0
LINE
8
BLACK
6
CONTINUOUS
10
149.35
20
-75.5514
11
149.239
21
-75.44
0
LINE
8
BLACK
6
CONTINUOUS
10
149.239
20
-75.44
11
149.151
21
-75.3089
0
LINE
8
BLACK
6
CONTINUOUS
10
149.151
20
-75.3089
11
149.091
21
-75.1634
0
LINE
8
BLACK
6
CONTINUOUS
10
149.091
20
-75.1634
11
149.06
21
-75.0088
0
LINE
8
BLACK
6
CONTINUOUS
10
149.06
20
-75.0088
11
149.06
21
-74.8512
0
LINE
8
BLACK
6
CONTINUOUS
10
149.06
20
-74.8512
11
149.091
21
-74.6966
0
LINE
8
BLACK
6
CONTINUOUS
10
149.091
20
-74.6966
11
149.151
21
-74.5511
0
LINE
8
BLACK
6
CONTINUOUS
10
149.151
20
-74.5511
11
149.239
21
-74.42
0
LINE
8
BLACK
6
CONTINUOUS
10
149.239
20
-74.42
11
149.35
21
-74.3086
0
LINE
8
BLACK
6
CONTINUOUS
10
149.35
20
-74.3086
11
149.481
21
-74.221
0
LINE
8
BLACK
6
CONTINUOUS
10
149.481
20
-74.221
11
149.627
21
-74.1607
0
LINE
8
BLACK
6
CONTINUOUS
10
149.627
20
-74.1607
11
149.781
21
-74.13
0
LINE
8
BLACK
6
CONTINUOUS
10
149.781
20
-74.13
11
149.939
21
-74.13
0
LINE
8
BLACK
6
CONTINUOUS
10
149.939
20
-74.13
11
150.093
21
-74.1607
0
LINE
8
BLACK
6
CONTINUOUS
10
150.093
20
-74.1607
11
150.239
21
-74.221
0
LINE
8
BLACK
6
CONTINUOUS
10
150.239
20
-74.221
11
150.37
21
-74.3086
0
LINE
8
BLACK
6
CONTINUOUS
10
150.37
20
-74.3086
11
150.481
21
-74.42
0
LINE
8
BLACK
6
CONTINUOUS
10
150.481
20
-74.42
11
150.569
21
-74.5511
0
LINE
8
BLACK
6
CONTINUOUS
10
150.569
20
-74.5511
11
150.629
21
-74.6966
0
LINE
8
BLACK
6
CONTINUOUS
10
150.629
20
-74.6966
11
150.651
21
-74.805
0
LINE
8
BLACK
6
CONTINUOUS
10
150.651
20
-74.805
11
151.044
21
-74.805
0
LINE
8
BLACK
6
CONTINUOUS
10
151.044
20
-74.805
11
165.618
21
-60.2309
0
LINE
8
BLACK
6
CONTINUOUS
10
165.618
20
-60.2309
11
165.622
21
-60.2262
0
LINE
8
BLACK
6
CONTINUOUS
10
165.622
20
-60.2262
11
165.626
21
-60.2222
0
LINE
8
BLACK
6
CONTINUOUS
10
165.626
20
-60.2222
11
165.641
21
-60.2105
0
LINE
8
BLACK
6
CONTINUOUS
10
165.641
20
-60.2105
11
165.662
21
-60.1989
0
LINE
8
BLACK
6
CONTINUOUS
10
165.662
20
-60.1989
11
165.686
21
-60.1918
0
LINE
8
BLACK
6
CONTINUOUS
10
165.686
20
-60.1918
11
165.704
21
-60.19
0
LINE
8
BLACK
6
CONTINUOUS
10
165.704
20
-60.19
11
165.704
21
-60.19
0
LINE
8
BLACK
6
CONTINUOUS
10
165.704
20
-60.19
11
165.71
21
-60.1894
0
LINE
8
BLACK
6
CONTINUOUS
10
165.71
20
-60.1894
11
165.717
21
-60.19
0
LINE
8
BLACK
6
CONTINUOUS
10
165.717
20
-60.19
11
191.549
21
-60.19
0
LINE
8
BLACK
6
CONTINUOUS
10
191.549
20
-60.19
11
191.555
21
-60.1894
0
LINE
8
BLACK
6
CONTINUOUS
10
191.555
20
-60.1894
11
191.561
21
-60.19
0
LINE
8
BLACK
6
CONTINUOUS
10
191.561
20
-60.19
11
191.561
21
-60.19
0
LINE
8
BLACK
6
CONTINUOUS
10
191.561
20
-60.19
11
191.579
21
-60.1918
0
LINE
8
BLACK
6
CONTINUOUS
10
191.579
20
-60.1918
11
191.603
21
-60.1989
0
LINE
8
BLACK
6
CONTINUOUS
10
191.603
20
-60.1989
11
191.625
21
-60.2105
0
LINE
8
BLACK
6
CONTINUOUS
10
191.625
20
-60.2105
11
191.644
21
-60.2262
0
LINE
8
BLACK
6
CONTINUOUS
10
191.644
20
-60.2262
11
191.648
21
-60.2309
0
LINE
8
BLACK
6
CONTINUOUS
10
191.648
20
-60.2309
11
197.789
21
-66.3724
0
LINE
8
BLACK
6
CONTINUOUS
10
197.789
20
-66.3724
11
197.794
21
-66.3763
0
LINE
8
BLACK
6
CONTINUOUS
10
197.794
20
-66.3763
11
197.798
21
-66.3811
0
LINE
8
BLACK
6
CONTINUOUS
10
197.798
20
-66.3811
11
197.798
21
-66.3811
0
LINE
8
BLACK
6
CONTINUOUS
10
197.798
20
-66.3811
11
197.809
21
-66.3945
0
LINE
8
BLACK
6
CONTINUOUS
10
197.809
20
-66.3945
11
197.809
21
-66.3954
0
LINE
8
BLACK
6
CONTINUOUS
10
197.809
20
-66.3954
11
197.821
21
-66.4171
0
LINE
8
BLACK
6
CONTINUOUS
10
197.821
20
-66.4171
11
197.828
21
-66.4406
0
LINE
8
BLACK
6
CONTINUOUS
10
197.828
20
-66.4406
11
197.83
21
-66.459
0
LINE
8
BLACK
6
CONTINUOUS
10
197.83
20
-66.459
11
197.83
21
-66.459
0
LINE
8
BLACK
6
CONTINUOUS
10
197.83
20
-66.459
11
197.831
21
-66.4651
0
LINE
8
BLACK
6
CONTINUOUS
10
197.831
20
-66.4651
11
197.83
21
-66.4713
0
LINE
8
BLACK
6
CONTINUOUS
10
197.83
20
-66.4713
11
197.83
21
-85.4789
0
LINE
8
BLACK
6
CONTINUOUS
10
197.83
20
-85.4789
11
197.831
21
-85.485
0
LINE
8
BLACK
6
CONTINUOUS
10
197.831
20
-85.485
11
197.83
21
-85.4911
0
LINE
8
BLACK
6
CONTINUOUS
10
197.83
20
-85.4911
11
197.83
21
-85.4911
0
LINE
8
BLACK
6
CONTINUOUS
10
197.83
20
-85.4911
11
197.828
21
-85.5095
0
LINE
8
BLACK
6
CONTINUOUS
10
197.828
20
-85.5095
11
197.821
21
-85.5331
0
LINE
8
BLACK
6
CONTINUOUS
10
197.821
20
-85.5331
11
197.821
21
-85.5331
0
LINE
8
BLACK
6
CONTINUOUS
10
197.821
20
-85.5331
11
197.809
21
-85.5548
0
LINE
8
BLACK
6
CONTINUOUS
10
197.809
20
-85.5548
11
197.798
21
-85.569
0
LINE
8
BLACK
6
CONTINUOUS
10
197.798
20
-85.569
11
197.794
21
-85.5738
0
LINE
8
BLACK
6
CONTINUOUS
10
197.794
20
-85.5738
11
197.789
21
-85.5777
0
LINE
8
BLACK
6
CONTINUOUS
10
197.789
20
-85.5777
11
196.923
21
-86.444
0
LINE
8
BLACK
6
CONTINUOUS
10
196.923
20
-86.444
11
196.919
21
-86.4488
0
LINE
8
BLACK
6
CONTINUOUS
10
196.919
20
-86.4488
11
196.9
21
-86.4644
0
LINE
8
BLACK
6
CONTINUOUS
10
196.9
20
-86.4644
11
196.878
21
-86.476
0
LINE
8
BLACK
6
CONTINUOUS
10
196.878
20
-86.476
11
196.855
21
-86.4832
0
LINE
8
BLACK
6
CONTINUOUS
10
196.855
20
-86.4832
11
196.836
21
-86.485
0
LINE
8
BLACK
6
CONTINUOUS
10
196.836
20
-86.485
11
196.836
21
-86.485
0
LINE
8
BLACK
6
CONTINUOUS
10
196.836
20
-86.485
11
196.83
21
-86.4856
0
LINE
8
BLACK
6
CONTINUOUS
10
196.83
20
-86.4856
11
196.824
21
-86.485
0
LINE
8
BLACK
6
CONTINUOUS
10
196.824
20
-86.485
11
196.58
21
-86.485
0
LINE
8
BLACK
6
CONTINUOUS
10
196.58
20
-86.485
11
196.58
21
-87.3125
0
LINE
8
BLACK
6
CONTINUOUS
10
196.58
20
-87.3125
11
194.58
21
-87.3125
0
LINE
8
BLACK
6
CONTINUOUS
10
194.58
20
-87.3125
11
194.58
21
-85.4075
0
LINE
8
BLACK
6
CONTINUOUS
10
194.58
20
-85.4075
11
196.58
21
-85.4075
0
LINE
8
BLACK
6
CONTINUOUS
10
196.58
20
-85.4075
11
196.58
21
-86.235
0
LINE
8
BLACK
6
CONTINUOUS
10
196.58
20
-86.235
11
196.778
21
-86.235
0
LINE
8
BLACK
6
CONTINUOUS
10
196.778
20
-86.235
11
197.58
21
-85.4332
0
LINE
8
BLACK
6
CONTINUOUS
10
197.58
20
-85.4332
11
197.58
21
-66.5169
0
LINE
8
BLACK
6
CONTINUOUS
10
197.58
20
-66.5169
11
191.503
21
-60.44
0
LINE
8
BLACK
6
CONTINUOUS
10
191.503
20
-60.44
11
165.762
21
-60.44
0
LINE
8
BLACK
6
CONTINUOUS
10
165.762
20
-60.44
11
151.188
21
-75.014
0
LINE
8
BLACK
6
CONTINUOUS
10
151.188
20
-75.014
11
151.184
21
-75.0188
0
LINE
8
BLACK
6
CONTINUOUS
10
151.184
20
-75.0188
11
151.165
21
-75.0344
0
LINE
8
BLACK
6
CONTINUOUS
10
151.165
20
-75.0344
11
151.144
21
-75.046
0
LINE
8
BLACK
6
CONTINUOUS
10
151.144
20
-75.046
11
151.12
21
-75.0532
0
LINE
8
BLACK
6
CONTINUOUS
10
151.12
20
-75.0532
11
151.102
21
-75.055
0
LINE
8
BLACK
6
CONTINUOUS
10
151.102
20
-75.055
11
151.102
21
-75.055
0
LINE
8
BLACK
6
CONTINUOUS
10
151.102
20
-75.055
11
151.095
21
-75.0556
0
LINE
8
BLACK
6
CONTINUOUS
10
151.095
20
-75.0556
11
151.089
21
-75.055
0
LINE
8
BLACK
6
CONTINUOUS
10
151.089
20
-75.055
11
150.651
21
-75.055
0
LINE
8
BLACK
6
CONTINUOUS
10
150.651
20
-75.055
11
150.629
21
-75.1634
0
LINE
8
BLACK
6
CONTINUOUS
10
191.043
20
-61.44
11
191.043
21
-61.44
0
LINE
8
BLACK
6
CONTINUOUS
10
191.043
20
-61.44
11
191.062
21
-61.4418
0
LINE
8
BLACK
6
CONTINUOUS
10
191.062
20
-61.4418
11
191.085
21
-61.4489
0
LINE
8
BLACK
6
CONTINUOUS
10
191.085
20
-61.4489
11
191.107
21
-61.4605
0
LINE
8
BLACK
6
CONTINUOUS
10
191.107
20
-61.4605
11
191.126
21
-61.4762
0
LINE
8
BLACK
6
CONTINUOUS
10
191.126
20
-61.4762
11
191.13
21
-61.4809
0
LINE
8
BLACK
6
CONTINUOUS
10
191.13
20
-61.4809
11
194.394
21
-64.7452
0
LINE
8
BLACK
6
CONTINUOUS
10
194.394
20
-64.7452
11
194.399
21
-64.7491
0
LINE
8
BLACK
6
CONTINUOUS
10
194.399
20
-64.7491
11
194.403
21
-64.7539
0
LINE
8
BLACK
6
CONTINUOUS
10
194.403
20
-64.7539
11
194.403
21
-64.7539
0
LINE
8
BLACK
6
CONTINUOUS
10
194.403
20
-64.7539
11
194.414
21
-64.7681
0
LINE
8
BLACK
6
CONTINUOUS
10
194.414
20
-64.7681
11
194.426
21
-64.7899
0
LINE
8
BLACK
6
CONTINUOUS
10
194.426
20
-64.7899
11
194.433
21
-64.8134
0
LINE
8
BLACK
6
CONTINUOUS
10
194.433
20
-64.8134
11
194.435
21
-64.8318
0
LINE
8
BLACK
6
CONTINUOUS
10
194.435
20
-64.8318
11
194.435
21
-64.8318
0
LINE
8
BLACK
6
CONTINUOUS
10
194.435
20
-64.8318
11
194.436
21
-64.8379
0
LINE
8
BLACK
6
CONTINUOUS
10
194.436
20
-64.8379
11
194.435
21
-64.844
0
LINE
8
BLACK
6
CONTINUOUS
10
194.435
20
-64.844
11
194.435
21
-65.1982
0
LINE
8
BLACK
6
CONTINUOUS
10
194.435
20
-65.1982
11
194.558
21
-65.2227
0
LINE
8
BLACK
6
CONTINUOUS
10
194.558
20
-65.2227
11
194.713
21
-65.2867
0
LINE
8
BLACK
6
CONTINUOUS
10
194.713
20
-65.2867
11
194.852
21
-65.3798
0
LINE
8
BLACK
6
CONTINUOUS
10
194.852
20
-65.3798
11
194.97
21
-65.4982
0
LINE
8
BLACK
6
CONTINUOUS
10
194.97
20
-65.4982
11
195.063
21
-65.6374
0
LINE
8
BLACK
6
CONTINUOUS
10
195.063
20
-65.6374
11
195.127
21
-65.7921
0
LINE
8
BLACK
6
CONTINUOUS
10
195.127
20
-65.7921
11
195.16
21
-65.9563
0
LINE
8
BLACK
6
CONTINUOUS
10
195.16
20
-65.9563
11
195.16
21
-66.1237
0
LINE
8
BLACK
6
CONTINUOUS
10
195.16
20
-66.1237
11
195.127
21
-66.2879
0
LINE
8
BLACK
6
CONTINUOUS
10
195.127
20
-66.2879
11
195.063
21
-66.4426
0
LINE
8
BLACK
6
CONTINUOUS
10
195.063
20
-66.4426
11
194.97
21
-66.5818
0
LINE
8
BLACK
6
CONTINUOUS
10
194.97
20
-66.5818
11
194.852
21
-66.7002
0
LINE
8
BLACK
6
CONTINUOUS
10
194.852
20
-66.7002
11
194.713
21
-66.7933
0
LINE
8
BLACK
6
CONTINUOUS
10
194.713
20
-66.7933
11
194.558
21
-66.8573
0
LINE
8
BLACK
6
CONTINUOUS
10
194.558
20
-66.8573
11
194.394
21
-66.89
0
LINE
8
BLACK
6
CONTINUOUS
10
194.394
20
-66.89
11
194.226
21
-66.89
0
LINE
8
BLACK
6
CONTINUOUS
10
194.226
20
-66.89
11
194.062
21
-66.8573
0
LINE
8
BLACK
6
CONTINUOUS
10
194.062
20
-66.8573
11
193.907
21
-66.7933
0
LINE
8
BLACK
6
CONTINUOUS
10
193.907
20
-66.7933
11
193.768
21
-66.7002
0
LINE
8
BLACK
6
CONTINUOUS
10
193.768
20
-66.7002
11
193.65
21
-66.5818
0
LINE
8
BLACK
6
CONTINUOUS
10
193.65
20
-66.5818
11
193.557
21
-66.4426
0
LINE
8
BLACK
6
CONTINUOUS
10
193.557
20
-66.4426
11
193.493
21
-66.2879
0
LINE
8
BLACK
6
CONTINUOUS
10
193.493
20
-66.2879
11
193.46
21
-66.1237
0
LINE
8
BLACK
6
CONTINUOUS
10
193.46
20
-66.1237
11
193.46
21
-65.9563
0
LINE
8
BLACK
6
CONTINUOUS
10
193.46
20
-65.9563
11
193.493
21
-65.7921
0
LINE
8
BLACK
6
CONTINUOUS
10
193.493
20
-65.7921
11
193.557
21
-65.6374
0
LINE
8
BLACK
6
CONTINUOUS
10
193.557
20
-65.6374
11
193.65
21
-65.4982
0
LINE
8
BLACK
6
CONTINUOUS
10
193.65
20
-65.4982
11
193.768
21
-65.3798
0
LINE
8
BLACK
6
CONTINUOUS
10
193.768
20
-65.3798
11
193.907
21
-65.2867
0
LINE
8
BLACK
6
CONTINUOUS
10
193.907
20
-65.2867
11
194.062
21
-65.2227
0
LINE
8
BLACK
6
CONTINUOUS
10
194.062
20
-65.2227
11
194.185
21
-65.1982
0
LINE
8
BLACK
6
CONTINUOUS
10
194.185
20
-65.1982
11
194.185
21
-64.8897
0
LINE
8
BLACK
6
CONTINUOUS
10
194.185
20
-64.8897
11
190.985
21
-61.69
0
LINE
8
BLACK
6
CONTINUOUS
10
190.985
20
-61.69
11
166.28
21
-61.69
0
LINE
8
BLACK
6
CONTINUOUS
10
166.28
20
-61.69
11
162.05
21
-65.92
0
LINE
8
BLACK
6
CONTINUOUS
10
162.05
20
-65.92
11
162.05
21
-82.9946
0
LINE
8
BLACK
6
CONTINUOUS
10
162.05
20
-82.9946
11
164.02
21
-84.965
0
LINE
8
BLACK
6
CONTINUOUS
10
164.02
20
-84.965
11
164.309
21
-84.965
0
LINE
8
BLACK
6
CONTINUOUS
10
164.309
20
-84.965
11
164.331
21
-84.8566
0
LINE
8
BLACK
6
CONTINUOUS
10
164.331
20
-84.8566
11
164.391
21
-84.7111
0
LINE
8
BLACK
6
CONTINUOUS
10
164.391
20
-84.7111
11
164.479
21
-84.58
0
LINE
8
BLACK
6
CONTINUOUS
10
164.479
20
-84.58
11
164.59
21
-84.4686
0
LINE
8
BLACK
6
CONTINUOUS
10
164.59
20
-84.4686
11
164.721
21
-84.381
0
LINE
8
BLACK
6
CONTINUOUS
10
164.721
20
-84.381
11
164.867
21
-84.3207
0
LINE
8
BLACK
6
CONTINUOUS
10
164.867
20
-84.3207
11
165.021
21
-84.29
0
LINE
8
BLACK
6
CONTINUOUS
10
165.021
20
-84.29
11
165.179
21
-84.29
0
LINE
8
BLACK
6
CONTINUOUS
10
165.179
20
-84.29
11
165.333
21
-84.3207
0
LINE
8
BLACK
6
CONTINUOUS
10
165.333
20
-84.3207
11
165.479
21
-84.381
0
LINE
8
BLACK
6
CONTINUOUS
10
165.479
20
-84.381
11
165.61
21
-84.4686
0
LINE
8
BLACK
6
CONTINUOUS
10
165.61
20
-84.4686
11
165.721
21
-84.58
0
LINE
8
BLACK
6
CONTINUOUS
10
165.721
20
-84.58
11
165.809
21
-84.7111
0
LINE
8
BLACK
6
CONTINUOUS
10
165.809
20
-84.7111
11
165.869
21
-84.8566
0
LINE
8
BLACK
6
CONTINUOUS
10
165.869
20
-84.8566
11
165.9
21
-85.0112
0
LINE
8
BLACK
6
CONTINUOUS
10
165.9
20
-85.0112
11
165.9
21
-85.1688
0
LINE
8
BLACK
6
CONTINUOUS
10
165.9
20
-85.1688
11
165.869
21
-85.3234
0
LINE
8
BLACK
6
CONTINUOUS
10
165.869
20
-85.3234
11
165.809
21
-85.4689
0
LINE
8
BLACK
6
CONTINUOUS
10
165.809
20
-85.4689
11
165.721
21
-85.6
0
LINE
8
BLACK
6
CONTINUOUS
10
165.721
20
-85.6
11
165.61
21
-85.7114
0
LINE
8
BLACK
6
CONTINUOUS
10
165.61
20
-85.7114
11
165.479
21
-85.799
0
LINE
8
BLACK
6
CONTINUOUS
10
165.479
20
-85.799
11
165.333
21
-85.8593
0
LINE
8
BLACK
6
CONTINUOUS
10
165.333
20
-85.8593
11
165.179
21
-85.89
0
LINE
8
BLACK
6
CONTINUOUS
10
165.179
20
-85.89
11
165.021
21
-85.89
0
LINE
8
BLACK
6
CONTINUOUS
10
165.021
20
-85.89
11
164.867
21
-85.8593
0
LINE
8
BLACK
6
CONTINUOUS
10
164.867
20
-85.8593
11
164.721
21
-85.799
0
LINE
8
BLACK
6
CONTINUOUS
10
164.721
20
-85.799
11
164.59
21
-85.7114
0
LINE
8
BLACK
6
CONTINUOUS
10
164.59
20
-85.7114
11
164.479
21
-85.6
0
LINE
8
BLACK
6
CONTINUOUS
10
164.479
20
-85.6
11
164.391
21
-85.4689
0
LINE
8
BLACK
6
CONTINUOUS
10
164.391
20
-85.4689
11
164.331
21
-85.3234
0
LINE
8
BLACK
6
CONTINUOUS
10
164.331
20
-85.3234
11
164.309
21
-85.215
0
LINE
8
BLACK
6
CONTINUOUS
10
164.309
20
-85.215
11
163.975
21
-85.215
0
LINE
8
BLACK
6
CONTINUOUS
10
163.975
20
-85.215
11
163.969
21
-85.2156
0
LINE
8
BLACK
6
CONTINUOUS
10
163.969
20
-85.2156
11
163.963
21
-85.215
0
LINE
8
BLACK
6
CONTINUOUS
10
163.963
20
-85.215
11
163.962
21
-85.215
0
LINE
8
BLACK
6
CONTINUOUS
10
163.962
20
-85.215
11
163.944
21
-85.2132
0
LINE
8
BLACK
6
CONTINUOUS
10
163.944
20
-85.2132
11
163.921
21
-85.206
0
LINE
8
BLACK
6
CONTINUOUS
10
163.921
20
-85.206
11
163.899
21
-85.1944
0
LINE
8
BLACK
6
CONTINUOUS
10
163.899
20
-85.1944
11
163.885
21
-85.1827
0
LINE
8
BLACK
6
CONTINUOUS
10
163.885
20
-85.1827
11
163.88
21
-85.1788
0
LINE
8
BLACK
6
CONTINUOUS
10
163.88
20
-85.1788
11
163.876
21
-85.1741
0
LINE
8
BLACK
6
CONTINUOUS
10
163.876
20
-85.1741
11
161.841
21
-83.1391
0
LINE
8
BLACK
6
CONTINUOUS
10
161.841
20
-83.1391
11
161.836
21
-83.1352
0
LINE
8
BLACK
6
CONTINUOUS
10
161.836
20
-83.1352
11
161.821
21
-83.1161
0
LINE
8
BLACK
6
CONTINUOUS
10
161.821
20
-83.1161
11
161.809
21
-83.0944
0
LINE
8
BLACK
6
CONTINUOUS
10
161.809
20
-83.0944
11
161.802
21
-83.0709
0
LINE
8
BLACK
6
CONTINUOUS
10
161.802
20
-83.0709
11
161.8
21
-83.0525
0
LINE
8
BLACK
6
CONTINUOUS
10
161.8
20
-83.0525
11
161.8
21
-83.0525
0
LINE
8
BLACK
6
CONTINUOUS
10
161.8
20
-83.0525
11
161.799
21
-83.0464
0
LINE
8
BLACK
6
CONTINUOUS
10
161.799
20
-83.0464
11
161.8
21
-83.0402
0
LINE
8
BLACK
6
CONTINUOUS
10
161.8
20
-83.0402
11
161.8
21
-65.8744
0
LINE
8
BLACK
6
CONTINUOUS
10
161.8
20
-65.8744
11
161.799
21
-65.8682
0
LINE
8
BLACK
6
CONTINUOUS
10
161.799
20
-65.8682
11
161.802
21
-65.8437
0
LINE
8
BLACK
6
CONTINUOUS
10
161.802
20
-65.8437
11
161.809
21
-65.8202
0
LINE
8
BLACK
6
CONTINUOUS
10
161.809
20
-65.8202
11
161.821
21
-65.7984
0
LINE
8
BLACK
6
CONTINUOUS
10
161.821
20
-65.7984
11
161.832
21
-65.7842
0
LINE
8
BLACK
6
CONTINUOUS
10
161.832
20
-65.7842
11
161.832
21
-65.7842
0
LINE
8
BLACK
6
CONTINUOUS
10
161.832
20
-65.7842
11
161.836
21
-65.7794
0
LINE
8
BLACK
6
CONTINUOUS
10
161.836
20
-65.7794
11
161.841
21
-65.7755
0
LINE
8
BLACK
6
CONTINUOUS
10
161.841
20
-65.7755
11
166.136
21
-61.4809
0
LINE
8
BLACK
6
CONTINUOUS
10
166.136
20
-61.4809
11
166.139
21
-61.4762
0
LINE
8
BLACK
6
CONTINUOUS
10
166.139
20
-61.4762
11
166.144
21
-61.4723
0
LINE
8
BLACK
6
CONTINUOUS
10
166.144
20
-61.4723
11
166.144
21
-61.4723
0
LINE
8
BLACK
6
CONTINUOUS
10
166.144
20
-61.4723
11
166.158
21
-61.4605
0
LINE
8
BLACK
6
CONTINUOUS
10
166.158
20
-61.4605
11
166.18
21
-61.4489
0
LINE
8
BLACK
6
CONTINUOUS
10
166.18
20
-61.4489
11
166.204
21
-61.4418
0
LINE
8
BLACK
6
CONTINUOUS
10
166.204
20
-61.4418
11
166.222
21
-61.44
0
LINE
8
BLACK
6
CONTINUOUS
10
166.222
20
-61.44
11
166.222
21
-61.44
0
LINE
8
BLACK
6
CONTINUOUS
10
166.222
20
-61.44
11
166.228
21
-61.4394
0
LINE
8
BLACK
6
CONTINUOUS
10
166.228
20
-61.4394
11
166.234
21
-61.44
0
LINE
8
BLACK
6
CONTINUOUS
10
166.234
20
-61.44
11
191.031
21
-61.44
0
LINE
8
BLACK
6
CONTINUOUS
10
191.031
20
-61.44
11
191.037
21
-61.4394
0
LINE
8
BLACK
6
CONTINUOUS
10
191.037
20
-61.4394
11
191.043
21
-61.44
0
LINE
8
BLACK
6
CONTINUOUS
10
150.093
20
-84.3207
11
150.239
21
-84.381
0
LINE
8
BLACK
6
CONTINUOUS
10
150.239
20
-84.381
11
150.37
21
-84.4686
0
LINE
8
BLACK
6
CONTINUOUS
10
150.37
20
-84.4686
11
150.481
21
-84.58
0
LINE
8
BLACK
6
CONTINUOUS
10
150.481
20
-84.58
11
150.569
21
-84.7111
0
LINE
8
BLACK
6
CONTINUOUS
10
150.569
20
-84.7111
11
150.629
21
-84.8566
0
LINE
8
BLACK
6
CONTINUOUS
10
150.629
20
-84.8566
11
150.66
21
-85.0112
0
LINE
8
BLACK
6
CONTINUOUS
10
150.66
20
-85.0112
11
150.66
21
-85.1688
0
LINE
8
BLACK
6
CONTINUOUS
10
150.66
20
-85.1688
11
150.629
21
-85.3234
0
LINE
8
BLACK
6
CONTINUOUS
10
150.629
20
-85.3234
11
150.569
21
-85.4689
0
LINE
8
BLACK
6
CONTINUOUS
10
150.569
20
-85.4689
11
150.481
21
-85.6
0
LINE
8
BLACK
6
CONTINUOUS
10
150.481
20
-85.6
11
150.37
21
-85.7114
0
LINE
8
BLACK
6
CONTINUOUS
10
150.37
20
-85.7114
11
150.239
21
-85.799
0
LINE
8
BLACK
6
CONTINUOUS
10
150.239
20
-85.799
11
150.093
21
-85.8593
0
LINE
8
BLACK
6
CONTINUOUS
10
150.093
20
-85.8593
11
149.939
21
-85.89
0
LINE
8
BLACK
6
CONTINUOUS
10
149.939
20
-85.89
11
149.781
21
-85.89
0
LINE
8
BLACK
6
CONTINUOUS
10
149.781
20
-85.89
11
149.627
21
-85.8593
0
LINE
8
BLACK
6
CONTINUOUS
10
149.627
20
-85.8593
11
149.481
21
-85.799
0
LINE
8
BLACK
6
CONTINUOUS
10
149.481
20
-85.799
11
149.35
21
-85.7114
0
LINE
8
BLACK
6
CONTINUOUS
10
149.35
20
-85.7114
11
149.239
21
-85.6
0
LINE
8
BLACK
6
CONTINUOUS
10
149.239
20
-85.6
11
149.151
21
-85.4689
0
LINE
8
BLACK
6
CONTINUOUS
10
149.151
20
-85.4689
11
149.091
21
-85.3234
0
LINE
8
BLACK
6
CONTINUOUS
10
149.091
20
-85.3234
11
149.06
21
-85.1688
0
LINE
8
BLACK
6
CONTINUOUS
10
149.06
20
-85.1688
11
149.06
21
-85.0112
0
LINE
8
BLACK
6
CONTINUOUS
10
149.06
20
-85.0112
11
149.091
21
-84.8566
0
LINE
8
BLACK
6
CONTINUOUS
10
149.091
20
-84.8566
11
149.151
21
-84.7111
0
LINE
8
BLACK
6
CONTINUOUS
10
149.151
20
-84.7111
11
149.239
21
-84.58
0
LINE
8
BLACK
6
CONTINUOUS
10
149.239
20
-84.58
11
149.35
21
-84.4686
0
LINE
8
BLACK
6
CONTINUOUS
10
149.35
20
-84.4686
11
149.481
21
-84.381
0
LINE
8
BLACK
6
CONTINUOUS
10
149.481
20
-84.381
11
149.627
21
-84.3207
0
LINE
8
BLACK
6
CONTINUOUS
10
149.627
20
-84.3207
11
149.781
21
-84.29
0
LINE
8
BLACK
6
CONTINUOUS
10
149.781
20
-84.29
11
149.939
21
-84.29
0
LINE
8
BLACK
6
CONTINUOUS
10
149.939
20
-84.29
11
150.093
21
-84.3207
0
LINE
8
BLACK
6
CONTINUOUS
10
179.43
20
-82.1373
11
179.749
21
-82.2692
0
LINE
8
BLACK
6
CONTINUOUS
10
179.749
20
-82.2692
11
180.036
21
-82.4607
0
LINE
8
BLACK
6
CONTINUOUS
10
180.036
20
-82.4607
11
180.279
21
-82.7044
0
LINE
8
BLACK
6
CONTINUOUS
10
180.279
20
-82.7044
11
180.471
21
-82.9911
0
LINE
8
BLACK
6
CONTINUOUS
10
180.471
20
-82.9911
11
180.603
21
-83.3095
0
LINE
8
BLACK
6
CONTINUOUS
10
180.603
20
-83.3095
11
180.67
21
-83.6476
0
LINE
8
BLACK
6
CONTINUOUS
10
180.67
20
-83.6476
11
180.67
21
-83.9924
0
LINE
8
BLACK
6
CONTINUOUS
10
180.67
20
-83.9924
11
180.603
21
-84.3305
0
LINE
8
BLACK
6
CONTINUOUS
10
180.603
20
-84.3305
11
180.471
21
-84.6489
0
LINE
8
BLACK
6
CONTINUOUS
10
180.471
20
-84.6489
11
180.279
21
-84.9356
0
LINE
8
BLACK
6
CONTINUOUS
10
180.279
20
-84.9356
11
180.036
21
-85.1793
0
LINE
8
BLACK
6
CONTINUOUS
10
180.036
20
-85.1793
11
179.749
21
-85.3708
0
LINE
8
BLACK
6
CONTINUOUS
10
179.749
20
-85.3708
11
179.43
21
-85.5027
0
LINE
8
BLACK
6
CONTINUOUS
10
179.43
20
-85.5027
11
179.092
21
-85.57
0
LINE
8
BLACK
6
CONTINUOUS
10
179.092
20
-85.57
11
178.748
21
-85.57
0
LINE
8
BLACK
6
CONTINUOUS
10
178.748
20
-85.57
11
178.41
21
-85.5027
0
LINE
8
BLACK
6
CONTINUOUS
10
178.41
20
-85.5027
11
178.091
21
-85.3708
0
LINE
8
BLACK
6
CONTINUOUS
10
178.091
20
-85.3708
11
177.804
21
-85.1793
0
LINE
8
BLACK
6
CONTINUOUS
10
177.804
20
-85.1793
11
177.561
21
-84.9356
0
LINE
8
BLACK
6
CONTINUOUS
10
177.561
20
-84.9356
11
177.369
21
-84.6489
0
LINE
8
BLACK
6
CONTINUOUS
10
177.369
20
-84.6489
11
177.237
21
-84.3305
0
LINE
8
BLACK
6
CONTINUOUS
10
177.237
20
-84.3305
11
177.17
21
-83.9924
0
LINE
8
BLACK
6
CONTINUOUS
10
177.17
20
-83.9924
11
177.17
21
-83.6476
0
LINE
8
BLACK
6
CONTINUOUS
10
177.17
20
-83.6476
11
177.237
21
-83.3095
0
LINE
8
BLACK
6
CONTINUOUS
10
177.237
20
-83.3095
11
177.369
21
-82.9911
0
LINE
8
BLACK
6
CONTINUOUS
10
177.369
20
-82.9911
11
177.561
21
-82.7044
0
LINE
8
BLACK
6
CONTINUOUS
10
177.561
20
-82.7044
11
177.804
21
-82.4607
0
LINE
8
BLACK
6
CONTINUOUS
10
177.804
20
-82.4607
11
178.091
21
-82.2692
0
LINE
8
BLACK
6
CONTINUOUS
10
178.091
20
-82.2692
11
178.41
21
-82.1373
0
LINE
8
BLACK
6
CONTINUOUS
10
178.41
20
-82.1373
11
178.748
21
-82.07
0
LINE
8
BLACK
6
CONTINUOUS
10
178.748
20
-82.07
11
179.092
21
-82.07
0
LINE
8
BLACK
6
CONTINUOUS
10
179.092
20
-82.07
11
179.43
21
-82.1373
0
LINE
8
BLACK
6
CONTINUOUS
10
189.753
20
-62.69
11
189.753
21
-62.69
0
LINE
8
BLACK
6
CONTINUOUS
10
189.753
20
-62.69
11
189.772
21
-62.6918
0
LINE
8
BLACK
6
CONTINUOUS
10
189.772
20
-62.6918
11
189.795
21
-62.6989
0
LINE
8
BLACK
6
CONTINUOUS
10
189.795
20
-62.6989
11
189.817
21
-62.7106
0
LINE
8
BLACK
6
CONTINUOUS
10
189.817
20
-62.7106
11
189.836
21
-62.7262
0
LINE
8
BLACK
6
CONTINUOUS
10
189.836
20
-62.7262
11
189.84
21
-62.7309
0
LINE
8
BLACK
6
CONTINUOUS
10
189.84
20
-62.7309
11
191.854
21
-64.7452
0
LINE
8
BLACK
6
CONTINUOUS
10
191.854
20
-64.7452
11
191.859
21
-64.7491
0
LINE
8
BLACK
6
CONTINUOUS
10
191.859
20
-64.7491
11
191.863
21
-64.7539
0
LINE
8
BLACK
6
CONTINUOUS
10
191.863
20
-64.7539
11
191.863
21
-64.7539
0
LINE
8
BLACK
6
CONTINUOUS
10
191.863
20
-64.7539
11
191.874
21
-64.7681
0
LINE
8
BLACK
6
CONTINUOUS
10
191.874
20
-64.7681
11
191.886
21
-64.7899
0
LINE
8
BLACK
6
CONTINUOUS
10
191.886
20
-64.7899
11
191.893
21
-64.8134
0
LINE
8
BLACK
6
CONTINUOUS
10
191.893
20
-64.8134
11
191.895
21
-64.8318
0
LINE
8
BLACK
6
CONTINUOUS
10
191.895
20
-64.8318
11
191.895
21
-64.8318
0
LINE
8
BLACK
6
CONTINUOUS
10
191.895
20
-64.8318
11
191.896
21
-64.8379
0
LINE
8
BLACK
6
CONTINUOUS
10
191.896
20
-64.8379
11
191.895
21
-64.844
0
LINE
8
BLACK
6
CONTINUOUS
10
191.895
20
-64.844
11
191.895
21
-65.1982
0
LINE
8
BLACK
6
CONTINUOUS
10
191.895
20
-65.1982
11
192.018
21
-65.2227
0
LINE
8
BLACK
6
CONTINUOUS
10
192.018
20
-65.2227
11
192.173
21
-65.2867
0
LINE
8
BLACK
6
CONTINUOUS
10
192.173
20
-65.2867
11
192.312
21
-65.3798
0
LINE
8
BLACK
6
CONTINUOUS
10
192.312
20
-65.3798
11
192.43
21
-65.4982
0
LINE
8
BLACK
6
CONTINUOUS
10
192.43
20
-65.4982
11
192.523
21
-65.6374
0
LINE
8
BLACK
6
CONTINUOUS
10
192.523
20
-65.6374
11
192.587
21
-65.7921
0
LINE
8
BLACK
6
CONTINUOUS
10
192.587
20
-65.7921
11
192.62
21
-65.9563
0
LINE
8
BLACK
6
CONTINUOUS
10
192.62
20
-65.9563
11
192.62
21
-66.1237
0
LINE
8
BLACK
6
CONTINUOUS
10
192.62
20
-66.1237
11
192.587
21
-66.2879
0
LINE
8
BLACK
6
CONTINUOUS
10
192.587
20
-66.2879
11
192.523
21
-66.4426
0
LINE
8
BLACK
6
CONTINUOUS
10
192.523
20
-66.4426
11
192.43
21
-66.5818
0
LINE
8
BLACK
6
CONTINUOUS
10
192.43
20
-66.5818
11
192.312
21
-66.7002
0
LINE
8
BLACK
6
CONTINUOUS
10
192.312
20
-66.7002
11
192.173
21
-66.7933
0
LINE
8
BLACK
6
CONTINUOUS
10
192.173
20
-66.7933
11
192.018
21
-66.8573
0
LINE
8
BLACK
6
CONTINUOUS
10
192.018
20
-66.8573
11
191.854
21
-66.89
0
LINE
8
BLACK
6
CONTINUOUS
10
191.854
20
-66.89
11
191.686
21
-66.89
0
LINE
8
BLACK
6
CONTINUOUS
10
191.686
20
-66.89
11
191.522
21
-66.8573
0
LINE
8
BLACK
6
CONTINUOUS
10
191.522
20
-66.8573
11
191.367
21
-66.7933
0
LINE
8
BLACK
6
CONTINUOUS
10
191.367
20
-66.7933
11
191.228
21
-66.7002
0
LINE
8
BLACK
6
CONTINUOUS
10
191.228
20
-66.7002
11
191.11
21
-66.5818
0
LINE
8
BLACK
6
CONTINUOUS
10
191.11
20
-66.5818
11
191.017
21
-66.4426
0
LINE
8
BLACK
6
CONTINUOUS
10
191.017
20
-66.4426
11
190.953
21
-66.2879
0
LINE
8
BLACK
6
CONTINUOUS
10
190.953
20
-66.2879
11
190.92
21
-66.1237
0
LINE
8
BLACK
6
CONTINUOUS
10
190.92
20
-66.1237
11
190.92
21
-65.9563
0
LINE
8
BLACK
6
CONTINUOUS
10
190.92
20
-65.9563
11
190.953
21
-65.7921
0
LINE
8
BLACK
6
CONTINUOUS
10
190.953
20
-65.7921
11
191.017
21
-65.6374
0
LINE
8
BLACK
6
CONTINUOUS
10
191.017
20
-65.6374
11
191.11
21
-65.4982
0
LINE
8
BLACK
6
CONTINUOUS
10
191.11
20
-65.4982
11
191.228
21
-65.3798
0
LINE
8
BLACK
6
CONTINUOUS
10
191.228
20
-65.3798
11
191.367
21
-65.2867
0
LINE
8
BLACK
6
CONTINUOUS
10
191.367
20
-65.2867
11
191.522
21
-65.2227
0
LINE
8
BLACK
6
CONTINUOUS
10
191.522
20
-65.2227
11
191.645
21
-65.1982
0
LINE
8
BLACK
6
CONTINUOUS
10
191.645
20
-65.1982
11
191.645
21
-64.8897
0
LINE
8
BLACK
6
CONTINUOUS
10
191.645
20
-64.8897
11
189.695
21
-62.94
0
LINE
8
BLACK
6
CONTINUOUS
10
189.695
20
-62.94
11
166.798
21
-62.94
0
LINE
8
BLACK
6
CONTINUOUS
10
166.798
20
-62.94
11
163.3
21
-66.4378
0
LINE
8
BLACK
6
CONTINUOUS
10
163.3
20
-66.4378
11
163.3
21
-80.8822
0
LINE
8
BLACK
6
CONTINUOUS
10
163.3
20
-80.8822
11
164.47
21
-82.0525
0
LINE
8
BLACK
6
CONTINUOUS
10
164.47
20
-82.0525
11
164.479
21
-82.04
0
LINE
8
BLACK
6
CONTINUOUS
10
164.479
20
-82.04
11
164.59
21
-81.9286
0
LINE
8
BLACK
6
CONTINUOUS
10
164.59
20
-81.9286
11
164.721
21
-81.841
0
LINE
8
BLACK
6
CONTINUOUS
10
164.721
20
-81.841
11
164.867
21
-81.7807
0
LINE
8
BLACK
6
CONTINUOUS
10
164.867
20
-81.7807
11
165.021
21
-81.75
0
LINE
8
BLACK
6
CONTINUOUS
10
165.021
20
-81.75
11
165.179
21
-81.75
0
LINE
8
BLACK
6
CONTINUOUS
10
165.179
20
-81.75
11
165.333
21
-81.7807
0
LINE
8
BLACK
6
CONTINUOUS
10
165.333
20
-81.7807
11
165.479
21
-81.841
0
LINE
8
BLACK
6
CONTINUOUS
10
165.479
20
-81.841
11
165.61
21
-81.9286
0
LINE
8
BLACK
6
CONTINUOUS
10
165.61
20
-81.9286
11
165.721
21
-82.04
0
LINE
8
BLACK
6
CONTINUOUS
10
165.721
20
-82.04
11
165.809
21
-82.1711
0
LINE
8
BLACK
6
CONTINUOUS
10
165.809
20
-82.1711
11
165.869
21
-82.3166
0
LINE
8
BLACK
6
CONTINUOUS
10
165.869
20
-82.3166
11
165.9
21
-82.4712
0
LINE
8
BLACK
6
CONTINUOUS
10
165.9
20
-82.4712
11
165.9
21
-82.6288
0
LINE
8
BLACK
6
CONTINUOUS
10
165.9
20
-82.6288
11
165.869
21
-82.7834
0
LINE
8
BLACK
6
CONTINUOUS
10
165.869
20
-82.7834
11
165.809
21
-82.9289
0
LINE
8
BLACK
6
CONTINUOUS
10
165.809
20
-82.9289
11
165.721
21
-83.06
0
LINE
8
BLACK
6
CONTINUOUS
10
165.721
20
-83.06
11
165.61
21
-83.1714
0
LINE
8
BLACK
6
CONTINUOUS
10
165.61
20
-83.1714
11
165.479
21
-83.259
0
LINE
8
BLACK
6
CONTINUOUS
10
165.479
20
-83.259
11
165.333
21
-83.3193
0
LINE
8
BLACK
6
CONTINUOUS
10
165.333
20
-83.3193
11
165.179
21
-83.35
0
LINE
8
BLACK
6
CONTINUOUS
10
165.179
20
-83.35
11
165.021
21
-83.35
0
LINE
8
BLACK
6
CONTINUOUS
10
165.021
20
-83.35
11
164.867
21
-83.3193
0
LINE
8
BLACK
6
CONTINUOUS
10
164.867
20
-83.3193
11
164.721
21
-83.259
0
LINE
8
BLACK
6
CONTINUOUS
10
164.721
20
-83.259
11
164.59
21
-83.1714
0
LINE
8
BLACK
6
CONTINUOUS
10
164.59
20
-83.1714
11
164.479
21
-83.06
0
LINE
8
BLACK
6
CONTINUOUS
10
164.479
20
-83.06
11
164.391
21
-82.9289
0
LINE
8
BLACK
6
CONTINUOUS
10
164.391
20
-82.9289
11
164.331
21
-82.7834
0
LINE
8
BLACK
6
CONTINUOUS
10
164.331
20
-82.7834
11
164.3
21
-82.6288
0
LINE
8
BLACK
6
CONTINUOUS
10
164.3
20
-82.6288
11
164.3
21
-82.4712
0
LINE
8
BLACK
6
CONTINUOUS
10
164.3
20
-82.4712
11
164.331
21
-82.3166
0
LINE
8
BLACK
6
CONTINUOUS
10
164.331
20
-82.3166
11
164.345
21
-82.2812
0
LINE
8
BLACK
6
CONTINUOUS
10
164.345
20
-82.2812
11
163.091
21
-81.0267
0
LINE
8
BLACK
6
CONTINUOUS
10
163.091
20
-81.0267
11
163.086
21
-81.0228
0
LINE
8
BLACK
6
CONTINUOUS
10
163.086
20
-81.0228
11
163.071
21
-81.0038
0
LINE
8
BLACK
6
CONTINUOUS
10
163.071
20
-81.0038
11
163.059
21
-80.9821
0
LINE
8
BLACK
6
CONTINUOUS
10
163.059
20
-80.9821
11
163.052
21
-80.9585
0
LINE
8
BLACK
6
CONTINUOUS
10
163.052
20
-80.9585
11
163.05
21
-80.9401
0
LINE
8
BLACK
6
CONTINUOUS
10
163.05
20
-80.9401
11
163.05
21
-80.9401
0
LINE
8
BLACK
6
CONTINUOUS
10
163.05
20
-80.9401
11
163.049
21
-80.934
0
LINE
8
BLACK
6
CONTINUOUS
10
163.049
20
-80.934
11
163.05
21
-80.9279
0
LINE
8
BLACK
6
CONTINUOUS
10
163.05
20
-80.9279
11
163.05
21
-66.3921
0
LINE
8
BLACK
6
CONTINUOUS
10
163.05
20
-66.3921
11
163.049
21
-66.386
0
LINE
8
BLACK
6
CONTINUOUS
10
163.049
20
-66.386
11
163.052
21
-66.3615
0
LINE
8
BLACK
6
CONTINUOUS
10
163.052
20
-66.3615
11
163.059
21
-66.3379
0
LINE
8
BLACK
6
CONTINUOUS
10
163.059
20
-66.3379
11
163.071
21
-66.3162
0
LINE
8
BLACK
6
CONTINUOUS
10
163.071
20
-66.3162
11
163.082
21
-66.3019
0
LINE
8
BLACK
6
CONTINUOUS
10
163.082
20
-66.3019
11
163.082
21
-66.3019
0
LINE
8
BLACK
6
CONTINUOUS
10
163.082
20
-66.3019
11
163.086
21
-66.2972
0
LINE
8
BLACK
6
CONTINUOUS
10
163.086
20
-66.2972
11
163.091
21
-66.2933
0
LINE
8
BLACK
6
CONTINUOUS
10
163.091
20
-66.2933
11
166.653
21
-62.7309
0
LINE
8
BLACK
6
CONTINUOUS
10
166.653
20
-62.7309
11
166.657
21
-62.7262
0
LINE
8
BLACK
6
CONTINUOUS
10
166.657
20
-62.7262
11
166.662
21
-62.7223
0
LINE
8
BLACK
6
CONTINUOUS
10
166.662
20
-62.7223
11
166.676
21
-62.7106
0
LINE
8
BLACK
6
CONTINUOUS
10
166.676
20
-62.7106
11
166.698
21
-62.6989
0
LINE
8
BLACK
6
CONTINUOUS
10
166.698
20
-62.6989
11
166.722
21
-62.6918
0
LINE
8
BLACK
6
CONTINUOUS
10
166.722
20
-62.6918
11
166.74
21
-62.69
0
LINE
8
BLACK
6
CONTINUOUS
10
166.74
20
-62.69
11
166.74
21
-62.69
0
LINE
8
BLACK
6
CONTINUOUS
10
166.74
20
-62.69
11
166.746
21
-62.6894
0
LINE
8
BLACK
6
CONTINUOUS
10
166.746
20
-62.6894
11
166.752
21
-62.69
0
LINE
8
BLACK
6
CONTINUOUS
10
166.752
20
-62.69
11
189.741
21
-62.69
0
LINE
8
BLACK
6
CONTINUOUS
10
189.741
20
-62.69
11
189.747
21
-62.6894
0
LINE
8
BLACK
6
CONTINUOUS
10
189.747
20
-62.6894
11
189.753
21
-62.69
0
LINE
8
BLACK
6
CONTINUOUS
10
150.093
20
-81.7807
11
150.239
21
-81.841
0
LINE
8
BLACK
6
CONTINUOUS
10
150.239
20
-81.841
11
150.37
21
-81.9286
0
LINE
8
BLACK
6
CONTINUOUS
10
150.37
20
-81.9286
11
150.481
21
-82.04
0
LINE
8
BLACK
6
CONTINUOUS
10
150.481
20
-82.04
11
150.569
21
-82.1711
0
LINE
8
BLACK
6
CONTINUOUS
10
150.569
20
-82.1711
11
150.629
21
-82.3166
0
LINE
8
BLACK
6
CONTINUOUS
10
150.629
20
-82.3166
11
150.66
21
-82.4712
0
LINE
8
BLACK
6
CONTINUOUS
10
150.66
20
-82.4712
11
150.66
21
-82.6288
0
LINE
8
BLACK
6
CONTINUOUS
10
150.66
20
-82.6288
11
150.629
21
-82.7834
0
LINE
8
BLACK
6
CONTINUOUS
10
150.629
20
-82.7834
11
150.569
21
-82.9289
0
LINE
8
BLACK
6
CONTINUOUS
10
150.569
20
-82.9289
11
150.481
21
-83.06
0
LINE
8
BLACK
6
CONTINUOUS
10
150.481
20
-83.06
11
150.37
21
-83.1714
0
LINE
8
BLACK
6
CONTINUOUS
10
150.37
20
-83.1714
11
150.239
21
-83.259
0
LINE
8
BLACK
6
CONTINUOUS
10
150.239
20
-83.259
11
150.093
21
-83.3193
0
LINE
8
BLACK
6
CONTINUOUS
10
150.093
20
-83.3193
11
149.939
21
-83.35
0
LINE
8
BLACK
6
CONTINUOUS
10
149.939
20
-83.35
11
149.781
21
-83.35
0
LINE
8
BLACK
6
CONTINUOUS
10
149.781
20
-83.35
11
149.627
21
-83.3193
0
LINE
8
BLACK
6
CONTINUOUS
10
149.627
20
-83.3193
11
149.481
21
-83.259
0
LINE
8
BLACK
6
CONTINUOUS
10
149.481
20
-83.259
11
149.35
21
-83.1714
0
LINE
8
BLACK
6
CONTINUOUS
10
149.35
20
-83.1714
11
149.239
21
-83.06
0
LINE
8
BLACK
6
CONTINUOUS
10
149.239
20
-83.06
11
149.151
21
-82.9289
0
LINE
8
BLACK
6
CONTINUOUS
10
149.151
20
-82.9289
11
149.091
21
-82.7834
0
LINE
8
BLACK
6
CONTINUOUS
10
149.091
20
-82.7834
11
149.06
21
-82.6288
0
LINE
8
BLACK
6
CONTINUOUS
10
149.06
20
-82.6288
11
149.06
21
-82.4712
0
LINE
8
BLACK
6
CONTINUOUS
10
149.06
20
-82.4712
11
149.091
21
-82.3166
0
LINE
8
BLACK
6
CONTINUOUS
10
149.091
20
-82.3166
11
149.151
21
-82.1711
0
LINE
8
BLACK
6
CONTINUOUS
10
149.151
20
-82.1711
11
149.239
21
-82.04
0
LINE
8
BLACK
6
CONTINUOUS
10
149.239
20
-82.04
11
149.35
21
-81.9286
0
LINE
8
BLACK
6
CONTINUOUS
10
149.35
20
-81.9286
11
149.481
21
-81.841
0
LINE
8
BLACK
6
CONTINUOUS
10
149.481
20
-81.841
11
149.627
21
-81.7807
0
LINE
8
BLACK
6
CONTINUOUS
10
149.627
20
-81.7807
11
149.781
21
-81.75
0
LINE
8
BLACK
6
CONTINUOUS
10
149.781
20
-81.75
11
149.939
21
-81.75
0
LINE
8
BLACK
6
CONTINUOUS
10
149.939
20
-81.75
11
150.093
21
-81.7807
0
LINE
8
BLACK
6
CONTINUOUS
10
189.478
20
-65.2227
11
189.633
21
-65.2867
0
LINE
8
BLACK
6
CONTINUOUS
10
189.633
20
-65.2867
11
189.772
21
-65.3798
0
LINE
8
BLACK
6
CONTINUOUS
10
189.772
20
-65.3798
11
189.89
21
-65.4982
0
LINE
8
BLACK
6
CONTINUOUS
10
189.89
20
-65.4982
11
189.983
21
-65.6374
0
LINE
8
BLACK
6
CONTINUOUS
10
189.983
20
-65.6374
11
190.047
21
-65.7921
0
LINE
8
BLACK
6
CONTINUOUS
10
190.047
20
-65.7921
11
190.08
21
-65.9563
0
LINE
8
BLACK
6
CONTINUOUS
10
190.08
20
-65.9563
11
190.08
21
-66.1237
0
LINE
8
BLACK
6
CONTINUOUS
10
190.08
20
-66.1237
11
190.047
21
-66.2879
0
LINE
8
BLACK
6
CONTINUOUS
10
190.047
20
-66.2879
11
189.983
21
-66.4426
0
LINE
8
BLACK
6
CONTINUOUS
10
189.983
20
-66.4426
11
189.89
21
-66.5818
0
LINE
8
BLACK
6
CONTINUOUS
10
189.89
20
-66.5818
11
189.772
21
-66.7002
0
LINE
8
BLACK
6
CONTINUOUS
10
189.772
20
-66.7002
11
189.633
21
-66.7933
0
LINE
8
BLACK
6
CONTINUOUS
10
189.633
20
-66.7933
11
189.478
21
-66.8573
0
LINE
8
BLACK
6
CONTINUOUS
10
189.478
20
-66.8573
11
189.355
21
-66.8818
0
LINE
8
BLACK
6
CONTINUOUS
10
189.355
20
-66.8818
11
189.355
21
-74.9239
0
LINE
8
BLACK
6
CONTINUOUS
10
189.355
20
-74.9239
11
189.356
21
-74.93
0
LINE
8
BLACK
6
CONTINUOUS
10
189.356
20
-74.93
11
189.355
21
-74.9361
0
LINE
8
BLACK
6
CONTINUOUS
10
189.355
20
-74.9361
11
189.355
21
-76.1282
0
LINE
8
BLACK
6
CONTINUOUS
10
189.355
20
-76.1282
11
194.382
21
-81.155
0
LINE
8
BLACK
6
CONTINUOUS
10
194.382
20
-81.155
11
194.588
21
-81.155
0
LINE
8
BLACK
6
CONTINUOUS
10
194.588
20
-81.155
11
194.594
21
-81.0933
0
LINE
8
BLACK
6
CONTINUOUS
10
194.594
20
-81.0933
11
194.648
21
-80.9137
0
LINE
8
BLACK
6
CONTINUOUS
10
194.648
20
-80.9137
11
194.737
21
-80.7483
0
LINE
8
BLACK
6
CONTINUOUS
10
194.737
20
-80.7483
11
194.856
21
-80.6032
0
LINE
8
BLACK
6
CONTINUOUS
10
194.856
20
-80.6032
11
195.001
21
-80.4842
0
LINE
8
BLACK
6
CONTINUOUS
10
195.001
20
-80.4842
11
195.166
21
-80.3957
0
LINE
8
BLACK
6
CONTINUOUS
10
195.166
20
-80.3957
11
195.346
21
-80.3413
0
LINE
8
BLACK
6
CONTINUOUS
10
195.346
20
-80.3413
11
195.486
21
-80.3275
0
LINE
8
BLACK
6
CONTINUOUS
10
195.486
20
-80.3275
11
195.674
21
-80.3275
0
LINE
8
BLACK
6
CONTINUOUS
10
195.674
20
-80.3275
11
195.814
21
-80.3413
0
LINE
8
BLACK
6
CONTINUOUS
10
195.814
20
-80.3413
11
195.994
21
-80.3957
0
LINE
8
BLACK
6
CONTINUOUS
10
195.994
20
-80.3957
11
196.159
21
-80.4842
0
LINE
8
BLACK
6
CONTINUOUS
10
196.159
20
-80.4842
11
196.304
21
-80.6032
0
LINE
8
BLACK
6
CONTINUOUS
10
196.304
20
-80.6032
11
196.423
21
-80.7483
0
LINE
8
BLACK
6
CONTINUOUS
10
196.423
20
-80.7483
11
196.512
21
-80.9137
0
LINE
8
BLACK
6
CONTINUOUS
10
196.512
20
-80.9137
11
196.566
21
-81.0933
0
LINE
8
BLACK
6
CONTINUOUS
10
196.566
20
-81.0933
11
196.585
21
-81.28
0
LINE
8
BLACK
6
CONTINUOUS
10
196.585
20
-81.28
11
196.566
21
-81.4667
0
LINE
8
BLACK
6
CONTINUOUS
10
196.566
20
-81.4667
11
196.512
21
-81.6463
0
LINE
8
BLACK
6
CONTINUOUS
10
196.512
20
-81.6463
11
196.423
21
-81.8117
0
LINE
8
BLACK
6
CONTINUOUS
10
196.423
20
-81.8117
11
196.304
21
-81.9568
0
LINE
8
BLACK
6
CONTINUOUS
10
196.304
20
-81.9568
11
196.159
21
-82.0758
0
LINE
8
BLACK
6
CONTINUOUS
10
196.159
20
-82.0758
11
195.994
21
-82.1643
0
LINE
8
BLACK
6
CONTINUOUS
10
195.994
20
-82.1643
11
195.814
21
-82.2187
0
LINE
8
BLACK
6
CONTINUOUS
10
195.814
20
-82.2187
11
195.674
21
-82.2325
0
LINE
8
BLACK
6
CONTINUOUS
10
195.674
20
-82.2325
11
195.486
21
-82.2325
0
LINE
8
BLACK
6
CONTINUOUS
10
195.486
20
-82.2325
11
195.346
21
-82.2187
0
LINE
8
BLACK
6
CONTINUOUS
10
195.346
20
-82.2187
11
195.166
21
-82.1643
0
LINE
8
BLACK
6
CONTINUOUS
10
195.166
20
-82.1643
11
195.001
21
-82.0758
0
LINE
8
BLACK
6
CONTINUOUS
10
195.001
20
-82.0758
11
194.856
21
-81.9568
0
LINE
8
BLACK
6
CONTINUOUS
10
194.856
20
-81.9568
11
194.737
21
-81.8117
0
LINE
8
BLACK
6
CONTINUOUS
10
194.737
20
-81.8117
11
194.648
21
-81.6463
0
LINE
8
BLACK
6
CONTINUOUS
10
194.648
20
-81.6463
11
194.594
21
-81.4667
0
LINE
8
BLACK
6
CONTINUOUS
10
194.594
20
-81.4667
11
194.588
21
-81.405
0
LINE
8
BLACK
6
CONTINUOUS
10
194.588
20
-81.405
11
194.336
21
-81.405
0
LINE
8
BLACK
6
CONTINUOUS
10
194.336
20
-81.405
11
194.33
21
-81.4056
0
LINE
8
BLACK
6
CONTINUOUS
10
194.33
20
-81.4056
11
194.324
21
-81.405
0
LINE
8
BLACK
6
CONTINUOUS
10
194.324
20
-81.405
11
194.324
21
-81.405
0
LINE
8
BLACK
6
CONTINUOUS
10
194.324
20
-81.405
11
194.305
21
-81.4032
0
LINE
8
BLACK
6
CONTINUOUS
10
194.305
20
-81.4032
11
194.282
21
-81.396
0
LINE
8
BLACK
6
CONTINUOUS
10
194.282
20
-81.396
11
194.26
21
-81.3844
0
LINE
8
BLACK
6
CONTINUOUS
10
194.26
20
-81.3844
11
194.246
21
-81.3727
0
LINE
8
BLACK
6
CONTINUOUS
10
194.246
20
-81.3727
11
194.246
21
-81.3727
0
LINE
8
BLACK
6
CONTINUOUS
10
194.246
20
-81.3727
11
194.241
21
-81.3688
0
LINE
8
BLACK
6
CONTINUOUS
10
194.241
20
-81.3688
11
194.237
21
-81.3641
0
LINE
8
BLACK
6
CONTINUOUS
10
194.237
20
-81.3641
11
189.146
21
-76.2727
0
LINE
8
BLACK
6
CONTINUOUS
10
189.146
20
-76.2727
11
189.141
21
-76.2688
0
LINE
8
BLACK
6
CONTINUOUS
10
189.141
20
-76.2688
11
189.137
21
-76.264
0
LINE
8
BLACK
6
CONTINUOUS
10
189.137
20
-76.264
11
189.126
21
-76.2498
0
LINE
8
BLACK
6
CONTINUOUS
10
189.126
20
-76.2498
11
189.114
21
-76.2281
0
LINE
8
BLACK
6
CONTINUOUS
10
189.114
20
-76.2281
11
189.107
21
-76.2045
0
LINE
8
BLACK
6
CONTINUOUS
10
189.107
20
-76.2045
11
189.104
21
-76.18
0
LINE
8
BLACK
6
CONTINUOUS
10
189.104
20
-76.18
11
189.105
21
-76.1739
0
LINE
8
BLACK
6
CONTINUOUS
10
189.105
20
-76.1739
11
189.105
21
-75.055
0
LINE
8
BLACK
6
CONTINUOUS
10
189.105
20
-75.055
11
165.891
21
-75.055
0
LINE
8
BLACK
6
CONTINUOUS
10
165.891
20
-75.055
11
165.869
21
-75.1634
0
LINE
8
BLACK
6
CONTINUOUS
10
165.869
20
-75.1634
11
165.809
21
-75.3089
0
LINE
8
BLACK
6
CONTINUOUS
10
165.809
20
-75.3089
11
165.721
21
-75.44
0
LINE
8
BLACK
6
CONTINUOUS
10
165.721
20
-75.44
11
165.61
21
-75.5514
0
LINE
8
BLACK
6
CONTINUOUS
10
165.61
20
-75.5514
11
165.479
21
-75.639
0
LINE
8
BLACK
6
CONTINUOUS
10
165.479
20
-75.639
11
165.333
21
-75.6993
0
LINE
8
BLACK
6
CONTINUOUS
10
165.333
20
-75.6993
11
165.179
21
-75.73
0
LINE
8
BLACK
6
CONTINUOUS
10
165.179
20
-75.73
11
165.021
21
-75.73
0
LINE
8
BLACK
6
CONTINUOUS
10
165.021
20
-75.73
11
164.867
21
-75.6993
0
LINE
8
BLACK
6
CONTINUOUS
10
164.867
20
-75.6993
11
164.721
21
-75.639
0
LINE
8
BLACK
6
CONTINUOUS
10
164.721
20
-75.639
11
164.59
21
-75.5514
0
LINE
8
BLACK
6
CONTINUOUS
10
164.59
20
-75.5514
11
164.479
21
-75.44
0
LINE
8
BLACK
6
CONTINUOUS
10
164.479
20
-75.44
11
164.391
21
-75.3089
0
LINE
8
BLACK
6
CONTINUOUS
10
164.391
20
-75.3089
11
164.331
21
-75.1634
0
LINE
8
BLACK
6
CONTINUOUS
10
164.331
20
-75.1634
11
164.3
21
-75.0088
0
LINE
8
BLACK
6
CONTINUOUS
10
164.3
20
-75.0088
11
164.3
21
-74.8512
0
LINE
8
BLACK
6
CONTINUOUS
10
164.3
20
-74.8512
11
164.331
21
-74.6966
0
LINE
8
BLACK
6
CONTINUOUS
10
164.331
20
-74.6966
11
164.391
21
-74.5511
0
LINE
8
BLACK
6
CONTINUOUS
10
164.391
20
-74.5511
11
164.479
21
-74.42
0
LINE
8
BLACK
6
CONTINUOUS
10
164.479
20
-74.42
11
164.59
21
-74.3086
0
LINE
8
BLACK
6
CONTINUOUS
10
164.59
20
-74.3086
11
164.721
21
-74.221
0
LINE
8
BLACK
6
CONTINUOUS
10
164.721
20
-74.221
11
164.867
21
-74.1607
0
LINE
8
BLACK
6
CONTINUOUS
10
164.867
20
-74.1607
11
165.021
21
-74.13
0
LINE
8
BLACK
6
CONTINUOUS
10
165.021
20
-74.13
11
165.179
21
-74.13
0
LINE
8
BLACK
6
CONTINUOUS
10
165.179
20
-74.13
11
165.333
21
-74.1607
0
LINE
8
BLACK
6
CONTINUOUS
10
165.333
20
-74.1607
11
165.479
21
-74.221
0
LINE
8
BLACK
6
CONTINUOUS
10
165.479
20
-74.221
11
165.61
21
-74.3086
0
LINE
8
BLACK
6
CONTINUOUS
10
165.61
20
-74.3086
11
165.721
21
-74.42
0
LINE
8
BLACK
6
CONTINUOUS
10
165.721
20
-74.42
11
165.809
21
-74.5511
0
LINE
8
BLACK
6
CONTINUOUS
10
165.809
20
-74.5511
11
165.869
21
-74.6966
0
LINE
8
BLACK
6
CONTINUOUS
10
165.869
20
-74.6966
11
165.891
21
-74.805
0
LINE
8
BLACK
6
CONTINUOUS
10
165.891
20
-74.805
11
189.105
21
-74.805
0
LINE
8
BLACK
6
CONTINUOUS
10
189.105
20
-74.805
11
189.105
21
-66.8818
0
LINE
8
BLACK
6
CONTINUOUS
10
189.105
20
-66.8818
11
188.982
21
-66.8573
0
LINE
8
BLACK
6
CONTINUOUS
10
188.982
20
-66.8573
11
188.827
21
-66.7933
0
LINE
8
BLACK
6
CONTINUOUS
10
188.827
20
-66.7933
11
188.688
21
-66.7002
0
LINE
8
BLACK
6
CONTINUOUS
10
188.688
20
-66.7002
11
188.57
21
-66.5818
0
LINE
8
BLACK
6
CONTINUOUS
10
188.57
20
-66.5818
11
188.477
21
-66.4426
0
LINE
8
BLACK
6
CONTINUOUS
10
188.477
20
-66.4426
11
188.413
21
-66.2879
0
LINE
8
BLACK
6
CONTINUOUS
10
188.413
20
-66.2879
11
188.38
21
-66.1237
0
LINE
8
BLACK
6
CONTINUOUS
10
188.38
20
-66.1237
11
188.38
21
-65.9563
0
LINE
8
BLACK
6
CONTINUOUS
10
188.38
20
-65.9563
11
188.413
21
-65.7921
0
LINE
8
BLACK
6
CONTINUOUS
10
188.413
20
-65.7921
11
188.477
21
-65.6374
0
LINE
8
BLACK
6
CONTINUOUS
10
188.477
20
-65.6374
11
188.57
21
-65.4982
0
LINE
8
BLACK
6
CONTINUOUS
10
188.57
20
-65.4982
11
188.688
21
-65.3798
0
LINE
8
BLACK
6
CONTINUOUS
10
188.688
20
-65.3798
11
188.827
21
-65.2867
0
LINE
8
BLACK
6
CONTINUOUS
10
188.827
20
-65.2867
11
188.982
21
-65.2227
0
LINE
8
BLACK
6
CONTINUOUS
10
188.982
20
-65.2227
11
189.146
21
-65.19
0
LINE
8
BLACK
6
CONTINUOUS
10
189.146
20
-65.19
11
189.314
21
-65.19
0
LINE
8
BLACK
6
CONTINUOUS
10
189.314
20
-65.19
11
189.478
21
-65.2227
0
LINE
8
BLACK
6
CONTINUOUS
10
150.093
20
-79.2407
11
150.239
21
-79.301
0
LINE
8
BLACK
6
CONTINUOUS
10
150.239
20
-79.301
11
150.37
21
-79.3886
0
LINE
8
BLACK
6
CONTINUOUS
10
150.37
20
-79.3886
11
150.481
21
-79.5
0
LINE
8
BLACK
6
CONTINUOUS
10
150.481
20
-79.5
11
150.569
21
-79.6311
0
LINE
8
BLACK
6
CONTINUOUS
10
150.569
20
-79.6311
11
150.629
21
-79.7766
0
LINE
8
BLACK
6
CONTINUOUS
10
150.629
20
-79.7766
11
150.66
21
-79.9312
0
LINE
8
BLACK
6
CONTINUOUS
10
150.66
20
-79.9312
11
150.66
21
-80.0888
0
LINE
8
BLACK
6
CONTINUOUS
10
150.66
20
-80.0888
11
150.629
21
-80.2434
0
LINE
8
BLACK
6
CONTINUOUS
10
150.629
20
-80.2434
11
150.569
21
-80.3889
0
LINE
8
BLACK
6
CONTINUOUS
10
150.569
20
-80.3889
11
150.481
21
-80.52
0
LINE
8
BLACK
6
CONTINUOUS
10
150.481
20
-80.52
11
150.37
21
-80.6314
0
LINE
8
BLACK
6
CONTINUOUS
10
150.37
20
-80.6314
11
150.239
21
-80.719
0
LINE
8
BLACK
6
CONTINUOUS
10
150.239
20
-80.719
11
150.093
21
-80.7793
0
LINE
8
BLACK
6
CONTINUOUS
10
150.093
20
-80.7793
11
149.939
21
-80.81
0
LINE
8
BLACK
6
CONTINUOUS
10
149.939
20
-80.81
11
149.781
21
-80.81
0
LINE
8
BLACK
6
CONTINUOUS
10
149.781
20
-80.81
11
149.627
21
-80.7793
0
LINE
8
BLACK
6
CONTINUOUS
10
149.627
20
-80.7793
11
149.481
21
-80.719
0
LINE
8
BLACK
6
CONTINUOUS
10
149.481
20
-80.719
11
149.35
21
-80.6314
0
LINE
8
BLACK
6
CONTINUOUS
10
149.35
20
-80.6314
11
149.239
21
-80.52
0
LINE
8
BLACK
6
CONTINUOUS
10
149.239
20
-80.52
11
149.151
21
-80.3889
0
LINE
8
BLACK
6
CONTINUOUS
10
149.151
20
-80.3889
11
149.091
21
-80.2434
0
LINE
8
BLACK
6
CONTINUOUS
10
149.091
20
-80.2434
11
149.06
21
-80.0888
0
LINE
8
BLACK
6
CONTINUOUS
10
149.06
20
-80.0888
11
149.06
21
-79.9312
0
LINE
8
BLACK
6
CONTINUOUS
10
149.06
20
-79.9312
11
149.091
21
-79.7766
0
LINE
8
BLACK
6
CONTINUOUS
10
149.091
20
-79.7766
11
149.151
21
-79.6311
0
LINE
8
BLACK
6
CONTINUOUS
10
149.151
20
-79.6311
11
149.239
21
-79.5
0
LINE
8
BLACK
6
CONTINUOUS
10
149.239
20
-79.5
11
149.35
21
-79.3886
0
LINE
8
BLACK
6
CONTINUOUS
10
149.35
20
-79.3886
11
149.481
21
-79.301
0
LINE
8
BLACK
6
CONTINUOUS
10
149.481
20
-79.301
11
149.627
21
-79.2407
0
LINE
8
BLACK
6
CONTINUOUS
10
149.627
20
-79.2407
11
149.781
21
-79.21
0
LINE
8
BLACK
6
CONTINUOUS
10
149.781
20
-79.21
11
149.939
21
-79.21
0
LINE
8
BLACK
6
CONTINUOUS
10
149.939
20
-79.21
11
150.093
21
-79.2407
0
LINE
8
BLACK
6
CONTINUOUS
10
165.333
20
-79.2407
11
165.479
21
-79.301
0
LINE
8
BLACK
6
CONTINUOUS
10
165.479
20
-79.301
11
165.61
21
-79.3886
0
LINE
8
BLACK
6
CONTINUOUS
10
165.61
20
-79.3886
11
165.721
21
-79.5
0
LINE
8
BLACK
6
CONTINUOUS
10
165.721
20
-79.5
11
165.809
21
-79.6311
0
LINE
8
BLACK
6
CONTINUOUS
10
165.809
20
-79.6311
11
165.869
21
-79.7766
0
LINE
8
BLACK
6
CONTINUOUS
10
165.869
20
-79.7766
11
165.9
21
-79.9312
0
LINE
8
BLACK
6
CONTINUOUS
10
165.9
20
-79.9312
11
165.9
21
-80.0888
0
LINE
8
BLACK
6
CONTINUOUS
10
165.9
20
-80.0888
11
165.869
21
-80.2434
0
LINE
8
BLACK
6
CONTINUOUS
10
165.869
20
-80.2434
11
165.809
21
-80.3889
0
LINE
8
BLACK
6
CONTINUOUS
10
165.809
20
-80.3889
11
165.721
21
-80.52
0
LINE
8
BLACK
6
CONTINUOUS
10
165.721
20
-80.52
11
165.61
21
-80.6314
0
LINE
8
BLACK
6
CONTINUOUS
10
165.61
20
-80.6314
11
165.479
21
-80.719
0
LINE
8
BLACK
6
CONTINUOUS
10
165.479
20
-80.719
11
165.333
21
-80.7793
0
LINE
8
BLACK
6
CONTINUOUS
10
165.333
20
-80.7793
11
165.179
21
-80.81
0
LINE
8
BLACK
6
CONTINUOUS
10
165.179
20
-80.81
11
165.021
21
-80.81
0
LINE
8
BLACK
6
CONTINUOUS
10
165.021
20
-80.81
11
164.867
21
-80.7793
0
LINE
8
BLACK
6
CONTINUOUS
10
164.867
20
-80.7793
11
164.721
21
-80.719
0
LINE
8
BLACK
6
CONTINUOUS
10
164.721
20
-80.719
11
164.59
21
-80.6314
0
LINE
8
BLACK
6
CONTINUOUS
10
164.59
20
-80.6314
11
164.479
21
-80.52
0
LINE
8
BLACK
6
CONTINUOUS
10
164.479
20
-80.52
11
164.391
21
-80.3889
0
LINE
8
BLACK
6
CONTINUOUS
10
164.391
20
-80.3889
11
164.331
21
-80.2434
0
LINE
8
BLACK
6
CONTINUOUS
10
164.331
20
-80.2434
11
164.3
21
-80.0888
0
LINE
8
BLACK
6
CONTINUOUS
10
164.3
20
-80.0888
11
164.3
21
-79.9312
0
LINE
8
BLACK
6
CONTINUOUS
10
164.3
20
-79.9312
11
164.331
21
-79.7766
0
LINE
8
BLACK
6
CONTINUOUS
10
164.331
20
-79.7766
11
164.391
21
-79.6311
0
LINE
8
BLACK
6
CONTINUOUS
10
164.391
20
-79.6311
11
164.479
21
-79.5
0
LINE
8
BLACK
6
CONTINUOUS
10
164.479
20
-79.5
11
164.59
21
-79.3886
0
LINE
8
BLACK
6
CONTINUOUS
10
164.59
20
-79.3886
11
164.721
21
-79.301
0
LINE
8
BLACK
6
CONTINUOUS
10
164.721
20
-79.301
11
164.867
21
-79.2407
0
LINE
8
BLACK
6
CONTINUOUS
10
164.867
20
-79.2407
11
165.021
21
-79.21
0
LINE
8
BLACK
6
CONTINUOUS
10
165.021
20
-79.21
11
165.179
21
-79.21
0
LINE
8
BLACK
6
CONTINUOUS
10
165.179
20
-79.21
11
165.333
21
-79.2407
0
LINE
8
BLACK
6
CONTINUOUS
10
150.093
20
-76.7007
11
150.239
21
-76.761
0
LINE
8
BLACK
6
CONTINUOUS
10
150.239
20
-76.761
11
150.37
21
-76.8486
0
LINE
8
BLACK
6
CONTINUOUS
10
150.37
20
-76.8486
11
150.481
21
-76.96
0
LINE
8
BLACK
6
CONTINUOUS
10
150.481
20
-76.96
11
150.569
21
-77.0911
0
LINE
8
BLACK
6
CONTINUOUS
10
150.569
20
-77.0911
11
150.629
21
-77.2366
0
LINE
8
BLACK
6
CONTINUOUS
10
150.629
20
-77.2366
11
150.66
21
-77.3912
0
LINE
8
BLACK
6
CONTINUOUS
10
150.66
20
-77.3912
11
150.66
21
-77.5488
0
LINE
8
BLACK
6
CONTINUOUS
10
150.66
20
-77.5488
11
150.629
21
-77.7034
0
LINE
8
BLACK
6
CONTINUOUS
10
150.629
20
-77.7034
11
150.569
21
-77.8489
0
LINE
8
BLACK
6
CONTINUOUS
10
150.569
20
-77.8489
11
150.481
21
-77.98
0
LINE
8
BLACK
6
CONTINUOUS
10
150.481
20
-77.98
11
150.37
21
-78.0914
0
LINE
8
BLACK
6
CONTINUOUS
10
150.37
20
-78.0914
11
150.239
21
-78.179
0
LINE
8
BLACK
6
CONTINUOUS
10
150.239
20
-78.179
11
150.093
21
-78.2393
0
LINE
8
BLACK
6
CONTINUOUS
10
150.093
20
-78.2393
11
149.939
21
-78.27
0
LINE
8
BLACK
6
CONTINUOUS
10
149.939
20
-78.27
11
149.781
21
-78.27
0
LINE
8
BLACK
6
CONTINUOUS
10
149.781
20
-78.27
11
149.627
21
-78.2393
0
LINE
8
BLACK
6
CONTINUOUS
10
149.627
20
-78.2393
11
149.481
21
-78.179
0
LINE
8
BLACK
6
CONTINUOUS
10
149.481
20
-78.179
11
149.35
21
-78.0914
0
LINE
8
BLACK
6
CONTINUOUS
10
149.35
20
-78.0914
11
149.239
21
-77.98
0
LINE
8
BLACK
6
CONTINUOUS
10
149.239
20
-77.98
11
149.151
21
-77.8489
0
LINE
8
BLACK
6
CONTINUOUS
10
149.151
20
-77.8489
11
149.091
21
-77.7034
0
LINE
8
BLACK
6
CONTINUOUS
10
149.091
20
-77.7034
11
149.06
21
-77.5488
0
LINE
8
BLACK
6
CONTINUOUS
10
149.06
20
-77.5488
11
149.06
21
-77.3912
0
LINE
8
BLACK
6
CONTINUOUS
10
149.06
20
-77.3912
11
149.091
21
-77.2366
0
LINE
8
BLACK
6
CONTINUOUS
10
149.091
20
-77.2366
11
149.151
21
-77.0911
0
LINE
8
BLACK
6
CONTINUOUS
10
149.151
20
-77.0911
11
149.239
21
-76.96
0
LINE
8
BLACK
6
CONTINUOUS
10
149.239
20
-76.96
11
149.35
21
-76.8486
0
LINE
8
BLACK
6
CONTINUOUS
10
149.35
20
-76.8486
11
149.481
21
-76.761
0
LINE
8
BLACK
6
CONTINUOUS
10
149.481
20
-76.761
11
149.627
21
-76.7007
0
LINE
8
BLACK
6
CONTINUOUS
10
149.627
20
-76.7007
11
149.781
21
-76.67
0
LINE
8
BLACK
6
CONTINUOUS
10
149.781
20
-76.67
11
149.939
21
-76.67
0
LINE
8
BLACK
6
CONTINUOUS
10
149.939
20
-76.67
11
150.093
21
-76.7007
0
LINE
8
BLACK
6
CONTINUOUS
10
165.333
20
-76.7007
11
165.479
21
-76.761
0
LINE
8
BLACK
6
CONTINUOUS
10
165.479
20
-76.761
11
165.61
21
-76.8486
0
LINE
8
BLACK
6
CONTINUOUS
10
165.61
20
-76.8486
11
165.721
21
-76.96
0
LINE
8
BLACK
6
CONTINUOUS
10
165.721
20
-76.96
11
165.809
21
-77.0911
0
LINE
8
BLACK
6
CONTINUOUS
10
165.809
20
-77.0911
11
165.869
21
-77.2366
0
LINE
8
BLACK
6
CONTINUOUS
10
165.869
20
-77.2366
11
165.9
21
-77.3912
0
LINE
8
BLACK
6
CONTINUOUS
10
165.9
20
-77.3912
11
165.9
21
-77.5488
0
LINE
8
BLACK
6
CONTINUOUS
10
165.9
20
-77.5488
11
165.869
21
-77.7034
0
LINE
8
BLACK
6
CONTINUOUS
10
165.869
20
-77.7034
11
165.809
21
-77.8489
0
LINE
8
BLACK
6
CONTINUOUS
10
165.809
20
-77.8489
11
165.721
21
-77.98
0
LINE
8
BLACK
6
CONTINUOUS
10
165.721
20
-77.98
11
165.61
21
-78.0914
0
LINE
8
BLACK
6
CONTINUOUS
10
165.61
20
-78.0914
11
165.479
21
-78.179
0
LINE
8
BLACK
6
CONTINUOUS
10
165.479
20
-78.179
11
165.333
21
-78.2393
0
LINE
8
BLACK
6
CONTINUOUS
10
165.333
20
-78.2393
11
165.179
21
-78.27
0
LINE
8
BLACK
6
CONTINUOUS
10
165.179
20
-78.27
11
165.021
21
-78.27
0
LINE
8
BLACK
6
CONTINUOUS
10
165.021
20
-78.27
11
164.867
21
-78.2393
0
LINE
8
BLACK
6
CONTINUOUS
10
164.867
20
-78.2393
11
164.721
21
-78.179
0
LINE
8
BLACK
6
CONTINUOUS
10
164.721
20
-78.179
11
164.59
21
-78.0914
0
LINE
8
BLACK
6
CONTINUOUS
10
164.59
20
-78.0914
11
164.479
21
-77.98
0
LINE
8
BLACK
6
CONTINUOUS
10
164.479
20
-77.98
11
164.391
21
-77.8489
0
LINE
8
BLACK
6
CONTINUOUS
10
164.391
20
-77.8489
11
164.331
21
-77.7034
0
LINE
8
BLACK
6
CONTINUOUS
10
164.331
20
-77.7034
11
164.3
21
-77.5488
0
LINE
8
BLACK
6
CONTINUOUS
10
164.3
20
-77.5488
11
164.3
21
-77.3912
0
LINE
8
BLACK
6
CONTINUOUS
10
164.3
20
-77.3912
11
164.331
21
-77.2366
0
LINE
8
BLACK
6
CONTINUOUS
10
164.331
20
-77.2366
11
164.391
21
-77.0911
0
LINE
8
BLACK
6
CONTINUOUS
10
164.391
20
-77.0911
11
164.479
21
-76.96
0
LINE
8
BLACK
6
CONTINUOUS
10
164.479
20
-76.96
11
164.59
21
-76.8486
0
LINE
8
BLACK
6
CONTINUOUS
10
164.59
20
-76.8486
11
164.721
21
-76.761
0
LINE
8
BLACK
6
CONTINUOUS
10
164.721
20
-76.761
11
164.867
21
-76.7007
0
LINE
8
BLACK
6
CONTINUOUS
10
164.867
20
-76.7007
11
165.021
21
-76.67
0
LINE
8
BLACK
6
CONTINUOUS
10
165.021
20
-76.67
11
165.179
21
-76.67
0
LINE
8
BLACK
6
CONTINUOUS
10
165.179
20
-76.67
11
165.333
21
-76.7007
0
LINE
8
BLACK
6
CONTINUOUS
10
165.333
20
-71.6207
11
165.479
21
-71.681
0
LINE
8
BLACK
6
CONTINUOUS
10
165.479
20
-71.681
11
165.61
21
-71.7686
0
LINE
8
BLACK
6
CONTINUOUS
10
165.61
20
-71.7686
11
165.721
21
-71.88
0
LINE
8
BLACK
6
CONTINUOUS
10
165.721
20
-71.88
11
165.809
21
-72.0111
0
LINE
8
BLACK
6
CONTINUOUS
10
165.809
20
-72.0111
11
165.869
21
-72.1566
0
LINE
8
BLACK
6
CONTINUOUS
10
165.869
20
-72.1566
11
165.9
21
-72.3112
0
LINE
8
BLACK
6
CONTINUOUS
10
165.9
20
-72.3112
11
165.9
21
-72.4688
0
LINE
8
BLACK
6
CONTINUOUS
10
165.9
20
-72.4688
11
165.869
21
-72.6234
0
LINE
8
BLACK
6
CONTINUOUS
10
165.869
20
-72.6234
11
165.809
21
-72.7689
0
LINE
8
BLACK
6
CONTINUOUS
10
165.809
20
-72.7689
11
165.721
21
-72.9
0
LINE
8
BLACK
6
CONTINUOUS
10
165.721
20
-72.9
11
165.61
21
-73.0114
0
LINE
8
BLACK
6
CONTINUOUS
10
165.61
20
-73.0114
11
165.479
21
-73.099
0
LINE
8
BLACK
6
CONTINUOUS
10
165.479
20
-73.099
11
165.333
21
-73.1593
0
LINE
8
BLACK
6
CONTINUOUS
10
165.333
20
-73.1593
11
165.179
21
-73.19
0
LINE
8
BLACK
6
CONTINUOUS
10
165.179
20
-73.19
11
165.021
21
-73.19
0
LINE
8
BLACK
6
CONTINUOUS
10
165.021
20
-73.19
11
164.867
21
-73.1593
0
LINE
8
BLACK
6
CONTINUOUS
10
164.867
20
-73.1593
11
164.721
21
-73.099
0
LINE
8
BLACK
6
CONTINUOUS
10
164.721
20
-73.099
11
164.59
21
-73.0114
0
LINE
8
BLACK
6
CONTINUOUS
10
164.59
20
-73.0114
11
164.479
21
-72.9
0
LINE
8
BLACK
6
CONTINUOUS
10
164.479
20
-72.9
11
164.391
21
-72.7689
0
LINE
8
BLACK
6
CONTINUOUS
10
164.391
20
-72.7689
11
164.331
21
-72.6234
0
LINE
8
BLACK
6
CONTINUOUS
10
164.331
20
-72.6234
11
164.3
21
-72.4688
0
LINE
8
BLACK
6
CONTINUOUS
10
164.3
20
-72.4688
11
164.3
21
-72.3112
0
LINE
8
BLACK
6
CONTINUOUS
10
164.3
20
-72.3112
11
164.331
21
-72.1566
0
LINE
8
BLACK
6
CONTINUOUS
10
164.331
20
-72.1566
11
164.391
21
-72.0111
0
LINE
8
BLACK
6
CONTINUOUS
10
164.391
20
-72.0111
11
164.479
21
-71.88
0
LINE
8
BLACK
6
CONTINUOUS
10
164.479
20
-71.88
11
164.59
21
-71.7686
0
LINE
8
BLACK
6
CONTINUOUS
10
164.59
20
-71.7686
11
164.721
21
-71.681
0
LINE
8
BLACK
6
CONTINUOUS
10
164.721
20
-71.681
11
164.867
21
-71.6207
0
LINE
8
BLACK
6
CONTINUOUS
10
164.867
20
-71.6207
11
165.021
21
-71.59
0
LINE
8
BLACK
6
CONTINUOUS
10
165.021
20
-71.59
11
165.179
21
-71.59
0
LINE
8
BLACK
6
CONTINUOUS
10
165.179
20
-71.59
11
165.333
21
-71.6207
0
LINE
8
BLACK
6
CONTINUOUS
10
150.093
20
-71.6207
11
150.239
21
-71.681
0
LINE
8
BLACK
6
CONTINUOUS
10
150.239
20
-71.681
11
150.37
21
-71.7686
0
LINE
8
BLACK
6
CONTINUOUS
10
150.37
20
-71.7686
11
150.481
21
-71.88
0
LINE
8
BLACK
6
CONTINUOUS
10
150.481
20
-71.88
11
150.569
21
-72.0111
0
LINE
8
BLACK
6
CONTINUOUS
10
150.569
20
-72.0111
11
150.629
21
-72.1566
0
LINE
8
BLACK
6
CONTINUOUS
10
150.629
20
-72.1566
11
150.66
21
-72.3112
0
LINE
8
BLACK
6
CONTINUOUS
10
150.66
20
-72.3112
11
150.66
21
-72.4688
0
LINE
8
BLACK
6
CONTINUOUS
10
150.66
20
-72.4688
11
150.629
21
-72.6234
0
LINE
8
BLACK
6
CONTINUOUS
10
150.629
20
-72.6234
11
150.569
21
-72.7689
0
LINE
8
BLACK
6
CONTINUOUS
10
150.569
20
-72.7689
11
150.481
21
-72.9
0
LINE
8
BLACK
6
CONTINUOUS
10
150.481
20
-72.9
11
150.37
21
-73.0114
0
LINE
8
BLACK
6
CONTINUOUS
10
150.37
20
-73.0114
11
150.239
21
-73.099
0
LINE
8
BLACK
6
CONTINUOUS
10
150.239
20
-73.099
11
150.093
21
-73.1593
0
LINE
8
BLACK
6
CONTINUOUS
10
150.093
20
-73.1593
11
149.939
21
-73.19
0
LINE
8
BLACK
6
CONTINUOUS
10
149.939
20
-73.19
11
149.781
21
-73.19
0
LINE
8
BLACK
6
CONTINUOUS
10
149.781
20
-73.19
11
149.627
21
-73.1593
0
LINE
8
BLACK
6
CONTINUOUS
10
149.627
20
-73.1593
11
149.481
21
-73.099
0
LINE
8
BLACK
6
CONTINUOUS
10
149.481
20
-73.099
11
149.35
21
-73.0114
0
LINE
8
BLACK
6
CONTINUOUS
10
149.35
20
-73.0114
11
149.239
21
-72.9
0
LINE
8
BLACK
6
CONTINUOUS
10
149.239
20
-72.9
11
149.151
21
-72.7689
0
LINE
8
BLACK
6
CONTINUOUS
10
149.151
20
-72.7689
11
149.091
21
-72.6234
0
LINE
8
BLACK
6
CONTINUOUS
10
149.091
20
-72.6234
11
149.06
21
-72.4688
0
LINE
8
BLACK
6
CONTINUOUS
10
149.06
20
-72.4688
11
149.06
21
-72.3112
0
LINE
8
BLACK
6
CONTINUOUS
10
149.06
20
-72.3112
11
149.091
21
-72.1566
0
LINE
8
BLACK
6
CONTINUOUS
10
149.091
20
-72.1566
11
149.151
21
-72.0111
0
LINE
8
BLACK
6
CONTINUOUS
10
149.151
20
-72.0111
11
149.239
21
-71.88
0
LINE
8
BLACK
6
CONTINUOUS
10
149.239
20
-71.88
11
149.35
21
-71.7686
0
LINE
8
BLACK
6
CONTINUOUS
10
149.35
20
-71.7686
11
149.481
21
-71.681
0
LINE
8
BLACK
6
CONTINUOUS
10
149.481
20
-71.681
11
149.627
21
-71.6207
0
LINE
8
BLACK
6
CONTINUOUS
10
149.627
20
-71.6207
11
149.781
21
-71.59
0
LINE
8
BLACK
6
CONTINUOUS
10
149.781
20
-71.59
11
149.939
21
-71.59
0
LINE
8
BLACK
6
CONTINUOUS
10
149.939
20
-71.59
11
150.093
21
-71.6207
0
LINE
8
BLACK
6
CONTINUOUS
10
150.093
20
-69.0807
11
150.239
21
-69.141
0
LINE
8
BLACK
6
CONTINUOUS
10
150.239
20
-69.141
11
150.37
21
-69.2286
0
LINE
8
BLACK
6
CONTINUOUS
10
150.37
20
-69.2286
11
150.481
21
-69.34
0
LINE
8
BLACK
6
CONTINUOUS
10
150.481
20
-69.34
11
150.569
21
-69.4711
0
LINE
8
BLACK
6
CONTINUOUS
10
150.569
20
-69.4711
11
150.629
21
-69.6166
0
LINE
8
BLACK
6
CONTINUOUS
10
150.629
20
-69.6166
11
150.66
21
-69.7712
0
LINE
8
BLACK
6
CONTINUOUS
10
150.66
20
-69.7712
11
150.66
21
-69.9288
0
LINE
8
BLACK
6
CONTINUOUS
10
150.66
20
-69.9288
11
150.629
21
-70.0834
0
LINE
8
BLACK
6
CONTINUOUS
10
150.629
20
-70.0834
11
150.569
21
-70.2289
0
LINE
8
BLACK
6
CONTINUOUS
10
150.569
20
-70.2289
11
150.481
21
-70.36
0
LINE
8
BLACK
6
CONTINUOUS
10
150.481
20
-70.36
11
150.37
21
-70.4714
0
LINE
8
BLACK
6
CONTINUOUS
10
150.37
20
-70.4714
11
150.239
21
-70.559
0
LINE
8
BLACK
6
CONTINUOUS
10
150.239
20
-70.559
11
150.093
21
-70.6193
0
LINE
8
BLACK
6
CONTINUOUS
10
150.093
20
-70.6193
11
149.939
21
-70.65
0
LINE
8
BLACK
6
CONTINUOUS
10
149.939
20
-70.65
11
149.781
21
-70.65
0
LINE
8
BLACK
6
CONTINUOUS
10
149.781
20
-70.65
11
149.627
21
-70.6193
0
LINE
8
BLACK
6
CONTINUOUS
10
149.627
20
-70.6193
11
149.481
21
-70.559
0
LINE
8
BLACK
6
CONTINUOUS
10
149.481
20
-70.559
11
149.35
21
-70.4714
0
LINE
8
BLACK
6
CONTINUOUS
10
149.35
20
-70.4714
11
149.239
21
-70.36
0
LINE
8
BLACK
6
CONTINUOUS
10
149.239
20
-70.36
11
149.151
21
-70.2289
0
LINE
8
BLACK
6
CONTINUOUS
10
149.151
20
-70.2289
11
149.091
21
-70.0834
0
LINE
8
BLACK
6
CONTINUOUS
10
149.091
20
-70.0834
11
149.06
21
-69.9288
0
LINE
8
BLACK
6
CONTINUOUS
10
149.06
20
-69.9288
11
149.06
21
-69.7712
0
LINE
8
BLACK
6
CONTINUOUS
10
149.06
20
-69.7712
11
149.091
21
-69.6166
0
LINE
8
BLACK
6
CONTINUOUS
10
149.091
20
-69.6166
11
149.151
21
-69.4711
0
LINE
8
BLACK
6
CONTINUOUS
10
149.151
20
-69.4711
11
149.239
21
-69.34
0
LINE
8
BLACK
6
CONTINUOUS
10
149.239
20
-69.34
11
149.35
21
-69.2286
0
LINE
8
BLACK
6
CONTINUOUS
10
149.35
20
-69.2286
11
149.481
21
-69.141
0
LINE
8
BLACK
6
CONTINUOUS
10
149.481
20
-69.141
11
149.627
21
-69.0807
0
LINE
8
BLACK
6
CONTINUOUS
10
149.627
20
-69.0807
11
149.781
21
-69.05
0
LINE
8
BLACK
6
CONTINUOUS
10
149.781
20
-69.05
11
149.939
21
-69.05
0
LINE
8
BLACK
6
CONTINUOUS
10
149.939
20
-69.05
11
150.093
21
-69.0807
0
LINE
8
BLACK
6
CONTINUOUS
10
187.54
20
-66.89
11
186.815
21
-66.89
0
LINE
8
BLACK
6
CONTINUOUS
10
186.815
20
-66.89
11
186.815
21
-67.1339
0
LINE
8
BLACK
6
CONTINUOUS
10
186.815
20
-67.1339
11
186.816
21
-67.14
0
LINE
8
BLACK
6
CONTINUOUS
10
186.816
20
-67.14
11
186.815
21
-67.1461
0
LINE
8
BLACK
6
CONTINUOUS
10
186.815
20
-67.1461
11
186.815
21
-67.1461
0
LINE
8
BLACK
6
CONTINUOUS
10
186.815
20
-67.1461
11
186.813
21
-67.1645
0
LINE
8
BLACK
6
CONTINUOUS
10
186.813
20
-67.1645
11
186.806
21
-67.1881
0
LINE
8
BLACK
6
CONTINUOUS
10
186.806
20
-67.1881
11
186.806
21
-67.1881
0
LINE
8
BLACK
6
CONTINUOUS
10
186.806
20
-67.1881
11
186.794
21
-67.2098
0
LINE
8
BLACK
6
CONTINUOUS
10
186.794
20
-67.2098
11
186.783
21
-67.2241
0
LINE
8
BLACK
6
CONTINUOUS
10
186.783
20
-67.2241
11
186.779
21
-67.2288
0
LINE
8
BLACK
6
CONTINUOUS
10
186.779
20
-67.2288
11
186.774
21
-67.2327
0
LINE
8
BLACK
6
CONTINUOUS
10
186.774
20
-67.2327
11
184.073
21
-69.934
0
LINE
8
BLACK
6
CONTINUOUS
10
184.073
20
-69.934
11
184.069
21
-69.9388
0
LINE
8
BLACK
6
CONTINUOUS
10
184.069
20
-69.9388
11
184.05
21
-69.9544
0
LINE
8
BLACK
6
CONTINUOUS
10
184.05
20
-69.9544
11
184.028
21
-69.966
0
LINE
8
BLACK
6
CONTINUOUS
10
184.028
20
-69.966
11
184.005
21
-69.9732
0
LINE
8
BLACK
6
CONTINUOUS
10
184.005
20
-69.9732
11
183.986
21
-69.975
0
LINE
8
BLACK
6
CONTINUOUS
10
183.986
20
-69.975
11
183.986
21
-69.975
0
LINE
8
BLACK
6
CONTINUOUS
10
183.986
20
-69.975
11
183.98
21
-69.9756
0
LINE
8
BLACK
6
CONTINUOUS
10
183.98
20
-69.9756
11
183.974
21
-69.975
0
LINE
8
BLACK
6
CONTINUOUS
10
183.974
20
-69.975
11
165.891
21
-69.975
0
LINE
8
BLACK
6
CONTINUOUS
10
165.891
20
-69.975
11
165.869
21
-70.0834
0
LINE
8
BLACK
6
CONTINUOUS
10
165.869
20
-70.0834
11
165.809
21
-70.2289
0
LINE
8
BLACK
6
CONTINUOUS
10
165.809
20
-70.2289
11
165.721
21
-70.36
0
LINE
8
BLACK
6
CONTINUOUS
10
165.721
20
-70.36
11
165.61
21
-70.4714
0
LINE
8
BLACK
6
CONTINUOUS
10
165.61
20
-70.4714
11
165.479
21
-70.559
0
LINE
8
BLACK
6
CONTINUOUS
10
165.479
20
-70.559
11
165.333
21
-70.6193
0
LINE
8
BLACK
6
CONTINUOUS
10
165.333
20
-70.6193
11
165.179
21
-70.65
0
LINE
8
BLACK
6
CONTINUOUS
10
165.179
20
-70.65
11
165.021
21
-70.65
0
LINE
8
BLACK
6
CONTINUOUS
10
165.021
20
-70.65
11
164.867
21
-70.6193
0
LINE
8
BLACK
6
CONTINUOUS
10
164.867
20
-70.6193
11
164.721
21
-70.559
0
LINE
8
BLACK
6
CONTINUOUS
10
164.721
20
-70.559
11
164.59
21
-70.4714
0
LINE
8
BLACK
6
CONTINUOUS
10
164.59
20
-70.4714
11
164.479
21
-70.36
0
LINE
8
BLACK
6
CONTINUOUS
10
164.479
20
-70.36
11
164.391
21
-70.2289
0
LINE
8
BLACK
6
CONTINUOUS
10
164.391
20
-70.2289
11
164.331
21
-70.0834
0
LINE
8
BLACK
6
CONTINUOUS
10
164.331
20
-70.0834
11
164.3
21
-69.9288
0
LINE
8
BLACK
6
CONTINUOUS
10
164.3
20
-69.9288
11
164.3
21
-69.7712
0
LINE
8
BLACK
6
CONTINUOUS
10
164.3
20
-69.7712
11
164.331
21
-69.6166
0
LINE
8
BLACK
6
CONTINUOUS
10
164.331
20
-69.6166
11
164.391
21
-69.4711
0
LINE
8
BLACK
6
CONTINUOUS
10
164.391
20
-69.4711
11
164.479
21
-69.34
0
LINE
8
BLACK
6
CONTINUOUS
10
164.479
20
-69.34
11
164.59
21
-69.2286
0
LINE
8
BLACK
6
CONTINUOUS
10
164.59
20
-69.2286
11
164.721
21
-69.141
0
LINE
8
BLACK
6
CONTINUOUS
10
164.721
20
-69.141
11
164.867
21
-69.0807
0
LINE
8
BLACK
6
CONTINUOUS
10
164.867
20
-69.0807
11
165.021
21
-69.05
0
LINE
8
BLACK
6
CONTINUOUS
10
165.021
20
-69.05
11
165.179
21
-69.05
0
LINE
8
BLACK
6
CONTINUOUS
10
165.179
20
-69.05
11
165.333
21
-69.0807
0
LINE
8
BLACK
6
CONTINUOUS
10
165.333
20
-69.0807
11
165.479
21
-69.141
0
LINE
8
BLACK
6
CONTINUOUS
10
165.479
20
-69.141
11
165.61
21
-69.2286
0
LINE
8
BLACK
6
CONTINUOUS
10
165.61
20
-69.2286
11
165.721
21
-69.34
0
LINE
8
BLACK
6
CONTINUOUS
10
165.721
20
-69.34
11
165.809
21
-69.4711
0
LINE
8
BLACK
6
CONTINUOUS
10
165.809
20
-69.4711
11
165.869
21
-69.6166
0
LINE
8
BLACK
6
CONTINUOUS
10
165.869
20
-69.6166
11
165.891
21
-69.725
0
LINE
8
BLACK
6
CONTINUOUS
10
165.891
20
-69.725
11
183.928
21
-69.725
0
LINE
8
BLACK
6
CONTINUOUS
10
183.928
20
-69.725
11
186.565
21
-67.0882
0
LINE
8
BLACK
6
CONTINUOUS
10
186.565
20
-67.0882
11
186.565
21
-66.89
0
LINE
8
BLACK
6
CONTINUOUS
10
186.565
20
-66.89
11
185.84
21
-66.89
0
LINE
8
BLACK
6
CONTINUOUS
10
185.84
20
-66.89
11
185.84
21
-65.19
0
LINE
8
BLACK
6
CONTINUOUS
10
185.84
20
-65.19
11
187.54
21
-65.19
0
LINE
8
BLACK
6
CONTINUOUS
10
187.54
20
-65.19
11
187.54
21
-66.89
0
LINE
8
BLACK
6
CONTINUOUS
10
150.66
20
-68.11
11
149.06
21
-68.11
0
LINE
8
BLACK
6
CONTINUOUS
10
149.06
20
-68.11
11
149.06
21
-66.51
0
LINE
8
BLACK
6
CONTINUOUS
10
149.06
20
-66.51
11
150.66
21
-66.51
0
LINE
8
BLACK
6
CONTINUOUS
10
150.66
20
-66.51
11
150.66
21
-68.11
0
LINE
8
BLACK
6
CONTINUOUS
10
165.333
20
-66.5407
11
165.479
21
-66.601
0
LINE
8
BLACK
6
CONTINUOUS
10
165.479
20
-66.601
11
165.61
21
-66.6886
0
LINE
8
BLACK
6
CONTINUOUS
10
165.61
20
-66.6886
11
165.721
21
-66.8
0
LINE
8
BLACK
6
CONTINUOUS
10
165.721
20
-66.8
11
165.809
21
-66.9311
0
LINE
8
BLACK
6
CONTINUOUS
10
165.809
20
-66.9311
11
165.869
21
-67.0766
0
LINE
8
BLACK
6
CONTINUOUS
10
165.869
20
-67.0766
11
165.9
21
-67.2312
0
LINE
8
BLACK
6
CONTINUOUS
10
165.9
20
-67.2312
11
165.9
21
-67.3888
0
LINE
8
BLACK
6
CONTINUOUS
10
165.9
20
-67.3888
11
165.869
21
-67.5434
0
LINE
8
BLACK
6
CONTINUOUS
10
165.869
20
-67.5434
11
165.809
21
-67.6889
0
LINE
8
BLACK
6
CONTINUOUS
10
165.809
20
-67.6889
11
165.721
21
-67.82
0
LINE
8
BLACK
6
CONTINUOUS
10
165.721
20
-67.82
11
165.61
21
-67.9314
0
LINE
8
BLACK
6
CONTINUOUS
10
165.61
20
-67.9314
11
165.479
21
-68.019
0
LINE
8
BLACK
6
CONTINUOUS
10
165.479
20
-68.019
11
165.333
21
-68.0793
0
LINE
8
BLACK
6
CONTINUOUS
10
165.333
20
-68.0793
11
165.179
21
-68.11
0
LINE
8
BLACK
6
CONTINUOUS
10
165.179
20
-68.11
11
165.021
21
-68.11
0
LINE
8
BLACK
6
CONTINUOUS
10
165.021
20
-68.11
11
164.867
21
-68.0793
0
LINE
8
BLACK
6
CONTINUOUS
10
164.867
20
-68.0793
11
164.721
21
-68.019
0
LINE
8
BLACK
6
CONTINUOUS
10
164.721
20
-68.019
11
164.59
21
-67.9314
0
LINE
8
BLACK
6
CONTINUOUS
10
164.59
20
-67.9314
11
164.479
21
-67.82
0
LINE
8
BLACK
6
CONTINUOUS
10
164.479
20
-67.82
11
164.391
21
-67.6889
0
LINE
8
BLACK
6
CONTINUOUS
10
164.391
20
-67.6889
11
164.331
21
-67.5434
0
LINE
8
BLACK
6
CONTINUOUS
10
164.331
20
-67.5434
11
164.3
21
-67.3888
0
LINE
8
BLACK
6
CONTINUOUS
10
164.3
20
-67.3888
11
164.3
21
-67.2312
0
LINE
8
BLACK
6
CONTINUOUS
10
164.3
20
-67.2312
11
164.331
21
-67.0766
0
LINE
8
BLACK
6
CONTINUOUS
10
164.331
20
-67.0766
11
164.391
21
-66.9311
0
LINE
8
BLACK
6
CONTINUOUS
10
164.391
20
-66.9311
11
164.479
21
-66.8
0
LINE
8
BLACK
6
CONTINUOUS
10
164.479
20
-66.8
11
164.59
21
-66.6886
0
LINE
8
BLACK
6
CONTINUOUS
10
164.59
20
-66.6886
11
164.721
21
-66.601
0
LINE
8
BLACK
6
CONTINUOUS
10
164.721
20
-66.601
11
164.867
21
-66.5407
0
LINE
8
BLACK
6
CONTINUOUS
10
164.867
20
-66.5407
11
165.021
21
-66.51
0
LINE
8
BLACK
6
CONTINUOUS
10
165.021
20
-66.51
11
165.179
21
-66.51
0
LINE
8
BLACK
6
CONTINUOUS
10
165.179
20
-66.51
11
165.333
21
-66.5407
0
CIRCLE
8
BLACK
10
165.1
20
-102.87
40
0.4
0
CIRCLE
8
BLACK
10
149.86
20
-102.87
40
0.4
0
CIRCLE
8
BLACK
10
165.1
20
-67.31
40
0.4
0
CIRCLE
8
BLACK
10
149.86
20
-100.33
40
0.4
0
CIRCLE
8
BLACK
10
165.1
20
-69.85
40
0.4
0
CIRCLE
8
BLACK
10
149.86
20
-97.79
40
0.4
0
CIRCLE
8
BLACK
10
165.1
20
-72.39
40
0.4
0
CIRCLE
8
BLACK
10
149.86
20
-95.25
40
0.4
0
CIRCLE
8
BLACK
10
165.1
20
-74.93
40
0.4
0
CIRCLE
8
BLACK
10
149.86
20
-92.71
40
0.4
0
CIRCLE
8
BLACK
10
165.1
20
-77.47
40
0.4
0
CIRCLE
8
BLACK
10
149.86
20
-90.17
40
0.4
0
CIRCLE
8
BLACK
10
165.1
20
-80.01
40
0.4
0
CIRCLE
8
BLACK
10
149.86
20
-87.63
40
0.4
0
CIRCLE
8
BLACK
10
165.1
20
-82.55
40
0.4
0
CIRCLE
8
BLACK
10
149.86
20
-85.09
40
0.4
0
CIRCLE
8
BLACK
10
165.1
20
-85.09
40
0.4
0
CIRCLE
8
BLACK
10
149.86
20
-82.55
40
0.4
0
CIRCLE
8
BLACK
10
165.1
20
-87.63
40
0.4
0
CIRCLE
8
BLACK
10
149.86
20
-80.01
40
0.4
0
CIRCLE
8
BLACK
10
165.1
20
-90.17
40
0.4
0
CIRCLE
8
BLACK
10
149.86
20
-77.47
40
0.4
0
CIRCLE
8
BLACK
10
165.1
20
-92.71
40
0.4
0
CIRCLE
8
BLACK
10
149.86
20
-74.93
40
0.4
0
CIRCLE
8
BLACK
10
165.1
20
-95.25
40
0.4
0
CIRCLE
8
BLACK
10
149.86
20
-72.39
40
0.4
0
CIRCLE
8
BLACK
10
165.1
20
-97.79
40
0.4
0
CIRCLE
8
BLACK
10
149.86
20
-69.85
40
0.4
0
CIRCLE
8
BLACK
10
165.1
20
-100.33
40
0.4
0
CIRCLE
8
BLACK
10
149.86
20
-67.31
40
0.4
0
CIRCLE
8
BLACK
10
179.07
20
-110.49
40
0.381
0
CIRCLE
8
BLACK
10
176.53
20
-110.49
40
0.381
0
CIRCLE
8
BLACK
10
179.07
20
-107.95
40
0.381
0
CIRCLE
8
BLACK
10
176.53
20
-107.95
40
0.381
0
CIRCLE
8
BLACK
10
179.07
20
-105.41
40
0.381
0
CIRCLE
8
BLACK
10
176.53
20
-105.41
40
0.381
0
CIRCLE
8
BLACK
10
179.07
20
-102.87
40
0.381
0
CIRCLE
8
BLACK
10
176.53
20
-102.87
40
0.381
0
CIRCLE
8
BLACK
10
186.69
20
-66.04
40
0.5
0
CIRCLE
8
BLACK
10
189.23
20
-66.04
40
0.5
0
CIRCLE
8
BLACK
10
191.77
20
-66.04
40
0.5
0
CIRCLE
8
BLACK
10
194.31
20
-66.04
40
0.5
0
CIRCLE
8
BLACK
10
178.92
20
-83.82
40
1.75
0
CIRCLE
8
BLACK
10
195.58
20
-86.36
40
0.55
0
CIRCLE
8
BLACK
10
195.58
20
-83.82
40
0.55
0
CIRCLE
8
BLACK
10
195.58
20
-81.28
40
0.55
0
CIRCLE
8
BLACK
10
172.72
20
-102.87
40
0.5
0
CIRCLE
8
BLACK
10
172.72
20
-107.95
40
0.5
0
CIRCLE
8
BLACK
10
194.31
20
-66.04
40
0.2
  0
ENDSEC
  0
EOF
