  0
SECTION
  2
HEADER
  9
$ANGBASE
  50
0.0
  9
$ANGDIR
  70
1
  9
$MEASUREMENT
  70
1
  0
ENDSEC
  0
SECTION
  2
TABLES
  0
TABLE
  2
LTYPE
  70
4
  0
LTYPE
  5
40F
  2
CONTINUOUS
  70
0
  3
Solid line
  72
65
  73
0
  40
0.0
  0
LTYPE
  5
410
  2
DASHDOT
 70
0
  3
Dash Dot ____ _ ____ _
 72
65
 73
4
 40
2.0
 49
1.25
 49
-0.25
 49
0.25
 49
-0.25
  0
LTYPE
  5
411
  2
DASHED
 70
0
  3
Dashed __ __ __ __ __
 72
65
 73
2
 40
0.75
 49
0.5
 49
-0.25
  0
LTYPE
  5
43B
  2
DOTTED
 70
0
  3
Dotted .  .  .  .
 72
65
 73
2
 40
0.2
 49
0.0
 49
-0.2
  0
ENDTAB
  0
TABLE
  2
STYLE
  70
4
  0
STYLE
  2
KICAD
  70
0
  40
0
  41
1
  42
1
  50
0
  71
0
  3
isocp.shx
  0
STYLE
  2
KICADB
  70
0
  40
0
  41
1
  42
1
  50
0
  71
0
  3
isocp.shx
  0
STYLE
  2
KICADI
  70
0
  40
0
  41
1
  42
1
  50
15
  71
0
  3
isocp.shx
  0
STYLE
  2
KICADBI
  70
0
  40
0
  41
1
  42
1
  50
15
  71
0
  3
isocp.shx
  0
ENDTAB
  0
TABLE
  2
LAYER
  70
1
  0
LAYER
  2
BLACK
  70
0
  62
7
  6
CONTINUOUS
  0
ENDTAB
  0
ENDSEC
  0
SECTION
  2
ENTITIES
0
LINE
8
BLACK
6
CONTINUOUS
10
119.613
20
-93.2107
11
119.759
21
-93.271
0
LINE
8
BLACK
6
CONTINUOUS
10
119.759
20
-93.271
11
119.89
21
-93.3586
0
LINE
8
BLACK
6
CONTINUOUS
10
119.89
20
-93.3586
11
120.001
21
-93.47
0
LINE
8
BLACK
6
CONTINUOUS
10
120.001
20
-93.47
11
120.089
21
-93.6011
0
LINE
8
BLACK
6
CONTINUOUS
10
120.089
20
-93.6011
11
120.149
21
-93.7466
0
LINE
8
BLACK
6
CONTINUOUS
10
120.149
20
-93.7466
11
120.18
21
-93.9012
0
LINE
8
BLACK
6
CONTINUOUS
10
120.18
20
-93.9012
11
120.18
21
-94.0588
0
LINE
8
BLACK
6
CONTINUOUS
10
120.18
20
-94.0588
11
120.149
21
-94.2134
0
LINE
8
BLACK
6
CONTINUOUS
10
120.149
20
-94.2134
11
120.089
21
-94.3589
0
LINE
8
BLACK
6
CONTINUOUS
10
120.089
20
-94.3589
11
120.001
21
-94.49
0
LINE
8
BLACK
6
CONTINUOUS
10
120.001
20
-94.49
11
119.89
21
-94.6014
0
LINE
8
BLACK
6
CONTINUOUS
10
119.89
20
-94.6014
11
119.759
21
-94.689
0
LINE
8
BLACK
6
CONTINUOUS
10
119.759
20
-94.689
11
119.613
21
-94.7493
0
LINE
8
BLACK
6
CONTINUOUS
10
119.613
20
-94.7493
11
119.483
21
-94.7752
0
LINE
8
BLACK
6
CONTINUOUS
10
119.483
20
-94.7752
11
119.051
21
-95.207
0
LINE
8
BLACK
6
CONTINUOUS
10
119.051
20
-95.207
11
119.051
21
-95.207
0
LINE
8
BLACK
6
CONTINUOUS
10
119.051
20
-95.207
11
116.91
21
-97.348
0
LINE
8
BLACK
6
CONTINUOUS
10
116.91
20
-97.348
11
116.91
21
-100.191
0
LINE
8
BLACK
6
CONTINUOUS
10
116.91
20
-100.191
11
122.659
21
-105.94
0
LINE
8
BLACK
6
CONTINUOUS
10
122.659
20
-105.94
11
143.984
21
-105.94
0
LINE
8
BLACK
6
CONTINUOUS
10
143.984
20
-105.94
11
149.752
21
-100.172
0
LINE
8
BLACK
6
CONTINUOUS
10
149.752
20
-100.172
11
149.752
21
-97.31
0
LINE
8
BLACK
6
CONTINUOUS
10
149.752
20
-97.31
11
147.169
21
-94.7269
0
LINE
8
BLACK
6
CONTINUOUS
10
147.169
20
-94.7269
11
147.098
21
-94.7127
0
LINE
8
BLACK
6
CONTINUOUS
10
147.098
20
-94.7127
11
146.959
21
-94.6553
0
LINE
8
BLACK
6
CONTINUOUS
10
146.959
20
-94.6553
11
146.834
21
-94.5719
0
LINE
8
BLACK
6
CONTINUOUS
10
146.834
20
-94.5719
11
146.728
21
-94.4657
0
LINE
8
BLACK
6
CONTINUOUS
10
146.728
20
-94.4657
11
146.645
21
-94.3409
0
LINE
8
BLACK
6
CONTINUOUS
10
146.645
20
-94.3409
11
146.587
21
-94.2023
0
LINE
8
BLACK
6
CONTINUOUS
10
146.587
20
-94.2023
11
146.558
21
-94.055
0
LINE
8
BLACK
6
CONTINUOUS
10
146.558
20
-94.055
11
146.558
21
-93.9049
0
LINE
8
BLACK
6
CONTINUOUS
10
146.558
20
-93.9049
11
146.587
21
-93.7577
0
LINE
8
BLACK
6
CONTINUOUS
10
146.587
20
-93.7577
11
146.645
21
-93.6191
0
LINE
8
BLACK
6
CONTINUOUS
10
146.645
20
-93.6191
11
146.728
21
-93.4943
0
LINE
8
BLACK
6
CONTINUOUS
10
146.728
20
-93.4943
11
146.834
21
-93.3881
0
LINE
8
BLACK
6
CONTINUOUS
10
146.834
20
-93.3881
11
146.959
21
-93.3047
0
LINE
8
BLACK
6
CONTINUOUS
10
146.959
20
-93.3047
11
147.098
21
-93.2473
0
LINE
8
BLACK
6
CONTINUOUS
10
147.098
20
-93.2473
11
147.245
21
-93.218
0
LINE
8
BLACK
6
CONTINUOUS
10
147.245
20
-93.218
11
147.395
21
-93.218
0
LINE
8
BLACK
6
CONTINUOUS
10
147.395
20
-93.218
11
147.542
21
-93.2473
0
LINE
8
BLACK
6
CONTINUOUS
10
147.542
20
-93.2473
11
147.681
21
-93.3047
0
LINE
8
BLACK
6
CONTINUOUS
10
147.681
20
-93.3047
11
147.806
21
-93.3881
0
LINE
8
BLACK
6
CONTINUOUS
10
147.806
20
-93.3881
11
147.912
21
-93.4943
0
LINE
8
BLACK
6
CONTINUOUS
10
147.912
20
-93.4943
11
147.995
21
-93.6191
0
LINE
8
BLACK
6
CONTINUOUS
10
147.995
20
-93.6191
11
148.053
21
-93.7577
0
LINE
8
BLACK
6
CONTINUOUS
10
148.053
20
-93.7577
11
148.067
21
-93.8288
0
LINE
8
BLACK
6
CONTINUOUS
10
148.067
20
-93.8288
11
150.814
21
-96.576
0
LINE
8
BLACK
6
CONTINUOUS
10
150.814
20
-96.576
11
150.838
21
-96.5958
0
LINE
8
BLACK
6
CONTINUOUS
10
150.838
20
-96.5958
11
150.858
21
-96.62
0
LINE
8
BLACK
6
CONTINUOUS
10
150.858
20
-96.62
11
150.858
21
-96.6201
0
LINE
8
BLACK
6
CONTINUOUS
10
150.858
20
-96.6201
11
150.918
21
-96.6925
0
LINE
8
BLACK
6
CONTINUOUS
10
150.918
20
-96.6925
11
150.977
21
-96.8028
0
LINE
8
BLACK
6
CONTINUOUS
10
150.977
20
-96.8028
11
150.977
21
-96.8028
0
LINE
8
BLACK
6
CONTINUOUS
10
150.977
20
-96.8028
11
151.013
21
-96.9225
0
LINE
8
BLACK
6
CONTINUOUS
10
151.013
20
-96.9225
11
151.021
21
-97.0057
0
LINE
8
BLACK
6
CONTINUOUS
10
151.021
20
-97.0057
11
151.025
21
-97.047
0
LINE
8
BLACK
6
CONTINUOUS
10
151.025
20
-97.047
11
151.022
21
-97.0782
0
LINE
8
BLACK
6
CONTINUOUS
10
151.022
20
-97.0782
11
151.022
21
-100.404
0
LINE
8
BLACK
6
CONTINUOUS
10
151.022
20
-100.404
11
151.025
21
-100.435
0
LINE
8
BLACK
6
CONTINUOUS
10
151.025
20
-100.435
11
151.013
21
-100.56
0
LINE
8
BLACK
6
CONTINUOUS
10
151.013
20
-100.56
11
150.977
21
-100.68
0
LINE
8
BLACK
6
CONTINUOUS
10
150.977
20
-100.68
11
150.918
21
-100.79
0
LINE
8
BLACK
6
CONTINUOUS
10
150.918
20
-100.79
11
150.858
21
-100.862
0
LINE
8
BLACK
6
CONTINUOUS
10
150.858
20
-100.862
11
150.858
21
-100.862
0
LINE
8
BLACK
6
CONTINUOUS
10
150.858
20
-100.862
11
150.838
21
-100.887
0
LINE
8
BLACK
6
CONTINUOUS
10
150.838
20
-100.887
11
150.814
21
-100.907
0
LINE
8
BLACK
6
CONTINUOUS
10
150.814
20
-100.907
11
144.718
21
-107.002
0
LINE
8
BLACK
6
CONTINUOUS
10
144.718
20
-107.002
11
144.699
21
-107.026
0
LINE
8
BLACK
6
CONTINUOUS
10
144.699
20
-107.026
11
144.602
21
-107.106
0
LINE
8
BLACK
6
CONTINUOUS
10
144.602
20
-107.106
11
144.492
21
-107.165
0
LINE
8
BLACK
6
CONTINUOUS
10
144.492
20
-107.165
11
144.372
21
-107.201
0
LINE
8
BLACK
6
CONTINUOUS
10
144.372
20
-107.201
11
144.279
21
-107.21
0
LINE
8
BLACK
6
CONTINUOUS
10
144.279
20
-107.21
11
144.279
21
-107.21
0
LINE
8
BLACK
6
CONTINUOUS
10
144.279
20
-107.21
11
144.247
21
-107.213
0
LINE
8
BLACK
6
CONTINUOUS
10
144.247
20
-107.213
11
144.216
21
-107.21
0
LINE
8
BLACK
6
CONTINUOUS
10
144.216
20
-107.21
11
122.428
21
-107.21
0
LINE
8
BLACK
6
CONTINUOUS
10
122.428
20
-107.21
11
122.396
21
-107.213
0
LINE
8
BLACK
6
CONTINUOUS
10
122.396
20
-107.213
11
122.272
21
-107.201
0
LINE
8
BLACK
6
CONTINUOUS
10
122.272
20
-107.201
11
122.152
21
-107.165
0
LINE
8
BLACK
6
CONTINUOUS
10
122.152
20
-107.165
11
122.042
21
-107.106
0
LINE
8
BLACK
6
CONTINUOUS
10
122.042
20
-107.106
11
121.969
21
-107.046
0
LINE
8
BLACK
6
CONTINUOUS
10
121.969
20
-107.046
11
121.969
21
-107.046
0
LINE
8
BLACK
6
CONTINUOUS
10
121.969
20
-107.046
11
121.945
21
-107.026
0
LINE
8
BLACK
6
CONTINUOUS
10
121.945
20
-107.026
11
121.925
21
-107.002
0
LINE
8
BLACK
6
CONTINUOUS
10
121.925
20
-107.002
11
115.848
21
-100.925
0
LINE
8
BLACK
6
CONTINUOUS
10
115.848
20
-100.925
11
115.824
21
-100.905
0
LINE
8
BLACK
6
CONTINUOUS
10
115.824
20
-100.905
11
115.744
21
-100.808
0
LINE
8
BLACK
6
CONTINUOUS
10
115.744
20
-100.808
11
115.685
21
-100.698
0
LINE
8
BLACK
6
CONTINUOUS
10
115.685
20
-100.698
11
115.649
21
-100.578
0
LINE
8
BLACK
6
CONTINUOUS
10
115.649
20
-100.578
11
115.64
21
-100.485
0
LINE
8
BLACK
6
CONTINUOUS
10
115.64
20
-100.485
11
115.64
21
-100.485
0
LINE
8
BLACK
6
CONTINUOUS
10
115.64
20
-100.485
11
115.637
21
-100.454
0
LINE
8
BLACK
6
CONTINUOUS
10
115.637
20
-100.454
11
115.64
21
-100.423
0
LINE
8
BLACK
6
CONTINUOUS
10
115.64
20
-100.423
11
115.64
21
-97.1162
0
LINE
8
BLACK
6
CONTINUOUS
10
115.64
20
-97.1162
11
115.637
21
-97.085
0
LINE
8
BLACK
6
CONTINUOUS
10
115.637
20
-97.085
11
115.642
21
-97.03
0
LINE
8
BLACK
6
CONTINUOUS
10
115.642
20
-97.03
11
115.649
21
-96.9605
0
LINE
8
BLACK
6
CONTINUOUS
10
115.649
20
-96.9605
11
115.668
21
-96.8989
0
LINE
8
BLACK
6
CONTINUOUS
10
115.668
20
-96.8989
11
115.685
21
-96.8408
0
LINE
8
BLACK
6
CONTINUOUS
10
115.685
20
-96.8408
11
115.744
21
-96.7305
0
LINE
8
BLACK
6
CONTINUOUS
10
115.744
20
-96.7305
11
115.804
21
-96.6581
0
LINE
8
BLACK
6
CONTINUOUS
10
115.804
20
-96.6581
11
115.824
21
-96.6338
0
LINE
8
BLACK
6
CONTINUOUS
10
115.824
20
-96.6338
11
115.848
21
-96.6139
0
LINE
8
BLACK
6
CONTINUOUS
10
115.848
20
-96.6139
11
118.153
21
-94.3089
0
LINE
8
BLACK
6
CONTINUOUS
10
118.153
20
-94.3089
11
118.153
21
-94.3089
0
LINE
8
BLACK
6
CONTINUOUS
10
118.153
20
-94.3089
11
118.585
21
-93.8772
0
LINE
8
BLACK
6
CONTINUOUS
10
118.585
20
-93.8772
11
118.611
21
-93.7466
0
LINE
8
BLACK
6
CONTINUOUS
10
118.611
20
-93.7466
11
118.671
21
-93.6011
0
LINE
8
BLACK
6
CONTINUOUS
10
118.671
20
-93.6011
11
118.759
21
-93.47
0
LINE
8
BLACK
6
CONTINUOUS
10
118.759
20
-93.47
11
118.87
21
-93.3586
0
LINE
8
BLACK
6
CONTINUOUS
10
118.87
20
-93.3586
11
119.001
21
-93.271
0
LINE
8
BLACK
6
CONTINUOUS
10
119.001
20
-93.271
11
119.147
21
-93.2107
0
LINE
8
BLACK
6
CONTINUOUS
10
119.147
20
-93.2107
11
119.301
21
-93.18
0
LINE
8
BLACK
6
CONTINUOUS
10
119.301
20
-93.18
11
119.459
21
-93.18
0
LINE
8
BLACK
6
CONTINUOUS
10
119.459
20
-93.18
11
119.613
21
-93.2107
0
LINE
8
BLACK
6
CONTINUOUS
10
119.613
20
-95.7507
11
119.759
21
-95.811
0
LINE
8
BLACK
6
CONTINUOUS
10
119.759
20
-95.811
11
119.89
21
-95.8986
0
LINE
8
BLACK
6
CONTINUOUS
10
119.89
20
-95.8986
11
120.001
21
-96.01
0
LINE
8
BLACK
6
CONTINUOUS
10
120.001
20
-96.01
11
120.089
21
-96.1411
0
LINE
8
BLACK
6
CONTINUOUS
10
120.089
20
-96.1411
11
120.149
21
-96.2866
0
LINE
8
BLACK
6
CONTINUOUS
10
120.149
20
-96.2866
11
120.18
21
-96.4412
0
LINE
8
BLACK
6
CONTINUOUS
10
120.18
20
-96.4412
11
120.18
21
-96.5988
0
LINE
8
BLACK
6
CONTINUOUS
10
120.18
20
-96.5988
11
120.149
21
-96.7534
0
LINE
8
BLACK
6
CONTINUOUS
10
120.149
20
-96.7534
11
120.089
21
-96.8989
0
LINE
8
BLACK
6
CONTINUOUS
10
120.089
20
-96.8989
11
120.001
21
-97.03
0
LINE
8
BLACK
6
CONTINUOUS
10
120.001
20
-97.03
11
119.89
21
-97.1414
0
LINE
8
BLACK
6
CONTINUOUS
10
119.89
20
-97.1414
11
119.759
21
-97.229
0
LINE
8
BLACK
6
CONTINUOUS
10
119.759
20
-97.229
11
119.613
21
-97.2893
0
LINE
8
BLACK
6
CONTINUOUS
10
119.613
20
-97.2893
11
119.483
21
-97.3152
0
LINE
8
BLACK
6
CONTINUOUS
10
119.483
20
-97.3152
11
119.051
21
-97.747
0
LINE
8
BLACK
6
CONTINUOUS
10
119.051
20
-97.747
11
119.051
21
-97.747
0
LINE
8
BLACK
6
CONTINUOUS
10
119.051
20
-97.747
11
118.38
21
-98.418
0
LINE
8
BLACK
6
CONTINUOUS
10
118.38
20
-98.418
11
118.38
21
-99.5818
0
LINE
8
BLACK
6
CONTINUOUS
10
118.38
20
-99.5818
11
123.268
21
-104.47
0
LINE
8
BLACK
6
CONTINUOUS
10
123.268
20
-104.47
11
143.376
21
-104.47
0
LINE
8
BLACK
6
CONTINUOUS
10
143.376
20
-104.47
11
148.282
21
-99.5635
0
LINE
8
BLACK
6
CONTINUOUS
10
148.282
20
-99.5635
11
148.282
21
-98.38
0
LINE
8
BLACK
6
CONTINUOUS
10
148.282
20
-98.38
11
147.169
21
-97.2669
0
LINE
8
BLACK
6
CONTINUOUS
10
147.169
20
-97.2669
11
147.098
21
-97.2527
0
LINE
8
BLACK
6
CONTINUOUS
10
147.098
20
-97.2527
11
146.959
21
-97.1953
0
LINE
8
BLACK
6
CONTINUOUS
10
146.959
20
-97.1953
11
146.834
21
-97.1119
0
LINE
8
BLACK
6
CONTINUOUS
10
146.834
20
-97.1119
11
146.728
21
-97.0057
0
LINE
8
BLACK
6
CONTINUOUS
10
146.728
20
-97.0057
11
146.645
21
-96.8809
0
LINE
8
BLACK
6
CONTINUOUS
10
146.645
20
-96.8809
11
146.587
21
-96.7423
0
LINE
8
BLACK
6
CONTINUOUS
10
146.587
20
-96.7423
11
146.558
21
-96.5951
0
LINE
8
BLACK
6
CONTINUOUS
10
146.558
20
-96.5951
11
146.558
21
-96.4449
0
LINE
8
BLACK
6
CONTINUOUS
10
146.558
20
-96.4449
11
146.587
21
-96.2977
0
LINE
8
BLACK
6
CONTINUOUS
10
146.587
20
-96.2977
11
146.645
21
-96.1591
0
LINE
8
BLACK
6
CONTINUOUS
10
146.645
20
-96.1591
11
146.728
21
-96.0343
0
LINE
8
BLACK
6
CONTINUOUS
10
146.728
20
-96.0343
11
146.834
21
-95.9281
0
LINE
8
BLACK
6
CONTINUOUS
10
146.834
20
-95.9281
11
146.959
21
-95.8447
0
LINE
8
BLACK
6
CONTINUOUS
10
146.959
20
-95.8447
11
147.098
21
-95.7873
0
LINE
8
BLACK
6
CONTINUOUS
10
147.098
20
-95.7873
11
147.245
21
-95.758
0
LINE
8
BLACK
6
CONTINUOUS
10
147.245
20
-95.758
11
147.395
21
-95.758
0
LINE
8
BLACK
6
CONTINUOUS
10
147.395
20
-95.758
11
147.542
21
-95.7873
0
LINE
8
BLACK
6
CONTINUOUS
10
147.542
20
-95.7873
11
147.681
21
-95.8447
0
LINE
8
BLACK
6
CONTINUOUS
10
147.681
20
-95.8447
11
147.806
21
-95.9281
0
LINE
8
BLACK
6
CONTINUOUS
10
147.806
20
-95.9281
11
147.912
21
-96.0343
0
LINE
8
BLACK
6
CONTINUOUS
10
147.912
20
-96.0343
11
147.995
21
-96.1591
0
LINE
8
BLACK
6
CONTINUOUS
10
147.995
20
-96.1591
11
148.053
21
-96.2977
0
LINE
8
BLACK
6
CONTINUOUS
10
148.053
20
-96.2977
11
148.067
21
-96.3688
0
LINE
8
BLACK
6
CONTINUOUS
10
148.067
20
-96.3688
11
149.344
21
-97.6459
0
LINE
8
BLACK
6
CONTINUOUS
10
149.344
20
-97.6459
11
149.368
21
-97.6658
0
LINE
8
BLACK
6
CONTINUOUS
10
149.368
20
-97.6658
11
149.388
21
-97.69
0
LINE
8
BLACK
6
CONTINUOUS
10
149.388
20
-97.69
11
149.388
21
-97.69
0
LINE
8
BLACK
6
CONTINUOUS
10
149.388
20
-97.69
11
149.448
21
-97.7625
0
LINE
8
BLACK
6
CONTINUOUS
10
149.448
20
-97.7625
11
149.448
21
-97.7625
0
LINE
8
BLACK
6
CONTINUOUS
10
149.448
20
-97.7625
11
149.507
21
-97.8728
0
LINE
8
BLACK
6
CONTINUOUS
10
149.507
20
-97.8728
11
149.543
21
-97.9925
0
LINE
8
BLACK
6
CONTINUOUS
10
149.543
20
-97.9925
11
149.552
21
-98.0858
0
LINE
8
BLACK
6
CONTINUOUS
10
149.552
20
-98.0858
11
149.552
21
-98.0858
0
LINE
8
BLACK
6
CONTINUOUS
10
149.552
20
-98.0858
11
149.555
21
-98.117
0
LINE
8
BLACK
6
CONTINUOUS
10
149.555
20
-98.117
11
149.552
21
-98.1482
0
LINE
8
BLACK
6
CONTINUOUS
10
149.552
20
-98.1482
11
149.552
21
-99.7954
0
LINE
8
BLACK
6
CONTINUOUS
10
149.552
20
-99.7954
11
149.555
21
-99.8266
0
LINE
8
BLACK
6
CONTINUOUS
10
149.555
20
-99.8266
11
149.552
21
-99.8577
0
LINE
8
BLACK
6
CONTINUOUS
10
149.552
20
-99.8577
11
149.552
21
-99.8578
0
LINE
8
BLACK
6
CONTINUOUS
10
149.552
20
-99.8578
11
149.543
21
-99.951
0
LINE
8
BLACK
6
CONTINUOUS
10
149.543
20
-99.951
11
149.507
21
-100.071
0
LINE
8
BLACK
6
CONTINUOUS
10
149.507
20
-100.071
11
149.468
21
-100.143
0
LINE
8
BLACK
6
CONTINUOUS
10
149.468
20
-100.143
11
149.448
21
-100.181
0
LINE
8
BLACK
6
CONTINUOUS
10
149.448
20
-100.181
11
149.396
21
-100.244
0
LINE
8
BLACK
6
CONTINUOUS
10
149.396
20
-100.244
11
149.368
21
-100.278
0
LINE
8
BLACK
6
CONTINUOUS
10
149.368
20
-100.278
11
149.344
21
-100.298
0
LINE
8
BLACK
6
CONTINUOUS
10
149.344
20
-100.298
11
144.11
21
-105.532
0
LINE
8
BLACK
6
CONTINUOUS
10
144.11
20
-105.532
11
144.09
21
-105.556
0
LINE
8
BLACK
6
CONTINUOUS
10
144.09
20
-105.556
11
143.993
21
-105.636
0
LINE
8
BLACK
6
CONTINUOUS
10
143.993
20
-105.636
11
143.883
21
-105.695
0
LINE
8
BLACK
6
CONTINUOUS
10
143.883
20
-105.695
11
143.763
21
-105.731
0
LINE
8
BLACK
6
CONTINUOUS
10
143.763
20
-105.731
11
143.67
21
-105.74
0
LINE
8
BLACK
6
CONTINUOUS
10
143.67
20
-105.74
11
143.67
21
-105.74
0
LINE
8
BLACK
6
CONTINUOUS
10
143.67
20
-105.74
11
143.639
21
-105.743
0
LINE
8
BLACK
6
CONTINUOUS
10
143.639
20
-105.743
11
143.607
21
-105.74
0
LINE
8
BLACK
6
CONTINUOUS
10
143.607
20
-105.74
11
123.036
21
-105.74
0
LINE
8
BLACK
6
CONTINUOUS
10
123.036
20
-105.74
11
123.005
21
-105.743
0
LINE
8
BLACK
6
CONTINUOUS
10
123.005
20
-105.743
11
122.974
21
-105.74
0
LINE
8
BLACK
6
CONTINUOUS
10
122.974
20
-105.74
11
122.974
21
-105.74
0
LINE
8
BLACK
6
CONTINUOUS
10
122.974
20
-105.74
11
122.881
21
-105.731
0
LINE
8
BLACK
6
CONTINUOUS
10
122.881
20
-105.731
11
122.761
21
-105.695
0
LINE
8
BLACK
6
CONTINUOUS
10
122.761
20
-105.695
11
122.651
21
-105.636
0
LINE
8
BLACK
6
CONTINUOUS
10
122.651
20
-105.636
11
122.554
21
-105.556
0
LINE
8
BLACK
6
CONTINUOUS
10
122.554
20
-105.556
11
122.534
21
-105.532
0
LINE
8
BLACK
6
CONTINUOUS
10
122.534
20
-105.532
11
117.318
21
-100.316
0
LINE
8
BLACK
6
CONTINUOUS
10
117.318
20
-100.316
11
117.294
21
-100.296
0
LINE
8
BLACK
6
CONTINUOUS
10
117.294
20
-100.296
11
117.214
21
-100.199
0
LINE
8
BLACK
6
CONTINUOUS
10
117.214
20
-100.199
11
117.155
21
-100.089
0
LINE
8
BLACK
6
CONTINUOUS
10
117.155
20
-100.089
11
117.119
21
-99.9693
0
LINE
8
BLACK
6
CONTINUOUS
10
117.119
20
-99.9693
11
117.11
21
-99.876
0
LINE
8
BLACK
6
CONTINUOUS
10
117.11
20
-99.876
11
117.11
21
-99.876
0
LINE
8
BLACK
6
CONTINUOUS
10
117.11
20
-99.876
11
117.107
21
-99.8448
0
LINE
8
BLACK
6
CONTINUOUS
10
117.107
20
-99.8448
11
117.11
21
-99.8136
0
LINE
8
BLACK
6
CONTINUOUS
10
117.11
20
-99.8136
11
117.11
21
-98.1862
0
LINE
8
BLACK
6
CONTINUOUS
10
117.11
20
-98.1862
11
117.107
21
-98.155
0
LINE
8
BLACK
6
CONTINUOUS
10
117.107
20
-98.155
11
117.112
21
-98.0984
0
LINE
8
BLACK
6
CONTINUOUS
10
117.112
20
-98.0984
11
117.119
21
-98.0305
0
LINE
8
BLACK
6
CONTINUOUS
10
117.119
20
-98.0305
11
117.145
21
-97.9458
0
LINE
8
BLACK
6
CONTINUOUS
10
117.145
20
-97.9458
11
117.155
21
-97.9108
0
LINE
8
BLACK
6
CONTINUOUS
10
117.155
20
-97.9108
11
117.214
21
-97.8005
0
LINE
8
BLACK
6
CONTINUOUS
10
117.214
20
-97.8005
11
117.274
21
-97.728
0
LINE
8
BLACK
6
CONTINUOUS
10
117.274
20
-97.728
11
117.294
21
-97.7038
0
LINE
8
BLACK
6
CONTINUOUS
10
117.294
20
-97.7038
11
117.318
21
-97.6839
0
LINE
8
BLACK
6
CONTINUOUS
10
117.318
20
-97.6839
11
118.153
21
-96.8489
0
LINE
8
BLACK
6
CONTINUOUS
10
118.153
20
-96.8489
11
118.153
21
-96.8489
0
LINE
8
BLACK
6
CONTINUOUS
10
118.153
20
-96.8489
11
118.585
21
-96.4172
0
LINE
8
BLACK
6
CONTINUOUS
10
118.585
20
-96.4172
11
118.611
21
-96.2866
0
LINE
8
BLACK
6
CONTINUOUS
10
118.611
20
-96.2866
11
118.671
21
-96.1411
0
LINE
8
BLACK
6
CONTINUOUS
10
118.671
20
-96.1411
11
118.759
21
-96.01
0
LINE
8
BLACK
6
CONTINUOUS
10
118.759
20
-96.01
11
118.87
21
-95.8986
0
LINE
8
BLACK
6
CONTINUOUS
10
118.87
20
-95.8986
11
119.001
21
-95.811
0
LINE
8
BLACK
6
CONTINUOUS
10
119.001
20
-95.811
11
119.147
21
-95.7507
0
LINE
8
BLACK
6
CONTINUOUS
10
119.147
20
-95.7507
11
119.301
21
-95.72
0
LINE
8
BLACK
6
CONTINUOUS
10
119.301
20
-95.72
11
119.459
21
-95.72
0
LINE
8
BLACK
6
CONTINUOUS
10
119.459
20
-95.72
11
119.613
21
-95.7507
0
LINE
8
BLACK
6
CONTINUOUS
10
119.613
20
-98.2907
11
119.759
21
-98.351
0
LINE
8
BLACK
6
CONTINUOUS
10
119.759
20
-98.351
11
119.89
21
-98.4386
0
LINE
8
BLACK
6
CONTINUOUS
10
119.89
20
-98.4386
11
120.001
21
-98.55
0
LINE
8
BLACK
6
CONTINUOUS
10
120.001
20
-98.55
11
120.089
21
-98.6811
0
LINE
8
BLACK
6
CONTINUOUS
10
120.089
20
-98.6811
11
120.149
21
-98.8266
0
LINE
8
BLACK
6
CONTINUOUS
10
120.149
20
-98.8266
11
120.175
21
-98.9572
0
LINE
8
BLACK
6
CONTINUOUS
10
120.175
20
-98.9572
11
120.651
21
-99.433
0
LINE
8
BLACK
6
CONTINUOUS
10
120.651
20
-99.433
11
120.651
21
-99.4331
0
LINE
8
BLACK
6
CONTINUOUS
10
120.651
20
-99.4331
11
124.218
21
-103
0
LINE
8
BLACK
6
CONTINUOUS
10
124.218
20
-103
11
139.942
21
-103
0
LINE
8
BLACK
6
CONTINUOUS
10
139.942
20
-103
11
144.033
21
-98.9088
0
LINE
8
BLACK
6
CONTINUOUS
10
144.033
20
-98.9088
11
144.047
21
-98.8377
0
LINE
8
BLACK
6
CONTINUOUS
10
144.047
20
-98.8377
11
144.105
21
-98.6991
0
LINE
8
BLACK
6
CONTINUOUS
10
144.105
20
-98.6991
11
144.188
21
-98.5743
0
LINE
8
BLACK
6
CONTINUOUS
10
144.188
20
-98.5743
11
144.294
21
-98.4681
0
LINE
8
BLACK
6
CONTINUOUS
10
144.294
20
-98.4681
11
144.419
21
-98.3847
0
LINE
8
BLACK
6
CONTINUOUS
10
144.419
20
-98.3847
11
144.558
21
-98.3273
0
LINE
8
BLACK
6
CONTINUOUS
10
144.558
20
-98.3273
11
144.705
21
-98.298
0
LINE
8
BLACK
6
CONTINUOUS
10
144.705
20
-98.298
11
144.855
21
-98.298
0
LINE
8
BLACK
6
CONTINUOUS
10
144.855
20
-98.298
11
145.002
21
-98.3273
0
LINE
8
BLACK
6
CONTINUOUS
10
145.002
20
-98.3273
11
145.141
21
-98.3847
0
LINE
8
BLACK
6
CONTINUOUS
10
145.141
20
-98.3847
11
145.266
21
-98.4681
0
LINE
8
BLACK
6
CONTINUOUS
10
145.266
20
-98.4681
11
145.372
21
-98.5743
0
LINE
8
BLACK
6
CONTINUOUS
10
145.372
20
-98.5743
11
145.455
21
-98.6991
0
LINE
8
BLACK
6
CONTINUOUS
10
145.455
20
-98.6991
11
145.513
21
-98.8377
0
LINE
8
BLACK
6
CONTINUOUS
10
145.513
20
-98.8377
11
145.542
21
-98.9849
0
LINE
8
BLACK
6
CONTINUOUS
10
145.542
20
-98.9849
11
145.542
21
-99.135
0
LINE
8
BLACK
6
CONTINUOUS
10
145.542
20
-99.135
11
145.513
21
-99.2823
0
LINE
8
BLACK
6
CONTINUOUS
10
145.513
20
-99.2823
11
145.455
21
-99.4209
0
LINE
8
BLACK
6
CONTINUOUS
10
145.455
20
-99.4209
11
145.372
21
-99.5457
0
LINE
8
BLACK
6
CONTINUOUS
10
145.372
20
-99.5457
11
145.266
21
-99.6519
0
LINE
8
BLACK
6
CONTINUOUS
10
145.266
20
-99.6519
11
145.141
21
-99.7353
0
LINE
8
BLACK
6
CONTINUOUS
10
145.141
20
-99.7353
11
145.002
21
-99.7927
0
LINE
8
BLACK
6
CONTINUOUS
10
145.002
20
-99.7927
11
144.931
21
-99.8069
0
LINE
8
BLACK
6
CONTINUOUS
10
144.931
20
-99.8069
11
140.676
21
-104.062
0
LINE
8
BLACK
6
CONTINUOUS
10
140.676
20
-104.062
11
140.656
21
-104.086
0
LINE
8
BLACK
6
CONTINUOUS
10
140.656
20
-104.086
11
140.559
21
-104.166
0
LINE
8
BLACK
6
CONTINUOUS
10
140.559
20
-104.166
11
140.449
21
-104.225
0
LINE
8
BLACK
6
CONTINUOUS
10
140.449
20
-104.225
11
140.329
21
-104.261
0
LINE
8
BLACK
6
CONTINUOUS
10
140.329
20
-104.261
11
140.236
21
-104.27
0
LINE
8
BLACK
6
CONTINUOUS
10
140.236
20
-104.27
11
140.236
21
-104.27
0
LINE
8
BLACK
6
CONTINUOUS
10
140.236
20
-104.27
11
140.205
21
-104.273
0
LINE
8
BLACK
6
CONTINUOUS
10
140.205
20
-104.273
11
140.174
21
-104.27
0
LINE
8
BLACK
6
CONTINUOUS
10
140.174
20
-104.27
11
123.986
21
-104.27
0
LINE
8
BLACK
6
CONTINUOUS
10
123.986
20
-104.27
11
123.955
21
-104.273
0
LINE
8
BLACK
6
CONTINUOUS
10
123.955
20
-104.273
11
123.924
21
-104.27
0
LINE
8
BLACK
6
CONTINUOUS
10
123.924
20
-104.27
11
123.924
21
-104.27
0
LINE
8
BLACK
6
CONTINUOUS
10
123.924
20
-104.27
11
123.831
21
-104.261
0
LINE
8
BLACK
6
CONTINUOUS
10
123.831
20
-104.261
11
123.711
21
-104.225
0
LINE
8
BLACK
6
CONTINUOUS
10
123.711
20
-104.225
11
123.601
21
-104.166
0
LINE
8
BLACK
6
CONTINUOUS
10
123.601
20
-104.166
11
123.528
21
-104.106
0
LINE
8
BLACK
6
CONTINUOUS
10
123.528
20
-104.106
11
123.504
21
-104.086
0
LINE
8
BLACK
6
CONTINUOUS
10
123.504
20
-104.086
11
123.484
21
-104.062
0
LINE
8
BLACK
6
CONTINUOUS
10
123.484
20
-104.062
11
119.753
21
-100.331
0
LINE
8
BLACK
6
CONTINUOUS
10
119.753
20
-100.331
11
119.753
21
-100.331
0
LINE
8
BLACK
6
CONTINUOUS
10
119.753
20
-100.331
11
119.277
21
-99.8552
0
LINE
8
BLACK
6
CONTINUOUS
10
119.277
20
-99.8552
11
119.147
21
-99.8293
0
LINE
8
BLACK
6
CONTINUOUS
10
119.147
20
-99.8293
11
119.001
21
-99.769
0
LINE
8
BLACK
6
CONTINUOUS
10
119.001
20
-99.769
11
118.87
21
-99.6814
0
LINE
8
BLACK
6
CONTINUOUS
10
118.87
20
-99.6814
11
118.759
21
-99.57
0
LINE
8
BLACK
6
CONTINUOUS
10
118.759
20
-99.57
11
118.671
21
-99.4389
0
LINE
8
BLACK
6
CONTINUOUS
10
118.671
20
-99.4389
11
118.611
21
-99.2934
0
LINE
8
BLACK
6
CONTINUOUS
10
118.611
20
-99.2934
11
118.58
21
-99.1388
0
LINE
8
BLACK
6
CONTINUOUS
10
118.58
20
-99.1388
11
118.58
21
-98.9812
0
LINE
8
BLACK
6
CONTINUOUS
10
118.58
20
-98.9812
11
118.611
21
-98.8266
0
LINE
8
BLACK
6
CONTINUOUS
10
118.611
20
-98.8266
11
118.671
21
-98.6811
0
LINE
8
BLACK
6
CONTINUOUS
10
118.671
20
-98.6811
11
118.759
21
-98.55
0
LINE
8
BLACK
6
CONTINUOUS
10
118.759
20
-98.55
11
118.87
21
-98.4386
0
LINE
8
BLACK
6
CONTINUOUS
10
118.87
20
-98.4386
11
119.001
21
-98.351
0
LINE
8
BLACK
6
CONTINUOUS
10
119.001
20
-98.351
11
119.147
21
-98.2907
0
LINE
8
BLACK
6
CONTINUOUS
10
119.147
20
-98.2907
11
119.301
21
-98.26
0
LINE
8
BLACK
6
CONTINUOUS
10
119.301
20
-98.26
11
119.459
21
-98.26
0
LINE
8
BLACK
6
CONTINUOUS
10
119.459
20
-98.26
11
119.613
21
-98.2907
0
LINE
8
BLACK
6
CONTINUOUS
10
119.613
20
-90.6707
11
119.759
21
-90.731
0
LINE
8
BLACK
6
CONTINUOUS
10
119.759
20
-90.731
11
119.89
21
-90.8186
0
LINE
8
BLACK
6
CONTINUOUS
10
119.89
20
-90.8186
11
120.001
21
-90.93
0
LINE
8
BLACK
6
CONTINUOUS
10
120.001
20
-90.93
11
120.089
21
-91.0611
0
LINE
8
BLACK
6
CONTINUOUS
10
120.089
20
-91.0611
11
120.149
21
-91.2066
0
LINE
8
BLACK
6
CONTINUOUS
10
120.149
20
-91.2066
11
120.175
21
-91.3372
0
LINE
8
BLACK
6
CONTINUOUS
10
120.175
20
-91.3372
11
130.368
21
-101.53
0
LINE
8
BLACK
6
CONTINUOUS
10
130.368
20
-101.53
11
137.95
21
-101.53
0
LINE
8
BLACK
6
CONTINUOUS
10
137.95
20
-101.53
11
139.465
21
-100.015
0
LINE
8
BLACK
6
CONTINUOUS
10
139.465
20
-100.015
11
139.465
21
-96.1512
0
LINE
8
BLACK
6
CONTINUOUS
10
139.465
20
-96.1512
11
139.462
21
-96.12
0
LINE
8
BLACK
6
CONTINUOUS
10
139.462
20
-96.12
11
139.474
21
-95.9955
0
LINE
8
BLACK
6
CONTINUOUS
10
139.474
20
-95.9955
11
139.479
21
-95.9805
0
LINE
8
BLACK
6
CONTINUOUS
10
139.479
20
-95.9805
11
139.494
21
-95.9305
0
LINE
8
BLACK
6
CONTINUOUS
10
139.494
20
-95.9305
11
139.511
21
-95.8758
0
LINE
8
BLACK
6
CONTINUOUS
10
139.511
20
-95.8758
11
139.569
21
-95.7655
0
LINE
8
BLACK
6
CONTINUOUS
10
139.569
20
-95.7655
11
139.629
21
-95.693
0
LINE
8
BLACK
6
CONTINUOUS
10
139.629
20
-95.693
11
139.649
21
-95.6688
0
LINE
8
BLACK
6
CONTINUOUS
10
139.649
20
-95.6688
11
139.673
21
-95.6489
0
LINE
8
BLACK
6
CONTINUOUS
10
139.673
20
-95.6489
11
141.769
21
-93.553
0
LINE
8
BLACK
6
CONTINUOUS
10
141.769
20
-93.553
11
141.789
21
-93.5288
0
LINE
8
BLACK
6
CONTINUOUS
10
141.789
20
-93.5288
11
141.813
21
-93.5089
0
LINE
8
BLACK
6
CONTINUOUS
10
141.813
20
-93.5089
11
141.813
21
-93.5089
0
LINE
8
BLACK
6
CONTINUOUS
10
141.813
20
-93.5089
11
141.886
21
-93.4495
0
LINE
8
BLACK
6
CONTINUOUS
10
141.886
20
-93.4495
11
141.996
21
-93.3905
0
LINE
8
BLACK
6
CONTINUOUS
10
141.996
20
-93.3905
11
142.116
21
-93.3542
0
LINE
8
BLACK
6
CONTINUOUS
10
142.116
20
-93.3542
11
142.209
21
-93.345
0
LINE
8
BLACK
6
CONTINUOUS
10
142.209
20
-93.345
11
142.209
21
-93.345
0
LINE
8
BLACK
6
CONTINUOUS
10
142.209
20
-93.345
11
142.24
21
-93.3419
0
LINE
8
BLACK
6
CONTINUOUS
10
142.24
20
-93.3419
11
142.271
21
-93.345
0
LINE
8
BLACK
6
CONTINUOUS
10
142.271
20
-93.345
11
144.359
21
-93.345
0
LINE
8
BLACK
6
CONTINUOUS
10
144.359
20
-93.345
11
144.419
21
-93.3047
0
LINE
8
BLACK
6
CONTINUOUS
10
144.419
20
-93.3047
11
144.558
21
-93.2473
0
LINE
8
BLACK
6
CONTINUOUS
10
144.558
20
-93.2473
11
144.705
21
-93.218
0
LINE
8
BLACK
6
CONTINUOUS
10
144.705
20
-93.218
11
144.855
21
-93.218
0
LINE
8
BLACK
6
CONTINUOUS
10
144.855
20
-93.218
11
145.002
21
-93.2473
0
LINE
8
BLACK
6
CONTINUOUS
10
145.002
20
-93.2473
11
145.141
21
-93.3047
0
LINE
8
BLACK
6
CONTINUOUS
10
145.141
20
-93.3047
11
145.266
21
-93.3881
0
LINE
8
BLACK
6
CONTINUOUS
10
145.266
20
-93.3881
11
145.372
21
-93.4943
0
LINE
8
BLACK
6
CONTINUOUS
10
145.372
20
-93.4943
11
145.455
21
-93.6191
0
LINE
8
BLACK
6
CONTINUOUS
10
145.455
20
-93.6191
11
145.513
21
-93.7577
0
LINE
8
BLACK
6
CONTINUOUS
10
145.513
20
-93.7577
11
145.542
21
-93.9049
0
LINE
8
BLACK
6
CONTINUOUS
10
145.542
20
-93.9049
11
145.542
21
-94.055
0
LINE
8
BLACK
6
CONTINUOUS
10
145.542
20
-94.055
11
145.513
21
-94.2023
0
LINE
8
BLACK
6
CONTINUOUS
10
145.513
20
-94.2023
11
145.455
21
-94.3409
0
LINE
8
BLACK
6
CONTINUOUS
10
145.455
20
-94.3409
11
145.372
21
-94.4657
0
LINE
8
BLACK
6
CONTINUOUS
10
145.372
20
-94.4657
11
145.266
21
-94.5719
0
LINE
8
BLACK
6
CONTINUOUS
10
145.266
20
-94.5719
11
145.141
21
-94.6553
0
LINE
8
BLACK
6
CONTINUOUS
10
145.141
20
-94.6553
11
145.002
21
-94.7127
0
LINE
8
BLACK
6
CONTINUOUS
10
145.002
20
-94.7127
11
144.855
21
-94.742
0
LINE
8
BLACK
6
CONTINUOUS
10
144.855
20
-94.742
11
144.705
21
-94.742
0
LINE
8
BLACK
6
CONTINUOUS
10
144.705
20
-94.742
11
144.558
21
-94.7127
0
LINE
8
BLACK
6
CONTINUOUS
10
144.558
20
-94.7127
11
144.419
21
-94.6553
0
LINE
8
BLACK
6
CONTINUOUS
10
144.419
20
-94.6553
11
144.359
21
-94.615
0
LINE
8
BLACK
6
CONTINUOUS
10
144.359
20
-94.615
11
142.503
21
-94.615
0
LINE
8
BLACK
6
CONTINUOUS
10
142.503
20
-94.615
11
140.735
21
-96.383
0
LINE
8
BLACK
6
CONTINUOUS
10
140.735
20
-96.383
11
140.735
21
-100.247
0
LINE
8
BLACK
6
CONTINUOUS
10
140.735
20
-100.247
11
140.738
21
-100.278
0
LINE
8
BLACK
6
CONTINUOUS
10
140.738
20
-100.278
11
140.726
21
-100.402
0
LINE
8
BLACK
6
CONTINUOUS
10
140.726
20
-100.402
11
140.69
21
-100.522
0
LINE
8
BLACK
6
CONTINUOUS
10
140.69
20
-100.522
11
140.631
21
-100.632
0
LINE
8
BLACK
6
CONTINUOUS
10
140.631
20
-100.632
11
140.571
21
-100.705
0
LINE
8
BLACK
6
CONTINUOUS
10
140.571
20
-100.705
11
140.571
21
-100.705
0
LINE
8
BLACK
6
CONTINUOUS
10
140.571
20
-100.705
11
140.551
21
-100.729
0
LINE
8
BLACK
6
CONTINUOUS
10
140.551
20
-100.729
11
140.527
21
-100.749
0
LINE
8
BLACK
6
CONTINUOUS
10
140.527
20
-100.749
11
138.684
21
-102.592
0
LINE
8
BLACK
6
CONTINUOUS
10
138.684
20
-102.592
11
138.664
21
-102.616
0
LINE
8
BLACK
6
CONTINUOUS
10
138.664
20
-102.616
11
138.64
21
-102.636
0
LINE
8
BLACK
6
CONTINUOUS
10
138.64
20
-102.636
11
138.567
21
-102.696
0
LINE
8
BLACK
6
CONTINUOUS
10
138.567
20
-102.696
11
138.457
21
-102.755
0
LINE
8
BLACK
6
CONTINUOUS
10
138.457
20
-102.755
11
138.374
21
-102.78
0
LINE
8
BLACK
6
CONTINUOUS
10
138.374
20
-102.78
11
138.337
21
-102.791
0
LINE
8
BLACK
6
CONTINUOUS
10
138.337
20
-102.791
11
138.244
21
-102.8
0
LINE
8
BLACK
6
CONTINUOUS
10
138.244
20
-102.8
11
138.244
21
-102.8
0
LINE
8
BLACK
6
CONTINUOUS
10
138.244
20
-102.8
11
138.213
21
-102.803
0
LINE
8
BLACK
6
CONTINUOUS
10
138.213
20
-102.803
11
138.182
21
-102.8
0
LINE
8
BLACK
6
CONTINUOUS
10
138.182
20
-102.8
11
130.136
21
-102.8
0
LINE
8
BLACK
6
CONTINUOUS
10
130.136
20
-102.8
11
130.105
21
-102.803
0
LINE
8
BLACK
6
CONTINUOUS
10
130.105
20
-102.803
11
130.074
21
-102.8
0
LINE
8
BLACK
6
CONTINUOUS
10
130.074
20
-102.8
11
130.074
21
-102.8
0
LINE
8
BLACK
6
CONTINUOUS
10
130.074
20
-102.8
11
129.981
21
-102.791
0
LINE
8
BLACK
6
CONTINUOUS
10
129.981
20
-102.791
11
129.897
21
-102.766
0
LINE
8
BLACK
6
CONTINUOUS
10
129.897
20
-102.766
11
129.861
21
-102.755
0
LINE
8
BLACK
6
CONTINUOUS
10
129.861
20
-102.755
11
129.751
21
-102.696
0
LINE
8
BLACK
6
CONTINUOUS
10
129.751
20
-102.696
11
129.678
21
-102.636
0
LINE
8
BLACK
6
CONTINUOUS
10
129.678
20
-102.636
11
129.678
21
-102.636
0
LINE
8
BLACK
6
CONTINUOUS
10
129.678
20
-102.636
11
129.654
21
-102.616
0
LINE
8
BLACK
6
CONTINUOUS
10
129.654
20
-102.616
11
129.634
21
-102.592
0
LINE
8
BLACK
6
CONTINUOUS
10
129.634
20
-102.592
11
119.277
21
-92.2352
0
LINE
8
BLACK
6
CONTINUOUS
10
119.277
20
-92.2352
11
119.147
21
-92.2093
0
LINE
8
BLACK
6
CONTINUOUS
10
119.147
20
-92.2093
11
119.001
21
-92.149
0
LINE
8
BLACK
6
CONTINUOUS
10
119.001
20
-92.149
11
118.87
21
-92.0614
0
LINE
8
BLACK
6
CONTINUOUS
10
118.87
20
-92.0614
11
118.759
21
-91.95
0
LINE
8
BLACK
6
CONTINUOUS
10
118.759
20
-91.95
11
118.671
21
-91.8189
0
LINE
8
BLACK
6
CONTINUOUS
10
118.671
20
-91.8189
11
118.611
21
-91.6734
0
LINE
8
BLACK
6
CONTINUOUS
10
118.611
20
-91.6734
11
118.58
21
-91.5188
0
LINE
8
BLACK
6
CONTINUOUS
10
118.58
20
-91.5188
11
118.58
21
-91.3612
0
LINE
8
BLACK
6
CONTINUOUS
10
118.58
20
-91.3612
11
118.611
21
-91.2066
0
LINE
8
BLACK
6
CONTINUOUS
10
118.611
20
-91.2066
11
118.671
21
-91.0611
0
LINE
8
BLACK
6
CONTINUOUS
10
118.671
20
-91.0611
11
118.759
21
-90.93
0
LINE
8
BLACK
6
CONTINUOUS
10
118.759
20
-90.93
11
118.87
21
-90.8186
0
LINE
8
BLACK
6
CONTINUOUS
10
118.87
20
-90.8186
11
119.001
21
-90.731
0
LINE
8
BLACK
6
CONTINUOUS
10
119.001
20
-90.731
11
119.147
21
-90.6707
0
LINE
8
BLACK
6
CONTINUOUS
10
119.147
20
-90.6707
11
119.301
21
-90.64
0
LINE
8
BLACK
6
CONTINUOUS
10
119.301
20
-90.64
11
119.459
21
-90.64
0
LINE
8
BLACK
6
CONTINUOUS
10
119.459
20
-90.64
11
119.613
21
-90.6707
0
LINE
8
BLACK
6
CONTINUOUS
10
119.613
20
-70.3507
11
119.759
21
-70.411
0
LINE
8
BLACK
6
CONTINUOUS
10
119.759
20
-70.411
11
119.89
21
-70.4986
0
LINE
8
BLACK
6
CONTINUOUS
10
119.89
20
-70.4986
11
120.001
21
-70.61
0
LINE
8
BLACK
6
CONTINUOUS
10
120.001
20
-70.61
11
120.089
21
-70.7411
0
LINE
8
BLACK
6
CONTINUOUS
10
120.089
20
-70.7411
11
120.149
21
-70.8866
0
LINE
8
BLACK
6
CONTINUOUS
10
120.149
20
-70.8866
11
120.175
21
-71.0172
0
LINE
8
BLACK
6
CONTINUOUS
10
120.175
20
-71.0172
11
121.442
21
-72.2839
0
LINE
8
BLACK
6
CONTINUOUS
10
121.442
20
-72.2839
11
121.466
21
-72.3038
0
LINE
8
BLACK
6
CONTINUOUS
10
121.466
20
-72.3038
11
121.486
21
-72.328
0
LINE
8
BLACK
6
CONTINUOUS
10
121.486
20
-72.328
11
121.486
21
-72.328
0
LINE
8
BLACK
6
CONTINUOUS
10
121.486
20
-72.328
11
121.546
21
-72.4005
0
LINE
8
BLACK
6
CONTINUOUS
10
121.546
20
-72.4005
11
121.586
21
-72.4762
0
LINE
8
BLACK
6
CONTINUOUS
10
121.586
20
-72.4762
11
121.605
21
-72.5108
0
LINE
8
BLACK
6
CONTINUOUS
10
121.605
20
-72.5108
11
121.641
21
-72.6305
0
LINE
8
BLACK
6
CONTINUOUS
10
121.641
20
-72.6305
11
121.65
21
-72.7238
0
LINE
8
BLACK
6
CONTINUOUS
10
121.65
20
-72.7238
11
121.653
21
-72.755
0
LINE
8
BLACK
6
CONTINUOUS
10
121.653
20
-72.755
11
121.65
21
-72.7862
0
LINE
8
BLACK
6
CONTINUOUS
10
121.65
20
-72.7862
11
121.65
21
-87.6118
0
LINE
8
BLACK
6
CONTINUOUS
10
121.65
20
-87.6118
11
134.098
21
-100.06
0
LINE
8
BLACK
6
CONTINUOUS
10
134.098
20
-100.06
11
137.341
21
-100.06
0
LINE
8
BLACK
6
CONTINUOUS
10
137.341
20
-100.06
11
137.995
21
-99.4059
0
LINE
8
BLACK
6
CONTINUOUS
10
137.995
20
-99.4059
11
137.995
21
-95.4812
0
LINE
8
BLACK
6
CONTINUOUS
10
137.995
20
-95.4812
11
137.992
21
-95.45
0
LINE
8
BLACK
6
CONTINUOUS
10
137.992
20
-95.45
11
138.004
21
-95.3255
0
LINE
8
BLACK
6
CONTINUOUS
10
138.004
20
-95.3255
11
138.041
21
-95.2058
0
LINE
8
BLACK
6
CONTINUOUS
10
138.041
20
-95.2058
11
138.099
21
-95.0955
0
LINE
8
BLACK
6
CONTINUOUS
10
138.099
20
-95.0955
11
138.158
21
-95.0242
0
LINE
8
BLACK
6
CONTINUOUS
10
138.158
20
-95.0242
11
138.179
21
-94.9988
0
LINE
8
BLACK
6
CONTINUOUS
10
138.179
20
-94.9988
11
138.203
21
-94.9789
0
LINE
8
BLACK
6
CONTINUOUS
10
138.203
20
-94.9789
11
142.169
21
-91.013
0
LINE
8
BLACK
6
CONTINUOUS
10
142.169
20
-91.013
11
142.189
21
-90.9888
0
LINE
8
BLACK
6
CONTINUOUS
10
142.189
20
-90.9888
11
142.213
21
-90.9689
0
LINE
8
BLACK
6
CONTINUOUS
10
142.213
20
-90.9689
11
142.213
21
-90.9689
0
LINE
8
BLACK
6
CONTINUOUS
10
142.213
20
-90.9689
11
142.286
21
-90.9095
0
LINE
8
BLACK
6
CONTINUOUS
10
142.286
20
-90.9095
11
142.396
21
-90.8505
0
LINE
8
BLACK
6
CONTINUOUS
10
142.396
20
-90.8505
11
142.516
21
-90.8142
0
LINE
8
BLACK
6
CONTINUOUS
10
142.516
20
-90.8142
11
142.609
21
-90.805
0
LINE
8
BLACK
6
CONTINUOUS
10
142.609
20
-90.805
11
142.609
21
-90.805
0
LINE
8
BLACK
6
CONTINUOUS
10
142.609
20
-90.805
11
142.64
21
-90.8019
0
LINE
8
BLACK
6
CONTINUOUS
10
142.64
20
-90.8019
11
142.671
21
-90.805
0
LINE
8
BLACK
6
CONTINUOUS
10
142.671
20
-90.805
11
144.018
21
-90.805
0
LINE
8
BLACK
6
CONTINUOUS
10
144.018
20
-90.805
11
144.018
21
-90.678
0
LINE
8
BLACK
6
CONTINUOUS
10
144.018
20
-90.678
11
145.542
21
-90.678
0
LINE
8
BLACK
6
CONTINUOUS
10
145.542
20
-90.678
11
145.542
21
-92.202
0
LINE
8
BLACK
6
CONTINUOUS
10
145.542
20
-92.202
11
144.018
21
-92.202
0
LINE
8
BLACK
6
CONTINUOUS
10
144.018
20
-92.202
11
144.018
21
-92.075
0
LINE
8
BLACK
6
CONTINUOUS
10
144.018
20
-92.075
11
142.903
21
-92.075
0
LINE
8
BLACK
6
CONTINUOUS
10
142.903
20
-92.075
11
139.265
21
-95.713
0
LINE
8
BLACK
6
CONTINUOUS
10
139.265
20
-95.713
11
139.265
21
-99.6377
0
LINE
8
BLACK
6
CONTINUOUS
10
139.265
20
-99.6377
11
139.268
21
-99.6689
0
LINE
8
BLACK
6
CONTINUOUS
10
139.268
20
-99.6689
11
139.265
21
-99.7001
0
LINE
8
BLACK
6
CONTINUOUS
10
139.265
20
-99.7001
11
139.265
21
-99.7001
0
LINE
8
BLACK
6
CONTINUOUS
10
139.265
20
-99.7001
11
139.256
21
-99.7934
0
LINE
8
BLACK
6
CONTINUOUS
10
139.256
20
-99.7934
11
139.222
21
-99.9049
0
LINE
8
BLACK
6
CONTINUOUS
10
139.222
20
-99.9049
11
139.22
21
-99.9131
0
LINE
8
BLACK
6
CONTINUOUS
10
139.22
20
-99.9131
11
139.161
21
-100.023
0
LINE
8
BLACK
6
CONTINUOUS
10
139.161
20
-100.023
11
139.101
21
-100.096
0
LINE
8
BLACK
6
CONTINUOUS
10
139.101
20
-100.096
11
139.101
21
-100.096
0
LINE
8
BLACK
6
CONTINUOUS
10
139.101
20
-100.096
11
139.081
21
-100.12
0
LINE
8
BLACK
6
CONTINUOUS
10
139.081
20
-100.12
11
139.057
21
-100.14
0
LINE
8
BLACK
6
CONTINUOUS
10
139.057
20
-100.14
11
138.075
21
-101.122
0
LINE
8
BLACK
6
CONTINUOUS
10
138.075
20
-101.122
11
138.055
21
-101.146
0
LINE
8
BLACK
6
CONTINUOUS
10
138.055
20
-101.146
11
137.958
21
-101.226
0
LINE
8
BLACK
6
CONTINUOUS
10
137.958
20
-101.226
11
137.848
21
-101.285
0
LINE
8
BLACK
6
CONTINUOUS
10
137.848
20
-101.285
11
137.728
21
-101.321
0
LINE
8
BLACK
6
CONTINUOUS
10
137.728
20
-101.321
11
137.635
21
-101.33
0
LINE
8
BLACK
6
CONTINUOUS
10
137.635
20
-101.33
11
137.635
21
-101.33
0
LINE
8
BLACK
6
CONTINUOUS
10
137.635
20
-101.33
11
137.604
21
-101.333
0
LINE
8
BLACK
6
CONTINUOUS
10
137.604
20
-101.333
11
137.573
21
-101.33
0
LINE
8
BLACK
6
CONTINUOUS
10
137.573
20
-101.33
11
133.866
21
-101.33
0
LINE
8
BLACK
6
CONTINUOUS
10
133.866
20
-101.33
11
133.835
21
-101.333
0
LINE
8
BLACK
6
CONTINUOUS
10
133.835
20
-101.333
11
133.804
21
-101.33
0
LINE
8
BLACK
6
CONTINUOUS
10
133.804
20
-101.33
11
133.804
21
-101.33
0
LINE
8
BLACK
6
CONTINUOUS
10
133.804
20
-101.33
11
133.711
21
-101.321
0
LINE
8
BLACK
6
CONTINUOUS
10
133.711
20
-101.321
11
133.591
21
-101.285
0
LINE
8
BLACK
6
CONTINUOUS
10
133.591
20
-101.285
11
133.481
21
-101.226
0
LINE
8
BLACK
6
CONTINUOUS
10
133.481
20
-101.226
11
133.408
21
-101.166
0
LINE
8
BLACK
6
CONTINUOUS
10
133.408
20
-101.166
11
133.384
21
-101.146
0
LINE
8
BLACK
6
CONTINUOUS
10
133.384
20
-101.146
11
133.364
21
-101.122
0
LINE
8
BLACK
6
CONTINUOUS
10
133.364
20
-101.122
11
120.588
21
-88.3459
0
LINE
8
BLACK
6
CONTINUOUS
10
120.588
20
-88.3459
11
120.564
21
-88.326
0
LINE
8
BLACK
6
CONTINUOUS
10
120.564
20
-88.326
11
120.484
21
-88.2293
0
LINE
8
BLACK
6
CONTINUOUS
10
120.484
20
-88.2293
11
120.484
21
-88.2293
0
LINE
8
BLACK
6
CONTINUOUS
10
120.484
20
-88.2293
11
120.425
21
-88.119
0
LINE
8
BLACK
6
CONTINUOUS
10
120.425
20
-88.119
11
120.389
21
-87.9993
0
LINE
8
BLACK
6
CONTINUOUS
10
120.389
20
-87.9993
11
120.377
21
-87.8748
0
LINE
8
BLACK
6
CONTINUOUS
10
120.377
20
-87.8748
11
120.38
21
-87.8436
0
LINE
8
BLACK
6
CONTINUOUS
10
120.38
20
-87.8436
11
120.38
21
-73.018
0
LINE
8
BLACK
6
CONTINUOUS
10
120.38
20
-73.018
11
119.277
21
-71.9152
0
LINE
8
BLACK
6
CONTINUOUS
10
119.277
20
-71.9152
11
119.147
21
-71.8893
0
LINE
8
BLACK
6
CONTINUOUS
10
119.147
20
-71.8893
11
119.001
21
-71.829
0
LINE
8
BLACK
6
CONTINUOUS
10
119.001
20
-71.829
11
118.87
21
-71.7414
0
LINE
8
BLACK
6
CONTINUOUS
10
118.87
20
-71.7414
11
118.759
21
-71.63
0
LINE
8
BLACK
6
CONTINUOUS
10
118.759
20
-71.63
11
118.671
21
-71.4989
0
LINE
8
BLACK
6
CONTINUOUS
10
118.671
20
-71.4989
11
118.611
21
-71.3534
0
LINE
8
BLACK
6
CONTINUOUS
10
118.611
20
-71.3534
11
118.58
21
-71.1988
0
LINE
8
BLACK
6
CONTINUOUS
10
118.58
20
-71.1988
11
118.58
21
-71.0412
0
LINE
8
BLACK
6
CONTINUOUS
10
118.58
20
-71.0412
11
118.611
21
-70.8866
0
LINE
8
BLACK
6
CONTINUOUS
10
118.611
20
-70.8866
11
118.671
21
-70.7411
0
LINE
8
BLACK
6
CONTINUOUS
10
118.671
20
-70.7411
11
118.759
21
-70.61
0
LINE
8
BLACK
6
CONTINUOUS
10
118.759
20
-70.61
11
118.87
21
-70.4986
0
LINE
8
BLACK
6
CONTINUOUS
10
118.87
20
-70.4986
11
119.001
21
-70.411
0
LINE
8
BLACK
6
CONTINUOUS
10
119.001
20
-70.411
11
119.147
21
-70.3507
0
LINE
8
BLACK
6
CONTINUOUS
10
119.147
20
-70.3507
11
119.301
21
-70.32
0
LINE
8
BLACK
6
CONTINUOUS
10
119.301
20
-70.32
11
119.459
21
-70.32
0
LINE
8
BLACK
6
CONTINUOUS
10
119.459
20
-70.32
11
119.613
21
-70.3507
0
LINE
8
BLACK
6
CONTINUOUS
10
145.002
20
-95.7873
11
145.141
21
-95.8447
0
LINE
8
BLACK
6
CONTINUOUS
10
145.141
20
-95.8447
11
145.266
21
-95.9281
0
LINE
8
BLACK
6
CONTINUOUS
10
145.266
20
-95.9281
11
145.372
21
-96.0343
0
LINE
8
BLACK
6
CONTINUOUS
10
145.372
20
-96.0343
11
145.455
21
-96.1591
0
LINE
8
BLACK
6
CONTINUOUS
10
145.455
20
-96.1591
11
145.513
21
-96.2977
0
LINE
8
BLACK
6
CONTINUOUS
10
145.513
20
-96.2977
11
145.542
21
-96.4449
0
LINE
8
BLACK
6
CONTINUOUS
10
145.542
20
-96.4449
11
145.542
21
-96.5951
0
LINE
8
BLACK
6
CONTINUOUS
10
145.542
20
-96.5951
11
145.513
21
-96.7423
0
LINE
8
BLACK
6
CONTINUOUS
10
145.513
20
-96.7423
11
145.455
21
-96.8809
0
LINE
8
BLACK
6
CONTINUOUS
10
145.455
20
-96.8809
11
145.372
21
-97.0057
0
LINE
8
BLACK
6
CONTINUOUS
10
145.372
20
-97.0057
11
145.266
21
-97.1119
0
LINE
8
BLACK
6
CONTINUOUS
10
145.266
20
-97.1119
11
145.141
21
-97.1953
0
LINE
8
BLACK
6
CONTINUOUS
10
145.141
20
-97.1953
11
145.002
21
-97.2527
0
LINE
8
BLACK
6
CONTINUOUS
10
145.002
20
-97.2527
11
144.931
21
-97.2669
0
LINE
8
BLACK
6
CONTINUOUS
10
144.931
20
-97.2669
11
143.239
21
-98.9586
0
LINE
8
BLACK
6
CONTINUOUS
10
143.239
20
-98.9586
11
143.24
21
-98.9615
0
LINE
8
BLACK
6
CONTINUOUS
10
143.24
20
-98.9615
11
143.24
21
-99.1585
0
LINE
8
BLACK
6
CONTINUOUS
10
143.24
20
-99.1585
11
143.202
21
-99.3517
0
LINE
8
BLACK
6
CONTINUOUS
10
143.202
20
-99.3517
11
143.126
21
-99.5337
0
LINE
8
BLACK
6
CONTINUOUS
10
143.126
20
-99.5337
11
143.017
21
-99.6975
0
LINE
8
BLACK
6
CONTINUOUS
10
143.017
20
-99.6975
11
142.877
21
-99.8368
0
LINE
8
BLACK
6
CONTINUOUS
10
142.877
20
-99.8368
11
142.714
21
-99.9462
0
LINE
8
BLACK
6
CONTINUOUS
10
142.714
20
-99.9462
11
142.532
21
-100.022
0
LINE
8
BLACK
6
CONTINUOUS
10
142.532
20
-100.022
11
142.338
21
-100.06
0
LINE
8
BLACK
6
CONTINUOUS
10
142.338
20
-100.06
11
142.142
21
-100.06
0
LINE
8
BLACK
6
CONTINUOUS
10
142.142
20
-100.06
11
141.948
21
-100.022
0
LINE
8
BLACK
6
CONTINUOUS
10
141.948
20
-100.022
11
141.766
21
-99.9462
0
LINE
8
BLACK
6
CONTINUOUS
10
141.766
20
-99.9462
11
141.603
21
-99.8368
0
LINE
8
BLACK
6
CONTINUOUS
10
141.603
20
-99.8368
11
141.463
21
-99.6975
0
LINE
8
BLACK
6
CONTINUOUS
10
141.463
20
-99.6975
11
141.354
21
-99.5337
0
LINE
8
BLACK
6
CONTINUOUS
10
141.354
20
-99.5337
11
141.278
21
-99.3517
0
LINE
8
BLACK
6
CONTINUOUS
10
141.278
20
-99.3517
11
141.24
21
-99.1585
0
LINE
8
BLACK
6
CONTINUOUS
10
141.24
20
-99.1585
11
141.24
21
-98.9615
0
LINE
8
BLACK
6
CONTINUOUS
10
141.24
20
-98.9615
11
141.278
21
-98.7683
0
LINE
8
BLACK
6
CONTINUOUS
10
141.278
20
-98.7683
11
141.354
21
-98.5863
0
LINE
8
BLACK
6
CONTINUOUS
10
141.354
20
-98.5863
11
141.463
21
-98.4225
0
LINE
8
BLACK
6
CONTINUOUS
10
141.463
20
-98.4225
11
141.603
21
-98.2832
0
LINE
8
BLACK
6
CONTINUOUS
10
141.603
20
-98.2832
11
141.766
21
-98.1738
0
LINE
8
BLACK
6
CONTINUOUS
10
141.766
20
-98.1738
11
141.948
21
-98.0984
0
LINE
8
BLACK
6
CONTINUOUS
10
141.948
20
-98.0984
11
142.142
21
-98.06
0
LINE
8
BLACK
6
CONTINUOUS
10
142.142
20
-98.06
11
142.338
21
-98.06
0
LINE
8
BLACK
6
CONTINUOUS
10
142.338
20
-98.06
11
142.341
21
-98.0606
0
LINE
8
BLACK
6
CONTINUOUS
10
142.341
20
-98.0606
11
144.033
21
-96.3688
0
LINE
8
BLACK
6
CONTINUOUS
10
144.033
20
-96.3688
11
144.047
21
-96.2977
0
LINE
8
BLACK
6
CONTINUOUS
10
144.047
20
-96.2977
11
144.105
21
-96.1591
0
LINE
8
BLACK
6
CONTINUOUS
10
144.105
20
-96.1591
11
144.188
21
-96.0343
0
LINE
8
BLACK
6
CONTINUOUS
10
144.188
20
-96.0343
11
144.294
21
-95.9281
0
LINE
8
BLACK
6
CONTINUOUS
10
144.294
20
-95.9281
11
144.419
21
-95.8447
0
LINE
8
BLACK
6
CONTINUOUS
10
144.419
20
-95.8447
11
144.558
21
-95.7873
0
LINE
8
BLACK
6
CONTINUOUS
10
144.558
20
-95.7873
11
144.705
21
-95.758
0
LINE
8
BLACK
6
CONTINUOUS
10
144.705
20
-95.758
11
144.855
21
-95.758
0
LINE
8
BLACK
6
CONTINUOUS
10
144.855
20
-95.758
11
145.002
21
-95.7873
0
LINE
8
BLACK
6
CONTINUOUS
10
137.452
20
-91.7484
11
137.634
21
-91.8238
0
LINE
8
BLACK
6
CONTINUOUS
10
137.634
20
-91.8238
11
137.797
21
-91.9332
0
LINE
8
BLACK
6
CONTINUOUS
10
137.797
20
-91.9332
11
137.937
21
-92.0725
0
LINE
8
BLACK
6
CONTINUOUS
10
137.937
20
-92.0725
11
138.046
21
-92.2363
0
LINE
8
BLACK
6
CONTINUOUS
10
138.046
20
-92.2363
11
138.122
21
-92.4183
0
LINE
8
BLACK
6
CONTINUOUS
10
138.122
20
-92.4183
11
138.16
21
-92.6115
0
LINE
8
BLACK
6
CONTINUOUS
10
138.16
20
-92.6115
11
138.16
21
-92.8085
0
LINE
8
BLACK
6
CONTINUOUS
10
138.16
20
-92.8085
11
138.122
21
-93.0017
0
LINE
8
BLACK
6
CONTINUOUS
10
138.122
20
-93.0017
11
138.046
21
-93.1837
0
LINE
8
BLACK
6
CONTINUOUS
10
138.046
20
-93.1837
11
137.937
21
-93.3475
0
LINE
8
BLACK
6
CONTINUOUS
10
137.937
20
-93.3475
11
137.797
21
-93.4868
0
LINE
8
BLACK
6
CONTINUOUS
10
137.797
20
-93.4868
11
137.795
21
-93.4884
0
LINE
8
BLACK
6
CONTINUOUS
10
137.795
20
-93.4884
11
137.795
21
-99.0288
0
LINE
8
BLACK
6
CONTINUOUS
10
137.795
20
-99.0288
11
137.798
21
-99.06
0
LINE
8
BLACK
6
CONTINUOUS
10
137.798
20
-99.06
11
137.786
21
-99.1845
0
LINE
8
BLACK
6
CONTINUOUS
10
137.786
20
-99.1845
11
137.75
21
-99.3042
0
LINE
8
BLACK
6
CONTINUOUS
10
137.75
20
-99.3042
11
137.691
21
-99.4145
0
LINE
8
BLACK
6
CONTINUOUS
10
137.691
20
-99.4145
11
137.611
21
-99.5112
0
LINE
8
BLACK
6
CONTINUOUS
10
137.611
20
-99.5112
11
137.514
21
-99.5905
0
LINE
8
BLACK
6
CONTINUOUS
10
137.514
20
-99.5905
11
137.404
21
-99.6495
0
LINE
8
BLACK
6
CONTINUOUS
10
137.404
20
-99.6495
11
137.284
21
-99.6858
0
LINE
8
BLACK
6
CONTINUOUS
10
137.284
20
-99.6858
11
137.191
21
-99.695
0
LINE
8
BLACK
6
CONTINUOUS
10
137.191
20
-99.695
11
137.191
21
-99.695
0
LINE
8
BLACK
6
CONTINUOUS
10
137.191
20
-99.695
11
137.16
21
-99.6981
0
LINE
8
BLACK
6
CONTINUOUS
10
137.16
20
-99.6981
11
137.129
21
-99.695
0
LINE
8
BLACK
6
CONTINUOUS
10
137.129
20
-99.695
11
135.11
21
-99.695
0
LINE
8
BLACK
6
CONTINUOUS
10
135.11
20
-99.695
11
134.999
21
-99.769
0
LINE
8
BLACK
6
CONTINUOUS
10
134.999
20
-99.769
11
134.853
21
-99.8293
0
LINE
8
BLACK
6
CONTINUOUS
10
134.853
20
-99.8293
11
134.699
21
-99.86
0
LINE
8
BLACK
6
CONTINUOUS
10
134.699
20
-99.86
11
134.541
21
-99.86
0
LINE
8
BLACK
6
CONTINUOUS
10
134.541
20
-99.86
11
134.387
21
-99.8293
0
LINE
8
BLACK
6
CONTINUOUS
10
134.387
20
-99.8293
11
134.241
21
-99.769
0
LINE
8
BLACK
6
CONTINUOUS
10
134.241
20
-99.769
11
134.11
21
-99.6814
0
LINE
8
BLACK
6
CONTINUOUS
10
134.11
20
-99.6814
11
133.999
21
-99.57
0
LINE
8
BLACK
6
CONTINUOUS
10
133.999
20
-99.57
11
133.911
21
-99.4389
0
LINE
8
BLACK
6
CONTINUOUS
10
133.911
20
-99.4389
11
133.851
21
-99.2934
0
LINE
8
BLACK
6
CONTINUOUS
10
133.851
20
-99.2934
11
133.82
21
-99.1388
0
LINE
8
BLACK
6
CONTINUOUS
10
133.82
20
-99.1388
11
133.82
21
-98.9812
0
LINE
8
BLACK
6
CONTINUOUS
10
133.82
20
-98.9812
11
133.851
21
-98.8266
0
LINE
8
BLACK
6
CONTINUOUS
10
133.851
20
-98.8266
11
133.911
21
-98.6811
0
LINE
8
BLACK
6
CONTINUOUS
10
133.911
20
-98.6811
11
133.999
21
-98.55
0
LINE
8
BLACK
6
CONTINUOUS
10
133.999
20
-98.55
11
134.11
21
-98.4386
0
LINE
8
BLACK
6
CONTINUOUS
10
134.11
20
-98.4386
11
134.241
21
-98.351
0
LINE
8
BLACK
6
CONTINUOUS
10
134.241
20
-98.351
11
134.387
21
-98.2907
0
LINE
8
BLACK
6
CONTINUOUS
10
134.387
20
-98.2907
11
134.541
21
-98.26
0
LINE
8
BLACK
6
CONTINUOUS
10
134.541
20
-98.26
11
134.699
21
-98.26
0
LINE
8
BLACK
6
CONTINUOUS
10
134.699
20
-98.26
11
134.853
21
-98.2907
0
LINE
8
BLACK
6
CONTINUOUS
10
134.853
20
-98.2907
11
134.999
21
-98.351
0
LINE
8
BLACK
6
CONTINUOUS
10
134.999
20
-98.351
11
135.11
21
-98.425
0
LINE
8
BLACK
6
CONTINUOUS
10
135.11
20
-98.425
11
136.525
21
-98.425
0
LINE
8
BLACK
6
CONTINUOUS
10
136.525
20
-98.425
11
136.525
21
-93.4884
0
LINE
8
BLACK
6
CONTINUOUS
10
136.525
20
-93.4884
11
136.523
21
-93.4868
0
LINE
8
BLACK
6
CONTINUOUS
10
136.523
20
-93.4868
11
136.383
21
-93.3475
0
LINE
8
BLACK
6
CONTINUOUS
10
136.383
20
-93.3475
11
136.274
21
-93.1837
0
LINE
8
BLACK
6
CONTINUOUS
10
136.274
20
-93.1837
11
136.198
21
-93.0017
0
LINE
8
BLACK
6
CONTINUOUS
10
136.198
20
-93.0017
11
136.16
21
-92.8085
0
LINE
8
BLACK
6
CONTINUOUS
10
136.16
20
-92.8085
11
136.16
21
-92.6115
0
LINE
8
BLACK
6
CONTINUOUS
10
136.16
20
-92.6115
11
136.198
21
-92.4183
0
LINE
8
BLACK
6
CONTINUOUS
10
136.198
20
-92.4183
11
136.274
21
-92.2363
0
LINE
8
BLACK
6
CONTINUOUS
10
136.274
20
-92.2363
11
136.383
21
-92.0725
0
LINE
8
BLACK
6
CONTINUOUS
10
136.383
20
-92.0725
11
136.523
21
-91.9332
0
LINE
8
BLACK
6
CONTINUOUS
10
136.523
20
-91.9332
11
136.686
21
-91.8238
0
LINE
8
BLACK
6
CONTINUOUS
10
136.686
20
-91.8238
11
136.868
21
-91.7484
0
LINE
8
BLACK
6
CONTINUOUS
10
136.868
20
-91.7484
11
137.062
21
-91.71
0
LINE
8
BLACK
6
CONTINUOUS
10
137.062
20
-91.71
11
137.258
21
-91.71
0
LINE
8
BLACK
6
CONTINUOUS
10
137.258
20
-91.71
11
137.452
21
-91.7484
0
LINE
8
BLACK
6
CONTINUOUS
10
147.542
20
-98.3273
11
147.681
21
-98.3847
0
LINE
8
BLACK
6
CONTINUOUS
10
147.681
20
-98.3847
11
147.806
21
-98.4681
0
LINE
8
BLACK
6
CONTINUOUS
10
147.806
20
-98.4681
11
147.912
21
-98.5743
0
LINE
8
BLACK
6
CONTINUOUS
10
147.912
20
-98.5743
11
147.995
21
-98.6991
0
LINE
8
BLACK
6
CONTINUOUS
10
147.995
20
-98.6991
11
148.053
21
-98.8377
0
LINE
8
BLACK
6
CONTINUOUS
10
148.053
20
-98.8377
11
148.082
21
-98.9849
0
LINE
8
BLACK
6
CONTINUOUS
10
148.082
20
-98.9849
11
148.082
21
-99.135
0
LINE
8
BLACK
6
CONTINUOUS
10
148.082
20
-99.135
11
148.053
21
-99.2823
0
LINE
8
BLACK
6
CONTINUOUS
10
148.053
20
-99.2823
11
147.995
21
-99.4209
0
LINE
8
BLACK
6
CONTINUOUS
10
147.995
20
-99.4209
11
147.912
21
-99.5457
0
LINE
8
BLACK
6
CONTINUOUS
10
147.912
20
-99.5457
11
147.806
21
-99.6519
0
LINE
8
BLACK
6
CONTINUOUS
10
147.806
20
-99.6519
11
147.681
21
-99.7353
0
LINE
8
BLACK
6
CONTINUOUS
10
147.681
20
-99.7353
11
147.542
21
-99.7927
0
LINE
8
BLACK
6
CONTINUOUS
10
147.542
20
-99.7927
11
147.395
21
-99.822
0
LINE
8
BLACK
6
CONTINUOUS
10
147.395
20
-99.822
11
147.245
21
-99.822
0
LINE
8
BLACK
6
CONTINUOUS
10
147.245
20
-99.822
11
147.098
21
-99.7927
0
LINE
8
BLACK
6
CONTINUOUS
10
147.098
20
-99.7927
11
146.959
21
-99.7353
0
LINE
8
BLACK
6
CONTINUOUS
10
146.959
20
-99.7353
11
146.834
21
-99.6519
0
LINE
8
BLACK
6
CONTINUOUS
10
146.834
20
-99.6519
11
146.728
21
-99.5457
0
LINE
8
BLACK
6
CONTINUOUS
10
146.728
20
-99.5457
11
146.645
21
-99.4209
0
LINE
8
BLACK
6
CONTINUOUS
10
146.645
20
-99.4209
11
146.587
21
-99.2823
0
LINE
8
BLACK
6
CONTINUOUS
10
146.587
20
-99.2823
11
146.558
21
-99.135
0
LINE
8
BLACK
6
CONTINUOUS
10
146.558
20
-99.135
11
146.558
21
-98.9849
0
LINE
8
BLACK
6
CONTINUOUS
10
146.558
20
-98.9849
11
146.587
21
-98.8377
0
LINE
8
BLACK
6
CONTINUOUS
10
146.587
20
-98.8377
11
146.645
21
-98.6991
0
LINE
8
BLACK
6
CONTINUOUS
10
146.645
20
-98.6991
11
146.728
21
-98.5743
0
LINE
8
BLACK
6
CONTINUOUS
10
146.728
20
-98.5743
11
146.834
21
-98.4681
0
LINE
8
BLACK
6
CONTINUOUS
10
146.834
20
-98.4681
11
146.959
21
-98.3847
0
LINE
8
BLACK
6
CONTINUOUS
10
146.959
20
-98.3847
11
147.098
21
-98.3273
0
LINE
8
BLACK
6
CONTINUOUS
10
147.098
20
-98.3273
11
147.245
21
-98.298
0
LINE
8
BLACK
6
CONTINUOUS
10
147.245
20
-98.298
11
147.395
21
-98.298
0
LINE
8
BLACK
6
CONTINUOUS
10
147.395
20
-98.298
11
147.542
21
-98.3273
0
LINE
8
BLACK
6
CONTINUOUS
10
134.853
20
-95.7507
11
134.999
21
-95.811
0
LINE
8
BLACK
6
CONTINUOUS
10
134.999
20
-95.811
11
135.13
21
-95.8986
0
LINE
8
BLACK
6
CONTINUOUS
10
135.13
20
-95.8986
11
135.241
21
-96.01
0
LINE
8
BLACK
6
CONTINUOUS
10
135.241
20
-96.01
11
135.329
21
-96.1411
0
LINE
8
BLACK
6
CONTINUOUS
10
135.329
20
-96.1411
11
135.389
21
-96.2866
0
LINE
8
BLACK
6
CONTINUOUS
10
135.389
20
-96.2866
11
135.42
21
-96.4412
0
LINE
8
BLACK
6
CONTINUOUS
10
135.42
20
-96.4412
11
135.42
21
-96.5988
0
LINE
8
BLACK
6
CONTINUOUS
10
135.42
20
-96.5988
11
135.389
21
-96.7534
0
LINE
8
BLACK
6
CONTINUOUS
10
135.389
20
-96.7534
11
135.329
21
-96.8989
0
LINE
8
BLACK
6
CONTINUOUS
10
135.329
20
-96.8989
11
135.241
21
-97.03
0
LINE
8
BLACK
6
CONTINUOUS
10
135.241
20
-97.03
11
135.13
21
-97.1414
0
LINE
8
BLACK
6
CONTINUOUS
10
135.13
20
-97.1414
11
134.999
21
-97.229
0
LINE
8
BLACK
6
CONTINUOUS
10
134.999
20
-97.229
11
134.853
21
-97.2893
0
LINE
8
BLACK
6
CONTINUOUS
10
134.853
20
-97.2893
11
134.699
21
-97.32
0
LINE
8
BLACK
6
CONTINUOUS
10
134.699
20
-97.32
11
134.541
21
-97.32
0
LINE
8
BLACK
6
CONTINUOUS
10
134.541
20
-97.32
11
134.387
21
-97.2893
0
LINE
8
BLACK
6
CONTINUOUS
10
134.387
20
-97.2893
11
134.241
21
-97.229
0
LINE
8
BLACK
6
CONTINUOUS
10
134.241
20
-97.229
11
134.11
21
-97.1414
0
LINE
8
BLACK
6
CONTINUOUS
10
134.11
20
-97.1414
11
133.999
21
-97.03
0
LINE
8
BLACK
6
CONTINUOUS
10
133.999
20
-97.03
11
133.911
21
-96.8989
0
LINE
8
BLACK
6
CONTINUOUS
10
133.911
20
-96.8989
11
133.851
21
-96.7534
0
LINE
8
BLACK
6
CONTINUOUS
10
133.851
20
-96.7534
11
133.82
21
-96.5988
0
LINE
8
BLACK
6
CONTINUOUS
10
133.82
20
-96.5988
11
133.82
21
-96.4412
0
LINE
8
BLACK
6
CONTINUOUS
10
133.82
20
-96.4412
11
133.851
21
-96.2866
0
LINE
8
BLACK
6
CONTINUOUS
10
133.851
20
-96.2866
11
133.911
21
-96.1411
0
LINE
8
BLACK
6
CONTINUOUS
10
133.911
20
-96.1411
11
133.999
21
-96.01
0
LINE
8
BLACK
6
CONTINUOUS
10
133.999
20
-96.01
11
134.11
21
-95.8986
0
LINE
8
BLACK
6
CONTINUOUS
10
134.11
20
-95.8986
11
134.241
21
-95.811
0
LINE
8
BLACK
6
CONTINUOUS
10
134.241
20
-95.811
11
134.387
21
-95.7507
0
LINE
8
BLACK
6
CONTINUOUS
10
134.387
20
-95.7507
11
134.541
21
-95.72
0
LINE
8
BLACK
6
CONTINUOUS
10
134.541
20
-95.72
11
134.699
21
-95.72
0
LINE
8
BLACK
6
CONTINUOUS
10
134.699
20
-95.72
11
134.853
21
-95.7507
0
LINE
8
BLACK
6
CONTINUOUS
10
134.853
20
-93.2107
11
134.999
21
-93.271
0
LINE
8
BLACK
6
CONTINUOUS
10
134.999
20
-93.271
11
135.13
21
-93.3586
0
LINE
8
BLACK
6
CONTINUOUS
10
135.13
20
-93.3586
11
135.241
21
-93.47
0
LINE
8
BLACK
6
CONTINUOUS
10
135.241
20
-93.47
11
135.329
21
-93.6011
0
LINE
8
BLACK
6
CONTINUOUS
10
135.329
20
-93.6011
11
135.389
21
-93.7466
0
LINE
8
BLACK
6
CONTINUOUS
10
135.389
20
-93.7466
11
135.42
21
-93.9012
0
LINE
8
BLACK
6
CONTINUOUS
10
135.42
20
-93.9012
11
135.42
21
-94.0588
0
LINE
8
BLACK
6
CONTINUOUS
10
135.42
20
-94.0588
11
135.389
21
-94.2134
0
LINE
8
BLACK
6
CONTINUOUS
10
135.389
20
-94.2134
11
135.329
21
-94.3589
0
LINE
8
BLACK
6
CONTINUOUS
10
135.329
20
-94.3589
11
135.241
21
-94.49
0
LINE
8
BLACK
6
CONTINUOUS
10
135.241
20
-94.49
11
135.13
21
-94.6014
0
LINE
8
BLACK
6
CONTINUOUS
10
135.13
20
-94.6014
11
134.999
21
-94.689
0
LINE
8
BLACK
6
CONTINUOUS
10
134.999
20
-94.689
11
134.853
21
-94.7493
0
LINE
8
BLACK
6
CONTINUOUS
10
134.853
20
-94.7493
11
134.699
21
-94.78
0
LINE
8
BLACK
6
CONTINUOUS
10
134.699
20
-94.78
11
134.541
21
-94.78
0
LINE
8
BLACK
6
CONTINUOUS
10
134.541
20
-94.78
11
134.387
21
-94.7493
0
LINE
8
BLACK
6
CONTINUOUS
10
134.387
20
-94.7493
11
134.241
21
-94.689
0
LINE
8
BLACK
6
CONTINUOUS
10
134.241
20
-94.689
11
134.11
21
-94.6014
0
LINE
8
BLACK
6
CONTINUOUS
10
134.11
20
-94.6014
11
133.999
21
-94.49
0
LINE
8
BLACK
6
CONTINUOUS
10
133.999
20
-94.49
11
133.911
21
-94.3589
0
LINE
8
BLACK
6
CONTINUOUS
10
133.911
20
-94.3589
11
133.851
21
-94.2134
0
LINE
8
BLACK
6
CONTINUOUS
10
133.851
20
-94.2134
11
133.82
21
-94.0588
0
LINE
8
BLACK
6
CONTINUOUS
10
133.82
20
-94.0588
11
133.82
21
-93.9012
0
LINE
8
BLACK
6
CONTINUOUS
10
133.82
20
-93.9012
11
133.851
21
-93.7466
0
LINE
8
BLACK
6
CONTINUOUS
10
133.851
20
-93.7466
11
133.911
21
-93.6011
0
LINE
8
BLACK
6
CONTINUOUS
10
133.911
20
-93.6011
11
133.999
21
-93.47
0
LINE
8
BLACK
6
CONTINUOUS
10
133.999
20
-93.47
11
134.11
21
-93.3586
0
LINE
8
BLACK
6
CONTINUOUS
10
134.11
20
-93.3586
11
134.241
21
-93.271
0
LINE
8
BLACK
6
CONTINUOUS
10
134.241
20
-93.271
11
134.387
21
-93.2107
0
LINE
8
BLACK
6
CONTINUOUS
10
134.387
20
-93.2107
11
134.541
21
-93.18
0
LINE
8
BLACK
6
CONTINUOUS
10
134.541
20
-93.18
11
134.699
21
-93.18
0
LINE
8
BLACK
6
CONTINUOUS
10
134.699
20
-93.18
11
134.853
21
-93.2107
0
LINE
8
BLACK
6
CONTINUOUS
10
134.853
20
-90.6707
11
134.999
21
-90.731
0
LINE
8
BLACK
6
CONTINUOUS
10
134.999
20
-90.731
11
135.13
21
-90.8186
0
LINE
8
BLACK
6
CONTINUOUS
10
135.13
20
-90.8186
11
135.241
21
-90.93
0
LINE
8
BLACK
6
CONTINUOUS
10
135.241
20
-90.93
11
135.329
21
-91.0611
0
LINE
8
BLACK
6
CONTINUOUS
10
135.329
20
-91.0611
11
135.389
21
-91.2066
0
LINE
8
BLACK
6
CONTINUOUS
10
135.389
20
-91.2066
11
135.42
21
-91.3612
0
LINE
8
BLACK
6
CONTINUOUS
10
135.42
20
-91.3612
11
135.42
21
-91.5188
0
LINE
8
BLACK
6
CONTINUOUS
10
135.42
20
-91.5188
11
135.389
21
-91.6734
0
LINE
8
BLACK
6
CONTINUOUS
10
135.389
20
-91.6734
11
135.329
21
-91.8189
0
LINE
8
BLACK
6
CONTINUOUS
10
135.329
20
-91.8189
11
135.241
21
-91.95
0
LINE
8
BLACK
6
CONTINUOUS
10
135.241
20
-91.95
11
135.13
21
-92.0614
0
LINE
8
BLACK
6
CONTINUOUS
10
135.13
20
-92.0614
11
134.999
21
-92.149
0
LINE
8
BLACK
6
CONTINUOUS
10
134.999
20
-92.149
11
134.853
21
-92.2093
0
LINE
8
BLACK
6
CONTINUOUS
10
134.853
20
-92.2093
11
134.699
21
-92.24
0
LINE
8
BLACK
6
CONTINUOUS
10
134.699
20
-92.24
11
134.541
21
-92.24
0
LINE
8
BLACK
6
CONTINUOUS
10
134.541
20
-92.24
11
134.387
21
-92.2093
0
LINE
8
BLACK
6
CONTINUOUS
10
134.387
20
-92.2093
11
134.241
21
-92.149
0
LINE
8
BLACK
6
CONTINUOUS
10
134.241
20
-92.149
11
134.11
21
-92.0614
0
LINE
8
BLACK
6
CONTINUOUS
10
134.11
20
-92.0614
11
133.999
21
-91.95
0
LINE
8
BLACK
6
CONTINUOUS
10
133.999
20
-91.95
11
133.911
21
-91.8189
0
LINE
8
BLACK
6
CONTINUOUS
10
133.911
20
-91.8189
11
133.851
21
-91.6734
0
LINE
8
BLACK
6
CONTINUOUS
10
133.851
20
-91.6734
11
133.82
21
-91.5188
0
LINE
8
BLACK
6
CONTINUOUS
10
133.82
20
-91.5188
11
133.82
21
-91.3612
0
LINE
8
BLACK
6
CONTINUOUS
10
133.82
20
-91.3612
11
133.851
21
-91.2066
0
LINE
8
BLACK
6
CONTINUOUS
10
133.851
20
-91.2066
11
133.911
21
-91.0611
0
LINE
8
BLACK
6
CONTINUOUS
10
133.911
20
-91.0611
11
133.999
21
-90.93
0
LINE
8
BLACK
6
CONTINUOUS
10
133.999
20
-90.93
11
134.11
21
-90.8186
0
LINE
8
BLACK
6
CONTINUOUS
10
134.11
20
-90.8186
11
134.241
21
-90.731
0
LINE
8
BLACK
6
CONTINUOUS
10
134.241
20
-90.731
11
134.387
21
-90.6707
0
LINE
8
BLACK
6
CONTINUOUS
10
134.387
20
-90.6707
11
134.541
21
-90.64
0
LINE
8
BLACK
6
CONTINUOUS
10
134.541
20
-90.64
11
134.699
21
-90.64
0
LINE
8
BLACK
6
CONTINUOUS
10
134.699
20
-90.64
11
134.853
21
-90.6707
0
LINE
8
BLACK
6
CONTINUOUS
10
147.995
20
-91.0791
11
148.053
21
-91.2177
0
LINE
8
BLACK
6
CONTINUOUS
10
148.053
20
-91.2177
11
148.082
21
-91.3649
0
LINE
8
BLACK
6
CONTINUOUS
10
148.082
20
-91.3649
11
148.082
21
-91.5151
0
LINE
8
BLACK
6
CONTINUOUS
10
148.082
20
-91.5151
11
148.053
21
-91.6623
0
LINE
8
BLACK
6
CONTINUOUS
10
148.053
20
-91.6623
11
147.995
21
-91.8009
0
LINE
8
BLACK
6
CONTINUOUS
10
147.995
20
-91.8009
11
147.912
21
-91.9257
0
LINE
8
BLACK
6
CONTINUOUS
10
147.912
20
-91.9257
11
147.806
21
-92.0319
0
LINE
8
BLACK
6
CONTINUOUS
10
147.806
20
-92.0319
11
147.681
21
-92.1153
0
LINE
8
BLACK
6
CONTINUOUS
10
147.681
20
-92.1153
11
147.542
21
-92.1727
0
LINE
8
BLACK
6
CONTINUOUS
10
147.542
20
-92.1727
11
147.395
21
-92.202
0
LINE
8
BLACK
6
CONTINUOUS
10
147.395
20
-92.202
11
147.245
21
-92.202
0
LINE
8
BLACK
6
CONTINUOUS
10
147.245
20
-92.202
11
147.098
21
-92.1727
0
LINE
8
BLACK
6
CONTINUOUS
10
147.098
20
-92.1727
11
146.959
21
-92.1153
0
LINE
8
BLACK
6
CONTINUOUS
10
146.959
20
-92.1153
11
146.834
21
-92.0319
0
LINE
8
BLACK
6
CONTINUOUS
10
146.834
20
-92.0319
11
146.728
21
-91.9257
0
LINE
8
BLACK
6
CONTINUOUS
10
146.728
20
-91.9257
11
146.645
21
-91.8009
0
LINE
8
BLACK
6
CONTINUOUS
10
146.645
20
-91.8009
11
146.587
21
-91.6623
0
LINE
8
BLACK
6
CONTINUOUS
10
146.587
20
-91.6623
11
146.558
21
-91.5151
0
LINE
8
BLACK
6
CONTINUOUS
10
146.558
20
-91.5151
11
146.558
21
-91.3649
0
LINE
8
BLACK
6
CONTINUOUS
10
146.558
20
-91.3649
11
146.587
21
-91.2177
0
LINE
8
BLACK
6
CONTINUOUS
10
146.587
20
-91.2177
11
146.645
21
-91.0791
0
LINE
8
BLACK
6
CONTINUOUS
10
146.645
20
-91.0791
11
146.685
21
-91.0188
0
LINE
8
BLACK
6
CONTINUOUS
10
146.685
20
-91.0188
11
146.685
21
-90.3312
0
LINE
8
BLACK
6
CONTINUOUS
10
146.685
20
-90.3312
11
146.685
21
-90.3312
0
LINE
8
BLACK
6
CONTINUOUS
10
146.685
20
-90.3312
11
146.685
21
-84.0476
0
LINE
8
BLACK
6
CONTINUOUS
10
146.685
20
-84.0476
11
145.226
21
-82.5888
0
LINE
8
BLACK
6
CONTINUOUS
10
145.226
20
-82.5888
11
145.178
21
-82.563
0
LINE
8
BLACK
6
CONTINUOUS
10
145.178
20
-82.563
11
145.106
21
-82.5036
0
LINE
8
BLACK
6
CONTINUOUS
10
145.106
20
-82.5036
11
145.106
21
-82.5036
0
LINE
8
BLACK
6
CONTINUOUS
10
145.106
20
-82.5036
11
145.081
21
-82.4837
0
LINE
8
BLACK
6
CONTINUOUS
10
145.081
20
-82.4837
11
145.061
21
-82.4594
0
LINE
8
BLACK
6
CONTINUOUS
10
145.061
20
-82.4594
11
144.834
21
-82.2325
0
LINE
8
BLACK
6
CONTINUOUS
10
144.834
20
-82.2325
11
144.686
21
-82.2325
0
LINE
8
BLACK
6
CONTINUOUS
10
144.686
20
-82.2325
11
144.546
21
-82.2187
0
LINE
8
BLACK
6
CONTINUOUS
10
144.546
20
-82.2187
11
144.366
21
-82.1643
0
LINE
8
BLACK
6
CONTINUOUS
10
144.366
20
-82.1643
11
144.201
21
-82.0758
0
LINE
8
BLACK
6
CONTINUOUS
10
144.201
20
-82.0758
11
144.056
21
-81.9568
0
LINE
8
BLACK
6
CONTINUOUS
10
144.056
20
-81.9568
11
143.937
21
-81.8117
0
LINE
8
BLACK
6
CONTINUOUS
10
143.937
20
-81.8117
11
143.848
21
-81.6463
0
LINE
8
BLACK
6
CONTINUOUS
10
143.848
20
-81.6463
11
143.794
21
-81.4667
0
LINE
8
BLACK
6
CONTINUOUS
10
143.794
20
-81.4667
11
143.775
21
-81.28
0
LINE
8
BLACK
6
CONTINUOUS
10
143.775
20
-81.28
11
143.794
21
-81.0933
0
LINE
8
BLACK
6
CONTINUOUS
10
143.794
20
-81.0933
11
143.848
21
-80.9137
0
LINE
8
BLACK
6
CONTINUOUS
10
143.848
20
-80.9137
11
143.937
21
-80.7483
0
LINE
8
BLACK
6
CONTINUOUS
10
143.937
20
-80.7483
11
144.056
21
-80.6032
0
LINE
8
BLACK
6
CONTINUOUS
10
144.056
20
-80.6032
11
144.201
21
-80.4842
0
LINE
8
BLACK
6
CONTINUOUS
10
144.201
20
-80.4842
11
144.366
21
-80.3957
0
LINE
8
BLACK
6
CONTINUOUS
10
144.366
20
-80.3957
11
144.546
21
-80.3413
0
LINE
8
BLACK
6
CONTINUOUS
10
144.546
20
-80.3413
11
144.686
21
-80.3275
0
LINE
8
BLACK
6
CONTINUOUS
10
144.686
20
-80.3275
11
144.874
21
-80.3275
0
LINE
8
BLACK
6
CONTINUOUS
10
144.874
20
-80.3275
11
145.014
21
-80.3413
0
LINE
8
BLACK
6
CONTINUOUS
10
145.014
20
-80.3413
11
145.194
21
-80.3957
0
LINE
8
BLACK
6
CONTINUOUS
10
145.194
20
-80.3957
11
145.359
21
-80.4842
0
LINE
8
BLACK
6
CONTINUOUS
10
145.359
20
-80.4842
11
145.504
21
-80.6032
0
LINE
8
BLACK
6
CONTINUOUS
10
145.504
20
-80.6032
11
145.623
21
-80.7483
0
LINE
8
BLACK
6
CONTINUOUS
10
145.623
20
-80.7483
11
145.712
21
-80.9137
0
LINE
8
BLACK
6
CONTINUOUS
10
145.712
20
-80.9137
11
145.766
21
-81.0933
0
LINE
8
BLACK
6
CONTINUOUS
10
145.766
20
-81.0933
11
145.785
21
-81.28
0
LINE
8
BLACK
6
CONTINUOUS
10
145.785
20
-81.28
11
145.775
21
-81.377
0
LINE
8
BLACK
6
CONTINUOUS
10
145.775
20
-81.377
11
145.874
21
-81.4762
0
LINE
8
BLACK
6
CONTINUOUS
10
145.874
20
-81.4762
11
145.922
21
-81.502
0
LINE
8
BLACK
6
CONTINUOUS
10
145.922
20
-81.502
11
146.019
21
-81.5813
0
LINE
8
BLACK
6
CONTINUOUS
10
146.019
20
-81.5813
11
146.039
21
-81.6055
0
LINE
8
BLACK
6
CONTINUOUS
10
146.039
20
-81.6055
11
147.747
21
-83.3135
0
LINE
8
BLACK
6
CONTINUOUS
10
147.747
20
-83.3135
11
147.771
21
-83.3334
0
LINE
8
BLACK
6
CONTINUOUS
10
147.771
20
-83.3334
11
147.791
21
-83.3576
0
LINE
8
BLACK
6
CONTINUOUS
10
147.791
20
-83.3576
11
147.791
21
-83.3576
0
LINE
8
BLACK
6
CONTINUOUS
10
147.791
20
-83.3576
11
147.851
21
-83.4301
0
LINE
8
BLACK
6
CONTINUOUS
10
147.851
20
-83.4301
11
147.851
21
-83.4301
0
LINE
8
BLACK
6
CONTINUOUS
10
147.851
20
-83.4301
11
147.91
21
-83.5404
0
LINE
8
BLACK
6
CONTINUOUS
10
147.91
20
-83.5404
11
147.946
21
-83.6601
0
LINE
8
BLACK
6
CONTINUOUS
10
147.946
20
-83.6601
11
147.955
21
-83.7534
0
LINE
8
BLACK
6
CONTINUOUS
10
147.955
20
-83.7534
11
147.955
21
-83.7534
0
LINE
8
BLACK
6
CONTINUOUS
10
147.955
20
-83.7534
11
147.958
21
-83.7846
0
LINE
8
BLACK
6
CONTINUOUS
10
147.958
20
-83.7846
11
147.955
21
-83.8158
0
LINE
8
BLACK
6
CONTINUOUS
10
147.955
20
-83.8158
11
147.955
21
-91.0188
0
LINE
8
BLACK
6
CONTINUOUS
10
147.955
20
-91.0188
11
147.995
21
-91.0791
0
LINE
8
BLACK
6
CONTINUOUS
10
134.853
20
-88.1307
11
134.999
21
-88.191
0
LINE
8
BLACK
6
CONTINUOUS
10
134.999
20
-88.191
11
135.13
21
-88.2786
0
LINE
8
BLACK
6
CONTINUOUS
10
135.13
20
-88.2786
11
135.241
21
-88.39
0
LINE
8
BLACK
6
CONTINUOUS
10
135.241
20
-88.39
11
135.329
21
-88.5211
0
LINE
8
BLACK
6
CONTINUOUS
10
135.329
20
-88.5211
11
135.389
21
-88.6666
0
LINE
8
BLACK
6
CONTINUOUS
10
135.389
20
-88.6666
11
135.42
21
-88.8212
0
LINE
8
BLACK
6
CONTINUOUS
10
135.42
20
-88.8212
11
135.42
21
-88.9788
0
LINE
8
BLACK
6
CONTINUOUS
10
135.42
20
-88.9788
11
135.389
21
-89.1334
0
LINE
8
BLACK
6
CONTINUOUS
10
135.389
20
-89.1334
11
135.329
21
-89.2789
0
LINE
8
BLACK
6
CONTINUOUS
10
135.329
20
-89.2789
11
135.241
21
-89.41
0
LINE
8
BLACK
6
CONTINUOUS
10
135.241
20
-89.41
11
135.13
21
-89.5214
0
LINE
8
BLACK
6
CONTINUOUS
10
135.13
20
-89.5214
11
134.999
21
-89.609
0
LINE
8
BLACK
6
CONTINUOUS
10
134.999
20
-89.609
11
134.853
21
-89.6693
0
LINE
8
BLACK
6
CONTINUOUS
10
134.853
20
-89.6693
11
134.699
21
-89.7
0
LINE
8
BLACK
6
CONTINUOUS
10
134.699
20
-89.7
11
134.541
21
-89.7
0
LINE
8
BLACK
6
CONTINUOUS
10
134.541
20
-89.7
11
134.387
21
-89.6693
0
LINE
8
BLACK
6
CONTINUOUS
10
134.387
20
-89.6693
11
134.241
21
-89.609
0
LINE
8
BLACK
6
CONTINUOUS
10
134.241
20
-89.609
11
134.11
21
-89.5214
0
LINE
8
BLACK
6
CONTINUOUS
10
134.11
20
-89.5214
11
133.999
21
-89.41
0
LINE
8
BLACK
6
CONTINUOUS
10
133.999
20
-89.41
11
133.911
21
-89.2789
0
LINE
8
BLACK
6
CONTINUOUS
10
133.911
20
-89.2789
11
133.851
21
-89.1334
0
LINE
8
BLACK
6
CONTINUOUS
10
133.851
20
-89.1334
11
133.82
21
-88.9788
0
LINE
8
BLACK
6
CONTINUOUS
10
133.82
20
-88.9788
11
133.82
21
-88.8212
0
LINE
8
BLACK
6
CONTINUOUS
10
133.82
20
-88.8212
11
133.851
21
-88.6666
0
LINE
8
BLACK
6
CONTINUOUS
10
133.851
20
-88.6666
11
133.911
21
-88.5211
0
LINE
8
BLACK
6
CONTINUOUS
10
133.911
20
-88.5211
11
133.999
21
-88.39
0
LINE
8
BLACK
6
CONTINUOUS
10
133.999
20
-88.39
11
134.11
21
-88.2786
0
LINE
8
BLACK
6
CONTINUOUS
10
134.11
20
-88.2786
11
134.241
21
-88.191
0
LINE
8
BLACK
6
CONTINUOUS
10
134.241
20
-88.191
11
134.387
21
-88.1307
0
LINE
8
BLACK
6
CONTINUOUS
10
134.387
20
-88.1307
11
134.541
21
-88.1
0
LINE
8
BLACK
6
CONTINUOUS
10
134.541
20
-88.1
11
134.699
21
-88.1
0
LINE
8
BLACK
6
CONTINUOUS
10
134.699
20
-88.1
11
134.853
21
-88.1307
0
LINE
8
BLACK
6
CONTINUOUS
10
119.613
20
-88.1307
11
119.759
21
-88.191
0
LINE
8
BLACK
6
CONTINUOUS
10
119.759
20
-88.191
11
119.89
21
-88.2786
0
LINE
8
BLACK
6
CONTINUOUS
10
119.89
20
-88.2786
11
120.001
21
-88.39
0
LINE
8
BLACK
6
CONTINUOUS
10
120.001
20
-88.39
11
120.089
21
-88.5211
0
LINE
8
BLACK
6
CONTINUOUS
10
120.089
20
-88.5211
11
120.149
21
-88.6666
0
LINE
8
BLACK
6
CONTINUOUS
10
120.149
20
-88.6666
11
120.18
21
-88.8212
0
LINE
8
BLACK
6
CONTINUOUS
10
120.18
20
-88.8212
11
120.18
21
-88.9788
0
LINE
8
BLACK
6
CONTINUOUS
10
120.18
20
-88.9788
11
120.149
21
-89.1334
0
LINE
8
BLACK
6
CONTINUOUS
10
120.149
20
-89.1334
11
120.089
21
-89.2789
0
LINE
8
BLACK
6
CONTINUOUS
10
120.089
20
-89.2789
11
120.001
21
-89.41
0
LINE
8
BLACK
6
CONTINUOUS
10
120.001
20
-89.41
11
119.89
21
-89.5214
0
LINE
8
BLACK
6
CONTINUOUS
10
119.89
20
-89.5214
11
119.759
21
-89.609
0
LINE
8
BLACK
6
CONTINUOUS
10
119.759
20
-89.609
11
119.613
21
-89.6693
0
LINE
8
BLACK
6
CONTINUOUS
10
119.613
20
-89.6693
11
119.459
21
-89.7
0
LINE
8
BLACK
6
CONTINUOUS
10
119.459
20
-89.7
11
119.301
21
-89.7
0
LINE
8
BLACK
6
CONTINUOUS
10
119.301
20
-89.7
11
119.147
21
-89.6693
0
LINE
8
BLACK
6
CONTINUOUS
10
119.147
20
-89.6693
11
119.001
21
-89.609
0
LINE
8
BLACK
6
CONTINUOUS
10
119.001
20
-89.609
11
118.87
21
-89.5214
0
LINE
8
BLACK
6
CONTINUOUS
10
118.87
20
-89.5214
11
118.759
21
-89.41
0
LINE
8
BLACK
6
CONTINUOUS
10
118.759
20
-89.41
11
118.671
21
-89.2789
0
LINE
8
BLACK
6
CONTINUOUS
10
118.671
20
-89.2789
11
118.611
21
-89.1334
0
LINE
8
BLACK
6
CONTINUOUS
10
118.611
20
-89.1334
11
118.58
21
-88.9788
0
LINE
8
BLACK
6
CONTINUOUS
10
118.58
20
-88.9788
11
118.58
21
-88.8212
0
LINE
8
BLACK
6
CONTINUOUS
10
118.58
20
-88.8212
11
118.611
21
-88.6666
0
LINE
8
BLACK
6
CONTINUOUS
10
118.611
20
-88.6666
11
118.671
21
-88.5211
0
LINE
8
BLACK
6
CONTINUOUS
10
118.671
20
-88.5211
11
118.759
21
-88.39
0
LINE
8
BLACK
6
CONTINUOUS
10
118.759
20
-88.39
11
118.87
21
-88.2786
0
LINE
8
BLACK
6
CONTINUOUS
10
118.87
20
-88.2786
11
119.001
21
-88.191
0
LINE
8
BLACK
6
CONTINUOUS
10
119.001
20
-88.191
11
119.147
21
-88.1307
0
LINE
8
BLACK
6
CONTINUOUS
10
119.147
20
-88.1307
11
119.301
21
-88.1
0
LINE
8
BLACK
6
CONTINUOUS
10
119.301
20
-88.1
11
119.459
21
-88.1
0
LINE
8
BLACK
6
CONTINUOUS
10
119.459
20
-88.1
11
119.613
21
-88.1307
0
LINE
8
BLACK
6
CONTINUOUS
10
134.853
20
-85.5907
11
134.999
21
-85.651
0
LINE
8
BLACK
6
CONTINUOUS
10
134.999
20
-85.651
11
135.13
21
-85.7386
0
LINE
8
BLACK
6
CONTINUOUS
10
135.13
20
-85.7386
11
135.241
21
-85.85
0
LINE
8
BLACK
6
CONTINUOUS
10
135.241
20
-85.85
11
135.329
21
-85.9811
0
LINE
8
BLACK
6
CONTINUOUS
10
135.329
20
-85.9811
11
135.389
21
-86.1266
0
LINE
8
BLACK
6
CONTINUOUS
10
135.389
20
-86.1266
11
135.42
21
-86.2812
0
LINE
8
BLACK
6
CONTINUOUS
10
135.42
20
-86.2812
11
135.42
21
-86.4388
0
LINE
8
BLACK
6
CONTINUOUS
10
135.42
20
-86.4388
11
135.389
21
-86.5934
0
LINE
8
BLACK
6
CONTINUOUS
10
135.389
20
-86.5934
11
135.329
21
-86.7389
0
LINE
8
BLACK
6
CONTINUOUS
10
135.329
20
-86.7389
11
135.241
21
-86.87
0
LINE
8
BLACK
6
CONTINUOUS
10
135.241
20
-86.87
11
135.13
21
-86.9814
0
LINE
8
BLACK
6
CONTINUOUS
10
135.13
20
-86.9814
11
134.999
21
-87.069
0
LINE
8
BLACK
6
CONTINUOUS
10
134.999
20
-87.069
11
134.853
21
-87.1293
0
LINE
8
BLACK
6
CONTINUOUS
10
134.853
20
-87.1293
11
134.699
21
-87.16
0
LINE
8
BLACK
6
CONTINUOUS
10
134.699
20
-87.16
11
134.541
21
-87.16
0
LINE
8
BLACK
6
CONTINUOUS
10
134.541
20
-87.16
11
134.387
21
-87.1293
0
LINE
8
BLACK
6
CONTINUOUS
10
134.387
20
-87.1293
11
134.241
21
-87.069
0
LINE
8
BLACK
6
CONTINUOUS
10
134.241
20
-87.069
11
134.11
21
-86.9814
0
LINE
8
BLACK
6
CONTINUOUS
10
134.11
20
-86.9814
11
133.999
21
-86.87
0
LINE
8
BLACK
6
CONTINUOUS
10
133.999
20
-86.87
11
133.911
21
-86.7389
0
LINE
8
BLACK
6
CONTINUOUS
10
133.911
20
-86.7389
11
133.851
21
-86.5934
0
LINE
8
BLACK
6
CONTINUOUS
10
133.851
20
-86.5934
11
133.82
21
-86.4388
0
LINE
8
BLACK
6
CONTINUOUS
10
133.82
20
-86.4388
11
133.82
21
-86.2812
0
LINE
8
BLACK
6
CONTINUOUS
10
133.82
20
-86.2812
11
133.851
21
-86.1266
0
LINE
8
BLACK
6
CONTINUOUS
10
133.851
20
-86.1266
11
133.911
21
-85.9811
0
LINE
8
BLACK
6
CONTINUOUS
10
133.911
20
-85.9811
11
133.999
21
-85.85
0
LINE
8
BLACK
6
CONTINUOUS
10
133.999
20
-85.85
11
134.11
21
-85.7386
0
LINE
8
BLACK
6
CONTINUOUS
10
134.11
20
-85.7386
11
134.241
21
-85.651
0
LINE
8
BLACK
6
CONTINUOUS
10
134.241
20
-85.651
11
134.387
21
-85.5907
0
LINE
8
BLACK
6
CONTINUOUS
10
134.387
20
-85.5907
11
134.541
21
-85.56
0
LINE
8
BLACK
6
CONTINUOUS
10
134.541
20
-85.56
11
134.699
21
-85.56
0
LINE
8
BLACK
6
CONTINUOUS
10
134.699
20
-85.56
11
134.853
21
-85.5907
0
LINE
8
BLACK
6
CONTINUOUS
10
119.613
20
-85.5907
11
119.759
21
-85.651
0
LINE
8
BLACK
6
CONTINUOUS
10
119.759
20
-85.651
11
119.89
21
-85.7386
0
LINE
8
BLACK
6
CONTINUOUS
10
119.89
20
-85.7386
11
120.001
21
-85.85
0
LINE
8
BLACK
6
CONTINUOUS
10
120.001
20
-85.85
11
120.089
21
-85.9811
0
LINE
8
BLACK
6
CONTINUOUS
10
120.089
20
-85.9811
11
120.149
21
-86.1266
0
LINE
8
BLACK
6
CONTINUOUS
10
120.149
20
-86.1266
11
120.18
21
-86.2812
0
LINE
8
BLACK
6
CONTINUOUS
10
120.18
20
-86.2812
11
120.18
21
-86.4388
0
LINE
8
BLACK
6
CONTINUOUS
10
120.18
20
-86.4388
11
120.149
21
-86.5934
0
LINE
8
BLACK
6
CONTINUOUS
10
120.149
20
-86.5934
11
120.089
21
-86.7389
0
LINE
8
BLACK
6
CONTINUOUS
10
120.089
20
-86.7389
11
120.001
21
-86.87
0
LINE
8
BLACK
6
CONTINUOUS
10
120.001
20
-86.87
11
119.89
21
-86.9814
0
LINE
8
BLACK
6
CONTINUOUS
10
119.89
20
-86.9814
11
119.759
21
-87.069
0
LINE
8
BLACK
6
CONTINUOUS
10
119.759
20
-87.069
11
119.613
21
-87.1293
0
LINE
8
BLACK
6
CONTINUOUS
10
119.613
20
-87.1293
11
119.459
21
-87.16
0
LINE
8
BLACK
6
CONTINUOUS
10
119.459
20
-87.16
11
119.301
21
-87.16
0
LINE
8
BLACK
6
CONTINUOUS
10
119.301
20
-87.16
11
119.147
21
-87.1293
0
LINE
8
BLACK
6
CONTINUOUS
10
119.147
20
-87.1293
11
119.001
21
-87.069
0
LINE
8
BLACK
6
CONTINUOUS
10
119.001
20
-87.069
11
118.87
21
-86.9814
0
LINE
8
BLACK
6
CONTINUOUS
10
118.87
20
-86.9814
11
118.759
21
-86.87
0
LINE
8
BLACK
6
CONTINUOUS
10
118.759
20
-86.87
11
118.671
21
-86.7389
0
LINE
8
BLACK
6
CONTINUOUS
10
118.671
20
-86.7389
11
118.611
21
-86.5934
0
LINE
8
BLACK
6
CONTINUOUS
10
118.611
20
-86.5934
11
118.58
21
-86.4388
0
LINE
8
BLACK
6
CONTINUOUS
10
118.58
20
-86.4388
11
118.58
21
-86.2812
0
LINE
8
BLACK
6
CONTINUOUS
10
118.58
20
-86.2812
11
118.611
21
-86.1266
0
LINE
8
BLACK
6
CONTINUOUS
10
118.611
20
-86.1266
11
118.671
21
-85.9811
0
LINE
8
BLACK
6
CONTINUOUS
10
118.671
20
-85.9811
11
118.759
21
-85.85
0
LINE
8
BLACK
6
CONTINUOUS
10
118.759
20
-85.85
11
118.87
21
-85.7386
0
LINE
8
BLACK
6
CONTINUOUS
10
118.87
20
-85.7386
11
119.001
21
-85.651
0
LINE
8
BLACK
6
CONTINUOUS
10
119.001
20
-85.651
11
119.147
21
-85.5907
0
LINE
8
BLACK
6
CONTINUOUS
10
119.147
20
-85.5907
11
119.301
21
-85.56
0
LINE
8
BLACK
6
CONTINUOUS
10
119.301
20
-85.56
11
119.459
21
-85.56
0
LINE
8
BLACK
6
CONTINUOUS
10
119.459
20
-85.56
11
119.613
21
-85.5907
0
LINE
8
BLACK
6
CONTINUOUS
10
124.952
20
-51.02
11
130.784
21
-51.02
0
LINE
8
BLACK
6
CONTINUOUS
10
130.784
20
-51.02
11
130.815
21
-51.0169
0
LINE
8
BLACK
6
CONTINUOUS
10
130.815
20
-51.0169
11
130.846
21
-51.02
0
LINE
8
BLACK
6
CONTINUOUS
10
130.846
20
-51.02
11
130.846
21
-51.02
0
LINE
8
BLACK
6
CONTINUOUS
10
130.846
20
-51.02
11
130.939
21
-51.0292
0
LINE
8
BLACK
6
CONTINUOUS
10
130.939
20
-51.0292
11
131.059
21
-51.0655
0
LINE
8
BLACK
6
CONTINUOUS
10
131.059
20
-51.0655
11
131.169
21
-51.1245
0
LINE
8
BLACK
6
CONTINUOUS
10
131.169
20
-51.1245
11
131.266
21
-51.2038
0
LINE
8
BLACK
6
CONTINUOUS
10
131.266
20
-51.2038
11
131.286
21
-51.228
0
LINE
8
BLACK
6
CONTINUOUS
10
131.286
20
-51.228
11
142.923
21
-62.865
0
LINE
8
BLACK
6
CONTINUOUS
10
142.923
20
-62.865
11
143.93
21
-62.865
0
LINE
8
BLACK
6
CONTINUOUS
10
143.93
20
-62.865
11
143.93
21
-62.65
0
LINE
8
BLACK
6
CONTINUOUS
10
143.93
20
-62.65
11
145.63
21
-62.65
0
LINE
8
BLACK
6
CONTINUOUS
10
145.63
20
-62.65
11
145.63
21
-64.35
0
LINE
8
BLACK
6
CONTINUOUS
10
145.63
20
-64.35
11
143.93
21
-64.35
0
LINE
8
BLACK
6
CONTINUOUS
10
143.93
20
-64.35
11
143.93
21
-64.135
0
LINE
8
BLACK
6
CONTINUOUS
10
143.93
20
-64.135
11
142.691
21
-64.135
0
LINE
8
BLACK
6
CONTINUOUS
10
142.691
20
-64.135
11
142.66
21
-64.1381
0
LINE
8
BLACK
6
CONTINUOUS
10
142.66
20
-64.1381
11
142.629
21
-64.135
0
LINE
8
BLACK
6
CONTINUOUS
10
142.629
20
-64.135
11
142.629
21
-64.135
0
LINE
8
BLACK
6
CONTINUOUS
10
142.629
20
-64.135
11
142.536
21
-64.1258
0
LINE
8
BLACK
6
CONTINUOUS
10
142.536
20
-64.1258
11
142.416
21
-64.0895
0
LINE
8
BLACK
6
CONTINUOUS
10
142.416
20
-64.0895
11
142.306
21
-64.0305
0
LINE
8
BLACK
6
CONTINUOUS
10
142.306
20
-64.0305
11
142.209
21
-63.9512
0
LINE
8
BLACK
6
CONTINUOUS
10
142.209
20
-63.9512
11
142.189
21
-63.927
0
LINE
8
BLACK
6
CONTINUOUS
10
142.189
20
-63.927
11
130.552
21
-52.29
0
LINE
8
BLACK
6
CONTINUOUS
10
130.552
20
-52.29
11
125.184
21
-52.29
0
LINE
8
BLACK
6
CONTINUOUS
10
125.184
20
-52.29
11
124.68
21
-52.7942
0
LINE
8
BLACK
6
CONTINUOUS
10
124.68
20
-52.7942
11
124.68
21
-60.282
0
LINE
8
BLACK
6
CONTINUOUS
10
124.68
20
-60.282
11
134.291
21
-69.893
0
LINE
8
BLACK
6
CONTINUOUS
10
134.291
20
-69.893
11
134.291
21
-69.8931
0
LINE
8
BLACK
6
CONTINUOUS
10
134.291
20
-69.8931
11
134.723
21
-70.3248
0
LINE
8
BLACK
6
CONTINUOUS
10
134.723
20
-70.3248
11
134.853
21
-70.3507
0
LINE
8
BLACK
6
CONTINUOUS
10
134.853
20
-70.3507
11
134.999
21
-70.411
0
LINE
8
BLACK
6
CONTINUOUS
10
134.999
20
-70.411
11
135.13
21
-70.4986
0
LINE
8
BLACK
6
CONTINUOUS
10
135.13
20
-70.4986
11
135.241
21
-70.61
0
LINE
8
BLACK
6
CONTINUOUS
10
135.241
20
-70.61
11
135.329
21
-70.7411
0
LINE
8
BLACK
6
CONTINUOUS
10
135.329
20
-70.7411
11
135.389
21
-70.8866
0
LINE
8
BLACK
6
CONTINUOUS
10
135.389
20
-70.8866
11
135.415
21
-71.0172
0
LINE
8
BLACK
6
CONTINUOUS
10
135.415
20
-71.0172
11
136.682
21
-72.2839
0
LINE
8
BLACK
6
CONTINUOUS
10
136.682
20
-72.2839
11
136.706
21
-72.3038
0
LINE
8
BLACK
6
CONTINUOUS
10
136.706
20
-72.3038
11
136.726
21
-72.328
0
LINE
8
BLACK
6
CONTINUOUS
10
136.726
20
-72.328
11
136.726
21
-72.328
0
LINE
8
BLACK
6
CONTINUOUS
10
136.726
20
-72.328
11
136.786
21
-72.4005
0
LINE
8
BLACK
6
CONTINUOUS
10
136.786
20
-72.4005
11
136.826
21
-72.4762
0
LINE
8
BLACK
6
CONTINUOUS
10
136.826
20
-72.4762
11
136.845
21
-72.5108
0
LINE
8
BLACK
6
CONTINUOUS
10
136.845
20
-72.5108
11
136.881
21
-72.6305
0
LINE
8
BLACK
6
CONTINUOUS
10
136.881
20
-72.6305
11
136.89
21
-72.7238
0
LINE
8
BLACK
6
CONTINUOUS
10
136.89
20
-72.7238
11
136.893
21
-72.755
0
LINE
8
BLACK
6
CONTINUOUS
10
136.893
20
-72.755
11
136.89
21
-72.7862
0
LINE
8
BLACK
6
CONTINUOUS
10
136.89
20
-72.7862
11
136.89
21
-77.302
0
LINE
8
BLACK
6
CONTINUOUS
10
136.89
20
-77.302
11
142.773
21
-83.185
0
LINE
8
BLACK
6
CONTINUOUS
10
142.773
20
-83.185
11
144.021
21
-83.185
0
LINE
8
BLACK
6
CONTINUOUS
10
144.021
20
-83.185
11
144.056
21
-83.1432
0
LINE
8
BLACK
6
CONTINUOUS
10
144.056
20
-83.1432
11
144.201
21
-83.0242
0
LINE
8
BLACK
6
CONTINUOUS
10
144.201
20
-83.0242
11
144.366
21
-82.9357
0
LINE
8
BLACK
6
CONTINUOUS
10
144.366
20
-82.9357
11
144.546
21
-82.8813
0
LINE
8
BLACK
6
CONTINUOUS
10
144.546
20
-82.8813
11
144.686
21
-82.8675
0
LINE
8
BLACK
6
CONTINUOUS
10
144.686
20
-82.8675
11
144.874
21
-82.8675
0
LINE
8
BLACK
6
CONTINUOUS
10
144.874
20
-82.8675
11
145.014
21
-82.8813
0
LINE
8
BLACK
6
CONTINUOUS
10
145.014
20
-82.8813
11
145.194
21
-82.9357
0
LINE
8
BLACK
6
CONTINUOUS
10
145.194
20
-82.9357
11
145.359
21
-83.0242
0
LINE
8
BLACK
6
CONTINUOUS
10
145.359
20
-83.0242
11
145.504
21
-83.1432
0
LINE
8
BLACK
6
CONTINUOUS
10
145.504
20
-83.1432
11
145.623
21
-83.2883
0
LINE
8
BLACK
6
CONTINUOUS
10
145.623
20
-83.2883
11
145.712
21
-83.4537
0
LINE
8
BLACK
6
CONTINUOUS
10
145.712
20
-83.4537
11
145.766
21
-83.6333
0
LINE
8
BLACK
6
CONTINUOUS
10
145.766
20
-83.6333
11
145.785
21
-83.82
0
LINE
8
BLACK
6
CONTINUOUS
10
145.785
20
-83.82
11
145.766
21
-84.0067
0
LINE
8
BLACK
6
CONTINUOUS
10
145.766
20
-84.0067
11
145.712
21
-84.1863
0
LINE
8
BLACK
6
CONTINUOUS
10
145.712
20
-84.1863
11
145.623
21
-84.3517
0
LINE
8
BLACK
6
CONTINUOUS
10
145.623
20
-84.3517
11
145.504
21
-84.4968
0
LINE
8
BLACK
6
CONTINUOUS
10
145.504
20
-84.4968
11
145.359
21
-84.6158
0
LINE
8
BLACK
6
CONTINUOUS
10
145.359
20
-84.6158
11
145.194
21
-84.7043
0
LINE
8
BLACK
6
CONTINUOUS
10
145.194
20
-84.7043
11
145.014
21
-84.7587
0
LINE
8
BLACK
6
CONTINUOUS
10
145.014
20
-84.7587
11
144.874
21
-84.7725
0
LINE
8
BLACK
6
CONTINUOUS
10
144.874
20
-84.7725
11
144.686
21
-84.7725
0
LINE
8
BLACK
6
CONTINUOUS
10
144.686
20
-84.7725
11
144.546
21
-84.7587
0
LINE
8
BLACK
6
CONTINUOUS
10
144.546
20
-84.7587
11
144.366
21
-84.7043
0
LINE
8
BLACK
6
CONTINUOUS
10
144.366
20
-84.7043
11
144.201
21
-84.6158
0
LINE
8
BLACK
6
CONTINUOUS
10
144.201
20
-84.6158
11
144.056
21
-84.4968
0
LINE
8
BLACK
6
CONTINUOUS
10
144.056
20
-84.4968
11
144.021
21
-84.455
0
LINE
8
BLACK
6
CONTINUOUS
10
144.021
20
-84.455
11
142.541
21
-84.455
0
LINE
8
BLACK
6
CONTINUOUS
10
142.541
20
-84.455
11
142.51
21
-84.4581
0
LINE
8
BLACK
6
CONTINUOUS
10
142.51
20
-84.4581
11
142.479
21
-84.455
0
LINE
8
BLACK
6
CONTINUOUS
10
142.479
20
-84.455
11
142.479
21
-84.455
0
LINE
8
BLACK
6
CONTINUOUS
10
142.479
20
-84.455
11
142.386
21
-84.4458
0
LINE
8
BLACK
6
CONTINUOUS
10
142.386
20
-84.4458
11
142.266
21
-84.4095
0
LINE
8
BLACK
6
CONTINUOUS
10
142.266
20
-84.4095
11
142.158
21
-84.3517
0
LINE
8
BLACK
6
CONTINUOUS
10
142.158
20
-84.3517
11
142.156
21
-84.3505
0
LINE
8
BLACK
6
CONTINUOUS
10
142.156
20
-84.3505
11
142.083
21
-84.2911
0
LINE
8
BLACK
6
CONTINUOUS
10
142.083
20
-84.2911
11
142.083
21
-84.2911
0
LINE
8
BLACK
6
CONTINUOUS
10
142.083
20
-84.2911
11
142.059
21
-84.2712
0
LINE
8
BLACK
6
CONTINUOUS
10
142.059
20
-84.2712
11
142.039
21
-84.247
0
LINE
8
BLACK
6
CONTINUOUS
10
142.039
20
-84.247
11
135.828
21
-78.0361
0
LINE
8
BLACK
6
CONTINUOUS
10
135.828
20
-78.0361
11
135.804
21
-78.0162
0
LINE
8
BLACK
6
CONTINUOUS
10
135.804
20
-78.0162
11
135.724
21
-77.9195
0
LINE
8
BLACK
6
CONTINUOUS
10
135.724
20
-77.9195
11
135.665
21
-77.8092
0
LINE
8
BLACK
6
CONTINUOUS
10
135.665
20
-77.8092
11
135.665
21
-77.8092
0
LINE
8
BLACK
6
CONTINUOUS
10
135.665
20
-77.8092
11
135.629
21
-77.6895
0
LINE
8
BLACK
6
CONTINUOUS
10
135.629
20
-77.6895
11
135.617
21
-77.565
0
LINE
8
BLACK
6
CONTINUOUS
10
135.617
20
-77.565
11
135.62
21
-77.5338
0
LINE
8
BLACK
6
CONTINUOUS
10
135.62
20
-77.5338
11
135.62
21
-73.018
0
LINE
8
BLACK
6
CONTINUOUS
10
135.62
20
-73.018
11
134.517
21
-71.9152
0
LINE
8
BLACK
6
CONTINUOUS
10
134.517
20
-71.9152
11
134.387
21
-71.8893
0
LINE
8
BLACK
6
CONTINUOUS
10
134.387
20
-71.8893
11
134.241
21
-71.829
0
LINE
8
BLACK
6
CONTINUOUS
10
134.241
20
-71.829
11
134.11
21
-71.7414
0
LINE
8
BLACK
6
CONTINUOUS
10
134.11
20
-71.7414
11
133.999
21
-71.63
0
LINE
8
BLACK
6
CONTINUOUS
10
133.999
20
-71.63
11
133.911
21
-71.4989
0
LINE
8
BLACK
6
CONTINUOUS
10
133.911
20
-71.4989
11
133.851
21
-71.3534
0
LINE
8
BLACK
6
CONTINUOUS
10
133.851
20
-71.3534
11
133.825
21
-71.2228
0
LINE
8
BLACK
6
CONTINUOUS
10
133.825
20
-71.2228
11
133.393
21
-70.7911
0
LINE
8
BLACK
6
CONTINUOUS
10
133.393
20
-70.7911
11
133.393
21
-70.7911
0
LINE
8
BLACK
6
CONTINUOUS
10
133.393
20
-70.7911
11
123.618
21
-61.0161
0
LINE
8
BLACK
6
CONTINUOUS
10
123.618
20
-61.0161
11
123.594
21
-60.9962
0
LINE
8
BLACK
6
CONTINUOUS
10
123.594
20
-60.9962
11
123.514
21
-60.8995
0
LINE
8
BLACK
6
CONTINUOUS
10
123.514
20
-60.8995
11
123.455
21
-60.7892
0
LINE
8
BLACK
6
CONTINUOUS
10
123.455
20
-60.7892
11
123.455
21
-60.7892
0
LINE
8
BLACK
6
CONTINUOUS
10
123.455
20
-60.7892
11
123.419
21
-60.6695
0
LINE
8
BLACK
6
CONTINUOUS
10
123.419
20
-60.6695
11
123.407
21
-60.545
0
LINE
8
BLACK
6
CONTINUOUS
10
123.407
20
-60.545
11
123.41
21
-60.5138
0
LINE
8
BLACK
6
CONTINUOUS
10
123.41
20
-60.5138
11
123.41
21
-52.5624
0
LINE
8
BLACK
6
CONTINUOUS
10
123.41
20
-52.5624
11
123.407
21
-52.5312
0
LINE
8
BLACK
6
CONTINUOUS
10
123.407
20
-52.5312
11
123.41
21
-52.5
0
LINE
8
BLACK
6
CONTINUOUS
10
123.41
20
-52.5
11
123.41
21
-52.5
0
LINE
8
BLACK
6
CONTINUOUS
10
123.41
20
-52.5
11
123.419
21
-52.4067
0
LINE
8
BLACK
6
CONTINUOUS
10
123.419
20
-52.4067
11
123.455
21
-52.287
0
LINE
8
BLACK
6
CONTINUOUS
10
123.455
20
-52.287
11
123.514
21
-52.1767
0
LINE
8
BLACK
6
CONTINUOUS
10
123.514
20
-52.1767
11
123.594
21
-52.08
0
LINE
8
BLACK
6
CONTINUOUS
10
123.594
20
-52.08
11
123.618
21
-52.0601
0
LINE
8
BLACK
6
CONTINUOUS
10
123.618
20
-52.0601
11
124.45
21
-51.228
0
LINE
8
BLACK
6
CONTINUOUS
10
124.45
20
-51.228
11
124.47
21
-51.2038
0
LINE
8
BLACK
6
CONTINUOUS
10
124.47
20
-51.2038
11
124.513
21
-51.1688
0
LINE
8
BLACK
6
CONTINUOUS
10
124.513
20
-51.1688
11
124.567
21
-51.1245
0
LINE
8
BLACK
6
CONTINUOUS
10
124.567
20
-51.1245
11
124.677
21
-51.0655
0
LINE
8
BLACK
6
CONTINUOUS
10
124.677
20
-51.0655
11
124.797
21
-51.0292
0
LINE
8
BLACK
6
CONTINUOUS
10
124.797
20
-51.0292
11
124.89
21
-51.02
0
LINE
8
BLACK
6
CONTINUOUS
10
124.89
20
-51.02
11
124.89
21
-51.02
0
LINE
8
BLACK
6
CONTINUOUS
10
124.89
20
-51.02
11
124.921
21
-51.0169
0
LINE
8
BLACK
6
CONTINUOUS
10
124.921
20
-51.0169
11
124.952
21
-51.02
0
LINE
8
BLACK
6
CONTINUOUS
10
134.853
20
-83.0507
11
134.999
21
-83.111
0
LINE
8
BLACK
6
CONTINUOUS
10
134.999
20
-83.111
11
135.13
21
-83.1986
0
LINE
8
BLACK
6
CONTINUOUS
10
135.13
20
-83.1986
11
135.241
21
-83.31
0
LINE
8
BLACK
6
CONTINUOUS
10
135.241
20
-83.31
11
135.329
21
-83.4411
0
LINE
8
BLACK
6
CONTINUOUS
10
135.329
20
-83.4411
11
135.389
21
-83.5866
0
LINE
8
BLACK
6
CONTINUOUS
10
135.389
20
-83.5866
11
135.42
21
-83.7412
0
LINE
8
BLACK
6
CONTINUOUS
10
135.42
20
-83.7412
11
135.42
21
-83.8988
0
LINE
8
BLACK
6
CONTINUOUS
10
135.42
20
-83.8988
11
135.389
21
-84.0534
0
LINE
8
BLACK
6
CONTINUOUS
10
135.389
20
-84.0534
11
135.329
21
-84.1989
0
LINE
8
BLACK
6
CONTINUOUS
10
135.329
20
-84.1989
11
135.241
21
-84.33
0
LINE
8
BLACK
6
CONTINUOUS
10
135.241
20
-84.33
11
135.13
21
-84.4414
0
LINE
8
BLACK
6
CONTINUOUS
10
135.13
20
-84.4414
11
134.999
21
-84.529
0
LINE
8
BLACK
6
CONTINUOUS
10
134.999
20
-84.529
11
134.853
21
-84.5893
0
LINE
8
BLACK
6
CONTINUOUS
10
134.853
20
-84.5893
11
134.699
21
-84.62
0
LINE
8
BLACK
6
CONTINUOUS
10
134.699
20
-84.62
11
134.541
21
-84.62
0
LINE
8
BLACK
6
CONTINUOUS
10
134.541
20
-84.62
11
134.387
21
-84.5893
0
LINE
8
BLACK
6
CONTINUOUS
10
134.387
20
-84.5893
11
134.241
21
-84.529
0
LINE
8
BLACK
6
CONTINUOUS
10
134.241
20
-84.529
11
134.11
21
-84.4414
0
LINE
8
BLACK
6
CONTINUOUS
10
134.11
20
-84.4414
11
133.999
21
-84.33
0
LINE
8
BLACK
6
CONTINUOUS
10
133.999
20
-84.33
11
133.911
21
-84.1989
0
LINE
8
BLACK
6
CONTINUOUS
10
133.911
20
-84.1989
11
133.851
21
-84.0534
0
LINE
8
BLACK
6
CONTINUOUS
10
133.851
20
-84.0534
11
133.82
21
-83.8988
0
LINE
8
BLACK
6
CONTINUOUS
10
133.82
20
-83.8988
11
133.82
21
-83.7412
0
LINE
8
BLACK
6
CONTINUOUS
10
133.82
20
-83.7412
11
133.851
21
-83.5866
0
LINE
8
BLACK
6
CONTINUOUS
10
133.851
20
-83.5866
11
133.911
21
-83.4411
0
LINE
8
BLACK
6
CONTINUOUS
10
133.911
20
-83.4411
11
133.999
21
-83.31
0
LINE
8
BLACK
6
CONTINUOUS
10
133.999
20
-83.31
11
134.11
21
-83.1986
0
LINE
8
BLACK
6
CONTINUOUS
10
134.11
20
-83.1986
11
134.241
21
-83.111
0
LINE
8
BLACK
6
CONTINUOUS
10
134.241
20
-83.111
11
134.387
21
-83.0507
0
LINE
8
BLACK
6
CONTINUOUS
10
134.387
20
-83.0507
11
134.541
21
-83.02
0
LINE
8
BLACK
6
CONTINUOUS
10
134.541
20
-83.02
11
134.699
21
-83.02
0
LINE
8
BLACK
6
CONTINUOUS
10
134.699
20
-83.02
11
134.853
21
-83.0507
0
LINE
8
BLACK
6
CONTINUOUS
10
119.613
20
-83.0507
11
119.759
21
-83.111
0
LINE
8
BLACK
6
CONTINUOUS
10
119.759
20
-83.111
11
119.89
21
-83.1986
0
LINE
8
BLACK
6
CONTINUOUS
10
119.89
20
-83.1986
11
120.001
21
-83.31
0
LINE
8
BLACK
6
CONTINUOUS
10
120.001
20
-83.31
11
120.089
21
-83.4411
0
LINE
8
BLACK
6
CONTINUOUS
10
120.089
20
-83.4411
11
120.149
21
-83.5866
0
LINE
8
BLACK
6
CONTINUOUS
10
120.149
20
-83.5866
11
120.18
21
-83.7412
0
LINE
8
BLACK
6
CONTINUOUS
10
120.18
20
-83.7412
11
120.18
21
-83.8988
0
LINE
8
BLACK
6
CONTINUOUS
10
120.18
20
-83.8988
11
120.149
21
-84.0534
0
LINE
8
BLACK
6
CONTINUOUS
10
120.149
20
-84.0534
11
120.089
21
-84.1989
0
LINE
8
BLACK
6
CONTINUOUS
10
120.089
20
-84.1989
11
120.001
21
-84.33
0
LINE
8
BLACK
6
CONTINUOUS
10
120.001
20
-84.33
11
119.89
21
-84.4414
0
LINE
8
BLACK
6
CONTINUOUS
10
119.89
20
-84.4414
11
119.759
21
-84.529
0
LINE
8
BLACK
6
CONTINUOUS
10
119.759
20
-84.529
11
119.613
21
-84.5893
0
LINE
8
BLACK
6
CONTINUOUS
10
119.613
20
-84.5893
11
119.459
21
-84.62
0
LINE
8
BLACK
6
CONTINUOUS
10
119.459
20
-84.62
11
119.301
21
-84.62
0
LINE
8
BLACK
6
CONTINUOUS
10
119.301
20
-84.62
11
119.147
21
-84.5893
0
LINE
8
BLACK
6
CONTINUOUS
10
119.147
20
-84.5893
11
119.001
21
-84.529
0
LINE
8
BLACK
6
CONTINUOUS
10
119.001
20
-84.529
11
118.87
21
-84.4414
0
LINE
8
BLACK
6
CONTINUOUS
10
118.87
20
-84.4414
11
118.759
21
-84.33
0
LINE
8
BLACK
6
CONTINUOUS
10
118.759
20
-84.33
11
118.671
21
-84.1989
0
LINE
8
BLACK
6
CONTINUOUS
10
118.671
20
-84.1989
11
118.611
21
-84.0534
0
LINE
8
BLACK
6
CONTINUOUS
10
118.611
20
-84.0534
11
118.58
21
-83.8988
0
LINE
8
BLACK
6
CONTINUOUS
10
118.58
20
-83.8988
11
118.58
21
-83.7412
0
LINE
8
BLACK
6
CONTINUOUS
10
118.58
20
-83.7412
11
118.611
21
-83.5866
0
LINE
8
BLACK
6
CONTINUOUS
10
118.611
20
-83.5866
11
118.671
21
-83.4411
0
LINE
8
BLACK
6
CONTINUOUS
10
118.671
20
-83.4411
11
118.759
21
-83.31
0
LINE
8
BLACK
6
CONTINUOUS
10
118.759
20
-83.31
11
118.87
21
-83.1986
0
LINE
8
BLACK
6
CONTINUOUS
10
118.87
20
-83.1986
11
119.001
21
-83.111
0
LINE
8
BLACK
6
CONTINUOUS
10
119.001
20
-83.111
11
119.147
21
-83.0507
0
LINE
8
BLACK
6
CONTINUOUS
10
119.147
20
-83.0507
11
119.301
21
-83.02
0
LINE
8
BLACK
6
CONTINUOUS
10
119.301
20
-83.02
11
119.459
21
-83.02
0
LINE
8
BLACK
6
CONTINUOUS
10
119.459
20
-83.02
11
119.613
21
-83.0507
0
LINE
8
BLACK
6
CONTINUOUS
10
161.09
20
-79.5973
11
161.409
21
-79.7292
0
LINE
8
BLACK
6
CONTINUOUS
10
161.409
20
-79.7292
11
161.696
21
-79.9207
0
LINE
8
BLACK
6
CONTINUOUS
10
161.696
20
-79.9207
11
161.939
21
-80.1644
0
LINE
8
BLACK
6
CONTINUOUS
10
161.939
20
-80.1644
11
162.131
21
-80.4511
0
LINE
8
BLACK
6
CONTINUOUS
10
162.131
20
-80.4511
11
162.263
21
-80.7695
0
LINE
8
BLACK
6
CONTINUOUS
10
162.263
20
-80.7695
11
162.33
21
-81.1076
0
LINE
8
BLACK
6
CONTINUOUS
10
162.33
20
-81.1076
11
162.33
21
-81.4524
0
LINE
8
BLACK
6
CONTINUOUS
10
162.33
20
-81.4524
11
162.263
21
-81.7905
0
LINE
8
BLACK
6
CONTINUOUS
10
162.263
20
-81.7905
11
162.131
21
-82.1089
0
LINE
8
BLACK
6
CONTINUOUS
10
162.131
20
-82.1089
11
161.939
21
-82.3956
0
LINE
8
BLACK
6
CONTINUOUS
10
161.939
20
-82.3956
11
161.696
21
-82.6393
0
LINE
8
BLACK
6
CONTINUOUS
10
161.696
20
-82.6393
11
161.409
21
-82.8308
0
LINE
8
BLACK
6
CONTINUOUS
10
161.409
20
-82.8308
11
161.09
21
-82.9627
0
LINE
8
BLACK
6
CONTINUOUS
10
161.09
20
-82.9627
11
160.752
21
-83.03
0
LINE
8
BLACK
6
CONTINUOUS
10
160.752
20
-83.03
11
160.408
21
-83.03
0
LINE
8
BLACK
6
CONTINUOUS
10
160.408
20
-83.03
11
160.07
21
-82.9627
0
LINE
8
BLACK
6
CONTINUOUS
10
160.07
20
-82.9627
11
159.751
21
-82.8308
0
LINE
8
BLACK
6
CONTINUOUS
10
159.751
20
-82.8308
11
159.464
21
-82.6393
0
LINE
8
BLACK
6
CONTINUOUS
10
159.464
20
-82.6393
11
159.221
21
-82.3956
0
LINE
8
BLACK
6
CONTINUOUS
10
159.221
20
-82.3956
11
159.029
21
-82.1089
0
LINE
8
BLACK
6
CONTINUOUS
10
159.029
20
-82.1089
11
158.897
21
-81.7905
0
LINE
8
BLACK
6
CONTINUOUS
10
158.897
20
-81.7905
11
158.83
21
-81.4524
0
LINE
8
BLACK
6
CONTINUOUS
10
158.83
20
-81.4524
11
158.83
21
-81.1076
0
LINE
8
BLACK
6
CONTINUOUS
10
158.83
20
-81.1076
11
158.897
21
-80.7695
0
LINE
8
BLACK
6
CONTINUOUS
10
158.897
20
-80.7695
11
159.029
21
-80.4511
0
LINE
8
BLACK
6
CONTINUOUS
10
159.029
20
-80.4511
11
159.221
21
-80.1644
0
LINE
8
BLACK
6
CONTINUOUS
10
159.221
20
-80.1644
11
159.464
21
-79.9207
0
LINE
8
BLACK
6
CONTINUOUS
10
159.464
20
-79.9207
11
159.751
21
-79.7292
0
LINE
8
BLACK
6
CONTINUOUS
10
159.751
20
-79.7292
11
160.07
21
-79.5973
0
LINE
8
BLACK
6
CONTINUOUS
10
160.07
20
-79.5973
11
160.408
21
-79.53
0
LINE
8
BLACK
6
CONTINUOUS
10
160.408
20
-79.53
11
160.752
21
-79.53
0
LINE
8
BLACK
6
CONTINUOUS
10
160.752
20
-79.53
11
161.09
21
-79.5973
0
LINE
8
BLACK
6
CONTINUOUS
10
119.613
20
-80.5107
11
119.759
21
-80.571
0
LINE
8
BLACK
6
CONTINUOUS
10
119.759
20
-80.571
11
119.89
21
-80.6586
0
LINE
8
BLACK
6
CONTINUOUS
10
119.89
20
-80.6586
11
120.001
21
-80.77
0
LINE
8
BLACK
6
CONTINUOUS
10
120.001
20
-80.77
11
120.089
21
-80.9011
0
LINE
8
BLACK
6
CONTINUOUS
10
120.089
20
-80.9011
11
120.149
21
-81.0466
0
LINE
8
BLACK
6
CONTINUOUS
10
120.149
20
-81.0466
11
120.18
21
-81.2012
0
LINE
8
BLACK
6
CONTINUOUS
10
120.18
20
-81.2012
11
120.18
21
-81.3588
0
LINE
8
BLACK
6
CONTINUOUS
10
120.18
20
-81.3588
11
120.149
21
-81.5134
0
LINE
8
BLACK
6
CONTINUOUS
10
120.149
20
-81.5134
11
120.089
21
-81.6589
0
LINE
8
BLACK
6
CONTINUOUS
10
120.089
20
-81.6589
11
120.001
21
-81.79
0
LINE
8
BLACK
6
CONTINUOUS
10
120.001
20
-81.79
11
119.89
21
-81.9014
0
LINE
8
BLACK
6
CONTINUOUS
10
119.89
20
-81.9014
11
119.759
21
-81.989
0
LINE
8
BLACK
6
CONTINUOUS
10
119.759
20
-81.989
11
119.613
21
-82.0493
0
LINE
8
BLACK
6
CONTINUOUS
10
119.613
20
-82.0493
11
119.459
21
-82.08
0
LINE
8
BLACK
6
CONTINUOUS
10
119.459
20
-82.08
11
119.301
21
-82.08
0
LINE
8
BLACK
6
CONTINUOUS
10
119.301
20
-82.08
11
119.147
21
-82.0493
0
LINE
8
BLACK
6
CONTINUOUS
10
119.147
20
-82.0493
11
119.001
21
-81.989
0
LINE
8
BLACK
6
CONTINUOUS
10
119.001
20
-81.989
11
118.87
21
-81.9014
0
LINE
8
BLACK
6
CONTINUOUS
10
118.87
20
-81.9014
11
118.759
21
-81.79
0
LINE
8
BLACK
6
CONTINUOUS
10
118.759
20
-81.79
11
118.671
21
-81.6589
0
LINE
8
BLACK
6
CONTINUOUS
10
118.671
20
-81.6589
11
118.611
21
-81.5134
0
LINE
8
BLACK
6
CONTINUOUS
10
118.611
20
-81.5134
11
118.58
21
-81.3588
0
LINE
8
BLACK
6
CONTINUOUS
10
118.58
20
-81.3588
11
118.58
21
-81.2012
0
LINE
8
BLACK
6
CONTINUOUS
10
118.58
20
-81.2012
11
118.611
21
-81.0466
0
LINE
8
BLACK
6
CONTINUOUS
10
118.611
20
-81.0466
11
118.671
21
-80.9011
0
LINE
8
BLACK
6
CONTINUOUS
10
118.671
20
-80.9011
11
118.759
21
-80.77
0
LINE
8
BLACK
6
CONTINUOUS
10
118.759
20
-80.77
11
118.87
21
-80.6586
0
LINE
8
BLACK
6
CONTINUOUS
10
118.87
20
-80.6586
11
119.001
21
-80.571
0
LINE
8
BLACK
6
CONTINUOUS
10
119.001
20
-80.571
11
119.147
21
-80.5107
0
LINE
8
BLACK
6
CONTINUOUS
10
119.147
20
-80.5107
11
119.301
21
-80.48
0
LINE
8
BLACK
6
CONTINUOUS
10
119.301
20
-80.48
11
119.459
21
-80.48
0
LINE
8
BLACK
6
CONTINUOUS
10
119.459
20
-80.48
11
119.613
21
-80.5107
0
LINE
8
BLACK
6
CONTINUOUS
10
134.853
20
-80.5107
11
134.999
21
-80.571
0
LINE
8
BLACK
6
CONTINUOUS
10
134.999
20
-80.571
11
135.13
21
-80.6586
0
LINE
8
BLACK
6
CONTINUOUS
10
135.13
20
-80.6586
11
135.241
21
-80.77
0
LINE
8
BLACK
6
CONTINUOUS
10
135.241
20
-80.77
11
135.329
21
-80.9011
0
LINE
8
BLACK
6
CONTINUOUS
10
135.329
20
-80.9011
11
135.389
21
-81.0466
0
LINE
8
BLACK
6
CONTINUOUS
10
135.389
20
-81.0466
11
135.42
21
-81.2012
0
LINE
8
BLACK
6
CONTINUOUS
10
135.42
20
-81.2012
11
135.42
21
-81.3588
0
LINE
8
BLACK
6
CONTINUOUS
10
135.42
20
-81.3588
11
135.389
21
-81.5134
0
LINE
8
BLACK
6
CONTINUOUS
10
135.389
20
-81.5134
11
135.329
21
-81.6589
0
LINE
8
BLACK
6
CONTINUOUS
10
135.329
20
-81.6589
11
135.241
21
-81.79
0
LINE
8
BLACK
6
CONTINUOUS
10
135.241
20
-81.79
11
135.13
21
-81.9014
0
LINE
8
BLACK
6
CONTINUOUS
10
135.13
20
-81.9014
11
134.999
21
-81.989
0
LINE
8
BLACK
6
CONTINUOUS
10
134.999
20
-81.989
11
134.853
21
-82.0493
0
LINE
8
BLACK
6
CONTINUOUS
10
134.853
20
-82.0493
11
134.699
21
-82.08
0
LINE
8
BLACK
6
CONTINUOUS
10
134.699
20
-82.08
11
134.541
21
-82.08
0
LINE
8
BLACK
6
CONTINUOUS
10
134.541
20
-82.08
11
134.387
21
-82.0493
0
LINE
8
BLACK
6
CONTINUOUS
10
134.387
20
-82.0493
11
134.241
21
-81.989
0
LINE
8
BLACK
6
CONTINUOUS
10
134.241
20
-81.989
11
134.11
21
-81.9014
0
LINE
8
BLACK
6
CONTINUOUS
10
134.11
20
-81.9014
11
133.999
21
-81.79
0
LINE
8
BLACK
6
CONTINUOUS
10
133.999
20
-81.79
11
133.911
21
-81.6589
0
LINE
8
BLACK
6
CONTINUOUS
10
133.911
20
-81.6589
11
133.851
21
-81.5134
0
LINE
8
BLACK
6
CONTINUOUS
10
133.851
20
-81.5134
11
133.82
21
-81.3588
0
LINE
8
BLACK
6
CONTINUOUS
10
133.82
20
-81.3588
11
133.82
21
-81.2012
0
LINE
8
BLACK
6
CONTINUOUS
10
133.82
20
-81.2012
11
133.851
21
-81.0466
0
LINE
8
BLACK
6
CONTINUOUS
10
133.851
20
-81.0466
11
133.911
21
-80.9011
0
LINE
8
BLACK
6
CONTINUOUS
10
133.911
20
-80.9011
11
133.999
21
-80.77
0
LINE
8
BLACK
6
CONTINUOUS
10
133.999
20
-80.77
11
134.11
21
-80.6586
0
LINE
8
BLACK
6
CONTINUOUS
10
134.11
20
-80.6586
11
134.241
21
-80.571
0
LINE
8
BLACK
6
CONTINUOUS
10
134.241
20
-80.571
11
134.387
21
-80.5107
0
LINE
8
BLACK
6
CONTINUOUS
10
134.387
20
-80.5107
11
134.541
21
-80.48
0
LINE
8
BLACK
6
CONTINUOUS
10
134.541
20
-80.48
11
134.699
21
-80.48
0
LINE
8
BLACK
6
CONTINUOUS
10
134.699
20
-80.48
11
134.853
21
-80.5107
0
LINE
8
BLACK
6
CONTINUOUS
10
125.978
20
-52.5227
11
126.133
21
-52.5867
0
LINE
8
BLACK
6
CONTINUOUS
10
126.133
20
-52.5867
11
126.272
21
-52.6798
0
LINE
8
BLACK
6
CONTINUOUS
10
126.272
20
-52.6798
11
126.39
21
-52.7982
0
LINE
8
BLACK
6
CONTINUOUS
10
126.39
20
-52.7982
11
126.483
21
-52.9374
0
LINE
8
BLACK
6
CONTINUOUS
10
126.483
20
-52.9374
11
126.547
21
-53.0921
0
LINE
8
BLACK
6
CONTINUOUS
10
126.547
20
-53.0921
11
126.58
21
-53.2563
0
LINE
8
BLACK
6
CONTINUOUS
10
126.58
20
-53.2563
11
126.58
21
-53.4237
0
LINE
8
BLACK
6
CONTINUOUS
10
126.58
20
-53.4237
11
126.547
21
-53.5879
0
LINE
8
BLACK
6
CONTINUOUS
10
126.547
20
-53.5879
11
126.483
21
-53.7426
0
LINE
8
BLACK
6
CONTINUOUS
10
126.483
20
-53.7426
11
126.39
21
-53.8818
0
LINE
8
BLACK
6
CONTINUOUS
10
126.39
20
-53.8818
11
126.365
21
-53.9071
0
LINE
8
BLACK
6
CONTINUOUS
10
126.365
20
-53.9071
11
126.365
21
-56.887
0
LINE
8
BLACK
6
CONTINUOUS
10
126.365
20
-56.887
11
134.723
21
-65.2448
0
LINE
8
BLACK
6
CONTINUOUS
10
134.723
20
-65.2448
11
134.853
21
-65.2707
0
LINE
8
BLACK
6
CONTINUOUS
10
134.853
20
-65.2707
11
134.999
21
-65.331
0
LINE
8
BLACK
6
CONTINUOUS
10
134.999
20
-65.331
11
135.11
21
-65.405
0
LINE
8
BLACK
6
CONTINUOUS
10
135.11
20
-65.405
11
142.209
21
-65.405
0
LINE
8
BLACK
6
CONTINUOUS
10
142.209
20
-65.405
11
142.24
21
-65.4019
0
LINE
8
BLACK
6
CONTINUOUS
10
142.24
20
-65.4019
11
142.271
21
-65.405
0
LINE
8
BLACK
6
CONTINUOUS
10
142.271
20
-65.405
11
142.271
21
-65.405
0
LINE
8
BLACK
6
CONTINUOUS
10
142.271
20
-65.405
11
142.364
21
-65.4142
0
LINE
8
BLACK
6
CONTINUOUS
10
142.364
20
-65.4142
11
142.484
21
-65.4505
0
LINE
8
BLACK
6
CONTINUOUS
10
142.484
20
-65.4505
11
142.594
21
-65.5095
0
LINE
8
BLACK
6
CONTINUOUS
10
142.594
20
-65.5095
11
142.691
21
-65.5888
0
LINE
8
BLACK
6
CONTINUOUS
10
142.691
20
-65.5888
11
142.711
21
-65.6131
0
LINE
8
BLACK
6
CONTINUOUS
10
142.711
20
-65.6131
11
144.828
21
-67.73
0
LINE
8
BLACK
6
CONTINUOUS
10
144.828
20
-67.73
11
144.864
21
-67.73
0
LINE
8
BLACK
6
CONTINUOUS
10
144.864
20
-67.73
11
145.028
21
-67.7627
0
LINE
8
BLACK
6
CONTINUOUS
10
145.028
20
-67.7627
11
145.183
21
-67.8267
0
LINE
8
BLACK
6
CONTINUOUS
10
145.183
20
-67.8267
11
145.322
21
-67.9198
0
LINE
8
BLACK
6
CONTINUOUS
10
145.322
20
-67.9198
11
145.44
21
-68.0382
0
LINE
8
BLACK
6
CONTINUOUS
10
145.44
20
-68.0382
11
145.533
21
-68.1774
0
LINE
8
BLACK
6
CONTINUOUS
10
145.533
20
-68.1774
11
145.597
21
-68.3321
0
LINE
8
BLACK
6
CONTINUOUS
10
145.597
20
-68.3321
11
145.63
21
-68.4963
0
LINE
8
BLACK
6
CONTINUOUS
10
145.63
20
-68.4963
11
145.63
21
-68.6637
0
LINE
8
BLACK
6
CONTINUOUS
10
145.63
20
-68.6637
11
145.597
21
-68.8279
0
LINE
8
BLACK
6
CONTINUOUS
10
145.597
20
-68.8279
11
145.533
21
-68.9826
0
LINE
8
BLACK
6
CONTINUOUS
10
145.533
20
-68.9826
11
145.44
21
-69.1218
0
LINE
8
BLACK
6
CONTINUOUS
10
145.44
20
-69.1218
11
145.415
21
-69.1471
0
LINE
8
BLACK
6
CONTINUOUS
10
145.415
20
-69.1471
11
145.415
21
-77.7875
0
LINE
8
BLACK
6
CONTINUOUS
10
145.415
20
-77.7875
11
145.78
21
-77.7875
0
LINE
8
BLACK
6
CONTINUOUS
10
145.78
20
-77.7875
11
145.78
21
-79.6925
0
LINE
8
BLACK
6
CONTINUOUS
10
145.78
20
-79.6925
11
143.78
21
-79.6925
0
LINE
8
BLACK
6
CONTINUOUS
10
143.78
20
-79.6925
11
143.78
21
-77.7875
0
LINE
8
BLACK
6
CONTINUOUS
10
143.78
20
-77.7875
11
144.145
21
-77.7875
0
LINE
8
BLACK
6
CONTINUOUS
10
144.145
20
-77.7875
11
144.145
21
-69.1471
0
LINE
8
BLACK
6
CONTINUOUS
10
144.145
20
-69.1471
11
144.12
21
-69.1218
0
LINE
8
BLACK
6
CONTINUOUS
10
144.12
20
-69.1218
11
144.027
21
-68.9826
0
LINE
8
BLACK
6
CONTINUOUS
10
144.027
20
-68.9826
11
143.963
21
-68.8279
0
LINE
8
BLACK
6
CONTINUOUS
10
143.963
20
-68.8279
11
143.93
21
-68.6637
0
LINE
8
BLACK
6
CONTINUOUS
10
143.93
20
-68.6637
11
143.93
21
-68.628
0
LINE
8
BLACK
6
CONTINUOUS
10
143.93
20
-68.628
11
141.977
21
-66.675
0
LINE
8
BLACK
6
CONTINUOUS
10
141.977
20
-66.675
11
135.11
21
-66.675
0
LINE
8
BLACK
6
CONTINUOUS
10
135.11
20
-66.675
11
134.999
21
-66.749
0
LINE
8
BLACK
6
CONTINUOUS
10
134.999
20
-66.749
11
134.853
21
-66.8093
0
LINE
8
BLACK
6
CONTINUOUS
10
134.853
20
-66.8093
11
134.699
21
-66.84
0
LINE
8
BLACK
6
CONTINUOUS
10
134.699
20
-66.84
11
134.541
21
-66.84
0
LINE
8
BLACK
6
CONTINUOUS
10
134.541
20
-66.84
11
134.387
21
-66.8093
0
LINE
8
BLACK
6
CONTINUOUS
10
134.387
20
-66.8093
11
134.241
21
-66.749
0
LINE
8
BLACK
6
CONTINUOUS
10
134.241
20
-66.749
11
134.11
21
-66.6614
0
LINE
8
BLACK
6
CONTINUOUS
10
134.11
20
-66.6614
11
133.999
21
-66.55
0
LINE
8
BLACK
6
CONTINUOUS
10
133.999
20
-66.55
11
133.911
21
-66.4189
0
LINE
8
BLACK
6
CONTINUOUS
10
133.911
20
-66.4189
11
133.851
21
-66.2734
0
LINE
8
BLACK
6
CONTINUOUS
10
133.851
20
-66.2734
11
133.825
21
-66.1428
0
LINE
8
BLACK
6
CONTINUOUS
10
133.825
20
-66.1428
11
125.303
21
-57.6211
0
LINE
8
BLACK
6
CONTINUOUS
10
125.303
20
-57.6211
11
125.279
21
-57.6012
0
LINE
8
BLACK
6
CONTINUOUS
10
125.279
20
-57.6012
11
125.199
21
-57.5045
0
LINE
8
BLACK
6
CONTINUOUS
10
125.199
20
-57.5045
11
125.14
21
-57.3942
0
LINE
8
BLACK
6
CONTINUOUS
10
125.14
20
-57.3942
11
125.14
21
-57.3942
0
LINE
8
BLACK
6
CONTINUOUS
10
125.14
20
-57.3942
11
125.104
21
-57.2745
0
LINE
8
BLACK
6
CONTINUOUS
10
125.104
20
-57.2745
11
125.092
21
-57.15
0
LINE
8
BLACK
6
CONTINUOUS
10
125.092
20
-57.15
11
125.095
21
-57.1188
0
LINE
8
BLACK
6
CONTINUOUS
10
125.095
20
-57.1188
11
125.095
21
-53.9071
0
LINE
8
BLACK
6
CONTINUOUS
10
125.095
20
-53.9071
11
125.07
21
-53.8818
0
LINE
8
BLACK
6
CONTINUOUS
10
125.07
20
-53.8818
11
124.977
21
-53.7426
0
LINE
8
BLACK
6
CONTINUOUS
10
124.977
20
-53.7426
11
124.913
21
-53.5879
0
LINE
8
BLACK
6
CONTINUOUS
10
124.913
20
-53.5879
11
124.88
21
-53.4237
0
LINE
8
BLACK
6
CONTINUOUS
10
124.88
20
-53.4237
11
124.88
21
-53.2563
0
LINE
8
BLACK
6
CONTINUOUS
10
124.88
20
-53.2563
11
124.913
21
-53.0921
0
LINE
8
BLACK
6
CONTINUOUS
10
124.913
20
-53.0921
11
124.977
21
-52.9374
0
LINE
8
BLACK
6
CONTINUOUS
10
124.977
20
-52.9374
11
125.07
21
-52.7982
0
LINE
8
BLACK
6
CONTINUOUS
10
125.07
20
-52.7982
11
125.188
21
-52.6798
0
LINE
8
BLACK
6
CONTINUOUS
10
125.188
20
-52.6798
11
125.327
21
-52.5867
0
LINE
8
BLACK
6
CONTINUOUS
10
125.327
20
-52.5867
11
125.482
21
-52.5227
0
LINE
8
BLACK
6
CONTINUOUS
10
125.482
20
-52.5227
11
125.646
21
-52.49
0
LINE
8
BLACK
6
CONTINUOUS
10
125.646
20
-52.49
11
125.814
21
-52.49
0
LINE
8
BLACK
6
CONTINUOUS
10
125.814
20
-52.49
11
125.978
21
-52.5227
0
LINE
8
BLACK
6
CONTINUOUS
10
134.853
20
-77.9707
11
134.999
21
-78.031
0
LINE
8
BLACK
6
CONTINUOUS
10
134.999
20
-78.031
11
135.13
21
-78.1186
0
LINE
8
BLACK
6
CONTINUOUS
10
135.13
20
-78.1186
11
135.241
21
-78.23
0
LINE
8
BLACK
6
CONTINUOUS
10
135.241
20
-78.23
11
135.329
21
-78.3611
0
LINE
8
BLACK
6
CONTINUOUS
10
135.329
20
-78.3611
11
135.389
21
-78.5066
0
LINE
8
BLACK
6
CONTINUOUS
10
135.389
20
-78.5066
11
135.42
21
-78.6612
0
LINE
8
BLACK
6
CONTINUOUS
10
135.42
20
-78.6612
11
135.42
21
-78.8188
0
LINE
8
BLACK
6
CONTINUOUS
10
135.42
20
-78.8188
11
135.389
21
-78.9734
0
LINE
8
BLACK
6
CONTINUOUS
10
135.389
20
-78.9734
11
135.329
21
-79.1189
0
LINE
8
BLACK
6
CONTINUOUS
10
135.329
20
-79.1189
11
135.241
21
-79.25
0
LINE
8
BLACK
6
CONTINUOUS
10
135.241
20
-79.25
11
135.13
21
-79.3614
0
LINE
8
BLACK
6
CONTINUOUS
10
135.13
20
-79.3614
11
134.999
21
-79.449
0
LINE
8
BLACK
6
CONTINUOUS
10
134.999
20
-79.449
11
134.853
21
-79.5093
0
LINE
8
BLACK
6
CONTINUOUS
10
134.853
20
-79.5093
11
134.699
21
-79.54
0
LINE
8
BLACK
6
CONTINUOUS
10
134.699
20
-79.54
11
134.541
21
-79.54
0
LINE
8
BLACK
6
CONTINUOUS
10
134.541
20
-79.54
11
134.387
21
-79.5093
0
LINE
8
BLACK
6
CONTINUOUS
10
134.387
20
-79.5093
11
134.241
21
-79.449
0
LINE
8
BLACK
6
CONTINUOUS
10
134.241
20
-79.449
11
134.11
21
-79.3614
0
LINE
8
BLACK
6
CONTINUOUS
10
134.11
20
-79.3614
11
133.999
21
-79.25
0
LINE
8
BLACK
6
CONTINUOUS
10
133.999
20
-79.25
11
133.911
21
-79.1189
0
LINE
8
BLACK
6
CONTINUOUS
10
133.911
20
-79.1189
11
133.851
21
-78.9734
0
LINE
8
BLACK
6
CONTINUOUS
10
133.851
20
-78.9734
11
133.82
21
-78.8188
0
LINE
8
BLACK
6
CONTINUOUS
10
133.82
20
-78.8188
11
133.82
21
-78.6612
0
LINE
8
BLACK
6
CONTINUOUS
10
133.82
20
-78.6612
11
133.851
21
-78.5066
0
LINE
8
BLACK
6
CONTINUOUS
10
133.851
20
-78.5066
11
133.911
21
-78.3611
0
LINE
8
BLACK
6
CONTINUOUS
10
133.911
20
-78.3611
11
133.999
21
-78.23
0
LINE
8
BLACK
6
CONTINUOUS
10
133.999
20
-78.23
11
134.11
21
-78.1186
0
LINE
8
BLACK
6
CONTINUOUS
10
134.11
20
-78.1186
11
134.241
21
-78.031
0
LINE
8
BLACK
6
CONTINUOUS
10
134.241
20
-78.031
11
134.387
21
-77.9707
0
LINE
8
BLACK
6
CONTINUOUS
10
134.387
20
-77.9707
11
134.541
21
-77.94
0
LINE
8
BLACK
6
CONTINUOUS
10
134.541
20
-77.94
11
134.699
21
-77.94
0
LINE
8
BLACK
6
CONTINUOUS
10
134.699
20
-77.94
11
134.853
21
-77.9707
0
LINE
8
BLACK
6
CONTINUOUS
10
119.613
20
-77.9707
11
119.759
21
-78.031
0
LINE
8
BLACK
6
CONTINUOUS
10
119.759
20
-78.031
11
119.89
21
-78.1186
0
LINE
8
BLACK
6
CONTINUOUS
10
119.89
20
-78.1186
11
120.001
21
-78.23
0
LINE
8
BLACK
6
CONTINUOUS
10
120.001
20
-78.23
11
120.089
21
-78.3611
0
LINE
8
BLACK
6
CONTINUOUS
10
120.089
20
-78.3611
11
120.149
21
-78.5066
0
LINE
8
BLACK
6
CONTINUOUS
10
120.149
20
-78.5066
11
120.18
21
-78.6612
0
LINE
8
BLACK
6
CONTINUOUS
10
120.18
20
-78.6612
11
120.18
21
-78.8188
0
LINE
8
BLACK
6
CONTINUOUS
10
120.18
20
-78.8188
11
120.149
21
-78.9734
0
LINE
8
BLACK
6
CONTINUOUS
10
120.149
20
-78.9734
11
120.089
21
-79.1189
0
LINE
8
BLACK
6
CONTINUOUS
10
120.089
20
-79.1189
11
120.001
21
-79.25
0
LINE
8
BLACK
6
CONTINUOUS
10
120.001
20
-79.25
11
119.89
21
-79.3614
0
LINE
8
BLACK
6
CONTINUOUS
10
119.89
20
-79.3614
11
119.759
21
-79.449
0
LINE
8
BLACK
6
CONTINUOUS
10
119.759
20
-79.449
11
119.613
21
-79.5093
0
LINE
8
BLACK
6
CONTINUOUS
10
119.613
20
-79.5093
11
119.459
21
-79.54
0
LINE
8
BLACK
6
CONTINUOUS
10
119.459
20
-79.54
11
119.301
21
-79.54
0
LINE
8
BLACK
6
CONTINUOUS
10
119.301
20
-79.54
11
119.147
21
-79.5093
0
LINE
8
BLACK
6
CONTINUOUS
10
119.147
20
-79.5093
11
119.001
21
-79.449
0
LINE
8
BLACK
6
CONTINUOUS
10
119.001
20
-79.449
11
118.87
21
-79.3614
0
LINE
8
BLACK
6
CONTINUOUS
10
118.87
20
-79.3614
11
118.759
21
-79.25
0
LINE
8
BLACK
6
CONTINUOUS
10
118.759
20
-79.25
11
118.671
21
-79.1189
0
LINE
8
BLACK
6
CONTINUOUS
10
118.671
20
-79.1189
11
118.611
21
-78.9734
0
LINE
8
BLACK
6
CONTINUOUS
10
118.611
20
-78.9734
11
118.58
21
-78.8188
0
LINE
8
BLACK
6
CONTINUOUS
10
118.58
20
-78.8188
11
118.58
21
-78.6612
0
LINE
8
BLACK
6
CONTINUOUS
10
118.58
20
-78.6612
11
118.611
21
-78.5066
0
LINE
8
BLACK
6
CONTINUOUS
10
118.611
20
-78.5066
11
118.671
21
-78.3611
0
LINE
8
BLACK
6
CONTINUOUS
10
118.671
20
-78.3611
11
118.759
21
-78.23
0
LINE
8
BLACK
6
CONTINUOUS
10
118.759
20
-78.23
11
118.87
21
-78.1186
0
LINE
8
BLACK
6
CONTINUOUS
10
118.87
20
-78.1186
11
119.001
21
-78.031
0
LINE
8
BLACK
6
CONTINUOUS
10
119.001
20
-78.031
11
119.147
21
-77.9707
0
LINE
8
BLACK
6
CONTINUOUS
10
119.147
20
-77.9707
11
119.301
21
-77.94
0
LINE
8
BLACK
6
CONTINUOUS
10
119.301
20
-77.94
11
119.459
21
-77.94
0
LINE
8
BLACK
6
CONTINUOUS
10
119.459
20
-77.94
11
119.613
21
-77.9707
0
LINE
8
BLACK
6
CONTINUOUS
10
134.853
20
-75.4307
11
134.999
21
-75.491
0
LINE
8
BLACK
6
CONTINUOUS
10
134.999
20
-75.491
11
135.13
21
-75.5786
0
LINE
8
BLACK
6
CONTINUOUS
10
135.13
20
-75.5786
11
135.241
21
-75.69
0
LINE
8
BLACK
6
CONTINUOUS
10
135.241
20
-75.69
11
135.329
21
-75.8211
0
LINE
8
BLACK
6
CONTINUOUS
10
135.329
20
-75.8211
11
135.389
21
-75.9666
0
LINE
8
BLACK
6
CONTINUOUS
10
135.389
20
-75.9666
11
135.42
21
-76.1212
0
LINE
8
BLACK
6
CONTINUOUS
10
135.42
20
-76.1212
11
135.42
21
-76.2788
0
LINE
8
BLACK
6
CONTINUOUS
10
135.42
20
-76.2788
11
135.389
21
-76.4334
0
LINE
8
BLACK
6
CONTINUOUS
10
135.389
20
-76.4334
11
135.329
21
-76.5789
0
LINE
8
BLACK
6
CONTINUOUS
10
135.329
20
-76.5789
11
135.241
21
-76.71
0
LINE
8
BLACK
6
CONTINUOUS
10
135.241
20
-76.71
11
135.13
21
-76.8214
0
LINE
8
BLACK
6
CONTINUOUS
10
135.13
20
-76.8214
11
134.999
21
-76.909
0
LINE
8
BLACK
6
CONTINUOUS
10
134.999
20
-76.909
11
134.853
21
-76.9693
0
LINE
8
BLACK
6
CONTINUOUS
10
134.853
20
-76.9693
11
134.699
21
-77
0
LINE
8
BLACK
6
CONTINUOUS
10
134.699
20
-77
11
134.541
21
-77
0
LINE
8
BLACK
6
CONTINUOUS
10
134.541
20
-77
11
134.387
21
-76.9693
0
LINE
8
BLACK
6
CONTINUOUS
10
134.387
20
-76.9693
11
134.241
21
-76.909
0
LINE
8
BLACK
6
CONTINUOUS
10
134.241
20
-76.909
11
134.11
21
-76.8214
0
LINE
8
BLACK
6
CONTINUOUS
10
134.11
20
-76.8214
11
133.999
21
-76.71
0
LINE
8
BLACK
6
CONTINUOUS
10
133.999
20
-76.71
11
133.911
21
-76.5789
0
LINE
8
BLACK
6
CONTINUOUS
10
133.911
20
-76.5789
11
133.851
21
-76.4334
0
LINE
8
BLACK
6
CONTINUOUS
10
133.851
20
-76.4334
11
133.82
21
-76.2788
0
LINE
8
BLACK
6
CONTINUOUS
10
133.82
20
-76.2788
11
133.82
21
-76.1212
0
LINE
8
BLACK
6
CONTINUOUS
10
133.82
20
-76.1212
11
133.851
21
-75.9666
0
LINE
8
BLACK
6
CONTINUOUS
10
133.851
20
-75.9666
11
133.911
21
-75.8211
0
LINE
8
BLACK
6
CONTINUOUS
10
133.911
20
-75.8211
11
133.999
21
-75.69
0
LINE
8
BLACK
6
CONTINUOUS
10
133.999
20
-75.69
11
134.11
21
-75.5786
0
LINE
8
BLACK
6
CONTINUOUS
10
134.11
20
-75.5786
11
134.241
21
-75.491
0
LINE
8
BLACK
6
CONTINUOUS
10
134.241
20
-75.491
11
134.387
21
-75.4307
0
LINE
8
BLACK
6
CONTINUOUS
10
134.387
20
-75.4307
11
134.541
21
-75.4
0
LINE
8
BLACK
6
CONTINUOUS
10
134.541
20
-75.4
11
134.699
21
-75.4
0
LINE
8
BLACK
6
CONTINUOUS
10
134.699
20
-75.4
11
134.853
21
-75.4307
0
LINE
8
BLACK
6
CONTINUOUS
10
119.613
20
-75.4307
11
119.759
21
-75.491
0
LINE
8
BLACK
6
CONTINUOUS
10
119.759
20
-75.491
11
119.89
21
-75.5786
0
LINE
8
BLACK
6
CONTINUOUS
10
119.89
20
-75.5786
11
120.001
21
-75.69
0
LINE
8
BLACK
6
CONTINUOUS
10
120.001
20
-75.69
11
120.089
21
-75.8211
0
LINE
8
BLACK
6
CONTINUOUS
10
120.089
20
-75.8211
11
120.149
21
-75.9666
0
LINE
8
BLACK
6
CONTINUOUS
10
120.149
20
-75.9666
11
120.18
21
-76.1212
0
LINE
8
BLACK
6
CONTINUOUS
10
120.18
20
-76.1212
11
120.18
21
-76.2788
0
LINE
8
BLACK
6
CONTINUOUS
10
120.18
20
-76.2788
11
120.149
21
-76.4334
0
LINE
8
BLACK
6
CONTINUOUS
10
120.149
20
-76.4334
11
120.089
21
-76.5789
0
LINE
8
BLACK
6
CONTINUOUS
10
120.089
20
-76.5789
11
120.001
21
-76.71
0
LINE
8
BLACK
6
CONTINUOUS
10
120.001
20
-76.71
11
119.89
21
-76.8214
0
LINE
8
BLACK
6
CONTINUOUS
10
119.89
20
-76.8214
11
119.759
21
-76.909
0
LINE
8
BLACK
6
CONTINUOUS
10
119.759
20
-76.909
11
119.613
21
-76.9693
0
LINE
8
BLACK
6
CONTINUOUS
10
119.613
20
-76.9693
11
119.459
21
-77
0
LINE
8
BLACK
6
CONTINUOUS
10
119.459
20
-77
11
119.301
21
-77
0
LINE
8
BLACK
6
CONTINUOUS
10
119.301
20
-77
11
119.147
21
-76.9693
0
LINE
8
BLACK
6
CONTINUOUS
10
119.147
20
-76.9693
11
119.001
21
-76.909
0
LINE
8
BLACK
6
CONTINUOUS
10
119.001
20
-76.909
11
118.87
21
-76.8214
0
LINE
8
BLACK
6
CONTINUOUS
10
118.87
20
-76.8214
11
118.759
21
-76.71
0
LINE
8
BLACK
6
CONTINUOUS
10
118.759
20
-76.71
11
118.671
21
-76.5789
0
LINE
8
BLACK
6
CONTINUOUS
10
118.671
20
-76.5789
11
118.611
21
-76.4334
0
LINE
8
BLACK
6
CONTINUOUS
10
118.611
20
-76.4334
11
118.58
21
-76.2788
0
LINE
8
BLACK
6
CONTINUOUS
10
118.58
20
-76.2788
11
118.58
21
-76.1212
0
LINE
8
BLACK
6
CONTINUOUS
10
118.58
20
-76.1212
11
118.611
21
-75.9666
0
LINE
8
BLACK
6
CONTINUOUS
10
118.611
20
-75.9666
11
118.671
21
-75.8211
0
LINE
8
BLACK
6
CONTINUOUS
10
118.671
20
-75.8211
11
118.759
21
-75.69
0
LINE
8
BLACK
6
CONTINUOUS
10
118.759
20
-75.69
11
118.87
21
-75.5786
0
LINE
8
BLACK
6
CONTINUOUS
10
118.87
20
-75.5786
11
119.001
21
-75.491
0
LINE
8
BLACK
6
CONTINUOUS
10
119.001
20
-75.491
11
119.147
21
-75.4307
0
LINE
8
BLACK
6
CONTINUOUS
10
119.147
20
-75.4307
11
119.301
21
-75.4
0
LINE
8
BLACK
6
CONTINUOUS
10
119.301
20
-75.4
11
119.459
21
-75.4
0
LINE
8
BLACK
6
CONTINUOUS
10
119.459
20
-75.4
11
119.613
21
-75.4307
0
LINE
8
BLACK
6
CONTINUOUS
10
134.853
20
-72.8907
11
134.999
21
-72.951
0
LINE
8
BLACK
6
CONTINUOUS
10
134.999
20
-72.951
11
135.13
21
-73.0386
0
LINE
8
BLACK
6
CONTINUOUS
10
135.13
20
-73.0386
11
135.241
21
-73.15
0
LINE
8
BLACK
6
CONTINUOUS
10
135.241
20
-73.15
11
135.329
21
-73.2811
0
LINE
8
BLACK
6
CONTINUOUS
10
135.329
20
-73.2811
11
135.389
21
-73.4266
0
LINE
8
BLACK
6
CONTINUOUS
10
135.389
20
-73.4266
11
135.42
21
-73.5812
0
LINE
8
BLACK
6
CONTINUOUS
10
135.42
20
-73.5812
11
135.42
21
-73.7388
0
LINE
8
BLACK
6
CONTINUOUS
10
135.42
20
-73.7388
11
135.389
21
-73.8934
0
LINE
8
BLACK
6
CONTINUOUS
10
135.389
20
-73.8934
11
135.329
21
-74.0389
0
LINE
8
BLACK
6
CONTINUOUS
10
135.329
20
-74.0389
11
135.241
21
-74.17
0
LINE
8
BLACK
6
CONTINUOUS
10
135.241
20
-74.17
11
135.13
21
-74.2814
0
LINE
8
BLACK
6
CONTINUOUS
10
135.13
20
-74.2814
11
134.999
21
-74.369
0
LINE
8
BLACK
6
CONTINUOUS
10
134.999
20
-74.369
11
134.853
21
-74.4293
0
LINE
8
BLACK
6
CONTINUOUS
10
134.853
20
-74.4293
11
134.699
21
-74.46
0
LINE
8
BLACK
6
CONTINUOUS
10
134.699
20
-74.46
11
134.541
21
-74.46
0
LINE
8
BLACK
6
CONTINUOUS
10
134.541
20
-74.46
11
134.387
21
-74.4293
0
LINE
8
BLACK
6
CONTINUOUS
10
134.387
20
-74.4293
11
134.241
21
-74.369
0
LINE
8
BLACK
6
CONTINUOUS
10
134.241
20
-74.369
11
134.11
21
-74.2814
0
LINE
8
BLACK
6
CONTINUOUS
10
134.11
20
-74.2814
11
133.999
21
-74.17
0
LINE
8
BLACK
6
CONTINUOUS
10
133.999
20
-74.17
11
133.911
21
-74.0389
0
LINE
8
BLACK
6
CONTINUOUS
10
133.911
20
-74.0389
11
133.851
21
-73.8934
0
LINE
8
BLACK
6
CONTINUOUS
10
133.851
20
-73.8934
11
133.82
21
-73.7388
0
LINE
8
BLACK
6
CONTINUOUS
10
133.82
20
-73.7388
11
133.82
21
-73.5812
0
LINE
8
BLACK
6
CONTINUOUS
10
133.82
20
-73.5812
11
133.851
21
-73.4266
0
LINE
8
BLACK
6
CONTINUOUS
10
133.851
20
-73.4266
11
133.911
21
-73.2811
0
LINE
8
BLACK
6
CONTINUOUS
10
133.911
20
-73.2811
11
133.999
21
-73.15
0
LINE
8
BLACK
6
CONTINUOUS
10
133.999
20
-73.15
11
134.11
21
-73.0386
0
LINE
8
BLACK
6
CONTINUOUS
10
134.11
20
-73.0386
11
134.241
21
-72.951
0
LINE
8
BLACK
6
CONTINUOUS
10
134.241
20
-72.951
11
134.387
21
-72.8907
0
LINE
8
BLACK
6
CONTINUOUS
10
134.387
20
-72.8907
11
134.541
21
-72.86
0
LINE
8
BLACK
6
CONTINUOUS
10
134.541
20
-72.86
11
134.699
21
-72.86
0
LINE
8
BLACK
6
CONTINUOUS
10
134.699
20
-72.86
11
134.853
21
-72.8907
0
LINE
8
BLACK
6
CONTINUOUS
10
134.699
20
-49.55
11
134.699
21
-49.55
0
LINE
8
BLACK
6
CONTINUOUS
10
134.699
20
-49.55
11
134.792
21
-49.5592
0
LINE
8
BLACK
6
CONTINUOUS
10
134.792
20
-49.5592
11
134.912
21
-49.5955
0
LINE
8
BLACK
6
CONTINUOUS
10
134.912
20
-49.5955
11
135.022
21
-49.6545
0
LINE
8
BLACK
6
CONTINUOUS
10
135.022
20
-49.6545
11
135.119
21
-49.7338
0
LINE
8
BLACK
6
CONTINUOUS
10
135.119
20
-49.7338
11
135.139
21
-49.758
0
LINE
8
BLACK
6
CONTINUOUS
10
135.139
20
-49.758
11
146.892
21
-61.5109
0
LINE
8
BLACK
6
CONTINUOUS
10
146.892
20
-61.5109
11
146.916
21
-61.5308
0
LINE
8
BLACK
6
CONTINUOUS
10
146.916
20
-61.5308
11
146.936
21
-61.555
0
LINE
8
BLACK
6
CONTINUOUS
10
146.936
20
-61.555
11
146.936
21
-61.555
0
LINE
8
BLACK
6
CONTINUOUS
10
146.936
20
-61.555
11
146.996
21
-61.6275
0
LINE
8
BLACK
6
CONTINUOUS
10
146.996
20
-61.6275
11
147.055
21
-61.7378
0
LINE
8
BLACK
6
CONTINUOUS
10
147.055
20
-61.7378
11
147.091
21
-61.8575
0
LINE
8
BLACK
6
CONTINUOUS
10
147.091
20
-61.8575
11
147.1
21
-61.9508
0
LINE
8
BLACK
6
CONTINUOUS
10
147.1
20
-61.9508
11
147.103
21
-61.982
0
LINE
8
BLACK
6
CONTINUOUS
10
147.103
20
-61.982
11
147.1
21
-62.0132
0
LINE
8
BLACK
6
CONTINUOUS
10
147.1
20
-62.0132
11
147.1
21
-65.5259
0
LINE
8
BLACK
6
CONTINUOUS
10
147.1
20
-65.5259
11
147.103
21
-65.5571
0
LINE
8
BLACK
6
CONTINUOUS
10
147.103
20
-65.5571
11
147.1
21
-65.5883
0
LINE
8
BLACK
6
CONTINUOUS
10
147.1
20
-65.5883
11
147.1
21
-65.5883
0
LINE
8
BLACK
6
CONTINUOUS
10
147.1
20
-65.5883
11
147.091
21
-65.6816
0
LINE
8
BLACK
6
CONTINUOUS
10
147.091
20
-65.6816
11
147.055
21
-65.8013
0
LINE
8
BLACK
6
CONTINUOUS
10
147.055
20
-65.8013
11
146.996
21
-65.9116
0
LINE
8
BLACK
6
CONTINUOUS
10
146.996
20
-65.9116
11
146.916
21
-66.0083
0
LINE
8
BLACK
6
CONTINUOUS
10
146.916
20
-66.0083
11
146.892
21
-66.0281
0
LINE
8
BLACK
6
CONTINUOUS
10
146.892
20
-66.0281
11
146.453
21
-66.4669
0
LINE
8
BLACK
6
CONTINUOUS
10
146.453
20
-66.4669
11
146.433
21
-66.4912
0
LINE
8
BLACK
6
CONTINUOUS
10
146.433
20
-66.4912
11
146.337
21
-66.5705
0
LINE
8
BLACK
6
CONTINUOUS
10
146.337
20
-66.5705
11
146.226
21
-66.6295
0
LINE
8
BLACK
6
CONTINUOUS
10
146.226
20
-66.6295
11
146.107
21
-66.6658
0
LINE
8
BLACK
6
CONTINUOUS
10
146.107
20
-66.6658
11
146.013
21
-66.675
0
LINE
8
BLACK
6
CONTINUOUS
10
146.013
20
-66.675
11
146.013
21
-66.675
0
LINE
8
BLACK
6
CONTINUOUS
10
146.013
20
-66.675
11
145.982
21
-66.6781
0
LINE
8
BLACK
6
CONTINUOUS
10
145.982
20
-66.6781
11
145.951
21
-66.675
0
LINE
8
BLACK
6
CONTINUOUS
10
145.951
20
-66.675
11
145.347
21
-66.675
0
LINE
8
BLACK
6
CONTINUOUS
10
145.347
20
-66.675
11
145.322
21
-66.7002
0
LINE
8
BLACK
6
CONTINUOUS
10
145.322
20
-66.7002
11
145.183
21
-66.7933
0
LINE
8
BLACK
6
CONTINUOUS
10
145.183
20
-66.7933
11
145.028
21
-66.8573
0
LINE
8
BLACK
6
CONTINUOUS
10
145.028
20
-66.8573
11
144.864
21
-66.89
0
LINE
8
BLACK
6
CONTINUOUS
10
144.864
20
-66.89
11
144.696
21
-66.89
0
LINE
8
BLACK
6
CONTINUOUS
10
144.696
20
-66.89
11
144.532
21
-66.8573
0
LINE
8
BLACK
6
CONTINUOUS
10
144.532
20
-66.8573
11
144.377
21
-66.7933
0
LINE
8
BLACK
6
CONTINUOUS
10
144.377
20
-66.7933
11
144.238
21
-66.7002
0
LINE
8
BLACK
6
CONTINUOUS
10
144.238
20
-66.7002
11
144.12
21
-66.5818
0
LINE
8
BLACK
6
CONTINUOUS
10
144.12
20
-66.5818
11
144.027
21
-66.4426
0
LINE
8
BLACK
6
CONTINUOUS
10
144.027
20
-66.4426
11
143.963
21
-66.2879
0
LINE
8
BLACK
6
CONTINUOUS
10
143.963
20
-66.2879
11
143.93
21
-66.1237
0
LINE
8
BLACK
6
CONTINUOUS
10
143.93
20
-66.1237
11
143.93
21
-65.9563
0
LINE
8
BLACK
6
CONTINUOUS
10
143.93
20
-65.9563
11
143.963
21
-65.7921
0
LINE
8
BLACK
6
CONTINUOUS
10
143.963
20
-65.7921
11
144.027
21
-65.6374
0
LINE
8
BLACK
6
CONTINUOUS
10
144.027
20
-65.6374
11
144.12
21
-65.4982
0
LINE
8
BLACK
6
CONTINUOUS
10
144.12
20
-65.4982
11
144.238
21
-65.3798
0
LINE
8
BLACK
6
CONTINUOUS
10
144.238
20
-65.3798
11
144.377
21
-65.2867
0
LINE
8
BLACK
6
CONTINUOUS
10
144.377
20
-65.2867
11
144.532
21
-65.2227
0
LINE
8
BLACK
6
CONTINUOUS
10
144.532
20
-65.2227
11
144.696
21
-65.19
0
LINE
8
BLACK
6
CONTINUOUS
10
144.696
20
-65.19
11
144.864
21
-65.19
0
LINE
8
BLACK
6
CONTINUOUS
10
144.864
20
-65.19
11
145.028
21
-65.2227
0
LINE
8
BLACK
6
CONTINUOUS
10
145.028
20
-65.2227
11
145.183
21
-65.2867
0
LINE
8
BLACK
6
CONTINUOUS
10
145.183
20
-65.2867
11
145.322
21
-65.3798
0
LINE
8
BLACK
6
CONTINUOUS
10
145.322
20
-65.3798
11
145.347
21
-65.405
0
LINE
8
BLACK
6
CONTINUOUS
10
145.347
20
-65.405
11
145.719
21
-65.405
0
LINE
8
BLACK
6
CONTINUOUS
10
145.719
20
-65.405
11
145.83
21
-65.2941
0
LINE
8
BLACK
6
CONTINUOUS
10
145.83
20
-65.2941
11
145.83
21
-62.245
0
LINE
8
BLACK
6
CONTINUOUS
10
145.83
20
-62.245
11
134.405
21
-50.82
0
LINE
8
BLACK
6
CONTINUOUS
10
134.405
20
-50.82
11
124.575
21
-50.82
0
LINE
8
BLACK
6
CONTINUOUS
10
124.575
20
-50.82
11
118.38
21
-57.0153
0
LINE
8
BLACK
6
CONTINUOUS
10
118.38
20
-57.0153
11
118.38
21
-71.762
0
LINE
8
BLACK
6
CONTINUOUS
10
118.38
20
-71.762
11
119.051
21
-72.433
0
LINE
8
BLACK
6
CONTINUOUS
10
119.051
20
-72.433
11
119.051
21
-72.433
0
LINE
8
BLACK
6
CONTINUOUS
10
119.051
20
-72.433
11
119.483
21
-72.8648
0
LINE
8
BLACK
6
CONTINUOUS
10
119.483
20
-72.8648
11
119.613
21
-72.8907
0
LINE
8
BLACK
6
CONTINUOUS
10
119.613
20
-72.8907
11
119.759
21
-72.951
0
LINE
8
BLACK
6
CONTINUOUS
10
119.759
20
-72.951
11
119.89
21
-73.0386
0
LINE
8
BLACK
6
CONTINUOUS
10
119.89
20
-73.0386
11
120.001
21
-73.15
0
LINE
8
BLACK
6
CONTINUOUS
10
120.001
20
-73.15
11
120.089
21
-73.2811
0
LINE
8
BLACK
6
CONTINUOUS
10
120.089
20
-73.2811
11
120.149
21
-73.4266
0
LINE
8
BLACK
6
CONTINUOUS
10
120.149
20
-73.4266
11
120.18
21
-73.5812
0
LINE
8
BLACK
6
CONTINUOUS
10
120.18
20
-73.5812
11
120.18
21
-73.7388
0
LINE
8
BLACK
6
CONTINUOUS
10
120.18
20
-73.7388
11
120.149
21
-73.8934
0
LINE
8
BLACK
6
CONTINUOUS
10
120.149
20
-73.8934
11
120.089
21
-74.0389
0
LINE
8
BLACK
6
CONTINUOUS
10
120.089
20
-74.0389
11
120.001
21
-74.17
0
LINE
8
BLACK
6
CONTINUOUS
10
120.001
20
-74.17
11
119.89
21
-74.2814
0
LINE
8
BLACK
6
CONTINUOUS
10
119.89
20
-74.2814
11
119.759
21
-74.369
0
LINE
8
BLACK
6
CONTINUOUS
10
119.759
20
-74.369
11
119.613
21
-74.4293
0
LINE
8
BLACK
6
CONTINUOUS
10
119.613
20
-74.4293
11
119.459
21
-74.46
0
LINE
8
BLACK
6
CONTINUOUS
10
119.459
20
-74.46
11
119.301
21
-74.46
0
LINE
8
BLACK
6
CONTINUOUS
10
119.301
20
-74.46
11
119.147
21
-74.4293
0
LINE
8
BLACK
6
CONTINUOUS
10
119.147
20
-74.4293
11
119.001
21
-74.369
0
LINE
8
BLACK
6
CONTINUOUS
10
119.001
20
-74.369
11
118.87
21
-74.2814
0
LINE
8
BLACK
6
CONTINUOUS
10
118.87
20
-74.2814
11
118.759
21
-74.17
0
LINE
8
BLACK
6
CONTINUOUS
10
118.759
20
-74.17
11
118.671
21
-74.0389
0
LINE
8
BLACK
6
CONTINUOUS
10
118.671
20
-74.0389
11
118.611
21
-73.8934
0
LINE
8
BLACK
6
CONTINUOUS
10
118.611
20
-73.8934
11
118.585
21
-73.7628
0
LINE
8
BLACK
6
CONTINUOUS
10
118.585
20
-73.7628
11
118.153
21
-73.3311
0
LINE
8
BLACK
6
CONTINUOUS
10
118.153
20
-73.3311
11
118.153
21
-73.3311
0
LINE
8
BLACK
6
CONTINUOUS
10
118.153
20
-73.3311
11
117.318
21
-72.4961
0
LINE
8
BLACK
6
CONTINUOUS
10
117.318
20
-72.4961
11
117.294
21
-72.4762
0
LINE
8
BLACK
6
CONTINUOUS
10
117.294
20
-72.4762
11
117.239
21
-72.4088
0
LINE
8
BLACK
6
CONTINUOUS
10
117.239
20
-72.4088
11
117.214
21
-72.3795
0
LINE
8
BLACK
6
CONTINUOUS
10
117.214
20
-72.3795
11
117.155
21
-72.2692
0
LINE
8
BLACK
6
CONTINUOUS
10
117.155
20
-72.2692
11
117.119
21
-72.1495
0
LINE
8
BLACK
6
CONTINUOUS
10
117.119
20
-72.1495
11
117.117
21
-72.1292
0
LINE
8
BLACK
6
CONTINUOUS
10
117.117
20
-72.1292
11
117.11
21
-72.0562
0
LINE
8
BLACK
6
CONTINUOUS
10
117.11
20
-72.0562
11
117.11
21
-72.0562
0
LINE
8
BLACK
6
CONTINUOUS
10
117.11
20
-72.0562
11
117.107
21
-72.025
0
LINE
8
BLACK
6
CONTINUOUS
10
117.107
20
-72.025
11
117.11
21
-71.9938
0
LINE
8
BLACK
6
CONTINUOUS
10
117.11
20
-71.9938
11
117.11
21
-56.7835
0
LINE
8
BLACK
6
CONTINUOUS
10
117.11
20
-56.7835
11
117.107
21
-56.7523
0
LINE
8
BLACK
6
CONTINUOUS
10
117.107
20
-56.7523
11
117.11
21
-56.7211
0
LINE
8
BLACK
6
CONTINUOUS
10
117.11
20
-56.7211
11
117.11
21
-56.7211
0
LINE
8
BLACK
6
CONTINUOUS
10
117.11
20
-56.7211
11
117.119
21
-56.6278
0
LINE
8
BLACK
6
CONTINUOUS
10
117.119
20
-56.6278
11
117.155
21
-56.5081
0
LINE
8
BLACK
6
CONTINUOUS
10
117.155
20
-56.5081
11
117.214
21
-56.3978
0
LINE
8
BLACK
6
CONTINUOUS
10
117.214
20
-56.3978
11
117.294
21
-56.3011
0
LINE
8
BLACK
6
CONTINUOUS
10
117.294
20
-56.3011
11
117.318
21
-56.2812
0
LINE
8
BLACK
6
CONTINUOUS
10
117.318
20
-56.2812
11
123.841
21
-49.758
0
LINE
8
BLACK
6
CONTINUOUS
10
123.841
20
-49.758
11
123.861
21
-49.7338
0
LINE
8
BLACK
6
CONTINUOUS
10
123.861
20
-49.7338
11
123.885
21
-49.7139
0
LINE
8
BLACK
6
CONTINUOUS
10
123.885
20
-49.7139
11
123.885
21
-49.7139
0
LINE
8
BLACK
6
CONTINUOUS
10
123.885
20
-49.7139
11
123.958
21
-49.6545
0
LINE
8
BLACK
6
CONTINUOUS
10
123.958
20
-49.6545
11
124.068
21
-49.5955
0
LINE
8
BLACK
6
CONTINUOUS
10
124.068
20
-49.5955
11
124.188
21
-49.5592
0
LINE
8
BLACK
6
CONTINUOUS
10
124.188
20
-49.5592
11
124.312
21
-49.5469
0
LINE
8
BLACK
6
CONTINUOUS
10
124.312
20
-49.5469
11
124.343
21
-49.55
0
LINE
8
BLACK
6
CONTINUOUS
10
124.343
20
-49.55
11
134.637
21
-49.55
0
LINE
8
BLACK
6
CONTINUOUS
10
134.637
20
-49.55
11
134.668
21
-49.5469
0
LINE
8
BLACK
6
CONTINUOUS
10
134.668
20
-49.5469
11
134.699
21
-49.55
0
LINE
8
BLACK
6
CONTINUOUS
10
119.613
20
-67.8107
11
119.759
21
-67.871
0
LINE
8
BLACK
6
CONTINUOUS
10
119.759
20
-67.871
11
119.89
21
-67.9586
0
LINE
8
BLACK
6
CONTINUOUS
10
119.89
20
-67.9586
11
120.001
21
-68.07
0
LINE
8
BLACK
6
CONTINUOUS
10
120.001
20
-68.07
11
120.089
21
-68.2011
0
LINE
8
BLACK
6
CONTINUOUS
10
120.089
20
-68.2011
11
120.149
21
-68.3466
0
LINE
8
BLACK
6
CONTINUOUS
10
120.149
20
-68.3466
11
120.18
21
-68.5012
0
LINE
8
BLACK
6
CONTINUOUS
10
120.18
20
-68.5012
11
120.18
21
-68.6588
0
LINE
8
BLACK
6
CONTINUOUS
10
120.18
20
-68.6588
11
120.149
21
-68.8134
0
LINE
8
BLACK
6
CONTINUOUS
10
120.149
20
-68.8134
11
120.089
21
-68.9589
0
LINE
8
BLACK
6
CONTINUOUS
10
120.089
20
-68.9589
11
120.001
21
-69.09
0
LINE
8
BLACK
6
CONTINUOUS
10
120.001
20
-69.09
11
119.89
21
-69.2014
0
LINE
8
BLACK
6
CONTINUOUS
10
119.89
20
-69.2014
11
119.759
21
-69.289
0
LINE
8
BLACK
6
CONTINUOUS
10
119.759
20
-69.289
11
119.613
21
-69.3493
0
LINE
8
BLACK
6
CONTINUOUS
10
119.613
20
-69.3493
11
119.459
21
-69.38
0
LINE
8
BLACK
6
CONTINUOUS
10
119.459
20
-69.38
11
119.301
21
-69.38
0
LINE
8
BLACK
6
CONTINUOUS
10
119.301
20
-69.38
11
119.147
21
-69.3493
0
LINE
8
BLACK
6
CONTINUOUS
10
119.147
20
-69.3493
11
119.001
21
-69.289
0
LINE
8
BLACK
6
CONTINUOUS
10
119.001
20
-69.289
11
118.87
21
-69.2014
0
LINE
8
BLACK
6
CONTINUOUS
10
118.87
20
-69.2014
11
118.759
21
-69.09
0
LINE
8
BLACK
6
CONTINUOUS
10
118.759
20
-69.09
11
118.671
21
-68.9589
0
LINE
8
BLACK
6
CONTINUOUS
10
118.671
20
-68.9589
11
118.611
21
-68.8134
0
LINE
8
BLACK
6
CONTINUOUS
10
118.611
20
-68.8134
11
118.58
21
-68.6588
0
LINE
8
BLACK
6
CONTINUOUS
10
118.58
20
-68.6588
11
118.58
21
-68.5012
0
LINE
8
BLACK
6
CONTINUOUS
10
118.58
20
-68.5012
11
118.611
21
-68.3466
0
LINE
8
BLACK
6
CONTINUOUS
10
118.611
20
-68.3466
11
118.671
21
-68.2011
0
LINE
8
BLACK
6
CONTINUOUS
10
118.671
20
-68.2011
11
118.759
21
-68.07
0
LINE
8
BLACK
6
CONTINUOUS
10
118.759
20
-68.07
11
118.87
21
-67.9586
0
LINE
8
BLACK
6
CONTINUOUS
10
118.87
20
-67.9586
11
119.001
21
-67.871
0
LINE
8
BLACK
6
CONTINUOUS
10
119.001
20
-67.871
11
119.147
21
-67.8107
0
LINE
8
BLACK
6
CONTINUOUS
10
119.147
20
-67.8107
11
119.301
21
-67.78
0
LINE
8
BLACK
6
CONTINUOUS
10
119.301
20
-67.78
11
119.459
21
-67.78
0
LINE
8
BLACK
6
CONTINUOUS
10
119.459
20
-67.78
11
119.613
21
-67.8107
0
LINE
8
BLACK
6
CONTINUOUS
10
134.853
20
-67.8107
11
134.999
21
-67.871
0
LINE
8
BLACK
6
CONTINUOUS
10
134.999
20
-67.871
11
135.13
21
-67.9586
0
LINE
8
BLACK
6
CONTINUOUS
10
135.13
20
-67.9586
11
135.241
21
-68.07
0
LINE
8
BLACK
6
CONTINUOUS
10
135.241
20
-68.07
11
135.329
21
-68.2011
0
LINE
8
BLACK
6
CONTINUOUS
10
135.329
20
-68.2011
11
135.389
21
-68.3466
0
LINE
8
BLACK
6
CONTINUOUS
10
135.389
20
-68.3466
11
135.42
21
-68.5012
0
LINE
8
BLACK
6
CONTINUOUS
10
135.42
20
-68.5012
11
135.42
21
-68.6588
0
LINE
8
BLACK
6
CONTINUOUS
10
135.42
20
-68.6588
11
135.389
21
-68.8134
0
LINE
8
BLACK
6
CONTINUOUS
10
135.389
20
-68.8134
11
135.329
21
-68.9589
0
LINE
8
BLACK
6
CONTINUOUS
10
135.329
20
-68.9589
11
135.241
21
-69.09
0
LINE
8
BLACK
6
CONTINUOUS
10
135.241
20
-69.09
11
135.13
21
-69.2014
0
LINE
8
BLACK
6
CONTINUOUS
10
135.13
20
-69.2014
11
134.999
21
-69.289
0
LINE
8
BLACK
6
CONTINUOUS
10
134.999
20
-69.289
11
134.853
21
-69.3493
0
LINE
8
BLACK
6
CONTINUOUS
10
134.853
20
-69.3493
11
134.699
21
-69.38
0
LINE
8
BLACK
6
CONTINUOUS
10
134.699
20
-69.38
11
134.541
21
-69.38
0
LINE
8
BLACK
6
CONTINUOUS
10
134.541
20
-69.38
11
134.387
21
-69.3493
0
LINE
8
BLACK
6
CONTINUOUS
10
134.387
20
-69.3493
11
134.241
21
-69.289
0
LINE
8
BLACK
6
CONTINUOUS
10
134.241
20
-69.289
11
134.11
21
-69.2014
0
LINE
8
BLACK
6
CONTINUOUS
10
134.11
20
-69.2014
11
133.999
21
-69.09
0
LINE
8
BLACK
6
CONTINUOUS
10
133.999
20
-69.09
11
133.911
21
-68.9589
0
LINE
8
BLACK
6
CONTINUOUS
10
133.911
20
-68.9589
11
133.851
21
-68.8134
0
LINE
8
BLACK
6
CONTINUOUS
10
133.851
20
-68.8134
11
133.82
21
-68.6588
0
LINE
8
BLACK
6
CONTINUOUS
10
133.82
20
-68.6588
11
133.82
21
-68.5012
0
LINE
8
BLACK
6
CONTINUOUS
10
133.82
20
-68.5012
11
133.851
21
-68.3466
0
LINE
8
BLACK
6
CONTINUOUS
10
133.851
20
-68.3466
11
133.911
21
-68.2011
0
LINE
8
BLACK
6
CONTINUOUS
10
133.911
20
-68.2011
11
133.999
21
-68.07
0
LINE
8
BLACK
6
CONTINUOUS
10
133.999
20
-68.07
11
134.11
21
-67.9586
0
LINE
8
BLACK
6
CONTINUOUS
10
134.11
20
-67.9586
11
134.241
21
-67.871
0
LINE
8
BLACK
6
CONTINUOUS
10
134.241
20
-67.871
11
134.387
21
-67.8107
0
LINE
8
BLACK
6
CONTINUOUS
10
134.387
20
-67.8107
11
134.541
21
-67.78
0
LINE
8
BLACK
6
CONTINUOUS
10
134.541
20
-67.78
11
134.699
21
-67.78
0
LINE
8
BLACK
6
CONTINUOUS
10
134.699
20
-67.78
11
134.853
21
-67.8107
0
LINE
8
BLACK
6
CONTINUOUS
10
119.613
20
-65.2707
11
119.759
21
-65.331
0
LINE
8
BLACK
6
CONTINUOUS
10
119.759
20
-65.331
11
119.89
21
-65.4186
0
LINE
8
BLACK
6
CONTINUOUS
10
119.89
20
-65.4186
11
120.001
21
-65.53
0
LINE
8
BLACK
6
CONTINUOUS
10
120.001
20
-65.53
11
120.089
21
-65.6611
0
LINE
8
BLACK
6
CONTINUOUS
10
120.089
20
-65.6611
11
120.149
21
-65.8066
0
LINE
8
BLACK
6
CONTINUOUS
10
120.149
20
-65.8066
11
120.18
21
-65.9612
0
LINE
8
BLACK
6
CONTINUOUS
10
120.18
20
-65.9612
11
120.18
21
-66.1188
0
LINE
8
BLACK
6
CONTINUOUS
10
120.18
20
-66.1188
11
120.149
21
-66.2734
0
LINE
8
BLACK
6
CONTINUOUS
10
120.149
20
-66.2734
11
120.089
21
-66.4189
0
LINE
8
BLACK
6
CONTINUOUS
10
120.089
20
-66.4189
11
120.001
21
-66.55
0
LINE
8
BLACK
6
CONTINUOUS
10
120.001
20
-66.55
11
119.89
21
-66.6614
0
LINE
8
BLACK
6
CONTINUOUS
10
119.89
20
-66.6614
11
119.759
21
-66.749
0
LINE
8
BLACK
6
CONTINUOUS
10
119.759
20
-66.749
11
119.613
21
-66.8093
0
LINE
8
BLACK
6
CONTINUOUS
10
119.613
20
-66.8093
11
119.459
21
-66.84
0
LINE
8
BLACK
6
CONTINUOUS
10
119.459
20
-66.84
11
119.301
21
-66.84
0
LINE
8
BLACK
6
CONTINUOUS
10
119.301
20
-66.84
11
119.147
21
-66.8093
0
LINE
8
BLACK
6
CONTINUOUS
10
119.147
20
-66.8093
11
119.001
21
-66.749
0
LINE
8
BLACK
6
CONTINUOUS
10
119.001
20
-66.749
11
118.87
21
-66.6614
0
LINE
8
BLACK
6
CONTINUOUS
10
118.87
20
-66.6614
11
118.759
21
-66.55
0
LINE
8
BLACK
6
CONTINUOUS
10
118.759
20
-66.55
11
118.671
21
-66.4189
0
LINE
8
BLACK
6
CONTINUOUS
10
118.671
20
-66.4189
11
118.611
21
-66.2734
0
LINE
8
BLACK
6
CONTINUOUS
10
118.611
20
-66.2734
11
118.58
21
-66.1188
0
LINE
8
BLACK
6
CONTINUOUS
10
118.58
20
-66.1188
11
118.58
21
-65.9612
0
LINE
8
BLACK
6
CONTINUOUS
10
118.58
20
-65.9612
11
118.611
21
-65.8066
0
LINE
8
BLACK
6
CONTINUOUS
10
118.611
20
-65.8066
11
118.671
21
-65.6611
0
LINE
8
BLACK
6
CONTINUOUS
10
118.671
20
-65.6611
11
118.759
21
-65.53
0
LINE
8
BLACK
6
CONTINUOUS
10
118.759
20
-65.53
11
118.87
21
-65.4186
0
LINE
8
BLACK
6
CONTINUOUS
10
118.87
20
-65.4186
11
119.001
21
-65.331
0
LINE
8
BLACK
6
CONTINUOUS
10
119.001
20
-65.331
11
119.147
21
-65.2707
0
LINE
8
BLACK
6
CONTINUOUS
10
119.147
20
-65.2707
11
119.301
21
-65.24
0
LINE
8
BLACK
6
CONTINUOUS
10
119.301
20
-65.24
11
119.459
21
-65.24
0
LINE
8
BLACK
6
CONTINUOUS
10
119.459
20
-65.24
11
119.613
21
-65.2707
0
LINE
8
BLACK
6
CONTINUOUS
10
120.18
20
-64.3
11
118.58
21
-64.3
0
LINE
8
BLACK
6
CONTINUOUS
10
118.58
20
-64.3
11
118.58
21
-62.7
0
LINE
8
BLACK
6
CONTINUOUS
10
118.58
20
-62.7
11
120.18
21
-62.7
0
LINE
8
BLACK
6
CONTINUOUS
10
120.18
20
-62.7
11
120.18
21
-64.3
0
LINE
8
BLACK
6
CONTINUOUS
10
129.12
20
-54.19
11
128.905
21
-54.19
0
LINE
8
BLACK
6
CONTINUOUS
10
128.905
20
-54.19
11
128.905
21
-56.887
0
LINE
8
BLACK
6
CONTINUOUS
10
128.905
20
-56.887
11
134.723
21
-62.7048
0
LINE
8
BLACK
6
CONTINUOUS
10
134.723
20
-62.7048
11
134.853
21
-62.7307
0
LINE
8
BLACK
6
CONTINUOUS
10
134.853
20
-62.7307
11
134.999
21
-62.791
0
LINE
8
BLACK
6
CONTINUOUS
10
134.999
20
-62.791
11
135.13
21
-62.8786
0
LINE
8
BLACK
6
CONTINUOUS
10
135.13
20
-62.8786
11
135.241
21
-62.99
0
LINE
8
BLACK
6
CONTINUOUS
10
135.241
20
-62.99
11
135.329
21
-63.1211
0
LINE
8
BLACK
6
CONTINUOUS
10
135.329
20
-63.1211
11
135.389
21
-63.2666
0
LINE
8
BLACK
6
CONTINUOUS
10
135.389
20
-63.2666
11
135.42
21
-63.4212
0
LINE
8
BLACK
6
CONTINUOUS
10
135.42
20
-63.4212
11
135.42
21
-63.5788
0
LINE
8
BLACK
6
CONTINUOUS
10
135.42
20
-63.5788
11
135.389
21
-63.7334
0
LINE
8
BLACK
6
CONTINUOUS
10
135.389
20
-63.7334
11
135.329
21
-63.8789
0
LINE
8
BLACK
6
CONTINUOUS
10
135.329
20
-63.8789
11
135.241
21
-64.01
0
LINE
8
BLACK
6
CONTINUOUS
10
135.241
20
-64.01
11
135.13
21
-64.1214
0
LINE
8
BLACK
6
CONTINUOUS
10
135.13
20
-64.1214
11
134.999
21
-64.209
0
LINE
8
BLACK
6
CONTINUOUS
10
134.999
20
-64.209
11
134.853
21
-64.2693
0
LINE
8
BLACK
6
CONTINUOUS
10
134.853
20
-64.2693
11
134.699
21
-64.3
0
LINE
8
BLACK
6
CONTINUOUS
10
134.699
20
-64.3
11
134.541
21
-64.3
0
LINE
8
BLACK
6
CONTINUOUS
10
134.541
20
-64.3
11
134.387
21
-64.2693
0
LINE
8
BLACK
6
CONTINUOUS
10
134.387
20
-64.2693
11
134.241
21
-64.209
0
LINE
8
BLACK
6
CONTINUOUS
10
134.241
20
-64.209
11
134.11
21
-64.1214
0
LINE
8
BLACK
6
CONTINUOUS
10
134.11
20
-64.1214
11
133.999
21
-64.01
0
LINE
8
BLACK
6
CONTINUOUS
10
133.999
20
-64.01
11
133.911
21
-63.8789
0
LINE
8
BLACK
6
CONTINUOUS
10
133.911
20
-63.8789
11
133.851
21
-63.7334
0
LINE
8
BLACK
6
CONTINUOUS
10
133.851
20
-63.7334
11
133.825
21
-63.6028
0
LINE
8
BLACK
6
CONTINUOUS
10
133.825
20
-63.6028
11
127.843
21
-57.6211
0
LINE
8
BLACK
6
CONTINUOUS
10
127.843
20
-57.6211
11
127.819
21
-57.6012
0
LINE
8
BLACK
6
CONTINUOUS
10
127.819
20
-57.6012
11
127.739
21
-57.5045
0
LINE
8
BLACK
6
CONTINUOUS
10
127.739
20
-57.5045
11
127.68
21
-57.3942
0
LINE
8
BLACK
6
CONTINUOUS
10
127.68
20
-57.3942
11
127.68
21
-57.3942
0
LINE
8
BLACK
6
CONTINUOUS
10
127.68
20
-57.3942
11
127.644
21
-57.2745
0
LINE
8
BLACK
6
CONTINUOUS
10
127.644
20
-57.2745
11
127.632
21
-57.15
0
LINE
8
BLACK
6
CONTINUOUS
10
127.632
20
-57.15
11
127.635
21
-57.1188
0
LINE
8
BLACK
6
CONTINUOUS
10
127.635
20
-57.1188
11
127.635
21
-54.19
0
LINE
8
BLACK
6
CONTINUOUS
10
127.635
20
-54.19
11
127.42
21
-54.19
0
LINE
8
BLACK
6
CONTINUOUS
10
127.42
20
-54.19
11
127.42
21
-52.49
0
LINE
8
BLACK
6
CONTINUOUS
10
127.42
20
-52.49
11
129.12
21
-52.49
0
LINE
8
BLACK
6
CONTINUOUS
10
129.12
20
-52.49
11
129.12
21
-54.19
0
CIRCLE
8
BLACK
10
147.32
20
-99.06
40
0.381
0
CIRCLE
8
BLACK
10
144.78
20
-99.06
40
0.381
0
CIRCLE
8
BLACK
10
147.32
20
-96.52
40
0.381
0
CIRCLE
8
BLACK
10
144.78
20
-96.52
40
0.381
0
CIRCLE
8
BLACK
10
147.32
20
-93.98
40
0.381
0
CIRCLE
8
BLACK
10
144.78
20
-93.98
40
0.381
0
CIRCLE
8
BLACK
10
147.32
20
-91.44
40
0.381
0
CIRCLE
8
BLACK
10
144.78
20
-91.44
40
0.381
0
CIRCLE
8
BLACK
10
144.78
20
-83.82
40
0.6
0
CIRCLE
8
BLACK
10
144.78
20
-81.28
40
0.6
0
CIRCLE
8
BLACK
10
144.78
20
-78.74
40
0.6
0
CIRCLE
8
BLACK
10
160.58
20
-81.28
40
1.75
0
CIRCLE
8
BLACK
10
125.73
20
-53.34
40
0.5
0
CIRCLE
8
BLACK
10
128.27
20
-53.34
40
0.5
0
CIRCLE
8
BLACK
10
144.78
20
-68.58
40
0.5
0
CIRCLE
8
BLACK
10
144.78
20
-66.04
40
0.5
0
CIRCLE
8
BLACK
10
144.78
20
-63.5
40
0.5
0
CIRCLE
8
BLACK
10
134.62
20
-99.06
40
0.4
0
CIRCLE
8
BLACK
10
119.38
20
-99.06
40
0.4
0
CIRCLE
8
BLACK
10
134.62
20
-63.5
40
0.4
0
CIRCLE
8
BLACK
10
119.38
20
-96.52
40
0.4
0
CIRCLE
8
BLACK
10
134.62
20
-66.04
40
0.4
0
CIRCLE
8
BLACK
10
119.38
20
-93.98
40
0.4
0
CIRCLE
8
BLACK
10
134.62
20
-68.58
40
0.4
0
CIRCLE
8
BLACK
10
119.38
20
-91.44
40
0.4
0
CIRCLE
8
BLACK
10
134.62
20
-71.12
40
0.4
0
CIRCLE
8
BLACK
10
119.38
20
-88.9
40
0.4
0
CIRCLE
8
BLACK
10
134.62
20
-73.66
40
0.4
0
CIRCLE
8
BLACK
10
119.38
20
-86.36
40
0.4
0
CIRCLE
8
BLACK
10
134.62
20
-76.2
40
0.4
0
CIRCLE
8
BLACK
10
119.38
20
-83.82
40
0.4
0
CIRCLE
8
BLACK
10
134.62
20
-78.74
40
0.4
0
CIRCLE
8
BLACK
10
119.38
20
-81.28
40
0.4
0
CIRCLE
8
BLACK
10
134.62
20
-81.28
40
0.4
0
CIRCLE
8
BLACK
10
119.38
20
-78.74
40
0.4
0
CIRCLE
8
BLACK
10
134.62
20
-83.82
40
0.4
0
CIRCLE
8
BLACK
10
119.38
20
-76.2
40
0.4
0
CIRCLE
8
BLACK
10
134.62
20
-86.36
40
0.4
0
CIRCLE
8
BLACK
10
119.38
20
-73.66
40
0.4
0
CIRCLE
8
BLACK
10
134.62
20
-88.9
40
0.4
0
CIRCLE
8
BLACK
10
119.38
20
-71.12
40
0.4
0
CIRCLE
8
BLACK
10
134.62
20
-91.44
40
0.4
0
CIRCLE
8
BLACK
10
119.38
20
-68.58
40
0.4
0
CIRCLE
8
BLACK
10
134.62
20
-93.98
40
0.4
0
CIRCLE
8
BLACK
10
119.38
20
-66.04
40
0.4
0
CIRCLE
8
BLACK
10
134.62
20
-96.52
40
0.4
0
CIRCLE
8
BLACK
10
119.38
20
-63.5
40
0.4
0
CIRCLE
8
BLACK
10
137.16
20
-92.71
40
0.5
0
CIRCLE
8
BLACK
10
142.24
20
-99.06
40
0.5
  0
ENDSEC
  0
EOF
