G04 #@! TF.GenerationSoftware,KiCad,Pcbnew,(5.1.5)-3*
G04 #@! TF.CreationDate,2020-02-10T18:59:08+01:00*
G04 #@! TF.ProjectId,WeatherStationSender,57656174-6865-4725-9374-6174696f6e53,rev?*
G04 #@! TF.SameCoordinates,Original*
G04 #@! TF.FileFunction,Copper,L2,Bot*
G04 #@! TF.FilePolarity,Positive*
%FSLAX46Y46*%
G04 Gerber Fmt 4.6, Leading zero omitted, Abs format (unit mm)*
G04 Created by KiCad (PCBNEW (5.1.5)-3) date 2020-02-10 18:59:08*
%MOMM*%
%LPD*%
G04 APERTURE LIST*
%ADD10C,1.524000*%
%ADD11R,1.524000X1.524000*%
%ADD12O,2.000000X1.905000*%
%ADD13R,2.000000X1.905000*%
%ADD14O,1.700000X1.700000*%
%ADD15R,1.700000X1.700000*%
%ADD16O,1.600000X1.600000*%
%ADD17R,1.600000X1.600000*%
%ADD18C,2.000000*%
%ADD19C,1.270000*%
G04 APERTURE END LIST*
D10*
X147320000Y-99060000D03*
X144780000Y-99060000D03*
X147320000Y-96520000D03*
X144780000Y-96520000D03*
X147320000Y-93980000D03*
X144780000Y-93980000D03*
X147320000Y-91440000D03*
D11*
X144780000Y-91440000D03*
D12*
X144780000Y-83820000D03*
X144780000Y-81280000D03*
D13*
X144780000Y-78740000D03*
D14*
X125730000Y-53340000D03*
D15*
X128270000Y-53340000D03*
D14*
X144780000Y-68580000D03*
X144780000Y-66040000D03*
D15*
X144780000Y-63500000D03*
D16*
X134620000Y-99060000D03*
X119380000Y-99060000D03*
X134620000Y-63500000D03*
X119380000Y-96520000D03*
X134620000Y-66040000D03*
X119380000Y-93980000D03*
X134620000Y-68580000D03*
X119380000Y-91440000D03*
X134620000Y-71120000D03*
X119380000Y-88900000D03*
X134620000Y-73660000D03*
X119380000Y-86360000D03*
X134620000Y-76200000D03*
X119380000Y-83820000D03*
X134620000Y-78740000D03*
X119380000Y-81280000D03*
X134620000Y-81280000D03*
X119380000Y-78740000D03*
X134620000Y-83820000D03*
X119380000Y-76200000D03*
X134620000Y-86360000D03*
X119380000Y-73660000D03*
X134620000Y-88900000D03*
X119380000Y-71120000D03*
X134620000Y-91440000D03*
X119380000Y-68580000D03*
X134620000Y-93980000D03*
X119380000Y-66040000D03*
X134620000Y-96520000D03*
D17*
X119380000Y-63500000D03*
D18*
X137160000Y-92710000D03*
X142240000Y-99060000D03*
D19*
X142240000Y-97790000D02*
X137160000Y-92710000D01*
X142240000Y-99060000D02*
X142240000Y-97790000D01*
M02*
