G04 #@! TF.GenerationSoftware,KiCad,Pcbnew,(5.1.5)-3*
G04 #@! TF.CreationDate,2020-02-10T18:59:08+01:00*
G04 #@! TF.ProjectId,WeatherStationSender,57656174-6865-4725-9374-6174696f6e53,rev?*
G04 #@! TF.SameCoordinates,Original*
G04 #@! TF.FileFunction,Legend,Top*
G04 #@! TF.FilePolarity,Positive*
%FSLAX46Y46*%
G04 Gerber Fmt 4.6, Leading zero omitted, Abs format (unit mm)*
G04 Created by KiCad (PCBNEW (5.1.5)-3) date 2020-02-10 18:59:08*
%MOMM*%
%LPD*%
G04 APERTURE LIST*
%ADD10C,0.120000*%
%ADD11C,0.150000*%
G04 APERTURE END LIST*
D10*
X143510000Y-89916000D02*
X143510000Y-89916000D01*
X143510000Y-100584000D02*
X143510000Y-89916000D01*
X143180000Y-89340000D02*
X143180000Y-89340000D01*
X143180000Y-104790000D02*
X143180000Y-89340000D01*
X172380000Y-104790000D02*
X143180000Y-104790000D01*
X172380000Y-89340000D02*
X172380000Y-104790000D01*
X143180000Y-89340000D02*
X172380000Y-89340000D01*
X143764000Y-92710000D02*
X143764000Y-92710000D01*
X146050000Y-92710000D02*
X143764000Y-92710000D01*
X146050000Y-90424000D02*
X146050000Y-92710000D01*
X143510000Y-100584000D02*
X143510000Y-100584000D01*
X148844000Y-100584000D02*
X143510000Y-100584000D01*
X148844000Y-89916000D02*
X148844000Y-100584000D01*
X143510000Y-89916000D02*
X148844000Y-89916000D01*
X147890000Y-83820000D02*
X145930000Y-83820000D01*
X147890000Y-81280000D02*
X145930000Y-81280000D01*
X147890000Y-78740000D02*
X145930000Y-78740000D01*
X164000000Y-86530000D02*
X147890000Y-86530000D01*
X164000000Y-76030000D02*
X147890000Y-76030000D01*
X164000000Y-76030000D02*
X164000000Y-86530000D01*
X147890000Y-76030000D02*
X147890000Y-86530000D01*
X129600000Y-53340000D02*
X129600000Y-54670000D01*
X129600000Y-54670000D02*
X128270000Y-54670000D01*
X127000000Y-54670000D02*
X124400000Y-54670000D01*
X124400000Y-52010000D02*
X124400000Y-54670000D01*
X127000000Y-52010000D02*
X124400000Y-52010000D01*
X127000000Y-52010000D02*
X127000000Y-54670000D01*
X143450000Y-62170000D02*
X144780000Y-62170000D01*
X143450000Y-63500000D02*
X143450000Y-62170000D01*
X143450000Y-64770000D02*
X146110000Y-64770000D01*
X146110000Y-64770000D02*
X146110000Y-69910000D01*
X143450000Y-64770000D02*
X143450000Y-69910000D01*
X143450000Y-69910000D02*
X146110000Y-69910000D01*
X136020000Y-59560000D02*
X117980000Y-59560000D01*
X136020000Y-103000000D02*
X136020000Y-59560000D01*
X117980000Y-103000000D02*
X136020000Y-103000000D01*
X120650000Y-100330000D02*
X117980000Y-100330000D01*
X120650000Y-64770000D02*
X120650000Y-100330000D01*
X120650000Y-64770000D02*
X117980000Y-64770000D01*
X133350000Y-100330000D02*
X136020000Y-100330000D01*
X133350000Y-62230000D02*
X133350000Y-100330000D01*
X133350000Y-62230000D02*
X136020000Y-62230000D01*
X117980000Y-59560000D02*
X117980000Y-62230000D01*
X117980000Y-64770000D02*
X117980000Y-103000000D01*
X120650000Y-62230000D02*
X117980000Y-62230000D01*
X120650000Y-64770000D02*
X120650000Y-62230000D01*
D11*
X144018095Y-87892380D02*
X144018095Y-88701904D01*
X144065714Y-88797142D01*
X144113333Y-88844761D01*
X144208571Y-88892380D01*
X144399047Y-88892380D01*
X144494285Y-88844761D01*
X144541904Y-88797142D01*
X144589523Y-88701904D01*
X144589523Y-87892380D01*
X145018095Y-87987619D02*
X145065714Y-87940000D01*
X145160952Y-87892380D01*
X145399047Y-87892380D01*
X145494285Y-87940000D01*
X145541904Y-87987619D01*
X145589523Y-88082857D01*
X145589523Y-88178095D01*
X145541904Y-88320952D01*
X144970476Y-88892380D01*
X145589523Y-88892380D01*
X164452380Y-82041904D02*
X165261904Y-82041904D01*
X165357142Y-81994285D01*
X165404761Y-81946666D01*
X165452380Y-81851428D01*
X165452380Y-81660952D01*
X165404761Y-81565714D01*
X165357142Y-81518095D01*
X165261904Y-81470476D01*
X164452380Y-81470476D01*
X165452380Y-80470476D02*
X165452380Y-81041904D01*
X165452380Y-80756190D02*
X164452380Y-80756190D01*
X164595238Y-80851428D01*
X164690476Y-80946666D01*
X164738095Y-81041904D01*
X130492380Y-53673333D02*
X131206666Y-53673333D01*
X131349523Y-53720952D01*
X131444761Y-53816190D01*
X131492380Y-53959047D01*
X131492380Y-54054285D01*
X130587619Y-53244761D02*
X130540000Y-53197142D01*
X130492380Y-53101904D01*
X130492380Y-52863809D01*
X130540000Y-52768571D01*
X130587619Y-52720952D01*
X130682857Y-52673333D01*
X130778095Y-52673333D01*
X130920952Y-52720952D01*
X131492380Y-53292380D01*
X131492380Y-52673333D01*
X144446666Y-60622380D02*
X144446666Y-61336666D01*
X144399047Y-61479523D01*
X144303809Y-61574761D01*
X144160952Y-61622380D01*
X144065714Y-61622380D01*
X145446666Y-61622380D02*
X144875238Y-61622380D01*
X145160952Y-61622380D02*
X145160952Y-60622380D01*
X145065714Y-60765238D01*
X144970476Y-60860476D01*
X144875238Y-60908095D01*
X126285714Y-58586666D02*
X126761904Y-58586666D01*
X126190476Y-58872380D02*
X126523809Y-57872380D01*
X126857142Y-58872380D01*
X127714285Y-58872380D02*
X127142857Y-58872380D01*
X127428571Y-58872380D02*
X127428571Y-57872380D01*
X127333333Y-58015238D01*
X127238095Y-58110476D01*
X127142857Y-58158095D01*
M02*
