G04 #@! TF.GenerationSoftware,KiCad,Pcbnew,(5.1.5)-3*
G04 #@! TF.CreationDate,2020-02-10T18:59:08+01:00*
G04 #@! TF.ProjectId,WeatherStationSender,57656174-6865-4725-9374-6174696f6e53,rev?*
G04 #@! TF.SameCoordinates,Original*
G04 #@! TF.FileFunction,Copper,L1,Top*
G04 #@! TF.FilePolarity,Positive*
%FSLAX46Y46*%
G04 Gerber Fmt 4.6, Leading zero omitted, Abs format (unit mm)*
G04 Created by KiCad (PCBNEW (5.1.5)-3) date 2020-02-10 18:59:08*
%MOMM*%
%LPD*%
G04 APERTURE LIST*
%ADD10C,1.524000*%
%ADD11R,1.524000X1.524000*%
%ADD12O,2.000000X1.905000*%
%ADD13R,2.000000X1.905000*%
%ADD14O,1.700000X1.700000*%
%ADD15R,1.700000X1.700000*%
%ADD16O,1.600000X1.600000*%
%ADD17R,1.600000X1.600000*%
%ADD18C,2.000000*%
%ADD19C,1.270000*%
G04 APERTURE END LIST*
D10*
X147320000Y-99060000D03*
X144780000Y-99060000D03*
X147320000Y-96520000D03*
X144780000Y-96520000D03*
X147320000Y-93980000D03*
X144780000Y-93980000D03*
X147320000Y-91440000D03*
D11*
X144780000Y-91440000D03*
D12*
X144780000Y-83820000D03*
X144780000Y-81280000D03*
D13*
X144780000Y-78740000D03*
D14*
X125730000Y-53340000D03*
D15*
X128270000Y-53340000D03*
D14*
X144780000Y-68580000D03*
X144780000Y-66040000D03*
D15*
X144780000Y-63500000D03*
D16*
X134620000Y-99060000D03*
X119380000Y-99060000D03*
X134620000Y-63500000D03*
X119380000Y-96520000D03*
X134620000Y-66040000D03*
X119380000Y-93980000D03*
X134620000Y-68580000D03*
X119380000Y-91440000D03*
X134620000Y-71120000D03*
X119380000Y-88900000D03*
X134620000Y-73660000D03*
X119380000Y-86360000D03*
X134620000Y-76200000D03*
X119380000Y-83820000D03*
X134620000Y-78740000D03*
X119380000Y-81280000D03*
X134620000Y-81280000D03*
X119380000Y-78740000D03*
X134620000Y-83820000D03*
X119380000Y-76200000D03*
X134620000Y-86360000D03*
X119380000Y-73660000D03*
X134620000Y-88900000D03*
X119380000Y-71120000D03*
X134620000Y-91440000D03*
X119380000Y-68580000D03*
X134620000Y-93980000D03*
X119380000Y-66040000D03*
X134620000Y-96520000D03*
D17*
X119380000Y-63500000D03*
D18*
X137160000Y-92710000D03*
X142240000Y-99060000D03*
D19*
X134620000Y-99060000D02*
X137160000Y-99060000D01*
X144780000Y-96520000D02*
X142240000Y-99060000D01*
X137160000Y-99060000D02*
X137160000Y-92710000D01*
X120179999Y-99859999D02*
X119380000Y-99060000D01*
X123955020Y-103635020D02*
X120179999Y-99859999D01*
X140204980Y-103635020D02*
X123955020Y-103635020D01*
X144780000Y-99060000D02*
X140204980Y-103635020D01*
X128270000Y-57150000D02*
X134620000Y-63500000D01*
X128270000Y-53340000D02*
X128270000Y-57150000D01*
X118580001Y-97319999D02*
X119380000Y-96520000D01*
X117744999Y-98155001D02*
X118580001Y-97319999D01*
X117744999Y-99844801D02*
X117744999Y-98155001D01*
X148917001Y-99826561D02*
X143638532Y-105105030D01*
X143638532Y-105105030D02*
X123005228Y-105105030D01*
X148917001Y-98117001D02*
X148917001Y-99826561D01*
X123005228Y-105105030D02*
X117744999Y-99844801D01*
X147320000Y-96520000D02*
X148917001Y-98117001D01*
X118580001Y-94779999D02*
X119380000Y-93980000D01*
X116274989Y-97085011D02*
X118580001Y-94779999D01*
X116274989Y-100453699D02*
X116274989Y-97085011D01*
X122396329Y-106575039D02*
X116274989Y-100453699D01*
X144247430Y-106575040D02*
X122396329Y-106575039D01*
X150387010Y-100435460D02*
X144247430Y-106575040D01*
X150387011Y-97047011D02*
X150387010Y-100435460D01*
X147320000Y-93980000D02*
X150387011Y-97047011D01*
X119380000Y-91440000D02*
X130105011Y-102165011D01*
X130105011Y-102165011D02*
X138212806Y-102165010D01*
X144780000Y-93980000D02*
X142240000Y-93980000D01*
X142240000Y-93980000D02*
X140100020Y-96119980D01*
X140100019Y-100277797D02*
X138212806Y-102165010D01*
X140100020Y-96119980D02*
X140100019Y-100277797D01*
X124044999Y-60544999D02*
X133820001Y-70320001D01*
X124044999Y-52531199D02*
X124044999Y-60544999D01*
X133820001Y-70320001D02*
X134620000Y-71120000D01*
X124921199Y-51654999D02*
X124044999Y-52531199D01*
X130814999Y-51654999D02*
X124921199Y-51654999D01*
X142660000Y-63500000D02*
X130814999Y-51654999D01*
X144780000Y-63500000D02*
X142660000Y-63500000D01*
X142510000Y-83820000D02*
X144780000Y-83820000D01*
X136255001Y-77565001D02*
X142510000Y-83820000D01*
X136255001Y-72755001D02*
X136255001Y-77565001D01*
X134620000Y-71120000D02*
X136255001Y-72755001D01*
X118580001Y-72860001D02*
X119380000Y-73660000D01*
X117744999Y-56752291D02*
X117744999Y-72024999D01*
X124312300Y-50184990D02*
X117744999Y-56752291D01*
X134667991Y-50184989D02*
X124312300Y-50184990D01*
X117744999Y-72024999D02*
X118580001Y-72860001D01*
X146465001Y-61981999D02*
X134667991Y-50184989D01*
X146465001Y-65557080D02*
X146465001Y-61981999D01*
X145982081Y-66040000D02*
X146465001Y-65557080D01*
X144780000Y-66040000D02*
X145982081Y-66040000D01*
X125730000Y-57150000D02*
X134620000Y-66040000D01*
X125730000Y-53340000D02*
X125730000Y-57150000D01*
X144780000Y-68580000D02*
X144780000Y-78740000D01*
X142240000Y-66040000D02*
X144780000Y-68580000D01*
X134620000Y-66040000D02*
X142240000Y-66040000D01*
X142640020Y-91440000D02*
X144780000Y-91440000D01*
X138630010Y-99668898D02*
X138630010Y-95450010D01*
X121015001Y-72755001D02*
X121015001Y-87874803D01*
X133835199Y-100695001D02*
X137603907Y-100695001D01*
X119380000Y-71120000D02*
X121015001Y-72755001D01*
X121015001Y-87874803D02*
X133835199Y-100695001D01*
X138630010Y-95450010D02*
X142640020Y-91440000D01*
X137603907Y-100695001D02*
X138630010Y-99668898D01*
X147320000Y-90362370D02*
X147320000Y-91440000D01*
X147320000Y-83784580D02*
X147320000Y-90362370D01*
X145567910Y-82032490D02*
X147320000Y-83784580D01*
X145532490Y-82032490D02*
X145567910Y-82032490D01*
X144780000Y-81280000D02*
X145532490Y-82032490D01*
M02*
