G04 #@! TF.GenerationSoftware,KiCad,Pcbnew,(5.1.5)-3*
G04 #@! TF.CreationDate,2020-02-10T18:59:08+01:00*
G04 #@! TF.ProjectId,WeatherStationSender,57656174-6865-4725-9374-6174696f6e53,rev?*
G04 #@! TF.SameCoordinates,Original*
G04 #@! TF.FileFunction,Soldermask,Bot*
G04 #@! TF.FilePolarity,Negative*
%FSLAX46Y46*%
G04 Gerber Fmt 4.6, Leading zero omitted, Abs format (unit mm)*
G04 Created by KiCad (PCBNEW (5.1.5)-3) date 2020-02-10 18:59:08*
%MOMM*%
%LPD*%
G04 APERTURE LIST*
%ADD10C,0.100000*%
G04 APERTURE END LIST*
D10*
G36*
X134868228Y-98241703D02*
G01*
X135023100Y-98305853D01*
X135162481Y-98398985D01*
X135281015Y-98517519D01*
X135374147Y-98656900D01*
X135438297Y-98811772D01*
X135471000Y-98976184D01*
X135471000Y-99143816D01*
X135438297Y-99308228D01*
X135374147Y-99463100D01*
X135281015Y-99602481D01*
X135162481Y-99721015D01*
X135023100Y-99814147D01*
X134868228Y-99878297D01*
X134703816Y-99911000D01*
X134536184Y-99911000D01*
X134371772Y-99878297D01*
X134216900Y-99814147D01*
X134077519Y-99721015D01*
X133958985Y-99602481D01*
X133865853Y-99463100D01*
X133801703Y-99308228D01*
X133769000Y-99143816D01*
X133769000Y-98976184D01*
X133801703Y-98811772D01*
X133865853Y-98656900D01*
X133958985Y-98517519D01*
X134077519Y-98398985D01*
X134216900Y-98305853D01*
X134371772Y-98241703D01*
X134536184Y-98209000D01*
X134703816Y-98209000D01*
X134868228Y-98241703D01*
G37*
G36*
X119628228Y-98241703D02*
G01*
X119783100Y-98305853D01*
X119922481Y-98398985D01*
X120041015Y-98517519D01*
X120134147Y-98656900D01*
X120198297Y-98811772D01*
X120231000Y-98976184D01*
X120231000Y-99143816D01*
X120198297Y-99308228D01*
X120134147Y-99463100D01*
X120041015Y-99602481D01*
X119922481Y-99721015D01*
X119783100Y-99814147D01*
X119628228Y-99878297D01*
X119463816Y-99911000D01*
X119296184Y-99911000D01*
X119131772Y-99878297D01*
X118976900Y-99814147D01*
X118837519Y-99721015D01*
X118718985Y-99602481D01*
X118625853Y-99463100D01*
X118561703Y-99308228D01*
X118529000Y-99143816D01*
X118529000Y-98976184D01*
X118561703Y-98811772D01*
X118625853Y-98656900D01*
X118718985Y-98517519D01*
X118837519Y-98398985D01*
X118976900Y-98305853D01*
X119131772Y-98241703D01*
X119296184Y-98209000D01*
X119463816Y-98209000D01*
X119628228Y-98241703D01*
G37*
G36*
X145017142Y-98278242D02*
G01*
X145165101Y-98339529D01*
X145298255Y-98428499D01*
X145411501Y-98541745D01*
X145500471Y-98674899D01*
X145561758Y-98822858D01*
X145593000Y-98979925D01*
X145593000Y-99140075D01*
X145561758Y-99297142D01*
X145500471Y-99445101D01*
X145411501Y-99578255D01*
X145298255Y-99691501D01*
X145165101Y-99780471D01*
X145017142Y-99841758D01*
X144860075Y-99873000D01*
X144699925Y-99873000D01*
X144542858Y-99841758D01*
X144394899Y-99780471D01*
X144261745Y-99691501D01*
X144148499Y-99578255D01*
X144059529Y-99445101D01*
X143998242Y-99297142D01*
X143967000Y-99140075D01*
X143967000Y-98979925D01*
X143998242Y-98822858D01*
X144059529Y-98674899D01*
X144148499Y-98541745D01*
X144261745Y-98428499D01*
X144394899Y-98339529D01*
X144542858Y-98278242D01*
X144699925Y-98247000D01*
X144860075Y-98247000D01*
X145017142Y-98278242D01*
G37*
G36*
X147557142Y-98278242D02*
G01*
X147705101Y-98339529D01*
X147838255Y-98428499D01*
X147951501Y-98541745D01*
X148040471Y-98674899D01*
X148101758Y-98822858D01*
X148133000Y-98979925D01*
X148133000Y-99140075D01*
X148101758Y-99297142D01*
X148040471Y-99445101D01*
X147951501Y-99578255D01*
X147838255Y-99691501D01*
X147705101Y-99780471D01*
X147557142Y-99841758D01*
X147400075Y-99873000D01*
X147239925Y-99873000D01*
X147082858Y-99841758D01*
X146934899Y-99780471D01*
X146801745Y-99691501D01*
X146688499Y-99578255D01*
X146599529Y-99445101D01*
X146538242Y-99297142D01*
X146507000Y-99140075D01*
X146507000Y-98979925D01*
X146538242Y-98822858D01*
X146599529Y-98674899D01*
X146688499Y-98541745D01*
X146801745Y-98428499D01*
X146934899Y-98339529D01*
X147082858Y-98278242D01*
X147239925Y-98247000D01*
X147400075Y-98247000D01*
X147557142Y-98278242D01*
G37*
G36*
X134868228Y-95701703D02*
G01*
X135023100Y-95765853D01*
X135162481Y-95858985D01*
X135281015Y-95977519D01*
X135374147Y-96116900D01*
X135438297Y-96271772D01*
X135471000Y-96436184D01*
X135471000Y-96603816D01*
X135438297Y-96768228D01*
X135374147Y-96923100D01*
X135281015Y-97062481D01*
X135162481Y-97181015D01*
X135023100Y-97274147D01*
X134868228Y-97338297D01*
X134703816Y-97371000D01*
X134536184Y-97371000D01*
X134371772Y-97338297D01*
X134216900Y-97274147D01*
X134077519Y-97181015D01*
X133958985Y-97062481D01*
X133865853Y-96923100D01*
X133801703Y-96768228D01*
X133769000Y-96603816D01*
X133769000Y-96436184D01*
X133801703Y-96271772D01*
X133865853Y-96116900D01*
X133958985Y-95977519D01*
X134077519Y-95858985D01*
X134216900Y-95765853D01*
X134371772Y-95701703D01*
X134536184Y-95669000D01*
X134703816Y-95669000D01*
X134868228Y-95701703D01*
G37*
G36*
X119628228Y-95701703D02*
G01*
X119783100Y-95765853D01*
X119922481Y-95858985D01*
X120041015Y-95977519D01*
X120134147Y-96116900D01*
X120198297Y-96271772D01*
X120231000Y-96436184D01*
X120231000Y-96603816D01*
X120198297Y-96768228D01*
X120134147Y-96923100D01*
X120041015Y-97062481D01*
X119922481Y-97181015D01*
X119783100Y-97274147D01*
X119628228Y-97338297D01*
X119463816Y-97371000D01*
X119296184Y-97371000D01*
X119131772Y-97338297D01*
X118976900Y-97274147D01*
X118837519Y-97181015D01*
X118718985Y-97062481D01*
X118625853Y-96923100D01*
X118561703Y-96768228D01*
X118529000Y-96603816D01*
X118529000Y-96436184D01*
X118561703Y-96271772D01*
X118625853Y-96116900D01*
X118718985Y-95977519D01*
X118837519Y-95858985D01*
X118976900Y-95765853D01*
X119131772Y-95701703D01*
X119296184Y-95669000D01*
X119463816Y-95669000D01*
X119628228Y-95701703D01*
G37*
G36*
X145017142Y-95738242D02*
G01*
X145165101Y-95799529D01*
X145298255Y-95888499D01*
X145411501Y-96001745D01*
X145500471Y-96134899D01*
X145561758Y-96282858D01*
X145593000Y-96439925D01*
X145593000Y-96600075D01*
X145561758Y-96757142D01*
X145500471Y-96905101D01*
X145411501Y-97038255D01*
X145298255Y-97151501D01*
X145165101Y-97240471D01*
X145017142Y-97301758D01*
X144860075Y-97333000D01*
X144699925Y-97333000D01*
X144542858Y-97301758D01*
X144394899Y-97240471D01*
X144261745Y-97151501D01*
X144148499Y-97038255D01*
X144059529Y-96905101D01*
X143998242Y-96757142D01*
X143967000Y-96600075D01*
X143967000Y-96439925D01*
X143998242Y-96282858D01*
X144059529Y-96134899D01*
X144148499Y-96001745D01*
X144261745Y-95888499D01*
X144394899Y-95799529D01*
X144542858Y-95738242D01*
X144699925Y-95707000D01*
X144860075Y-95707000D01*
X145017142Y-95738242D01*
G37*
G36*
X147557142Y-95738242D02*
G01*
X147705101Y-95799529D01*
X147838255Y-95888499D01*
X147951501Y-96001745D01*
X148040471Y-96134899D01*
X148101758Y-96282858D01*
X148133000Y-96439925D01*
X148133000Y-96600075D01*
X148101758Y-96757142D01*
X148040471Y-96905101D01*
X147951501Y-97038255D01*
X147838255Y-97151501D01*
X147705101Y-97240471D01*
X147557142Y-97301758D01*
X147400075Y-97333000D01*
X147239925Y-97333000D01*
X147082858Y-97301758D01*
X146934899Y-97240471D01*
X146801745Y-97151501D01*
X146688499Y-97038255D01*
X146599529Y-96905101D01*
X146538242Y-96757142D01*
X146507000Y-96600075D01*
X146507000Y-96439925D01*
X146538242Y-96282858D01*
X146599529Y-96134899D01*
X146688499Y-96001745D01*
X146801745Y-95888499D01*
X146934899Y-95799529D01*
X147082858Y-95738242D01*
X147239925Y-95707000D01*
X147400075Y-95707000D01*
X147557142Y-95738242D01*
G37*
G36*
X134868228Y-93161703D02*
G01*
X135023100Y-93225853D01*
X135162481Y-93318985D01*
X135281015Y-93437519D01*
X135374147Y-93576900D01*
X135438297Y-93731772D01*
X135471000Y-93896184D01*
X135471000Y-94063816D01*
X135438297Y-94228228D01*
X135374147Y-94383100D01*
X135281015Y-94522481D01*
X135162481Y-94641015D01*
X135023100Y-94734147D01*
X134868228Y-94798297D01*
X134703816Y-94831000D01*
X134536184Y-94831000D01*
X134371772Y-94798297D01*
X134216900Y-94734147D01*
X134077519Y-94641015D01*
X133958985Y-94522481D01*
X133865853Y-94383100D01*
X133801703Y-94228228D01*
X133769000Y-94063816D01*
X133769000Y-93896184D01*
X133801703Y-93731772D01*
X133865853Y-93576900D01*
X133958985Y-93437519D01*
X134077519Y-93318985D01*
X134216900Y-93225853D01*
X134371772Y-93161703D01*
X134536184Y-93129000D01*
X134703816Y-93129000D01*
X134868228Y-93161703D01*
G37*
G36*
X119628228Y-93161703D02*
G01*
X119783100Y-93225853D01*
X119922481Y-93318985D01*
X120041015Y-93437519D01*
X120134147Y-93576900D01*
X120198297Y-93731772D01*
X120231000Y-93896184D01*
X120231000Y-94063816D01*
X120198297Y-94228228D01*
X120134147Y-94383100D01*
X120041015Y-94522481D01*
X119922481Y-94641015D01*
X119783100Y-94734147D01*
X119628228Y-94798297D01*
X119463816Y-94831000D01*
X119296184Y-94831000D01*
X119131772Y-94798297D01*
X118976900Y-94734147D01*
X118837519Y-94641015D01*
X118718985Y-94522481D01*
X118625853Y-94383100D01*
X118561703Y-94228228D01*
X118529000Y-94063816D01*
X118529000Y-93896184D01*
X118561703Y-93731772D01*
X118625853Y-93576900D01*
X118718985Y-93437519D01*
X118837519Y-93318985D01*
X118976900Y-93225853D01*
X119131772Y-93161703D01*
X119296184Y-93129000D01*
X119463816Y-93129000D01*
X119628228Y-93161703D01*
G37*
G36*
X145017142Y-93198242D02*
G01*
X145165101Y-93259529D01*
X145298255Y-93348499D01*
X145411501Y-93461745D01*
X145500471Y-93594899D01*
X145561758Y-93742858D01*
X145593000Y-93899925D01*
X145593000Y-94060075D01*
X145561758Y-94217142D01*
X145500471Y-94365101D01*
X145411501Y-94498255D01*
X145298255Y-94611501D01*
X145165101Y-94700471D01*
X145017142Y-94761758D01*
X144860075Y-94793000D01*
X144699925Y-94793000D01*
X144542858Y-94761758D01*
X144394899Y-94700471D01*
X144261745Y-94611501D01*
X144148499Y-94498255D01*
X144059529Y-94365101D01*
X143998242Y-94217142D01*
X143967000Y-94060075D01*
X143967000Y-93899925D01*
X143998242Y-93742858D01*
X144059529Y-93594899D01*
X144148499Y-93461745D01*
X144261745Y-93348499D01*
X144394899Y-93259529D01*
X144542858Y-93198242D01*
X144699925Y-93167000D01*
X144860075Y-93167000D01*
X145017142Y-93198242D01*
G37*
G36*
X147557142Y-93198242D02*
G01*
X147705101Y-93259529D01*
X147838255Y-93348499D01*
X147951501Y-93461745D01*
X148040471Y-93594899D01*
X148101758Y-93742858D01*
X148133000Y-93899925D01*
X148133000Y-94060075D01*
X148101758Y-94217142D01*
X148040471Y-94365101D01*
X147951501Y-94498255D01*
X147838255Y-94611501D01*
X147705101Y-94700471D01*
X147557142Y-94761758D01*
X147400075Y-94793000D01*
X147239925Y-94793000D01*
X147082858Y-94761758D01*
X146934899Y-94700471D01*
X146801745Y-94611501D01*
X146688499Y-94498255D01*
X146599529Y-94365101D01*
X146538242Y-94217142D01*
X146507000Y-94060075D01*
X146507000Y-93899925D01*
X146538242Y-93742858D01*
X146599529Y-93594899D01*
X146688499Y-93461745D01*
X146801745Y-93348499D01*
X146934899Y-93259529D01*
X147082858Y-93198242D01*
X147239925Y-93167000D01*
X147400075Y-93167000D01*
X147557142Y-93198242D01*
G37*
G36*
X134868228Y-90621703D02*
G01*
X135023100Y-90685853D01*
X135162481Y-90778985D01*
X135281015Y-90897519D01*
X135374147Y-91036900D01*
X135438297Y-91191772D01*
X135471000Y-91356184D01*
X135471000Y-91523816D01*
X135438297Y-91688228D01*
X135374147Y-91843100D01*
X135281015Y-91982481D01*
X135162481Y-92101015D01*
X135023100Y-92194147D01*
X134868228Y-92258297D01*
X134703816Y-92291000D01*
X134536184Y-92291000D01*
X134371772Y-92258297D01*
X134216900Y-92194147D01*
X134077519Y-92101015D01*
X133958985Y-91982481D01*
X133865853Y-91843100D01*
X133801703Y-91688228D01*
X133769000Y-91523816D01*
X133769000Y-91356184D01*
X133801703Y-91191772D01*
X133865853Y-91036900D01*
X133958985Y-90897519D01*
X134077519Y-90778985D01*
X134216900Y-90685853D01*
X134371772Y-90621703D01*
X134536184Y-90589000D01*
X134703816Y-90589000D01*
X134868228Y-90621703D01*
G37*
G36*
X119628228Y-90621703D02*
G01*
X119783100Y-90685853D01*
X119922481Y-90778985D01*
X120041015Y-90897519D01*
X120134147Y-91036900D01*
X120198297Y-91191772D01*
X120231000Y-91356184D01*
X120231000Y-91523816D01*
X120198297Y-91688228D01*
X120134147Y-91843100D01*
X120041015Y-91982481D01*
X119922481Y-92101015D01*
X119783100Y-92194147D01*
X119628228Y-92258297D01*
X119463816Y-92291000D01*
X119296184Y-92291000D01*
X119131772Y-92258297D01*
X118976900Y-92194147D01*
X118837519Y-92101015D01*
X118718985Y-91982481D01*
X118625853Y-91843100D01*
X118561703Y-91688228D01*
X118529000Y-91523816D01*
X118529000Y-91356184D01*
X118561703Y-91191772D01*
X118625853Y-91036900D01*
X118718985Y-90897519D01*
X118837519Y-90778985D01*
X118976900Y-90685853D01*
X119131772Y-90621703D01*
X119296184Y-90589000D01*
X119463816Y-90589000D01*
X119628228Y-90621703D01*
G37*
G36*
X147557142Y-90658242D02*
G01*
X147705101Y-90719529D01*
X147838255Y-90808499D01*
X147951501Y-90921745D01*
X148040471Y-91054899D01*
X148101758Y-91202858D01*
X148133000Y-91359925D01*
X148133000Y-91520075D01*
X148101758Y-91677142D01*
X148040471Y-91825101D01*
X147951501Y-91958255D01*
X147838255Y-92071501D01*
X147705101Y-92160471D01*
X147557142Y-92221758D01*
X147400075Y-92253000D01*
X147239925Y-92253000D01*
X147082858Y-92221758D01*
X146934899Y-92160471D01*
X146801745Y-92071501D01*
X146688499Y-91958255D01*
X146599529Y-91825101D01*
X146538242Y-91677142D01*
X146507000Y-91520075D01*
X146507000Y-91359925D01*
X146538242Y-91202858D01*
X146599529Y-91054899D01*
X146688499Y-90921745D01*
X146801745Y-90808499D01*
X146934899Y-90719529D01*
X147082858Y-90658242D01*
X147239925Y-90627000D01*
X147400075Y-90627000D01*
X147557142Y-90658242D01*
G37*
G36*
X145593000Y-92253000D02*
G01*
X143967000Y-92253000D01*
X143967000Y-90627000D01*
X145593000Y-90627000D01*
X145593000Y-92253000D01*
G37*
G36*
X119628228Y-88081703D02*
G01*
X119783100Y-88145853D01*
X119922481Y-88238985D01*
X120041015Y-88357519D01*
X120134147Y-88496900D01*
X120198297Y-88651772D01*
X120231000Y-88816184D01*
X120231000Y-88983816D01*
X120198297Y-89148228D01*
X120134147Y-89303100D01*
X120041015Y-89442481D01*
X119922481Y-89561015D01*
X119783100Y-89654147D01*
X119628228Y-89718297D01*
X119463816Y-89751000D01*
X119296184Y-89751000D01*
X119131772Y-89718297D01*
X118976900Y-89654147D01*
X118837519Y-89561015D01*
X118718985Y-89442481D01*
X118625853Y-89303100D01*
X118561703Y-89148228D01*
X118529000Y-88983816D01*
X118529000Y-88816184D01*
X118561703Y-88651772D01*
X118625853Y-88496900D01*
X118718985Y-88357519D01*
X118837519Y-88238985D01*
X118976900Y-88145853D01*
X119131772Y-88081703D01*
X119296184Y-88049000D01*
X119463816Y-88049000D01*
X119628228Y-88081703D01*
G37*
G36*
X134868228Y-88081703D02*
G01*
X135023100Y-88145853D01*
X135162481Y-88238985D01*
X135281015Y-88357519D01*
X135374147Y-88496900D01*
X135438297Y-88651772D01*
X135471000Y-88816184D01*
X135471000Y-88983816D01*
X135438297Y-89148228D01*
X135374147Y-89303100D01*
X135281015Y-89442481D01*
X135162481Y-89561015D01*
X135023100Y-89654147D01*
X134868228Y-89718297D01*
X134703816Y-89751000D01*
X134536184Y-89751000D01*
X134371772Y-89718297D01*
X134216900Y-89654147D01*
X134077519Y-89561015D01*
X133958985Y-89442481D01*
X133865853Y-89303100D01*
X133801703Y-89148228D01*
X133769000Y-88983816D01*
X133769000Y-88816184D01*
X133801703Y-88651772D01*
X133865853Y-88496900D01*
X133958985Y-88357519D01*
X134077519Y-88238985D01*
X134216900Y-88145853D01*
X134371772Y-88081703D01*
X134536184Y-88049000D01*
X134703816Y-88049000D01*
X134868228Y-88081703D01*
G37*
G36*
X134868228Y-85541703D02*
G01*
X135023100Y-85605853D01*
X135162481Y-85698985D01*
X135281015Y-85817519D01*
X135374147Y-85956900D01*
X135438297Y-86111772D01*
X135471000Y-86276184D01*
X135471000Y-86443816D01*
X135438297Y-86608228D01*
X135374147Y-86763100D01*
X135281015Y-86902481D01*
X135162481Y-87021015D01*
X135023100Y-87114147D01*
X134868228Y-87178297D01*
X134703816Y-87211000D01*
X134536184Y-87211000D01*
X134371772Y-87178297D01*
X134216900Y-87114147D01*
X134077519Y-87021015D01*
X133958985Y-86902481D01*
X133865853Y-86763100D01*
X133801703Y-86608228D01*
X133769000Y-86443816D01*
X133769000Y-86276184D01*
X133801703Y-86111772D01*
X133865853Y-85956900D01*
X133958985Y-85817519D01*
X134077519Y-85698985D01*
X134216900Y-85605853D01*
X134371772Y-85541703D01*
X134536184Y-85509000D01*
X134703816Y-85509000D01*
X134868228Y-85541703D01*
G37*
G36*
X119628228Y-85541703D02*
G01*
X119783100Y-85605853D01*
X119922481Y-85698985D01*
X120041015Y-85817519D01*
X120134147Y-85956900D01*
X120198297Y-86111772D01*
X120231000Y-86276184D01*
X120231000Y-86443816D01*
X120198297Y-86608228D01*
X120134147Y-86763100D01*
X120041015Y-86902481D01*
X119922481Y-87021015D01*
X119783100Y-87114147D01*
X119628228Y-87178297D01*
X119463816Y-87211000D01*
X119296184Y-87211000D01*
X119131772Y-87178297D01*
X118976900Y-87114147D01*
X118837519Y-87021015D01*
X118718985Y-86902481D01*
X118625853Y-86763100D01*
X118561703Y-86608228D01*
X118529000Y-86443816D01*
X118529000Y-86276184D01*
X118561703Y-86111772D01*
X118625853Y-85956900D01*
X118718985Y-85817519D01*
X118837519Y-85698985D01*
X118976900Y-85605853D01*
X119131772Y-85541703D01*
X119296184Y-85509000D01*
X119463816Y-85509000D01*
X119628228Y-85541703D01*
G37*
G36*
X144925936Y-82821340D02*
G01*
X145024220Y-82831020D01*
X145213381Y-82888401D01*
X145387712Y-82981583D01*
X145540515Y-83106985D01*
X145665917Y-83259788D01*
X145759099Y-83434119D01*
X145816480Y-83623280D01*
X145835855Y-83820000D01*
X145816480Y-84016720D01*
X145759099Y-84205881D01*
X145665917Y-84380212D01*
X145540515Y-84533015D01*
X145387712Y-84658417D01*
X145213381Y-84751599D01*
X145024220Y-84808980D01*
X144925936Y-84818660D01*
X144876795Y-84823500D01*
X144683205Y-84823500D01*
X144634064Y-84818660D01*
X144535780Y-84808980D01*
X144346619Y-84751599D01*
X144172288Y-84658417D01*
X144019485Y-84533015D01*
X143894083Y-84380212D01*
X143800901Y-84205881D01*
X143743520Y-84016720D01*
X143724145Y-83820000D01*
X143743520Y-83623280D01*
X143800901Y-83434119D01*
X143894083Y-83259788D01*
X144019485Y-83106985D01*
X144172288Y-82981583D01*
X144346619Y-82888401D01*
X144535780Y-82831020D01*
X144634064Y-82821340D01*
X144683205Y-82816500D01*
X144876795Y-82816500D01*
X144925936Y-82821340D01*
G37*
G36*
X119628228Y-83001703D02*
G01*
X119783100Y-83065853D01*
X119922481Y-83158985D01*
X120041015Y-83277519D01*
X120134147Y-83416900D01*
X120198297Y-83571772D01*
X120231000Y-83736184D01*
X120231000Y-83903816D01*
X120198297Y-84068228D01*
X120134147Y-84223100D01*
X120041015Y-84362481D01*
X119922481Y-84481015D01*
X119783100Y-84574147D01*
X119628228Y-84638297D01*
X119463816Y-84671000D01*
X119296184Y-84671000D01*
X119131772Y-84638297D01*
X118976900Y-84574147D01*
X118837519Y-84481015D01*
X118718985Y-84362481D01*
X118625853Y-84223100D01*
X118561703Y-84068228D01*
X118529000Y-83903816D01*
X118529000Y-83736184D01*
X118561703Y-83571772D01*
X118625853Y-83416900D01*
X118718985Y-83277519D01*
X118837519Y-83158985D01*
X118976900Y-83065853D01*
X119131772Y-83001703D01*
X119296184Y-82969000D01*
X119463816Y-82969000D01*
X119628228Y-83001703D01*
G37*
G36*
X134868228Y-83001703D02*
G01*
X135023100Y-83065853D01*
X135162481Y-83158985D01*
X135281015Y-83277519D01*
X135374147Y-83416900D01*
X135438297Y-83571772D01*
X135471000Y-83736184D01*
X135471000Y-83903816D01*
X135438297Y-84068228D01*
X135374147Y-84223100D01*
X135281015Y-84362481D01*
X135162481Y-84481015D01*
X135023100Y-84574147D01*
X134868228Y-84638297D01*
X134703816Y-84671000D01*
X134536184Y-84671000D01*
X134371772Y-84638297D01*
X134216900Y-84574147D01*
X134077519Y-84481015D01*
X133958985Y-84362481D01*
X133865853Y-84223100D01*
X133801703Y-84068228D01*
X133769000Y-83903816D01*
X133769000Y-83736184D01*
X133801703Y-83571772D01*
X133865853Y-83416900D01*
X133958985Y-83277519D01*
X134077519Y-83158985D01*
X134216900Y-83065853D01*
X134371772Y-83001703D01*
X134536184Y-82969000D01*
X134703816Y-82969000D01*
X134868228Y-83001703D01*
G37*
G36*
X161105331Y-79548211D02*
G01*
X161433092Y-79683974D01*
X161728070Y-79881072D01*
X161978928Y-80131930D01*
X162176026Y-80426908D01*
X162311789Y-80754669D01*
X162381000Y-81102616D01*
X162381000Y-81457384D01*
X162311789Y-81805331D01*
X162176026Y-82133092D01*
X161978928Y-82428070D01*
X161728070Y-82678928D01*
X161433092Y-82876026D01*
X161105331Y-83011789D01*
X160757384Y-83081000D01*
X160402616Y-83081000D01*
X160054669Y-83011789D01*
X159726908Y-82876026D01*
X159431930Y-82678928D01*
X159181072Y-82428070D01*
X158983974Y-82133092D01*
X158848211Y-81805331D01*
X158779000Y-81457384D01*
X158779000Y-81102616D01*
X158848211Y-80754669D01*
X158983974Y-80426908D01*
X159181072Y-80131930D01*
X159431930Y-79881072D01*
X159726908Y-79683974D01*
X160054669Y-79548211D01*
X160402616Y-79479000D01*
X160757384Y-79479000D01*
X161105331Y-79548211D01*
G37*
G36*
X144925936Y-80281340D02*
G01*
X145024220Y-80291020D01*
X145213381Y-80348401D01*
X145387712Y-80441583D01*
X145540515Y-80566985D01*
X145665917Y-80719788D01*
X145759099Y-80894119D01*
X145816480Y-81083280D01*
X145835855Y-81280000D01*
X145816480Y-81476720D01*
X145759099Y-81665881D01*
X145665917Y-81840212D01*
X145540515Y-81993015D01*
X145387712Y-82118417D01*
X145213381Y-82211599D01*
X145024220Y-82268980D01*
X144925936Y-82278660D01*
X144876795Y-82283500D01*
X144683205Y-82283500D01*
X144634064Y-82278660D01*
X144535780Y-82268980D01*
X144346619Y-82211599D01*
X144172288Y-82118417D01*
X144019485Y-81993015D01*
X143894083Y-81840212D01*
X143800901Y-81665881D01*
X143743520Y-81476720D01*
X143724145Y-81280000D01*
X143743520Y-81083280D01*
X143800901Y-80894119D01*
X143894083Y-80719788D01*
X144019485Y-80566985D01*
X144172288Y-80441583D01*
X144346619Y-80348401D01*
X144535780Y-80291020D01*
X144634064Y-80281340D01*
X144683205Y-80276500D01*
X144876795Y-80276500D01*
X144925936Y-80281340D01*
G37*
G36*
X134868228Y-80461703D02*
G01*
X135023100Y-80525853D01*
X135162481Y-80618985D01*
X135281015Y-80737519D01*
X135374147Y-80876900D01*
X135438297Y-81031772D01*
X135471000Y-81196184D01*
X135471000Y-81363816D01*
X135438297Y-81528228D01*
X135374147Y-81683100D01*
X135281015Y-81822481D01*
X135162481Y-81941015D01*
X135023100Y-82034147D01*
X134868228Y-82098297D01*
X134703816Y-82131000D01*
X134536184Y-82131000D01*
X134371772Y-82098297D01*
X134216900Y-82034147D01*
X134077519Y-81941015D01*
X133958985Y-81822481D01*
X133865853Y-81683100D01*
X133801703Y-81528228D01*
X133769000Y-81363816D01*
X133769000Y-81196184D01*
X133801703Y-81031772D01*
X133865853Y-80876900D01*
X133958985Y-80737519D01*
X134077519Y-80618985D01*
X134216900Y-80525853D01*
X134371772Y-80461703D01*
X134536184Y-80429000D01*
X134703816Y-80429000D01*
X134868228Y-80461703D01*
G37*
G36*
X119628228Y-80461703D02*
G01*
X119783100Y-80525853D01*
X119922481Y-80618985D01*
X120041015Y-80737519D01*
X120134147Y-80876900D01*
X120198297Y-81031772D01*
X120231000Y-81196184D01*
X120231000Y-81363816D01*
X120198297Y-81528228D01*
X120134147Y-81683100D01*
X120041015Y-81822481D01*
X119922481Y-81941015D01*
X119783100Y-82034147D01*
X119628228Y-82098297D01*
X119463816Y-82131000D01*
X119296184Y-82131000D01*
X119131772Y-82098297D01*
X118976900Y-82034147D01*
X118837519Y-81941015D01*
X118718985Y-81822481D01*
X118625853Y-81683100D01*
X118561703Y-81528228D01*
X118529000Y-81363816D01*
X118529000Y-81196184D01*
X118561703Y-81031772D01*
X118625853Y-80876900D01*
X118718985Y-80737519D01*
X118837519Y-80618985D01*
X118976900Y-80525853D01*
X119131772Y-80461703D01*
X119296184Y-80429000D01*
X119463816Y-80429000D01*
X119628228Y-80461703D01*
G37*
G36*
X145831000Y-79743500D02*
G01*
X143729000Y-79743500D01*
X143729000Y-77736500D01*
X145831000Y-77736500D01*
X145831000Y-79743500D01*
G37*
G36*
X134868228Y-77921703D02*
G01*
X135023100Y-77985853D01*
X135162481Y-78078985D01*
X135281015Y-78197519D01*
X135374147Y-78336900D01*
X135438297Y-78491772D01*
X135471000Y-78656184D01*
X135471000Y-78823816D01*
X135438297Y-78988228D01*
X135374147Y-79143100D01*
X135281015Y-79282481D01*
X135162481Y-79401015D01*
X135023100Y-79494147D01*
X134868228Y-79558297D01*
X134703816Y-79591000D01*
X134536184Y-79591000D01*
X134371772Y-79558297D01*
X134216900Y-79494147D01*
X134077519Y-79401015D01*
X133958985Y-79282481D01*
X133865853Y-79143100D01*
X133801703Y-78988228D01*
X133769000Y-78823816D01*
X133769000Y-78656184D01*
X133801703Y-78491772D01*
X133865853Y-78336900D01*
X133958985Y-78197519D01*
X134077519Y-78078985D01*
X134216900Y-77985853D01*
X134371772Y-77921703D01*
X134536184Y-77889000D01*
X134703816Y-77889000D01*
X134868228Y-77921703D01*
G37*
G36*
X119628228Y-77921703D02*
G01*
X119783100Y-77985853D01*
X119922481Y-78078985D01*
X120041015Y-78197519D01*
X120134147Y-78336900D01*
X120198297Y-78491772D01*
X120231000Y-78656184D01*
X120231000Y-78823816D01*
X120198297Y-78988228D01*
X120134147Y-79143100D01*
X120041015Y-79282481D01*
X119922481Y-79401015D01*
X119783100Y-79494147D01*
X119628228Y-79558297D01*
X119463816Y-79591000D01*
X119296184Y-79591000D01*
X119131772Y-79558297D01*
X118976900Y-79494147D01*
X118837519Y-79401015D01*
X118718985Y-79282481D01*
X118625853Y-79143100D01*
X118561703Y-78988228D01*
X118529000Y-78823816D01*
X118529000Y-78656184D01*
X118561703Y-78491772D01*
X118625853Y-78336900D01*
X118718985Y-78197519D01*
X118837519Y-78078985D01*
X118976900Y-77985853D01*
X119131772Y-77921703D01*
X119296184Y-77889000D01*
X119463816Y-77889000D01*
X119628228Y-77921703D01*
G37*
G36*
X134868228Y-75381703D02*
G01*
X135023100Y-75445853D01*
X135162481Y-75538985D01*
X135281015Y-75657519D01*
X135374147Y-75796900D01*
X135438297Y-75951772D01*
X135471000Y-76116184D01*
X135471000Y-76283816D01*
X135438297Y-76448228D01*
X135374147Y-76603100D01*
X135281015Y-76742481D01*
X135162481Y-76861015D01*
X135023100Y-76954147D01*
X134868228Y-77018297D01*
X134703816Y-77051000D01*
X134536184Y-77051000D01*
X134371772Y-77018297D01*
X134216900Y-76954147D01*
X134077519Y-76861015D01*
X133958985Y-76742481D01*
X133865853Y-76603100D01*
X133801703Y-76448228D01*
X133769000Y-76283816D01*
X133769000Y-76116184D01*
X133801703Y-75951772D01*
X133865853Y-75796900D01*
X133958985Y-75657519D01*
X134077519Y-75538985D01*
X134216900Y-75445853D01*
X134371772Y-75381703D01*
X134536184Y-75349000D01*
X134703816Y-75349000D01*
X134868228Y-75381703D01*
G37*
G36*
X119628228Y-75381703D02*
G01*
X119783100Y-75445853D01*
X119922481Y-75538985D01*
X120041015Y-75657519D01*
X120134147Y-75796900D01*
X120198297Y-75951772D01*
X120231000Y-76116184D01*
X120231000Y-76283816D01*
X120198297Y-76448228D01*
X120134147Y-76603100D01*
X120041015Y-76742481D01*
X119922481Y-76861015D01*
X119783100Y-76954147D01*
X119628228Y-77018297D01*
X119463816Y-77051000D01*
X119296184Y-77051000D01*
X119131772Y-77018297D01*
X118976900Y-76954147D01*
X118837519Y-76861015D01*
X118718985Y-76742481D01*
X118625853Y-76603100D01*
X118561703Y-76448228D01*
X118529000Y-76283816D01*
X118529000Y-76116184D01*
X118561703Y-75951772D01*
X118625853Y-75796900D01*
X118718985Y-75657519D01*
X118837519Y-75538985D01*
X118976900Y-75445853D01*
X119131772Y-75381703D01*
X119296184Y-75349000D01*
X119463816Y-75349000D01*
X119628228Y-75381703D01*
G37*
G36*
X134868228Y-72841703D02*
G01*
X135023100Y-72905853D01*
X135162481Y-72998985D01*
X135281015Y-73117519D01*
X135374147Y-73256900D01*
X135438297Y-73411772D01*
X135471000Y-73576184D01*
X135471000Y-73743816D01*
X135438297Y-73908228D01*
X135374147Y-74063100D01*
X135281015Y-74202481D01*
X135162481Y-74321015D01*
X135023100Y-74414147D01*
X134868228Y-74478297D01*
X134703816Y-74511000D01*
X134536184Y-74511000D01*
X134371772Y-74478297D01*
X134216900Y-74414147D01*
X134077519Y-74321015D01*
X133958985Y-74202481D01*
X133865853Y-74063100D01*
X133801703Y-73908228D01*
X133769000Y-73743816D01*
X133769000Y-73576184D01*
X133801703Y-73411772D01*
X133865853Y-73256900D01*
X133958985Y-73117519D01*
X134077519Y-72998985D01*
X134216900Y-72905853D01*
X134371772Y-72841703D01*
X134536184Y-72809000D01*
X134703816Y-72809000D01*
X134868228Y-72841703D01*
G37*
G36*
X119628228Y-72841703D02*
G01*
X119783100Y-72905853D01*
X119922481Y-72998985D01*
X120041015Y-73117519D01*
X120134147Y-73256900D01*
X120198297Y-73411772D01*
X120231000Y-73576184D01*
X120231000Y-73743816D01*
X120198297Y-73908228D01*
X120134147Y-74063100D01*
X120041015Y-74202481D01*
X119922481Y-74321015D01*
X119783100Y-74414147D01*
X119628228Y-74478297D01*
X119463816Y-74511000D01*
X119296184Y-74511000D01*
X119131772Y-74478297D01*
X118976900Y-74414147D01*
X118837519Y-74321015D01*
X118718985Y-74202481D01*
X118625853Y-74063100D01*
X118561703Y-73908228D01*
X118529000Y-73743816D01*
X118529000Y-73576184D01*
X118561703Y-73411772D01*
X118625853Y-73256900D01*
X118718985Y-73117519D01*
X118837519Y-72998985D01*
X118976900Y-72905853D01*
X119131772Y-72841703D01*
X119296184Y-72809000D01*
X119463816Y-72809000D01*
X119628228Y-72841703D01*
G37*
G36*
X119628228Y-70301703D02*
G01*
X119783100Y-70365853D01*
X119922481Y-70458985D01*
X120041015Y-70577519D01*
X120134147Y-70716900D01*
X120198297Y-70871772D01*
X120231000Y-71036184D01*
X120231000Y-71203816D01*
X120198297Y-71368228D01*
X120134147Y-71523100D01*
X120041015Y-71662481D01*
X119922481Y-71781015D01*
X119783100Y-71874147D01*
X119628228Y-71938297D01*
X119463816Y-71971000D01*
X119296184Y-71971000D01*
X119131772Y-71938297D01*
X118976900Y-71874147D01*
X118837519Y-71781015D01*
X118718985Y-71662481D01*
X118625853Y-71523100D01*
X118561703Y-71368228D01*
X118529000Y-71203816D01*
X118529000Y-71036184D01*
X118561703Y-70871772D01*
X118625853Y-70716900D01*
X118718985Y-70577519D01*
X118837519Y-70458985D01*
X118976900Y-70365853D01*
X119131772Y-70301703D01*
X119296184Y-70269000D01*
X119463816Y-70269000D01*
X119628228Y-70301703D01*
G37*
G36*
X134868228Y-70301703D02*
G01*
X135023100Y-70365853D01*
X135162481Y-70458985D01*
X135281015Y-70577519D01*
X135374147Y-70716900D01*
X135438297Y-70871772D01*
X135471000Y-71036184D01*
X135471000Y-71203816D01*
X135438297Y-71368228D01*
X135374147Y-71523100D01*
X135281015Y-71662481D01*
X135162481Y-71781015D01*
X135023100Y-71874147D01*
X134868228Y-71938297D01*
X134703816Y-71971000D01*
X134536184Y-71971000D01*
X134371772Y-71938297D01*
X134216900Y-71874147D01*
X134077519Y-71781015D01*
X133958985Y-71662481D01*
X133865853Y-71523100D01*
X133801703Y-71368228D01*
X133769000Y-71203816D01*
X133769000Y-71036184D01*
X133801703Y-70871772D01*
X133865853Y-70716900D01*
X133958985Y-70577519D01*
X134077519Y-70458985D01*
X134216900Y-70365853D01*
X134371772Y-70301703D01*
X134536184Y-70269000D01*
X134703816Y-70269000D01*
X134868228Y-70301703D01*
G37*
G36*
X144893512Y-67683927D02*
G01*
X145042812Y-67713624D01*
X145206784Y-67781544D01*
X145354354Y-67880147D01*
X145479853Y-68005646D01*
X145578456Y-68153216D01*
X145646376Y-68317188D01*
X145681000Y-68491259D01*
X145681000Y-68668741D01*
X145646376Y-68842812D01*
X145578456Y-69006784D01*
X145479853Y-69154354D01*
X145354354Y-69279853D01*
X145206784Y-69378456D01*
X145042812Y-69446376D01*
X144893512Y-69476073D01*
X144868742Y-69481000D01*
X144691258Y-69481000D01*
X144666488Y-69476073D01*
X144517188Y-69446376D01*
X144353216Y-69378456D01*
X144205646Y-69279853D01*
X144080147Y-69154354D01*
X143981544Y-69006784D01*
X143913624Y-68842812D01*
X143879000Y-68668741D01*
X143879000Y-68491259D01*
X143913624Y-68317188D01*
X143981544Y-68153216D01*
X144080147Y-68005646D01*
X144205646Y-67880147D01*
X144353216Y-67781544D01*
X144517188Y-67713624D01*
X144666488Y-67683927D01*
X144691258Y-67679000D01*
X144868742Y-67679000D01*
X144893512Y-67683927D01*
G37*
G36*
X134868228Y-67761703D02*
G01*
X135023100Y-67825853D01*
X135162481Y-67918985D01*
X135281015Y-68037519D01*
X135374147Y-68176900D01*
X135438297Y-68331772D01*
X135471000Y-68496184D01*
X135471000Y-68663816D01*
X135438297Y-68828228D01*
X135374147Y-68983100D01*
X135281015Y-69122481D01*
X135162481Y-69241015D01*
X135023100Y-69334147D01*
X134868228Y-69398297D01*
X134703816Y-69431000D01*
X134536184Y-69431000D01*
X134371772Y-69398297D01*
X134216900Y-69334147D01*
X134077519Y-69241015D01*
X133958985Y-69122481D01*
X133865853Y-68983100D01*
X133801703Y-68828228D01*
X133769000Y-68663816D01*
X133769000Y-68496184D01*
X133801703Y-68331772D01*
X133865853Y-68176900D01*
X133958985Y-68037519D01*
X134077519Y-67918985D01*
X134216900Y-67825853D01*
X134371772Y-67761703D01*
X134536184Y-67729000D01*
X134703816Y-67729000D01*
X134868228Y-67761703D01*
G37*
G36*
X119628228Y-67761703D02*
G01*
X119783100Y-67825853D01*
X119922481Y-67918985D01*
X120041015Y-68037519D01*
X120134147Y-68176900D01*
X120198297Y-68331772D01*
X120231000Y-68496184D01*
X120231000Y-68663816D01*
X120198297Y-68828228D01*
X120134147Y-68983100D01*
X120041015Y-69122481D01*
X119922481Y-69241015D01*
X119783100Y-69334147D01*
X119628228Y-69398297D01*
X119463816Y-69431000D01*
X119296184Y-69431000D01*
X119131772Y-69398297D01*
X118976900Y-69334147D01*
X118837519Y-69241015D01*
X118718985Y-69122481D01*
X118625853Y-68983100D01*
X118561703Y-68828228D01*
X118529000Y-68663816D01*
X118529000Y-68496184D01*
X118561703Y-68331772D01*
X118625853Y-68176900D01*
X118718985Y-68037519D01*
X118837519Y-67918985D01*
X118976900Y-67825853D01*
X119131772Y-67761703D01*
X119296184Y-67729000D01*
X119463816Y-67729000D01*
X119628228Y-67761703D01*
G37*
G36*
X144893512Y-65143927D02*
G01*
X145042812Y-65173624D01*
X145206784Y-65241544D01*
X145354354Y-65340147D01*
X145479853Y-65465646D01*
X145578456Y-65613216D01*
X145646376Y-65777188D01*
X145681000Y-65951259D01*
X145681000Y-66128741D01*
X145646376Y-66302812D01*
X145578456Y-66466784D01*
X145479853Y-66614354D01*
X145354354Y-66739853D01*
X145206784Y-66838456D01*
X145042812Y-66906376D01*
X144893512Y-66936073D01*
X144868742Y-66941000D01*
X144691258Y-66941000D01*
X144666488Y-66936073D01*
X144517188Y-66906376D01*
X144353216Y-66838456D01*
X144205646Y-66739853D01*
X144080147Y-66614354D01*
X143981544Y-66466784D01*
X143913624Y-66302812D01*
X143879000Y-66128741D01*
X143879000Y-65951259D01*
X143913624Y-65777188D01*
X143981544Y-65613216D01*
X144080147Y-65465646D01*
X144205646Y-65340147D01*
X144353216Y-65241544D01*
X144517188Y-65173624D01*
X144666488Y-65143927D01*
X144691258Y-65139000D01*
X144868742Y-65139000D01*
X144893512Y-65143927D01*
G37*
G36*
X134868228Y-65221703D02*
G01*
X135023100Y-65285853D01*
X135162481Y-65378985D01*
X135281015Y-65497519D01*
X135374147Y-65636900D01*
X135438297Y-65791772D01*
X135471000Y-65956184D01*
X135471000Y-66123816D01*
X135438297Y-66288228D01*
X135374147Y-66443100D01*
X135281015Y-66582481D01*
X135162481Y-66701015D01*
X135023100Y-66794147D01*
X134868228Y-66858297D01*
X134703816Y-66891000D01*
X134536184Y-66891000D01*
X134371772Y-66858297D01*
X134216900Y-66794147D01*
X134077519Y-66701015D01*
X133958985Y-66582481D01*
X133865853Y-66443100D01*
X133801703Y-66288228D01*
X133769000Y-66123816D01*
X133769000Y-65956184D01*
X133801703Y-65791772D01*
X133865853Y-65636900D01*
X133958985Y-65497519D01*
X134077519Y-65378985D01*
X134216900Y-65285853D01*
X134371772Y-65221703D01*
X134536184Y-65189000D01*
X134703816Y-65189000D01*
X134868228Y-65221703D01*
G37*
G36*
X119628228Y-65221703D02*
G01*
X119783100Y-65285853D01*
X119922481Y-65378985D01*
X120041015Y-65497519D01*
X120134147Y-65636900D01*
X120198297Y-65791772D01*
X120231000Y-65956184D01*
X120231000Y-66123816D01*
X120198297Y-66288228D01*
X120134147Y-66443100D01*
X120041015Y-66582481D01*
X119922481Y-66701015D01*
X119783100Y-66794147D01*
X119628228Y-66858297D01*
X119463816Y-66891000D01*
X119296184Y-66891000D01*
X119131772Y-66858297D01*
X118976900Y-66794147D01*
X118837519Y-66701015D01*
X118718985Y-66582481D01*
X118625853Y-66443100D01*
X118561703Y-66288228D01*
X118529000Y-66123816D01*
X118529000Y-65956184D01*
X118561703Y-65791772D01*
X118625853Y-65636900D01*
X118718985Y-65497519D01*
X118837519Y-65378985D01*
X118976900Y-65285853D01*
X119131772Y-65221703D01*
X119296184Y-65189000D01*
X119463816Y-65189000D01*
X119628228Y-65221703D01*
G37*
G36*
X145681000Y-64401000D02*
G01*
X143879000Y-64401000D01*
X143879000Y-62599000D01*
X145681000Y-62599000D01*
X145681000Y-64401000D01*
G37*
G36*
X120231000Y-64351000D02*
G01*
X118529000Y-64351000D01*
X118529000Y-62649000D01*
X120231000Y-62649000D01*
X120231000Y-64351000D01*
G37*
G36*
X134868228Y-62681703D02*
G01*
X135023100Y-62745853D01*
X135162481Y-62838985D01*
X135281015Y-62957519D01*
X135374147Y-63096900D01*
X135438297Y-63251772D01*
X135471000Y-63416184D01*
X135471000Y-63583816D01*
X135438297Y-63748228D01*
X135374147Y-63903100D01*
X135281015Y-64042481D01*
X135162481Y-64161015D01*
X135023100Y-64254147D01*
X134868228Y-64318297D01*
X134703816Y-64351000D01*
X134536184Y-64351000D01*
X134371772Y-64318297D01*
X134216900Y-64254147D01*
X134077519Y-64161015D01*
X133958985Y-64042481D01*
X133865853Y-63903100D01*
X133801703Y-63748228D01*
X133769000Y-63583816D01*
X133769000Y-63416184D01*
X133801703Y-63251772D01*
X133865853Y-63096900D01*
X133958985Y-62957519D01*
X134077519Y-62838985D01*
X134216900Y-62745853D01*
X134371772Y-62681703D01*
X134536184Y-62649000D01*
X134703816Y-62649000D01*
X134868228Y-62681703D01*
G37*
G36*
X129171000Y-54241000D02*
G01*
X127369000Y-54241000D01*
X127369000Y-52439000D01*
X129171000Y-52439000D01*
X129171000Y-54241000D01*
G37*
G36*
X125843512Y-52443927D02*
G01*
X125992812Y-52473624D01*
X126156784Y-52541544D01*
X126304354Y-52640147D01*
X126429853Y-52765646D01*
X126528456Y-52913216D01*
X126596376Y-53077188D01*
X126631000Y-53251259D01*
X126631000Y-53428741D01*
X126596376Y-53602812D01*
X126528456Y-53766784D01*
X126429853Y-53914354D01*
X126304354Y-54039853D01*
X126156784Y-54138456D01*
X125992812Y-54206376D01*
X125843512Y-54236073D01*
X125818742Y-54241000D01*
X125641258Y-54241000D01*
X125616488Y-54236073D01*
X125467188Y-54206376D01*
X125303216Y-54138456D01*
X125155646Y-54039853D01*
X125030147Y-53914354D01*
X124931544Y-53766784D01*
X124863624Y-53602812D01*
X124829000Y-53428741D01*
X124829000Y-53251259D01*
X124863624Y-53077188D01*
X124931544Y-52913216D01*
X125030147Y-52765646D01*
X125155646Y-52640147D01*
X125303216Y-52541544D01*
X125467188Y-52473624D01*
X125616488Y-52443927D01*
X125641258Y-52439000D01*
X125818742Y-52439000D01*
X125843512Y-52443927D01*
G37*
M02*
